<svg xmlns="http://www.w3.org/2000/svg" width="24" height="16.773" viewBox="0 0 24 16.773">
  <path id="Icon_simple-youtube" data-name="Icon simple-youtube" d="M23.507,8.617a3.008,3.008,0,0,0-2.089-2.089c-1.871-.5-9.4-.5-9.4-.5s-7.51-.01-9.4.5A3.008,3.008,0,0,0,.53,8.617a31.259,31.259,0,0,0-.522,5.807A31.259,31.259,0,0,0,.53,20.209,3.008,3.008,0,0,0,2.619,22.3c1.869.5,9.4.5,9.4.5s7.509,0,9.4-.5a3.008,3.008,0,0,0,2.089-2.089,31.258,31.258,0,0,0,.5-5.785,31.258,31.258,0,0,0-.5-5.807Zm-13.891,9.4v-7.2l6.266,3.6Z" transform="translate(-0.008 -6.027)" fill="#fff" opacity="0.8"/>
</svg>
