<svg xmlns="http://www.w3.org/2000/svg" width="18" height="18" viewBox="0 0 18 18">
  <g id="Icon_feather-arrow-up" data-name="Icon feather-arrow-up" transform="translate(-5.667 -5.667)">
    <path id="패스_1" data-name="패스 1" d="M16,23.667a1,1,0,0,1-1-1v-16a1,1,0,1,1,2,0v16A1,1,0,0,1,16,23.667Z" transform="translate(-1.333 0)" fill="#fff"/>
    <path id="패스_2" data-name="패스 2" d="M22.667,15.667a1,1,0,0,1-.707-.293L14.667,8.081,7.374,15.374A1,1,0,0,1,5.96,13.96l8-8a1,1,0,0,1,1.414,0l8,8a1,1,0,0,1-.707,1.707Z" transform="translate(0 0)" fill="#fff"/>
  </g>
</svg>
