<?xml version="1.0" encoding="utf-8"?>
<!-- Generator: Adobe Illustrator 27.0.0, SVG Export Plug-In . SVG Version: 6.00 Build 0)  -->
<svg version="1.1" id="_레이어_1" xmlns="http://www.w3.org/2000/svg" xmlns:xlink="http://www.w3.org/1999/xlink" x="0px"
	 y="0px" width="144px" height="40px" viewBox="0 0 144 40" style="enable-background:new 0 0 144 40;" xml:space="preserve">
<style type="text/css">
	.st0{clip-path:url(#SVGID_00000103259463703623084280000003264431869482562227_);}
	.st1{fill:#1D3661;}
	.st2{clip-path:url(#SVGID_00000052062392301026449150000013751751478866004402_);}
</style>
<g id="_기본">
	<g>
		<defs>
			<rect id="SVGID_1_" y="6" width="143.457" height="28"/>
		</defs>
		<clipPath id="SVGID_00000166641486516418081610000015095736824134194367_">
			<use xlink:href="#SVGID_1_"  style="overflow:visible;"/>
		</clipPath>
		<g style="clip-path:url(#SVGID_00000166641486516418081610000015095736824134194367_);">
			<polygon class="st1" points="27.978,30.381 27.978,9.896 40.607,9.896 40.607,13.092 32.09,13.092 32.09,18.795 38.724,18.795 
				38.724,22.021 32.09,22.021 32.09,30.381 			"/>
			<g>
				<defs>
					<rect id="SVGID_00000015313421111239698210000015634931385620169914_" y="6" width="143.457" height="28"/>
				</defs>
				<clipPath id="SVGID_00000002371306682485779540000001375464363243947409_">
					<use xlink:href="#SVGID_00000015313421111239698210000015634931385620169914_"  style="overflow:visible;"/>
				</clipPath>
				<g style="clip-path:url(#SVGID_00000002371306682485779540000001375464363243947409_);">
					<path class="st1" d="M58.674,28.038c-1.7,1.782-3.93,2.673-6.691,2.673c-2.761,0-4.967-0.871-6.618-2.613
						c-1.651-1.743-2.477-4.275-2.477-7.6v-0.687c0-3.285,0.85-5.812,2.549-7.585c1.699-1.771,3.929-2.657,6.691-2.657
						c2.762,0,4.967,0.866,6.618,2.598c1.651,1.732,2.476,4.27,2.476,7.614v0.657C61.222,23.722,60.373,26.256,58.674,28.038
						 M52.069,27.485c1.583,0,2.785-0.593,3.606-1.777c0.82-1.184,1.231-2.812,1.231-4.882v-1.015c0-2.329-0.391-4.081-1.173-5.256
						c-0.782-1.174-2.032-1.771-3.751-1.792c-1.546,0-2.723,0.593-3.535,1.777c-0.811,1.184-1.216,2.812-1.216,4.882v1.044
						C47.231,25.145,48.843,27.484,52.069,27.485"/>
					<polygon class="st1" points="63.099,30.381 69.326,19.87 63.534,9.896 68.11,9.896 72.223,17.123 72.31,17.123 76.25,9.896 
						80.334,9.896 74.685,19.811 80.739,30.381 76.163,30.381 71.76,22.677 71.645,22.677 67.27,30.381 					"/>
					<polygon class="st1" points="91.246,30.381 91.246,9.896 103.992,9.896 103.992,13.092 95.36,13.092 95.36,18.287 
						102.109,18.287 102.109,21.452 95.36,21.452 95.36,27.127 104.195,27.127 104.195,30.381 					"/>
					<path class="st1" d="M108.039,30.381V9.897h6.807c6.431,0,9.646,3.245,9.646,9.735v0.597c0,3.325-0.811,5.848-2.433,7.57
						c-1.623,1.721-4.017,2.583-7.183,2.583H108.039L108.039,30.381z M112.152,27.127h2.723c1.834,0,3.171-0.502,4.011-1.507
						c0.839-1.005,1.259-2.682,1.259-5.033v-1.015c0-2.388-0.454-4.066-1.361-5.032c-0.908-0.965-2.289-1.449-4.142-1.449h-2.491
						L112.152,27.127L112.152,27.127z"/>
					<path class="st1" d="M135.753,30.74c-5.35,0-8.024-2.527-8.024-7.584V9.896h4.142v13.02c0,1.692,0.324,2.887,0.971,3.583
						c0.647,0.697,1.666,1.045,3.056,1.045c1.332,0,2.298-0.348,2.896-1.045c0.599-0.696,0.898-1.9,0.898-3.612V9.896h3.765v13.169
						c0,2.608-0.627,4.539-1.883,5.792C140.319,30.112,138.378,30.739,135.753,30.74"/>
					<path class="st1" d="M18.333,8.886c-0.129,0-0.255-0.013-0.376-0.038v15.328l-7.252,7.251c0.212,0.14,0.392,0.321,0.533,0.533
						l7.361-7.362l0.11-0.111V8.849C18.587,8.873,18.461,8.887,18.333,8.886"/>
					<path class="st1" d="M2.04,8.572L9.668,16.2l7.628-7.628c-0.211-0.14-0.392-0.321-0.533-0.532l-7.095,7.095L2.573,8.04
						C2.433,8.251,2.252,8.433,2.04,8.572"/>
					<path class="st1" d="M8.632,31.427l-7.252-7.25V8.848C1.259,8.873,1.133,8.886,1.004,8.886S0.749,8.873,0.628,8.848v15.64
						l7.471,7.471C8.239,31.748,8.421,31.567,8.632,31.427"/>
					<path class="st1" d="M18.333,6c-0.553,0-1.003,0.451-1.003,1.004s0.451,1.003,1.003,1.003s1.004-0.451,1.004-1.003
						S18.886,6,18.333,6"/>
					
						<rect x="0.722" y="19.75" transform="matrix(0.7071 -0.7071 0.7071 0.7071 -12.5793 9.6314)" class="st1" width="9.229" height="0.501"/>
					
						<rect x="13.749" y="15.385" transform="matrix(0.7071 -0.7071 0.7071 0.7071 -10.0414 15.7571)" class="st1" width="0.501" height="9.229"/>
					<path class="st1" d="M1.004,6C0.451,6,0,6.451,0,7.004s0.451,1.003,1.004,1.003s1.004-0.451,1.004-1.003S1.558,6,1.004,6"/>
					<path class="st1" d="M9.668,31.992c-0.553,0-1.004,0.451-1.004,1.004S9.115,34,9.668,34s1.004-0.451,1.004-1.003
						S10.222,31.992,9.668,31.992"/>
				</g>
			</g>
		</g>
	</g>
</g>
</svg>
