<?xml version="1.0" encoding="UTF-8"?><svg id="_레이어_1" xmlns="http://www.w3.org/2000/svg" width="200" height="40" viewBox="0 0 200 40"><defs><style>.cls-1{fill:#0076ce;}</style></defs><path class="cls-1" d="M200,23.714c0-2.409-1.339-3.48-4.017-4.016-2.676-.535-4.282-.803-4.282-2.677,0-1.338,1.071-2.142,2.945-2.142,2.409,0,3.212,1.071,3.212,2.409l.267,.267h1.071l.269-.267c0-2.676-2.143-3.748-4.819-3.748-2.945,0-4.551,1.607-4.551,3.481,0,2.142,1.606,3.212,4.282,3.747,2.678,.536,4.016,.803,4.016,2.945,0,1.338-.802,2.409-3.48,2.409-2.409,0-3.48-1.339-3.48-2.945l-.267-.267h-1.071l-.267,.267c0,2.409,1.873,4.283,5.086,4.283,3.48,0,5.087-1.606,5.087-3.747m-11.511-2.676l.266-.269v-.802c0-3.748-2.142-6.426-5.889-6.426s-5.889,2.678-5.889,6.426v.535c0,3.747,1.874,6.96,6.158,6.96,3.747,0,5.086-2.409,5.354-4.016l-.269-.267h-1.071l-.267,.267c-.536,1.607-1.607,2.678-3.747,2.678-3.481,0-4.552-3.212-4.552-4.818l.269-.267h9.637Zm-1.607-1.339h-8.031l-.269-.267c0-1.874,1.071-4.551,4.283-4.551s4.283,2.677,4.283,4.551l-.267,.267Zm-11.779,7.228V14.076l-.267-.267h-1.071l-.267,.267v12.851l.267,.267h1.071l.267-.267Zm0-15.528v-1.606l-.267-.267h-1.071l-.267,.267v1.606l.267,.269h1.071l.267-.269Zm-10.171,14.724c-2.678,0-4.284-1.874-4.284-5.622s1.607-5.622,4.284-5.622,4.282,1.873,4.282,5.622-1.607,5.622-4.282,5.622m4.282-.803c0,3.48-.803,6.158-4.016,6.158-2.409,0-3.212-1.071-3.48-2.409l-.267-.269h-1.071l-.267,.269c.267,2.142,1.873,3.747,5.086,3.747,3.481,0,5.622-2.142,5.622-7.496V14.076l-.267-.267h-.803l-.267,.267-.267,1.608h-.269c-.535-1.071-1.873-2.143-4.283-2.143-3.747,0-5.622,2.945-5.622,6.961s1.874,6.96,5.622,6.96c2.41,0,3.748-1.07,4.283-2.142h.269Zm-17.399-10.44c2.676,0,4.55,2.142,4.55,5.622s-1.873,5.622-4.55,5.622-4.552-2.142-4.552-5.622,1.874-5.622,4.552-5.622m0,12.581c3.48,0,6.156-2.409,6.156-6.96s-2.677-6.961-6.156-6.961-6.158,2.41-6.158,6.961,2.676,6.96,6.158,6.96m-8.032-.535V8.723l-.267-.267h-1.071l-.269,.267V26.927l.269,.267h1.071l.267-.267Zm-9.636-12.047c2.676,0,4.551,2.142,4.551,5.622s-1.874,5.622-4.551,5.622-4.552-2.142-4.552-5.622,1.874-5.622,4.552-5.622m0,12.581c3.48,0,6.158-2.409,6.158-6.96s-2.678-6.961-6.158-6.961-6.158,2.41-6.158,6.961,2.678,6.96,6.158,6.96m-7.763-.535v-8.032c0-3.48-1.873-5.354-4.818-5.354-1.874,0-3.481,.805-4.283,2.143h-.269l-.266-1.608-.269-.267h-.803l-.267,.267v12.851l.267,.267h1.072l.266-.267v-7.228c0-2.945,1.339-4.818,4.283-4.818,2.142,0,3.48,1.338,3.48,4.015v8.032l.269,.267h1.071l.267-.267Zm-13.653,0v-8.032c0-3.48-1.874-5.354-4.818-5.354-1.874,0-3.48,.805-4.283,2.143h-.267v-6.961l-.267-.267h-1.071l-.269,.267V26.927l.269,.267h1.071l.267-.267v-7.228c0-2.945,1.339-4.818,4.283-4.818,2.142,0,3.48,1.338,3.48,4.015v8.032l.267,.267h1.072l.266-.267Zm-23.021-6.425c0-3.748,1.873-5.622,4.551-5.622s3.747,1.606,4.015,3.211l.267,.269h1.072l.267-.269c-.267-2.676-2.41-4.551-5.622-4.551-3.48,0-6.156,2.143-6.156,6.961s2.676,6.96,6.156,6.96c3.211,0,5.354-1.874,5.622-4.551l-.267-.267h-1.072l-.267,.267c-.267,1.606-1.338,3.212-4.015,3.212s-4.551-1.874-4.551-5.622m-2.945,.536l.269-.269v-.802c0-3.748-2.143-6.426-5.891-6.426s-5.889,2.678-5.889,6.426v.535c0,3.747,1.874,6.96,6.158,6.96,3.747,0,5.086-2.409,5.354-4.016l-.269-.267h-1.07l-.269,.267c-.535,1.607-1.606,2.678-3.747,2.678-3.48,0-4.551-3.212-4.551-4.818l.267-.267h9.637Zm-1.607-1.339h-8.031l-.267-.267c0-1.874,1.071-4.551,4.282-4.551s4.284,2.677,4.284,4.551l-.269,.267Zm-7.213-10.172v-.803l-.267-.267h-13.921l-.269,.267v.803l.269,.267h5.889l.267,.267V26.927l.269,.267h1.071l.267-.267V10.061l.267-.267h5.89l.267-.267Z"/><path class="cls-1" d="M63.488,23.47v3.724h-12.089V8.455h4.256v15.015h7.833ZM7.596,27.194c4.36,0,8.025-2.978,9.07-7.012l10.601,8.283,10.595-8.277v7.006h12.089v-3.724h-7.833V8.455h-4.256v7.006l-10.163,7.94-2.273-1.776,4.865-3.801,5.297-4.139-3.024-2.363-10.163,7.94-2.273-1.776,10.163-7.94-3.025-2.363-10.601,8.283c-1.045-4.033-4.71-7.012-9.07-7.012H0V27.194H7.596Zm-3.34-3.724V12.179h3.34c2.824,0,5.113,2.528,5.113,5.645s-2.289,5.645-5.113,5.645h-3.34Z"/></svg>