<svg xmlns="http://www.w3.org/2000/svg" xmlns:xlink="http://www.w3.org/1999/xlink" width="180" height="40" viewBox="0 0 180 40">
  <defs>
    <clipPath id="clip-path">
      <rect id="사각형_15" data-name="사각형 15" width="180" height="40" transform="translate(360 1133)" fill="#ddd"/>
    </clipPath>
  </defs>
  <g id="마스크_그룹_1" data-name="마스크 그룹 1" transform="translate(-360 -1133)" clip-path="url(#clip-path)">
    <g id="logo_GNEDU" transform="translate(360 1137.33)">
      <g id="그룹_21" data-name="그룹 21">
        <path id="패스_3" data-name="패스 3" d="M40.467,25.64c0-.641-.264-.985-.965-.985-.219,0-1,.037-1,1.17v1.839c0,1.189.346,1.489,1,1.489a1.713,1.713,0,0,0,.972-.24V27.287h-1v-.6h1.694v2.64a3.406,3.406,0,0,1-1.67.408c-1.145,0-1.706-.6-1.706-2.1V25.851A1.578,1.578,0,0,1,39.5,24.074c1.182,0,1.732.428,1.692,1.565h-.726Z" fill="#0e0e0e"/>
        <path id="패스_4" data-name="패스 4" d="M44.922,24.186h.7l-1.486,3.363v2.07h-.693v-2.07l-1.456-3.363h.776l1.059,2.625,1.1-2.625Z" fill="#0e0e0e"/>
        <path id="패스_5" data-name="패스 5" d="M46.38,29.618V24.186h2.793v.6h-2.1v1.746h1.955v.6H47.068v1.884h2.151v.6H46.38Z" fill="#0e0e0e"/>
        <path id="패스_6" data-name="패스 6" d="M50.187,27.633V25.851a1.712,1.712,0,1,1,3.422,0v1.782c0,1.506-.558,2.1-1.711,2.1S50.187,29.139,50.187,27.633Zm2.711.031V25.825c0-1.132-.776-1.17-1-1.17s-1,.037-1,1.17v1.839c0,1.189.345,1.489,1,1.489S52.9,28.853,52.9,27.664Z" fill="#0e0e0e"/>
        <path id="패스_7" data-name="패스 7" d="M58.653,24.186v5.433H57.7l-2.141-4.711h-.02v4.711h-.61V24.186H55.9l2.115,4.652h.013V24.186h.622Z" fill="#0e0e0e"/>
        <path id="패스_8" data-name="패스 8" d="M62.589,25.64c0-.641-.267-.985-.971-.985-.214,0-1,.037-1,1.17v1.839c0,1.189.349,1.489,1,1.489a1.739,1.739,0,0,0,.975-.24V27.287h-1v-.6h1.69v2.64a3.373,3.373,0,0,1-1.666.408c-1.152,0-1.707-.6-1.707-2.1V25.851a1.576,1.576,0,0,1,1.707-1.776c1.178,0,1.735.428,1.69,1.565H62.59Z" fill="#0e0e0e"/>
        <path id="패스_9" data-name="패스 9" d="M65.189,28v.158a.859.859,0,0,0,.914.969c.552,0,.963-.233.963-.878,0-1.207-2.434-1.072-2.434-2.7a1.436,1.436,0,0,1,1.6-1.476,1.338,1.338,0,0,1,1.5,1.588h-.726c.009-.6-.18-.987-.832-.987a.755.755,0,0,0-.833.8c0,1.2,2.434,1.025,2.434,2.749,0,1.143-.787,1.514-1.685,1.514-1.6.014-1.6-1.212-1.593-1.732h.691Z" fill="#0e0e0e"/>
        <path id="패스_10" data-name="패스 10" d="M70.145,24.186h.879l1.763,5.433h-.775l-.391-1.292h-2.1l-.4,1.292h-.7l1.732-5.433Zm.417.64h-.015l-.846,2.9h1.732Z" fill="#0e0e0e"/>
        <path id="패스_11" data-name="패스 11" d="M77.35,24.186v5.433H76.4l-2.139-4.711h-.022v4.711H73.62V24.186h.98l2.116,4.652h.013V24.186h.62Z" fill="#0e0e0e"/>
        <path id="패스_12" data-name="패스 12" d="M81.283,25.64c0-.641-.264-.985-.961-.985-.218,0-1,.037-1,1.17v1.839c0,1.189.341,1.489,1,1.489a1.7,1.7,0,0,0,.969-.24V27.287h-1v-.6h1.7v2.64a3.4,3.4,0,0,1-1.666.408c-1.153,0-1.709-.6-1.709-2.1V25.851a1.577,1.577,0,0,1,1.709-1.776c1.177,0,1.723.428,1.687,1.565h-.725Z" fill="#0e0e0e"/>
        <path id="패스_13" data-name="패스 13" d="M87.113,24.186v5.433h-.944l-2.142-4.711H84.01v4.711H83.4V24.186h.975l2.1,4.652H86.5V24.186h.617Z" fill="#0e0e0e"/>
        <path id="패스_14" data-name="패스 14" d="M89.672,24.186h.885l1.766,5.433h-.775l-.389-1.292h-2.1l-.4,1.292h-.7l1.723-5.433Zm.421.64h-.012l-.854,2.9h1.742l-.875-2.9Z" fill="#0e0e0e"/>
        <path id="패스_15" data-name="패스 15" d="M93.775,29.618h-.648V24.186h1.12l1.372,4.564h.015l1.381-4.564h1.148v5.433H97.47v-4.83h-.014l-1.525,4.83h-.659l-1.482-4.83h-.017v4.83Z" fill="#0e0e0e"/>
        <path id="패스_16" data-name="패스 16" d="M99.476,24.186h1.674a1.444,1.444,0,0,1,1.458.83,5.711,5.711,0,0,1,.24,1.713,4.581,4.581,0,0,1-.329,2.193c-.291.465-.838.7-1.793.7H99.477V24.186Zm.7,4.833h.651c.963,0,1.316-.366,1.316-1.629v-1.1c0-1.1-.337-1.5-1.056-1.5h-.911v4.23Z" fill="#0e0e0e"/>
        <path id="패스_17" data-name="패스 17" d="M104.112,27.633V25.851a1.709,1.709,0,1,1,3.416,0v1.782c0,1.506-.553,2.1-1.7,2.1S104.112,29.139,104.112,27.633Zm2.712.031V25.825c0-1.132-.783-1.17-1-1.17s-1.008.037-1.008,1.17v1.839c0,1.189.35,1.489,1.008,1.489S106.824,28.853,106.824,27.664Z" fill="#0e0e0e"/>
        <path id="패스_18" data-name="패스 18" d="M110.534,27.633V25.851a1.708,1.708,0,1,1,3.413,0v1.782c0,1.506-.55,2.1-1.706,2.1S110.534,29.139,110.534,27.633Zm2.71.031V25.825c0-1.132-.787-1.17-1-1.17s-1,.037-1,1.17v1.839c0,1.189.347,1.489,1,1.489S113.244,28.853,113.244,27.664Z" fill="#0e0e0e"/>
        <path id="패스_19" data-name="패스 19" d="M115.177,29.618V24.186h2.694v.6h-2v1.746h1.891v.6h-1.891v2.484h-.7Z" fill="#0e0e0e"/>
        <path id="패스_20" data-name="패스 20" d="M118.595,29.618V24.186h2.69v.6h-2v1.746h1.89v.6h-1.89v2.484h-.693Z" fill="#0e0e0e"/>
        <path id="패스_21" data-name="패스 21" d="M122.838,29.618h-.689V24.186h.689Z" fill="#0e0e0e"/>
        <path id="패스_22" data-name="패스 22" d="M126.625,25.687a1.292,1.292,0,0,0-.163-.793.912.912,0,0,0-.606-.233.847.847,0,0,0-.82.421c-.027.061-.156.2-.156,1.129v1.453c0,1.33.432,1.489.961,1.489.216,0,.854-.074.862-1.136h.711c.035,1.717-1.178,1.717-1.532,1.717-.676,0-1.715-.046-1.715-2.155V26.045c0-1.536.676-1.971,1.753-1.971s1.478.555,1.415,1.612h-.711Z" fill="#0e0e0e"/>
        <path id="패스_23" data-name="패스 23" d="M128.485,29.618V24.186h2.8v.6h-2.106v1.746h1.954v.6h-1.954v1.884h2.156v.6h-2.852Z" fill="#0e0e0e"/>
        <path id="패스_24" data-name="패스 24" d="M134.046,27.633V25.851a1.709,1.709,0,1,1,3.414,0v1.782c0,1.506-.559,2.1-1.7,2.1S134.046,29.139,134.046,27.633Zm2.711.031V25.825c0-1.132-.786-1.17-1-1.17s-1.006.037-1.006,1.17v1.839c0,1.189.349,1.489,1.006,1.489S136.757,28.853,136.757,27.664Z" fill="#0e0e0e"/>
        <path id="패스_25" data-name="패스 25" d="M138.688,29.618V24.186h2.7v.6h-2v1.746h1.9v.6h-1.9v2.484h-.692Z" fill="#0e0e0e"/>
        <path id="패스_26" data-name="패스 26" d="M143.908,29.618V24.186H146.7v.6H144.6v1.746h1.958v.6H144.6v1.884h2.151v.6h-2.841Z" fill="#0e0e0e"/>
        <path id="패스_27" data-name="패스 27" d="M147.762,24.186h1.659a1.455,1.455,0,0,1,1.464.83,5.463,5.463,0,0,1,.243,1.713,4.586,4.586,0,0,1-.331,2.193c-.3.465-.842.7-1.793.7h-1.243V24.186Zm.684,4.833h.657c.964,0,1.315-.366,1.315-1.629v-1.1c0-1.1-.335-1.5-1.062-1.5h-.91v4.23Z" fill="#0e0e0e"/>
        <path id="패스_28" data-name="패스 28" d="M152.393,24.186h.691v3.478c0,1.189.364,1.489,1.014,1.489s1.022-.3,1.022-1.489V24.186h.688v3.447c0,1.506-.555,2.1-1.71,2.1s-1.7-.6-1.7-2.1V24.186Z" fill="#0e0e0e"/>
        <path id="패스_29" data-name="패스 29" d="M159.482,25.687a1.281,1.281,0,0,0-.162-.793.9.9,0,0,0-.607-.233.849.849,0,0,0-.82.421c-.02.061-.154.2-.154,1.129v1.453c0,1.33.43,1.489.966,1.489.212,0,.848-.074.86-1.136h.711c.031,1.717-1.182,1.717-1.529,1.717-.678,0-1.715-.046-1.715-2.155V26.045c0-1.536.671-1.971,1.739-1.971s1.494.555,1.425,1.612h-.715Z" fill="#0e0e0e"/>
        <path id="패스_30" data-name="패스 30" d="M162.57,24.186h.885l1.77,5.433h-.777l-.394-1.292h-2.1l-.4,1.292h-.7l1.72-5.433Zm.427.64h-.017l-.846,2.9h1.737l-.874-2.9Z" fill="#0e0e0e"/>
        <path id="패스_31" data-name="패스 31" d="M168.511,24.186v.6H167.08v4.83h-.7v-4.83h-1.42v-.6h3.548Z" fill="#0e0e0e"/>
        <path id="패스_32" data-name="패스 32" d="M170.084,29.618h-.695V24.186h.695Z" fill="#0e0e0e"/>
        <path id="패스_33" data-name="패스 33" d="M171.44,27.633V25.851a1.712,1.712,0,1,1,3.422,0v1.782c0,1.506-.56,2.1-1.706,2.1S171.44,29.139,171.44,27.633Zm2.716.031V25.825c0-1.132-.783-1.17-1-1.17s-1,.037-1,1.17v1.839c0,1.189.346,1.489,1,1.489S174.156,28.853,174.156,27.664Z" fill="#0e0e0e"/>
        <path id="패스_34" data-name="패스 34" d="M179.9,24.186v5.433h-.952l-2.139-4.711H176.8v4.711h-.613V24.186h.975l2.114,4.652h.017V24.186h.618Z" fill="#0e0e0e"/>
      </g>
      <g id="그룹_22" data-name="그룹 22">
        <path id="패스_35" data-name="패스 35" d="M180,16.037V4.785h-2.826V8.019h-2.4V9.38h2.4v2.882a8.747,8.747,0,0,0-3.461-.879v-.017s-3.563-1.839-4.524-4.576V6.251h3.949V4.892h-3.949V3.785h-2.7V4.892h-4.1V6.251h4.1V6.61c-.873,2.839-4.59,4.757-4.59,4.757l.057,1.531A9.835,9.835,0,0,0,167.8,9.2a10.692,10.692,0,0,0,2.9,2.491c-2.533.674-4.333,2.363-4.333,4.344,0,2.586,3.05,4.677,6.818,4.677,3.335,0,6.114-1.648,6.7-3.824l.118.063v-.917h0Zm-6.814,3.322a3.569,3.569,0,0,1-3.78-3.322,3.562,3.562,0,0,1,3.78-3.313c.1,0,.217,0,.326.008.047.007.091.025.143.036v-.02a3.506,3.506,0,0,1,3.306,3.288A3.566,3.566,0,0,1,173.183,19.359Z" fill="#0e0e0e"/>
        <path id="패스_36" data-name="패스 36" d="M48.481,5.416h-.037l.1-.879H37.786V6.184h7.563c-.233,1.56-1.54,5.21-7.684,5.349l-.055,1.584s10.229.352,10.873-7.7Zm7.529,9.44V4.656H49.833V6.015h3.352v2.1H49.833V9.478h3.352v2.329a8.218,8.218,0,0,0-3.467-.746c-3.538,0-6.008,2.009-6.008,4.588s2.47,4.759,6.008,4.759,6.4-2.091,6.4-4.67a3.985,3.985,0,0,0-.107-.881Zm-6.291,4.315a3.438,3.438,0,1,1,0-6.874,3.578,3.578,0,0,1,3.71,3.441A3.577,3.577,0,0,1,49.718,19.171Z" fill="#0e0e0e"/>
        <path id="패스_37" data-name="패스 37" d="M78.217,6.014V4.656H72.931v7.476a9.05,9.05,0,0,0-3.613-.885c-.665-.339-3.533-1.935-4.377-4.354V4.308h-2.7v2.4c-.876,2.843-4.59,4.764-4.59,4.764l.061,1.529A9.812,9.812,0,0,0,63.55,9.31a10.382,10.382,0,0,0,2.533,2.36c-2.338.744-3.961,2.36-3.961,4.239,0,2.582,3.044,4.671,6.81,4.671,3.707,0,6.71-2.017,6.81-4.536l.012,0V15.91h0v-9.9h2.463ZM68.932,19.232a3.568,3.568,0,0,1-3.773-3.323A3.545,3.545,0,0,1,68.766,12.6a5.692,5.692,0,0,0,.64.042v-.018a3.5,3.5,0,0,1,3.3,3.288,3.567,3.567,0,0,1-3.776,3.323Z" fill="#0e0e0e"/>
        <path id="패스_38" data-name="패스 38" d="M94.036,4.656v5.817H82.685V4.656H80.157v7.171H94.036V13.7H81.695v.244h0V19.71H96.851V16.823h0V6.014h2.47V4.656H94.036Zm-.006,13.692h-9.52V15.066h9.52Z" fill="#0e0e0e"/>
        <path id="패스_39" data-name="패스 39" d="M121.942,4.893V6.251h12.7V18.288h-2.408V11h-2.826v7.284H126.94V11h-2.82v7.284h-2.883v1.355h16.224V4.893Z" fill="#0e0e0e"/>
        <path id="패스_40" data-name="패스 40" d="M117.243,6.251V4.893H101.732v8.46h2.226v.009h4.413v4.927h-6.639v1.362h15.511V18.289h-6.053V13.362h6.053V12H104.55V6.251Z" fill="#0e0e0e"/>
        <path id="패스_41" data-name="패스 41" d="M159.268,13.243V11.891H140.575v1.352h4.554v1.64h-3.265v1.363h13.172v3.4h2.821v-4.76h-3.583v-1.64h4.992Zm-7.822,1.64h-3.493v-1.64h3.493v1.64ZM149.895,10.8c4.407,0,7.992-1.663,7.992-3.711s-3.585-3.7-7.992-3.7-8,1.656-8,3.7S145.473,10.8,149.895,10.8Zm0-6c2.361,0,4.282,1.023,4.282,2.284,0,1.277-1.92,2.3-4.282,2.3s-4.289-1.023-4.289-2.3c0-1.261,1.919-2.284,4.289-2.284Z" fill="#0e0e0e"/>
      </g>
      <path id="패스_42" data-name="패스 42" d="M19.258,29.861C9.118,33.219,3.02,27.508,1.937,26.032c-4.868-6.559.3-12.5,6.039-14.846,0,0-5.89,3.089-4.564,7.941s7.135,6.692,12.577,5.224l5.594-1.986,5.223,4.957Z" fill="#1f5aa0"/>
      <path id="패스_43" data-name="패스 43" d="M7.214,15.2l5.221,4.961,5.593-1.986C23.468,16.7,29.284,18.539,30.6,23.4s-4.558,7.941-4.558,7.941c5.737-2.353,10.209-8.4,5.885-14.787-1.03-1.516-6.351-7.579-16.964-4.023L7.213,15.2Z" fill="#1aa4c9"/>
      <path id="패스_44" data-name="패스 44" d="M21.874,4.858A4.857,4.857,0,1,1,17.019,0,4.86,4.86,0,0,1,21.874,4.858Z" fill="#2d9d30"/>
    </g>
  </g>
</svg>
