<?xml version="1.0" encoding="utf-8"?>
<!-- Generator: Adobe Illustrator 27.0.0, SVG Export Plug-In . SVG Version: 6.00 Build 0)  -->
<svg version="1.1" id="_레이어_1" xmlns="http://www.w3.org/2000/svg" xmlns:xlink="http://www.w3.org/1999/xlink" x="0px"
	 y="0px" width="83px" height="40px" viewBox="0 0 83 40" style="enable-background:new 0 0 83 40;" xml:space="preserve">
<style type="text/css">
	.st0{fill:#FFFFFF;}
</style>
<g>
	<rect x="0.242" y="4.435" class="st0" width="5.982" height="5.982"/>
	<path class="st0" d="M6.068,35.563v-21.52H0.399v21.519L6.068,35.563L6.068,35.563z M43.645,35.781v-5.275
		c-0.835-0.005-1.525-0.049-2.051-0.131c-0.585-0.091-1.033-0.291-1.331-0.59c-0.299-0.298-0.497-0.731-0.59-1.286
		c-0.088-0.53-0.133-1.23-0.133-2.078v-7.529h4.105v-4.848H39.54V5.659h-5.669v20.803c0,1.755,0.153,3.248,0.454,4.437
		c0.298,1.176,0.806,2.136,1.51,2.855c0.704,0.719,1.635,1.241,2.768,1.553c1.143,0.315,2.598,0.475,4.325,0.475L43.645,35.781
		L43.645,35.781z M76.137,35.563V4h-5.669v31.563H76.137z M28.405,16.162c-1.57-1.696-3.789-2.555-6.594-2.555
		c-1.353,0-2.603,0.279-3.719,0.827c-1.115,0.55-2.063,1.322-2.817,2.296l-0.309,0.398l-0.002-0.358v-2.728H9.373v21.519h5.634
		V24.097l0.005,0.795c0-0.131,0.002-0.259,0.006-0.387c0.058-2.011,0.56-3.511,1.495-4.463c0.997-1.015,2.207-1.53,3.598-1.53
		c1.635,0,2.883,0.501,3.711,1.489c0.81,0.969,1.224,2.357,1.232,4.125l0,0v0.043c0,0.003,0,0.007,0,0.01l0,0v11.382h5.722V23.344
		C30.777,20.279,29.979,17.862,28.405,16.162L28.405,16.162z M67.513,24.759c0-1.542-0.275-3.006-0.818-4.351
		c-0.543-1.343-1.311-2.538-2.282-3.553c-0.97-1.013-2.15-1.816-3.507-2.387c-1.357-0.571-2.872-0.861-4.502-0.861
		c-1.542,0-3.013,0.297-4.37,0.882c-1.359,0.586-2.554,1.391-3.554,2.391c-1.001,1.001-1.805,2.195-2.391,3.554
		c-0.585,1.355-0.882,2.826-0.882,4.37c0,1.544,0.283,3.016,0.839,4.373c0.558,1.358,1.339,2.553,2.325,3.552
		c0.985,1,2.195,1.803,3.595,2.389C53.367,35.703,54.919,36,56.578,36c4.795,0,7.787-2.182,9.574-4.223l-4.08-3.107
		c-0.859,1.021-2.901,2.405-5.45,2.405c-1.599,0-2.915-0.37-3.913-1.099c-0.999-0.73-1.687-1.735-2.045-2.987l-0.057-0.2h16.906
		L67.513,24.759L67.513,24.759z M50.653,22.785c-0.002-1.575,1.808-4.326,5.706-4.33c3.899,0,5.712,2.747,5.712,4.323L50.653,22.785
		L50.653,22.785z"/>
	<path class="st0" d="M82.593,32.851c-0.111-0.254-0.261-0.475-0.451-0.666c-0.19-0.19-0.411-0.339-0.666-0.451
		c-0.254-0.111-0.526-0.166-0.815-0.166c-0.289,0-0.561,0.055-0.815,0.166s-0.475,0.262-0.666,0.451
		c-0.19,0.19-0.341,0.411-0.451,0.666c-0.111,0.255-0.166,0.526-0.166,0.815c0,0.289,0.055,0.561,0.166,0.815
		c0.111,0.254,0.261,0.475,0.451,0.666c0.19,0.19,0.411,0.341,0.666,0.451c0.254,0.11,0.526,0.166,0.815,0.166
		c0.289,0,0.561-0.056,0.815-0.166c0.254-0.111,0.475-0.261,0.666-0.451c0.19-0.19,0.339-0.411,0.451-0.666s0.166-0.526,0.166-0.815
		C82.759,33.377,82.703,33.105,82.593,32.851z M82.252,34.338c-0.09,0.211-0.214,0.394-0.37,0.55
		c-0.155,0.155-0.339,0.279-0.55,0.37c-0.211,0.09-0.434,0.135-0.672,0.135c-0.238,0-0.461-0.045-0.671-0.135
		c-0.211-0.09-0.394-0.213-0.55-0.37c-0.155-0.155-0.279-0.339-0.37-0.55c-0.09-0.211-0.135-0.434-0.135-0.672
		c0-0.238,0.045-0.461,0.135-0.671c0.09-0.211,0.213-0.394,0.37-0.55c0.155-0.155,0.339-0.279,0.55-0.37
		c0.211-0.09,0.434-0.135,0.671-0.135s0.461,0.045,0.672,0.135c0.211,0.09,0.394,0.214,0.55,0.37s0.279,0.339,0.37,0.55
		c0.09,0.211,0.135,0.434,0.135,0.671S82.342,34.127,82.252,34.338z M81.057,33.837c0.165-0.019,0.299-0.081,0.408-0.186
		c0.107-0.105,0.162-0.263,0.162-0.474c0-0.233-0.069-0.411-0.206-0.536c-0.138-0.123-0.351-0.186-0.641-0.186h-0.925v2.398h0.44
		V33.87h0.322l0.598,0.982h0.463C81.677,34.853,81.057,33.837,81.057,33.837z M80.819,33.489c-0.067,0.006-0.135,0.008-0.203,0.008
		h-0.322v-0.671h0.322c0.069,0,0.135,0.002,0.203,0.006c0.069,0.005,0.129,0.017,0.183,0.04c0.054,0.022,0.099,0.056,0.133,0.101
		c0.034,0.045,0.051,0.107,0.051,0.186s-0.017,0.141-0.051,0.186c-0.034,0.045-0.078,0.079-0.133,0.102
		C80.947,33.47,80.886,33.485,80.819,33.489z"/>
</g>
</svg>
