<?xml version="1.0" encoding="utf-8"?>
<!-- Generator: Adobe Illustrator 27.0.0, SVG Export Plug-In . SVG Version: 6.00 Build 0)  -->
<svg version="1.1" id="레이어_1" xmlns="http://www.w3.org/2000/svg" xmlns:xlink="http://www.w3.org/1999/xlink" x="0px"
	 y="0px" width="67px" height="40px" viewBox="0 0 67 40" style="enable-background:new 0 0 67 40;" xml:space="preserve">
<style type="text/css">
	.st0{fill:#252F3E;}
	.st1{fill-rule:evenodd;clip-rule:evenodd;fill:#FF9900;}
</style>
<g>
	<path class="st0" d="M18.905,14.527c0,0.823,0.089,1.491,0.245,1.98c0.178,0.489,0.4,1.023,0.712,1.602
		c0.111,0.178,0.156,0.356,0.156,0.512c0,0.222-0.133,0.445-0.423,0.667l-1.402,0.934c-0.2,0.133-0.4,0.2-0.578,0.2
		c-0.222,0-0.445-0.111-0.667-0.311c-0.311-0.334-0.578-0.69-0.801-1.046c-0.222-0.378-0.445-0.801-0.69-1.313
		c-1.735,2.047-3.915,3.07-6.541,3.07c-1.869,0-3.359-0.534-4.449-1.602c-1.09-1.068-1.646-2.492-1.646-4.271
		c0-1.891,0.667-3.426,2.024-4.583s3.159-1.735,5.451-1.735c0.756,0,1.535,0.067,2.358,0.178c0.823,0.111,1.669,0.289,2.558,0.489
		V7.675c0-1.691-0.356-2.87-1.046-3.56c-0.712-0.69-1.913-1.023-3.626-1.023c-0.779,0-1.58,0.089-2.403,0.289
		c-0.823,0.2-1.624,0.445-2.403,0.756C5.379,4.294,5.112,4.383,4.956,4.427C4.801,4.472,4.689,4.494,4.6,4.494
		c-0.311,0-0.467-0.222-0.467-0.69v-1.09c0-0.356,0.044-0.623,0.156-0.779S4.6,1.624,4.912,1.468c0.779-0.4,1.713-0.734,2.803-1.001
		c1.09-0.289,2.247-0.423,3.471-0.423c2.647,0,4.583,0.601,5.829,1.802c1.224,1.201,1.846,3.026,1.846,5.473v7.208H18.905z
		 M9.873,17.909c0.734,0,1.491-0.133,2.291-0.4c0.801-0.267,1.513-0.756,2.113-1.424c0.356-0.423,0.623-0.89,0.756-1.424
		c0.133-0.534,0.222-1.179,0.222-1.935v-0.934c-0.645-0.156-1.335-0.289-2.047-0.378c-0.712-0.089-1.402-0.133-2.091-0.133
		c-1.491,0-2.581,0.289-3.315,0.89c-0.734,0.601-1.09,1.446-1.09,2.558c0,1.046,0.267,1.824,0.823,2.358
		C8.071,17.642,8.85,17.909,9.873,17.909z M27.737,20.311c-0.4,0-0.667-0.067-0.845-0.222c-0.178-0.133-0.334-0.445-0.467-0.868
		L21.197,2.024c-0.133-0.445-0.2-0.734-0.2-0.89c0-0.356,0.178-0.556,0.534-0.556h2.18c0.423,0,0.712,0.067,0.868,0.222
		c0.178,0.133,0.311,0.445,0.445,0.868l3.737,14.727l3.471-14.727c0.111-0.445,0.245-0.734,0.423-0.868
		c0.178-0.133,0.489-0.222,0.89-0.222h1.78c0.423,0,0.712,0.067,0.89,0.222c0.178,0.133,0.334,0.445,0.423,0.868l3.515,14.905
		L44,1.669c0.133-0.445,0.289-0.734,0.445-0.868c0.178-0.133,0.467-0.222,0.868-0.222h2.069c0.356,0,0.556,0.178,0.556,0.556
		c0,0.111-0.022,0.222-0.044,0.356s-0.067,0.311-0.156,0.556l-5.362,17.197c-0.133,0.445-0.289,0.734-0.467,0.868
		c-0.178,0.133-0.467,0.222-0.845,0.222H39.15c-0.423,0-0.712-0.067-0.89-0.222c-0.178-0.156-0.334-0.445-0.423-0.89L34.389,4.872
		l-3.426,14.327c-0.111,0.445-0.245,0.734-0.423,0.89c-0.178,0.156-0.489,0.222-0.89,0.222H27.737z M56.325,20.912
		c-1.157,0-2.314-0.133-3.426-0.4c-1.112-0.267-1.98-0.556-2.558-0.89c-0.356-0.2-0.601-0.423-0.69-0.623
		c-0.089-0.2-0.133-0.423-0.133-0.623v-1.135c0-0.467,0.178-0.69,0.512-0.69c0.133,0,0.267,0.022,0.4,0.067
		c0.133,0.044,0.334,0.133,0.556,0.222c0.756,0.334,1.58,0.601,2.447,0.779c0.89,0.178,1.758,0.267,2.647,0.267
		c1.402,0,2.492-0.245,3.248-0.734c0.756-0.489,1.157-1.201,1.157-2.113c0-0.623-0.2-1.135-0.601-1.557
		c-0.4-0.423-1.157-0.801-2.247-1.157l-3.226-1.001c-1.624-0.512-2.825-1.268-3.56-2.269c-0.734-0.979-1.112-2.069-1.112-3.226
		c0-0.934,0.2-1.758,0.601-2.469c0.4-0.712,0.934-1.335,1.602-1.824c0.667-0.512,1.424-0.89,2.314-1.157S56.08,0,57.059,0
		c0.489,0,1.001,0.022,1.491,0.089c0.512,0.067,0.979,0.156,1.446,0.245c0.445,0.111,0.868,0.222,1.268,0.356
		c0.4,0.133,0.712,0.267,0.934,0.4c0.311,0.178,0.534,0.356,0.667,0.556c0.133,0.178,0.2,0.423,0.2,0.734v1.046
		c0,0.467-0.178,0.712-0.512,0.712c-0.178,0-0.467-0.089-0.845-0.267c-1.268-0.578-2.692-0.868-4.271-0.868
		c-1.268,0-2.269,0.2-2.959,0.623c-0.69,0.423-1.046,1.068-1.046,1.98c0,0.623,0.222,1.157,0.667,1.58
		c0.445,0.423,1.268,0.845,2.447,1.224l3.159,1.001c1.602,0.512,2.759,1.224,3.448,2.136c0.69,0.912,1.023,1.958,1.023,3.115
		c0,0.957-0.2,1.824-0.578,2.581c-0.4,0.756-0.934,1.424-1.624,1.958c-0.69,0.556-1.513,0.957-2.469,1.246
		C58.505,20.756,57.459,20.912,56.325,20.912z"/>
	<g>
		<path class="st1" d="M60.529,31.724C53.21,37.13,42.576,40,33.432,40c-12.814,0-24.36-4.739-33.081-12.614
			c-0.69-0.623-0.067-1.468,0.756-0.979c9.433,5.473,21.068,8.788,33.103,8.788c8.12,0,17.041-1.691,25.25-5.161
			C60.685,29.477,61.731,30.834,60.529,31.724z"/>
		<path class="st1" d="M63.577,28.254c-0.934-1.201-6.185-0.578-8.565-0.289c-0.712,0.089-0.823-0.534-0.178-1.001
			c4.182-2.937,11.057-2.091,11.858-1.112c0.801,1.001-0.222,7.875-4.138,11.168c-0.601,0.512-1.179,0.245-0.912-0.423
			C62.531,34.394,64.511,29.433,63.577,28.254z"/>
	</g>
</g>
</svg>
