<svg xmlns="http://www.w3.org/2000/svg" xmlns:xlink="http://www.w3.org/1999/xlink" width="180" height="40" viewBox="0 0 180 40">
  <defs>
    <clipPath id="clip-path">
      <rect id="사각형_17" data-name="사각형 17" width="180" height="40" transform="translate(752 1133)" fill="#ddd"/>
    </clipPath>
  </defs>
  <g id="마스크_그룹_3" data-name="마스크 그룹 3" transform="translate(-752 -1133)" clip-path="url(#clip-path)">
    <g id="logo_SNU" transform="translate(752 1137.081)">
      <path id="패스_62" data-name="패스 62" d="M17.959,3.869c-.5-1.12-2.185-.351-2.185-.351,1.419.9,2.185.351,2.185.351M15.173,3.7a.318.318,0,1,0-.319-.318.319.319,0,0,0,.319.318m3.86.276a2.421,2.421,0,0,0-1.17.324l1.794.025.064-.047a4.392,4.392,0,0,0-3.274-2.718,4.058,4.058,0,0,0,2.586,2.416m1.259.47a.237.237,0,1,0-.238.238.239.239,0,0,0,.238-.238M10.71,4.328,12.5,4.3a2.41,2.41,0,0,0-1.167-.324,4.046,4.046,0,0,0,2.582-2.416,4.388,4.388,0,0,0-3.272,2.718c.03.024.032.024.064.047m-.576.251a.238.238,0,1,0,.238-.237.237.237,0,0,0-.238.237m.146,1.914A3.844,3.844,0,0,0,7.1,6.285,4.464,4.464,0,0,0,8.766,2.972,4.393,4.393,0,0,0,6.62,6.645c2.61.774,3.662-.153,3.662-.153M11,5.986l.018-.871a4.743,4.743,0,0,0-1.952-.1A4.463,4.463,0,0,0,11.28,2.043,4.385,4.385,0,0,0,8.53,5.287a5.841,5.841,0,0,0,2.471.7M21.334,4.871a3.119,3.119,0,0,0-1.76.1l0,.9a4.878,4.878,0,0,0,2.307-.736,4.388,4.388,0,0,0-2.825-3.179,4.454,4.454,0,0,0,2.282,2.921m-8.928-.9s.788.523,2.172-.431c0,0-1.713-.7-2.172.431M24.4,16.082h-1v1.267h1Zm-2.7-8.69-.516.616,2.8,2.8.567-.567L21.695,7.392Zm5.456-.086L24.583,4.738l-2.3,2.5,2.469,2.437,2.4-2.369ZM6.211,7.02a.237.237,0,1,0,.238-.239.238.238,0,0,0-.238.239M25.228,9.726a7.139,7.139,0,0,0,1.65.248,5.011,5.011,0,0,0,.17-1.989l-.868.831a4.135,4.135,0,0,0,.361.661,4.584,4.584,0,0,0-.622-.411l-.688.661ZM24.45,22.288h-1v1.269h1ZM22.99,5.847l.582-.59a3.722,3.722,0,0,0-1.986-2.434,4.147,4.147,0,0,0,1.4,3.024m5.216,8.88a.238.238,0,1,0,.239-.238.238.238,0,0,0-.239.238M25.082,2.944a1.43,1.43,0,0,0,1.354-.02,1.3,1.3,0,0,1,1.439.159,1.188,1.188,0,0,1,.487,1.054c0,.459-.133.491-.133.491-.278.19-.209-.131-.209-.131s.063-.226.063-.226a1.019,1.019,0,0,0-.819-1.186,1.049,1.049,0,0,0-1.234.739,1.789,1.789,0,0,0-.041.672L24.757,3.263l.058,1.043,2.753,2.754h.984l-1-1a4.234,4.234,0,0,0,.99.183A1.64,1.64,0,0,0,30.1,4.812a2.8,2.8,0,0,0-.961-2.54A4.172,4.172,0,0,0,26.9,1.447,3.376,3.376,0,0,1,24.315,0a3.722,3.722,0,0,0-.165,1.38,1.74,1.74,0,0,0,.931,1.563m3.462,11.392a4.386,4.386,0,0,0,.618-4.208,4.464,4.464,0,0,0-.77,3.627A3.839,3.839,0,0,0,25.78,11.93s.244,1.382,2.763,2.407m-1.627-3.709a.238.238,0,1,0-.238-.238.238.238,0,0,0,.238.238M22.128,6.776l.721-.744a3.235,3.235,0,0,0-2.7.347s.479.544,1.975.4M27.9,12.084a4.382,4.382,0,0,0-.122-4.251,4.462,4.462,0,0,0-.127,3.705,3.842,3.842,0,0,0-2.889-1.343s.48,1.317,3.138,1.889m-8.4,17.341a.238.238,0,1,0,.237-.237.236.236,0,0,0-.237.237m1.191-.228a4.043,4.043,0,0,0,1.359-2.6l-.481.019a5.039,5.039,0,0,0-1.425,2.83,4.391,4.391,0,0,0,4.251-.119,4.448,4.448,0,0,0-3.7-.13m-2.218.741a3.848,3.848,0,0,0,1.825-2.611s-1.382.244-2.407,2.762a4.388,4.388,0,0,0,4.208.619,4.454,4.454,0,0,0-3.625-.77m-2.329.5a3.971,3.971,0,0,0,2.2-2.237c-1.4.1-2.6,2.2-2.6,2.2a4.78,4.78,0,0,0,3.6,1.4c-.934-1.235-3.2-1.367-3.2-1.367m-1-.735v.593c-.275-.431-1.342-2-2.549-2.073a3.964,3.964,0,0,0,2.218,2.219s-2.267.15-3.194,1.391a4.788,4.788,0,0,0,3.526-1.359v.964h.6V29.7h-.6Zm8.309-5.473v1.269l5.674,4.7h1.135l-5.775-5.974Zm-.7,3.853a4.554,4.554,0,0,0,.77-1.484l-.968-.014a6.834,6.834,0,0,0-.3,1.838,4.538,4.538,0,0,0,3.764-.515l-.646-.518a4.234,4.234,0,0,0-2.622.694M11.49,29.516a.238.238,0,1,0-.237.238.238.238,0,0,0,.237-.238m15.861-6.638a3.837,3.837,0,0,0-.83-3.076s-.7,1.214.571,3.619A4.388,4.388,0,0,0,30.272,20.6a4.462,4.462,0,0,0-2.922,2.281m-2.341,4.21-.836-.682c.018.214.045.439.085.68a4.321,4.321,0,0,0,.751,0m-1.264.309a.238.238,0,1,0-.236-.237.238.238,0,0,0,.236.237m-19.9-3.473a.237.237,0,1,0,.237-.237.236.236,0,0,0-.237.237M2.115,19.317c1.974-1.874,1.7-3.249,1.7-3.249A3.856,3.856,0,0,0,2.041,18.72,4.457,4.457,0,0,0,0,15.622a4.4,4.4,0,0,0,2.11,3.7m.006.329a.238.238,0,1,0,.238-.238.238.238,0,0,0-.238.238M5.508,4.783,3.669,2.926A2.128,2.128,0,0,0,1.179,2.54L4.8,6.148a3.029,3.029,0,0,1,.7-1.366M4.095,5.922.967,2.793s-1.309.939-.292,3.13h3.42ZM2.738,21.575c1.619-2.187,1.108-3.492,1.108-3.492A3.849,3.849,0,0,0,2.564,21a4.459,4.459,0,0,0-2.545-2.7,4.386,4.386,0,0,0,2.718,3.27m1.451,6.2a2.759,2.759,0,0,1,.909-.3l-.6-.142-.057.076c.033-.048.057-.076.057-.076L1.859,30.113s-.3.432-.018.719a.528.528,0,0,0,.633-.033L5.05,28.547a2.563,2.563,0,0,1-.862-.774M9.2,26.643l-.338,0a3.972,3.972,0,0,0,1.421,2.675,4.463,4.463,0,0,0-3.7.216,4.386,4.386,0,0,0,4.253.02A4.753,4.753,0,0,0,9.2,26.644M3.744,23.691c1.214-2.434.485-3.631.485-3.631a3.839,3.839,0,0,0-.756,3.1A4.457,4.457,0,0,0,.5,20.944a4.385,4.385,0,0,0,3.244,2.748m6.888,3.744a3.843,3.843,0,0,0,1.885,2.569,4.458,4.458,0,0,0-3.607.856,4.393,4.393,0,0,0,4.193-.719c-1.085-2.494-2.471-2.706-2.471-2.706M4.975,8.317c2.7.306,3.578-.787,3.578-.787a3.843,3.843,0,0,0-3.168.347A4.455,4.455,0,0,0,6.449,4.325,4.392,4.392,0,0,0,4.974,8.317M5.1,25.6c.774-2.609-.152-3.661-.152-3.661a3.85,3.85,0,0,0-.208,3.18,4.458,4.458,0,0,0-3.313-1.665A4.387,4.387,0,0,0,5.1,25.6m19.761-2.135a1.025,1.025,0,0,0-.225.447l.5.523a2.437,2.437,0,0,0-.279-.97M8.052,13.03l.927.817h2.09a2.462,2.462,0,0,1-.068-.8l-2.949-.015Zm5.185-6.121V5.744h3.639V7.412h1.2v1.2H16.908v.534h1.168v1.3H16.908v3.9h-1l-1.386-1.384-1.268,1.266-.917-.918,2.1-2.1L15.522,12.3V6.909ZM11.367,12.5a3.666,3.666,0,0,0,3.877,4.049A3.668,3.668,0,0,0,19.128,12.5v-7.9H11.369s0,5.129,0,7.9M8.508,7.948a1.854,1.854,0,0,1-1.128.534l1.128,1.04Zm9.919,11.527c.252,0,.252-.19.257-.384v-1.8H19.2v1.909c0,.277-.03.749-.775.749-.483,0-.77-.224-.77-.714V17.286h.516v1.694c0,.2-.025.5.257.5m1.331,1v.487h-.525v.568H19.7v.487h-.462V22.6h.531v.487H18.717V20.471h1.041Zm-.142-3.186H20.2l.149.364a3.091,3.091,0,0,1,.125.4h.007a3,3,0,0,1,.117-.4l.158-.364h.558l-.558,1.267.6,1.351h-.6l-.166-.416c-.049-.133-.08-.262-.115-.392h-.006c-.039.13-.072.259-.115.392L20.2,19.9h-.583l.556-1.351-.556-1.267Zm1.574,5.8-.1-.442h-.523l-.1.442h-.514l.61-2.618h.544l.628,2.618h-.553Zm-3.311,0L17.758,21.2H17.75l-.084.647-.222,1.239h-.4l-.254-1.253-.086-.583V21.2H16.7l-.076,1.886h-.556l.232-2.618h.678l.254,1.546h.006l.209-1.546h.694l.274,2.618H17.88Zm-1.678-5.8h.519v2.132h.54V19.9H16.2V17.286Zm-.661-.4v8.875a1.866,1.866,0,0,1,1.2-.5h5.507V14.248H19.278a4.014,4.014,0,0,1-3.738,2.634m-2.225,1.14a.293.293,0,0,0-.35-.325H12.9v.7l.092,0c.234,0,.329-.159.329-.374m7.512,3.123h-.006l-.057.395-.109.7h.364l-.134-.7-.058-.395ZM6.9,9.487h0a3.446,3.446,0,0,1-1.763.8l.343.322,3.6-.018L7.966,9.474h0L7.4,8.909a6.215,6.215,0,0,1-.5.579M27,23.651a.238.238,0,1,0-.238.236A.237.237,0,0,0,27,23.651m1.39-4.068a.239.239,0,1,0,0-.478.239.239,0,0,0,0,.478m-1.527-1.77s-.478,1.318,1.191,3.466a4.388,4.388,0,0,0,2.639-3.334A4.452,4.452,0,0,0,28.21,20.7a3.842,3.842,0,0,0-1.353-2.887m1.818.6a3.834,3.834,0,0,0-1.83-2.609S26.6,17.18,28.618,19a4.382,4.382,0,0,0,2.02-3.743,4.474,4.474,0,0,0-1.963,3.146m-2.831,3.288s-.9,1.074-.066,3.666A4.39,4.39,0,0,0,29.4,23.13a4.46,4.46,0,0,0-3.272,1.74,3.852,3.852,0,0,0-.282-3.176m2.893-5.627s-.711-1.885-2.256-2.249c0,0,0,1.4,2.3,2.851a4.39,4.39,0,0,0,1.341-4.039,4.461,4.461,0,0,0-1.388,3.437M27.086,26.446a3.614,3.614,0,0,0,1.083-1.039,4.622,4.622,0,0,0-1.867.229l.784.809ZM12.066,21.525l-.059-.4H12l-.058.4-.11.7H12.2ZM4.4,6.06a4.4,4.4,0,0,0-.761,4.186c2.717-.167,3.388-1.4,3.388-1.4a3.843,3.843,0,0,0-3.058.892A4.456,4.456,0,0,0,4.4,6.06M14.592,27.079h1.566s.1-.68.544-.68h6.5V14.963l-.648-.682V25.616h-5.82a2.224,2.224,0,0,0-1.4.817,2.015,2.015,0,0,0-1.5-.783H8.159V14.384l-.7.7V26.4h6.347s.784.033.784.68M2.425,15.04a.237.237,0,1,0-.236.238.237.237,0,0,0,.236-.238m-.21-.979a4.464,4.464,0,0,0-.852-3.608,4.388,4.388,0,0,0,.717,4.194c2.495-1.085,2.706-2.472,2.706-2.472a3.848,3.848,0,0,0-2.57,1.885M.456,12.979a4.389,4.389,0,0,0,1.436,4c2.268-1.5,2.236-2.9,2.236-2.9a3.846,3.846,0,0,0-2.2,2.3,4.46,4.46,0,0,0-1.47-3.4M3.047,8.32A3.205,3.205,0,0,1,3.8,6.2H.807S.934,6.55,3.046,8.32m7.889,4.417V12.41L9.383,10.858H5.746L7.8,12.737ZM7.189,25.865c.01.109.029-.025.029-.025V24.294l-.255.285a5.543,5.543,0,0,1,.226,1.286M3.365,10.659a.238.238,0,1,0,.239-.24.24.24,0,0,0-.239.24M7.174,27.6a.238.238,0,1,0-.237-.238.238.238,0,0,0,.237.238M8.833,9.875l2.1,2.069v-1.6l-2.1-2.1V9.875ZM7.2,22.174h-1v1.267h1ZM21.129,8.558l-1.636,1.778.018,2.842a3.272,3.272,0,0,1-.15.7h1.051l3-3L21.129,8.556Zm-8.857,8.711v.485h-.524v.57h.462v.485h-.462V19.4h.53v.487H11.232V17.273l-.727,2.613h-.423l-.756-2.617H9.88l.314,1.258c.045.147.062.3.092.446h.007c.028-.152.038-.3.08-.454l.314-1.25H12.27Zm.649,5.8h-.551l-.1-.442H11.75l-.093.442h-.514l.607-2.618h.545l.626,2.618Zm-.543-5.8h.52c.329,0,.919.036.919.749a.726.726,0,0,1-.371.676l.455,1.191h-.545L12.9,18.678H12.9v1.207H12.38V17.269Zm1.626,0h.516v2.617h-.516Zm-.384,5.845a.806.806,0,0,1-.444-.131V22.49a.659.659,0,0,0,.391.14.282.282,0,0,0,.3-.287c0-.2-.161-.277-.306-.381a.864.864,0,0,1-.482-.778.7.7,0,0,1,.684-.77.868.868,0,0,1,.458.128v.5a.592.592,0,0,0-.376-.166.239.239,0,0,0-.26.256c0,.43.789.455.789,1.163a.737.737,0,0,1-.753.815m-2.573-2.172h-.409v2.132h-.518V20.941H9.714v-.486h1.334ZM8.465,14.247v11.01H13.92a2.585,2.585,0,0,1,1.252.5V16.948a3.948,3.948,0,0,1-3.97-2.7H8.465ZM8.7,28.578a6.385,6.385,0,0,0-.392-1.94l-.965,0A4.746,4.746,0,0,0,8.2,28.247a4.463,4.463,0,0,0-3.681-.431,4.386,4.386,0,0,0,4.185.761M5.42,10.939l-.485-.454a4.429,4.429,0,0,0-2.029,1.34,4.346,4.346,0,0,0,.006-3.211l-.353-.29a4.735,4.735,0,0,0,.11,4.055,5.12,5.12,0,0,0,2.751-1.44M2.784,25.773a4.389,4.389,0,0,0,3.989,1.476c.309-2.7-.787-3.581-.787-3.581a3.85,3.85,0,0,0,.349,3.167,4.456,4.456,0,0,0-3.551-1.062m4.382-9.591h-1v1.266h1Z" fill="#00418d"/>
      <g id="그룹_27" data-name="그룹 27">
        <path id="패스_63" data-name="패스 63" d="M45.785,8.16h3.209V3.651h1.74V19.52h-1.74V9.71H45.785V8.159Zm1.723,5.654q-.306.287-.6.573c-.2.191-.4.383-.6.573a12.316,12.316,0,0,1-2.152-1.967,9.226,9.226,0,0,1-1.444-2.27,8.466,8.466,0,0,1-1.4,2.33,13.828,13.828,0,0,1-2.177,2.075c-.193-.192-.388-.381-.592-.574s-.4-.384-.591-.572a9.886,9.886,0,0,0,2.964-3.346,7.878,7.878,0,0,0,.9-3.576V4.73h1.8v2.33a7.584,7.584,0,0,0,.212,1.788,6.937,6.937,0,0,0,.68,1.755,8.145,8.145,0,0,0,1.2,1.673,10.566,10.566,0,0,0,1.788,1.536" fill="#00418d"/>
        <path id="패스_64" data-name="패스 64" d="M62.769,6.7a1.106,1.106,0,0,0-.2-.657,1.707,1.707,0,0,0-.558-.489,3.281,3.281,0,0,0-.835-.288,5.041,5.041,0,0,0-1.04-.1,4.77,4.77,0,0,0-1,.1,3.213,3.213,0,0,0-.824.288,1.562,1.562,0,0,0-.565.481,1.165,1.165,0,0,0,0,1.342,1.585,1.585,0,0,0,.565.471,2.935,2.935,0,0,0,.824.278,5.121,5.121,0,0,0,1,.095,5.416,5.416,0,0,0,1.04-.095,2.924,2.924,0,0,0,.835-.278,1.554,1.554,0,0,0,.558-.471,1.144,1.144,0,0,0,.2-.678m1.756,0A2.412,2.412,0,0,1,64.2,7.954a3,3,0,0,1-.9.945,4.8,4.8,0,0,1-1.394.6,7,7,0,0,1-1.764.209,6.917,6.917,0,0,1-1.723-.2,4.312,4.312,0,0,1-1.366-.59,2.9,2.9,0,0,1-.92-.945A2.442,2.442,0,0,1,55.8,6.7a2.4,2.4,0,0,1,.339-1.282,2.914,2.914,0,0,1,.927-.945,4.318,4.318,0,0,1,1.366-.591,6.86,6.86,0,0,1,1.7-.2,7.025,7.025,0,0,1,1.748.209,4.78,4.78,0,0,1,1.392.6,2.917,2.917,0,0,1,.922.947A2.423,2.423,0,0,1,64.523,6.7m.626,10.115H56.926v1.146h8.44v1.385H55.187v-3.9h8.2V14.384h-8.2V13h4.1V11.987H52.654V10.433H67.68v1.554H61.045V13h4.1v3.816Z" fill="#00418d"/>
        <path id="패스_65" data-name="패스 65" d="M78.353,19.014H76.665V3.818h1.687V9.525h1.585V3.651h1.689V19.52H79.938V11.079H78.353v7.935Zm-7.5-5.571a29.41,29.41,0,0,0,5.015-.4c.035.244.061.5.083.75s.053.508.086.766a25.884,25.884,0,0,1-2.9.33q-1.707.111-3.969.108V5.069h6.113V6.622H70.856Z" fill="#00418d"/>
        <path id="패스_66" data-name="패스 66" d="M95.723,8.815v3.851H93.985V3.651h1.738V7.264h2.4V8.815h-2.4Zm-6.078.9A1.366,1.366,0,0,0,89.157,8.6a1.892,1.892,0,0,0-1.249-.405,1.859,1.859,0,0,0-1.24.405,1.384,1.384,0,0,0-.481,1.114,1.356,1.356,0,0,0,.481,1.064,1.809,1.809,0,0,0,1.24.422,1.876,1.876,0,0,0,1.24-.415,1.324,1.324,0,0,0,.5-1.071m4.34,9.471V15.333h-7.9V13.778h9.639v5.4H93.986Zm-2.6-9.471a2.779,2.779,0,0,1-.246,1.166,2.688,2.688,0,0,1-.7.93,3.472,3.472,0,0,1-1.1.614,4.268,4.268,0,0,1-1.436.229,4.4,4.4,0,0,1-1.418-.22,3.291,3.291,0,0,1-1.1-.609,2.636,2.636,0,0,1-.7-.926,2.831,2.831,0,0,1,.719-3.325A3.291,3.291,0,0,1,86.5,6.96a4.242,4.242,0,0,1,1.409-.218,4.19,4.19,0,0,1,1.417.226,3.517,3.517,0,0,1,1.1.617,2.952,2.952,0,0,1,.709.947,2.775,2.775,0,0,1,.253,1.179M83.468,6.319V5H87.05V3.651h1.756V5h3.577V6.319H83.469Z" fill="#00418d"/>
        <path id="패스_67" data-name="패스 67" d="M111.191,5.117a74.882,74.882,0,0,1-.457,8.544l-1.673-.15q.185-1.96.281-3.664c.06-1.136.093-2.195.093-3.173h-8.949V5.118h10.7Zm-3.868,5.927v4.929h5.791v1.555H98.391V15.973h3.7V11.045h1.588v4.929h2.076V11.045h1.571Z" fill="#00418d"/>
        <path id="패스_68" data-name="패스 68" d="M131.852,11.079V19.52h-1.74V3.651h1.74V9.525h2.616V11.08h-2.616Zm-2.887,2.735c-.2.191-.4.382-.6.573s-.4.383-.6.573a12.281,12.281,0,0,1-2.151-1.967,9.179,9.179,0,0,1-1.444-2.27,8.5,8.5,0,0,1-1.4,2.33,13.9,13.9,0,0,1-2.178,2.075c-.192-.192-.388-.381-.592-.574s-.4-.384-.591-.572a9.837,9.837,0,0,0,2.963-3.346,7.865,7.865,0,0,0,.9-3.576V4.73h1.807v2.33a7.624,7.624,0,0,0,.212,1.788,6.828,6.828,0,0,0,.683,1.755,8.1,8.1,0,0,0,1.2,1.673,10.573,10.573,0,0,0,1.789,1.536" fill="#00418d"/>
        <path id="패스_69" data-name="패스 69" d="M146.235,14.556h-6.28v3.074h6.28ZM138.218,13h9.757v6.178h-9.757Zm3.662-5.081h-4.118V9.847h4.118Zm6.1,4.07h-1.74V8.325H143.62V11.35h-7.6V4.14h1.738V6.418h4.118V4.14h1.741V6.773h2.615V3.651h1.74Z" fill="#00418d"/>
        <path id="패스_70" data-name="패스 70" d="M160.233,19.014h-1.69V3.818h1.69V9.525h1.585V3.651h1.69V19.52h-1.69V11.079h-1.585v7.935Zm-7.5-5.571a29.362,29.362,0,0,0,5.011-.4c.036.244.065.5.086.75s.052.508.084.766a25.873,25.873,0,0,1-2.9.33q-1.706.111-3.967.108V5.069h6.11V6.622h-4.422Z" fill="#00418d"/>
        <path id="패스_71" data-name="패스 71" d="M177.6,8.815v3.851h-1.738V3.651H177.6V7.264H180V8.815h-2.4Zm-6.075.9a1.381,1.381,0,0,0-.489-1.114,1.9,1.9,0,0,0-1.251-.405,1.871,1.871,0,0,0-1.242.405,1.379,1.379,0,0,0-.478,1.114,1.351,1.351,0,0,0,.478,1.064,1.821,1.821,0,0,0,1.242.422,1.876,1.876,0,0,0,1.24-.415,1.32,1.32,0,0,0,.5-1.071m4.337,9.471V15.333h-7.9V13.778H177.6v5.4h-1.738Zm-2.6-9.471a2.778,2.778,0,0,1-.244,1.166,2.708,2.708,0,0,1-.7.93,3.5,3.5,0,0,1-1.1.614,4.272,4.272,0,0,1-1.436.229,4.4,4.4,0,0,1-1.418-.22,3.264,3.264,0,0,1-1.1-.609,2.624,2.624,0,0,1-.7-.926,2.961,2.961,0,0,1,.007-2.383,2.877,2.877,0,0,1,.71-.942,3.3,3.3,0,0,1,1.091-.61,4.607,4.607,0,0,1,2.826.008,3.482,3.482,0,0,1,1.1.617,2.9,2.9,0,0,1,.711.947,2.727,2.727,0,0,1,.251,1.179m-7.917-3.392V5h3.58V3.651h1.755V5h3.58V6.319Z" fill="#00418d"/>
      </g>
      <g id="그룹_28" data-name="그룹 28">
        <path id="패스_72" data-name="패스 72" d="M41.583,25.977c0-.668-.134-.957-.552-.957-.469,0-.579.469-.579,1.766,0,1.387.193,1.638.591,1.638.333,0,.578-.174.578-1.163h.925c0,.988-.244,1.843-1.457,1.843-1.387,0-1.561-.988-1.561-2.382s.173-2.382,1.561-2.382c1.323,0,1.419.969,1.419,1.637h-.925Z" fill="#00418d"/>
        <path id="패스_73" data-name="패스 73" d="M44.537,24.339c1.387,0,1.56.988,1.56,2.382s-.173,2.382-1.56,2.382-1.561-.988-1.561-2.382S43.15,24.339,44.537,24.339Zm0,4.084c.546,0,.636-.469.636-1.7s-.09-1.7-.636-1.7-.636.475-.636,1.7S43.992,28.423,44.537,28.423Z" fill="#00418d"/>
        <path id="패스_74" data-name="패스 74" d="M46.638,29.014V24.429h.925v3.827H49.2v.758H46.638Z" fill="#00418d"/>
        <path id="패스_75" data-name="패스 75" d="M49.625,29.014V24.429h.925v3.827h1.638v.758H49.626Z" fill="#00418d"/>
        <path id="패스_76" data-name="패스 76" d="M55.175,24.429v.758H53.537v1.078h1.541v.758H53.537v1.233h1.7v.758H52.612V24.428h2.562Z" fill="#00418d"/>
        <path id="패스_77" data-name="패스 77" d="M57.677,25.791c0-.341-.154-.77-.526-.77-.45,0-.63.462-.63,1.605,0,1.1.1,1.8.636,1.8a.674.674,0,0,0,.571-.732v-.469h-.61v-.68h1.5v2.472h-.681V28.59H57.92a1.031,1.031,0,0,1-.963.514c-1.136,0-1.361-.848-1.361-2.434,0-1.541.36-2.33,1.541-2.33,1.015,0,1.425.52,1.425,1.451h-.887Z" fill="#00418d"/>
        <path id="패스_78" data-name="패스 78" d="M61.775,24.429v.758H60.137v1.078h1.541v.758H60.137v1.233h1.7v.758H59.212V24.428h2.562Z" fill="#00418d"/>
        <path id="패스_79" data-name="패스 79" d="M65.306,24.339c1.387,0,1.56.988,1.56,2.382s-.173,2.382-1.56,2.382-1.561-.988-1.561-2.382S63.919,24.339,65.306,24.339Zm0,4.084c.546,0,.636-.469.636-1.7s-.09-1.7-.636-1.7-.636.475-.636,1.7S64.761,28.423,65.306,28.423Z" fill="#00418d"/>
        <path id="패스_80" data-name="패스 80" d="M67.407,24.429h2.562v.758H68.331v1.078h1.541v.758H68.331v1.99h-.925V24.428Z" fill="#00418d"/>
        <path id="패스_81" data-name="패스 81" d="M74.483,24.429v.758H72.845v1.078h1.541v.758H72.845v1.233h1.7v.758H71.921V24.428h2.562Z" fill="#00418d"/>
        <path id="패스_82" data-name="패스 82" d="M75.021,24.429h1.515c1.284,0,1.515.879,1.515,2.228,0,1.624-.347,2.356-1.573,2.356H75.021V24.429Zm.925,3.9h.411c.642,0,.77-.4.77-1.65,0-1.04-.084-1.573-.79-1.573h-.392v3.223Z" fill="#00418d"/>
        <path id="패스_83" data-name="패스 83" d="M79.5,24.429v3.2c0,.456.109.8.54.8s.539-.341.539-.8v-3.2h.925v3.2A1.309,1.309,0,0,1,80.042,29.1c-.751,0-1.464-.251-1.464-1.477v-3.2H79.5Z" fill="#00418d"/>
        <path id="패스_84" data-name="패스 84" d="M84.064,25.977c0-.668-.134-.957-.552-.957-.469,0-.579.469-.579,1.766,0,1.387.193,1.638.591,1.638.333,0,.578-.174.578-1.163h.925c0,.988-.244,1.843-1.457,1.843-1.387,0-1.561-.988-1.561-2.382s.174-2.382,1.561-2.382c1.323,0,1.419.969,1.419,1.637h-.925Z" fill="#00418d"/>
        <path id="패스_85" data-name="패스 85" d="M86.418,24.429h1.143l1.214,4.585h-.963l-.212-.97H86.38l-.212.97h-.963l1.214-4.585Zm.122,2.857h.9L87,25.225h-.013l-.443,2.061Z" fill="#00418d"/>
        <path id="패스_86" data-name="패스 86" d="M91.46,24.429v.758h-1v3.827h-.924V25.187h-1v-.758H91.46Z" fill="#00418d"/>
        <path id="패스_87" data-name="패스 87" d="M91.9,29.014V24.429h.925v4.585Z" fill="#00418d"/>
        <path id="패스_88" data-name="패스 88" d="M94.948,24.339c1.386,0,1.56.988,1.56,2.382s-.173,2.382-1.56,2.382-1.561-.988-1.561-2.382S93.561,24.339,94.948,24.339Zm0,4.084c.545,0,.635-.469.635-1.7s-.09-1.7-.635-1.7-.636.475-.636,1.7S94.4,28.423,94.948,28.423Z" fill="#00418d"/>
        <path id="패스_89" data-name="패스 89" d="M98.114,24.429l1.117,3.14h.014v-3.14h.848v4.585H99.038l-1.13-3.21H97.9v3.21h-.848V24.429h1.066Z" fill="#00418d"/>
        <path id="패스_90" data-name="패스 90" d="M101.586,28.012v.835c0,.68-.16,1.162-.848,1.226v-.45a.468.468,0,0,0,.333-.507v-.1h-.333v-1Z" fill="#00418d"/>
        <path id="패스_91" data-name="패스 91" d="M104.54,27.582v.134c0,.43.123.707.61.707a.529.529,0,0,0,.552-.566c0-.417-.212-.571-.822-.783-.822-.283-1.2-.623-1.2-1.387a1.256,1.256,0,0,1,1.418-1.348c.822,0,1.419.353,1.419,1.233V25.7h-.886c0-.43-.147-.68-.5-.68a.474.474,0,0,0-.527.533c0,.283.084.456.476.623l.712.308a1.172,1.172,0,0,1,.873,1.214c0,.97-.591,1.406-1.592,1.406-1.047,0-1.457-.488-1.457-1.335v-.186h.924Z" fill="#00418d"/>
        <path id="패스_92" data-name="패스 92" d="M109.678,24.429v.758h-1.638v1.078h1.542v.758h-1.542v1.233h1.7v.758h-2.625V24.428h2.562Z" fill="#00418d"/>
        <path id="패스_93" data-name="패스 93" d="M111.63,24.339c1.387,0,1.56.988,1.56,2.382s-.173,2.382-1.56,2.382-1.56-.988-1.56-2.382S110.243,24.339,111.63,24.339Zm0,4.084c.546,0,.636-.469.636-1.7s-.09-1.7-.636-1.7-.636.475-.636,1.7S111.085,28.423,111.63,28.423Z" fill="#00418d"/>
        <path id="패스_94" data-name="패스 94" d="M114.617,24.429v3.2c0,.456.109.8.539.8s.539-.341.539-.8v-3.2h.925v3.2a1.31,1.31,0,0,1-1.464,1.477c-.752,0-1.464-.251-1.464-1.477v-3.2h.925Z" fill="#00418d"/>
        <path id="패스_95" data-name="패스 95" d="M117.22,29.014V24.429h.925v3.827h1.638v.758Z" fill="#00418d"/>
        <path id="패스_96" data-name="패스 96" d="M122.8,24.429l1.117,3.14h.014v-3.14h.848v4.585h-1.053l-1.13-3.21h-.014v3.21h-.848V24.429H122.8Z" fill="#00418d"/>
        <path id="패스_97" data-name="패스 97" d="M126.373,24.429h1.143l1.214,4.585h-.963l-.212-.97h-1.22l-.212.97h-.964l1.214-4.585Zm.122,2.857h.9l-.443-2.061h-.014l-.443,2.061Z" fill="#00418d"/>
        <path id="패스_98" data-name="패스 98" d="M131.414,24.429v.758h-1v3.827h-.924V25.187h-1v-.758h2.928Z" fill="#00418d"/>
        <path id="패스_99" data-name="패스 99" d="M131.857,29.014V24.429h.925v4.585Z" fill="#00418d"/>
        <path id="패스_100" data-name="패스 100" d="M134.9,24.339c1.386,0,1.56.988,1.56,2.382s-.173,2.382-1.56,2.382-1.561-.988-1.561-2.382S133.515,24.339,134.9,24.339Zm0,4.084c.545,0,.635-.469.635-1.7s-.09-1.7-.635-1.7-.636.475-.636,1.7S134.357,28.423,134.9,28.423Z" fill="#00418d"/>
        <path id="패스_101" data-name="패스 101" d="M138.068,24.429l1.117,3.14h.014v-3.14h.848v4.585h-1.054l-1.13-3.21h-.012v3.21H137V24.429h1.066Z" fill="#00418d"/>
        <path id="패스_102" data-name="패스 102" d="M141.64,24.429h1.144L144,29.014h-.963l-.212-.97H141.6l-.212.97h-.963l1.213-4.585Zm.123,2.857h.9l-.443-2.061h-.012l-.443,2.061Z" fill="#00418d"/>
        <path id="패스_103" data-name="패스 103" d="M144.379,29.014V24.429h.924v3.827h1.638v.758Z" fill="#00418d"/>
        <path id="패스_104" data-name="패스 104" d="M149.76,24.429v3.2c0,.456.109.8.54.8s.539-.341.539-.8v-3.2h.924v3.2A1.309,1.309,0,0,1,150.3,29.1c-.75,0-1.464-.251-1.464-1.477v-3.2h.924Z" fill="#00418d"/>
        <path id="패스_105" data-name="패스 105" d="M153.43,24.429l1.117,3.14h.014v-3.14h.848v4.585h-1.054l-1.13-3.21h-.012v3.21h-.848V24.429h1.066Z" fill="#00418d"/>
        <path id="패스_106" data-name="패스 106" d="M156.064,29.014V24.429h.924v4.585Z" fill="#00418d"/>
        <path id="패스_107" data-name="패스 107" d="M158.384,24.429l.649,3.39h.019l.68-3.39h.957l-1.053,4.585h-1.187l-1.054-4.585h.989Z" fill="#00418d"/>
        <path id="패스_108" data-name="패스 108" d="M163.641,24.429v.758H162v1.078h1.541v.758H162v1.233h1.7v.758h-2.626V24.428h2.563Z" fill="#00418d"/>
        <path id="패스_109" data-name="패스 109" d="M164.157,24.429h1.708a1.087,1.087,0,0,1,1.22,1.182c0,.61-.244,1.021-.764,1.13v.013c.629.084.725.431.739,1.4.006.481.032.732.205.822v.039h-1a.893.893,0,0,1-.115-.481l-.025-.879c-.014-.36-.173-.578-.546-.578h-.494v1.939h-.925V24.431Zm.925,2h.385a.6.6,0,0,0,.693-.687.569.569,0,0,0-.642-.636h-.436v1.323Z" fill="#00418d"/>
        <path id="패스_110" data-name="패스 110" d="M168.447,27.582v.134c0,.43.123.707.61.707a.529.529,0,0,0,.552-.566c0-.417-.212-.571-.822-.783-.822-.283-1.2-.623-1.2-1.387A1.256,1.256,0,0,1,169,24.339c.822,0,1.419.353,1.419,1.233V25.7h-.887c0-.43-.147-.68-.5-.68a.474.474,0,0,0-.527.533c0,.283.084.456.476.623l.712.308a1.172,1.172,0,0,1,.873,1.214c0,.97-.591,1.406-1.592,1.406-1.047,0-1.457-.488-1.457-1.335v-.186h.924Z" fill="#00418d"/>
        <path id="패스_111" data-name="패스 111" d="M171.046,29.014V24.429h.925v4.585Z" fill="#00418d"/>
        <path id="패스_112" data-name="패스 112" d="M175.335,24.429v.758h-1v3.827h-.924V25.187h-1v-.758h2.928Z" fill="#00418d"/>
        <path id="패스_113" data-name="패스 113" d="M176.643,24.429l.6,1.772h.013l.642-1.772h1l-1.187,2.78v1.8h-.925v-1.8l-1.187-2.78h1.039Z" fill="#00418d"/>
      </g>
    </g>
  </g>
</svg>
