<?xml version="1.0" encoding="utf-8"?>
<!-- Generator: Adobe Illustrator 27.0.0, SVG Export Plug-In . SVG Version: 6.00 Build 0)  -->
<svg version="1.1" id="레이어_1" xmlns="http://www.w3.org/2000/svg" xmlns:xlink="http://www.w3.org/1999/xlink" x="0px"
	 y="0px" width="151px" height="40px" viewBox="0 0 151 40" style="enable-background:new 0 0 151 40;" xml:space="preserve">
<style type="text/css">
	.st0{fill:#30B9CA;}
	.st1{fill:#1C365F;}
	.st2{fill:#999999;}
</style>
<g>
	<g>
		<g>
			<path class="st0" d="M77.034,27.217c-3.663,0-5.494-1.679-5.494-5.038v-8.806h2.836v8.648c0,1.124,0.221,1.917,0.665,2.38
				c0.443,0.463,1.14,0.694,2.092,0.694c0.913,0,1.574-0.231,1.984-0.694c0.41-0.463,0.615-1.262,0.615-2.4v-8.628h2.578v8.747
				c0,1.732-0.43,3.015-1.289,3.848C80.161,26.8,78.832,27.217,77.034,27.217z"/>
			<path class="st0" d="M85.007,26.979V13.373h3.154l5.256,9.044h0.059v-9.044h2.479v13.606h-2.777l-5.633-9.758h-0.06v9.758H85.007
				z"/>
			<path class="st0" d="M98.791,26.979V13.373h2.836v13.606H98.791z"/>
			<path class="st1" d="M106.745,26.979l-3.292-13.606h2.836l2.162,9.639h0.079l2.578-9.639h2.321l2.539,9.639h0.079l2.202-9.639
				h2.499l-3.273,13.606h-2.856l-2.42-9.481h-0.059l-2.559,9.481H106.745z"/>
			<path class="st1" d="M122.572,26.979V13.373h2.836v13.606H122.572z"/>
			<path class="st1" d="M128.264,26.979V13.373h4.661c4.403,0,6.605,2.155,6.605,6.466v0.397c0,2.208-0.555,3.884-1.666,5.028
				c-1.111,1.144-2.75,1.716-4.919,1.716H128.264z M131.081,24.817h1.864c1.256,0,2.172-0.334,2.747-1.002
				c0.575-0.668,0.863-1.782,0.863-3.342v-0.674c0-1.587-0.311-2.7-0.932-3.342c-0.622-0.641-1.567-0.962-2.836-0.962h-1.706V24.817
				z"/>
			<path class="st1" d="M141.652,26.979V13.373h8.727v2.122h-5.911v3.451h4.621v2.102h-4.621v3.768h6.049v2.162H141.652z"/>
		</g>
	</g>
	<g>
		<path class="st1" d="M56.021,14.665c-0.017,0.098-0.287,1.139-0.478,1.838c3.695,1.902,6.229,5.753,6.229,10.187
			c0,6.315-5.138,11.453-11.453,11.453c-3.866,0-7.446-1.931-9.574-5.165c-0.282-0.428-0.856-0.547-1.284-0.266l-0.042,0.027
			c-0.14,0.092-0.253,0.22-0.327,0.371c-1.468,3.019-3.645,4.46-6.852,4.534c-2.003,0.047-3.943-0.691-5.314-2.025l-1.295,1.331
			c1.726,1.679,4.157,2.609,6.652,2.55c3.447-0.08,6.005-1.496,7.784-4.321C42.584,38.222,46.319,40,50.319,40
			c7.339,0,13.31-5.971,13.31-13.311C63.63,21.389,60.515,16.804,56.021,14.665z"/>
		<path class="st2" d="M36.952,0c-7.049,0-13.349,4.512-15.664,11.092c-1.317-0.44-3.83-1.006-7.014-0.41l0.342,1.826
			c4.005-0.751,6.807,0.628,6.831,0.641c0.248,0.127,0.539,0.136,0.794,0.025c0.255-0.111,0.447-0.331,0.523-0.598
			c1.787-6.31,7.62-10.717,14.187-10.717c6.714,0,12.47,4.556,14.206,10.801c0.678-0.321,1.04-0.471,1.73-0.713
			C50.862,5.024,44.434,0,36.952,0z"/>
		<path class="st0" d="M26.265,34.865c0.998-1.202,1.764-2.562,2.264-4.04c0.594-1.752,0.585-3.474-0.022-4.495
			c-0.298-0.502-0.744-0.827-1.254-0.915c-1.459-0.253-2.76,0.599-3.398,2.221c-0.349,0.887-0.557,2.345-0.557,3.9
			c0,0.77,0.121,1.524,0.352,2.244c0.501-0.422,1.262-1.288,1.531-1.732c-0.015-0.166-0.025-0.336-0.025-0.512
			c0-1.472,0.215-2.678,0.428-3.22c0.2-0.509,0.567-1.166,1.174-1.086c0.439,0.058,0.563,1.375,0.012,3
			c-0.336,0.991-0.819,1.919-1.423,2.765c-0.472,0.655-0.854,1.089-1.384,1.601c-2.285,2.201-5.51,3.548-8.946,3.548
			c-6.99,0-12.677-5.687-12.677-12.677c0-4.888,2.731-9.257,7.127-11.401c0.389-0.19,0.595-0.622,0.498-1.044
			c-0.097-0.421-0.472-0.72-0.905-0.72H3.284l-2.471,1.857H5.87c-3.383,2.72-5.388,6.823-5.388,11.307
			C0.482,33.48,7.002,40,15.016,40c3.006,0,5.887-0.869,8.332-2.514c0.578-0.388,1.118-0.811,1.618-1.266
			C25.33,35.901,26.061,35.11,26.265,34.865z"/>
		<circle class="st0" cx="53.086" cy="14.881" r="1.651"/>
	</g>
</g>
</svg>
