<?xml version="1.0" encoding="utf-8"?>
<!-- Generator: Adobe Illustrator 27.0.0, SVG Export Plug-In . SVG Version: 6.00 Build 0)  -->
<svg version="1.1" id="레이어_1" xmlns="http://www.w3.org/2000/svg" xmlns:xlink="http://www.w3.org/1999/xlink" x="0px"
	 y="0px" width="246px" height="40px" viewBox="0 0 246 40" style="enable-background:new 0 0 246 40;" xml:space="preserve">
<style type="text/css">
	.st0{fill:#191919;}
</style>
<g>
	<path class="st0" d="M4.51,21.02l7.82,9.69l2.21-1.87l-6.63-7.99l5.78-7.31l-2.38-1.7L4.51,21.02z M0.43,5.04V30.2h3.06V4.36
		L0.43,5.04z M17.26,25.44c0-1.53,0.51-3.06,1.87-4.08C20.32,20.34,22.02,20,24.4,20h3.4v-1.19c0-2.72-1.19-4.08-3.57-4.08
		c-0.85,0-1.7,0.17-2.55,0.34c-0.85,0.17-1.53,0.51-2.38,0.85l-0.85-2.21c0.85-0.51,1.87-0.85,2.72-1.19
		c1.02-0.34,2.04-0.34,3.06-0.34c4.25,0,6.29,2.21,6.29,6.8V30.2h-2.21l-0.34-1.87c-0.85,0.68-1.87,1.19-2.89,1.7
		c-0.85,0.34-1.87,0.51-2.89,0.51c-1.36,0-2.72-0.34-3.74-1.36C17.77,28.16,17.26,26.8,17.26,25.44z M22.87,28.16
		c0.51,0,0.85,0,1.36-0.17s0.85-0.34,1.36-0.51s0.85-0.34,1.19-0.68c0.34-0.34,0.68-0.51,1.02-0.85v-4.08h-3.06
		c-1.53,0-2.72,0.34-3.4,0.85c-0.85,0.68-1.19,1.7-1.19,2.55C20.15,27.14,21,28.16,22.87,28.16z M39.02,30.2h-3.06V5.04l3.06-0.68
		V30.2z M47.01,12.01l2.38,1.7l-5.78,7.31l6.63,7.99l-2.21,1.7l-7.82-9.69L47.01,12.01z M52.79,25.44c0-1.53,0.51-3.06,1.87-4.08
		c1.19-1.02,2.89-1.36,5.27-1.36h3.4v-1.19c0-2.72-1.19-4.08-3.57-4.08c-0.85,0-1.7,0.17-2.55,0.34c-0.85,0.17-1.7,0.51-2.38,0.85
		l-0.85-2.21c0.85-0.51,1.87-0.85,2.89-1.19c1.02-0.34,2.04-0.34,3.06-0.34c4.25,0,6.29,2.21,6.29,6.8V30.2h-2.21l-0.34-1.87
		c-0.85,0.68-1.87,1.19-2.89,1.7c-0.85,0.34-1.87,0.51-2.89,0.51c-1.36,0-2.72-0.34-3.74-1.36C53.3,28.16,52.79,26.8,52.79,25.44z
		 M58.57,28.16c0.51,0,0.85,0,1.36-0.17c0.51-0.17,0.85-0.34,1.36-0.51s0.85-0.34,1.19-0.68c0.34-0.34,0.68-0.51,1.02-0.85V21.7
		h-3.06c-1.53,0-2.72,0.34-3.4,0.85c-0.85,0.68-1.19,1.7-1.19,2.55C55.85,27.14,56.7,28.16,58.57,28.16z M78.29,12.18
		c2.21-0.17,4.42,0.85,5.78,2.38c1.36,1.53,2.04,3.91,2.04,6.97s-0.68,5.27-2.04,6.8c-1.36,1.53-3.4,2.38-5.78,2.38
		c-2.21,0.17-4.42-0.85-5.78-2.38c-1.36-1.7-2.04-3.91-2.04-6.8s0.68-5.27,2.21-6.97C74.04,12.86,76.08,12.01,78.29,12.18z
		 M78.29,14.56c-1.36,0-2.72,0.51-3.57,1.7c-0.85,1.19-1.19,2.89-1.19,5.1s0.34,3.91,1.19,5.1c1.7,2.04,4.59,2.21,6.46,0.68
		c0.34-0.17,0.51-0.51,0.68-0.68c0.85-1.19,1.19-2.89,1.19-5.1s-0.34-3.91-1.19-5.1S79.65,14.39,78.29,14.56z"/>
	<path class="st0" d="M105.66,20.68c0,0.68,0,1.36-0.17,2.04H94.78c0.17,2.89,1.7,4.42,4.93,4.42c1.53,0,3.06-0.34,4.59-1.02
		l1.02,3.06c-1.87,1.02-4.08,1.53-6.12,1.53c-6.12,0-9.01-3.23-9.01-9.52c0-5.95,3.06-9.52,8.16-9.52
		C103.11,11.67,105.66,14.9,105.66,20.68z M94.78,19.49h6.46c0-3.06-1.02-4.42-3.23-4.42C95.97,15.07,94.78,16.77,94.78,19.49z
		 M108.89,12.18h3.23l0.68,1.87c1.53-1.36,3.57-2.21,5.78-2.38c4.08,0,6.12,2.38,6.12,6.97V30.2h-4.59V18.47
		c0-2.04-0.68-2.89-3.23-2.89c-1.19,0-2.21,0.34-3.4,0.68V30.2h-4.59V12.18z M126.74,12.52l2.89-0.34V8.61l4.59-1.02v4.59h5.44v3.4
		h-5.44v7.82c0,2.72,0.68,3.23,2.04,3.23c1.02,0,2.04-0.34,3.06-0.51l1.02,3.23c-1.7,0.85-3.4,1.36-5.27,1.36
		c-3.74,0-5.44-2.38-5.44-6.97v-8.16h-2.89V12.52z M157.51,20.68c0,0.68,0,1.36-0.17,2.04h-10.71c0.17,2.89,1.7,4.42,4.93,4.42
		c1.53,0,3.06-0.34,4.59-1.02l1.02,3.06c-1.87,1.02-4.08,1.53-6.12,1.53c-6.12,0-9.01-3.23-9.01-9.52c0-5.95,3.06-9.52,8.16-9.52
		C154.96,11.67,157.51,14.9,157.51,20.68z M146.63,19.49h6.46c0-3.06-1.02-4.42-3.23-4.42C147.82,15.07,146.63,16.77,146.63,19.49z
		 M165.16,16.6v13.6h-4.59V12.18h3.23l0.68,1.87c1.53-1.53,3.57-2.38,5.61-2.55c0.51,0,1.02,0,1.53,0.17l-0.51,4.42
		c-0.85-0.17-1.7-0.34-2.55-0.34C167.37,16.09,166.18,16.09,165.16,16.6z M178.42,30.2V37h-4.59V12.18h3.23l0.51,1.53
		c1.36-1.36,3.23-2.04,5.1-2.04c4.76,0,6.8,3.57,6.8,9.18c0,5.95-3.4,9.86-8.33,9.86C180.46,30.71,179.44,30.54,178.42,30.2z
		 M178.42,16.09v11.05c0.51,0,1.19,0.17,1.7,0.17c3.57,0,4.93-2.38,4.93-6.29c0-3.4-0.85-5.44-3.74-5.44
		C180.29,15.41,179.44,15.58,178.42,16.09z M197.63,16.6v13.6h-4.59V12.18h3.23l0.68,1.87c1.53-1.53,3.57-2.38,5.61-2.55
		c0.51,0,1.02,0,1.53,0.17l-0.51,4.42c-0.85-0.17-1.7-0.34-2.55-0.34C200.01,16.09,198.82,16.09,197.63,16.6z M205.28,6.4l3.4-3.4
		l3.4,3.4l-3.4,3.4L205.28,6.4z M211.06,12.18V30.2h-4.59V12.18H211.06z M222.62,19.66c3.74,1.36,4.93,2.72,4.93,5.44
		c0,3.57-2.38,5.78-6.97,5.78c-2.21,0-4.42-0.51-6.63-1.36l0.85-3.57c1.87,0.68,3.74,1.19,5.78,1.19c1.87,0,2.55-0.68,2.55-1.7
		c0-1.02-0.51-1.53-3.57-2.55c-3.74-1.36-5.1-2.55-5.1-5.61c0-3.23,2.72-5.44,6.63-5.44c2.21,0,4.25,0.51,6.12,1.36l-1.19,3.23
		c-1.36-0.68-2.89-1.02-4.42-1.02c-1.7,0-2.72,0.85-2.72,1.87C219.05,18.13,220.07,18.64,222.62,19.66z M245.57,20.68
		c0,0.68,0,1.36-0.17,2.04h-10.71c0.17,2.89,1.7,4.42,4.93,4.42c1.53,0,3.06-0.34,4.59-1.02l1.02,3.06
		c-1.87,1.02-4.08,1.53-6.12,1.53c-6.12,0-9.01-3.23-9.01-9.52c0-5.95,3.06-9.52,8.16-9.52C242.85,11.67,245.57,14.9,245.57,20.68z
		 M234.52,19.49h6.46c0-3.06-1.02-4.42-3.23-4.42C235.88,15.07,234.69,16.77,234.52,19.49z"/>
</g>
</svg>
