<?xml version="1.0" encoding="utf-8"?>
<!-- Generator: Adobe Illustrator 27.0.0, SVG Export Plug-In . SVG Version: 6.00 Build 0)  -->
<svg version="1.1" id="레이어_1" xmlns="http://www.w3.org/2000/svg" xmlns:xlink="http://www.w3.org/1999/xlink" x="0px"
	 y="0px" width="180px" height="40px" viewBox="0 0 180 40" style="enable-background:new 0 0 180 40;" xml:space="preserve">
<style type="text/css">
	.st0{fill:#222220;}
	.st1{fill:#399F93;}
	.st2{fill:#1F5DA4;}
</style>
<g>
	<path class="st0" d="M43.785,34.904h0.173c0.025,0.642,0.438,1.365,1.086,1.365c0.398,0,0.776-0.202,0.776-0.743
		c0-1.115-1.984-0.75-1.984-2.331c0-0.957,0.628-1.354,1.177-1.354c0.297,0,0.56,0.063,1.019,0.277l0.04,1.077h-0.172
		c-0.096-0.617-0.459-1.128-0.973-1.128c-0.328,0-0.57,0.277-0.57,0.687c0,0.989,1.948,0.617,1.948,2.37
		c0,0.812-0.576,1.371-1.306,1.371c-0.398,0-0.8-0.094-1.17-0.295L43.785,34.904z"/>
	<path class="st0" d="M46.786,36.226h0.483V32.11h-0.483v-0.19h3.11v1.417h-0.148c-0.111-0.964-0.621-1.227-1.332-1.227h-0.364
		v1.915c0.526,0,0.835-0.29,0.835-0.914h0.148v2.053h-0.148c0-0.741-0.309-0.949-0.835-0.949v2.011h0.532
		c0.568,0,1.208-0.277,1.304-1.323h0.148v1.513h-3.25V36.226z"/>
	<path class="st0" d="M51.561,34.165c0-0.787,0.06-2.133,1.001-2.133c0.941,0,1.001,1.347,1.001,2.133c0,0.793-0.06,2.14-1.001,2.14
		C51.621,36.305,51.561,34.958,51.561,34.165z M50.674,34.165c0,1.359,0.735,2.329,1.887,2.329c1.152,0,1.887-0.97,1.887-2.329
		c0-1.353-0.735-2.323-1.887-2.323C51.409,31.842,50.674,32.812,50.674,34.165z"/>
	<path class="st0" d="M54.94,31.92h1.815v0.19h-0.549v3.19c0,0.717,0.403,0.969,0.902,0.969c0.524,0,1.013-0.252,1.013-1.095V32.11
		h-0.529v-0.19h1.204v0.19h-0.493v3.026c0,1.07-0.609,1.359-1.375,1.359c-0.956,0-1.504-0.207-1.504-1.233V32.11H54.94V31.92z"/>
	<path class="st0" d="M59.108,36.226h0.483V32.11h-0.483v-0.19h1.75v0.19h-0.484v4.116h0.59c0.57,0,1.211-0.277,1.306-1.383h0.148
		v1.572h-3.31V36.226z"/>
	<path class="st0" d="M64.279,36.226h0.503V32.11h-0.503v-0.19h1.372l0.988,3.257l1.084-3.257h1.311v0.19h-0.503v4.116h0.503v0.19
		H67.21v-0.19h0.539v-3.777h-0.01l-1.341,4.08h-0.171l-1.286-4.08h-0.01v3.777h0.56v0.19h-1.211V36.226z"/>
	<path class="st0" d="M69.382,36.226h0.483V32.11h-0.483v-0.19h3.11v1.417h-0.148c-0.111-0.964-0.621-1.227-1.332-1.227h-0.364
		v1.915c0.526,0,0.835-0.29,0.835-0.914h0.148v2.053h-0.148c0-0.741-0.309-0.949-0.835-0.949v2.011h0.531
		c0.568,0,1.208-0.277,1.304-1.323h0.148v1.513h-3.25V36.226z"/>
	<path class="st0" d="M74.002,36.226h0.485V32.11H74.3c-0.743,0-1.021,0.691-1.031,1.332h-0.148V31.92h3.514v1.522h-0.148
		c-0.01-0.641-0.288-1.332-1.031-1.332H75.27v4.116h0.485v0.19h-1.753V36.226z"/>
	<path class="st0" d="M78.299,32.116h0.202c0.533,0,0.729,0.151,0.729,0.955c0,0.804-0.196,0.954-0.614,0.954h-0.317V32.116z
		 M78.868,36.416v-0.19h-0.569v-2.011h0.312c0.428,0,0.75,0.101,0.75,0.93c0,0.578,0,1.271,0.735,1.271h0.534v-0.177
		c-0.453,0-0.453-0.453-0.453-0.899c0-0.949-0.368-1.176-1.063-1.245v-0.013c0.499-0.145,0.932-0.44,0.932-1.162
		c0-0.981-0.801-1-1.345-1h-1.669v0.19h0.483v4.116h-0.483v0.19H78.868z"/>
	<path class="st0" d="M81.988,34.165c0-0.787,0.06-2.133,1.001-2.133c0.941,0,1.001,1.347,1.001,2.133c0,0.793-0.06,2.14-1.001,2.14
		C82.048,36.305,81.988,34.958,81.988,34.165z M81.102,34.165c0,1.359,0.735,2.329,1.887,2.329c1.152,0,1.887-0.97,1.887-2.329
		c0-1.353-0.735-2.323-1.887-2.323C81.837,31.842,81.102,32.812,81.102,34.165z"/>
	<path class="st0" d="M86.694,32.11h0.437c0.572,0,0.738,0.283,0.738,1.045c0,0.761-0.166,1.045-0.738,1.045h-0.437V32.11z
		 M85.428,36.416h1.834v-0.19h-0.567v-1.837h0.603c0.673,0,1.458-0.139,1.458-1.234c0-1.241-0.911-1.235-1.353-1.235h-1.974v0.19
		h0.483v4.116h-0.483V36.416z"/>
	<path class="st0" d="M90.202,34.165c0-0.787,0.06-2.133,1.001-2.133c0.941,0,1.001,1.347,1.001,2.133c0,0.793-0.06,2.14-1.001,2.14
		C90.263,36.305,90.202,34.958,90.202,34.165z M89.317,34.165c0,1.359,0.735,2.329,1.887,2.329c1.152,0,1.887-0.97,1.887-2.329
		c0-1.353-0.735-2.323-1.887-2.323C90.051,31.842,89.317,32.812,89.317,34.165z"/>
	<path class="st0" d="M93.643,36.226h0.483V32.11h-0.483v-0.19h1.75v0.19h-0.484v4.116h0.59c0.57,0,1.21-0.277,1.306-1.383h0.148
		v1.572h-3.31V36.226z"/>
	<path class="st0" d="M97.378,36.226h0.483V32.11h-0.483v-0.19h1.749v0.19h-0.483v4.116h0.483v0.19h-1.749V36.226z"/>
	<path class="st0" d="M100.417,36.226h0.485V32.11h-0.187c-0.743,0-1.021,0.691-1.031,1.332h-0.148V31.92h3.515v1.522h-0.148
		c-0.01-0.641-0.288-1.332-1.031-1.332h-0.187v4.116h0.485v0.19h-1.753V36.226z"/>
	<path class="st0" d="M104.838,34.739h-0.815l0.402-1.45h0.01L104.838,34.739z M103.037,36.416h1.076v-0.19h-0.498l0.357-1.298
		h0.921l0.357,1.298h-0.508v0.19h1.801v-0.19h-0.418l-1.272-4.307h-0.181l-1.247,4.307h-0.387V36.416z"/>
	<path class="st0" d="M106.886,36.226h0.503V32.11h-0.503v-0.19h1.44l1.828,2.968h0.01V32.11h-0.558v-0.19h1.209v0.19h-0.503v4.385
		l-0.118,0.038l-2.647-4.197h-0.01v3.89h0.553v0.19h-1.204V36.226z"/>
	<path class="st0" d="M113.739,34.165c0-0.787,0.06-2.133,1.001-2.133c0.941,0,1.001,1.347,1.001,2.133
		c0,0.793-0.06,2.14-1.001,2.14C113.8,36.305,113.739,34.958,113.739,34.165z M112.853,34.165c0,1.359,0.735,2.329,1.887,2.329
		c1.152,0,1.887-0.97,1.887-2.329c0-1.353-0.735-2.323-1.887-2.323C113.588,31.842,112.853,32.812,112.853,34.165z"/>
	<path class="st0" d="M120.29,33.336h-0.148c-0.11-0.964-0.617-1.227-1.327-1.227h-0.43v1.994c0.572,0,0.957-0.07,0.957-0.957h0.148
		v2.094h-0.148c0-0.879-0.385-0.948-0.957-0.948v1.933h0.516v0.19h-1.782v-0.19h0.483V32.11h-0.483v-0.19h3.171V33.336z"/>
	<path class="st0" d="M123.748,33.336H123.6c-0.11-0.964-0.617-1.227-1.327-1.227h-0.43v1.994c0.572,0,0.957-0.07,0.957-0.957h0.148
		v2.094H122.8c0-0.879-0.385-0.948-0.957-0.948v1.933h0.516v0.19h-1.782v-0.19h0.483V32.11h-0.483v-0.19h3.171V33.336z"/>
	<path class="st0" d="M124.096,36.226h0.483V32.11h-0.483v-0.19h1.749v0.19h-0.483v4.116h0.483v0.19h-1.749V36.226z"/>
	<path class="st0" d="M129.621,33.485h-0.148c-0.045-0.78-0.549-1.453-1.131-1.453c-0.986,0-1.096,1.265-1.096,2.133
		c0,0.793,0.06,2.14,1.061,2.14c0.593,0,1.126-0.686,1.192-1.447h0.148v1.271c-0.374,0.195-0.917,0.366-1.36,0.366
		c-1.151,0-1.884-0.97-1.884-2.329c0-1.353,0.733-2.323,1.884-2.323c0.442,0,0.865,0.139,1.334,0.366V33.485z"/>
	<path class="st0" d="M130.166,36.226h0.483V32.11h-0.483v-0.19h3.11v1.417h-0.148c-0.111-0.964-0.621-1.227-1.332-1.227h-0.364
		v1.915c0.526,0,0.835-0.29,0.835-0.914h0.148v2.053h-0.148c0-0.741-0.309-0.949-0.835-0.949v2.011h0.532
		c0.568,0,1.208-0.277,1.304-1.323h0.148v1.513h-3.25V36.226z"/>
	<path class="st0" d="M136.44,34.165c0-0.787,0.06-2.133,1.001-2.133c0.941,0,1.001,1.347,1.001,2.133c0,0.793-0.06,2.14-1.001,2.14
		C136.5,36.305,136.44,34.958,136.44,34.165z M135.554,34.165c0,1.359,0.735,2.329,1.887,2.329c1.152,0,1.887-0.97,1.887-2.329
		c0-1.353-0.735-2.323-1.887-2.323C136.289,31.842,135.554,32.812,135.554,34.165z"/>
	<path class="st0" d="M142.991,33.336h-0.148c-0.11-0.964-0.617-1.227-1.327-1.227h-0.43v1.994c0.572,0,0.957-0.07,0.957-0.957
		h0.148v2.094h-0.148c0-0.879-0.385-0.948-0.957-0.948v1.933h0.516v0.19h-1.783v-0.19h0.483V32.11h-0.483v-0.19h3.171V33.336z"/>
	<path class="st0" d="M144.839,36.226h0.483V32.11h-0.483v-0.19h3.11v1.417h-0.148c-0.111-0.964-0.621-1.227-1.332-1.227h-0.364
		v1.915c0.526,0,0.835-0.29,0.835-0.914h0.148v2.053h-0.148c0-0.741-0.309-0.949-0.835-0.949v2.011h0.532
		c0.567,0,1.208-0.277,1.304-1.323h0.148v1.513h-3.249V36.226z"/>
	<path class="st0" d="M149.84,32.11h0.479c0.534,0,1.296,0.063,1.296,2.061c0,1.992-0.762,2.055-1.488,2.055h-0.287V32.11z
		 M148.574,36.416h1.947c1.19,0,1.98-0.548,1.98-2.245c0-1.703-0.79-2.251-1.98-2.251h-1.947v0.19h0.483v4.116h-0.483V36.416z"/>
	<path class="st0" d="M152.993,31.92h1.815v0.19h-0.549v3.19c0,0.717,0.403,0.969,0.902,0.969c0.524,0,1.013-0.252,1.013-1.095
		V32.11h-0.529v-0.19h1.203v0.19h-0.493v3.026c0,1.07-0.609,1.359-1.375,1.359c-0.956,0-1.503-0.207-1.503-1.233V32.11h-0.483V31.92
		z"/>
	<path class="st0" d="M160.532,33.485h-0.148c-0.045-0.78-0.549-1.453-1.131-1.453c-0.986,0-1.096,1.265-1.096,2.133
		c0,0.793,0.06,2.14,1.061,2.14c0.593,0,1.127-0.686,1.192-1.447h0.148v1.271c-0.374,0.195-0.917,0.366-1.36,0.366
		c-1.151,0-1.884-0.97-1.884-2.329c0-1.353,0.733-2.323,1.884-2.323c0.442,0,0.865,0.139,1.334,0.366V33.485z"/>
	<path class="st0" d="M162.839,34.739h-0.815l0.402-1.45h0.01L162.839,34.739z M161.038,36.416h1.076v-0.19h-0.498l0.357-1.298
		h0.921l0.357,1.298h-0.508v0.19h1.801v-0.19h-0.417l-1.273-4.307h-0.181l-1.247,4.307h-0.387V36.416z"/>
	<path class="st0" d="M165.33,36.226h0.485V32.11h-0.187c-0.743,0-1.021,0.691-1.031,1.332h-0.148V31.92h3.515v1.522h-0.148
		c-0.01-0.641-0.288-1.332-1.031-1.332h-0.187v4.116h0.485v0.19h-1.753V36.226z"/>
	<path class="st0" d="M168.361,36.226h0.483V32.11h-0.483v-0.19h1.749v0.19h-0.483v4.116h0.483v0.19h-1.749V36.226z"/>
	<path class="st0" d="M171.555,34.165c0-0.787,0.06-2.133,1.001-2.133c0.941,0,1.001,1.347,1.001,2.133
		c0,0.793-0.06,2.14-1.001,2.14C171.615,36.305,171.555,34.958,171.555,34.165z M170.669,34.165c0,1.359,0.735,2.329,1.887,2.329
		c1.152,0,1.887-0.97,1.887-2.329c0-1.353-0.735-2.323-1.887-2.323C171.404,31.842,170.669,32.812,170.669,34.165z"/>
	<path class="st0" d="M174.975,36.226h0.504V32.11h-0.504v-0.19h1.44l1.828,2.968h0.01V32.11h-0.558v-0.19h1.209v0.19h-0.503v4.385
		l-0.118,0.038l-2.647-4.197h-0.01v3.89h0.553v0.19h-1.204V36.226z"/>
	<g>
		<path class="st1" d="M18.227,8.042c2.221,0,4.021-1.8,4.021-4.021C22.248,1.8,20.448,0,18.227,0c-2.221,0-4.021,1.8-4.021,4.021
			C14.206,6.242,16.006,8.042,18.227,8.042z"/>
		<path class="st2" d="M29.919,13.753c0.145-0.183,0.258-0.36,0.326-0.526c0.12-0.293,0.065-0.45,0.012-0.543
			c-0.054-0.097-0.166-0.231-0.501-0.278c-1.73-0.243-5.813,2.058-8.74,4.924l-0.084,0.085c6.067,9.983,3.418,22.656-2.66,22.585
			c-2.942-0.034-4.809-2.491-5.59-5.934c-0.341-1.504-0.469-3.844-0.4-4.958c0.041-0.673,0.171-3.39,1.089-6.531
			C4.354,20.636-2.013,13.903,0.586,9.551C2.089,7.033,5.163,6.65,8.552,7.695c1.48,0.457,3.02,1.185,4.516,2.129l0.183,0.121
			c-0.097,0.02-0.181,0.081-0.242,0.177c-0.042,0.237,0.231,0.291,0.436,0.347c-0.12,0.12-0.308,0.242-0.428,0.362
			c0.006,0.059,0.006,0.059,0.012,0.118c0.079,0.117,0.278,0.113,0.424,0.229c0.115-0.179,0.387-0.125,0.592-0.07
			c0.11-0.11,0.101-0.316,0.241-0.443c0.152,0.11,0.304,0.223,0.458,0.339c-0.036,0.051-0.033,0.101-0.028,0.152
			c0.134,0.107,0.265,0.161,0.441,0.166c0.212,0.166,0.425,0.337,0.637,0.512c-0.143-0.019-0.286-0.045-0.417-0.099
			c-0.079-0.117-0.218-0.173-0.357-0.23c-0.06,0.06-0.06,0.06-0.121,0.12c-0.067,0.001-0.067,0.001-0.133,0.002
			c-0.054,0.119-0.187,0.122-0.32,0.124c-0.121,0.12-0.175,0.24-0.295,0.36c-0.067,0.001-0.067,0.001-0.133,0.002
			c-0.145-0.116-0.357-0.23-0.443-0.406c-0.006-0.059-0.012-0.118,0.048-0.178c-0.272-0.054-0.472-0.051-0.63-0.284
			c-0.127,0.061-0.048,0.178-0.042,0.237c0.224,0.233,0.122,0.53,0.147,0.765c0.237,0.35,0.69,0.224,1.082,0.158
			c0.072,0.058,0.139,0.057,0.206,0.056c0.042-0.237,0.156-0.416,0.495-0.363c0.06-0.06,0.06-0.06,0.12-0.12
			c0.127-0.061,0.206,0.056,0.339,0.053c0.091,0.235-0.089,0.415-0.355,0.42c-0.06,0.06-0.054,0.119-0.048,0.178
			c0.218,0.174,0.243,0.409,0.268,0.645c-0.133,0.002,0.019,0.177-0.114,0.179c0.006,0.059,0.013,0.118,0.019,0.177
			c-0.06,0.06-0.121,0.12-0.181,0.18c-0.133,0.002-0.26,0.064-0.387,0.125c0.006,0.059,0.006,0.059,0.012,0.118
			c0.079,0.117,0.279,0.113,0.357,0.23c-0.06,0.06-0.054,0.119-0.048,0.178c-0.266,0.005-0.513,0.186-0.786,0.132
			c-0.012-0.118-0.091-0.235,0.036-0.296l-0.073-0.058c0.12-0.12-0.031-0.295,0.017-0.473c0.187-0.121,0.168-0.298,0.356-0.42
			c-0.006-0.059-0.006-0.059-0.012-0.118c-0.152-0.175-0.418-0.17-0.684-0.165c-0.247,0.182-0.428,0.362-0.675,0.544
			c0.006,0.059,0.006,0.059,0.012,0.118c0.073,0.058,0.079,0.117,0.212,0.114c0.102-0.297,0.374-0.243,0.646-0.189
			c0.085,0.176-0.102,0.297-0.156,0.416c-0.2,0.004-0.399,0.007-0.519,0.127c-0.067,0.001-0.133,0.002-0.199,0.003
			c-0.127,0.061-0.115,0.179-0.175,0.24c0.012,0.118-0.042,0.237-0.096,0.356c-0.133,0.002-0.206-0.055-0.278-0.113
			c0.029-0.355-0.141-0.707-0.546-0.758c-0.374,0.243,0.062,0.59,0.28,0.763c0.012,0.118,0.029,0.183,0.108,0.3
			c0.073,0.058-0.064,0.113,0.008,0.171c0,0.002,0,0.003,0.001,0.005c-0.332-0.249-0.653-0.478-0.955-0.682l0.016-0.016
			c-0.006-0.059-0.012-0.118-0.079-0.117c0.067-0.001,0.06-0.06,0.054-0.119c-0.085-0.176-0.218-0.173-0.364-0.289
			c-0.26,0.064,0.016,0.405-0.135,0.23c-1.377-0.846-2.667-1.416-3.583-1.549c-0.232-0.034-0.442-0.043-0.621-0.018
			c-0.315,0.044-0.424,0.17-0.479,0.261c-0.057,0.095-0.118,0.258,0.008,0.571c0.651,1.612,4.692,3.978,8.647,5.064l0.115,0.029
			C20.627,8.297,32.98,4.231,35.951,9.503c1.438,2.552,0.232,5.392-2.376,7.79c-1.139,1.048-2.545,2.011-4.116,2.829l-0.043-0.07
			c0.028-0.095,0.124-0.173,0.068-0.272c-0.191-0.148-0.367,0.066-0.513,0.22c-0.05-0.162-0.07-0.384-0.12-0.546
			c-0.055-0.022-0.055-0.022-0.11-0.044c-0.141,0.015-0.231,0.191-0.403,0.265c0.105,0.184-0.071,0.398-0.217,0.553
			c0.046,0.148,0.233,0.237,0.28,0.42c-0.169,0.082-0.341,0.163-0.516,0.243c-0.028-0.055-0.074-0.077-0.121-0.096
			c-0.158,0.068-0.268,0.158-0.355,0.31c-0.247,0.108-0.499,0.215-0.754,0.319c0.085-0.117,0.175-0.23,0.284-0.32
			c0.141-0.014,0.257-0.11,0.372-0.206c-0.025-0.081-0.025-0.081-0.05-0.162c0.03-0.059,0.03-0.059,0.061-0.118
			c-0.08-0.103-0.02-0.221,0.041-0.339c-0.05-0.162-0.13-0.266-0.18-0.428c0.03-0.059,0.03-0.059,0.061-0.118
			c0.171-0.074,0.372-0.206,0.568-0.198c0.055,0.022,0.11,0.044,0.136,0.126c0.176-0.213,0.267-0.39,0.549-0.419
			c0.005-0.14-0.135-0.126-0.191-0.148c-0.312,0.088-0.527-0.141-0.748-0.23c-0.422,0.044-0.524,0.501-0.65,0.876
			c-0.085,0.037-0.116,0.096-0.146,0.155c0.191,0.148,0.296,0.332,0.089,0.605c0.025,0.081,0.025,0.081,0.05,0.162
			c-0.005,0.14-0.146,0.155-0.207,0.273c-0.251-0.03-0.326-0.273-0.205-0.509c-0.025-0.081-0.08-0.103-0.135-0.126
			c-0.256,0.11-0.477,0.022-0.698-0.067c0.061-0.118-0.166-0.067-0.105-0.185c-0.055-0.022-0.11-0.044-0.166-0.067
			c-0.025-0.081-0.05-0.162-0.075-0.244c0.061-0.118,0.066-0.258,0.071-0.398c-0.055-0.022-0.055-0.022-0.11-0.044
			c-0.141,0.015-0.232,0.191-0.372,0.206c-0.025-0.081-0.08-0.103-0.135-0.126c0.121-0.236,0.077-0.538,0.253-0.752
			c0.11,0.044,0.251,0.03,0.246,0.17l0.086-0.037c0.05,0.162,0.276,0.111,0.412,0.236c0.02,0.221,0.185,0.288,0.205,0.509
			c0.055,0.022,0.055,0.022,0.11,0.045c0.226-0.051,0.347-0.287,0.469-0.523c-0.045-0.302-0.12-0.546-0.164-0.848
			c-0.055-0.022-0.055-0.022-0.111-0.044c-0.086,0.037-0.141,0.015-0.201,0.132c0.216,0.229,0.039,0.442-0.137,0.656
			c-0.196-0.008-0.216-0.229-0.296-0.332c0.091-0.177,0.182-0.354,0.132-0.516c0.03-0.059,0.061-0.118,0.091-0.177
			c0.005-0.14-0.105-0.185-0.13-0.266c-0.11-0.044-0.191-0.148-0.271-0.251c0.061-0.118,0.146-0.155,0.232-0.191
			c0.301,0.192,0.693,0.207,0.93-0.124c-0.039-0.442-0.553-0.222-0.809-0.112c-0.111-0.044-0.176-0.06-0.317-0.046
			c-0.085,0.037-0.07-0.11-0.155-0.073c-0.002-0.001-0.003-0.001-0.005-0.002c0.377-0.175,0.732-0.35,1.055-0.519l0.006,0.021
			c0.19-0.089,0.24,0.003,0.27-0.056c-0.03,0.059,0.056,0.091,0.112,0.114c0.196,0.008,0.17-0.051,0.341-0.124
			c0.066-0.258,0.34-0.093,0.053-0.321C28.63,15.095,29.344,14.476,29.919,13.753z M14.581,13.026
			c0.008,0.08,0.008,0.08,0.017,0.161c0.099,0.079,0.099,0.079,0.198,0.157c0.091-0.002,0.091-0.002,0.181-0.003
			c0.173-0.084,0.16-0.405-0.042-0.402c-0.091,0.002-0.099-0.079-0.189-0.077C14.663,12.944,14.663,12.944,14.581,13.026z
			 M13.872,11.425c0.121,0.179,0.335,0.266,0.519,0.081c-0.009-0.091-0.112-0.089-0.121-0.179
			C14.168,11.329,13.955,11.242,13.872,11.425z M12.73,13.79c-0.091-0.235,0.023-0.414-0.002-0.65
			c-0.079-0.117-0.212-0.114-0.332,0.006c-0.06,0.06-0.06,0.06-0.12,0.12c0.025,0.236,0.176,0.41,0.328,0.585
			C12.67,13.85,12.736,13.849,12.73,13.79z M12.423,10.251c0.145,0.116,0.332-0.006,0.453-0.126
			c-0.073-0.058-0.218-0.174-0.291-0.231c-0.067,0.001-0.067,0.001-0.133,0.002C12.332,10.016,12.211,10.136,12.423,10.251z
			 M12.27,11.653c0.008,0.075,0.093,0.074,0.178,0.072c0.316-0.232,0.369-0.535-0.071-0.678
			C12.045,11.129,12.076,11.43,12.27,11.653z M11.824,12.152c-0.067,0.001-0.067,0.001-0.133,0.002
			c-0.187,0.122-0.229,0.359-0.416,0.48c-0.199,0.004-0.253,0.123-0.374,0.243c0.006,0.059,0.012,0.118,0.079,0.117
			c0.345,0.112,0.744,0.105,1.076,0.099c0.38-0.184,0.21-0.535,0.046-0.828C12.03,12.207,11.957,12.149,11.824,12.152z
			 M18.944,23.227l-0.032-0.114c-0.302,0.006-0.601,0.005-0.9,0c-0.804,2.706-0.83,5.033-0.855,5.705
			c-0.046,1.232,0.098,3.007,0.439,3.864c0.086,0.216,0.183,0.402,0.294,0.544c0.195,0.25,0.36,0.28,0.466,0.281
			c0.111,0.001,0.284-0.028,0.493-0.293C19.928,31.845,19.972,27.178,18.944,23.227z M15.868,12.608
			c-0.073-0.058-0.139-0.057-0.206-0.055c-0.06,0.06-0.054,0.119-0.048,0.178c0.067-0.001,0.133-0.002,0.2-0.004
			C15.808,12.668,15.874,12.667,15.868,12.608z M13.722,14.583c-0.337-0.091-0.306,0.199-0.286,0.392
			c0.109-0.002,0.326-0.006,0.425-0.105C13.851,14.774,13.841,14.678,13.722,14.583z M14.849,14.934
			c-0.266,0.005-0.308,0.242-0.501,0.304c-0.042,0.237,0.23,0.291,0.417,0.17C14.912,15.313,15.067,15.107,14.849,14.934z
			 M15.162,15.771c-0.086,0.042-0.123,0.123-0.114,0.203c0.05,0.039,0.058,0.119,0.189,0.077c0.041-0.013,0.045-0.001,0.09-0.001
			C15.405,15.928,15.384,15.727,15.162,15.771z M15.908,15.506c0.127-0.061,0.26-0.064,0.38-0.184
			c-0.079-0.117-0.098-0.294-0.237-0.35c-0.067,0.001-0.067,0.001-0.133,0.002c-0.114,0.179-0.235,0.299-0.15,0.475
			C15.835,15.448,15.902,15.447,15.908,15.506z M15.482,14.627c-0.06,0.06-0.054,0.119-0.048,0.178
			c0.067-0.001,0.133-0.002,0.199-0.004c-0.006-0.059-0.006-0.059-0.012-0.118C15.615,14.625,15.549,14.626,15.482,14.627z
			 M16.14,14.009c0.054-0.119-0.158-0.234-0.17-0.352c-0.199,0.004-0.405-0.052-0.447,0.185c-0.121,0.12-0.036,0.296,0.104,0.353
			C15.832,14.251,16.026,14.188,16.14,14.009z M17.507,13.453c-0.127,0.061-0.114,0.179-0.102,0.297
			c0.073,0.058,0.139,0.057,0.206,0.056c0.266-0.005,0.175-0.24,0.029-0.355C17.574,13.452,17.574,13.452,17.507,13.453z
			 M16.756,13.455c-0.067,0.001-0.133,0.002-0.2,0.004c-0.035,0.296,0.177,0.411,0.388,0.525c0.066-0.001,0.066-0.001,0.133-0.002
			C17.119,13.744,16.907,13.63,16.756,13.455z M13.865,10.549c0.082-0.001,0.095-0.058,0.147-0.082
			c-0.132-0.093-0.262-0.183-0.392-0.274c0.009,0.083,0.009,0.088,0.019,0.176C13.751,10.459,13.751,10.459,13.865,10.549z
			 M16.462,12.542c-0.048,0.178-0.102,0.297-0.156,0.416c0.079,0.117,0.152,0.175,0.291,0.231c0.223-0.004,0.387-0.092,0.503-0.225
			c-0.15-0.137-0.301-0.273-0.453-0.407C16.586,12.559,16.525,12.555,16.462,12.542z M13.764,16.016
			c-0.067,0.001-0.073-0.058-0.079-0.117c-0.067,0.001-0.2,0.004-0.278-0.113c-0.006-0.059-0.012-0.118,0.048-0.178
			c-0.278-0.113-0.231-0.291-0.255-0.527c-0.073-0.058-0.073-0.058-0.145-0.116c-0.066,0.001-0.133,0.002-0.127,0.061
			c0.012,0.118,0.019,0.177,0.031,0.295c-0.075,0.048-0.143,0.099-0.205,0.153c0.265,0.206,0.534,0.424,0.807,0.654
			C13.626,16.095,13.693,16.058,13.764,16.016z M14.837,16.707c-0.006-0.059-0.079-0.117-0.085-0.176
			c-0.006-0.059-0.006-0.059-0.013-0.118c-0.212-0.114-0.557-0.226-0.737-0.046c0.005,0.047,0.012,0.103,0.022,0.161
			c0.114,0.101,0.229,0.203,0.343,0.307C14.546,16.845,14.709,16.79,14.837,16.707z M26.227,19.716
			c-0.084-0.034-0.084-0.034-0.168-0.067c-0.13,0.056-0.13,0.056-0.26,0.112c-0.046,0.09-0.046,0.09-0.092,0.179
			c-0.008,0.213,0.317,0.369,0.42,0.169c0.046-0.09,0.13-0.056,0.176-0.145C26.265,19.839,26.265,19.839,26.227,19.716z
			 M27.923,19.927c-0.216,0.022-0.394,0.169-0.317,0.418c0.085,0.034,0.131-0.056,0.216-0.022
			C27.869,20.232,28.046,20.086,27.923,19.927z M26.363,17.815c0.251,0.03,0.356,0.214,0.577,0.303
			c0.141-0.015,0.201-0.132,0.151-0.295c-0.025-0.081-0.025-0.081-0.05-0.162c-0.221-0.089-0.447-0.037-0.673,0.014
			C26.338,17.734,26.308,17.792,26.363,17.815z M29.647,19.206c-0.171,0.073-0.151,0.295-0.101,0.457
			c0.085-0.037,0.256-0.11,0.342-0.147c0.03-0.059,0.03-0.059,0.061-0.118C29.898,19.235,29.848,19.073,29.647,19.206z
			 M28.475,18.413c-0.071-0.028-0.109,0.047-0.148,0.122c0.057,0.386,0.301,0.575,0.635,0.255
			C29.046,18.461,28.764,18.347,28.475,18.413z M28.242,17.788c0.03-0.059,0.03-0.059,0.061-0.118c-0.02-0.221-0.21-0.369-0.23-0.59
			c0.091-0.177,0.011-0.28-0.039-0.443c-0.055-0.022-0.111-0.044-0.141,0.015c-0.262,0.25-0.443,0.604-0.595,0.899
			c-0.016,0.42,0.376,0.436,0.713,0.429C28.097,17.943,28.182,17.906,28.242,17.788z M25.933,21.125
			c0.085-0.037,0.116-0.096,0.146-0.154c-0.025-0.081-0.08-0.103-0.135-0.126c-0.03,0.059-0.061,0.118-0.091,0.177
			C25.908,21.044,25.878,21.103,25.933,21.125z M24.905,18.355c-0.047-0.153,0.067-0.374,0.124-0.485
			c0.208,0.084,0.52,0.209,0.245,0.5C25.113,18.439,25.009,18.397,24.905,18.355z M24.35,19.139c0.121-0.236-0.07-0.384-0.034-0.582
			c-0.191-0.148-0.367,0.066-0.347,0.287C23.984,19.017,24.093,19.249,24.35,19.139z M23.459,19.021
			c0.004-0.095-0.051-0.165-0.126-0.196c-0.058,0.025-0.133-0.005-0.157,0.13c-0.008,0.043-0.021,0.04-0.041,0.08
			C23.206,19.162,23.394,19.237,23.459,19.021z M23.343,19.801c-0.005,0.14-0.066,0.258-0.016,0.421
			c0.141-0.015,0.306,0.052,0.422-0.044c0.03-0.059,0.03-0.059,0.061-0.118c-0.105-0.184-0.155-0.347-0.351-0.354
			C23.429,19.764,23.398,19.823,23.343,19.801z M24.323,19.839c-0.025-0.081-0.08-0.103-0.135-0.126
			c-0.03,0.059-0.061,0.118-0.091,0.177c0.055,0.022,0.055,0.022,0.111,0.044C24.263,19.957,24.293,19.898,24.323,19.839z
			 M24.562,20.707c0.08,0.103,0.282-0.029,0.392,0.015c0.091-0.177,0.237-0.331,0.046-0.479c-0.05-0.162-0.246-0.17-0.362-0.074
			C24.492,20.323,24.457,20.522,24.562,20.707z M24.411,22.168c0.005-0.14-0.105-0.184-0.216-0.229
			c-0.085,0.037-0.116,0.096-0.146,0.155c-0.121,0.236,0.13,0.266,0.301,0.192C24.381,22.227,24.381,22.227,24.411,22.168z
			 M24.763,21.507c0.03-0.059,0.061-0.118,0.091-0.177c-0.246-0.17-0.447-0.037-0.649,0.095c-0.03,0.059-0.03,0.059-0.06,0.118
			C24.335,21.691,24.537,21.558,24.763,21.507z M29.066,20.188c0.083,0.033,0.087,0.035,0.165,0.066
			c-0.141,0.072-0.282,0.144-0.427,0.216c0.003-0.058-0.041-0.096-0.004-0.168C28.933,20.246,28.933,20.246,29.066,20.188z
			 M25.711,21.677c-0.135-0.126-0.216-0.229-0.296-0.332c-0.141,0.015-0.226,0.051-0.342,0.147c-0.101,0.197-0.1,0.383-0.037,0.547
			c0.193-0.067,0.384-0.137,0.575-0.207C25.639,21.779,25.671,21.727,25.711,21.677z M23.901,17.678
			c0.03-0.059,0.085-0.037,0.141-0.014c0.03-0.059,0.091-0.177,0.232-0.192c0.055,0.022,0.11,0.044,0.135,0.126
			c0.232-0.191,0.367-0.066,0.588,0.023c0.085-0.037,0.085-0.037,0.171-0.074c0.03-0.059,0.06-0.118,0.005-0.14
			c-0.11-0.044-0.166-0.067-0.276-0.111c-0.008-0.088-0.021-0.172-0.039-0.252c-0.308,0.136-0.628,0.27-0.96,0.402
			C23.896,17.521,23.897,17.597,23.901,17.678z M22.783,18.297c0.055,0.022,0.141-0.014,0.196,0.008
			c0.055,0.022,0.055,0.022,0.111,0.044c0.201-0.132,0.463-0.383,0.388-0.626c-0.044-0.018-0.097-0.038-0.153-0.056
			c-0.143,0.053-0.288,0.106-0.434,0.157C22.797,17.977,22.769,18.145,22.783,18.297z"/>
	</g>
	<g>
		<g>
			<g>
				<path class="st0" d="M105.151,16.403h2.835v2.359h2.389V9.417h-3.491v0.482h0.399c0.368,0,0.67,0.282,0.702,0.641v1.322h-2.835
					v-1.838h-3.29v0.482h0.189c0.39,0,0.706,0.316,0.706,0.706l0.006-0.018v1.48h-3.63v-2.649h-3.253v0.482h0.151
					c0.39,0,0.706,0.316,0.706,0.706l0.002-0.007v5.181c0,1.025,0.826,1.855,1.851,1.855h6.562V16.403z M105.151,13.356h2.835v1.554
					h-2.835V13.356z M102.762,16.749h-3.63v-2.582h3.63V16.749z"/>
				<path class="st0" d="M143.841,23.766V10.581h-12.012v1.493h9.623v11.692h-1.903v-6.668h-3.279v0.481h0.188
					c0.367,0,0.668,0.28,0.702,0.638v5.549h-1.653v-6.668h-3.26v0.481h0.162c0.39,0,0.706,0.316,0.706,0.706l0.004-0.011v5.492
					h-2.779v1.493h15.57v-1.493H143.841z"/>
				<path class="st0" d="M55.322,9.899h0.452c0.377,0.014,0.679,0.324,0.679,0.704l0.001-0.002v3.915H53.19v1.411h3.264V27.15h2.389
					V9.417h-3.52V9.899z"/>
				<path class="st0" d="M124.152,9.417v0.482h0.425c0.39,0,0.706,0.316,0.706,0.706l0-0.001V27.15h2.389V9.417H124.152z"/>
				<path class="st0" d="M147.09,17.621v1.493h4.197v2.191h-2.343v1.494h9.425v4.332h2.389v-5.826h-2.296v-2.191h4.198v-1.493
					H147.09z M156.073,21.305h-2.397v-2.191h2.397V21.305z"/>
				<path class="st0" d="M154.883,16.887c2.574,0,4.668-1.77,4.668-3.946c0-2.176-2.094-3.946-4.668-3.946s-4.668,1.77-4.668,3.946
					C150.215,15.116,152.309,16.887,154.883,16.887z M154.883,10.432c1.272,0,2.306,1.125,2.306,2.508
					c0,1.383-1.034,2.509-2.306,2.509c-1.272,0-2.306-1.125-2.306-2.509C152.577,11.557,153.611,10.432,154.883,10.432z"/>
				<polygon class="st0" points="80.778,22.613 89.922,22.613 89.922,26.981 92.311,26.981 92.311,21.12 80.778,21.12 				"/>
				<rect x="78.834" y="18.272" class="st0" width="15.568" height="1.493"/>
				<path class="st0" d="M69.131,16.806c2.534,0,4.595-1.735,4.595-3.868c0-2.133-2.061-3.868-4.595-3.868
					c-2.534,0-4.595,1.735-4.595,3.868C64.535,15.071,66.597,16.806,69.131,16.806z M69.131,10.344c1.228,0,2.227,1.164,2.227,2.594
					c0,1.43-0.999,2.594-2.227,2.594c-1.228,0-2.227-1.164-2.227-2.594C66.903,11.507,67.903,10.344,69.131,10.344z"/>
				<path class="st0" d="M61.314,19.132h6.591v1.246h-4.632v1.493h8.961v1.123h-9.201v0.482h0.064c0.39,0,0.706,0.316,0.706,0.706
					l0.002-0.007v1.083c0,1.025,0.84,1.864,1.865,1.864h9.097v-1.485h-8.582v-1.14h8.437v-4.119h-4.329v-1.246h6.591v-1.534h-15.57
					V19.132z"/>
				<path class="st0" d="M102.268,23.929h8.108v-4.366h-11.02v1.493h8.632v1.37h-8.871v0.482h0.071c0.364,0,0.663,0.276,0.701,0.629
					v1.4c0,1.025,0.84,1.864,1.865,1.864h8.768v-1.484h-8.253V23.929z"/>
				<path class="st0" d="M80.677,10.94L80.677,10.94v4.123c0,1.025,0.821,1.855,1.846,1.855h10.173v-1.381h-9.62v-1.512h9.328
					v-1.381h-9.328v-1.512h9.62V9.753H79.822v0.482h0.149C80.361,10.235,80.677,10.551,80.677,10.94z"/>
			</g>
			<path class="st0" d="M50.582,10.025v3.507c0,3.906,2.112,6.069,4.438,6.908l-0.877,1.091c-1.91-0.518-3.936-1.853-4.812-3.506
				c-0.876,1.653-2.901,2.989-4.812,3.506l-0.877-1.091c2.325-0.839,4.438-3.001,4.438-6.908v-2.32l0,0.001
				c0-0.39-0.316-0.706-0.706-0.706h-0.219v-0.482H50.582z"/>
			<path class="st0" d="M119.4,10.025v3.507c0,3.906,2.112,6.069,4.438,6.908l-0.877,1.091c-1.911-0.518-3.936-1.853-4.812-3.506
				c-0.876,1.653-2.901,2.989-4.812,3.506l-0.877-1.091c2.325-0.839,4.438-3.001,4.438-6.908v-2.32l0,0.001
				c0-0.39-0.316-0.706-0.706-0.706h-0.219v-0.482H119.4z"/>
		</g>
		<path class="st0" d="M175.244,9.417v0.482h0.425c0.39,0,0.706,0.316,0.706,0.706l0-0.002v3.128h-3.082v1.493h3.082v3.864h2.389
			v-9.67H175.244z"/>
		<path class="st0" d="M173.629,19.389c-2.673,0-4.847,1.822-4.847,4.061c0,2.24,2.174,4.061,4.847,4.061
			c2.673,0,4.847-1.822,4.847-4.061C178.476,21.211,176.302,19.389,173.629,19.389z M173.629,26.146
			c-1.346,0-2.442-1.209-2.442-2.695c0-1.486,1.095-2.695,2.442-2.695c1.346,0,2.442,1.209,2.442,2.695
			C176.071,24.937,174.975,26.146,173.629,26.146z"/>
		<g>
			<path class="st0" d="M174.581,17.252c-0.233-0.035-4.006-0.977-4.122-4.559h3.554V11.2h-3.598V9.271h-3.253v0.482h0.162
				c0.367,0,0.669,0.28,0.702,0.639V11.2h-3.598v1.493h3.549c-0.114,3.543-3.801,4.502-4.105,4.557l0.947,1.178
				c1.43-0.268,3.037-0.951,4.401-2.649c1.37,1.706,2.986,2.387,4.422,2.653L174.581,17.252z"/>
		</g>
	</g>
</g>
</svg>
