<?xml version="1.0" encoding="utf-8"?>
<!-- Generator: Adobe Illustrator 27.0.0, SVG Export Plug-In . SVG Version: 6.00 Build 0)  -->
<svg version="1.1" id="_레이어_1" xmlns="http://www.w3.org/2000/svg" xmlns:xlink="http://www.w3.org/1999/xlink" x="0px"
	 y="0px" width="120px" height="40px" viewBox="0 0 120 40" style="enable-background:new 0 0 120 40;" xml:space="preserve">
<style type="text/css">
	.st0{fill:#31B1E5;}
	.st1{fill:#1A2E4C;}
</style>
<g>
	<path class="st0" d="M25.412,9.49c-0.506-0.464-1.108-0.833-1.79-1.094C22.937,8.133,22.188,8,21.394,8H0l3.67,4.889h17.233
		c0.238,0,0.433,0.069,0.596,0.21c0.165,0.145,0.244,0.317,0.244,0.526v12.882c0,0.212-0.079,0.386-0.242,0.53
		c-0.166,0.146-0.355,0.213-0.597,0.213H9.673V17.093H4.386V32h17.009c0.794,0,1.543-0.134,2.229-0.396
		c0.682-0.261,1.283-0.629,1.79-1.094c0.502-0.463,0.902-1.018,1.187-1.649c0.286-0.63,0.43-1.321,0.43-2.054V13.194
		c0-0.734-0.144-1.425-0.43-2.054C26.315,10.51,25.915,9.955,25.412,9.49L25.412,9.49z"/>
	<g>
		<path class="st1" d="M54.269,26.966l-0.286,1.012l-0.298-1.01c-0.126-0.427-4.898-16.757-5.507-18.859H40.86v23.783h4.725
			l-0.072-18.091l5.399,18.091h6.128l5.394-18.094l-0.072,18.094h4.725V8.11h-7.31C59.166,10.209,54.394,26.533,54.269,26.966z"/>
		<path class="st1" d="M109.698,8.106h-5.017L94.85,31.893h5.089c0.746-1.923,7.334-18.456,7.334-18.456l4.086,10.617h-4.324
			l-1.541,3.963h7.406l1.505,3.876h5.125L109.698,8.106L109.698,8.106z"/>
		<path class="st1" d="M92.882,10.278c-0.203-0.421-0.484-0.8-0.83-1.126c-0.341-0.317-0.746-0.574-1.213-0.762
			C90.367,8.206,89.86,8.11,89.334,8.11h-14.4c-0.531,0-1.039,0.095-1.505,0.281c-0.466,0.188-0.872,0.445-1.218,0.762
			c-0.346,0.329-0.621,0.708-0.824,1.126c-0.209,0.427-0.317,0.905-0.317,1.425v16.598c0,0.517,0.107,0.994,0.317,1.422
			c0.203,0.424,0.484,0.803,0.83,1.129c0.341,0.317,0.746,0.574,1.213,0.762c0.466,0.185,0.974,0.281,1.505,0.281h14.4
			c0.526,0,1.034-0.095,1.505-0.281c0.466-0.188,0.872-0.445,1.213-0.762c0.346-0.322,0.627-0.702,0.83-1.126
			c0.209-0.43,0.317-0.908,0.317-1.425V11.702c0-0.517-0.107-0.994-0.317-1.422L92.882,10.278L92.882,10.278z M88.438,27.975H75.83
			v-15.95h12.609V27.975z"/>
	</g>
	<g>
		<ellipse class="st0" cx="34.07" cy="15.202" rx="2.375" ry="2.23"/>
		<path class="st0" d="M34.07,22.569c-1.31,0-2.375,1-2.375,2.23s1.065,2.23,2.375,2.23s2.375-1,2.375-2.23
			S35.379,22.569,34.07,22.569z"/>
	</g>
</g>
</svg>
