<?xml version="1.0" encoding="utf-8"?>
<!-- Generator: Adobe Illustrator 27.0.0, SVG Export Plug-In . SVG Version: 6.00 Build 0)  -->
<svg version="1.1" id="_레이어_1" xmlns="http://www.w3.org/2000/svg" xmlns:xlink="http://www.w3.org/1999/xlink" x="0px"
	 y="0px" width="73px" height="40px" viewBox="0 0 73 40" style="enable-background:new 0 0 73 40;" xml:space="preserve">
<style type="text/css">
	.st0{fill:#31BCEE;}
	.st1{fill:#0C7EC1;}
</style>
<g>
	<rect y="6.381" class="st0" width="5.234" height="5.234"/>
	<path class="st1" d="M5.098,33.618v-18.83h-4.96v18.829L5.098,33.618L5.098,33.618z M37.978,33.808v-4.616
		c-0.731-0.004-1.334-0.043-1.795-0.115c-0.512-0.08-0.904-0.255-1.165-0.516c-0.262-0.261-0.435-0.64-0.516-1.125
		c-0.077-0.464-0.116-1.076-0.116-1.818V19.03h3.592v-4.242h-3.592V7.452h-4.96v18.203c0,1.536,0.134,2.842,0.397,3.882
		c0.261,1.029,0.705,1.869,1.321,2.498c0.616,0.629,1.431,1.086,2.422,1.359c1,0.276,2.273,0.416,3.784,0.416L37.978,33.808
		L37.978,33.808z M66.408,33.618V6h-4.96v27.618H66.408z M24.643,16.642c-1.374-1.484-3.315-2.236-5.77-2.236
		c-1.184,0-2.278,0.244-3.254,0.724c-0.976,0.481-1.805,1.157-2.465,2.009l-0.27,0.348l-0.002-0.313v-2.387H7.99v18.829h4.93V23.585
		l0.004,0.696c0-0.115,0.002-0.227,0.005-0.339c0.051-1.76,0.49-3.072,1.308-3.905c0.872-0.888,1.931-1.339,3.148-1.339
		c1.431,0,2.523,0.438,3.247,1.303c0.709,0.848,1.071,2.062,1.078,3.609l0,0v0.038c0,0.003,0,0.006,0,0.009l0,0v9.959h5.007v-10.69
		C26.718,20.244,26.02,18.129,24.643,16.642L24.643,16.642z M58.862,24.164c0-1.349-0.241-2.63-0.716-3.807
		c-0.475-1.175-1.147-2.221-1.997-3.109c-0.849-0.886-1.881-1.589-3.069-2.089c-1.187-0.5-2.513-0.753-3.939-0.753
		c-1.349,0-2.636,0.26-3.824,0.772c-1.189,0.513-2.235,1.217-3.11,2.092c-0.876,0.876-1.579,1.921-2.092,3.11
		c-0.512,1.186-0.772,2.473-0.772,3.824c0,1.351,0.248,2.639,0.734,3.826c0.488,1.188,1.172,2.234,2.034,3.108
		c0.862,0.875,1.921,1.578,3.146,2.09C46.485,33.74,47.843,34,49.294,34c4.196,0,6.814-1.909,8.377-3.695l-3.57-2.719
		c-0.752,0.893-2.538,2.104-4.769,2.104c-1.399,0-2.551-0.324-3.424-0.962c-0.874-0.639-1.476-1.518-1.789-2.614l-0.05-0.175h14.793
		L58.862,24.164L58.862,24.164z M44.11,22.437c-0.002-1.378,1.582-3.785,4.993-3.789c3.412,0,4.998,2.404,4.998,3.783L44.11,22.437
		L44.11,22.437z"/>
	<path class="st1" d="M72.057,31.245c-0.097-0.222-0.228-0.416-0.395-0.583c-0.166-0.166-0.36-0.297-0.583-0.395
		c-0.222-0.097-0.46-0.145-0.713-0.145c-0.253,0-0.491,0.048-0.713,0.145c-0.222,0.097-0.416,0.229-0.583,0.395
		c-0.166,0.166-0.298,0.36-0.395,0.583s-0.145,0.46-0.145,0.713c0,0.253,0.048,0.491,0.145,0.713s0.228,0.416,0.395,0.583
		c0.166,0.166,0.36,0.298,0.583,0.395c0.222,0.096,0.46,0.145,0.713,0.145c0.253,0,0.491-0.049,0.713-0.145
		c0.222-0.097,0.416-0.228,0.583-0.395c0.166-0.166,0.297-0.36,0.395-0.583s0.145-0.46,0.145-0.713
		C72.203,31.705,72.154,31.467,72.057,31.245z M71.759,32.546c-0.079,0.185-0.187,0.345-0.324,0.481
		c-0.136,0.136-0.297,0.244-0.481,0.324c-0.185,0.079-0.38,0.118-0.588,0.118s-0.403-0.039-0.587-0.118
		c-0.185-0.079-0.345-0.186-0.481-0.324c-0.136-0.136-0.244-0.297-0.324-0.481c-0.079-0.185-0.118-0.38-0.118-0.588
		s0.039-0.403,0.118-0.587c0.079-0.185,0.186-0.345,0.324-0.481c0.136-0.136,0.297-0.244,0.481-0.324
		c0.185-0.079,0.38-0.118,0.587-0.118s0.403,0.039,0.588,0.118c0.185,0.079,0.345,0.187,0.481,0.324s0.244,0.297,0.324,0.481
		c0.079,0.185,0.118,0.38,0.118,0.587S71.838,32.361,71.759,32.546z M70.713,32.107c0.144-0.017,0.262-0.071,0.357-0.163
		c0.094-0.092,0.142-0.23,0.142-0.415c0-0.204-0.06-0.36-0.18-0.469c-0.121-0.108-0.307-0.163-0.561-0.163h-0.809v2.098h0.385
		v-0.859h0.282l0.523,0.859h0.405C71.256,32.996,70.713,32.107,70.713,32.107z M70.505,31.803c-0.059,0.005-0.118,0.007-0.178,0.007
		h-0.282v-0.587h0.282c0.06,0,0.118,0.002,0.178,0.005c0.06,0.004,0.113,0.015,0.16,0.035c0.047,0.019,0.087,0.049,0.116,0.088
		c0.03,0.039,0.045,0.094,0.045,0.163c0,0.069-0.015,0.123-0.045,0.163c-0.03,0.039-0.068,0.069-0.116,0.089
		C70.617,31.786,70.564,31.799,70.505,31.803z"/>
</g>
</svg>
