<?xml version="1.0" encoding="utf-8"?>
<!-- Generator: Adobe Illustrator 27.0.0, SVG Export Plug-In . SVG Version: 6.00 Build 0)  -->
<svg version="1.1" id="레이어_1" xmlns="http://www.w3.org/2000/svg" xmlns:xlink="http://www.w3.org/1999/xlink" x="0px"
	 y="0px" width="144px" height="40px" viewBox="0 0 144 40" style="enable-background:new 0 0 144 40;" xml:space="preserve">
<style type="text/css">
	.st0{fill:#FFFFFF;}
</style>
<g>
	<g id="_레이어_1">
		<g>
			<g>
				<g>
					<path class="st0" d="M2.38,7.261c0-3.146,0-3.717-0.048-4.359C2.284,2.211,2.167,1.877,1.474,1.781
						C1.309,1.758,0.952,1.733,0.762,1.733c-0.073,0-0.169-0.096-0.169-0.167c0-0.119,0.096-0.167,0.334-0.167
						c0.955,0,2.312,0.048,2.431,0.048c0.238,0,1.572-0.048,2.811-0.048c2.097,0,5.933-0.189,8.41,2.312
						c1.048,1.047,2.051,2.74,2.051,5.147c0,2.548-1.097,4.503-2.264,5.693c-0.906,0.929-2.788,2.336-6.363,2.336
						c-0.904,0-2.023-0.071-2.93-0.119c-0.904-0.071-1.621-0.119-1.714-0.119c-0.048,0-0.43,0.023-0.858,0.023
						c-0.43,0.025-0.929,0.048-1.264,0.048c-0.213,0-0.332-0.048-0.332-0.166c0-0.071,0.048-0.167,0.167-0.167
						c0.19,0,0.451-0.048,0.643-0.096c0.405-0.094,0.453-0.475,0.547-1.071c0.119-0.836,0.119-2.431,0.119-4.383V7.263L2.38,7.261z
						 M4.287,9.453c0,2.145,0,4.026,0.023,4.408c0.025,0.5,0.071,1.238,0.238,1.452c0.261,0.381,1,0.811,3.479,0.811
						c1.93,0,3.644-0.644,4.91-1.835c1.094-1.024,1.641-2.954,1.641-4.814c0-2.573-1.119-4.217-1.978-5.074
						c-1.978-2.003-4.287-2.265-6.789-2.265c-0.405,0-1.071,0.073-1.264,0.144c-0.19,0.071-0.261,0.166-0.261,0.404v6.767
						L4.287,9.453z"/>
					<path class="st0" d="M24.155,1.805c0.263-0.666,0.357-0.787,0.501-0.787c0.213,0,0.286,0.286,0.499,0.741
						c0.382,0.856,3.742,9.218,5.029,12.292c0.762,1.813,1.334,2.074,1.785,2.217c0.311,0.096,0.62,0.119,0.836,0.119
						c0.119,0,0.261,0.048,0.261,0.167c0,0.118-0.238,0.166-0.476,0.166c-0.309,0-1.859,0-3.312-0.048
						c-0.405-0.023-0.737-0.023-0.737-0.141c0-0.096,0.048-0.096,0.14-0.144c0.121-0.048,0.336-0.215,0.192-0.548l-1.881-4.647
						c-0.048-0.094-0.073-0.119-0.192-0.119h-4.834c-0.094,0-0.165,0.048-0.215,0.167l-1.193,3.24c-0.19,0.5-0.309,1-0.309,1.359
						c0,0.404,0.357,0.548,0.716,0.548h0.19c0.167,0,0.213,0.071,0.213,0.167c0,0.118-0.119,0.166-0.309,0.166
						c-0.501,0-1.644-0.071-1.882-0.071c-0.215,0-1.264,0.071-2.12,0.071c-0.263,0-0.405-0.048-0.405-0.166
						c0-0.096,0.094-0.167,0.19-0.167c0.144,0,0.453-0.023,0.618-0.048c0.954-0.119,1.36-0.833,1.763-1.859L24.155,1.805z
						 M26.49,10.239c0.096,0,0.096-0.048,0.073-0.144l-2.074-5.551c-0.119-0.309-0.238-0.309-0.357,0l-1.955,5.551
						c-0.023,0.096,0,0.144,0.073,0.144H26.49L26.49,10.239z"/>
					<path class="st0" d="M38.402,10.835c0,1.953,0,3.548,0.096,4.383c0.073,0.596,0.167,0.977,0.81,1.071
						c0.286,0.048,0.762,0.096,0.952,0.096c0.144,0,0.169,0.096,0.169,0.167c0,0.095-0.096,0.166-0.336,0.166
						c-1.14,0-2.475-0.071-2.596-0.071c-0.096,0-1.55,0.071-2.17,0.071c-0.238,0-0.332-0.048-0.332-0.166
						c0-0.071,0.048-0.142,0.167-0.142c0.19,0,0.428-0.048,0.62-0.096c0.428-0.096,0.547-0.5,0.618-1.097
						c0.096-0.836,0.096-2.431,0.096-4.383V2.328L33.47,2.376c-1.312,0.023-1.811,0.167-2.12,0.642
						c-0.24,0.358-0.263,0.502-0.334,0.644c-0.048,0.166-0.119,0.191-0.215,0.191c-0.048,0-0.144-0.048-0.144-0.166
						c0-0.215,0.405-2.026,0.453-2.193c0.025-0.119,0.144-0.381,0.217-0.381c0.142,0,0.355,0.167,0.927,0.238
						c0.595,0.072,1.405,0.095,1.643,0.095h7.911c0.691,0,1.167-0.048,1.502-0.095c0.309-0.048,0.499-0.094,0.595-0.094
						c0.094,0,0.094,0.118,0.094,0.237c0,0.619-0.071,2.072-0.071,2.311c0,0.167-0.094,0.263-0.19,0.263
						c-0.094,0-0.142-0.073-0.167-0.358l-0.023-0.215c-0.071-0.619-0.526-1.071-2.527-1.119L38.4,2.328v8.507H38.402z"/>
					<path class="st0" d="M50.101,1.805c0.263-0.666,0.357-0.787,0.499-0.787c0.215,0,0.286,0.286,0.501,0.741
						c0.382,0.856,3.74,9.218,5.029,12.292c0.76,1.813,1.332,2.074,1.785,2.217c0.309,0.096,0.618,0.119,0.833,0.119
						c0.121,0,0.263,0.048,0.263,0.167c0,0.118-0.238,0.166-0.478,0.166c-0.309,0-1.856,0-3.31-0.048
						c-0.405-0.023-0.742-0.023-0.742-0.141c0-0.096,0.05-0.096,0.144-0.144c0.121-0.048,0.334-0.215,0.192-0.548l-1.884-4.647
						c-0.046-0.094-0.071-0.119-0.19-0.119h-4.837c-0.096,0-0.167,0.048-0.213,0.167L46.5,14.48c-0.19,0.5-0.309,1-0.309,1.359
						c0,0.404,0.357,0.548,0.714,0.548h0.19c0.167,0,0.215,0.071,0.215,0.167c0,0.118-0.119,0.166-0.309,0.166
						c-0.501,0-1.646-0.071-1.884-0.071c-0.213,0-1.261,0.071-2.12,0.071c-0.261,0-0.405-0.048-0.405-0.166
						c0-0.096,0.096-0.167,0.19-0.167c0.144,0,0.453-0.023,0.62-0.048c0.952-0.119,1.36-0.833,1.763-1.859L50.101,1.805z
						 M52.436,10.239c0.096,0,0.096-0.048,0.071-0.144l-2.072-5.551c-0.119-0.309-0.238-0.309-0.359,0l-1.953,5.551
						c-0.023,0.096,0,0.144,0.071,0.144H52.436z"/>
				</g>
				<g>
					<g>
						<path class="st0" d="M65.483,21.208c2.344-0.021,4.69-0.046,7.043-0.122c2.699-0.109,5.448-0.348,8.062-1.259
							c1.3-0.459,2.559-1.099,3.653-1.973c0.547-0.438,1.051-0.924,1.506-1.47c0.437-0.521,0.858-1.098,1.206-1.702
							c0.703-1.209,1.202-2.561,1.339-3.986c0.142-1.419-0.124-2.927-0.881-4.184c-0.371-0.632-0.854-1.19-1.385-1.684
							c-0.261-0.238-0.568-0.482-0.84-0.682c-0.325-0.221-0.611-0.398-0.941-0.573c-0.643-0.343-1.346-0.6-2.081-0.75
							c-0.737-0.148-1.504-0.163-2.243-0.054c-1.492,0.222-2.841,0.887-4.008,1.692c-1.167,0.825-2.186,1.798-3.092,2.849
							c-3.502,4.024-5.702,8.725-7.748,13.474l-0.176,0.419l0.586,0.006 M65.483,21.209l21.895-10.594
							c-0.098,1.268-0.524,2.517-1.158,3.649c-0.316,0.569-0.682,1.094-1.101,1.615c-0.401,0.496-0.865,0.963-1.364,1.373
							c-1,0.831-2.17,1.453-3.404,1.915c-2.481,0.917-5.178,1.206-7.851,1.361c-2.266,0.115-4.541,0.179-6.817,0.239
							c0.971-2.148,2.026-4.258,3.26-6.247c0.705-1.139,1.458-2.239,2.28-3.282c0.81-1.099,1.632-2.107,2.555-3.055
							c0.916-0.937,1.888-1.811,2.962-2.496c1.058-0.7,2.22-1.205,3.408-1.373c1.183-0.169,2.399-0.053,3.557,0.421
							c1.145,0.433,2.218,1.242,2.861,2.29c0.659,1.05,0.918,2.327,0.813,3.59L65.483,21.209z"/>
						<path class="st0" d="M65.085,20.753c-2.342,0.135-4.683,0.274-7.027,0.465c-2.692,0.241-5.425,0.612-7.993,1.65
							c-1.277,0.521-2.502,1.221-3.553,2.148c-0.524,0.465-1.003,0.974-1.433,1.543c-0.41,0.541-0.801,1.14-1.122,1.758
							c-0.641,1.242-1.074,2.617-1.142,4.049c-0.071,1.421,0.266,2.915,1.087,4.134c0.398,0.612,0.909,1.148,1.465,1.615
							c0.27,0.225,0.588,0.452,0.872,0.64c0.332,0.205,0.629,0.367,0.966,0.525c0.657,0.312,1.373,0.536,2.115,0.65
							c0.742,0.111,1.508,0.089,2.243-0.058c1.479-0.295,2.793-1.023,3.923-1.884c1.124-0.884,2.094-1.904,2.946-2.999
							c3.301-4.187,5.269-8.991,7.082-13.834l0.158-0.428L65.085,20.753 M65.084,20.752L43.732,32.399
							c0.037-1.269,0.405-2.539,0.98-3.699c0.291-0.582,0.629-1.127,1.023-1.666c0.375-0.515,0.815-1.005,1.293-1.44
							c0.959-0.88,2.097-1.559,3.305-2.079c2.436-1.035,5.114-1.458,7.778-1.74c2.257-0.227,4.525-0.404,6.796-0.575
							c-0.865,2.196-1.815,4.353-2.953,6.401c-0.646,1.169-1.346,2.306-2.115,3.385c-0.755,1.139-1.527,2.186-2.403,3.176
							c-0.868,0.982-1.795,1.902-2.836,2.64c-1.023,0.75-2.159,1.31-3.337,1.536c-1.174,0.227-2.392,0.168-3.573-0.246
							c-1.165-0.375-2.275-1.132-2.971-2.146c-0.71-1.018-1.028-2.28-0.987-3.549L65.084,20.752z"/>
					</g>
					<g>
						<path class="st0" d="M64.799,18.511c2.344-0.021,4.692-0.046,7.043-0.122c2.699-0.111,5.446-0.348,8.062-1.259
							c1.3-0.459,2.559-1.099,3.653-1.973c0.547-0.438,1.051-0.924,1.506-1.47c0.437-0.523,0.856-1.1,1.206-1.702
							c0.703-1.211,1.2-2.561,1.337-3.989c0.142-1.417-0.121-2.924-0.884-4.182c-0.369-0.632-0.849-1.193-1.383-1.684
							c-0.261-0.238-0.568-0.482-0.84-0.682c-0.323-0.223-0.611-0.398-0.939-0.573c-0.643-0.343-1.348-0.6-2.081-0.752
							c-0.735-0.145-1.502-0.16-2.246-0.052c-1.49,0.224-2.838,0.885-4.008,1.692c-1.167,0.825-2.186,1.798-3.093,2.849
							c-3.5,4.022-5.702,8.725-7.748,13.474l-0.176,0.419l0.588,0.006 M64.796,18.511L86.691,7.917
							c-0.098,1.268-0.526,2.517-1.158,3.646c-0.318,0.571-0.684,1.096-1.103,1.617c-0.401,0.496-0.865,0.962-1.362,1.373
							c-1.003,0.831-2.172,1.454-3.406,1.915c-2.481,0.914-5.175,1.206-7.849,1.359c-2.268,0.117-4.541,0.181-6.817,0.242
							c0.971-2.151,2.026-4.258,3.26-6.249c0.703-1.135,1.458-2.236,2.278-3.28c0.813-1.1,1.634-2.107,2.555-3.055
							c0.918-0.937,1.891-1.811,2.964-2.496c1.058-0.7,2.22-1.205,3.408-1.373c1.181-0.169,2.399-0.053,3.557,0.419
							c1.145,0.435,2.218,1.242,2.861,2.29c0.657,1.052,0.916,2.329,0.813,3.593L64.796,18.511z"/>
						<path class="st0" d="M64.401,18.057c-2.342,0.134-4.686,0.271-7.03,0.465c-2.69,0.24-5.423,0.612-7.991,1.65
							c-1.275,0.521-2.502,1.219-3.55,2.148c-0.529,0.465-1.005,0.974-1.435,1.541c-0.412,0.544-0.801,1.142-1.122,1.76
							c-0.643,1.242-1.074,2.617-1.142,4.047c-0.071,1.424,0.266,2.915,1.085,4.136c0.403,0.612,0.909,1.148,1.465,1.615
							c0.272,0.225,0.588,0.452,0.874,0.637c0.332,0.207,0.629,0.37,0.964,0.528c0.659,0.312,1.376,0.533,2.115,0.65
							c0.742,0.111,1.511,0.088,2.246-0.058c1.476-0.295,2.79-1.025,3.921-1.886c1.124-0.881,2.097-1.902,2.948-2.994
							c3.301-4.19,5.269-8.994,7.082-13.836l0.156-0.428L64.401,18.057 M64.401,18.057L43.047,29.704
							c0.037-1.271,0.405-2.539,0.98-3.699c0.291-0.583,0.629-1.13,1.023-1.666c0.375-0.515,0.817-1.005,1.295-1.44
							c0.957-0.88,2.094-1.559,3.305-2.079c2.438-1.035,5.111-1.458,7.776-1.742c2.259-0.224,4.525-0.402,6.796-0.572
							c-0.863,2.194-1.815,4.35-2.953,6.401c-0.643,1.169-1.346,2.305-2.113,3.385c-0.76,1.139-1.529,2.186-2.403,3.176
							c-0.87,0.982-1.797,1.903-2.834,2.638c-1.028,0.752-2.161,1.313-3.342,1.538c-1.172,0.227-2.394,0.168-3.571-0.246
							c-1.165-0.378-2.278-1.133-2.971-2.148c-0.71-1.015-1.03-2.278-0.989-3.547L64.401,18.057z"/>
					</g>
					<g>
						<path class="st0" d="M65.756,23.796c1.889,0.144,3.784,0.284,5.681,0.38c2.181,0.095,4.413,0.087,6.583-0.471
							c1.078-0.282,2.133-0.711,3.074-1.341c0.472-0.315,0.909-0.672,1.314-1.082c0.385-0.393,0.762-0.828,1.085-1.29
							c0.648-0.927,1.14-1.982,1.348-3.123c0.211-1.132,0.098-2.363-0.428-3.429c-0.256-0.533-0.607-1.016-1.003-1.45
							c-0.195-0.211-0.423-0.425-0.629-0.607c-0.245-0.199-0.467-0.361-0.719-0.524c-0.494-0.319-1.044-0.576-1.625-0.746
							c-0.584-0.167-1.2-0.231-1.804-0.195c-1.218,0.08-2.349,0.523-3.344,1.094c-0.996,0.584-1.884,1.3-2.685,2.086
							c-3.09,3.003-5.18,6.645-7.151,10.331l-0.172,0.325l0.474,0.041 M65.755,23.795l18.353-7.054
							c-0.163,1.015-0.593,1.993-1.179,2.861c-0.295,0.437-0.625,0.836-0.996,1.226c-0.357,0.374-0.764,0.719-1.19,1.016
							c-0.865,0.601-1.847,1.023-2.873,1.313c-2.062,0.569-4.253,0.621-6.418,0.565c-1.834-0.061-3.669-0.161-5.507-0.267
							c0.927-1.665,1.921-3.293,3.049-4.814c0.643-0.869,1.323-1.705,2.058-2.488c0.728-0.832,1.458-1.589,2.264-2.29
							c0.801-0.694,1.644-1.332,2.552-1.811c0.902-0.492,1.875-0.822,2.841-0.875c0.964-0.056,1.936,0.119,2.838,0.577
							c0.893,0.428,1.703,1.15,2.149,2.041c0.462,0.889,0.584,1.935,0.412,2.946L65.755,23.795z"/>
						<path class="st0" d="M65.465,23.406c-1.895-0.05-3.791-0.098-5.693-0.1c-2.186,0.01-4.411,0.128-6.549,0.79
							c-1.064,0.333-2.099,0.814-3.008,1.491c-0.456,0.338-0.874,0.715-1.259,1.145c-0.366,0.41-0.723,0.864-1.023,1.341
							c-0.6,0.959-1.042,2.036-1.193,3.184c-0.156,1.142,0.016,2.368,0.595,3.405c0.282,0.522,0.655,0.987,1.071,1.401
							c0.204,0.2,0.444,0.402,0.662,0.573c0.252,0.187,0.483,0.336,0.742,0.489c0.508,0.296,1.069,0.523,1.66,0.665
							c0.591,0.14,1.209,0.175,1.811,0.104c1.213-0.135,2.319-0.635,3.289-1.252c0.964-0.633,1.815-1.392,2.578-2.215
							c2.941-3.151,4.85-6.89,6.638-10.668l0.156-0.335L65.465,23.406 M65.466,23.406l-17.989,7.942
							c0.117-1.022,0.497-2.02,1.042-2.914c0.27-0.452,0.581-0.866,0.934-1.275c0.339-0.389,0.726-0.752,1.142-1.071
							c0.831-0.643,1.795-1.115,2.802-1.452c2.033-0.671,4.216-0.83,6.384-0.877c1.834-0.03,3.672-0.019,5.512-0.002
							c-0.842,1.709-1.756,3.382-2.809,4.957c-0.6,0.898-1.238,1.767-1.934,2.584c-0.687,0.866-1.378,1.656-2.149,2.399
							c-0.767,0.731-1.577,1.41-2.463,1.933c-0.874,0.536-1.827,0.911-2.793,1.013c-0.961,0.104-1.939-0.025-2.861-0.437
							c-0.913-0.386-1.758-1.069-2.25-1.932c-0.501-0.867-0.673-1.907-0.556-2.925L65.466,23.406z"/>
					</g>
					<g>
						<path class="st0" d="M62.618,20.703c1.955-0.404,3.907-0.814,5.858-1.267c2.234-0.537,4.486-1.191,6.519-2.383
							c1.012-0.599,1.953-1.34,2.722-2.251c0.387-0.457,0.726-0.944,1.016-1.475c0.277-0.508,0.529-1.059,0.723-1.621
							c0.387-1.124,0.579-2.336,0.456-3.549c-0.115-1.204-0.584-2.419-1.428-3.344c-0.412-0.462-0.904-0.853-1.433-1.175
							c-0.256-0.154-0.554-0.309-0.813-0.429c-0.307-0.132-0.577-0.231-0.879-0.323c-0.593-0.182-1.222-0.279-1.861-0.282
							c-0.636-0.002-1.28,0.112-1.884,0.327c-1.204,0.431-2.22,1.209-3.063,2.073c-0.838,0.884-1.525,1.863-2.108,2.889
							c-2.255,3.934-3.312,8.224-4.237,12.526l-0.078,0.379L62.618,20.703 M62.618,20.704L79.14,8.245
							c0.124,1.071-0.028,2.186-0.366,3.232c-0.172,0.53-0.389,1.03-0.652,1.532c-0.252,0.481-0.563,0.945-0.911,1.371
							c-0.698,0.861-1.573,1.575-2.525,2.161c-1.918,1.175-4.118,1.862-6.325,2.433c-1.872,0.472-3.761,0.903-5.649,1.328
							c0.456-1.955,0.987-3.887,1.689-5.751c0.398-1.064,0.845-2.109,1.357-3.113c0.494-1.053,1.014-2.03,1.625-2.973
							c0.609-0.934,1.277-1.823,2.058-2.574c0.769-0.759,1.655-1.371,2.616-1.709s1.996-0.442,3.04-0.239
							c1.025,0.173,2.056,0.671,2.768,1.44c0.721,0.767,1.149,1.79,1.275,2.862L62.618,20.704z"/>
						<path class="st0" d="M62.21,20.389c-1.93,0.501-3.862,1.004-5.787,1.552c-2.204,0.645-4.425,1.411-6.395,2.699
							c-0.977,0.646-1.886,1.433-2.607,2.382c-0.364,0.473-0.678,0.977-0.943,1.523c-0.252,0.521-0.478,1.084-0.643,1.653
							c-0.332,1.143-0.465,2.362-0.284,3.567c0.174,1.198,0.703,2.39,1.591,3.269c0.435,0.446,0.945,0.809,1.49,1.104
							c0.263,0.146,0.565,0.282,0.833,0.39c0.311,0.117,0.586,0.204,0.89,0.282c0.604,0.15,1.236,0.219,1.875,0.191
							c0.636-0.031,1.275-0.177,1.861-0.421c1.186-0.49,2.161-1.316,2.962-2.221c0.794-0.92,1.433-1.933,1.966-2.987
							c2.06-4.041,2.907-8.376,3.619-12.715l0.06-0.383l-0.488,0.117 M62.21,20.391L46.322,33.643
							c-0.181-1.067-0.082-2.186,0.204-3.248c0.146-0.536,0.336-1.046,0.579-1.561c0.227-0.492,0.515-0.971,0.84-1.415
							c0.657-0.893,1.492-1.648,2.415-2.28c1.861-1.269,4.026-2.064,6.203-2.74c1.845-0.563,3.708-1.086,5.574-1.602
							c-0.357,1.973-0.794,3.929-1.403,5.828c-0.348,1.082-0.742,2.146-1.204,3.176c-0.444,1.075-0.916,2.075-1.479,3.049
							c-0.565,0.963-1.186,1.883-1.93,2.671c-0.732,0.795-1.588,1.45-2.534,1.836c-0.939,0.381-1.969,0.536-3.021,0.383
							c-1.035-0.121-2.085-0.568-2.834-1.3c-0.76-0.731-1.234-1.732-1.41-2.797L62.21,20.391z"/>
					</g>
				</g>
				<g>
					<path class="st0" d="M91.999,6.827c0-3.161,0-3.746-0.023-4.409c-0.05-0.708-0.247-0.929-0.932-1.125
						c-0.172-0.05-0.54-0.076-0.858-0.076c-0.22,0-0.366-0.073-0.366-0.219c0-0.148,0.172-0.198,0.488-0.198
						c1.128,0,2.5,0.05,3.113,0.05c0.684,0,5.459,0.024,5.876,0c0.391-0.025,0.735-0.098,0.906-0.124
						c0.124-0.023,0.245-0.097,0.343-0.097c0.124,0,0.146,0.097,0.146,0.196c0,0.148-0.121,0.391-0.169,1.348
						c-0.025,0.221-0.076,1.125-0.124,1.371c-0.025,0.097-0.073,0.341-0.245,0.341c-0.149,0-0.172-0.097-0.172-0.269
						c0-0.145-0.023-0.514-0.149-0.758c-0.169-0.37-0.341-0.663-1.419-0.761C98.048,2.049,95.475,2,95.035,2
						c-0.098,0-0.149,0.074-0.149,0.196v5.146c0,0.121,0.025,0.219,0.149,0.219c0.49,0,3.282,0,3.772-0.048
						c0.513-0.049,0.806-0.122,1.025-0.318c0.172-0.146,0.247-0.269,0.346-0.269c0.096,0,0.172,0.098,0.172,0.221
						c0,0.121-0.05,0.465-0.172,1.517c-0.05,0.418-0.098,1.251-0.098,1.396c0,0.173-0.023,0.465-0.222,0.465
						c-0.146,0-0.195-0.072-0.195-0.171c-0.025-0.221-0.025-0.49-0.073-0.759c-0.124-0.417-0.391-0.735-1.202-0.808
						c-0.391-0.048-2.841-0.098-3.379-0.098c-0.098,0-0.124,0.098-0.124,0.221v1.665c0,0.711-0.023,2.473,0,3.086
						c0.05,1.419,0.712,1.739,2.916,1.739c0.563,0,1.47-0.023,2.03-0.269c0.54-0.244,0.785-0.686,0.932-1.542
						c0.05-0.221,0.101-0.319,0.245-0.319c0.172,0,0.197,0.269,0.197,0.49c0,0.465-0.172,1.886-0.293,2.303
						c-0.149,0.538-0.343,0.538-1.154,0.538c-1.616,0-2.914-0.023-3.965-0.073c-1.055-0.025-1.863-0.048-2.5-0.048
						c-0.245,0-0.712,0.023-1.225,0.023c-0.515,0.025-1.053,0.05-1.492,0.05c-0.272,0-0.417-0.073-0.417-0.221
						c0-0.098,0.071-0.221,0.341-0.221c0.318,0,0.563-0.025,0.76-0.073c0.442-0.098,0.563-0.49,0.639-1.102
						c0.096-0.881,0.096-2.521,0.096-4.433V6.829L91.999,6.827z"/>
					<path class="st0" d="M105.665,6.827c0-3.161,0.025-3.746-0.023-4.409c-0.048-0.734-0.245-0.929-0.932-1.125
						c-0.172-0.05-0.538-0.076-0.831-0.076c-0.247,0-0.368-0.073-0.368-0.219c0-0.148,0.146-0.198,0.465-0.198
						c1.154,0,2.598,0.05,3.232,0.05c0.54,0,1.985-0.05,2.767-0.05c0.32,0,0.467,0.05,0.467,0.198c0,0.145-0.121,0.219-0.343,0.219
						c-0.245,0-0.366,0.025-0.636,0.076c-0.563,0.097-0.735,0.391-0.783,1.125c-0.05,0.663-0.05,1.247-0.05,4.409v2.916
						c0,3.035,0.588,4.211,1.641,5.044c0.957,0.759,1.982,0.832,2.719,0.832c0.929,0,2.03-0.269,2.889-1.102
						c1.2-1.127,1.25-2.938,1.25-5.07v-2.62c0-3.161-0.025-3.746-0.05-4.409c-0.048-0.708-0.22-0.929-0.904-1.125
						c-0.172-0.05-0.54-0.076-0.785-0.076c-0.245,0-0.368-0.073-0.368-0.219c0-0.148,0.146-0.198,0.442-0.198
						c1.103,0,2.548,0.05,2.573,0.05c0.245,0,1.689-0.05,2.522-0.05c0.293,0,0.439,0.05,0.439,0.198
						c0,0.145-0.124,0.219-0.366,0.219c-0.245,0-0.366,0.025-0.639,0.076c-0.586,0.097-0.732,0.391-0.783,1.125
						c-0.025,0.663-0.048,1.247-0.048,4.409v2.228c0,2.327-0.245,4.776-2.058,6.27c-1.518,1.274-3.159,1.495-4.555,1.495
						c-1.126,0-3.356-0.048-4.924-1.421c-1.101-0.955-1.959-2.496-1.959-5.51L105.665,6.827L105.665,6.827z"/>
					<path class="st0" d="M125.137,0.974c0.048-0.343,0.245-0.54,0.414-0.54c0.222,0,0.369,0.098,0.662,0.663l5.78,11.512
						l5.78-11.659c0.172-0.341,0.366-0.515,0.563-0.515c0.172,0,0.417,0.221,0.49,0.663l1.962,12.807
						c0.195,1.299,0.391,1.863,1.051,2.059c0.613,0.172,0.957,0.196,1.225,0.196c0.197,0,0.343,0.073,0.343,0.197
						c0,0.171-0.245,0.244-0.563,0.244c-0.538,0-3.601-0.073-4.457-0.121c-0.515-0.025-0.639-0.122-0.639-0.246
						c0-0.097,0.101-0.171,0.247-0.221c0.121-0.048,0.169-0.293,0.098-0.881l-1.202-8.988h-0.073l-4.628,9.209
						c-0.49,0.98-0.611,1.175-0.856,1.175c-0.27,0-0.515-0.417-0.858-1.053c-0.513-0.956-2.229-4.14-2.474-4.728
						c-0.172-0.391-1.444-2.913-2.154-4.36h-0.073l-1.03,8.033c-0.048,0.369-0.073,0.638-0.073,0.98
						c0,0.394,0.293,0.539,0.661,0.612c0.366,0.073,0.563,0.098,0.76,0.098c0.197,0,0.341,0.097,0.341,0.196
						c0,0.196-0.195,0.246-0.513,0.246c-0.907,0-1.886-0.073-2.278-0.073c-0.417,0-1.444,0.073-2.131,0.073
						c-0.22,0-0.391-0.05-0.391-0.246c0-0.098,0.121-0.196,0.343-0.196c0.172,0,0.316,0,0.662-0.048
						c0.586-0.076,0.783-0.907,0.881-1.592L125.137,0.974L125.137,0.974z"/>
				</g>
			</g>
			<g>
				<path class="st0" d="M95.765,24.166c-0.57,0.053-0.626,0.09-0.626,0.718v2.99c0,0.628,0.056,0.665,0.626,0.718v0.217h-1.933
					v-0.217c0.589-0.052,0.647-0.09,0.647-0.718v-1.472h-2.305v1.472c0,0.628,0.055,0.665,0.618,0.718v0.217h-1.891v-0.217
					c0.555-0.052,0.611-0.09,0.611-0.718v-2.99c0-0.628-0.056-0.665-0.632-0.718v-0.217h1.877v0.217
					c-0.529,0.053-0.584,0.09-0.584,0.718v1.189h2.305v-1.189c0-0.62-0.057-0.665-0.597-0.718v-0.217h1.884L95.765,24.166
					L95.765,24.166z"/>
				<path class="st0" d="M99.118,25.729c-0.366,0.068-0.428,0.127-0.618,0.546c-0.176,0.396-0.394,1.016-0.872,2.22
					c-0.464,1.196-0.618,1.63-0.723,2.033c-0.036,0.15-0.127,0.187-0.232,0.187c-0.197,0-0.415-0.187-0.415-0.381
					c0-0.12,0.064-0.187,0.183-0.277c0.232-0.149,0.373-0.321,0.534-0.643c0.12-0.232,0.168-0.374,0.204-0.471
					c0.035-0.112,0.029-0.217-0.014-0.344c-0.303-0.889-0.626-1.824-0.823-2.325c-0.146-0.389-0.218-0.486-0.591-0.546v-0.194h1.483
					v0.194c-0.323,0.06-0.365,0.135-0.275,0.404l0.626,1.839c0.19-0.501,0.478-1.353,0.619-1.816
					c0.085-0.276,0.034-0.359-0.359-0.426v-0.194h1.273C99.118,25.535,99.118,25.729,99.118,25.729z"/>
				<path class="st0" d="M100.807,25.564c0.127-0.082,0.261-0.12,0.353-0.12c0.786,0,1.25,0.688,1.25,1.42
					c0,1.121-0.836,1.846-1.749,2.033c-0.197-0.007-0.38-0.075-0.471-0.127v0.979c0,0.538,0.049,0.583,0.591,0.628v0.209h-1.714
					v-0.209c0.449-0.045,0.506-0.09,0.506-0.568V26.43c0-0.471-0.036-0.493-0.458-0.545v-0.187c0.316-0.06,0.717-0.187,1.076-0.329
					v0.583l0.618-0.389L100.807,25.564z M100.189,28.24c0.148,0.165,0.414,0.292,0.639,0.292c0.556,0,0.929-0.531,0.929-1.368
					c0-0.822-0.437-1.248-0.914-1.248c-0.212,0-0.477,0.149-0.653,0.291L100.189,28.24L100.189,28.24z"/>
				<path class="st0" d="M105.491,28.159c-0.442,0.605-0.934,0.74-1.165,0.74c-0.879,0-1.385-0.748-1.385-1.593
					c0-0.523,0.182-0.987,0.47-1.316c0.295-0.343,0.674-0.545,1.04-0.545c0.597,0,1.076,0.561,1.068,1.151
					c0,0.149-0.029,0.216-0.168,0.247c-0.112,0.015-0.991,0.089-1.806,0.12c0.014,0.979,0.54,1.397,1.032,1.397
					c0.282,0,0.549-0.12,0.801-0.366l0.112,0.165L105.491,28.159z M103.587,26.649c0.373,0,0.739-0.008,1.125-0.022
					c0.12,0,0.161-0.038,0.161-0.15c0.007-0.389-0.218-0.755-0.584-0.755C103.98,25.722,103.678,26.044,103.587,26.649
					L103.587,26.649z"/>
				<path class="st0" d="M106.986,26.237c0.218-0.396,0.513-0.792,0.836-0.792c0.254,0,0.422,0.202,0.422,0.389
					c0,0.172-0.098,0.329-0.246,0.403c-0.085,0.038-0.148,0.023-0.19-0.022c-0.105-0.105-0.19-0.149-0.309-0.149
					c-0.169,0-0.38,0.195-0.526,0.591v1.376c0,0.486,0.034,0.53,0.576,0.575v0.202h-1.672v-0.202
					c0.428-0.045,0.477-0.089,0.477-0.575V26.47c0-0.478-0.036-0.501-0.422-0.568V25.73c0.359-0.06,0.682-0.149,1.042-0.299v0.807
					h0.014L106.986,26.237z"/>
				<path class="st0" d="M114.346,27.568c-0.098,0.343-0.274,0.904-0.401,1.151c-0.197,0.053-0.794,0.202-1.293,0.202
					c-1.771,0-2.544-1.293-2.544-2.474c0-1.57,1.131-2.609,2.726-2.609c0.57,0,1.055,0.165,1.245,0.202
					c0.055,0.419,0.105,0.732,0.146,1.144l-0.218,0.052c-0.19-0.807-0.632-1.114-1.356-1.114c-1.146,0-1.757,1.047-1.757,2.175
					c0,1.391,0.752,2.34,1.806,2.34c0.696,0,1.076-0.411,1.433-1.151l0.212,0.082L114.346,27.568z"/>
				<path class="st0" d="M117.918,27.112c0,1.211-0.822,1.787-1.538,1.787c-0.991,0-1.561-0.83-1.561-1.652
					c0-1.233,0.9-1.801,1.568-1.801C117.272,25.446,117.918,26.201,117.918,27.112L117.918,27.112z M115.535,27
					c0,0.942,0.359,1.645,0.921,1.645c0.401,0,0.745-0.314,0.745-1.353c0-0.904-0.316-1.592-0.9-1.592
					c-0.407,0-0.767,0.449-0.767,1.301L115.535,27z"/>
				<path class="st0" d="M120.269,28.808v-0.202c0.394-0.045,0.442-0.097,0.442-0.62v-1.248c0-0.524-0.182-0.83-0.611-0.83
					c-0.26,0-0.52,0.172-0.723,0.359v1.764c0,0.501,0.042,0.53,0.435,0.575v0.202h-1.552v-0.202
					c0.464-0.052,0.499-0.089,0.499-0.583v-1.547c0-0.47-0.043-0.493-0.414-0.568v-0.18c0.35-0.067,0.703-0.164,1.032-0.306v0.591
					c0.14-0.112,0.288-0.224,0.464-0.344c0.205-0.142,0.372-0.224,0.576-0.224c0.563,0,0.908,0.418,0.908,1.143v1.443
					c0,0.501,0.042,0.523,0.443,0.575v0.202h-1.497L120.269,28.808z"/>
				<path class="st0" d="M124.094,28.808v-0.202c0.394-0.045,0.443-0.097,0.443-0.62v-1.248c0-0.524-0.182-0.83-0.611-0.83
					c-0.26,0-0.521,0.172-0.724,0.359v1.764c0,0.501,0.043,0.53,0.436,0.575v0.202h-1.553v-0.202
					c0.465-0.052,0.499-0.089,0.499-0.583v-1.547c0-0.47-0.042-0.493-0.414-0.568v-0.18c0.351-0.067,0.703-0.164,1.032-0.306v0.591
					c0.142-0.112,0.288-0.224,0.465-0.344c0.204-0.142,0.372-0.224,0.577-0.224c0.561,0,0.907,0.418,0.907,1.143v1.443
					c0,0.501,0.041,0.523,0.442,0.575v0.202h-1.497L124.094,28.808z"/>
				<path class="st0" d="M128.489,28.159c-0.442,0.605-0.934,0.74-1.165,0.74c-0.879,0-1.385-0.748-1.385-1.593
					c0-0.523,0.182-0.987,0.47-1.316c0.295-0.343,0.674-0.545,1.04-0.545c0.597,0,1.076,0.561,1.068,1.151
					c0,0.149-0.029,0.216-0.168,0.247c-0.112,0.015-0.991,0.089-1.806,0.12c0.014,0.979,0.54,1.397,1.032,1.397
					c0.281,0,0.549-0.12,0.801-0.366l0.112,0.165L128.489,28.159z M126.585,26.649c0.373,0,0.739-0.008,1.125-0.022
					c0.12,0,0.161-0.038,0.161-0.15c0.007-0.389-0.217-0.755-0.584-0.755C126.978,25.722,126.676,26.044,126.585,26.649
					L126.585,26.649z"/>
				<path class="st0" d="M131.572,28.128c-0.316,0.441-0.781,0.77-1.195,0.77c-0.906,0-1.434-0.763-1.434-1.57
					c0-0.568,0.246-1.076,0.711-1.45c0.379-0.314,0.808-0.434,1.082-0.434c0.28,0,0.513,0.097,0.619,0.195
					c0.098,0.082,0.119,0.149,0.119,0.231c0,0.172-0.163,0.344-0.246,0.344c-0.042,0-0.078-0.022-0.134-0.082
					c-0.231-0.224-0.471-0.322-0.71-0.322c-0.428,0-0.815,0.389-0.815,1.174c0,1.031,0.667,1.375,1.046,1.375
					c0.295,0,0.521-0.089,0.83-0.396l0.127,0.164L131.572,28.128z"/>
				<path class="st0" d="M133.312,28.801c-0.12,0.067-0.225,0.097-0.288,0.097c-0.465,0-0.724-0.292-0.724-0.897v-2.16h-0.477
					l-0.029-0.082l0.189-0.224h0.317v-0.546l0.521-0.508l0.092,0.022v1.032h0.779c0.07,0.074,0.049,0.247-0.042,0.306h-0.737v1.906
					c0,0.598,0.238,0.703,0.414,0.703c0.161,0,0.316-0.06,0.414-0.112l0.063,0.202L133.312,28.801L133.312,28.801z"/>
				<path class="st0" d="M136.576,28.159c-0.442,0.605-0.934,0.74-1.165,0.74c-0.879,0-1.385-0.748-1.385-1.593
					c0-0.523,0.182-0.987,0.47-1.316c0.295-0.343,0.674-0.545,1.04-0.545c0.597,0,1.076,0.561,1.068,1.151
					c0,0.149-0.029,0.216-0.168,0.247c-0.112,0.015-0.991,0.089-1.806,0.12c0.014,0.979,0.54,1.397,1.032,1.397
					c0.282,0,0.549-0.12,0.801-0.366l0.112,0.165L136.576,28.159z M134.672,26.649c0.373,0,0.739-0.008,1.125-0.022
					c0.12,0,0.161-0.038,0.161-0.15c0.007-0.389-0.217-0.755-0.584-0.755c-0.309,0-0.611,0.322-0.703,0.927L134.672,26.649z"/>
				<path class="st0" d="M140.446,28.614c-0.163,0.03-0.711,0.127-1.147,0.284V28.42l-0.428,0.276
					c-0.261,0.164-0.428,0.202-0.513,0.202c-0.57,0-1.322-0.546-1.322-1.6c0-1.031,0.844-1.854,1.828-1.854
					c0.092,0,0.275,0.015,0.435,0.074v-1.031c0-0.471-0.041-0.493-0.526-0.539v-0.186c0.38-0.053,0.864-0.165,1.146-0.262v4.433
					c0,0.396,0.042,0.433,0.309,0.464l0.219,0.022v0.194L140.446,28.614z M139.299,26.118c-0.16-0.262-0.435-0.389-0.681-0.389
					c-0.302,0-0.886,0.277-0.886,1.368c0,0.897,0.514,1.316,0.942,1.316c0.231,0,0.457-0.105,0.625-0.232V26.118z"/>
			</g>
		</g>
	</g>
</g>
</svg>
