<?xml version="1.0" encoding="utf-8"?>
<!-- Generator: Adobe Illustrator 27.0.0, SVG Export Plug-In . SVG Version: 6.00 Build 0)  -->
<svg version="1.1" id="레이어_1" xmlns="http://www.w3.org/2000/svg" xmlns:xlink="http://www.w3.org/1999/xlink" x="0px"
	 y="0px" width="287px" height="40px" viewBox="0 0 287 40" style="enable-background:new 0 0 287 40;" xml:space="preserve">
<style type="text/css">
	.st0{fill:#FFFFFF;}
</style>
<g>
	<path class="st0" d="M4.724,21.257l9.219,11.352l2.667-2.133l-7.771-9.448l6.705-8.533L12.8,10.514L4.724,21.257z M0,2.362v29.714
		h3.505V1.6L0,2.362z"/>
	<path class="st0" d="M19.733,26.438c-0.076-1.829,0.686-3.657,2.133-4.876c1.371-1.143,3.429-1.676,6.171-1.676h4.038v-1.371
		c0-3.276-1.448-4.876-4.267-4.876c-0.99,0-1.905,0.152-2.895,0.381c-0.914,0.229-1.829,0.533-2.743,0.99l-0.99-2.514
		c1.067-0.61,2.133-1.067,3.276-1.371c1.143-0.305,2.362-0.457,3.505-0.457c4.952,0,7.39,2.667,7.39,7.924v13.486h-2.59
		l-0.457-2.286c-0.99,0.838-2.133,1.448-3.352,1.905c-1.067,0.457-2.21,0.686-3.352,0.686c-1.6,0.076-3.2-0.457-4.343-1.6
		C20.19,29.638,19.657,28.038,19.733,26.438 M26.286,29.562c0.533,0,0.99-0.076,1.524-0.152c0.533-0.152,0.99-0.305,1.524-0.533
		c0.533-0.229,0.99-0.457,1.448-0.762c0.457-0.305,0.838-0.61,1.219-0.914v-4.876h-3.581c-1.829,0-3.2,0.305-4.038,0.99
		c-0.914,0.762-1.371,1.905-1.295,3.048C23.086,28.495,24.152,29.562,26.286,29.562"/>
	<path class="st0" d="M45.105,32.076H41.6V2.362L45.105,1.6V32.076z M54.476,10.514l2.743,1.981l-6.705,8.533l7.771,9.448
		l-2.667,2.133L46.4,21.257L54.476,10.514z"/>
	<path class="st0" d="M61.333,26.438c-0.076-1.829,0.686-3.657,2.133-4.876c1.371-1.143,3.429-1.676,6.171-1.676h4.038v-1.371
		c0-3.276-1.448-4.876-4.267-4.876c-0.99,0-1.905,0.152-2.895,0.381c-0.914,0.229-1.905,0.533-2.743,0.99l-0.99-2.514
		c1.067-0.61,2.21-1.067,3.352-1.371c1.143-0.305,2.362-0.457,3.505-0.457c4.952,0,7.39,2.667,7.39,7.924v13.486h-2.59l-0.457-2.286
		c-0.99,0.838-2.133,1.448-3.352,1.981c-1.067,0.457-2.21,0.686-3.352,0.686c-1.6,0.076-3.2-0.457-4.343-1.6
		C61.867,29.638,61.257,28.038,61.333,26.438 M67.962,29.638c0.533,0,0.99-0.076,1.524-0.152c0.533-0.152,0.99-0.305,1.524-0.533
		c0.533-0.229,0.99-0.457,1.448-0.762c0.457-0.305,0.838-0.61,1.219-0.914v-4.952h-3.657c-1.829,0-3.2,0.305-4.038,0.99
		c-0.914,0.762-1.371,1.905-1.295,3.048C64.762,28.495,65.829,29.562,67.962,29.638"/>
	<path class="st0" d="M91.124,10.743c2.59-0.152,5.105,0.914,6.781,2.819c1.676,1.905,2.438,4.571,2.438,8.152
		c0,3.505-0.838,6.171-2.438,8c-1.676,1.829-3.962,2.819-6.857,2.819c-2.59,0.152-5.105-0.914-6.781-2.819
		c-1.676-1.905-2.438-4.571-2.438-8s0.838-6.171,2.514-8.152C86.019,11.657,88.533,10.59,91.124,10.743 M91.124,13.562
		c-1.676-0.076-3.276,0.686-4.19,2.057c-0.99,1.371-1.448,3.352-1.448,6.019s0.457,4.648,1.448,5.943
		c1.905,2.362,5.333,2.667,7.619,0.838c0.305-0.229,0.533-0.533,0.838-0.838c0.99-1.371,1.448-3.352,1.448-5.943
		s-0.457-4.648-1.448-6.095C94.324,14.248,92.724,13.486,91.124,13.562"/>
	<path class="st0" d="M123.124,20.724c0,0.838-0.076,1.6-0.229,2.438h-12.571c0.152,3.352,1.981,5.105,5.79,5.105
		c1.829-0.076,3.657-0.457,5.333-1.143l1.219,3.657c-2.286,1.143-4.724,1.752-7.238,1.829c-7.086,0-10.59-3.81-10.59-11.2
		c0-7.01,3.657-11.2,9.448-11.2C120,10.21,123.124,13.943,123.124,20.724z M110.324,19.429h7.619c0-3.581-1.143-5.257-3.733-5.257
		C111.771,14.248,110.4,16.152,110.324,19.429L110.324,19.429z"/>
	<path class="st0" d="M126.857,10.819h3.81l0.762,2.133c1.829-1.676,4.267-2.667,6.705-2.743c4.724,0,7.086,2.895,7.086,8.229
		v13.486h-5.333V18.21c0-2.362-0.838-3.352-3.733-3.352c-1.371,0.076-2.667,0.305-3.962,0.762v16.305h-5.333L126.857,10.819z"/>
	<path class="st0" d="M147.81,11.2l3.352-0.381V6.552l5.41-1.143v5.41h6.324v4.038h-6.324V24c0,3.276,0.838,3.886,2.362,3.886
		c1.219,0,2.362-0.305,3.505-0.686l1.219,3.733c-1.905,1.067-4.038,1.6-6.171,1.524c-4.419,0-6.4-2.743-6.4-8.152v-9.448h-3.352
		L147.81,11.2L147.81,11.2z"/>
	<path class="st0" d="M183.771,20.724c0,0.838-0.076,1.6-0.229,2.438h-12.571c0.152,3.352,1.981,5.105,5.79,5.105
		c1.829-0.076,3.657-0.457,5.333-1.143l1.219,3.657c-2.21,1.143-4.724,1.752-7.238,1.829c-7.086,0-10.59-3.81-10.59-11.2
		c0-7.01,3.657-11.2,9.448-11.2C180.648,10.21,183.771,13.943,183.771,20.724z M170.971,19.429h7.619
		c0-3.581-1.143-5.257-3.733-5.257C172.419,14.248,171.048,16.152,170.971,19.429L170.971,19.429z"/>
	<path class="st0" d="M192.61,16.076V32h-5.333V10.819h3.81l0.838,2.286c1.752-1.829,4.114-2.895,6.629-2.971
		c0.61,0,1.219,0.076,1.829,0.229l-0.533,5.181c-0.99-0.229-2.057-0.381-3.048-0.381C195.276,15.314,193.905,15.467,192.61,16.076z"
		/>
	<path class="st0" d="M208.229,32.076V40h-5.333V10.819h3.81l0.61,1.752c1.6-1.6,3.81-2.438,6.019-2.438c5.486,0,8,4.114,8,10.819
		c0,7.01-3.962,11.505-9.752,11.505C210.514,32.533,209.371,32.381,208.229,32.076z M208.229,15.314v13.029
		c0.61,0.076,1.295,0.152,1.905,0.152c4.267,0,5.79-2.895,5.79-7.467c0-3.962-0.914-6.476-4.419-6.476
		C210.362,14.552,209.295,14.781,208.229,15.314L208.229,15.314z"/>
	<path class="st0" d="M230.705,16.076V32h-5.333V10.819h3.81l0.838,2.286c1.752-1.829,4.114-2.895,6.629-2.971
		c0.61,0,1.219,0.076,1.829,0.229l-0.533,5.181c-0.99-0.229-2.057-0.381-3.048-0.381C233.371,15.314,232,15.467,230.705,16.076z"/>
	<path class="st0" d="M239.619,3.962L243.505,0l3.886,3.962l-3.886,3.962L239.619,3.962z M246.248,10.819v21.105h-5.333V10.819
		H246.248z"/>
	<path class="st0" d="M259.886,19.505c4.343,1.524,5.867,3.2,5.867,6.324c0,4.267-2.743,6.705-8.152,6.705
		c-2.667,0-5.257-0.533-7.771-1.524l1.067-4.19c2.133,0.838,4.419,1.371,6.705,1.371c2.21,0,3.048-0.762,3.048-1.981
		c0-1.219-0.533-1.829-4.19-3.048c-4.343-1.524-5.867-2.971-5.867-6.552c0-3.81,3.124-6.476,7.771-6.476
		c2.514,0,4.952,0.533,7.238,1.6l-1.448,3.886c-1.6-0.838-3.429-1.219-5.257-1.295c-1.981,0-3.124,0.914-3.124,2.21
		C255.695,17.752,256.838,18.438,259.886,19.505z"/>
	<path class="st0" d="M286.629,20.724c0,0.838-0.076,1.6-0.229,2.438h-12.571c0.152,3.352,1.981,5.105,5.79,5.105
		c1.829-0.076,3.657-0.457,5.333-1.143l1.219,3.657c-2.21,1.143-4.724,1.752-7.238,1.829c-7.086,0-10.59-3.81-10.59-11.2
		c0-7.01,3.657-11.2,9.448-11.2C283.505,10.21,286.629,13.943,286.629,20.724z M273.829,19.429h7.619
		c0-3.581-1.143-5.257-3.733-5.257C275.276,14.248,273.905,16.152,273.829,19.429L273.829,19.429z"/>
</g>
</svg>
