<?xml version="1.0" encoding="utf-8"?>
<!-- Generator: Adobe Illustrator 27.0.0, SVG Export Plug-In . SVG Version: 6.00 Build 0)  -->
<svg version="1.1" id="_레이어_1" xmlns="http://www.w3.org/2000/svg" xmlns:xlink="http://www.w3.org/1999/xlink" x="0px"
	 y="0px" width="180px" height="40px" viewBox="0 0 180 40" style="enable-background:new 0 0 180 40;" xml:space="preserve">
<style type="text/css">
	.st0{fill:#222220;}
	.st1{fill:#399F93;}
	.st2{fill:#1F5DA4;}
</style>
<g>
	<path class="st0" d="M44.3,34.9h0.2c0,0.6,0.4,1.4,1.1,1.4c0.4,0,0.8-0.2,0.8-0.7c0-1.1-2-0.8-2-2.3c0-1,0.6-1.4,1.2-1.4
		c0.3,0,0.6,0.1,1,0.3l0,1.1h-0.2c-0.1-0.6-0.5-1.1-1-1.1c-0.3,0-0.6,0.3-0.6,0.7c0,1,1.9,0.6,1.9,2.4c0,0.8-0.6,1.4-1.3,1.4
		c-0.4,0-0.8-0.1-1.2-0.3L44.3,34.9z"/>
	<path class="st0" d="M47.3,36.2h0.5v-4.1h-0.5v-0.2h3.1v1.4h-0.1c-0.1-1-0.6-1.2-1.3-1.2h-0.4V34c0.5,0,0.8-0.3,0.8-0.9h0.1v2.1
		h-0.1c0-0.7-0.3-0.9-0.8-0.9v2h0.5c0.6,0,1.2-0.3,1.3-1.3h0.1v1.5h-3.2V36.2z"/>
	<path class="st0" d="M52.1,34.2c0-0.8,0.1-2.1,1-2.1s1,1.3,1,2.1c0,0.8-0.1,2.1-1,2.1S52.1,35,52.1,34.2z M51.2,34.2
		c0,1.4,0.7,2.3,1.9,2.3s1.9-1,1.9-2.3c0-1.4-0.7-2.3-1.9-2.3C52,31.8,51.2,32.8,51.2,34.2z"/>
	<path class="st0" d="M55.5,31.9h1.8v0.2h-0.5v3.2c0,0.7,0.4,1,0.9,1c0.5,0,1-0.3,1-1.1v-3.1h-0.5v-0.2h1.2v0.2h-0.5v3
		c0,1.1-0.6,1.4-1.4,1.4c-1,0-1.5-0.2-1.5-1.2v-3.2h-0.5C55.5,32.1,55.5,31.9,55.5,31.9z"/>
	<path class="st0" d="M59.7,36.2h0.5v-4.1h-0.5v-0.2h1.8v0.2h-0.5v4.1h0.6c0.6,0,1.2-0.3,1.3-1.4H63v1.6h-3.3V36.2z"/>
	<path class="st0" d="M64.8,36.2h0.5v-4.1h-0.5v-0.2h1.4l1,3.3l1.1-3.3h1.3v0.2h-0.5v4.1h0.5v0.2h-1.8v-0.2h0.5v-3.8h0l-1.3,4.1
		h-0.2l-1.3-4.1h0v3.8H66v0.2h-1.2L64.8,36.2L64.8,36.2z"/>
	<path class="st0" d="M69.9,36.2h0.5v-4.1h-0.5v-0.2H73v1.4h-0.1c-0.1-1-0.6-1.2-1.3-1.2h-0.4V34c0.5,0,0.8-0.3,0.8-0.9h0.1v2.1H72
		c0-0.7-0.3-0.9-0.8-0.9v2h0.5c0.6,0,1.2-0.3,1.3-1.3h0.1v1.5h-3.2L69.9,36.2L69.9,36.2z"/>
	<path class="st0" d="M74.6,36.2H75v-4.1h-0.2c-0.7,0-1,0.7-1,1.3h-0.1v-1.5h3.5v1.5H77c0-0.6-0.3-1.3-1-1.3h-0.2v4.1h0.5v0.2h-1.8
		V36.2z"/>
	<path class="st0" d="M78.8,32.1H79c0.5,0,0.7,0.2,0.7,1s-0.2,1-0.6,1h-0.3V32.1z M79.4,36.4v-0.2h-0.6v-2h0.3
		c0.4,0,0.8,0.1,0.8,0.9c0,0.6,0,1.3,0.7,1.3h0.5v-0.2c-0.5,0-0.5-0.5-0.5-0.9c0-0.9-0.4-1.2-1.1-1.2v0c0.5-0.1,0.9-0.4,0.9-1.2
		c0-1-0.8-1-1.3-1h-1.7v0.2h0.5v4.1h-0.5v0.2C77.6,36.4,79.4,36.4,79.4,36.4z"/>
	<path class="st0" d="M82.5,34.2c0-0.8,0.1-2.1,1-2.1s1,1.3,1,2.1c0,0.8-0.1,2.1-1,2.1S82.5,35,82.5,34.2z M81.7,34.2
		c0,1.4,0.7,2.3,1.9,2.3s1.9-1,1.9-2.3c0-1.4-0.7-2.3-1.9-2.3C82.4,31.8,81.7,32.8,81.7,34.2z"/>
	<path class="st0" d="M87.2,32.1h0.4c0.6,0,0.7,0.3,0.7,1c0,0.8-0.2,1-0.7,1h-0.4V32.1z M86,36.4h1.8v-0.2h-0.6v-1.8h0.6
		c0.7,0,1.5-0.1,1.5-1.2c0-1.2-0.9-1.2-1.4-1.2h-2v0.2h0.5v4.1H86L86,36.4L86,36.4z"/>
	<path class="st0" d="M90.8,34.2c0-0.8,0.1-2.1,1-2.1s1,1.3,1,2.1c0,0.8-0.1,2.1-1,2.1C90.8,36.3,90.8,35,90.8,34.2z M89.9,34.2
		c0,1.4,0.7,2.3,1.9,2.3s1.9-1,1.9-2.3c0-1.4-0.7-2.3-1.9-2.3C90.6,31.8,89.9,32.8,89.9,34.2z"/>
	<path class="st0" d="M94.2,36.2h0.5v-4.1h-0.5v-0.2h1.8v0.2h-0.5v4.1H96c0.6,0,1.2-0.3,1.3-1.4h0.1v1.6h-3.3V36.2z"/>
	<path class="st0" d="M97.9,36.2h0.5v-4.1h-0.5v-0.2h1.7v0.2h-0.5v4.1h0.5v0.2h-1.7V36.2z"/>
	<path class="st0" d="M101,36.2h0.5v-4.1h-0.2c-0.7,0-1,0.7-1,1.3h-0.1v-1.5h3.5v1.5h-0.1c0-0.6-0.3-1.3-1-1.3h-0.2v4.1h0.5v0.2H101
		C101,36.4,101,36.2,101,36.2z"/>
	<path class="st0" d="M105.4,34.7h-0.8l0.4-1.5h0L105.4,34.7z M103.6,36.4h1.1v-0.2h-0.5l0.4-1.3h0.9l0.4,1.3h-0.5v0.2h1.8v-0.2
		h-0.4l-1.3-4.3h-0.2l-1.2,4.3h-0.4L103.6,36.4L103.6,36.4z"/>
	<path class="st0" d="M107.4,36.2h0.5v-4.1h-0.5v-0.2h1.4l1.8,3h0v-2.8h-0.6v-0.2h1.2v0.2h-0.5v4.4l-0.1,0l-2.6-4.2h0v3.9h0.6v0.2
		h-1.2V36.2z"/>
	<path class="st0" d="M114.3,34.2c0-0.8,0.1-2.1,1-2.1s1,1.3,1,2.1c0,0.8-0.1,2.1-1,2.1C114.3,36.3,114.3,35,114.3,34.2z
		 M113.4,34.2c0,1.4,0.7,2.3,1.9,2.3s1.9-1,1.9-2.3c0-1.4-0.7-2.3-1.9-2.3C114.1,31.8,113.4,32.8,113.4,34.2z"/>
	<path class="st0" d="M120.8,33.3h-0.1c-0.1-1-0.6-1.2-1.3-1.2h-0.4v2c0.6,0,1-0.1,1-1h0.1v2.1h-0.1c0-0.9-0.4-0.9-1-0.9v1.9h0.5
		v0.2h-1.8v-0.2h0.5v-4.1h-0.5v-0.2h3.2C120.8,31.9,120.8,33.3,120.8,33.3z"/>
	<path class="st0" d="M124.3,33.3h-0.1c-0.1-1-0.6-1.2-1.3-1.2h-0.4v2c0.6,0,1-0.1,1-1h0.1v2.1h-0.1c0-0.9-0.4-0.9-1-0.9v1.9h0.5
		v0.2h-1.8v-0.2h0.5v-4.1h-0.5v-0.2h3.2L124.3,33.3L124.3,33.3z"/>
	<path class="st0" d="M124.6,36.2h0.5v-4.1h-0.5v-0.2h1.7v0.2h-0.5v4.1h0.5v0.2h-1.7V36.2z"/>
	<path class="st0" d="M130.2,33.5H130c0-0.8-0.5-1.5-1.1-1.5c-1,0-1.1,1.3-1.1,2.1c0,0.8,0.1,2.1,1.1,2.1c0.6,0,1.1-0.7,1.2-1.4h0.1
		v1.3c-0.4,0.2-0.9,0.4-1.4,0.4c-1.2,0-1.9-1-1.9-2.3c0-1.4,0.7-2.3,1.9-2.3c0.4,0,0.9,0.1,1.3,0.4L130.2,33.5L130.2,33.5z"/>
	<path class="st0" d="M130.7,36.2h0.5v-4.1h-0.5v-0.2h3.1v1.4h-0.1c-0.1-1-0.6-1.2-1.3-1.2H132V34c0.5,0,0.8-0.3,0.8-0.9h0.1v2.1
		h-0.1c0-0.7-0.3-0.9-0.8-0.9v2h0.5c0.6,0,1.2-0.3,1.3-1.3h0.1v1.5h-3.2V36.2z"/>
	<path class="st0" d="M137,34.2c0-0.8,0.1-2.1,1-2.1s1,1.3,1,2.1c0,0.8-0.1,2.1-1,2.1S137,35,137,34.2z M136.1,34.2
		c0,1.4,0.7,2.3,1.9,2.3s1.9-1,1.9-2.3c0-1.4-0.7-2.3-1.9-2.3C136.8,31.8,136.1,32.8,136.1,34.2z"/>
	<path class="st0" d="M143.5,33.3h-0.1c-0.1-1-0.6-1.2-1.3-1.2h-0.4v2c0.6,0,1-0.1,1-1h0.1v2.1h-0.1c0-0.9-0.4-0.9-1-0.9v1.9h0.5
		v0.2h-1.8v-0.2h0.5v-4.1h-0.5v-0.2h3.2L143.5,33.3L143.5,33.3z"/>
	<path class="st0" d="M145.4,36.2h0.5v-4.1h-0.5v-0.2h3.1v1.4h-0.1c-0.1-1-0.6-1.2-1.3-1.2h-0.4V34c0.5,0,0.8-0.3,0.8-0.9h0.1v2.1
		h-0.1c0-0.7-0.3-0.9-0.8-0.9v2h0.5c0.6,0,1.2-0.3,1.3-1.3h0.1v1.5h-3.2L145.4,36.2L145.4,36.2z"/>
	<path class="st0" d="M150.4,32.1h0.5c0.5,0,1.3,0.1,1.3,2.1c0,2-0.8,2.1-1.5,2.1h-0.3V32.1z M149.1,36.4h1.9c1.2,0,2-0.5,2-2.2
		c0-1.7-0.8-2.3-2-2.3h-1.9v0.2h0.5v4.1h-0.5V36.4z"/>
	<path class="st0" d="M153.5,31.9h1.8v0.2h-0.5v3.2c0,0.7,0.4,1,0.9,1c0.5,0,1-0.3,1-1.1v-3.1h-0.5v-0.2h1.2v0.2h-0.5v3
		c0,1.1-0.6,1.4-1.4,1.4c-1,0-1.5-0.2-1.5-1.2v-3.2h-0.5L153.5,31.9L153.5,31.9z"/>
	<path class="st0" d="M161.1,33.5h-0.1c0-0.8-0.5-1.5-1.1-1.5c-1,0-1.1,1.3-1.1,2.1c0,0.8,0.1,2.1,1.1,2.1c0.6,0,1.1-0.7,1.2-1.4
		h0.1v1.3c-0.4,0.2-0.9,0.4-1.4,0.4c-1.2,0-1.9-1-1.9-2.3c0-1.4,0.7-2.3,1.9-2.3c0.4,0,0.9,0.1,1.3,0.4L161.1,33.5L161.1,33.5z"/>
	<path class="st0" d="M163.4,34.7h-0.8l0.4-1.5h0L163.4,34.7z M161.6,36.4h1.1v-0.2h-0.5l0.4-1.3h0.9l0.4,1.3h-0.5v0.2h1.8v-0.2
		h-0.4l-1.3-4.3h-0.2l-1.2,4.3h-0.4L161.6,36.4L161.6,36.4z"/>
	<path class="st0" d="M165.9,36.2h0.5v-4.1h-0.2c-0.7,0-1,0.7-1,1.3H165v-1.5h3.5v1.5h-0.1c0-0.6-0.3-1.3-1-1.3h-0.2v4.1h0.5v0.2
		h-1.8V36.2z"/>
	<path class="st0" d="M168.9,36.2h0.5v-4.1h-0.5v-0.2h1.7v0.2h-0.5v4.1h0.5v0.2h-1.7V36.2z"/>
	<path class="st0" d="M172.1,34.2c0-0.8,0.1-2.1,1-2.1s1,1.3,1,2.1c0,0.8-0.1,2.1-1,2.1S172.1,35,172.1,34.2z M171.2,34.2
		c0,1.4,0.7,2.3,1.9,2.3s1.9-1,1.9-2.3c0-1.4-0.7-2.3-1.9-2.3C172,31.8,171.2,32.8,171.2,34.2z"/>
	<path class="st0" d="M175.5,36.2h0.5v-4.1h-0.5v-0.2h1.4l1.8,3h0v-2.8h-0.6v-0.2h1.2v0.2h-0.5v4.4l-0.1,0l-2.6-4.2h0v3.9h0.6v0.2
		h-1.2V36.2z"/>
	<g>
		<path class="st1" d="M18.8,8c2.2,0,4-1.8,4-4s-1.8-4-4-4s-4,1.8-4,4S16.6,8,18.8,8z"/>
		<path class="st2" d="M30.5,13.8c0.1-0.2,0.3-0.4,0.3-0.5c0.1-0.3,0.1-0.4,0-0.5c-0.1-0.1-0.2-0.2-0.5-0.3
			c-1.7-0.2-5.8,2.1-8.7,4.9l-0.1,0.1c6.1,10,3.4,22.7-2.7,22.6c-2.9,0-4.8-2.5-5.6-5.9c-0.3-1.5-0.5-3.8-0.4-5
			c0-0.7,0.2-3.4,1.1-6.5c-9-1.9-15.4-8.7-12.8-13c1.5-2.5,4.6-2.9,8-1.9c1.5,0.5,3,1.2,4.5,2.1l0.2,0.1c-0.1,0-0.2,0.1-0.2,0.2
			c0,0.2,0.2,0.3,0.4,0.3c-0.1,0.1-0.3,0.2-0.4,0.4c0,0.1,0,0.1,0,0.1c0.1,0.1,0.3,0.1,0.4,0.2c0.1-0.2,0.4-0.1,0.6-0.1
			c0.1-0.1,0.1-0.3,0.2-0.4c0.2,0.1,0.3,0.2,0.5,0.3c0,0.1,0,0.1,0,0.2c0.1,0.1,0.3,0.2,0.4,0.2c0.2,0.2,0.4,0.3,0.6,0.5
			c-0.1,0-0.3,0-0.4-0.1c-0.1-0.1-0.2-0.2-0.4-0.2c-0.1,0.1-0.1,0.1-0.1,0.1c-0.1,0-0.1,0-0.1,0c-0.1,0.1-0.2,0.1-0.3,0.1
			c-0.1,0.1-0.2,0.2-0.3,0.4c-0.1,0-0.1,0-0.1,0c-0.1-0.1-0.4-0.2-0.4-0.4c0-0.1,0-0.1,0-0.2c-0.3-0.1-0.5-0.1-0.6-0.3
			c-0.1,0.1,0,0.2,0,0.2c0.2,0.2,0.1,0.5,0.1,0.8c0.2,0.4,0.7,0.2,1.1,0.2c0.1,0.1,0.1,0.1,0.2,0.1c0-0.2,0.2-0.4,0.5-0.4
			c0.1-0.1,0.1-0.1,0.1-0.1c0.1-0.1,0.2,0.1,0.3,0.1c0.1,0.2-0.1,0.4-0.4,0.4c-0.1,0.1-0.1,0.1,0,0.2c0.2,0.2,0.2,0.4,0.3,0.6
			c-0.1,0,0,0.2-0.1,0.2c0,0.1,0,0.1,0,0.2c-0.1,0.1-0.1,0.1-0.2,0.2c-0.1,0-0.3,0.1-0.4,0.1c0,0.1,0,0.1,0,0.1
			c0.1,0.1,0.3,0.1,0.4,0.2c-0.1,0.1-0.1,0.1,0,0.2c-0.3,0-0.5,0.2-0.8,0.1c0-0.1-0.1-0.2,0-0.3l-0.1-0.1c0.1-0.1,0-0.3,0-0.5
			c0.2-0.1,0.2-0.3,0.4-0.4c0-0.1,0-0.1,0-0.1c-0.2-0.2-0.4-0.2-0.7-0.2c-0.2,0.2-0.4,0.4-0.7,0.5c0,0.1,0,0.1,0,0.1
			c0.1,0.1,0.1,0.1,0.2,0.1c0.1-0.3,0.4-0.2,0.6-0.2c0.1,0.2-0.1,0.3-0.2,0.4c-0.2,0-0.4,0-0.5,0.1c-0.1,0-0.1,0-0.2,0
			c-0.1,0.1-0.1,0.2-0.2,0.2c0,0.1,0,0.2-0.1,0.4c-0.1,0-0.2-0.1-0.3-0.1c0-0.4-0.1-0.7-0.5-0.8c-0.4,0.2,0.1,0.6,0.3,0.8
			c0,0.1,0,0.2,0.1,0.3c0.1,0.1-0.1,0.1,0,0.2c0,0,0,0,0,0c-0.3-0.2-0.7-0.5-1-0.7l0,0c0-0.1,0-0.1-0.1-0.1c0.1,0,0.1-0.1,0.1-0.1
			c-0.1-0.2-0.2-0.2-0.4-0.3c-0.3,0.1,0,0.4-0.1,0.2c-1.4-0.8-2.7-1.4-3.6-1.5c-0.2,0-0.4,0-0.6,0c-0.3,0-0.4,0.2-0.5,0.3
			c-0.1,0.1-0.1,0.3,0,0.6c0.7,1.6,4.7,4,8.6,5.1l0.1,0c5.7-10.2,18-14.3,21-9c1.4,2.6,0.2,5.4-2.4,7.8c-1.1,1-2.5,2-4.1,2.8l0-0.1
			c0-0.1,0.1-0.2,0.1-0.3c-0.2-0.1-0.4,0.1-0.5,0.2c0-0.2-0.1-0.4-0.1-0.5c-0.1,0-0.1,0-0.1,0c-0.1,0-0.2,0.2-0.4,0.3
			c0.1,0.2-0.1,0.4-0.2,0.6c0,0.1,0.2,0.2,0.3,0.4c-0.2,0.1-0.3,0.2-0.5,0.2c0-0.1-0.1-0.1-0.1-0.1C28.2,20.9,28,21,28,21.1
			c-0.2,0.1-0.5,0.2-0.8,0.3c0.1-0.1,0.2-0.2,0.3-0.3c0.1,0,0.3-0.1,0.4-0.2c0-0.1,0-0.1,0-0.2c0-0.1,0-0.1,0.1-0.1
			c-0.1-0.1,0-0.2,0-0.3c0-0.2-0.1-0.3-0.2-0.4c0-0.1,0-0.1,0.1-0.1c0.2-0.1,0.4-0.2,0.6-0.2c0.1,0,0.1,0,0.1,0.1
			c0.2-0.2,0.3-0.4,0.5-0.4c0-0.1-0.1-0.1-0.2-0.1c-0.3,0.1-0.5-0.1-0.7-0.2c-0.4,0-0.5,0.5-0.7,0.9c-0.1,0-0.1,0.1-0.1,0.2
			c0.2,0.1,0.3,0.3,0.1,0.6c0,0.1,0,0.1,0,0.2c0,0.1-0.1,0.2-0.2,0.3c-0.3,0-0.3-0.3-0.2-0.5c0-0.1-0.1-0.1-0.1-0.1
			c-0.3,0.1-0.5,0-0.7-0.1c0.1-0.1-0.2-0.1-0.1-0.2C26,20,26,20,25.9,20c0-0.1,0-0.2-0.1-0.2c0.1-0.1,0.1-0.3,0.1-0.4
			c-0.1,0-0.1,0-0.1,0c-0.1,0-0.2,0.2-0.4,0.2c0-0.1-0.1-0.1-0.1-0.1c0.1-0.2,0.1-0.5,0.3-0.8c0.1,0,0.3,0,0.2,0.2l0.1,0
			c0,0.2,0.3,0.1,0.4,0.2c0,0.2,0.2,0.3,0.2,0.5c0.1,0,0.1,0,0.1,0c0.2-0.1,0.3-0.3,0.5-0.5c0-0.3-0.1-0.5-0.2-0.8
			c-0.1,0-0.1,0-0.1,0c-0.1,0-0.1,0-0.2,0.1c0.2,0.2,0,0.4-0.1,0.7c-0.2,0-0.2-0.2-0.3-0.3c0.1-0.2,0.2-0.4,0.1-0.5
			c0-0.1,0.1-0.1,0.1-0.2c0-0.1-0.1-0.2-0.1-0.3c-0.1,0-0.2-0.1-0.3-0.3c0.1-0.1,0.1-0.2,0.2-0.2c0.3,0.2,0.7,0.2,0.9-0.1
			c0-0.4-0.6-0.2-0.8-0.1c-0.1,0-0.2-0.1-0.3,0c-0.1,0-0.1-0.1-0.2-0.1c0,0,0,0,0,0c0.4-0.2,0.7-0.4,1.1-0.5l0,0
			c0.2-0.1,0.2,0,0.3-0.1c0,0.1,0.1,0.1,0.1,0.1c0.2,0,0.2-0.1,0.3-0.1c0.1-0.3,0.3-0.1,0.1-0.3C29.2,15.1,29.9,14.5,30.5,13.8z
			 M15.1,13c0,0.1,0,0.1,0,0.2c0.1,0.1,0.1,0.1,0.2,0.2c0.1,0,0.1,0,0.2,0c0.2-0.1,0.2-0.4,0-0.4c-0.1,0-0.1-0.1-0.2-0.1
			C15.2,12.9,15.2,12.9,15.1,13z M14.4,11.4c0.1,0.2,0.3,0.3,0.5,0.1c0-0.1-0.1-0.1-0.1-0.2C14.7,11.3,14.5,11.2,14.4,11.4z
			 M13.3,13.8c-0.1-0.2,0-0.4,0-0.6c-0.1-0.1-0.2-0.1-0.3,0c-0.1,0.1-0.1,0.1-0.1,0.1c0,0.2,0.2,0.4,0.3,0.6
			C13.2,13.9,13.3,13.8,13.3,13.8z M13,10.3c0.1,0.1,0.3,0,0.5-0.1c-0.1-0.1-0.2-0.2-0.3-0.2c-0.1,0-0.1,0-0.1,0
			C12.9,10,12.8,10.1,13,10.3z M12.8,11.7c0,0.1,0.1,0.1,0.2,0.1c0.3-0.2,0.4-0.5-0.1-0.7C12.6,11.1,12.6,11.4,12.8,11.7z
			 M12.4,12.2c-0.1,0-0.1,0-0.1,0c-0.2,0.1-0.2,0.4-0.4,0.5c-0.2,0-0.3,0.1-0.4,0.2c0,0.1,0,0.1,0.1,0.1c0.3,0.1,0.7,0.1,1.1,0.1
			c0.4-0.2,0.2-0.5,0-0.8C12.6,12.2,12.5,12.1,12.4,12.2z M19.5,23.2l0-0.1c-0.3,0-0.6,0-0.9,0c-0.8,2.7-0.8,5-0.9,5.7
			c0,1.2,0.1,3,0.4,3.9c0.1,0.2,0.2,0.4,0.3,0.5c0.2,0.2,0.4,0.3,0.5,0.3c0.1,0,0.3,0,0.5-0.3C20.5,31.8,20.5,27.2,19.5,23.2z
			 M16.4,12.6c-0.1-0.1-0.1-0.1-0.2-0.1c-0.1,0.1-0.1,0.1,0,0.2c0.1,0,0.1,0,0.2,0C16.4,12.7,16.4,12.7,16.4,12.6z M14.3,14.6
			C13.9,14.5,14,14.8,14,15c0.1,0,0.3,0,0.4-0.1C14.4,14.8,14.4,14.7,14.3,14.6z M15.4,14.9c-0.3,0-0.3,0.2-0.5,0.3
			c0,0.2,0.2,0.3,0.4,0.2C15.5,15.3,15.6,15.1,15.4,14.9z M15.7,15.8c-0.1,0-0.1,0.1-0.1,0.2c0,0,0.1,0.1,0.2,0.1c0,0,0,0,0.1,0
			C16,15.9,15.9,15.7,15.7,15.8z M16.5,15.5c0.1-0.1,0.3-0.1,0.4-0.2c-0.1-0.1-0.1-0.3-0.2-0.4c-0.1,0-0.1,0-0.1,0
			c-0.1,0.2-0.2,0.3-0.2,0.5C16.4,15.4,16.5,15.4,16.5,15.5z M16,14.6c-0.1,0.1-0.1,0.1,0,0.2c0.1,0,0.1,0,0.2,0c0-0.1,0-0.1,0-0.1
			C16.2,14.6,16.1,14.6,16,14.6z M16.7,14c0.1-0.1-0.2-0.2-0.2-0.4c-0.2,0-0.4-0.1-0.4,0.2c-0.1,0.1,0,0.3,0.1,0.4
			C16.4,14.3,16.6,14.2,16.7,14z M18.1,13.5c-0.1,0.1-0.1,0.2-0.1,0.3c0.1,0.1,0.1,0.1,0.2,0.1c0.3,0,0.2-0.2,0-0.4
			C18.1,13.5,18.1,13.5,18.1,13.5z M17.3,13.5c-0.1,0-0.1,0-0.2,0c0,0.3,0.2,0.4,0.4,0.5c0.1,0,0.1,0,0.1,0
			C17.7,13.7,17.5,13.6,17.3,13.5z M14.4,10.5c0.1,0,0.1-0.1,0.1-0.1c-0.1-0.1-0.3-0.2-0.4-0.3c0,0.1,0,0.1,0,0.2
			C14.3,10.5,14.3,10.5,14.4,10.5z M17,12.5c0,0.2-0.1,0.3-0.2,0.4c0.1,0.1,0.2,0.2,0.3,0.2c0.2,0,0.4-0.1,0.5-0.2
			c-0.2-0.1-0.3-0.3-0.5-0.4C17.1,12.6,17.1,12.6,17,12.5z M14.3,16c-0.1,0-0.1-0.1-0.1-0.1c-0.1,0-0.2,0-0.3-0.1c0-0.1,0-0.1,0-0.2
			c-0.3-0.1-0.2-0.3-0.3-0.5C13.7,15,13.7,15,13.6,15c-0.1,0-0.1,0-0.1,0.1c0,0.1,0,0.2,0,0.3c-0.1,0-0.1,0.1-0.2,0.2
			c0.3,0.2,0.5,0.4,0.8,0.7C14.2,16.1,14.2,16.1,14.3,16z M15.4,16.7c0-0.1-0.1-0.1-0.1-0.2s0-0.1,0-0.1c-0.2-0.1-0.6-0.2-0.7,0
			c0,0,0,0.1,0,0.2c0.1,0.1,0.2,0.2,0.3,0.3C15.1,16.8,15.3,16.8,15.4,16.7z M26.8,19.7c-0.1,0-0.1,0-0.2-0.1
			c-0.1,0.1-0.1,0.1-0.3,0.1c0,0.1,0,0.1-0.1,0.2c0,0.2,0.3,0.4,0.4,0.2c0-0.1,0.1-0.1,0.2-0.1C26.8,19.8,26.8,19.8,26.8,19.7z
			 M28.5,19.9c-0.2,0-0.4,0.2-0.3,0.4c0.1,0,0.1-0.1,0.2,0C28.4,20.2,28.6,20.1,28.5,19.9z M26.9,17.8c0.3,0,0.4,0.2,0.6,0.3
			c0.1,0,0.2-0.1,0.2-0.3c0-0.1,0-0.1,0-0.2c-0.2-0.1-0.4,0-0.7,0C26.9,17.7,26.9,17.8,26.9,17.8z M30.2,19.2
			c-0.2,0.1-0.2,0.3-0.1,0.5c0.1,0,0.3-0.1,0.3-0.1c0-0.1,0-0.1,0.1-0.1C30.4,19.2,30.4,19.1,30.2,19.2z M29,18.4
			c-0.1,0-0.1,0-0.1,0.1c0.1,0.4,0.3,0.6,0.6,0.3C29.6,18.5,29.3,18.3,29,18.4z M28.8,17.8c0-0.1,0-0.1,0.1-0.1
			c0-0.2-0.2-0.4-0.2-0.6c0.1-0.2,0-0.3,0-0.4c-0.1,0-0.1,0-0.1,0c-0.3,0.2-0.4,0.6-0.6,0.9c0,0.4,0.4,0.4,0.7,0.4
			C28.6,17.9,28.7,17.9,28.8,17.8z M26.5,21.1c0.1,0,0.1-0.1,0.1-0.2c0-0.1-0.1-0.1-0.1-0.1c0,0.1-0.1,0.1-0.1,0.2
			C26.5,21,26.4,21.1,26.5,21.1z M25.5,18.4c0-0.2,0.1-0.4,0.1-0.5c0.2,0.1,0.5,0.2,0.2,0.5C25.7,18.4,25.6,18.4,25.5,18.4z
			 M24.9,19.1c0.1-0.2-0.1-0.4,0-0.6c-0.2-0.1-0.4,0.1-0.3,0.3C24.5,19,24.6,19.2,24.9,19.1z M24,19c0-0.1-0.1-0.2-0.1-0.2
			c-0.1,0-0.1,0-0.2,0.1c0,0,0,0,0,0.1C23.8,19.2,23.9,19.2,24,19z M23.9,19.8c0,0.1-0.1,0.3,0,0.4c0.1,0,0.3,0.1,0.4,0
			c0-0.1,0-0.1,0.1-0.1c-0.1-0.2-0.2-0.3-0.4-0.4C24,19.8,23.9,19.8,23.9,19.8z M24.9,19.8c0-0.1-0.1-0.1-0.1-0.1
			c0,0.1-0.1,0.1-0.1,0.2c0.1,0,0.1,0,0.1,0C24.8,20,24.8,19.9,24.9,19.8z M25.1,20.7c0.1,0.1,0.3,0,0.4,0c0.1-0.2,0.2-0.3,0-0.5
			c0-0.2-0.2-0.2-0.4-0.1C25,20.3,25,20.5,25.1,20.7z M25,22.2c0-0.1-0.1-0.2-0.2-0.2c-0.1,0-0.1,0.1-0.1,0.2
			c-0.1,0.2,0.1,0.3,0.3,0.2C24.9,22.2,24.9,22.2,25,22.2z M25.3,21.5c0-0.1,0.1-0.1,0.1-0.2c-0.2-0.2-0.4,0-0.6,0.1
			c0,0.1,0,0.1-0.1,0.1C24.9,21.7,25.1,21.6,25.3,21.5z M29.6,20.2c0.1,0,0.1,0,0.2,0.1c-0.1,0.1-0.3,0.1-0.4,0.2c0-0.1,0-0.1,0-0.2
			C29.5,20.2,29.5,20.2,29.6,20.2z M26.3,21.7c-0.1-0.1-0.2-0.2-0.3-0.3c-0.1,0-0.2,0.1-0.3,0.1c-0.1,0.2-0.1,0.4,0,0.5
			c0.2-0.1,0.4-0.1,0.6-0.2C26.2,21.8,26.2,21.7,26.3,21.7z M24.4,17.7c0-0.1,0.1,0,0.1,0c0-0.1,0.1-0.2,0.2-0.2
			c0.1,0,0.1,0,0.1,0.1c0.2-0.2,0.4-0.1,0.6,0c0.1,0,0.1,0,0.2-0.1c0-0.1,0.1-0.1,0-0.1c-0.1,0-0.2-0.1-0.3-0.1c0-0.1,0-0.2,0-0.3
			c-0.3,0.1-0.6,0.3-1,0.4C24.4,17.5,24.4,17.6,24.4,17.7z M23.3,18.3c0.1,0,0.1,0,0.2,0s0.1,0,0.1,0c0.2-0.1,0.5-0.4,0.4-0.6
			c0,0-0.1,0-0.2-0.1c-0.1,0.1-0.3,0.1-0.4,0.2C23.3,18,23.3,18.1,23.3,18.3z"/>
	</g>
	<g>
		<g>
			<g>
				<path class="st0" d="M105.7,16.4h2.8v2.4h2.4V9.4h-3.5v0.5h0.4c0.4,0,0.7,0.3,0.7,0.6v1.3h-2.8V10h-3.3v0.5h0.2
					c0.4,0,0.7,0.3,0.7,0.7l0,0v1.5h-3.6V10h-3.3v0.5h0.2c0.4,0,0.7,0.3,0.7,0.7l0,0v5.2c0,1,0.8,1.9,1.9,1.9h6.6L105.7,16.4
					L105.7,16.4z M105.7,13.4h2.8v1.6h-2.8V13.4z M103.3,16.7h-3.6v-2.6h3.6V16.7z"/>
				<path class="st0" d="M144.4,23.8V10.6h-12v1.5h9.6v11.7h-1.9v-6.7h-3.3v0.5h0.2c0.4,0,0.7,0.3,0.7,0.6v5.5h-1.7v-6.7h-3.3v0.5
					h0.2c0.4,0,0.7,0.3,0.7,0.7l0,0v5.5h-2.8v1.5h15.6v-1.5H144.4z"/>
				<path class="st0" d="M55.9,9.9h0.5c0.4,0,0.7,0.3,0.7,0.7l0,0v3.9h-3.3v1.4H57v11.2h2.4V9.4h-3.5L55.9,9.9L55.9,9.9z"/>
				<path class="st0" d="M124.7,9.4v0.5h0.4c0.4,0,0.7,0.3,0.7,0.7v0v16.5h2.4V9.4H124.7z"/>
				<path class="st0" d="M147.6,17.6v1.5h4.2v2.2h-2.3v1.5h9.4v4.3h2.4v-5.8H159v-2.2h4.2v-1.5H147.6z M156.6,21.3h-2.4v-2.2h2.4
					V21.3z"/>
				<path class="st0" d="M155.4,16.9c2.6,0,4.7-1.8,4.7-3.9S158,9,155.4,9s-4.7,1.8-4.7,3.9C150.8,15.1,152.9,16.9,155.4,16.9z
					 M155.4,10.4c1.3,0,2.3,1.1,2.3,2.5s-1,2.5-2.3,2.5s-2.3-1.1-2.3-2.5C153.1,11.6,154.2,10.4,155.4,10.4z"/>
				<polygon class="st0" points="81.3,22.6 90.5,22.6 90.5,27 92.9,27 92.9,21.1 81.3,21.1 				"/>
				<rect x="79.4" y="18.3" class="st0" width="15.6" height="1.5"/>
				<path class="st0" d="M69.7,16.8c2.5,0,4.6-1.7,4.6-3.9s-2.1-3.9-4.6-3.9s-4.6,1.7-4.6,3.9C65.1,15.1,67.1,16.8,69.7,16.8z
					 M69.7,10.3c1.2,0,2.2,1.2,2.2,2.6s-1,2.6-2.2,2.6s-2.2-1.2-2.2-2.6C67.5,11.5,68.5,10.3,69.7,10.3z"/>
				<path class="st0" d="M61.9,19.1h6.6v1.2h-4.6v1.5h9V23h-9.2v0.5h0.1c0.4,0,0.7,0.3,0.7,0.7l0,0v1.1c0,1,0.8,1.9,1.9,1.9h9.1
					v-1.5h-8.6v-1.1h8.4v-4.1h-4.3v-1.2h6.6v-1.5H61.9V19.1z"/>
				<path class="st0" d="M102.8,23.9h8.1v-4.4h-11v1.5h8.6v1.4h-8.9v0.5h0.1c0.4,0,0.7,0.3,0.7,0.6v1.4c0,1,0.8,1.9,1.9,1.9h8.8
					v-1.5h-8.3L102.8,23.9L102.8,23.9z"/>
				<path class="st0" d="M81.2,10.9L81.2,10.9v4.1c0,1,0.8,1.9,1.8,1.9h10.2v-1.4h-9.6V14H93v-1.4h-9.3v-1.5h9.6V9.8H80.4v0.5h0.1
					C80.9,10.2,81.2,10.6,81.2,10.9z"/>
			</g>
			<path class="st0" d="M51.1,10v3.5c0,3.9,2.1,6.1,4.4,6.9l-0.9,1.1c-1.9-0.5-3.9-1.9-4.8-3.5c-0.9,1.7-2.9,3-4.8,3.5l-0.9-1.1
				c2.3-0.8,4.4-3,4.4-6.9v-2.3v0c0-0.4-0.3-0.7-0.7-0.7h-0.2V10C47.7,10,51.1,10,51.1,10z"/>
			<path class="st0" d="M119.9,10v3.5c0,3.9,2.1,6.1,4.4,6.9l-0.9,1.1c-1.9-0.5-3.9-1.9-4.8-3.5c-0.9,1.7-2.9,3-4.8,3.5l-0.9-1.1
				c2.3-0.8,4.4-3,4.4-6.9v-2.3v0c0-0.4-0.3-0.7-0.7-0.7h-0.2V10C116.5,10,119.9,10,119.9,10z"/>
		</g>
		<path class="st0" d="M175.8,9.4v0.5h0.4c0.4,0,0.7,0.3,0.7,0.7v0v3.1h-3.1v1.5h3.1v3.9h2.4V9.4L175.8,9.4L175.8,9.4z"/>
		<path class="st0" d="M174.2,19.4c-2.7,0-4.8,1.8-4.8,4.1c0,2.2,2.2,4.1,4.8,4.1s4.8-1.8,4.8-4.1S176.8,19.4,174.2,19.4z
			 M174.2,26.1c-1.3,0-2.4-1.2-2.4-2.7s1.1-2.7,2.4-2.7c1.3,0,2.4,1.2,2.4,2.7S175.5,26.1,174.2,26.1z"/>
		<g>
			<path class="st0" d="M175.1,17.3c-0.2,0-4-1-4.1-4.6h3.6v-1.5H171V9.3h-3.3v0.5h0.2c0.4,0,0.7,0.3,0.7,0.6v0.8H165v1.5h3.5
				c-0.1,3.5-3.8,4.5-4.1,4.6l0.9,1.2c1.4-0.3,3-1,4.4-2.6c1.4,1.7,3,2.4,4.4,2.7L175.1,17.3z"/>
		</g>
	</g>
</g>
</svg>
