<?xml version="1.0" encoding="utf-8"?>
<!-- Generator: Adobe Illustrator 27.0.0, SVG Export Plug-In . SVG Version: 6.00 Build 0)  -->
<svg version="1.1" id="Layer_1" xmlns="http://www.w3.org/2000/svg" xmlns:xlink="http://www.w3.org/1999/xlink" x="0px" y="0px"
	 width="145px" height="40px" viewBox="0 0 145 40" style="enable-background:new 0 0 145 40;" xml:space="preserve">
<style type="text/css">
	.st0{clip-path:url(#SVGID_00000067946860116319124640000003823459163645390245_);fill:#2A3960;}
	.st1{clip-path:url(#SVGID_00000026866648811980989770000004467647950237547908_);}
	.st2{clip-path:url(#SVGID_00000005260737267863823330000015855719401281469347_);fill:#2A3960;}
	.st3{clip-path:url(#SVGID_00000010310927131190940120000000537658932513724805_);fill:#2A3960;}
	.st4{clip-path:url(#SVGID_00000085232657582298843600000014554377248601792140_);fill:#2A3960;}
	.st5{clip-path:url(#SVGID_00000101804622315957660970000003449227090380042173_);fill:#2A3960;}
	.st6{clip-path:url(#SVGID_00000052074934140039365250000004784402375510999481_);fill:#2A3960;}
	.st7{clip-path:url(#SVGID_00000018220136695927307070000010818333984212120757_);fill:#2A3960;}
	.st8{clip-path:url(#SVGID_00000096750805128024474930000011581408049693189284_);fill:#2A3960;}
	.st9{clip-path:url(#SVGID_00000098906521513626153150000003214140878605208463_);fill:#2A3960;}
	.st10{clip-path:url(#SVGID_00000090279392045913562710000018176918276675960744_);fill:#2A3960;}
	.st11{clip-path:url(#SVGID_00000168815972073192905730000011236631511030108057_);fill:#2A3960;}
	.st12{clip-path:url(#SVGID_00000127013221775249323390000012244522969503846541_);fill:#2A3960;}
	.st13{clip-path:url(#SVGID_00000110464509937778509730000012925146275250964149_);fill:#2A3960;}
	.st14{clip-path:url(#SVGID_00000147928636190694463120000015276897670204067209_);fill:#2A3960;}
</style>
<g id="기본_00000074422007419918904090000009148225113009616311_">
	<g>
		<g>
			<g>
				<defs>
					<rect id="SVGID_1_" x="0.5" y="5.9" width="144" height="28.1"/>
				</defs>
				<clipPath id="SVGID_00000181064158915158340450000013201485701563813028_">
					<use xlink:href="#SVGID_1_"  style="overflow:visible;"/>
				</clipPath>
				<polygon style="clip-path:url(#SVGID_00000181064158915158340450000013201485701563813028_);fill:#2A3960;" points="28.6,30.4 
					28.6,9.9 41.3,9.9 41.3,13.1 32.7,13.1 32.7,18.8 39.4,18.8 39.4,22 32.7,22 32.7,30.4 				"/>
			</g>
		</g>
		<g>
			<g>
				<defs>
					<rect id="SVGID_00000109725335606989167700000013498917970309349044_" x="0.5" y="5.9" width="144" height="28.1"/>
				</defs>
				<clipPath id="SVGID_00000072993480451705792400000009632537636341087898_">
					<use xlink:href="#SVGID_00000109725335606989167700000013498917970309349044_"  style="overflow:visible;"/>
				</clipPath>
				<g style="clip-path:url(#SVGID_00000072993480451705792400000009632537636341087898_);">
					<g>
						<g>
							<defs>
								<rect id="SVGID_00000159457532556446379160000016337191968183068342_" x="0.5" y="5.9" width="144" height="28.1"/>
							</defs>
							<clipPath id="SVGID_00000046322510900195558330000002255898956197557179_">
								<use xlink:href="#SVGID_00000159457532556446379160000016337191968183068342_"  style="overflow:visible;"/>
							</clipPath>
							<path style="clip-path:url(#SVGID_00000046322510900195558330000002255898956197557179_);fill:#2A3960;" d="M59.4,28.1
								c-1.7,1.8-3.9,2.7-6.7,2.7s-5-0.9-6.6-2.6s-2.5-4.3-2.5-7.6v-0.7c0-3.3,0.9-5.8,2.6-7.6c1.7-1.8,3.9-2.7,6.7-2.7
								s5,0.9,6.6,2.6c1.7,1.7,2.5,4.3,2.5,7.6v0.7C62,23.7,61.1,26.3,59.4,28.1 M52.8,27.5c1.6,0,2.8-0.6,3.6-1.8
								c0.8-1.2,1.2-2.8,1.2-4.9v-1c0-2.3-0.4-4.1-1.2-5.3s-2-1.8-3.8-1.8c-1.6,0-2.7,0.6-3.5,1.8c-0.8,1.2-1.2,2.8-1.2,4.9v1
								C47.9,25.2,49.5,27.5,52.8,27.5"/>
						</g>
					</g>
					<g>
						<g>
							<defs>
								<rect id="SVGID_00000141427577303305676680000005415516952696283569_" x="0.5" y="5.9" width="144" height="28.1"/>
							</defs>
							<clipPath id="SVGID_00000067931714608500710920000013876369575679012275_">
								<use xlink:href="#SVGID_00000141427577303305676680000005415516952696283569_"  style="overflow:visible;"/>
							</clipPath>
							<polygon style="clip-path:url(#SVGID_00000067931714608500710920000013876369575679012275_);fill:#2A3960;" points="
								63.8,30.4 70.1,19.9 64.3,9.9 68.9,9.9 73,17.1 73.1,17.1 77,9.9 81.1,9.9 75.5,19.8 81.5,30.4 76.9,30.4 72.5,22.7 
								72.4,22.7 68,30.4 							"/>
						</g>
					</g>
					<g>
						<g>
							<defs>
								<rect id="SVGID_00000152259924094677788490000001220047223817127074_" x="0.5" y="5.9" width="144" height="28.1"/>
							</defs>
							<clipPath id="SVGID_00000170263676026442922240000014673102065302469539_">
								<use xlink:href="#SVGID_00000152259924094677788490000001220047223817127074_"  style="overflow:visible;"/>
							</clipPath>
							<polygon style="clip-path:url(#SVGID_00000170263676026442922240000014673102065302469539_);fill:#2A3960;" points="
								92.1,30.4 92.1,9.9 104.9,9.9 104.9,13.1 96.2,13.1 96.2,18.3 103,18.3 103,21.5 96.2,21.5 96.2,27.2 105.1,27.2 105.1,30.4 
															"/>
						</g>
					</g>
					<g>
						<g>
							<defs>
								<rect id="SVGID_00000098911249853930289820000004305380010839044506_" x="0.5" y="5.9" width="144" height="28.1"/>
							</defs>
							<clipPath id="SVGID_00000160176445815149909080000002146007225022662787_">
								<use xlink:href="#SVGID_00000098911249853930289820000004305380010839044506_"  style="overflow:visible;"/>
							</clipPath>
							<path style="clip-path:url(#SVGID_00000160176445815149909080000002146007225022662787_);fill:#2A3960;" d="M108.9,30.4V9.9
								h6.8c6.5,0,9.7,3.3,9.7,9.8v0.6c0,3.3-0.8,5.9-2.4,7.6c-1.6,1.7-4,2.6-7.2,2.6C115.8,30.4,108.9,30.4,108.9,30.4z
								 M113.1,27.2h2.7c1.8,0,3.2-0.5,4-1.5c0.8-1,1.3-2.7,1.3-5.1v-1c0-2.4-0.5-4.1-1.4-5.1c-0.9-1-2.3-1.5-4.2-1.5h-2.5
								L113.1,27.2L113.1,27.2z"/>
						</g>
					</g>
					<g>
						<g>
							<defs>
								<rect id="SVGID_00000176031175086241096140000012954388722442105235_" x="0.5" y="5.9" width="144" height="28.1"/>
							</defs>
							<clipPath id="SVGID_00000056388835256427757930000012724060788984369064_">
								<use xlink:href="#SVGID_00000176031175086241096140000012954388722442105235_"  style="overflow:visible;"/>
							</clipPath>
							<path style="clip-path:url(#SVGID_00000056388835256427757930000012724060788984369064_);fill:#2A3960;" d="M136.8,30.8
								c-5.4,0-8.1-2.5-8.1-7.6V9.9h4.2v13.1c0,1.7,0.3,2.9,1,3.6c0.6,0.7,1.7,1,3.1,1c1.3,0,2.3-0.4,2.9-1c0.6-0.7,0.9-1.9,0.9-3.6
								v-13h3.8v13.2c0,2.6-0.6,4.6-1.9,5.8C141.3,30.2,139.4,30.8,136.8,30.8"/>
						</g>
					</g>
					<g>
						<g>
							<defs>
								<rect id="SVGID_00000120531663965480746850000017484753071828804526_" x="0.5" y="5.9" width="144" height="28.1"/>
							</defs>
							<clipPath id="SVGID_00000011710859667594304730000009463114571096075668_">
								<use xlink:href="#SVGID_00000120531663965480746850000017484753071828804526_"  style="overflow:visible;"/>
							</clipPath>
							<path style="clip-path:url(#SVGID_00000011710859667594304730000009463114571096075668_);fill:#2A3960;" d="M18.9,8.8
								c-0.1,0-0.3,0-0.4,0v15.4l-7.3,7.3c0.2,0.1,0.4,0.3,0.5,0.5l7.4-7.4l0.1-0.1V8.8C19.2,8.8,19,8.8,18.9,8.8"/>
						</g>
					</g>
					<g>
						<g>
							<defs>
								<rect id="SVGID_00000085946645415260663200000014628481630161032088_" x="0.5" y="5.9" width="144" height="28.1"/>
							</defs>
							<clipPath id="SVGID_00000072997868104643875450000007125412752262552762_">
								<use xlink:href="#SVGID_00000085946645415260663200000014628481630161032088_"  style="overflow:visible;"/>
							</clipPath>
							<path style="clip-path:url(#SVGID_00000072997868104643875450000007125412752262552762_);fill:#2A3960;" d="M2.5,8.5l7.7,7.7
								l7.7-7.7c-0.2-0.1-0.4-0.3-0.5-0.5l-7.1,7.1L3.1,8C2.9,8.2,2.8,8.4,2.5,8.5"/>
						</g>
					</g>
					<g>
						<g>
							<defs>
								<rect id="SVGID_00000072275930975284582520000001039184203778607028_" x="0.5" y="5.9" width="144" height="28.1"/>
							</defs>
							<clipPath id="SVGID_00000053517821253398622330000005086608758821558151_">
								<use xlink:href="#SVGID_00000072275930975284582520000001039184203778607028_"  style="overflow:visible;"/>
							</clipPath>
							<path style="clip-path:url(#SVGID_00000053517821253398622330000005086608758821558151_);fill:#2A3960;" d="M9.2,31.5
								l-7.3-7.3V8.8c-0.1,0-0.2,0-0.4,0c-0.1,0-0.3,0-0.4,0v15.7L8.6,32C8.8,31.8,9,31.6,9.2,31.5"/>
						</g>
					</g>
					<g>
						<g>
							<defs>
								<rect id="SVGID_00000148650103284164501860000015473939183459951765_" x="0.5" y="5.9" width="144" height="28.1"/>
							</defs>
							<clipPath id="SVGID_00000108995564266632319460000015558679243594558137_">
								<use xlink:href="#SVGID_00000148650103284164501860000015473939183459951765_"  style="overflow:visible;"/>
							</clipPath>
							<path style="clip-path:url(#SVGID_00000108995564266632319460000015558679243594558137_);fill:#2A3960;" d="M18.9,5.9
								c-0.6,0-1,0.5-1,1c0,0.6,0.5,1,1,1s1-0.5,1-1C19.9,6.4,19.5,5.9,18.9,5.9"/>
						</g>
					</g>
					<g>
						<g>
							<defs>
								<rect id="SVGID_00000065773710153180498890000014700353832087433604_" x="-8.2" y="-118.6" width="28.1" height="144"/>
							</defs>
							<clipPath id="SVGID_00000049219186399091010540000016526948732694450067_">
								<use xlink:href="#SVGID_00000065773710153180498890000014700353832087433604_"  style="overflow:visible;"/>
							</clipPath>
							
								<rect x="1.2" y="19.7" transform="matrix(0.7071 -0.7071 0.7071 0.7071 -12.4276 9.9984)" style="clip-path:url(#SVGID_00000049219186399091010540000016526948732694450067_);fill:#2A3960;" width="9.3" height="0.5"/>
						</g>
					</g>
					<g>
						<g>
							<defs>
								<rect id="SVGID_00000119080421396629233340000004480243464558125463_" x="0.5" y="-109.9" width="28.1" height="144"/>
							</defs>
							<clipPath id="SVGID_00000111869603283166060740000003328093377865392822_">
								<use xlink:href="#SVGID_00000119080421396629233340000004480243464558125463_"  style="overflow:visible;"/>
							</clipPath>
							
								<rect x="14.3" y="15.4" transform="matrix(0.7071 -0.7071 0.7071 0.7071 -9.8803 16.148)" style="clip-path:url(#SVGID_00000111869603283166060740000003328093377865392822_);fill:#2A3960;" width="0.5" height="9.3"/>
						</g>
					</g>
					<g>
						<g>
							<defs>
								<rect id="SVGID_00000127755218296178614520000000906786389230839215_" x="0.5" y="5.9" width="144" height="28.1"/>
							</defs>
							<clipPath id="SVGID_00000104671427920780190810000002523803262801918095_">
								<use xlink:href="#SVGID_00000127755218296178614520000000906786389230839215_"  style="overflow:visible;"/>
							</clipPath>
							<path style="clip-path:url(#SVGID_00000104671427920780190810000002523803262801918095_);fill:#2A3960;" d="M1.5,5.9
								c-0.6,0-1,0.5-1,1c0,0.6,0.5,1,1,1c0.6,0,1-0.5,1-1C2.5,6.4,2.1,5.9,1.5,5.9"/>
						</g>
					</g>
					<g>
						<g>
							<defs>
								<rect id="SVGID_00000144323772601803844690000005138520716177486740_" x="0.5" y="5.9" width="144" height="28.1"/>
							</defs>
							<clipPath id="SVGID_00000068678186170721629050000011051291567937341350_">
								<use xlink:href="#SVGID_00000144323772601803844690000005138520716177486740_"  style="overflow:visible;"/>
							</clipPath>
							<path style="clip-path:url(#SVGID_00000068678186170721629050000011051291567937341350_);fill:#2A3960;" d="M10.2,32
								c-0.6,0-1,0.5-1,1c0,0.6,0.5,1,1,1c0.6,0,1-0.5,1-1C11.2,32.5,10.8,32,10.2,32"/>
						</g>
					</g>
				</g>
			</g>
		</g>
	</g>
</g>
</svg>
