<?xml version="1.0" encoding="utf-8"?>
<!-- Generator: Adobe Illustrator 27.0.0, SVG Export Plug-In . SVG Version: 6.00 Build 0)  -->
<svg version="1.1" id="레이어_1" xmlns="http://www.w3.org/2000/svg" xmlns:xlink="http://www.w3.org/1999/xlink" x="0px"
	 y="0px" width="129px" height="40px" viewBox="0 0 129 40" style="enable-background:new 0 0 129 40;" xml:space="preserve">
<style type="text/css">
	.st0{fill:#575756;}
	.st1{fill:url(#SVGID_1_);}
	.st2{fill:url(#SVGID_00000155146443378565756190000006332066208289795234_);}
	.st3{fill:#654D18;}
	.st4{fill:url(#SVGID_00000146478613643411179180000011114609315758789289_);}
	.st5{fill:url(#SVGID_00000163769763459799795040000012844146418510945422_);}
	.st6{fill:url(#SVGID_00000088832355150963998390000005459465236814123182_);}
	.st7{fill:url(#SVGID_00000146497887438220448010000014315345743404813491_);}
	.st8{fill:#333332;}
	.st9{fill:#1D1D1B;}
</style>
<g>
	<g id="_레이어_1">
		<g>
			<g>
				<g>
					<path class="st0" d="M1.721,10.666c0-2.792,0-3.333,0-3.963s-0.18-0.901-0.811-0.991c-0.18,0-0.45,0-0.631,0
						c-0.09,0-0.18-0.09-0.18-0.18s0.09-0.18,0.27-0.18c0.901,0,2.072,0,2.162,0c0.18,0,1.441,0,2.522,0
						c1.892,0,5.315-0.18,7.566,2.072c0.901,0.901,1.892,2.432,1.892,4.594c0,2.252-0.991,4.053-2.072,5.134
						c-0.811,0.811-2.522,2.072-5.765,2.072c-0.811,0-1.802-0.09-2.612-0.09c-0.811-0.09-1.441-0.09-1.531-0.09c0,0-0.36,0-0.811,0
						c-0.36,0-0.811,0-1.171,0c-0.18,0-0.27,0-0.27-0.18c0-0.09,0-0.18,0.18-0.18s0.45,0,0.54-0.09c0.36-0.09,0.45-0.45,0.45-0.991
						c0.09-0.721,0.09-2.162,0.09-3.963L1.721,10.666L1.721,10.666z M3.433,12.647c0,1.892,0,3.603,0,3.963
						c0,0.45,0.09,1.081,0.18,1.351c0.27,0.36,0.901,0.721,3.153,0.721c1.711,0,3.243-0.54,4.414-1.621
						c0.991-0.901,1.441-2.702,1.441-4.324c0-2.342-0.991-3.783-1.802-4.594C9.018,6.342,6.946,6.072,4.694,6.072
						c-0.27-0.09-0.901,0-1.081,0.09c-0.09,0-0.18,0.09-0.18,0.36V12.647L3.433,12.647z"/>
					<path class="st0" d="M21.358,5.711c0.18-0.631,0.27-0.721,0.45-0.721c0.18,0,0.27,0.27,0.45,0.631
						c0.36,0.811,3.333,8.287,4.504,11.08c0.721,1.621,1.171,1.892,1.621,1.982c0.27,0.09,0.54,0.09,0.721,0.09
						c0.09,0,0.27,0,0.27,0.18c0,0.09-0.18,0.18-0.45,0.18s-1.711,0-2.973,0c-0.36,0-0.631,0-0.631-0.09c0-0.09,0-0.09,0.09-0.09
						c0.09,0,0.27-0.18,0.18-0.45l-1.711-4.144c0-0.09-0.09-0.09-0.18-0.09h-4.324c-0.09,0-0.18,0-0.18,0.18l-1.081,2.882
						c-0.18,0.45-0.27,0.901-0.27,1.261c0,0.36,0.36,0.45,0.631,0.45h0.18c0.18,0,0.18,0.09,0.18,0.18c0,0.09-0.09,0.18-0.27,0.18
						c-0.45,0-1.441-0.09-1.711-0.09c-0.18,0-1.171,0.09-1.892,0.09c-0.27,0-0.36,0-0.36-0.18c0-0.09,0.09-0.18,0.18-0.18
						c0.09,0,0.45,0,0.54,0c0.901-0.09,1.261-0.721,1.621-1.711L21.358,5.711z M23.43,13.278c0.09,0,0.09,0,0.09-0.09l-1.892-5.044
						c-0.09-0.27-0.18-0.27-0.36,0l-1.802,5.044c0,0.09,0,0.09,0.09,0.09L23.43,13.278L23.43,13.278z"/>
					<path class="st0" d="M34.149,13.818c0,1.802,0,3.153,0.09,3.963c0.09,0.54,0.18,0.901,0.721,0.991
						c0.27,0,0.721,0.09,0.901,0.09c0.09,0,0.18,0.09,0.18,0.18c0,0.09-0.09,0.18-0.27,0.18c-0.991,0-2.252-0.09-2.342-0.09
						c-0.09,0-1.441,0.09-1.982,0.09c-0.18,0-0.27,0-0.27-0.18c0-0.09,0-0.09,0.18-0.09c0.18,0,0.36,0,0.54-0.09
						c0.36-0.09,0.45-0.45,0.54-0.991c0.09-0.721,0.09-2.162,0.09-3.963V6.162h-2.702c-1.171,0-1.621,0.18-1.892,0.54
						c-0.18,0.36-0.27,0.45-0.27,0.54c0,0.18-0.09,0.18-0.18,0.18c0,0-0.09,0-0.09-0.18c0-0.18,0.36-1.802,0.45-1.982
						c0-0.09,0.09-0.36,0.18-0.36c0.09,0,0.36,0.18,0.811,0.18c0.54,0.09,1.261,0.09,1.441,0.09h7.116c0.631,0,1.081,0,1.351-0.09
						c0.27,0,0.45-0.09,0.54-0.09s0.09,0.09,0.09,0.18c0,0.54-0.09,1.892-0.09,2.072c0,0.18-0.09,0.27-0.18,0.27
						c-0.09,0-0.09-0.09-0.18-0.36v-0.18c-0.09-0.54-0.45-0.991-2.252-0.991h-2.342L34.149,13.818L34.149,13.818z"/>
					<path class="st0" d="M44.688,5.711c0.27-0.631,0.36-0.721,0.45-0.721c0.18,0,0.27,0.27,0.45,0.631
						c0.36,0.811,3.333,8.287,4.504,11.08c0.721,1.621,1.171,1.892,1.621,1.982c0.27,0.09,0.54,0.09,0.721,0.09
						c0.09,0,0.27,0,0.27,0.18c0,0.09-0.18,0.18-0.45,0.18c-0.27,0-1.711,0-2.973,0c-0.36,0-0.631,0-0.631-0.09
						c0-0.09,0.09-0.09,0.09-0.09c0.09,0,0.27-0.18,0.18-0.45l-1.711-4.144c0-0.09-0.09-0.09-0.18-0.09h-4.324
						c-0.09,0-0.18,0-0.18,0.18l-1.081,2.702c-0.18,0.45-0.27,0.901-0.27,1.261c0,0.36,0.36,0.45,0.631,0.45h0.18
						c0.18,0,0.18,0.09,0.18,0.18c0,0.09-0.09,0.18-0.27,0.18c-0.45,0-1.441-0.09-1.711-0.09c-0.18,0-1.171,0.09-1.892,0.09
						c-0.27,0-0.36,0-0.36-0.18c0-0.09,0.09-0.18,0.18-0.18c0.09,0,0.45,0,0.54,0c0.901-0.09,1.261-0.721,1.621-1.711L44.688,5.711z
						 M46.76,13.278c0.09,0,0.09,0,0.09-0.09l-1.892-5.044c-0.09-0.27-0.18-0.27-0.36,0l-1.802,5.044c0,0.09,0,0.09,0.09,0.09H46.76
						z"/>
				</g>
				<g>
					<g>
						
							<linearGradient id="SVGID_1_" gradientUnits="userSpaceOnUse" x1="-246.304" y1="-1074.9556" x2="-201.9229" y2="-1064.1256" gradientTransform="matrix(0.9041 -0.4273 -0.4273 -0.9041 -194.4925 -1039.1624)">
							<stop  offset="0" style="stop-color:#93C01F"/>
							<stop  offset="1" style="stop-color:#006633"/>
						</linearGradient>
						<path class="st1" d="M58.56,23.186c2.072,0,4.234,0,6.305-0.09c2.432-0.09,4.864-0.27,7.296-1.171
							c1.171-0.45,2.342-0.991,3.333-1.802c0.45-0.36,0.991-0.811,1.351-1.351c0.36-0.45,0.811-0.991,1.081-1.531
							c0.631-1.081,1.081-2.342,1.171-3.603c0.09-1.261-0.09-2.612-0.811-3.783c-0.36-0.54-0.811-1.081-1.261-1.531
							c-0.27-0.18-0.54-0.45-0.721-0.631c-0.27-0.18-0.54-0.36-0.811-0.54c-0.54-0.27-1.171-0.54-1.892-0.721
							c-0.631-0.09-1.351-0.18-1.982-0.09c-1.351,0.18-2.522,0.811-3.603,1.531c-1.081,0.721-1.982,1.621-2.792,2.522
							c-3.153,3.603-5.134,7.837-6.936,12.16l-0.18,0.36L58.56,23.186 M58.56,23.186l19.727-9.548
							c-0.09,1.171-0.45,2.252-1.081,3.243c-0.27,0.54-0.631,0.991-0.991,1.441c-0.36,0.45-0.811,0.901-1.261,1.261
							c-0.901,0.721-1.982,1.351-3.063,1.711c-2.252,0.811-4.684,1.081-7.116,1.261c-2.072,0.09-4.053,0.18-6.125,0.18
							c0.901-1.892,1.802-3.873,2.973-5.585c0.631-0.991,1.351-1.982,2.072-2.973c0.721-0.991,1.441-1.892,2.342-2.792
							c0.811-0.811,1.711-1.621,2.702-2.252c0.991-0.631,1.982-1.081,3.063-1.261c1.081-0.18,2.162-0.09,3.243,0.36
							c0.901,0.54,1.892,1.261,2.522,2.162s0.811,2.072,0.721,3.243L58.56,23.186z"/>
						
							<linearGradient id="SVGID_00000018921343497734289580000001725528544676065463_" gradientUnits="userSpaceOnUse" x1="-246.8256" y1="-1072.8201" x2="-202.4427" y2="-1061.99" gradientTransform="matrix(0.9041 -0.4273 -0.4273 -0.9041 -194.4925 -1039.1624)">
							<stop  offset="0" style="stop-color:#93C01F"/>
							<stop  offset="1" style="stop-color:#006633"/>
						</linearGradient>
						<path style="fill:url(#SVGID_00000018921343497734289580000001725528544676065463_);" d="M58.2,22.826
							c-2.072,0.09-4.234,0.27-6.305,0.45c-2.432,0.18-4.864,0.54-7.206,1.441c-1.171,0.45-2.252,1.081-3.243,1.892
							c-0.45,0.45-0.901,0.901-1.261,1.351s-0.721,0.991-0.991,1.621c-0.54,1.081-0.991,2.342-0.991,3.603
							c-0.09,1.261,0.27,2.612,0.991,3.693c0.36,0.54,0.811,0.991,1.351,1.441c0.27,0.18,0.54,0.45,0.811,0.54
							c0.27,0.18,0.54,0.36,0.901,0.45c0.631,0.27,1.261,0.45,1.892,0.631c0.631,0.09,1.351,0.09,1.982-0.09
							c1.351-0.27,2.522-0.901,3.513-1.711c0.991-0.811,1.892-1.711,2.612-2.702c2.973-3.783,4.774-8.107,6.395-12.431l0.18-0.36
							L58.2,22.826 M58.2,22.826L38.923,33.275c0-1.171,0.36-2.252,0.901-3.333c0.27-0.54,0.54-0.991,0.901-1.531
							c0.36-0.45,0.721-0.901,1.171-1.261c0.901-0.811,1.892-1.441,2.973-1.892c2.162-0.901,4.594-1.351,7.026-1.531
							c2.072-0.18,4.053-0.36,6.125-0.54c-0.811,1.982-1.621,3.963-2.702,5.765c-0.54,1.081-1.171,2.072-1.892,3.063
							c-0.721,0.991-1.351,1.982-2.162,2.882s-1.621,1.711-2.522,2.342c-0.901,0.721-1.982,1.171-2.973,1.351
							c-1.081,0.18-2.162,0.18-3.243-0.18s-2.072-0.991-2.702-1.892c-0.631-0.901-0.901-2.072-0.901-3.153L58.2,22.826z"/>
					</g>
					<g>
						<path class="st3" d="M57.93,20.754c2.072,0,4.234,0,6.305-0.09c2.432-0.09,4.864-0.27,7.296-1.171
							c1.171-0.45,2.342-0.991,3.333-1.802c0.45-0.36,0.991-0.811,1.351-1.351c0.36-0.45,0.811-0.991,1.081-1.531
							c0.631-1.081,1.081-2.342,1.171-3.603c0.09-1.261-0.09-2.612-0.811-3.783c-0.36-0.54-0.721-1.081-1.261-1.531
							c-0.27-0.18-0.54-0.45-0.721-0.631c-0.27-0.18-0.54-0.36-0.811-0.54C74.324,4.45,73.693,4.18,72.973,4
							c-0.721,0.09-1.351,0.09-2.072,0.18c-1.351,0.18-2.522,0.811-3.603,1.531s-1.982,1.621-2.792,2.522
							c-3.153,3.603-5.134,7.837-6.936,12.16l-0.18,0.36H57.93 M57.93,20.754l19.727-9.548c-0.09,1.171-0.45,2.252-1.081,3.243
							c-0.27,0.54-0.631,0.991-0.991,1.441c-0.36,0.45-0.811,0.901-1.261,1.261c-0.901,0.721-1.982,1.351-3.063,1.711
							c-2.252,0.811-4.684,1.081-7.026,1.261c-2.072,0.09-4.053,0.18-6.125,0.18c0.901-1.982,1.802-3.873,2.973-5.585
							c0.631-0.991,1.351-1.982,2.072-2.973c0.721-0.991,1.441-1.892,2.342-2.792c0.811-0.811,1.711-1.621,2.702-2.252
							c0.991-0.631,1.982-1.081,3.063-1.261c1.081-0.18,2.162-0.09,3.243,0.36c0.991,0.36,1.982,1.081,2.612,2.072
							c0.631,0.991,0.811,2.072,0.721,3.243L57.93,20.754z"/>
						<path class="st3" d="M57.569,20.394c-2.072,0.09-4.234,0.27-6.305,0.45c-2.432,0.18-4.864,0.54-7.206,1.441
							c-1.171,0.45-2.252,1.081-3.243,1.892c-0.45,0.45-0.901,0.901-1.261,1.351c-0.36,0.45-0.721,0.991-0.991,1.621
							c-0.54,1.081-0.991,2.342-0.991,3.603c-0.09,1.261,0.27,2.612,0.991,3.693c0.36,0.54,0.811,0.991,1.351,1.441
							c0.27,0.18,0.54,0.45,0.811,0.54c0.27,0.18,0.54,0.36,0.901,0.45c0.631,0.27,1.261,0.45,1.892,0.631
							c0.631,0.09,1.351,0.09,1.982-0.09c1.351-0.27,2.522-0.901,3.513-1.711s1.892-1.711,2.612-2.702
							c2.973-3.783,4.774-8.107,6.395-12.431l0.18-0.36L57.569,20.394 M57.569,20.394L38.293,30.843c0-1.171,0.36-2.252,0.901-3.333
							c0.27-0.54,0.54-0.991,0.901-1.531c0.36-0.45,0.721-0.901,1.171-1.261c0.901-0.811,1.892-1.441,2.973-1.892
							c2.162-0.901,4.594-1.351,7.026-1.531c2.072-0.18,4.053-0.36,6.125-0.54c-0.811,1.982-1.621,3.963-2.702,5.765
							c-0.54,1.081-1.171,2.072-1.892,3.063c-0.721,0.991-1.351,1.982-2.162,2.882c-0.811,0.901-1.621,1.711-2.522,2.342
							c-0.901,0.721-1.982,1.171-2.973,1.351c-1.081,0.18-2.162,0.18-3.243-0.18c-1.081-0.36-2.072-0.991-2.702-1.892
							c-0.631-0.901-0.901-2.072-0.901-3.153L57.569,20.394z"/>
					</g>
					<g>
						
							<linearGradient id="SVGID_00000036938312177947217000000014552920057099155075_" gradientUnits="userSpaceOnUse" x1="-173.6189" y1="-1021.7178" x2="-137.7411" y2="-1012.9632" gradientTransform="matrix(0.9366 -0.3504 -0.3504 -0.9366 -150.6812 -981.2735)">
							<stop  offset="0" style="stop-color:#EB6508"/>
							<stop  offset="1" style="stop-color:#FBBF00"/>
						</linearGradient>
						<path style="fill:url(#SVGID_00000036938312177947217000000014552920057099155075_);" d="M58.83,25.528
							c1.711,0.09,3.423,0.27,5.134,0.36c1.982,0.09,3.963,0.09,5.945-0.45c0.991-0.27,1.892-0.631,2.792-1.171
							c0.45-0.27,0.811-0.631,1.171-0.991c0.36-0.36,0.721-0.721,0.991-1.171c0.54-0.811,0.991-1.802,1.171-2.792
							c0.18-0.991,0.09-2.162-0.36-3.063c-0.27-0.45-0.54-0.901-0.901-1.261c-0.18-0.18-0.36-0.36-0.54-0.54s-0.45-0.36-0.631-0.45
							c-0.45-0.27-0.901-0.54-1.441-0.631c-0.54-0.18-1.081-0.18-1.621-0.18c-1.081,0.09-2.072,0.45-2.973,0.991
							c-0.901,0.54-1.711,1.171-2.432,1.892c-2.792,2.702-4.684,5.945-6.486,9.278l-0.18,0.27L58.83,25.528 M58.83,25.528
							l16.574-6.395c-0.18,0.901-0.54,1.802-1.081,2.612c-0.27,0.36-0.54,0.721-0.901,1.081c-0.36,0.36-0.721,0.631-1.081,0.901
							c-0.811,0.54-1.621,0.901-2.612,1.171c-1.892,0.54-3.873,0.54-5.765,0.54c-1.621-0.09-3.333-0.18-4.954-0.27
							c0.811-1.531,1.711-2.973,2.702-4.324c0.54-0.811,1.171-1.531,1.892-2.252c0.631-0.721,1.351-1.441,2.072-2.072
							c0.721-0.631,1.441-1.171,2.342-1.621c0.811-0.45,1.711-0.721,2.522-0.811c0.901-0.09,1.711,0.09,2.522,0.54
							c0.811,0.36,1.531,0.991,1.892,1.802c0.45,0.811,0.54,1.711,0.36,2.612L58.83,25.528z"/>
						
							<linearGradient id="SVGID_00000044865706231151863760000009777901140740750250_" gradientUnits="userSpaceOnUse" x1="-174.0766" y1="-1019.8391" x2="-138.197" y2="-1011.0836" gradientTransform="matrix(0.9366 -0.3504 -0.3504 -0.9366 -150.6812 -981.2735)">
							<stop  offset="0" style="stop-color:#EB6508"/>
							<stop  offset="1" style="stop-color:#FBBF00"/>
						</linearGradient>
						<path style="fill:url(#SVGID_00000044865706231151863760000009777901140740750250_);" d="M58.56,25.168
							c-1.711,0-3.423-0.09-5.134-0.09c-1.982,0-3.963,0.09-5.855,0.721c-0.991,0.27-1.892,0.721-2.702,1.351
							c-0.45,0.27-0.811,0.631-1.171,0.991c-0.36,0.36-0.631,0.811-0.901,1.171c-0.54,0.901-0.901,1.802-1.081,2.882
							c-0.18,0.991,0,2.162,0.54,3.063c0.27,0.45,0.631,0.901,0.991,1.261c0.18,0.18,0.36,0.36,0.631,0.54
							c0.27,0.18,0.45,0.27,0.631,0.45c0.45,0.27,0.991,0.45,1.531,0.631c0.54,0.09,1.081,0.18,1.621,0.09
							c1.081-0.09,2.072-0.54,2.973-1.171c0.901-0.54,1.621-1.261,2.342-1.982c2.612-2.882,4.324-6.215,5.945-9.638l0.18-0.27
							L58.56,25.168 M58.56,25.168l-16.214,7.116c0.09-0.901,0.45-1.802,0.901-2.612c0.27-0.45,0.54-0.811,0.811-1.171
							c0.27-0.36,0.631-0.721,0.991-0.991c0.721-0.54,1.621-0.991,2.522-1.351c1.802-0.631,3.783-0.721,5.765-0.811
							c1.621,0,3.333,0,4.954,0c-0.721,1.531-1.621,3.063-2.522,4.504c-0.54,0.811-1.081,1.621-1.711,2.342
							c-0.631,0.811-1.261,1.531-1.892,2.162c-0.721,0.631-1.441,1.261-2.252,1.711s-1.621,0.811-2.522,0.901
							c-0.901,0.09-1.711,0-2.612-0.36c-0.811-0.36-1.621-0.991-1.982-1.711c-0.45-0.811-0.631-1.711-0.54-2.612L58.56,25.168z"/>
					</g>
					<g>
						
							<linearGradient id="SVGID_00000180343128532751131470000015397891965758259123_" gradientUnits="userSpaceOnUse" x1="-69.2817" y1="-939.5336" x2="-50.885" y2="-939.5336" gradientTransform="matrix(0.9692 -0.2463 -0.2463 -0.9692 -110.3781 -911.2959)">
							<stop  offset="0" style="stop-color:#78B6E4"/>
							<stop  offset="1" style="stop-color:#35A8E0"/>
						</linearGradient>
						<path style="fill:url(#SVGID_00000180343128532751131470000015397891965758259123_);" d="M55.948,22.736
							c1.802-0.36,3.513-0.721,5.315-1.171c1.982-0.45,4.053-1.081,5.855-2.162c0.901-0.54,1.802-1.171,2.432-2.072
							c0.36-0.45,0.631-0.811,0.901-1.351c0.27-0.45,0.45-0.991,0.631-1.441c0.36-0.991,0.54-2.072,0.45-3.153
							c-0.09-0.991-0.54-2.162-1.261-2.973c-0.36-0.45-0.811-0.811-1.261-1.081c-0.27-0.18-0.54-0.27-0.721-0.36
							c-0.27-0.09-0.54-0.18-0.811-0.27c-0.54-0.18-1.081-0.27-1.711-0.27c-0.54,0-1.171,0.09-1.711,0.27
							c-1.081,0.36-1.982,1.081-2.792,1.892c-0.721,0.811-1.351,1.711-1.892,2.612c-2.072,3.513-2.973,7.386-3.783,11.26l-0.09,0.36
							L55.948,22.736 M55.948,22.736l14.863-11.26c0.09,0.991,0,1.982-0.36,2.882c-0.18,0.45-0.36,0.901-0.631,1.351
							c-0.27,0.45-0.54,0.811-0.811,1.261c-0.631,0.811-1.441,1.441-2.252,1.982c-1.711,1.081-3.693,1.711-5.675,2.162
							c-1.711,0.45-3.423,0.811-5.044,1.171c0.45-1.802,0.901-3.513,1.531-5.224c0.36-0.991,0.721-1.892,1.261-2.792
							c0.45-0.991,0.901-1.802,1.441-2.702c0.54-0.811,1.171-1.621,1.892-2.342c0.721-0.721,1.531-1.261,2.342-1.531
							c0.811-0.27,1.802-0.36,2.702-0.18c0.901,0.18,1.892,0.631,2.522,1.261c0.631,0.721,0.991,1.621,1.171,2.612L55.948,22.736z"
							/>
						
							<linearGradient id="SVGID_00000175319703042705239140000018052545559217951157_" gradientUnits="userSpaceOnUse" x1="-86.6613" y1="-953.0273" x2="-68.6678" y2="-953.0273" gradientTransform="matrix(0.9692 -0.2463 -0.2463 -0.9692 -110.3781 -911.2959)">
							<stop  offset="0" style="stop-color:#78B6E4"/>
							<stop  offset="1" style="stop-color:#35A8E0"/>
						</linearGradient>
						<path style="fill:url(#SVGID_00000175319703042705239140000018052545559217951157_);" d="M55.588,22.466
							c-1.711,0.45-3.513,0.901-5.224,1.441c-1.982,0.54-3.963,1.261-5.765,2.432c-0.901,0.54-1.711,1.261-2.342,2.162
							c-0.36,0.45-0.631,0.901-0.811,1.351c-0.27,0.45-0.45,0.991-0.54,1.531c-0.27,0.991-0.45,2.162-0.27,3.243
							c0.18,1.081,0.631,2.162,1.441,2.973c0.36,0.36,0.811,0.721,1.351,0.991c0.27,0.09,0.54,0.27,0.721,0.36
							c0.27,0.09,0.54,0.18,0.811,0.27c0.54,0.18,1.081,0.18,1.711,0.18c0.54,0,1.171-0.18,1.711-0.36
							c1.081-0.45,1.982-1.171,2.702-1.982c0.721-0.811,1.261-1.711,1.802-2.702c1.892-3.603,2.612-7.566,3.243-11.44l0.09-0.36
							L55.588,22.466 M55.588,22.466l-14.322,11.89c-0.18-0.991-0.09-1.982,0.18-2.882c0.09-0.45,0.27-0.901,0.54-1.441
							c0.18-0.45,0.45-0.901,0.721-1.261c0.631-0.811,1.351-1.441,2.162-2.072c1.711-1.171,3.603-1.892,5.585-2.432
							c1.621-0.54,3.333-0.991,5.044-1.441c-0.36,1.802-0.721,3.513-1.261,5.224c-0.27,0.991-0.631,1.892-1.081,2.882
							c-0.36,0.991-0.811,1.892-1.351,2.702c-0.54,0.901-1.081,1.711-1.711,2.432c-0.631,0.721-1.441,1.351-2.252,1.621
							c-0.811,0.36-1.802,0.45-2.702,0.36c-0.901-0.09-1.892-0.54-2.522-1.171c-0.721-0.631-1.081-1.531-1.261-2.522L55.588,22.466z
							"/>
					</g>
				</g>
				<g>
					<path class="st8" d="M82.431,10.215c0-2.882,0-3.333,0-3.963c-0.09-0.631-0.18-0.811-0.811-0.991c-0.18,0-0.45-0.09-0.811-0.09
						c-0.18,0-0.36-0.09-0.36-0.18s0.18-0.18,0.45-0.18c0.991,0,2.252,0.09,2.792,0.09c0.631,0,4.954,0,5.315,0
						s0.631-0.09,0.811-0.09c0.09,0,0.18-0.09,0.27-0.09c0.09,0,0.09,0.09,0.09,0.18c0,0.09-0.09,0.36-0.18,1.171
						c0,0.18-0.09,0.991-0.09,1.261c0,0.09-0.09,0.27-0.18,0.27c-0.09,0-0.18-0.09-0.18-0.27c0-0.09,0-0.45-0.09-0.721
						c-0.18-0.36-0.27-0.631-1.261-0.721c-0.36,0-2.612,0-3.063,0c-0.09,0-0.09,0.09-0.09,0.18v4.594c0,0.09,0,0.18,0.09,0.18
						c0.45,0,2.973,0,3.423,0s0.721-0.09,0.901-0.27c0.18-0.09,0.18-0.27,0.27-0.27s0.18,0.09,0.18,0.18
						c0,0.09-0.09,0.45-0.18,1.351c-0.09,0.36-0.09,1.171-0.09,1.261c0,0.18,0,0.45-0.18,0.45c-0.09,0-0.18-0.09-0.18-0.18
						c0-0.18,0-0.45-0.09-0.721c-0.09-0.36-0.36-0.631-1.081-0.721c-0.36,0-2.522-0.09-3.063-0.09c-0.09,0-0.09,0.09-0.09,0.18
						v1.531c0,0.631,0,2.252,0,2.792c0.09,1.261,0.631,1.531,2.612,1.531c0.54,0,1.351,0,1.802-0.27
						c0.45-0.18,0.721-0.631,0.811-1.351c0.09-0.18,0.09-0.27,0.18-0.27c0.18,0,0.18,0.27,0.18,0.45c0,0.45-0.18,1.711-0.27,2.072
						c-0.09,0.45-0.27,0.45-1.081,0.45c-1.441,0-2.612,0-3.603-0.09c-0.991,0-1.711,0-2.252,0c-0.18,0-0.631,0-1.081,0
						s-0.991,0-1.351,0c-0.27,0-0.36-0.09-0.36-0.18c0-0.09,0.09-0.18,0.27-0.18c0.27,0,0.54,0,0.721-0.09
						c0.36-0.09,0.54-0.45,0.54-0.991c0.09-0.811,0.09-2.252,0.09-3.963L82.431,10.215L82.431,10.215z"/>
					<path class="st8" d="M94.771,10.215c0-2.882,0-3.333,0-3.963s-0.18-0.811-0.811-0.991c-0.18,0-0.45-0.09-0.721-0.09
						c-0.18,0-0.36-0.09-0.36-0.18s0.09-0.18,0.45-0.18c1.081,0,2.342,0.09,2.882,0.09c0.45,0,1.802-0.09,2.522-0.09
						c0.27,0,0.45,0.09,0.45,0.18c0,0.09-0.09,0.18-0.27,0.18c-0.18,0-0.36,0-0.54,0.09c-0.54,0.09-0.631,0.36-0.721,0.991
						s-0.09,1.081-0.09,3.963v2.612c0,2.702,0.54,3.783,1.441,4.504c0.901,0.721,1.802,0.721,2.432,0.721
						c0.811,0,1.802-0.27,2.612-0.991c1.081-0.991,1.081-2.612,1.081-4.594v-2.252c0-2.882,0-3.333-0.09-3.963
						c0-0.631-0.18-0.811-0.811-0.991c-0.18,0-0.45-0.09-0.721-0.09c-0.18,0-0.36-0.09-0.36-0.18s0.09-0.18,0.36-0.18
						c0.991,0,2.252,0.09,2.342,0.09c0.18,0,1.531-0.09,2.252-0.09c0.27,0,0.36,0.09,0.36,0.18c0,0.09-0.09,0.18-0.36,0.18
						c-0.18,0-0.36,0-0.54,0.09c-0.54,0.09-0.631,0.36-0.721,0.991c0,0.631,0,1.081,0,3.963v1.982c0,2.072-0.18,4.324-1.892,5.675
						c-1.351,1.171-2.882,1.351-4.144,1.351c-0.991,0-3.063,0-4.414-1.261c-0.991-0.901-1.802-2.252-1.802-4.954L94.771,10.215
						L94.771,10.215z"/>
					<path class="st8" d="M112.246,4.991c0-0.27,0.18-0.45,0.36-0.45s0.36,0.09,0.631,0.631l5.224,10.359l5.224-10.539
						c0.18-0.27,0.36-0.45,0.54-0.45c0.18,0,0.36,0.18,0.45,0.631l1.802,11.53c0.18,1.171,0.36,1.711,0.991,1.892
						c0.54,0.18,0.901,0.18,1.081,0.18c0.18,0,0.27,0.09,0.27,0.18c0,0.18-0.18,0.18-0.54,0.18c-0.45,0-3.243-0.09-4.053-0.09
						c-0.45,0-0.54-0.09-0.54-0.18c0-0.09,0.09-0.18,0.18-0.18c0.09,0,0.18-0.27,0.09-0.811l-1.081-8.107h-0.09l-4.144,8.287
						c-0.45,0.901-0.54,1.081-0.811,1.081c-0.27,0-0.45-0.36-0.811-0.991c-0.45-0.901-1.982-3.693-2.252-4.234
						c-0.18-0.36-1.261-2.612-1.982-3.963h-0.09l-0.901,7.206c0,0.36-0.09,0.54-0.09,0.901c0,0.36,0.27,0.45,0.631,0.54
						c0.36,0.09,0.54,0.09,0.721,0.09s0.27,0.09,0.27,0.18c0,0.18-0.18,0.18-0.45,0.18c-0.811,0-1.711-0.09-2.072-0.09
						s-1.261,0.09-1.892,0.09c-0.18,0-0.36,0-0.36-0.18c0-0.09,0.09-0.18,0.27-0.18c0.18,0,0.27,0,0.631,0
						c0.54-0.09,0.721-0.811,0.811-1.441L112.246,4.991L112.246,4.991z"/>
				</g>
			</g>
			<g>
				<path class="st9" d="M85.854,25.889c-0.54,0.09-0.54,0.09-0.54,0.631v2.702c0,0.54,0.09,0.631,0.54,0.631v0.18h-1.711v-0.18
					c0.54-0.09,0.54-0.09,0.54-0.631V27.87h-2.072v1.351c0,0.54,0.09,0.631,0.54,0.631v0.18H81.44v-0.18
					c0.54-0.09,0.54-0.09,0.54-0.631v-2.702c0-0.54-0.09-0.631-0.54-0.631v-0.18h1.711v0.18c-0.45,0.09-0.54,0.09-0.54,0.631V27.6
					h2.072v-1.081c0-0.54-0.09-0.631-0.54-0.631v-0.18h1.711V25.889L85.854,25.889z"/>
				<path class="st9" d="M88.826,27.24c-0.36,0.09-0.36,0.09-0.54,0.45c-0.18,0.36-0.36,0.901-0.811,1.982
					c-0.45,1.081-0.54,1.441-0.631,1.802c0,0.09-0.09,0.18-0.18,0.18c-0.18,0-0.36-0.18-0.36-0.36c0-0.09,0.09-0.18,0.18-0.27
					c0.18-0.09,0.36-0.27,0.45-0.54c0.09-0.18,0.18-0.36,0.18-0.45c0-0.09,0-0.18,0-0.27c-0.27-0.811-0.54-1.621-0.721-2.072
					c-0.09-0.36-0.18-0.45-0.54-0.45v-0.18h1.351v0.18c-0.27,0.09-0.36,0.09-0.27,0.36l0.54,1.621c0.18-0.45,0.45-1.261,0.54-1.621
					c0.09-0.27,0-0.36-0.36-0.36v-0.18h1.171C88.826,27.06,88.826,27.24,88.826,27.24z"/>
				<path class="st9" d="M90.357,27.15c0.09-0.09,0.27-0.09,0.36-0.09c0.721,0,1.081,0.631,1.081,1.261
					c0,0.991-0.721,1.621-1.531,1.802c-0.18,0-0.36-0.09-0.45-0.09v0.901c0,0.45,0,0.54,0.54,0.54v0.18h-1.531v-0.18
					c0.36,0,0.45-0.09,0.45-0.54V27.87c0-0.45,0-0.45-0.45-0.45v-0.18c0.27-0.09,0.631-0.18,0.991-0.27v0.54L90.357,27.15
					L90.357,27.15z M89.817,29.492c0.09,0.18,0.36,0.27,0.54,0.27c0.54,0,0.811-0.45,0.811-1.261c0-0.721-0.36-1.081-0.811-1.081
					c-0.18,0-0.45,0.09-0.631,0.27L89.817,29.492L89.817,29.492z"/>
				<path class="st9" d="M94.591,29.492c-0.36,0.54-0.811,0.631-1.081,0.631c-0.811,0-1.261-0.631-1.261-1.441
					c0-0.45,0.18-0.901,0.45-1.171s0.631-0.45,0.901-0.45c0.54,0,0.991,0.54,0.991,1.081c0,0.09,0,0.18-0.18,0.18
					c-0.09,0-0.901,0.09-1.621,0.09c0,0.901,0.45,1.261,0.901,1.261c0.27,0,0.45-0.09,0.721-0.36L94.591,29.492L94.591,29.492z
					 M92.88,28.051c0.36,0,0.631,0,0.991,0c0.09,0,0.18,0,0.18-0.09c0-0.36-0.18-0.721-0.54-0.721
					C93.24,27.24,92.97,27.51,92.88,28.051L92.88,28.051z"/>
				<path class="st9" d="M95.942,27.69c0.18-0.36,0.45-0.721,0.721-0.721s0.36,0.18,0.36,0.36s-0.09,0.27-0.18,0.36
					c-0.09,0-0.09,0-0.18,0c-0.09-0.09-0.18-0.09-0.27-0.09c-0.18,0-0.36,0.18-0.45,0.54v1.171c0,0.45,0,0.45,0.54,0.54v0.18h-1.531
					v-0.18c0.36,0,0.45-0.09,0.45-0.54V27.87c0-0.45,0-0.45-0.36-0.54v-0.18c0.36-0.09,0.631-0.09,0.901-0.27V27.69L95.942,27.69
					L95.942,27.69z"/>
				<path class="st9" d="M102.518,28.951c-0.09,0.27-0.27,0.811-0.36,1.081c-0.18,0.09-0.721,0.18-1.171,0.18
					c-1.621,0-2.252-1.171-2.252-2.252c0-1.441,0.991-2.342,2.432-2.342c0.54,0,0.991,0.18,1.081,0.18
					c0.09,0.36,0.09,0.631,0.09,0.991l-0.18,0.09c-0.18-0.721-0.54-0.991-1.261-0.991c-0.991,0-1.621,0.901-1.621,1.982
					c0,1.261,0.721,2.072,1.621,2.072c0.631,0,0.991-0.36,1.261-1.081L102.518,28.951L102.518,28.951z"/>
				<path class="st9" d="M105.761,28.501c0,1.081-0.721,1.621-1.351,1.621c-0.901,0-1.441-0.721-1.441-1.531
					c0-1.081,0.811-1.621,1.441-1.621C105.22,26.97,105.761,27.69,105.761,28.501L105.761,28.501z M103.599,28.411
					c0,0.811,0.36,1.441,0.811,1.441c0.36,0,0.631-0.27,0.631-1.261c0-0.811-0.27-1.441-0.811-1.441
					C103.959,27.24,103.599,27.6,103.599,28.411L103.599,28.411z"/>
				<path class="st9" d="M107.923,30.032v-0.18c0.36,0,0.36-0.09,0.36-0.54v-1.081c0-0.45-0.18-0.721-0.54-0.721
					c-0.27,0-0.45,0.18-0.631,0.36v1.441c0,0.45,0,0.45,0.36,0.54v0.18h-1.441v-0.18c0.45-0.09,0.45-0.09,0.45-0.54v-1.351
					c0-0.45,0-0.45-0.36-0.54v-0.18c0.36-0.09,0.631-0.18,0.901-0.27v0.54c0.09-0.09,0.27-0.18,0.45-0.27
					c0.18-0.09,0.36-0.18,0.54-0.18c0.54,0,0.811,0.36,0.811,0.991v1.261c0,0.45,0,0.45,0.36,0.54v0.18L107.923,30.032
					L107.923,30.032z"/>
				<path class="st9" d="M111.345,30.032v-0.18c0.36,0,0.36-0.09,0.36-0.54v-1.081c0-0.45-0.18-0.721-0.54-0.721
					c-0.27,0-0.45,0.18-0.631,0.36v1.441c0,0.45,0,0.45,0.36,0.54v0.18h-1.441v-0.18c0.45-0.09,0.45-0.09,0.45-0.54v-1.351
					c0-0.45,0-0.45-0.36-0.54v-0.18c0.36-0.09,0.631-0.18,0.901-0.27v0.54c0.09-0.09,0.27-0.18,0.45-0.27
					c0.18-0.09,0.36-0.18,0.54-0.18c0.54,0,0.811,0.36,0.811,0.991v1.261c0,0.45,0,0.45,0.36,0.54v0.18L111.345,30.032
					L111.345,30.032z"/>
				<path class="st9" d="M115.309,29.492c-0.36,0.54-0.811,0.631-1.081,0.631c-0.811,0-1.261-0.631-1.261-1.441
					c0-0.45,0.18-0.901,0.45-1.171s0.631-0.45,0.901-0.45c0.54,0,0.991,0.54,0.991,1.081c0,0.09,0,0.18-0.18,0.18
					c-0.09,0-0.901,0.09-1.621,0.09c0,0.901,0.45,1.261,0.901,1.261c0.27,0,0.45-0.09,0.721-0.36L115.309,29.492L115.309,29.492z
					 M113.597,28.051c0.36,0,0.631,0,0.991,0c0.09,0,0.18,0,0.18-0.09c0-0.36-0.18-0.721-0.54-0.721
					C113.958,27.24,113.687,27.51,113.597,28.051L113.597,28.051z"/>
				<path class="st9" d="M118.101,29.402c-0.27,0.36-0.721,0.721-1.081,0.721c-0.811,0-1.261-0.721-1.261-1.441
					c0-0.54,0.18-0.991,0.631-1.351c0.36-0.27,0.721-0.36,0.991-0.36s0.45,0.09,0.54,0.18c0.09,0.09,0.09,0.09,0.09,0.18
					c0,0.18-0.18,0.27-0.18,0.27s-0.09,0-0.09-0.09c-0.18-0.18-0.45-0.27-0.631-0.27c-0.36,0-0.721,0.36-0.721,1.081
					c0,0.901,0.631,1.261,0.901,1.261c0.27,0,0.45-0.09,0.721-0.36L118.101,29.402L118.101,29.402z"/>
				<path class="st9" d="M119.633,30.032c-0.09,0.09-0.18,0.09-0.27,0.09c-0.45,0-0.631-0.27-0.631-0.811V27.33h-0.45v-0.09
					l0.18-0.18h0.27v-0.45l0.45-0.45h0.09v0.901h0.721c0.09,0.09,0,0.18,0,0.27h-0.631v1.711c0,0.54,0.18,0.631,0.36,0.631
					s0.27-0.09,0.36-0.09l0.09,0.18L119.633,30.032L119.633,30.032z"/>
				<path class="st9" d="M122.605,29.492c-0.36,0.54-0.811,0.631-1.081,0.631c-0.811,0-1.261-0.631-1.261-1.441
					c0-0.45,0.18-0.901,0.45-1.171s0.631-0.45,0.901-0.45c0.54,0,0.991,0.54,0.991,1.081c0,0.09,0,0.18-0.18,0.18
					c-0.09,0-0.901,0.09-1.621,0.09c0,0.901,0.45,1.261,0.901,1.261c0.27,0,0.45-0.09,0.721-0.36L122.605,29.492L122.605,29.492z
					 M120.894,28.051c0.36,0,0.631,0,0.991,0c0.09,0,0.18,0,0.18-0.09c0-0.36-0.18-0.721-0.54-0.721
					C121.254,27.24,120.984,27.51,120.894,28.051L120.894,28.051z"/>
				<path class="st9" d="M126.028,29.852c-0.18,0-0.631,0.09-0.991,0.27v-0.45l-0.36,0.27c-0.27,0.18-0.36,0.18-0.45,0.18
					c-0.54,0-1.171-0.45-1.171-1.441c0-0.901,0.721-1.711,1.621-1.711c0.09,0,0.27,0,0.36,0.09v-0.901c0-0.45,0-0.45-0.45-0.45
					v-0.18c0.36-0.09,0.811-0.18,0.991-0.27v3.963c0,0.36,0,0.36,0.27,0.45h0.18V29.852L126.028,29.852z M125.037,27.6
					c-0.18-0.27-0.36-0.36-0.631-0.36s-0.811,0.27-0.811,1.261c0,0.811,0.45,1.171,0.811,1.171c0.18,0,0.45-0.09,0.54-0.18V27.6
					H125.037z"/>
			</g>
		</g>
	</g>
</g>
</svg>
