<?xml version="1.0" encoding="utf-8"?>
<!-- Generator: Adobe Illustrator 27.0.0, SVG Export Plug-In . SVG Version: 6.00 Build 0)  -->
<svg version="1.1" id="레이어_1" xmlns="http://www.w3.org/2000/svg" xmlns:xlink="http://www.w3.org/1999/xlink" x="0px"
	 y="0px" width="104px" height="40px" viewBox="0 0 104 40" style="enable-background:new 0 0 104 40;" xml:space="preserve">
<style type="text/css">
	.st0{fill:#00C7FD;}
	.st1{fill:#111111;}
</style>
<g>
	<rect x="0.447" y="0.558" class="st0" width="7.463" height="7.463"/>
	<path class="st1" d="M7.725,39.442V12.537H0.633v26.879h7.092V39.442z M54.683,39.708v-6.587c-1.036,0-1.912-0.053-2.55-0.159
		c-0.744-0.106-1.301-0.372-1.673-0.744s-0.611-0.903-0.744-1.62c-0.106-0.664-0.159-1.541-0.159-2.603v-9.376h5.126v-6.082h-5.126
		V2.072h-7.092v26.003c0,2.205,0.186,4.064,0.558,5.551c0.372,1.461,1.009,2.656,1.886,3.559s2.045,1.541,3.453,1.939
		c1.434,0.398,3.24,0.584,5.392,0.584L54.683,39.708L54.683,39.708z M95.268,39.442V0h-7.092v39.442H95.268z M35.64,15.193
		c-1.965-2.125-4.728-3.187-8.234-3.187c-1.7,0-3.267,0.345-4.648,1.036c-1.408,0.691-2.576,1.647-3.533,2.869l-0.372,0.505v-0.452
		v-3.426h-6.985v26.879h7.039V25.1v0.983c0-0.159,0-0.319,0-0.478c0.08-2.523,0.691-4.382,1.859-5.578
		c1.248-1.275,2.762-1.912,4.489-1.912c2.045,0,3.612,0.637,4.648,1.859c1.009,1.222,1.541,2.948,1.541,5.153l0,0v0.08l0,0l0,0
		v14.21h7.145V24.17C38.614,20.345,37.605,17.317,35.64,15.193z M84.511,25.95c0-1.939-0.345-3.745-1.009-5.445
		c-0.691-1.673-1.647-3.161-2.842-4.436c-1.222-1.275-2.683-2.258-4.382-2.975c-1.7-0.717-3.586-1.062-5.631-1.062
		c-1.939,0-3.772,0.372-5.471,1.089c-1.7,0.744-3.187,1.726-4.436,2.975c-1.248,1.248-2.258,2.736-2.975,4.436
		c-0.744,1.7-1.089,3.533-1.089,5.471s0.345,3.772,1.036,5.471c0.691,1.7,1.673,3.187,2.895,4.436
		c1.222,1.248,2.736,2.258,4.489,2.975C66.848,39.628,68.786,40,70.859,40c6.003,0,9.721-2.736,11.952-5.286l-5.1-3.878
		c-1.062,1.275-3.612,3.001-6.799,3.001c-1.992,0-3.639-0.452-4.887-1.381c-1.248-0.903-2.098-2.178-2.55-3.745l-0.08-0.239H84.51
		L84.511,25.95L84.511,25.95z M63.448,23.479c0-1.965,2.258-5.392,7.118-5.418c4.861,0,7.145,3.426,7.145,5.392L63.448,23.479z
		 M103.341,36.042c-0.133-0.319-0.319-0.584-0.558-0.823s-0.505-0.425-0.823-0.558c-0.319-0.133-0.664-0.212-1.009-0.212
		c-0.372,0-0.691,0.08-1.009,0.212c-0.319,0.133-0.584,0.319-0.823,0.558s-0.425,0.505-0.558,0.823
		c-0.133,0.319-0.212,0.664-0.212,1.009c0,0.372,0.08,0.691,0.212,1.009c0.133,0.319,0.319,0.584,0.558,0.823
		c0.239,0.239,0.505,0.425,0.823,0.558c0.319,0.133,0.664,0.212,1.009,0.212c0.372,0,0.691-0.08,1.009-0.212
		s0.584-0.319,0.823-0.558s0.425-0.505,0.558-0.823c0.133-0.319,0.212-0.664,0.212-1.009S103.475,36.361,103.341,36.042z
		 M102.917,37.902c-0.106,0.266-0.266,0.505-0.452,0.691c-0.186,0.186-0.425,0.345-0.691,0.452s-0.531,0.159-0.85,0.159
		c-0.292,0-0.584-0.053-0.85-0.159s-0.505-0.266-0.691-0.452c-0.186-0.186-0.345-0.425-0.452-0.691
		c-0.106-0.266-0.159-0.531-0.159-0.85c0-0.292,0.053-0.584,0.159-0.85c0.106-0.266,0.266-0.505,0.452-0.691
		c0.186-0.186,0.425-0.345,0.691-0.452c0.266-0.106,0.531-0.159,0.85-0.159c0.292,0,0.584,0.053,0.85,0.159s0.505,0.266,0.691,0.452
		c0.186,0.186,0.345,0.425,0.452,0.691c0.106,0.266,0.159,0.531,0.159,0.85C103.076,37.371,103.022,37.636,102.917,37.902z
		 M101.43,37.291c0.212-0.027,0.372-0.106,0.505-0.239c0.133-0.133,0.212-0.319,0.212-0.584c0-0.292-0.08-0.505-0.266-0.664
		c-0.159-0.159-0.452-0.239-0.797-0.239h-1.169v3.001h0.558v-1.222h0.398l0.744,1.222h0.584L101.43,37.291z M101.138,36.839
		c-0.08,0-0.159,0-0.266,0h-0.398v-0.85h0.398c0.08,0,0.159,0,0.266,0c0.08,0,0.159,0.027,0.239,0.053
		c0.08,0.027,0.133,0.08,0.159,0.133c0.053,0.053,0.053,0.133,0.053,0.239s-0.027,0.186-0.053,0.239
		c-0.053,0.053-0.106,0.106-0.159,0.133C101.297,36.813,101.216,36.839,101.138,36.839z"/>
</g>
</svg>
