<?xml version="1.0" encoding="utf-8"?>
<!-- Generator: Adobe Illustrator 27.0.0, SVG Export Plug-In . SVG Version: 6.00 Build 0)  -->
<svg version="1.1" id="레이어_1" xmlns="http://www.w3.org/2000/svg" xmlns:xlink="http://www.w3.org/1999/xlink" x="0px"
	 y="0px" width="190px" height="40px" viewBox="0 0 190 40" style="enable-background:new 0 0 190 40;" xml:space="preserve">
<style type="text/css">
	.st0{fill:#231F20;}
</style>
<g id="Layer_1-2">
	<path class="st0" d="M3.1,20.8l6.1,7.5l1.8-1.4l-5.2-6.3l4.4-5.7l-1.8-1.3L3.1,20.8z M0,8.3V28h2.3V7.8L0,8.3z"/>
	<path class="st0" d="M13.1,24.3c-0.1-1.2,0.5-2.4,1.4-3.2c0.9-0.8,2.3-1.1,4.1-1.1h2.7V19c0-2.2-1-3.2-2.8-3.2
		c-0.7,0-1.3,0.1-1.9,0.3c-0.6,0.2-1.2,0.4-1.8,0.7L14,15c0.7-0.4,1.4-0.7,2.2-0.9c0.8-0.2,1.6-0.3,2.3-0.3c3.3,0,4.9,1.8,4.9,5.3
		V28h-1.7l-0.3-1.5c-0.7,0.6-1.4,1-2.2,1.3c-0.7,0.3-1.5,0.5-2.2,0.5c-1.1,0.1-2.1-0.3-2.9-1.1C13.4,26.4,13,25.3,13.1,24.3
		 M17.4,26.3c0.4,0,0.7-0.1,1-0.1c0.4-0.1,0.7-0.2,1-0.4c0.4-0.2,0.7-0.3,1-0.5c0.3-0.2,0.6-0.4,0.8-0.6v-3.2h-2.4
		c-1.2,0-2.1,0.2-2.7,0.7c-0.6,0.5-0.9,1.3-0.9,2C15.3,25.6,16,26.3,17.4,26.3"/>
	<path class="st0" d="M29.9,28h-2.3V8.3l2.3-0.5V28z M36.1,13.7l1.8,1.3l-4.4,5.7l5.2,6.3l-1.8,1.4l-6.1-7.5L36.1,13.7z"/>
	<path class="st0" d="M40.7,24.3c-0.1-1.2,0.5-2.4,1.4-3.2c0.9-0.8,2.3-1.1,4.1-1.1h2.7V19c0-2.2-1-3.2-2.8-3.2
		c-0.7,0-1.3,0.1-1.9,0.3c-0.6,0.2-1.3,0.4-1.8,0.7L41.6,15c0.7-0.4,1.5-0.7,2.2-0.9c0.8-0.2,1.6-0.3,2.3-0.3c3.3,0,4.9,1.8,4.9,5.3
		V28h-1.7L49,26.5c-0.7,0.6-1.4,1-2.2,1.3c-0.7,0.3-1.5,0.5-2.2,0.5c-1.1,0.1-2.1-0.3-2.9-1.1C41,26.4,40.6,25.3,40.7,24.3
		 M45.1,26.4c0.4,0,0.7-0.1,1-0.1c0.4-0.1,0.7-0.2,1-0.4c0.4-0.2,0.7-0.3,1-0.5c0.3-0.2,0.6-0.4,0.8-0.6v-3.3h-2.4
		c-1.2,0-2.1,0.2-2.7,0.7c-0.6,0.5-0.9,1.3-0.9,2C42.9,25.6,43.6,26.3,45.1,26.4"/>
	<path class="st0" d="M60.4,13.9c1.7-0.1,3.4,0.6,4.5,1.9c1.1,1.3,1.6,3,1.6,5.4c0,2.3-0.6,4.1-1.6,5.3c-1.1,1.2-2.6,1.9-4.5,1.9
		c-1.7,0.1-3.4-0.6-4.5-1.9c-1.1-1.3-1.6-3-1.6-5.3s0.6-4.1,1.7-5.4C57,14.5,58.7,13.8,60.4,13.9 M60.4,15.7
		c-1.1-0.1-2.2,0.5-2.8,1.4c-0.7,0.9-1,2.2-1,4s0.3,3.1,1,3.9c1.3,1.6,3.5,1.8,5.1,0.6c0.2-0.2,0.4-0.4,0.6-0.6c0.7-0.9,1-2.2,1-3.9
		s-0.3-3.1-1-4C62.5,16.2,61.5,15.7,60.4,15.7"/>
	<path class="st0" d="M81.6,20.5c0,0.6-0.1,1.1-0.2,1.6h-8.3c0.1,2.2,1.3,3.4,3.8,3.4c1.2-0.1,2.4-0.3,3.5-0.8l0.8,2.4
		c-1.5,0.8-3.1,1.2-4.8,1.2c-4.7,0-7-2.5-7-7.4c0-4.6,2.4-7.4,6.3-7.4C79.5,13.5,81.6,16,81.6,20.5z M73.1,19.6h5.1
		c0-2.4-0.8-3.5-2.5-3.5C74.1,16.2,73.2,17.5,73.1,19.6L73.1,19.6z"/>
	<path class="st0" d="M84.1,13.9h2.5l0.5,1.4c1.2-1.1,2.8-1.8,4.4-1.8c3.1,0,4.7,1.9,4.7,5.5v8.9h-3.5v-9.1c0-1.6-0.6-2.2-2.5-2.2
		c-0.9,0.1-1.8,0.2-2.6,0.5v10.8h-3.5L84.1,13.9z"/>
	<path class="st0" d="M98,14.2l2.2-0.3v-2.8l3.6-0.8v3.6h4.2v2.7h-4.2v6.1c0,2.2,0.6,2.6,1.6,2.6c0.8,0,1.6-0.2,2.3-0.5l0.8,2.5
		c-1.3,0.7-2.7,1.1-4.1,1c-2.9,0-4.2-1.8-4.2-5.4v-6.3h-2.2L98,14.2L98,14.2z"/>
	<path class="st0" d="M121.8,20.5c0,0.6-0.1,1.1-0.2,1.6h-8.3c0.1,2.2,1.3,3.4,3.8,3.4c1.2-0.1,2.4-0.3,3.5-0.8l0.8,2.4
		c-1.5,0.8-3.1,1.2-4.8,1.2c-4.7,0-7-2.5-7-7.4c0-4.6,2.4-7.4,6.3-7.4C119.7,13.5,121.8,16,121.8,20.5z M113.3,19.6h5.1
		c0-2.4-0.8-3.5-2.5-3.5C114.3,16.2,113.4,17.5,113.3,19.6L113.3,19.6z"/>
	<path class="st0" d="M127.7,17.4V28h-3.5v-14h2.5l0.6,1.5c1.2-1.2,2.7-1.9,4.4-2c0.4,0,0.8,0.1,1.2,0.2l-0.4,3.4
		c-0.7-0.2-1.4-0.3-2-0.3C129.4,16.9,128.5,17,127.7,17.4z"/>
	<path class="st0" d="M138,28v5.3h-3.5V13.9h2.5l0.4,1.2c1.1-1.1,2.5-1.6,4-1.6c3.6,0,5.3,2.7,5.3,7.2c0,4.6-2.6,7.6-6.5,7.6
		C139.5,28.3,138.8,28.2,138,28z M138,16.9v8.6c0.4,0.1,0.9,0.1,1.3,0.1c2.8,0,3.8-1.9,3.8-4.9c0-2.6-0.6-4.3-2.9-4.3
		C139.4,16.4,138.7,16.5,138,16.9L138,16.9z"/>
	<path class="st0" d="M152.9,17.4V28h-3.5v-14h2.5l0.6,1.5c1.2-1.2,2.7-1.9,4.4-2c0.4,0,0.8,0.1,1.2,0.2l-0.4,3.4
		c-0.7-0.2-1.4-0.3-2-0.3C154.7,16.9,153.8,17,152.9,17.4z"/>
	<path class="st0" d="M158.8,9.4l2.6-2.6l2.6,2.6l-2.6,2.6L158.8,9.4z M163.2,13.9v14h-3.5v-14H163.2z"/>
	<path class="st0" d="M172.3,19.7c2.9,1,3.9,2.1,3.9,4.2c0,2.8-1.8,4.4-5.4,4.4c-1.8,0-3.5-0.4-5.2-1l0.7-2.8
		c1.4,0.6,2.9,0.9,4.4,0.9c1.5,0,2-0.5,2-1.3c0-0.8-0.4-1.2-2.8-2c-2.9-1-3.9-2-3.9-4.3c0-2.5,2.1-4.3,5.2-4.3
		c1.7,0,3.3,0.4,4.8,1.1l-1,2.6c-1.1-0.6-2.3-0.8-3.5-0.9c-1.3,0-2.1,0.6-2.1,1.5C169.5,18.5,170.3,19,172.3,19.7z"/>
	<path class="st0" d="M190,20.5c0,0.6-0.1,1.1-0.2,1.6h-8.3c0.1,2.2,1.3,3.4,3.8,3.4c1.2-0.1,2.4-0.3,3.5-0.8l0.8,2.4
		c-1.5,0.8-3.1,1.2-4.8,1.2c-4.7,0-7-2.5-7-7.4c0-4.6,2.4-7.4,6.3-7.4C187.9,13.5,190,16,190,20.5z M181.5,19.6h5.1
		c0-2.4-0.8-3.5-2.5-3.5C182.5,16.2,181.6,17.5,181.5,19.6L181.5,19.6z"/>
</g>
</svg>
