<?xml version="1.0" encoding="utf-8"?>
<!-- Generator: Adobe Illustrator 27.0.0, SVG Export Plug-In . SVG Version: 6.00 Build 0)  -->
<svg version="1.1" id="레이어_1" xmlns="http://www.w3.org/2000/svg" xmlns:xlink="http://www.w3.org/1999/xlink" x="0px"
	 y="0px" width="40px" height="40px" viewBox="0 0 40 40" style="enable-background:new 0 0 40 40;" xml:space="preserve">
<style type="text/css">
	.st0{fill:#007DB8;}
</style>
<g id="layer1" transform="translate(-318.33375,-439.74274)">
	<g id="g3460" transform="matrix(4.579965,0,0,-4.579965,468.34291,456.8459)">
		<path id="path3462" class="st0" d="M-28.4,3.3c-1.1,0-2-0.4-2.8-1.1c-0.7-0.7-1.1-1.7-1.1-2.8c0-1.1,0.4-2,1.1-2.8
			c0.7-0.7,1.7-1.1,2.8-1.1c1.1,0,2,0.4,2.8,1.1c0.7,0.7,1.1,1.7,1.1,2.8c0,1.1-0.4,2.1-1.1,2.8C-26.3,2.8-27.3,3.3-28.4,3.3
			 M-28.4,3.7c2.4,0,4.4-2,4.4-4.4C-24-3-26-5-28.4-5c-2.4,0-4.4,2-4.4,4.4C-32.8,1.8-30.8,3.7-28.4,3.7"/>
	</g>
	<g id="g3464" transform="matrix(4.579965,0,0,-4.579965,397.87238,588.54693)">
		<path id="path3466" class="st0" d="M-15.1,28.2c0,0.3-0.2,0.4-0.4,0.4h-0.1v-0.8h0.1C-15.3,27.8-15.1,27.9-15.1,28.2 M-12.5,27.9
			l-1.1-0.8l-1,0.8c-0.1-0.3-0.5-0.6-0.9-0.6h-0.8v1.9h0.8c0.4,0,0.8-0.3,0.9-0.6l1,0.8l0.4-0.3l-0.9-0.7l0.2-0.1l0.9,0.7l0.4-0.3
			l-0.9-0.7l0.2-0.1l0.9,0.7v0.7h0.7v-1.3h0.7v-0.5h-1.3C-12.5,27.2-12.5,27.9-12.5,27.9z M-10.3,27.8h0.7v-0.5H-11v1.9h0.7V27.8z"
			/>
	</g>
</g>
</svg>
