<?xml version="1.0" encoding="utf-8"?>
<!-- Generator: Adobe Illustrator 27.0.0, SVG Export Plug-In . SVG Version: 6.00 Build 0)  -->
<svg version="1.1" id="_레이어_1" xmlns="http://www.w3.org/2000/svg" xmlns:xlink="http://www.w3.org/1999/xlink" x="0px"
	 y="0px" width="185px" height="40px" viewBox="0 0 185 40" style="enable-background:new 0 0 185 40;" xml:space="preserve">
<style type="text/css">
	.st0{fill:#0E0E0E;}
	.st1{fill:#1F5AA0;}
	.st2{fill:#1AA4C9;}
	.st3{fill:#2D9D30;}
</style>
<g>
	<g>
		<path class="st0" d="M41.9,30.2c0-0.7-0.3-1-1-1c-0.2,0-1,0-1,1.2v1.9c0,1.2,0.4,1.5,1,1.5c0.5,0,0.8-0.1,1-0.2v-1.7h-1v-0.6h1.7
			v2.7c-0.5,0.2-1,0.4-1.7,0.4c-1.2,0-1.7-0.6-1.7-2.1v-1.8c0-1.1,0.6-1.8,1.7-1.8c1.2,0,1.8,0.4,1.7,1.6L41.9,30.2L41.9,30.2z"/>
		<path class="st0" d="M46.5,28.7h0.7l-1.5,3.4v2.1H45v-2.1l-1.5-3.4h0.8l1.1,2.7C45.4,31.4,46.5,28.7,46.5,28.7z"/>
		<path class="st0" d="M48,34.2v-5.5h2.9v0.6h-2.1v1.8h2v0.6h-2v1.9h2.2v0.6L48,34.2L48,34.2z"/>
		<path class="st0" d="M51.9,32.2v-1.8c0-1.1,0.6-1.8,1.7-1.8c1.2,0,1.7,0.7,1.7,1.8v1.8c0,1.5-0.6,2.1-1.7,2.1S51.9,33.8,51.9,32.2
			z M54.6,32.2v-1.9c0-1.2-0.8-1.2-1-1.2c-0.2,0-1,0-1,1.2v1.9c0,1.2,0.4,1.5,1,1.5C54.3,33.8,54.6,33.5,54.6,32.2z"/>
		<path class="st0" d="M60.5,28.7v5.5h-1l-2.2-4.8h0v4.8h-0.6v-5.5h1l2.2,4.8h0v-4.8C59.9,28.7,60.5,28.7,60.5,28.7z"/>
		<path class="st0" d="M64.5,30.2c0-0.7-0.3-1-1-1c-0.2,0-1,0-1,1.2v1.9c0,1.2,0.4,1.5,1,1.5c0.5,0,0.8-0.1,1-0.2v-1.7h-1v-0.6h1.7
			v2.7c-0.5,0.2-1,0.4-1.7,0.4c-1.2,0-1.7-0.6-1.7-2.1v-1.8c0-1.1,0.6-1.8,1.7-1.8c1.2,0,1.8,0.4,1.7,1.6L64.5,30.2L64.5,30.2z"/>
		<path class="st0" d="M67.2,32.6v0.2c0,0.8,0.5,1,0.9,1c0.6,0,1-0.2,1-0.9c0-1.2-2.5-1.1-2.5-2.8c0-1,0.7-1.5,1.6-1.5
			c1,0,1.6,0.5,1.5,1.6H69c0-0.6-0.2-1-0.8-1c-0.4,0-0.8,0.2-0.8,0.8c0,1.2,2.5,1,2.5,2.8c0,1.2-0.8,1.5-1.7,1.5
			c-1.6,0-1.6-1.2-1.6-1.8L67.2,32.6C67.2,32.6,67.2,32.6,67.2,32.6z"/>
		<path class="st0" d="M72.2,28.7h0.9l1.8,5.5h-0.8l-0.4-1.3h-2.1l-0.4,1.3h-0.7L72.2,28.7z M72.7,29.3L72.7,29.3l-0.9,3h1.8
			L72.7,29.3z"/>
		<path class="st0" d="M79.6,28.7v5.5h-1l-2.2-4.8h0v4.8h-0.6v-5.5h1l2.2,4.8h0v-4.8C79,28.7,79.6,28.7,79.6,28.7z"/>
		<path class="st0" d="M83.6,30.2c0-0.7-0.3-1-1-1c-0.2,0-1,0-1,1.2v1.9c0,1.2,0.3,1.5,1,1.5c0.5,0,0.8-0.1,1-0.2v-1.7h-1v-0.6h1.7
			v2.7c-0.5,0.2-1,0.4-1.7,0.4c-1.2,0-1.7-0.6-1.7-2.1v-1.8c0-1.1,0.6-1.8,1.7-1.8c1.2,0,1.8,0.4,1.7,1.6L83.6,30.2L83.6,30.2z"/>
		<path class="st0" d="M89.6,28.7v5.5h-1l-2.2-4.8h0v4.8h-0.6v-5.5h1l2.1,4.8h0v-4.8C88.9,28.7,89.6,28.7,89.6,28.7z"/>
		<path class="st0" d="M92.2,28.7h0.9l1.8,5.5h-0.8l-0.4-1.3h-2.1l-0.4,1.3h-0.7C90.4,34.2,92.2,28.7,92.2,28.7z M92.6,29.3
			L92.6,29.3l-0.9,3h1.8L92.6,29.3L92.6,29.3z"/>
		<path class="st0" d="M96.4,34.2h-0.7v-5.5h1.1l1.4,4.7h0l1.4-4.7h1.2v5.5h-0.7v-4.9h0l-1.6,4.9h-0.7l-1.5-4.9h0L96.4,34.2
			L96.4,34.2z"/>
		<path class="st0" d="M102.2,28.7h1.7c0.7,0,1.2,0.3,1.5,0.8c0.2,0.5,0.2,1.6,0.2,1.7c0,1.2-0.1,1.9-0.3,2.2
			c-0.3,0.5-0.9,0.7-1.8,0.7h-1.3L102.2,28.7L102.2,28.7z M102.9,33.6h0.7c1,0,1.3-0.4,1.3-1.7v-1.1c0-1.1-0.3-1.5-1.1-1.5h-0.9
			L102.9,33.6L102.9,33.6z"/>
		<path class="st0" d="M106.9,32.2v-1.8c0-1.1,0.6-1.8,1.8-1.8s1.7,0.7,1.7,1.8v1.8c0,1.5-0.6,2.1-1.7,2.1
			C107.5,34.4,106.9,33.8,106.9,32.2z M109.7,32.2v-1.9c0-1.2-0.8-1.2-1-1.2c-0.2,0-1,0-1,1.2v1.9c0,1.2,0.4,1.5,1,1.5
			C109.3,33.8,109.7,33.5,109.7,32.2z"/>
		<path class="st0" d="M113.5,32.2v-1.8c0-1.1,0.6-1.8,1.7-1.8s1.7,0.7,1.7,1.8v1.8c0,1.5-0.6,2.1-1.7,2.1S113.5,33.8,113.5,32.2z
			 M116.2,32.2v-1.9c0-1.2-0.8-1.2-1-1.2c-0.2,0-1,0-1,1.2v1.9c0,1.2,0.4,1.5,1,1.5C115.9,33.8,116.2,33.5,116.2,32.2z"/>
		<path class="st0" d="M118.2,34.2v-5.5h2.8v0.6h-2v1.8h1.9v0.6h-1.9v2.5L118.2,34.2L118.2,34.2z"/>
		<path class="st0" d="M121.7,34.2v-5.5h2.7v0.6h-2v1.8h1.9v0.6h-1.9v2.5L121.7,34.2L121.7,34.2z"/>
		<path class="st0" d="M126,34.2h-0.7v-5.5h0.7V34.2z"/>
		<path class="st0" d="M129.9,30.2c0-0.3,0-0.6-0.2-0.8c-0.1-0.2-0.5-0.2-0.6-0.2c-0.6,0-0.8,0.4-0.8,0.4c0,0.1-0.2,0.2-0.2,1.2v1.5
			c0,1.4,0.4,1.5,1,1.5c0.2,0,0.9-0.1,0.9-1.2h0.7c0,1.8-1.2,1.8-1.6,1.8c-0.7,0-1.8,0-1.8-2.2v-1.6c0-1.6,0.7-2,1.8-2
			c1.1,0,1.5,0.6,1.4,1.6H129.9L129.9,30.2z"/>
		<path class="st0" d="M131.8,34.2v-5.5h2.9v0.6h-2.1v1.8h2v0.6h-2v1.9h2.2v0.6L131.8,34.2L131.8,34.2z"/>
		<path class="st0" d="M137.5,32.2v-1.8c0-1.1,0.6-1.8,1.8-1.8c1.2,0,1.7,0.7,1.7,1.8v1.8c0,1.5-0.6,2.1-1.7,2.1
			C138,34.4,137.5,33.8,137.5,32.2z M140.2,32.2v-1.9c0-1.2-0.8-1.2-1-1.2c-0.2,0-1,0-1,1.2v1.9c0,1.2,0.4,1.5,1,1.5
			C139.9,33.8,140.2,33.5,140.2,32.2z"/>
		<path class="st0" d="M142.2,34.2v-5.5h2.8v0.6h-2v1.8h1.9v0.6h-1.9v2.5L142.2,34.2L142.2,34.2z"/>
		<path class="st0" d="M147.5,34.2v-5.5h2.9v0.6h-2.1v1.8h2v0.6h-2v1.9h2.2v0.6L147.5,34.2L147.5,34.2z"/>
		<path class="st0" d="M151.5,28.7h1.7c0.7,0,1.2,0.3,1.5,0.8c0.2,0.5,0.2,1.6,0.2,1.7c0,1.2-0.1,1.9-0.3,2.2
			c-0.3,0.5-0.9,0.7-1.8,0.7h-1.3C151.5,34.2,151.5,28.7,151.5,28.7z M152.2,33.6h0.7c1,0,1.3-0.4,1.3-1.7v-1.1
			c0-1.1-0.3-1.5-1.1-1.5h-0.9L152.2,33.6L152.2,33.6z"/>
		<path class="st0" d="M156.2,28.7h0.7v3.6c0,1.2,0.4,1.5,1,1.5c0.7,0,1-0.3,1-1.5v-3.6h0.7v3.5c0,1.5-0.6,2.1-1.7,2.1
			c-1.2,0-1.7-0.6-1.7-2.1L156.2,28.7L156.2,28.7z"/>
		<path class="st0" d="M163.4,30.2c0-0.3,0-0.6-0.2-0.8c-0.1-0.2-0.5-0.2-0.6-0.2c-0.6,0-0.8,0.4-0.8,0.4c0,0.1-0.2,0.2-0.2,1.2v1.5
			c0,1.4,0.4,1.5,1,1.5c0.2,0,0.9-0.1,0.9-1.2h0.7c0,1.8-1.2,1.8-1.6,1.8c-0.7,0-1.8,0-1.8-2.2v-1.6c0-1.6,0.7-2,1.8-2
			c1.1,0,1.5,0.6,1.5,1.6H163.4L163.4,30.2z"/>
		<path class="st0" d="M166.6,28.7h0.9l1.8,5.5h-0.8l-0.4-1.3H166l-0.4,1.3h-0.7L166.6,28.7L166.6,28.7z M167,29.3L167,29.3l-0.9,3
			h1.8L167,29.3L167,29.3z"/>
		<path class="st0" d="M172.7,28.7v0.6h-1.5v4.9h-0.7v-4.9H169v-0.6L172.7,28.7L172.7,28.7z"/>
		<path class="st0" d="M174.3,34.2h-0.7v-5.5h0.7V34.2z"/>
		<path class="st0" d="M175.7,32.2v-1.8c0-1.1,0.6-1.8,1.8-1.8c1.2,0,1.7,0.7,1.7,1.8v1.8c0,1.5-0.6,2.1-1.7,2.1
			C176.2,34.4,175.7,33.8,175.7,32.2z M178.4,32.2v-1.9c0-1.2-0.8-1.2-1-1.2c-0.2,0-1,0-1,1.2v1.9c0,1.2,0.4,1.5,1,1.5
			C178.1,33.8,178.4,33.5,178.4,32.2z"/>
		<path class="st0" d="M184.3,28.7v5.5h-1l-2.2-4.8h0v4.8h-0.6v-5.5h1l2.2,4.8h0v-4.8H184.3L184.3,28.7z"/>
	</g>
	<g>
		<path class="st0" d="M184.4,20.4V8.9h-2.9v3.3h-2.5v1.4h2.5v2.9c-1-0.5-2.2-0.8-3.5-0.9v0c0,0-3.6-1.9-4.6-4.7v-0.6h4V9h-4V7.9
			h-2.8V9h-4.2v1.4h4.2v0.4c-0.9,2.9-4.7,4.9-4.7,4.9l0.1,1.6c2.8-0.5,4.8-2.3,6-3.8c0.7,0.9,1.7,1.8,3,2.5
			c-2.6,0.7-4.4,2.4-4.4,4.4c0,2.6,3.1,4.8,7,4.8c3.4,0,6.2-1.7,6.8-3.9l0.1,0.1V20.4L184.4,20.4L184.4,20.4z M177.4,23.8
			c-2.1,0-3.9-1.5-3.9-3.4s1.7-3.4,3.9-3.4c0.1,0,0.2,0,0.3,0c0,0,0.1,0,0.1,0v0c1.9,0.2,3.4,1.6,3.4,3.4
			C181.3,22.3,179.6,23.8,177.4,23.8z"/>
		<path class="st0" d="M50.1,9.5L50.1,9.5l0.1-0.9h-11v1.7h7.7c-0.2,1.6-1.6,5.3-7.8,5.5L39,17.4C39,17.4,49.5,17.8,50.1,9.5
			L50.1,9.5z M57.8,19.2V8.8h-6.3v1.4h3.4v2.1h-3.4v1.4h3.4v2.4c-1-0.5-2.2-0.8-3.5-0.8c-3.6,0-6.1,2.1-6.1,4.7s2.5,4.9,6.1,4.9
			s6.5-2.1,6.5-4.8C57.9,19.8,57.9,19.5,57.8,19.2L57.8,19.2z M51.4,23.6c-2.1,0-3.6-1.6-3.6-3.5s1.5-3.5,3.6-3.5s3.8,1.6,3.8,3.5
			S53.5,23.6,51.4,23.6z"/>
		<path class="st0" d="M80.5,10.1V8.8h-5.4v7.6c-1-0.5-2.3-0.8-3.7-0.9c-0.7-0.3-3.6-2-4.5-4.4V8.4h-2.8v2.5
			c-0.9,2.9-4.7,4.9-4.7,4.9l0.1,1.6c2.8-0.5,4.8-2.3,6-3.8c0.7,0.8,1.5,1.7,2.6,2.4c-2.4,0.8-4,2.4-4,4.3c0,2.6,3.1,4.8,7,4.8
			c3.8,0,6.9-2.1,7-4.6l0,0v-0.1l0,0V10.1C78,10.1,80.5,10.1,80.5,10.1z M71,23.6c-2.1,0-3.9-1.5-3.9-3.4c0-1.8,1.6-3.3,3.7-3.4
			c0.2,0,0.4,0,0.7,0v0c1.9,0.2,3.4,1.6,3.4,3.4C74.8,22.1,73.1,23.6,71,23.6L71,23.6z"/>
		<path class="st0" d="M96.6,8.8v5.9H85V8.8h-2.6v7.3h14.2V18H84v0.2l0,0v5.9h15.5v-2.9l0,0v-11h2.5V8.8L96.6,8.8L96.6,8.8z
			 M96.6,22.7h-9.7v-3.4h9.7V22.7z"/>
		<polygon class="st0" points="125.1,9 125.1,10.4 138.1,10.4 138.1,22.7 135.6,22.7 135.6,15.2 132.7,15.2 132.7,22.7 130.2,22.7 
			130.2,15.2 127.3,15.2 127.3,22.7 124.4,22.7 124.4,24.1 141,24.1 141,9 		"/>
		<polygon class="st0" points="120.3,10.4 120.3,9 104.5,9 104.5,17.6 106.8,17.6 106.8,17.6 111.3,17.6 111.3,22.7 104.5,22.7 
			104.5,24.1 120.3,24.1 120.3,22.7 114.1,22.7 114.1,17.6 120.3,17.6 120.3,16.3 107.4,16.3 107.4,10.4 		"/>
		<path class="st0" d="M163.2,17.5v-1.4h-19.1v1.4h4.6v1.7h-3.3v1.4h13.4v3.5h2.9v-4.9h-3.7v-1.7C158.1,17.5,163.2,17.5,163.2,17.5z
			 M155.2,19.2h-3.6v-1.7h3.6V19.2L155.2,19.2z M153.7,15c4.5,0,8.2-1.7,8.2-3.8s-3.7-3.8-8.2-3.8s-8.2,1.7-8.2,3.8
			S149.1,15,153.7,15z M153.7,8.9c2.4,0,4.4,1,4.4,2.3c0,1.3-2,2.3-4.4,2.3s-4.4-1-4.4-2.3C149.3,9.9,151.2,8.9,153.7,8.9z"/>
	</g>
	<path class="st1" d="M20.3,34.5C9.9,37.9,3.7,32.1,2.6,30.6c-5-6.7,0.3-12.8,6.2-15.2c0,0-6,3.2-4.7,8.1c1.3,5,7.3,6.8,12.8,5.3
		l5.7-2l5.3,5.1C28,31.9,20.3,34.5,20.3,34.5z"/>
	<path class="st2" d="M8,19.5l5.3,5.1l5.7-2c5.6-1.5,11.5,0.4,12.8,5.3c1.4,5-4.7,8.1-4.7,8.1c5.9-2.4,10.4-8.6,6-15.1
		c-1.1-1.5-6.5-7.7-17.3-4.1L8,19.5L8,19.5z"/>
	<path class="st3" d="M22.9,9c0,2.7-2.2,5-5,5s-5-2.2-5-5s2.2-5,5-5S22.9,6.2,22.9,9z"/>
</g>
</svg>
