<?xml version="1.0" encoding="utf-8"?>
<!-- Generator: Adobe Illustrator 27.0.0, SVG Export Plug-In . SVG Version: 6.00 Build 0)  -->
<svg version="1.1" id="Layer_1" xmlns="http://www.w3.org/2000/svg" xmlns:xlink="http://www.w3.org/1999/xlink" x="0px" y="0px"
	 width="186px" height="24px" viewBox="0 0 186 24" style="enable-background:new 0 0 186 24;" xml:space="preserve">
<style type="text/css">
	.st0{fill:url(#SVGID_1_);}
	.st1{fill:url(#SVGID_00000158011459383182546740000004041827730421630127_);}
	.st2{fill:url(#SVGID_00000180352487371309698580000007324755738339953086_);}
	.st3{fill:url(#SVGID_00000093879967571956040260000012985982016267262142_);}
	.st4{fill:url(#SVGID_00000057130351899017732790000003956844980147853735_);}
	.st5{fill:url(#SVGID_00000089533442415291901780000018426304894075491730_);}
	.st6{fill:url(#SVGID_00000110447868673532393180000001835188893070019221_);}
	.st7{fill:url(#SVGID_00000018923460859692288270000002786101745406333607_);}
	.st8{fill:url(#SVGID_00000091013662186485715930000016231786009331364240_);}
	.st9{fill:url(#SVGID_00000059309588153278745950000010310501239628880295_);}
	.st10{fill:url(#SVGID_00000123402048655425600370000000999270146001097916_);}
	.st11{fill:url(#SVGID_00000024684755909655842410000012862521414347468445_);}
	.st12{fill:url(#SVGID_00000057138715741315765960000016282661083420637629_);}
	.st13{fill:url(#SVGID_00000108996327405983491270000010963401345098076044_);}
	.st14{fill:url(#SVGID_00000127026962558468433220000017768939642745833352_);}
	.st15{fill:url(#SVGID_00000116203454137794975580000000328959398601457034_);}
	.st16{fill:url(#SVGID_00000111907755595364980320000002861446395734396855_);}
	.st17{fill:url(#SVGID_00000011734139383237771830000008781802139641802135_);}
	.st18{fill:#FFFFFF;}
</style>
<g>
	<g>
		<g>
			
				<linearGradient id="SVGID_1_" gradientUnits="userSpaceOnUse" x1="0" y1="1406.6852" x2="12.3502" y2="1406.6852" gradientTransform="matrix(1 0 0 -1 0 1429.4547)">
				<stop  offset="0" style="stop-color:#FFFFFF"/>
				<stop  offset="0.2273" style="stop-color:#FFFFFF"/>
				<stop  offset="1" style="stop-color:#FFFFFF;stop-opacity:0"/>
			</linearGradient>
			<path class="st0" d="M11.121,23.999H1.23c-0.679,0-1.23-0.551-1.23-1.23s0.551-1.23,1.23-1.23h9.891
				c0.679,0,1.23,0.551,1.23,1.23S11.799,23.999,11.121,23.999z"/>
		</g>
		<g>
			
				<linearGradient id="SVGID_00000035532143003668317670000001393380328039932293_" gradientUnits="userSpaceOnUse" x1="20.7444" y1="4.8199" x2="27.732" y2="4.8199">
				<stop  offset="0" style="stop-color:#FFFFFF"/>
				<stop  offset="0.3984" style="stop-color:#FFFFFF"/>
				<stop  offset="1" style="stop-color:#FFFFFF;stop-opacity:0.2"/>
			</linearGradient>
			<path style="fill:url(#SVGID_00000035532143003668317670000001393380328039932293_);" d="M26.013,6.049h-4.528
				c-0.679,0-1.23-0.551-1.23-1.23s0.551-1.23,1.23-1.23h4.528c0.679,0,1.23,0.551,1.23,1.23S26.692,6.049,26.013,6.049z"/>
		</g>
		<g>
			
				<linearGradient id="SVGID_00000129887636100396014450000016706334455595655607_" gradientUnits="userSpaceOnUse" x1="23.4748" y1="1.2296" x2="31.0105" y2="1.2296">
				<stop  offset="0" style="stop-color:#FFFFFF"/>
				<stop  offset="0.0401" style="stop-color:#FFFFFF"/>
				<stop  offset="0.3984" style="stop-color:#FFFFFF"/>
				<stop  offset="1" style="stop-color:#FFFFFF;stop-opacity:0.2"/>
			</linearGradient>
			<path style="fill:url(#SVGID_00000129887636100396014450000016706334455595655607_);" d="M29.781,2.459h-5.077
				c-0.679,0-1.23-0.551-1.23-1.23S24.026,0,24.704,0h5.077c0.679,0,1.23,0.551,1.23,1.23S30.46,2.459,29.781,2.459z"/>
		</g>
		<g>
			
				<linearGradient id="SVGID_00000070097066584408767020000003283551548433336238_" gradientUnits="userSpaceOnUse" x1="20.7444" y1="-291.2037" x2="27.732" y2="-291.2037" gradientTransform="matrix(1 0 0 -1 0 -272.0235)">
				<stop  offset="0" style="stop-color:#FFFFFF"/>
				<stop  offset="0.3984" style="stop-color:#FFFFFF"/>
				<stop  offset="1" style="stop-color:#FFFFFF;stop-opacity:0.2"/>
			</linearGradient>
			<path style="fill:url(#SVGID_00000070097066584408767020000003283551548433336238_);" d="M26.013,17.951h-4.528
				c-0.679,0-1.23,0.551-1.23,1.23c0,0.679,0.551,1.23,1.23,1.23h4.528c0.679,0,1.23-0.551,1.23-1.23
				C27.243,18.501,26.692,17.951,26.013,17.951z"/>
		</g>
		<g>
			
				<linearGradient id="SVGID_00000153679432936201960830000000491958434931574202_" gradientUnits="userSpaceOnUse" x1="23.4748" y1="-294.7939" x2="31.0105" y2="-294.7939" gradientTransform="matrix(1 0 0 -1 0 -272.0235)">
				<stop  offset="0" style="stop-color:#FFFFFF"/>
				<stop  offset="0.3984" style="stop-color:#FFFFFF"/>
				<stop  offset="1" style="stop-color:#FFFFFF;stop-opacity:0.2"/>
			</linearGradient>
			<path style="fill:url(#SVGID_00000153679432936201960830000000491958434931574202_);" d="M29.781,21.541h-5.077
				c-0.679,0-1.23,0.551-1.23,1.23c0,0.679,0.551,1.23,1.23,1.23h5.077c0.679,0,1.23-0.551,1.23-1.23
				C31.011,22.092,30.46,21.541,29.781,21.541z"/>
		</g>
		<g>
			
				<linearGradient id="SVGID_00000026867785590906712290000006584540159724708482_" gradientUnits="userSpaceOnUse" x1="0" y1="1.2296" x2="12.3502" y2="1.2296">
				<stop  offset="0" style="stop-color:#FFFFFF"/>
				<stop  offset="0.2273" style="stop-color:#FFFFFF"/>
				<stop  offset="1" style="stop-color:#FFFFFF;stop-opacity:0"/>
			</linearGradient>
			<path style="fill:url(#SVGID_00000026867785590906712290000006584540159724708482_);" d="M11.121,2.459H1.23
				C0.551,2.459,0,1.908,0,1.23S0.551,0,1.23,0h9.891c0.679,0,1.23,0.551,1.23,1.23S11.799,2.459,11.121,2.459z"/>
		</g>
		<g>
			
				<linearGradient id="SVGID_00000102530760255623998550000012375321237502802048_" gradientUnits="userSpaceOnUse" x1="0" y1="4.8199" x2="16.2671" y2="4.8199">
				<stop  offset="0" style="stop-color:#FFFFFF"/>
				<stop  offset="0.2273" style="stop-color:#FFFFFF"/>
				<stop  offset="1" style="stop-color:#FFFFFF;stop-opacity:0"/>
			</linearGradient>
			<path style="fill:url(#SVGID_00000102530760255623998550000012375321237502802048_);" d="M15.038,6.049H1.23
				C0.551,6.049,0,5.499,0,4.82s0.551-1.23,1.23-1.23h13.808c0.679,0,1.23,0.551,1.23,1.23S15.716,6.049,15.038,6.049z"/>
		</g>
		<g>
			
				<linearGradient id="SVGID_00000142161295984525793350000011020480073958973364_" gradientUnits="userSpaceOnUse" x1="0" y1="8.4093" x2="17.8633" y2="8.4093">
				<stop  offset="0" style="stop-color:#FFFFFF"/>
				<stop  offset="0.2273" style="stop-color:#FFFFFF"/>
				<stop  offset="1" style="stop-color:#FFFFFF;stop-opacity:0"/>
			</linearGradient>
			<path style="fill:url(#SVGID_00000142161295984525793350000011020480073958973364_);" d="M16.634,9.639H1.23
				C0.551,9.639,0,9.088,0,8.409s0.551-1.23,1.23-1.23h15.404c0.679,0,1.23,0.551,1.23,1.23S17.313,9.639,16.634,9.639z"/>
		</g>
		<g>
			
				<linearGradient id="SVGID_00000169537518743550382930000002067337809040906114_" gradientUnits="userSpaceOnUse" x1="0" y1="11.9996" x2="18.8888" y2="11.9996">
				<stop  offset="0" style="stop-color:#FFFFFF"/>
				<stop  offset="0.2273" style="stop-color:#FFFFFF"/>
				<stop  offset="1" style="stop-color:#FFFFFF;stop-opacity:0"/>
			</linearGradient>
			<path style="fill:url(#SVGID_00000169537518743550382930000002067337809040906114_);" d="M17.659,13.229H1.23
				C0.551,13.229,0,12.678,0,12c0-0.679,0.551-1.23,1.23-1.23h16.43c0.679,0,1.23,0.551,1.23,1.23
				C18.889,12.678,18.338,13.229,17.659,13.229z"/>
		</g>
		<g>
			
				<linearGradient id="SVGID_00000016075025000898672390000010449764109503614598_" gradientUnits="userSpaceOnUse" x1="0" y1="1410.2747" x2="16.2671" y2="1410.2747" gradientTransform="matrix(1 0 0 -1 0 1429.4547)">
				<stop  offset="0" style="stop-color:#FFFFFF"/>
				<stop  offset="0.2273" style="stop-color:#FFFFFF"/>
				<stop  offset="1" style="stop-color:#FFFFFF;stop-opacity:0"/>
			</linearGradient>
			<path style="fill:url(#SVGID_00000016075025000898672390000010449764109503614598_);" d="M15.038,20.41H1.23
				C0.551,20.41,0,19.859,0,19.18c0-0.679,0.551-1.23,1.23-1.23h13.808c0.679,0,1.23,0.551,1.23,1.23
				C16.267,19.859,15.716,20.41,15.038,20.41z"/>
		</g>
		<g>
			
				<linearGradient id="SVGID_00000160900678671371488880000010432956172798756009_" gradientUnits="userSpaceOnUse" x1="0" y1="1413.8657" x2="17.8633" y2="1413.8657" gradientTransform="matrix(1 0 0 -1 0 1429.4547)">
				<stop  offset="0" style="stop-color:#FFFFFF"/>
				<stop  offset="0.2273" style="stop-color:#FFFFFF"/>
				<stop  offset="1" style="stop-color:#FFFFFF;stop-opacity:0"/>
			</linearGradient>
			<path style="fill:url(#SVGID_00000160900678671371488880000010432956172798756009_);" d="M16.634,16.819H1.23
				c-0.679,0-1.23-0.551-1.23-1.23c0-0.679,0.551-1.23,1.23-1.23h15.404c0.679,0,1.23,0.551,1.23,1.23
				C17.863,16.268,17.313,16.819,16.634,16.819z"/>
		</g>
		<g>
			
				<linearGradient id="SVGID_00000052798621501029766200000013783211784173303449_" gradientUnits="userSpaceOnUse" x1="13.5858" y1="8.4093" x2="24.5495" y2="8.4093">
				<stop  offset="0" style="stop-color:#FFFFFF"/>
				<stop  offset="0.3984" style="stop-color:#FFFFFF"/>
				<stop  offset="1" style="stop-color:#FFFFFF;stop-opacity:0.2"/>
			</linearGradient>
			<path style="fill:url(#SVGID_00000052798621501029766200000013783211784173303449_);" d="M23.32,9.639h-8.505
				c-0.679,0-1.23-0.551-1.23-1.23s0.551-1.23,1.23-1.23h8.505c0.679,0,1.23,0.551,1.23,1.23S23.999,9.639,23.32,9.639z"/>
		</g>
		<g>
			
				<linearGradient id="SVGID_00000143611278431874011880000001028332178541435797_" gradientUnits="userSpaceOnUse" x1="13.5858" y1="15.5891" x2="24.5495" y2="15.5891">
				<stop  offset="0" style="stop-color:#FFFFFF"/>
				<stop  offset="0.3984" style="stop-color:#FFFFFF"/>
				<stop  offset="1" style="stop-color:#FFFFFF;stop-opacity:0.2"/>
			</linearGradient>
			<path style="fill:url(#SVGID_00000143611278431874011880000001028332178541435797_);" d="M23.32,16.819h-8.505
				c-0.679,0-1.23-0.551-1.23-1.23c0-0.679,0.551-1.23,1.23-1.23h8.505c0.679,0,1.23,0.551,1.23,1.23
				C24.55,16.268,23.999,16.819,23.32,16.819z"/>
		</g>
		<g>
			
				<linearGradient id="SVGID_00000173130717849129430170000009140127793078587579_" gradientUnits="userSpaceOnUse" x1="15.4098" y1="11.9996" x2="22.7256" y2="11.9996">
				<stop  offset="0" style="stop-color:#FFFFFF"/>
				<stop  offset="0.3984" style="stop-color:#FFFFFF"/>
				<stop  offset="1" style="stop-color:#FFFFFF;stop-opacity:0.2"/>
			</linearGradient>
			<path style="fill:url(#SVGID_00000173130717849129430170000009140127793078587579_);" d="M21.496,13.229h-4.857
				c-0.679,0-1.23-0.551-1.23-1.23c0-0.679,0.551-1.23,1.23-1.23h4.857c0.679,0,1.23,0.551,1.23,1.23
				C22.726,12.678,22.175,13.229,21.496,13.229z"/>
		</g>
		<g>
			
				<linearGradient id="SVGID_00000122697790004010073130000002275499402034408092_" gradientUnits="userSpaceOnUse" x1="9.2795" y1="4.8199" x2="16.2671" y2="4.8199">
				<stop  offset="0" style="stop-color:#FFFFFF"/>
				<stop  offset="0.3984" style="stop-color:#FFFFFF"/>
				<stop  offset="1" style="stop-color:#FFFFFF;stop-opacity:0.2"/>
			</linearGradient>
			<path style="fill:url(#SVGID_00000122697790004010073130000002275499402034408092_);" d="M15.038,6.049h-4.528
				c-0.679,0-1.23-0.551-1.23-1.23s0.551-1.23,1.23-1.23h4.528c0.679,0,1.23,0.551,1.23,1.23S15.716,6.049,15.038,6.049z"/>
		</g>
		<g>
			
				<linearGradient id="SVGID_00000155110208019017858860000015026973591456177838_" gradientUnits="userSpaceOnUse" x1="9.2795" y1="19.1801" x2="16.2671" y2="19.1801">
				<stop  offset="0" style="stop-color:#FFFFFF"/>
				<stop  offset="0.3984" style="stop-color:#FFFFFF"/>
				<stop  offset="1" style="stop-color:#FFFFFF;stop-opacity:0.2"/>
			</linearGradient>
			<path style="fill:url(#SVGID_00000155110208019017858860000015026973591456177838_);" d="M15.038,20.41h-4.528
				c-0.679,0-1.23-0.551-1.23-1.23c0-0.679,0.551-1.23,1.23-1.23h4.528c0.679,0,1.23,0.551,1.23,1.23
				C16.267,19.859,15.716,20.41,15.038,20.41z"/>
		</g>
		<g>
			
				<linearGradient id="SVGID_00000145760914917914279990000014072434264345084835_" gradientUnits="userSpaceOnUse" x1="4.8145" y1="1.2296" x2="12.3502" y2="1.2296">
				<stop  offset="0" style="stop-color:#FFFFFF"/>
				<stop  offset="0.3984" style="stop-color:#FFFFFF"/>
				<stop  offset="1" style="stop-color:#FFFFFF;stop-opacity:0.2"/>
			</linearGradient>
			<path style="fill:url(#SVGID_00000145760914917914279990000014072434264345084835_);" d="M11.121,2.459H6.044
				c-0.679,0-1.23-0.551-1.23-1.23S5.365,0,6.044,0h5.077c0.679,0,1.23,0.551,1.23,1.23S11.799,2.459,11.121,2.459z"/>
		</g>
		<g>
			
				<linearGradient id="SVGID_00000114776265463524454600000017782587276705332652_" gradientUnits="userSpaceOnUse" x1="4.8145" y1="22.7696" x2="12.3502" y2="22.7696">
				<stop  offset="0" style="stop-color:#FFFFFF"/>
				<stop  offset="0.3984" style="stop-color:#FFFFFF"/>
				<stop  offset="1" style="stop-color:#FFFFFF;stop-opacity:0.2"/>
			</linearGradient>
			<path style="fill:url(#SVGID_00000114776265463524454600000017782587276705332652_);" d="M11.121,23.999H6.044
				c-0.679,0-1.23-0.551-1.23-1.23s0.551-1.23,1.23-1.23h5.077c0.679,0,1.23,0.551,1.23,1.23S11.799,23.999,11.121,23.999z"/>
		</g>
	</g>
	<g>
		<path class="st18" d="M41.577,19.753h-5.734V4.113h5.734c5.2,0,6.07,3.895,6.07,7.81C47.647,15.956,46.738,19.753,41.577,19.753z
			 M41.36,6.585h-2.61v10.697h2.61c2.412,0,3.401-1.186,3.401-5.358C44.761,7.791,43.752,6.585,41.36,6.585z"/>
		<path class="st18" d="M47.548,19.753l4.686-8.086l-4.35-7.553h3.144l3.045,5.576l3.025-5.576h3.144l-4.37,7.553l4.706,8.086
			h-3.144l-3.361-6.07l-3.381,6.07H47.548z"/>
		<path class="st18" d="M67.489,10.236v7.834h1.856v-7.834h2.676v7.834h5.587v2.325H61.667V18.07h3.145v-7.834H67.489z
			 M74.033,5.899H62.468V3.555H76.71v6.33c0,2.012-0.176,4.161-0.488,5.704h-2.657c0.274-1.446,0.469-3.458,0.469-5.138V5.899z"/>
		<path class="st18" d="M79.737,11.272h16.136v2.266h-3.614v1.934h2.481v5.998h-2.677v-3.712H80.752v-2.286h2.598v-1.934h-3.614
			V11.272z M80.557,6.876c0-1.035,0.43-1.836,1.231-2.403c1.231-0.879,3.341-1.231,6.037-1.231s4.806,0.351,6.037,1.231
			c0.801,0.566,1.231,1.368,1.231,2.403c0,1.055-0.43,1.836-1.231,2.403c-1.231,0.879-3.341,1.231-6.037,1.231
			s-4.806-0.351-6.037-1.231C80.987,8.713,80.557,7.931,80.557,6.876z M83.233,6.876c0,0.332,0.195,0.606,0.566,0.821
			c0.762,0.43,2.247,0.586,4.024,0.586c1.778,0,3.263-0.156,4.044-0.586c0.352-0.215,0.547-0.489,0.547-0.821
			c0-0.332-0.195-0.606-0.547-0.821c-0.781-0.43-2.266-0.586-4.044-0.586c-1.778,0-3.263,0.156-4.024,0.586
			C83.429,6.271,83.233,6.544,83.233,6.876z M89.622,13.538h-3.634v1.934h3.634V13.538z"/>
		<path class="st18" d="M103.197,19.985H98.47V3.555h6.544V5.88h-3.926v11.78h2.246c0.86,0,1.699-0.039,2.383-0.195v2.188
			C105.034,19.907,104.116,19.985,103.197,19.985z M107.026,20.962v-8.459h-3.263v-2.325h3.263V3.341h2.579v17.621H107.026z
			 M110.66,21.177V3.243h2.598v17.934H110.66z"/>
		<path class="st18" d="M125.897,11.741c0,3.145-0.254,5.548-1.348,6.974c-0.742,0.977-1.934,1.504-3.341,1.504
			c-1.387,0-2.578-0.527-3.34-1.504c-1.094-1.426-1.328-3.829-1.328-6.974c0-3.126,0.235-5.529,1.328-6.955
			c0.762-0.977,1.954-1.524,3.34-1.524c1.407,0,2.598,0.547,3.341,1.524C125.643,6.212,125.897,8.615,125.897,11.741z
			 M119.177,11.741c0,2.657,0.136,4.63,0.723,5.509c0.293,0.43,0.762,0.664,1.308,0.664c0.547,0,1.036-0.234,1.328-0.664
			c0.586-0.879,0.703-2.852,0.703-5.509c0-2.637-0.117-4.611-0.703-5.489c-0.293-0.43-0.781-0.664-1.328-0.664
			c-0.547,0-1.016,0.235-1.308,0.664C119.313,7.13,119.177,9.103,119.177,11.741z M131.172,21.177h-2.677V3.243h2.677V21.177z"/>
		<path class="st18" d="M142.892,10.51v2.325h-5.333v4.826h4.532c1.172,0,2.208-0.039,3.009-0.254v2.207
			c-0.801,0.274-1.915,0.371-3.145,0.371h-7.053V3.555h8.83V5.88h-6.173v4.63H142.892z M149.339,21.177h-2.677v-8.615h-3.048v-2.345
			h3.048V3.243h2.677V21.177z"/>
		<path class="st18" d="M156.214,2.715h2.677v1.583h3.594v2.188h-10.12V4.298h3.849V2.715z M152.893,10.198
			c0-0.997,0.43-1.798,1.192-2.345c0.801-0.606,1.993-0.918,3.419-0.918c1.426,0,2.618,0.312,3.438,0.918
			c0.742,0.547,1.192,1.348,1.192,2.345c0,1.016-0.449,1.797-1.192,2.344c-0.82,0.606-2.012,0.918-3.438,0.918
			c-1.426,0-2.618-0.312-3.419-0.918C153.322,11.995,152.893,11.213,152.893,10.198z M164.848,14.144h2.677v7.229h-13.519v-7.229
			h2.677v1.524h8.166V14.144z M155.452,10.198c0,0.293,0.156,0.547,0.371,0.742c0.371,0.293,0.977,0.43,1.68,0.43
			s1.309-0.137,1.68-0.43c0.215-0.195,0.371-0.449,0.371-0.742c0-0.293-0.156-0.547-0.371-0.723c-0.371-0.293-0.977-0.45-1.68-0.45
			s-1.309,0.156-1.68,0.45C155.608,9.65,155.452,9.904,155.452,10.198z M156.682,17.894v1.231h8.166v-1.231H156.682z M162.465,6.857
			h2.383V3.243h2.677v10.295h-2.677v-1.289h-2.383V10.08h2.383V9.025h-2.383V6.857z"/>
		<path class="st18" d="M171.528,11.936c0-1.387,0.586-2.461,1.524-3.184c0.821-0.625,1.915-0.957,3.106-0.957
			s2.266,0.332,3.087,0.957c0.938,0.723,1.524,1.797,1.524,3.184s-0.586,2.461-1.524,3.184c-0.488,0.371-1.094,0.645-1.739,0.801
			v1.954h2.403c1.446,0,2.52-0.234,3.087-0.742V3.243h2.677v17.934h-2.677v-1.856c-0.586,0.586-1.915,0.879-3.594,0.879h-8.654
			v-2.325h4.083v-1.954c-0.664-0.136-1.27-0.41-1.778-0.801C172.114,14.398,171.528,13.323,171.528,11.936z M177.467,4.786h3.79
			v2.286H171.04V4.786h3.751V2.715h2.677V4.786z M174.185,11.936c0,0.566,0.235,1.074,0.586,1.407
			c0.352,0.312,0.821,0.488,1.387,0.488s1.016-0.176,1.368-0.488c0.351-0.332,0.586-0.84,0.586-1.407
			c0-0.566-0.235-1.075-0.586-1.407c-0.352-0.313-0.801-0.488-1.368-0.488s-1.035,0.176-1.387,0.488
			C174.42,10.861,174.185,11.37,174.185,11.936z"/>
	</g>
</g>
</svg>
