<?xml version="1.0" encoding="utf-8"?>
<!-- Generator: Adobe Illustrator 27.0.0, SVG Export Plug-In . SVG Version: 6.00 Build 0)  -->
<svg version="1.1" id="Layer_1" xmlns="http://www.w3.org/2000/svg" xmlns:xlink="http://www.w3.org/1999/xlink" x="0px" y="0px"
	 width="186px" height="24px" viewBox="0 0 186 24" style="enable-background:new 0 0 186 24;" xml:space="preserve">
<style type="text/css">
	.st0{fill:url(#SVGID_1_);}
	.st1{fill:url(#SVGID_00000006705159588408211790000014197300525045491851_);}
	.st2{fill:url(#SVGID_00000093169577365862672210000002427218772138254720_);}
	.st3{fill:url(#SVGID_00000010996024288130190650000004692881655501531803_);}
	.st4{fill:url(#SVGID_00000024002866345364623460000005768618286490828175_);}
	.st5{fill:url(#SVGID_00000152960308264205739020000004811622341903813532_);}
	.st6{fill:url(#SVGID_00000028323771733822511460000009546328577183835582_);}
	.st7{fill:url(#SVGID_00000072260268606827604350000005858920916793091977_);}
	.st8{fill:url(#SVGID_00000149350091362782813910000013872822414744696753_);}
	.st9{fill:url(#SVGID_00000080918695579948801270000016879673299877855153_);}
	.st10{fill:url(#SVGID_00000031194769758998229880000010254341429443848622_);}
	.st11{fill:url(#SVGID_00000023997225912339447640000013234149846866042538_);}
	.st12{fill:url(#SVGID_00000129176320440833941660000001587536296317250947_);}
	.st13{fill:url(#SVGID_00000142860503866520076590000001785848525415049918_);}
	.st14{fill:url(#SVGID_00000108269666650009363010000008260715179633214855_);}
	.st15{fill:url(#SVGID_00000159457341200057289270000017211924340821269433_);}
	.st16{fill:url(#SVGID_00000010308046481910189770000008789409130596972689_);}
	.st17{fill:url(#SVGID_00000080204409233021831070000008402452808397868679_);}
	.st18{fill:url(#SVGID_00000142172170472990578140000002697100200020631476_);}
	.st19{fill:url(#SVGID_00000062177601443234027850000010149263741535368873_);}
	.st20{fill:url(#SVGID_00000181784343686478657320000009803824509495159962_);}
	.st21{fill:#2C3055;}
</style>
<g>
	<g>
		<g>
			
				<linearGradient id="SVGID_1_" gradientUnits="userSpaceOnUse" x1="0" y1="-206.685" x2="12.35" y2="-206.685" gradientTransform="matrix(1 0 0 1 0 229.4547)">
				<stop  offset="0" style="stop-color:#2C3055"/>
				<stop  offset="0.3819" style="stop-color:#3B568C"/>
				<stop  offset="0.9944" style="stop-color:#5392DF"/>
			</linearGradient>
			<path class="st0" d="M11.121,23.999H1.229C0.551,23.999,0,23.449,0,22.769s0.551-1.229,1.229-1.229h9.891
				c0.679,0,1.229,0.551,1.229,1.229S11.799,23.999,11.121,23.999z"/>
		</g>
		<g>
			
				<linearGradient id="SVGID_00000075883801011189655280000002844756285629533590_" gradientUnits="userSpaceOnUse" x1="14.3787" y1="26" x2="22.7253" y2="26" gradientTransform="matrix(1 0 0 -1 0 38)">
				<stop  offset="0.6145" style="stop-color:#3D2B77"/>
				<stop  offset="0.6252" style="stop-color:#412E79"/>
				<stop  offset="0.7765" style="stop-color:#7E5698"/>
				<stop  offset="1" style="stop-color:#DABAD6"/>
			</linearGradient>
			<path style="fill:url(#SVGID_00000075883801011189655280000002844756285629533590_);" d="M21.496,13.229h-5.888
				c-0.679,0-1.229-0.551-1.229-1.229s0.551-1.229,1.229-1.229h5.888c0.679,0,1.229,0.551,1.229,1.229S22.175,13.229,21.496,13.229z
				"/>
		</g>
		<g>
			
				<linearGradient id="SVGID_00000104687466071441948940000014207045268714045583_" gradientUnits="userSpaceOnUse" x1="15.41" y1="29.5907" x2="23.8507" y2="29.5907" gradientTransform="matrix(1 0 0 -1 0 38)">
				<stop  offset="0" style="stop-color:#3D2B77"/>
				<stop  offset="0.2039" style="stop-color:#412D79"/>
				<stop  offset="0.2074" style="stop-color:#412D79"/>
				<stop  offset="0.6927" style="stop-color:#7E5698"/>
				<stop  offset="1" style="stop-color:#DABAD6"/>
			</linearGradient>
			<path style="fill:url(#SVGID_00000104687466071441948940000014207045268714045583_);" d="M22.621,9.639h-5.982
				c-0.679,0-1.229-0.551-1.229-1.229c0-0.679,0.551-1.229,1.229-1.229h5.982c0.679,0,1.229,0.551,1.229,1.229
				C23.851,9.088,23.301,9.639,22.621,9.639z"/>
		</g>
		<g>
			
				<linearGradient id="SVGID_00000065774447871479959340000000105916978785842356_" gradientUnits="userSpaceOnUse" x1="20.7443" y1="33.18" x2="27.7317" y2="33.18" gradientTransform="matrix(1 0 0 -1 0 38)">
				<stop  offset="0" style="stop-color:#3D2B77"/>
				<stop  offset="0.0345" style="stop-color:#412E79"/>
				<stop  offset="0.5251" style="stop-color:#7E5698"/>
				<stop  offset="1" style="stop-color:#DABAD6"/>
			</linearGradient>
			<path style="fill:url(#SVGID_00000065774447871479959340000000105916978785842356_);" d="M26.013,6.049h-4.529
				c-0.679,0-1.229-0.551-1.229-1.229s0.551-1.229,1.229-1.229h4.529c0.679,0,1.229,0.551,1.229,1.229S26.692,6.049,26.013,6.049z"
				/>
		</g>
		<g>
			
				<linearGradient id="SVGID_00000021817544362274500800000011084937921097015730_" gradientUnits="userSpaceOnUse" x1="23.4747" y1="36.7703" x2="31.0107" y2="36.7703" gradientTransform="matrix(1 0 0 -1 0 38)">
				<stop  offset="0" style="stop-color:#3D2B77"/>
				<stop  offset="0.0287" style="stop-color:#412E79"/>
				<stop  offset="0.4362" style="stop-color:#7E5698"/>
				<stop  offset="1" style="stop-color:#DABAD6"/>
			</linearGradient>
			<path style="fill:url(#SVGID_00000021817544362274500800000011084937921097015730_);" d="M29.781,2.459h-5.077
				c-0.679,0-1.229-0.551-1.229-1.229S24.025,0,24.705,0h5.077c0.679,0,1.229,0.551,1.229,1.229S30.46,2.459,29.781,2.459z"/>
		</g>
		<g>
			
				<linearGradient id="SVGID_00000049902071249814380110000013442854552731750807_" gradientUnits="userSpaceOnUse" x1="20.7443" y1="1491.2035" x2="27.7317" y2="1491.2035" gradientTransform="matrix(1 0 0 1 0 -1472.0234)">
				<stop  offset="0" style="stop-color:#3D2B77"/>
				<stop  offset="0.0345" style="stop-color:#412E79"/>
				<stop  offset="0.5251" style="stop-color:#7E5698"/>
				<stop  offset="1" style="stop-color:#DABAD6"/>
			</linearGradient>
			<path style="fill:url(#SVGID_00000049902071249814380110000013442854552731750807_);" d="M26.013,17.951h-4.529
				c-0.679,0-1.229,0.551-1.229,1.229s0.551,1.229,1.229,1.229h4.529c0.679,0,1.229-0.551,1.229-1.229
				C27.243,18.501,26.692,17.951,26.013,17.951z"/>
		</g>
		<g>
			
				<linearGradient id="SVGID_00000121259314809894144220000005317608785510615175_" gradientUnits="userSpaceOnUse" x1="23.4747" y1="1494.7938" x2="31.0107" y2="1494.7938" gradientTransform="matrix(1 0 0 1 0 -1472.0234)">
				<stop  offset="0" style="stop-color:#3D2B77"/>
				<stop  offset="0.0287" style="stop-color:#412E79"/>
				<stop  offset="0.4362" style="stop-color:#7E5698"/>
				<stop  offset="1" style="stop-color:#DABAD6"/>
			</linearGradient>
			<path style="fill:url(#SVGID_00000121259314809894144220000005317608785510615175_);" d="M29.781,21.541h-5.077
				c-0.679,0-1.229,0.551-1.229,1.229c0,0.679,0.551,1.23,1.23,1.23h5.077c0.679,0,1.229-0.551,1.229-1.229
				C31.011,22.092,30.46,21.541,29.781,21.541z"/>
		</g>
		<g>
			
				<linearGradient id="SVGID_00000183932309730120281040000002927831918658140853_" gradientUnits="userSpaceOnUse" x1="15.41" y1="22.4107" x2="23.8507" y2="22.4107" gradientTransform="matrix(1 0 0 -1 0 38)">
				<stop  offset="0" style="stop-color:#3D2B77"/>
				<stop  offset="0.2039" style="stop-color:#412D79"/>
				<stop  offset="0.2074" style="stop-color:#412D79"/>
				<stop  offset="0.6927" style="stop-color:#7E5698"/>
				<stop  offset="1" style="stop-color:#DABAD6"/>
			</linearGradient>
			<path style="fill:url(#SVGID_00000183932309730120281040000002927831918658140853_);" d="M22.621,16.819h-5.982
				c-0.679,0-1.229-0.551-1.229-1.229s0.551-1.229,1.229-1.229h5.982c0.679,0,1.229,0.551,1.229,1.229
				C23.851,16.268,23.301,16.819,22.621,16.819z"/>
		</g>
		<g>
			
				<linearGradient id="SVGID_00000076567839331166297050000014445311948709353387_" gradientUnits="userSpaceOnUse" x1="0" y1="36.7703" x2="12.35" y2="36.7703" gradientTransform="matrix(1 0 0 -1 0 38)">
				<stop  offset="0" style="stop-color:#2C3055"/>
				<stop  offset="0.3819" style="stop-color:#3B568C"/>
				<stop  offset="0.9944" style="stop-color:#5392DF"/>
			</linearGradient>
			<path style="fill:url(#SVGID_00000076567839331166297050000014445311948709353387_);" d="M11.121,2.459H1.229
				C0.551,2.459,0,1.909,0,1.229S0.551,0,1.229,0h9.891c0.679,0,1.229,0.551,1.229,1.229S11.799,2.459,11.121,2.459z"/>
		</g>
		<g>
			
				<linearGradient id="SVGID_00000140736357769898279580000018054487185377867189_" gradientUnits="userSpaceOnUse" x1="0" y1="33.18" x2="16.2667" y2="33.18" gradientTransform="matrix(1 0 0 -1 0 38)">
				<stop  offset="0" style="stop-color:#2C3055"/>
				<stop  offset="0.3819" style="stop-color:#3B568C"/>
				<stop  offset="0.9944" style="stop-color:#5392DF"/>
			</linearGradient>
			<path style="fill:url(#SVGID_00000140736357769898279580000018054487185377867189_);" d="M15.037,6.049H1.229
				C0.551,6.049,0,5.499,0,4.82s0.551-1.229,1.229-1.229h13.808c0.679,0,1.229,0.551,1.229,1.229S15.717,6.049,15.037,6.049z"/>
		</g>
		<g>
			
				<linearGradient id="SVGID_00000026854158002169768290000002227745188417895047_" gradientUnits="userSpaceOnUse" x1="0" y1="29.5907" x2="17.8627" y2="29.5907" gradientTransform="matrix(1 0 0 -1 0 38)">
				<stop  offset="0" style="stop-color:#2C3055"/>
				<stop  offset="0.3819" style="stop-color:#3B568C"/>
				<stop  offset="0.9944" style="stop-color:#5392DF"/>
			</linearGradient>
			<path style="fill:url(#SVGID_00000026854158002169768290000002227745188417895047_);" d="M16.634,9.639H1.229
				C0.551,9.639,0,9.088,0,8.409C0,7.731,0.551,7.18,1.229,7.18h15.404c0.679,0,1.229,0.551,1.229,1.229
				C17.863,9.088,17.313,9.639,16.634,9.639z"/>
		</g>
		<g>
			
				<linearGradient id="SVGID_00000126315255660215921060000000761133364575110052_" gradientUnits="userSpaceOnUse" x1="0" y1="26.0003" x2="18.888" y2="26.0003" gradientTransform="matrix(1 0 0 -1 0 38)">
				<stop  offset="0" style="stop-color:#2C3055"/>
				<stop  offset="0.3819" style="stop-color:#3B568C"/>
				<stop  offset="0.9944" style="stop-color:#5392DF"/>
			</linearGradient>
			<path style="fill:url(#SVGID_00000126315255660215921060000000761133364575110052_);" d="M17.659,13.229H1.229
				C0.551,13.229,0,12.679,0,11.999c0-0.679,0.551-1.229,1.229-1.229h16.429c0.679,0,1.229,0.551,1.229,1.229
				C18.889,12.679,18.338,13.229,17.659,13.229z"/>
		</g>
		<g>
			
				<linearGradient id="SVGID_00000065074487987622739840000015818284770594461357_" gradientUnits="userSpaceOnUse" x1="0" y1="-210.2744" x2="16.2667" y2="-210.2744" gradientTransform="matrix(1 0 0 1 0 229.4547)">
				<stop  offset="0" style="stop-color:#2C3055"/>
				<stop  offset="0.3819" style="stop-color:#3B568C"/>
				<stop  offset="0.9944" style="stop-color:#5392DF"/>
			</linearGradient>
			<path style="fill:url(#SVGID_00000065074487987622739840000015818284770594461357_);" d="M15.037,20.41H1.229
				C0.551,20.41,0,19.859,0,19.18s0.551-1.229,1.229-1.229h13.808c0.679,0,1.229,0.551,1.229,1.229
				C16.267,19.859,15.717,20.41,15.037,20.41z"/>
		</g>
		<g>
			
				<linearGradient id="SVGID_00000034779802017444095390000005485788632585256630_" gradientUnits="userSpaceOnUse" x1="0" y1="-213.8654" x2="17.8627" y2="-213.8654" gradientTransform="matrix(1 0 0 1 0 229.4547)">
				<stop  offset="0" style="stop-color:#2C3055"/>
				<stop  offset="0.3819" style="stop-color:#3B568C"/>
				<stop  offset="0.9944" style="stop-color:#5392DF"/>
			</linearGradient>
			<path style="fill:url(#SVGID_00000034779802017444095390000005485788632585256630_);" d="M16.634,16.819H1.229
				C0.551,16.819,0,16.268,0,15.589s0.551-1.229,1.229-1.229h15.404c0.679,0,1.229,0.551,1.229,1.229
				C17.863,16.268,17.313,16.819,16.634,16.819z"/>
		</g>
		<g>
			
				<radialGradient id="SVGID_00000139273416329747380520000003141651663891757963_" cx="13.8709" cy="29.3694" r="8.2599" gradientTransform="matrix(1 0 0 -1 0 38)" gradientUnits="userSpaceOnUse">
				<stop  offset="0.0642" style="stop-color:#93FFFB"/>
				<stop  offset="0.0843" style="stop-color:#8EF7F7"/>
				<stop  offset="0.298" style="stop-color:#60A8CB"/>
				<stop  offset="0.396" style="stop-color:#4E89BA"/>
				<stop  offset="0.6476" style="stop-color:#6C67A4"/>
				<stop  offset="0.8572" style="stop-color:#7E5296"/>
				<stop  offset="0.9944" style="stop-color:#854A91"/>
			</radialGradient>
			<path style="fill:url(#SVGID_00000139273416329747380520000003141651663891757963_);" d="M23.32,9.639h-8.505
				c-0.679,0-1.229-0.551-1.229-1.229c0-0.679,0.551-1.229,1.229-1.229h8.505c0.679,0,1.229,0.551,1.229,1.229
				C24.549,9.088,23.999,9.639,23.32,9.639z"/>
		</g>
		<g>
			
				<radialGradient id="SVGID_00000158739179337964955910000004595117944703446448_" cx="13.8709" cy="22.1897" r="8.2599" gradientTransform="matrix(1 0 0 -1 0 38)" gradientUnits="userSpaceOnUse">
				<stop  offset="0.0642" style="stop-color:#93FFFB"/>
				<stop  offset="0.0843" style="stop-color:#8EF7F7"/>
				<stop  offset="0.298" style="stop-color:#60A8CB"/>
				<stop  offset="0.396" style="stop-color:#4E89BA"/>
				<stop  offset="0.6476" style="stop-color:#6C67A4"/>
				<stop  offset="0.8572" style="stop-color:#7E5296"/>
				<stop  offset="0.9944" style="stop-color:#854A91"/>
			</radialGradient>
			<path style="fill:url(#SVGID_00000158739179337964955910000004595117944703446448_);" d="M23.32,16.819h-8.505
				c-0.679,0-1.229-0.551-1.229-1.229s0.551-1.229,1.229-1.229h8.505c0.679,0,1.229,0.551,1.229,1.229S23.999,16.819,23.32,16.819z"
				/>
		</g>
		<g>
			
				<radialGradient id="SVGID_00000040535397767998354800000011214114688417026469_" cx="16.3819" cy="25.8541" r="6.0552" fx="15.8631" fy="25.8541" gradientTransform="matrix(1 0 0 -1 0 38)" gradientUnits="userSpaceOnUse">
				<stop  offset="0.0642" style="stop-color:#93FFFB"/>
				<stop  offset="0.0894" style="stop-color:#8EF7F7"/>
				<stop  offset="0.3573" style="stop-color:#60A8CB"/>
				<stop  offset="0.4802" style="stop-color:#4E89BA"/>
				<stop  offset="0.6964" style="stop-color:#6C67A4"/>
				<stop  offset="0.8765" style="stop-color:#7E5296"/>
				<stop  offset="0.9944" style="stop-color:#854A91"/>
			</radialGradient>
			<path style="fill:url(#SVGID_00000040535397767998354800000011214114688417026469_);" d="M21.496,13.229h-4.857
				c-0.679,0-1.229-0.551-1.229-1.229s0.551-1.229,1.229-1.229h4.857c0.679,0,1.229,0.551,1.229,1.229S22.175,13.229,21.496,13.229z
				"/>
		</g>
		<g>
			
				<radialGradient id="SVGID_00000060747719020722083220000000800009232979902399_" cx="9.686" cy="33.0801" r="6.2216" gradientTransform="matrix(1 0 0 -1 0 38)" gradientUnits="userSpaceOnUse">
				<stop  offset="0.0642" style="stop-color:#93FFFB"/>
				<stop  offset="0.0843" style="stop-color:#8EF7F7"/>
				<stop  offset="0.298" style="stop-color:#60A8CB"/>
				<stop  offset="0.396" style="stop-color:#4E89BA"/>
				<stop  offset="0.6476" style="stop-color:#6C67A4"/>
				<stop  offset="0.8572" style="stop-color:#7E5296"/>
				<stop  offset="0.9944" style="stop-color:#854A91"/>
			</radialGradient>
			<path style="fill:url(#SVGID_00000060747719020722083220000000800009232979902399_);" d="M15.037,6.049h-4.529
				c-0.679,0-1.229-0.551-1.229-1.229s0.551-1.229,1.229-1.229h4.529c0.679,0,1.229,0.551,1.229,1.229S15.717,6.049,15.037,6.049z"
				/>
		</g>
		<g>
			
				<radialGradient id="SVGID_00000173870064053753075610000000788592759531841213_" cx="9.686" cy="18.7616" r="6.2216" gradientTransform="matrix(1 0 0 -1 0 38)" gradientUnits="userSpaceOnUse">
				<stop  offset="0.0642" style="stop-color:#93FFFB"/>
				<stop  offset="0.0843" style="stop-color:#8EF7F7"/>
				<stop  offset="0.298" style="stop-color:#60A8CB"/>
				<stop  offset="0.396" style="stop-color:#4E89BA"/>
				<stop  offset="0.6476" style="stop-color:#6C67A4"/>
				<stop  offset="0.8572" style="stop-color:#7E5296"/>
				<stop  offset="0.9944" style="stop-color:#854A91"/>
			</radialGradient>
			<path style="fill:url(#SVGID_00000173870064053753075610000000788592759531841213_);" d="M15.037,20.41h-4.529
				c-0.679,0-1.229-0.551-1.229-1.229c0-0.679,0.551-1.229,1.229-1.229h4.529c0.679,0,1.229,0.551,1.229,1.229
				C16.267,19.859,15.717,20.41,15.037,20.41z"/>
		</g>
		<g>
			
				<radialGradient id="SVGID_00000142157369713125307500000011352995769279934899_" cx="4.6625" cy="36.7425" r="7.4369" gradientTransform="matrix(1 0 0 -1 0 38)" gradientUnits="userSpaceOnUse">
				<stop  offset="0.0642" style="stop-color:#93FFFB"/>
				<stop  offset="0.0843" style="stop-color:#8EF7F7"/>
				<stop  offset="0.298" style="stop-color:#60A8CB"/>
				<stop  offset="0.396" style="stop-color:#4E89BA"/>
				<stop  offset="0.6476" style="stop-color:#6C67A4"/>
				<stop  offset="0.8572" style="stop-color:#7E5296"/>
				<stop  offset="0.9944" style="stop-color:#854A91"/>
			</radialGradient>
			<path style="fill:url(#SVGID_00000142157369713125307500000011352995769279934899_);" d="M11.121,2.459H6.044
				c-0.679,0-1.229-0.551-1.229-1.229S5.365,0,6.044,0h5.077c0.679,0,1.229,0.551,1.229,1.229S11.799,2.459,11.121,2.459z"/>
		</g>
		<g>
			
				<radialGradient id="SVGID_00000003075210780157938390000016317441339676588674_" cx="4.6206" cy="15.2025" r="7.4369" gradientTransform="matrix(1 0 0 -1 0 38)" gradientUnits="userSpaceOnUse">
				<stop  offset="0.0642" style="stop-color:#93FFFB"/>
				<stop  offset="0.0843" style="stop-color:#8EF7F7"/>
				<stop  offset="0.298" style="stop-color:#60A8CB"/>
				<stop  offset="0.396" style="stop-color:#4E89BA"/>
				<stop  offset="0.6476" style="stop-color:#6C67A4"/>
				<stop  offset="0.8572" style="stop-color:#7E5296"/>
				<stop  offset="0.9944" style="stop-color:#854A91"/>
			</radialGradient>
			<path style="fill:url(#SVGID_00000003075210780157938390000016317441339676588674_);" d="M11.121,23.999H6.044
				c-0.679,0-1.229-0.551-1.229-1.229c0-0.679,0.551-1.229,1.229-1.229h5.077c0.679,0,1.229,0.551,1.229,1.229
				C12.35,23.449,11.799,23.999,11.121,23.999z"/>
		</g>
	</g>
	<g>
		<path class="st21" d="M41.577,19.753h-5.734V4.113h5.734c5.2,0,6.07,3.895,6.07,7.81C47.647,15.957,46.738,19.753,41.577,19.753z
			 M41.36,6.585h-2.61v10.697h2.61c2.412,0,3.401-1.186,3.401-5.359C44.761,7.791,43.752,6.585,41.36,6.585z"/>
		<path class="st21" d="M47.548,19.753l4.686-8.087l-4.35-7.553h3.144l3.045,5.576l3.025-5.576h3.144l-4.369,7.553l4.706,8.087
			h-3.144l-3.361-6.07l-3.381,6.07C50.693,19.753,47.548,19.753,47.548,19.753z"/>
		<path class="st21" d="M67.489,10.237v7.834h1.856v-7.834h2.676v7.834h5.587v2.325H61.667v-2.325h3.145v-7.834H67.489z
			 M74.033,5.899H62.468V3.555h14.241v6.329c0,2.012-0.176,4.161-0.488,5.705h-2.657c0.274-1.446,0.469-3.458,0.469-5.138V5.899z"/>
		<path class="st21" d="M79.737,11.272h16.137v2.266h-3.614v1.934h2.481v5.997h-2.677v-3.712H80.753v-2.285h2.598v-1.934h-3.614
			V11.272z M80.557,6.877c0-1.035,0.43-1.836,1.231-2.403c1.231-0.879,3.341-1.231,6.037-1.231s4.806,0.351,6.037,1.231
			c0.801,0.567,1.231,1.367,1.231,2.403c0,1.055-0.43,1.836-1.231,2.403c-1.231,0.879-3.341,1.231-6.037,1.231
			c-2.696,0-4.806-0.351-6.037-1.231C80.987,8.713,80.557,7.931,80.557,6.877z M83.233,6.877c0,0.332,0.195,0.605,0.567,0.821
			c0.762,0.429,2.247,0.586,4.024,0.586c1.778,0,3.263-0.157,4.044-0.586c0.352-0.215,0.547-0.489,0.547-0.821
			c0-0.333-0.195-0.605-0.547-0.821c-0.781-0.429-2.266-0.586-4.044-0.586c-1.778,0-3.263,0.157-4.024,0.586
			C83.429,6.271,83.233,6.544,83.233,6.877z M89.621,13.538h-3.633v1.934h3.633V13.538z"/>
		<path class="st21" d="M103.197,19.985H98.47V3.555h6.544V5.88h-3.927v11.78h2.247c0.86,0,1.699-0.039,2.383-0.195v2.188
			C105.034,19.907,104.116,19.985,103.197,19.985z M107.027,20.962v-8.459h-3.263v-2.325h3.263V3.341h2.579v17.621
			C109.605,20.962,107.027,20.962,107.027,20.962z M110.66,21.177V3.243h2.598v17.934H110.66z"/>
		<path class="st21" d="M125.897,11.741c0,3.145-0.254,5.548-1.348,6.974c-0.743,0.977-1.934,1.504-3.341,1.504
			c-1.387,0-2.578-0.527-3.34-1.504c-1.094-1.426-1.329-3.829-1.329-6.974c0-3.126,0.235-5.529,1.329-6.955
			c0.762-0.977,1.953-1.523,3.34-1.523c1.407,0,2.598,0.547,3.341,1.523C125.643,6.212,125.897,8.615,125.897,11.741z
			 M119.177,11.741c0,2.657,0.137,4.63,0.723,5.509c0.293,0.43,0.761,0.664,1.309,0.664s1.036-0.234,1.329-0.664
			c0.586-0.879,0.703-2.852,0.703-5.509c0-2.637-0.117-4.611-0.703-5.489c-0.293-0.429-0.781-0.664-1.329-0.664
			c-0.547,0-1.016,0.235-1.309,0.664C119.313,7.13,119.177,9.103,119.177,11.741z M131.171,21.177h-2.677V3.243h2.677V21.177z"/>
		<path class="st21" d="M142.891,10.51v2.325h-5.333v4.825h4.532c1.172,0,2.208-0.039,3.009-0.254v2.207
			c-0.801,0.274-1.915,0.371-3.145,0.371h-7.053V3.555h8.83V5.88h-6.173v4.63C137.557,10.51,142.891,10.51,142.891,10.51z
			 M149.339,21.177h-2.677v-8.615h-3.047v-2.345h3.047V3.243h2.677V21.177z"/>
		<path class="st21" d="M156.214,2.715h2.677v1.583h3.595v2.188h-10.119V4.298h3.849L156.214,2.715L156.214,2.715z M152.893,10.198
			c0-0.997,0.429-1.798,1.191-2.345c0.801-0.605,1.993-0.918,3.419-0.918s2.618,0.313,3.438,0.918
			c0.743,0.547,1.191,1.348,1.191,2.345c0,1.016-0.449,1.797-1.191,2.344c-0.82,0.605-2.012,0.918-3.438,0.918
			s-2.618-0.313-3.419-0.918C153.322,11.995,152.893,11.213,152.893,10.198z M164.849,14.143h2.677v7.229h-13.519v-7.229h2.677
			v1.524h8.166V14.143z M155.452,10.198c0,0.293,0.157,0.547,0.371,0.742c0.371,0.293,0.977,0.43,1.681,0.43s1.309-0.137,1.68-0.43
			c0.215-0.195,0.371-0.449,0.371-0.742c0-0.293-0.156-0.547-0.371-0.723c-0.371-0.293-0.977-0.449-1.68-0.449
			c-0.703,0-1.309,0.157-1.681,0.449C155.608,9.65,155.452,9.905,155.452,10.198z M156.683,17.895v1.231h8.166v-1.231H156.683z
			 M162.465,6.857h2.383V3.243h2.677v10.295h-2.677v-1.289h-2.383v-2.168h2.383V9.025h-2.383V6.857z"/>
		<path class="st21" d="M171.528,11.936c0-1.387,0.586-2.461,1.524-3.185c0.821-0.625,1.915-0.957,3.106-0.957
			c1.191,0,2.266,0.333,3.087,0.957c0.938,0.723,1.524,1.797,1.524,3.185s-0.586,2.461-1.524,3.185
			c-0.488,0.371-1.094,0.645-1.739,0.801v1.953h2.403c1.446,0,2.52-0.234,3.087-0.743V3.243h2.677v17.934h-2.677v-1.856
			c-0.586,0.586-1.915,0.879-3.595,0.879h-8.654v-2.325h4.083v-1.953c-0.664-0.137-1.27-0.41-1.778-0.801
			C172.114,14.398,171.528,13.323,171.528,11.936z M177.467,4.786h3.79v2.286H171.04V4.786h3.751V2.715h2.677L177.467,4.786
			L177.467,4.786z M174.185,11.936c0,0.567,0.235,1.075,0.586,1.407c0.352,0.313,0.821,0.488,1.387,0.488
			c0.567,0,1.016-0.176,1.367-0.488c0.351-0.333,0.586-0.84,0.586-1.407c0-0.567-0.235-1.075-0.586-1.407
			c-0.352-0.313-0.801-0.488-1.367-0.488c-0.567,0-1.035,0.175-1.387,0.488C174.42,10.861,174.185,11.37,174.185,11.936z"/>
	</g>
</g>
</svg>
