<?xml version="1.0" encoding="UTF-8"?><svg id="_레이어_2" xmlns="http://www.w3.org/2000/svg" width="481.85" height="595.755" xmlns:xlink="http://www.w3.org/1999/xlink" viewBox="0 0 481.85 595.755"><defs><style>.cls-1{fill:url(#_무제_그라디언트_29-7);}.cls-1,.cls-2,.cls-3,.cls-4,.cls-5,.cls-6,.cls-7,.cls-8{opacity:.08;}.cls-2{fill:url(#_무제_그라디언트_29-2);}.cls-3{fill:url(#_무제_그라디언트_29-5);}.cls-4{fill:url(#_무제_그라디언트_29-6);}.cls-5{fill:url(#_무제_그라디언트_29-3);}.cls-6{fill:url(#_무제_그라디언트_29-8);}.cls-9{fill:url(#_무제_그라디언트_28);opacity:.2;}.cls-7{fill:url(#_무제_그라디언트_29-4);}.cls-8{fill:url(#_무제_그라디언트_29);}</style><linearGradient id="_무제_그라디언트_28" x1="240.925" y1="595.755" x2="240.925" y2="0" gradientUnits="userSpaceOnUse"><stop offset="0" stop-color="#14bdff" stop-opacity="0"/><stop offset="1" stop-color="#14bdff"/></linearGradient><linearGradient id="_무제_그라디언트_29" x1="332.05" y1="265.143" x2="332.05" y2="257.143" gradientUnits="userSpaceOnUse"><stop offset="0" stop-color="#45b9ea" stop-opacity="0"/><stop offset="1" stop-color="#14bdff"/></linearGradient><linearGradient id="_무제_그라디언트_29-2" x1="344.2" y1="240.653" x2="344.2" y2="232.653" xlink:href="#_무제_그라디언트_29"/><linearGradient id="_무제_그라디언트_29-3" x1="125.5" y1="216.163" x2="125.5" y2="208.163" xlink:href="#_무제_그라디언트_29"/><linearGradient id="_무제_그라디언트_29-4" x1="392.8" y1="154.939" x2="392.8" y2="146.939" xlink:href="#_무제_그라디언트_29"/><linearGradient id="_무제_그라디언트_29-5" x1="404.95" y1="130.449" x2="404.95" y2="122.449" xlink:href="#_무제_그라디언트_29"/><linearGradient id="_무제_그라디언트_29-6" x1="198.4" y1="118.204" x2="198.4" y2="110.204" xlink:href="#_무제_그라디언트_29"/><linearGradient id="_무제_그라디언트_29-7" x1="417.1" y1="105.959" x2="417.1" y2="97.959" xlink:href="#_무제_그라디언트_29"/><linearGradient id="_무제_그라디언트_29-8" x1="64.75" y1="105.959" x2="64.75" y2="97.959" xlink:href="#_무제_그라디언트_29"/></defs><g id="_레이어_1-2"><path class="cls-9" d="M477.85,587.755c2.209,0,4,1.791,4,4s-1.791,4-4,4-4-1.791-4-4,1.791-4,4-4Zm-16.15,4c0,2.209,1.791,4,4,4s4-1.791,4-4-1.791-4-4-4-4,1.791-4,4Zm-12.15,0c0,2.209,1.791,4,4,4s4-1.791,4-4-1.791-4-4-4-4,1.791-4,4Zm-12.15,0c0,2.209,1.791,4,4,4s4-1.791,4-4-1.791-4-4-4-4,1.791-4,4Zm-12.15,0c0,2.209,1.791,4,4,4s4-1.791,4-4-1.791-4-4-4-4,1.791-4,4Zm-12.15,0c0,2.209,1.791,4,4,4s4-1.791,4-4-1.791-4-4-4-4,1.791-4,4Zm-12.15,0c0,2.209,1.791,4,4,4s4-1.791,4-4-1.791-4-4-4-4,1.791-4,4Zm-12.15,0c0,2.209,1.791,4,4,4s4-1.791,4-4-1.791-4-4-4-4,1.791-4,4Zm-12.15,0c0,2.209,1.791,4,4,4s4-1.791,4-4-1.791-4-4-4-4,1.791-4,4Zm-12.15,0c0,2.209,1.791,4,4,4s4-1.791,4-4-1.791-4-4-4-4,1.791-4,4Zm-12.15,0c0,2.209,1.791,4,4,4s4-1.791,4-4-1.791-4-4-4-4,1.791-4,4Zm-230.85,0c0,2.209,1.791,4,4,4s4-1.791,4-4-1.791-4-4-4-4,1.791-4,4Zm-12.15,0c0,2.209,1.791,4,4,4s4-1.791,4-4-1.791-4-4-4-4,1.791-4,4Zm-12.15,0c0,2.209,1.791,4,4,4s4-1.791,4-4-1.791-4-4-4-4,1.791-4,4Zm-12.15,0c0,2.209,1.791,4,4,4s4-1.791,4-4-1.791-4-4-4-4,1.791-4,4Zm-12.15,0c0,2.209,1.791,4,4,4s4-1.791,4-4-1.791-4-4-4-4,1.791-4,4Zm-12.15,0c0,2.209,1.791,4,4,4s4-1.791,4-4-1.791-4-4-4-4,1.791-4,4Zm-12.15,0c0,2.209,1.791,4,4,4s4-1.791,4-4-1.791-4-4-4-4,1.791-4,4Zm-12.15,0c0,2.209,1.791,4,4,4s4-1.791,4-4-1.791-4-4-4-4,1.791-4,4Zm-12.15,0c0,2.209,1.791,4,4,4s4-1.791,4-4-1.791-4-4-4-4,1.791-4,4Zm-12.15,0c0,2.209,1.791,4,4,4s4-1.791,4-4-1.791-4-4-4-4,1.791-4,4Zm-12.15,0c0,2.209,1.791,4,4,4s4-1.791,4-4-1.791-4-4-4-4,1.791-4,4Zm461.7-12.245c0,2.209,1.791,4,4,4s4-1.791,4-4-1.791-4-4-4-4,1.791-4,4Zm-12.15,0c0,2.209,1.791,4,4,4s4-1.791,4-4-1.791-4-4-4-4,1.791-4,4Zm-12.15,0c0,2.209,1.791,4,4,4s4-1.791,4-4-1.791-4-4-4-4,1.791-4,4Zm-12.15,0c0,2.209,1.791,4,4,4s4-1.791,4-4-1.791-4-4-4-4,1.791-4,4Zm-12.15,0c0,2.209,1.791,4,4,4s4-1.791,4-4-1.791-4-4-4-4,1.791-4,4Zm-12.15,0c0,2.209,1.791,4,4,4s4-1.791,4-4-1.791-4-4-4-4,1.791-4,4Zm-12.15,0c0,2.209,1.791,4,4,4s4-1.791,4-4-1.791-4-4-4-4,1.791-4,4Zm-12.15,0c0,2.209,1.791,4,4,4s4-1.791,4-4-1.791-4-4-4-4,1.791-4,4Zm-12.15,0c0,2.209,1.791,4,4,4s4-1.791,4-4-1.791-4-4-4-4,1.791-4,4Zm-12.15,0c0,2.209,1.791,4,4,4s4-1.791,4-4-1.791-4-4-4-4,1.791-4,4Zm-12.15,0c0,2.209,1.791,4,4,4s4-1.791,4-4-1.791-4-4-4-4,1.791-4,4Zm-218.7,0c0,2.209,1.791,4,4,4s4-1.791,4-4-1.791-4-4-4-4,1.791-4,4Zm-12.15,0c0,2.209,1.791,4,4,4s4-1.791,4-4-1.791-4-4-4-4,1.791-4,4Zm-12.15,0c0,2.209,1.791,4,4,4s4-1.791,4-4-1.791-4-4-4-4,1.791-4,4Zm-12.15,0c0,2.209,1.791,4,4,4s4-1.791,4-4-1.791-4-4-4-4,1.791-4,4Zm-12.15,0c0,2.209,1.791,4,4,4s4-1.791,4-4-1.791-4-4-4-4,1.791-4,4Zm-12.15,0c0,2.209,1.791,4,4,4s4-1.791,4-4-1.791-4-4-4-4,1.791-4,4Zm-12.15,0c0,2.209,1.791,4,4,4s4-1.791,4-4-1.791-4-4-4-4,1.791-4,4Zm-12.15,0c0,2.209,1.791,4,4,4s4-1.791,4-4-1.791-4-4-4-4,1.791-4,4Zm-12.15,0c0,2.209,1.791,4,4,4s4-1.791,4-4-1.791-4-4-4-4,1.791-4,4Zm-12.15,0c0,2.209,1.791,4,4,4s4-1.791,4-4-1.791-4-4-4-4,1.791-4,4Zm449.55-12.245c0,2.209,1.791,4,4,4s4-1.791,4-4-1.791-4-4-4-4,1.791-4,4Zm-12.15,0c0,2.209,1.791,4,4,4s4-1.791,4-4-1.791-4-4-4-4,1.791-4,4Zm-12.15,0c0,2.209,1.791,4,4,4s4-1.791,4-4-1.791-4-4-4-4,1.791-4,4Zm-12.15,0c0,2.209,1.791,4,4,4s4-1.791,4-4-1.791-4-4-4-4,1.791-4,4Zm-12.15,0c0,2.209,1.791,4,4,4s4-1.791,4-4-1.791-4-4-4-4,1.791-4,4Zm-12.15,0c0,2.209,1.791,4,4,4s4-1.791,4-4-1.791-4-4-4-4,1.791-4,4Zm-12.15,0c0,2.209,1.791,4,4,4s4-1.791,4-4-1.791-4-4-4-4,1.791-4,4Zm-12.15,0c0,2.209,1.791,4,4,4s4-1.791,4-4-1.791-4-4-4-4,1.791-4,4Zm-12.15,0c0,2.209,1.791,4,4,4s4-1.791,4-4-1.791-4-4-4-4,1.791-4,4Zm-12.15,0c0,2.209,1.791,4,4,4s4-1.791,4-4-1.791-4-4-4-4,1.791-4,4Zm-12.15,0c0,2.209,1.791,4,4,4s4-1.791,4-4-1.791-4-4-4-4,1.791-4,4Zm-206.55,0c0,2.209,1.791,4,4,4s4-1.791,4-4-1.791-4-4-4-4,1.791-4,4Zm-12.15,0c0,2.209,1.791,4,4,4s4-1.791,4-4-1.791-4-4-4-4,1.791-4,4Zm-12.15,0c0,2.209,1.791,4,4,4s4-1.791,4-4-1.791-4-4-4-4,1.791-4,4Zm-12.15,0c0,2.209,1.791,4,4,4s4-1.791,4-4-1.791-4-4-4-4,1.791-4,4Zm-12.15,0c0,2.209,1.791,4,4,4s4-1.791,4-4-1.791-4-4-4-4,1.791-4,4Zm-12.15,0c0,2.209,1.791,4,4,4s4-1.791,4-4-1.791-4-4-4-4,1.791-4,4Zm-12.15,0c0,2.209,1.791,4,4,4s4-1.791,4-4-1.791-4-4-4-4,1.791-4,4Zm-12.15,0c0,2.209,1.791,4,4,4s4-1.791,4-4-1.791-4-4-4-4,1.791-4,4Zm-12.15,0c0,2.209,1.791,4,4,4s4-1.791,4-4-1.791-4-4-4-4,1.791-4,4Zm-12.15,0c0,2.209,1.791,4,4,4s4-1.791,4-4-1.791-4-4-4-4,1.791-4,4Zm-12.15,0c0,2.209,1.791,4,4,4s4-1.791,4-4-1.791-4-4-4-4,1.791-4,4Zm437.4-12.245c0,2.209,1.791,4,4,4s4-1.791,4-4-1.791-4-4-4-4,1.791-4,4Zm-12.15,0c0,2.209,1.791,4,4,4s4-1.791,4-4-1.791-4-4-4-4,1.791-4,4Zm-12.15,0c0,2.209,1.791,4,4,4s4-1.791,4-4-1.791-4-4-4-4,1.791-4,4Zm-12.15,0c0,2.209,1.791,4,4,4s4-1.791,4-4-1.791-4-4-4-4,1.791-4,4Zm-12.15,0c0,2.209,1.791,4,4,4s4-1.791,4-4-1.791-4-4-4-4,1.791-4,4Zm-12.15,0c0,2.209,1.791,4,4,4s4-1.791,4-4-1.791-4-4-4-4,1.791-4,4Zm-12.15,0c0,2.209,1.791,4,4,4s4-1.791,4-4-1.791-4-4-4-4,1.791-4,4Zm-12.15,0c0,2.209,1.791,4,4,4s4-1.791,4-4-1.791-4-4-4-4,1.791-4,4Zm-12.15,0c0,2.209,1.791,4,4,4s4-1.791,4-4-1.791-4-4-4-4,1.791-4,4Zm-12.15,0c0,2.209,1.791,4,4,4s4-1.791,4-4-1.791-4-4-4-4,1.791-4,4Zm-12.15,0c0,2.209,1.791,4,4,4s4-1.791,4-4-1.791-4-4-4-4,1.791-4,4Zm-194.4,0c0,2.209,1.791,4,4,4s4-1.791,4-4-1.791-4-4-4-4,1.791-4,4Zm-12.15,0c0,2.209,1.791,4,4,4s4-1.791,4-4-1.791-4-4-4-4,1.791-4,4Zm-12.15,0c0,2.209,1.791,4,4,4s4-1.791,4-4-1.791-4-4-4-4,1.791-4,4Zm-12.15,0c0,2.209,1.791,4,4,4s4-1.791,4-4-1.791-4-4-4-4,1.791-4,4Zm-12.15,0c0,2.209,1.791,4,4,4s4-1.791,4-4-1.791-4-4-4-4,1.791-4,4Zm-12.15,0c0,2.209,1.791,4,4,4s4-1.791,4-4-1.791-4-4-4-4,1.791-4,4Zm-12.15,0c0,2.209,1.791,4,4,4s4-1.791,4-4-1.791-4-4-4-4,1.791-4,4Zm-12.15,0c0,2.209,1.791,4,4,4s4-1.791,4-4-1.791-4-4-4-4,1.791-4,4Zm-12.15,0c0,2.209,1.791,4,4,4s4-1.791,4-4-1.791-4-4-4-4,1.791-4,4Zm-12.15,0c0,2.209,1.791,4,4,4s4-1.791,4-4-1.791-4-4-4-4,1.791-4,4Zm425.25-12.245c0,2.209,1.791,4,4,4s4-1.791,4-4-1.791-4-4-4-4,1.791-4,4Zm-12.15,0c0,2.209,1.791,4,4,4s4-1.791,4-4-1.791-4-4-4-4,1.791-4,4Zm-12.15,0c0,2.209,1.791,4,4,4s4-1.791,4-4-1.791-4-4-4-4,1.791-4,4Zm-12.15,0c0,2.209,1.791,4,4,4s4-1.791,4-4-1.791-4-4-4-4,1.791-4,4Zm-12.15,0c0,2.209,1.791,4,4,4s4-1.791,4-4-1.791-4-4-4-4,1.791-4,4Zm-12.15,0c0,2.209,1.791,4,4,4s4-1.791,4-4-1.791-4-4-4-4,1.791-4,4Zm-12.15,0c0,2.209,1.791,4,4,4s4-1.791,4-4-1.791-4-4-4-4,1.791-4,4Zm-12.15,0c0,2.209,1.791,4,4,4s4-1.791,4-4-1.791-4-4-4-4,1.791-4,4Zm-12.15,0c0,2.209,1.791,4,4,4s4-1.791,4-4-1.791-4-4-4-4,1.791-4,4Zm-12.15,0c0,2.209,1.791,4,4,4s4-1.791,4-4-1.791-4-4-4-4,1.791-4,4Zm-12.15,0c0,2.209,1.791,4,4,4s4-1.791,4-4-1.791-4-4-4-4,1.791-4,4Zm-182.25,0c0,2.209,1.791,4,4,4s4-1.791,4-4-1.791-4-4-4-4,1.791-4,4Zm-12.15,0c0,2.209,1.791,4,4,4s4-1.791,4-4-1.791-4-4-4-4,1.791-4,4Zm-12.15,0c0,2.209,1.791,4,4,4s4-1.791,4-4-1.791-4-4-4-4,1.791-4,4Zm-12.15,0c0,2.209,1.791,4,4,4s4-1.791,4-4-1.791-4-4-4-4,1.791-4,4Zm-12.15,0c0,2.209,1.791,4,4,4s4-1.791,4-4-1.791-4-4-4-4,1.791-4,4Zm-12.15,0c0,2.209,1.791,4,4,4s4-1.791,4-4-1.791-4-4-4-4,1.791-4,4Zm-12.15,0c0,2.209,1.791,4,4,4s4-1.791,4-4-1.791-4-4-4-4,1.791-4,4Zm-12.15,0c0,2.209,1.791,4,4,4s4-1.791,4-4-1.791-4-4-4-4,1.791-4,4Zm-12.15,0c0,2.209,1.791,4,4,4s4-1.791,4-4-1.791-4-4-4-4,1.791-4,4Zm-12.15,0c0,2.209,1.791,4,4,4s4-1.791,4-4-1.791-4-4-4-4,1.791-4,4Zm400.95-12.245c0,2.209,1.791,4,4,4s4-1.791,4-4-1.791-4-4-4-4,1.791-4,4Zm-12.15,0c0,2.209,1.791,4,4,4s4-1.791,4-4-1.791-4-4-4-4,1.791-4,4Zm-12.15,0c0,2.209,1.791,4,4,4s4-1.791,4-4-1.791-4-4-4-4,1.791-4,4Zm-12.15,0c0,2.209,1.791,4,4,4s4-1.791,4-4-1.791-4-4-4-4,1.791-4,4Zm-12.15,0c0,2.209,1.791,4,4,4s4-1.791,4-4-1.791-4-4-4-4,1.791-4,4Zm-12.15,0c0,2.209,1.791,4,4,4s4-1.791,4-4-1.791-4-4-4-4,1.791-4,4Zm-12.15,0c0,2.209,1.791,4,4,4s4-1.791,4-4-1.791-4-4-4-4,1.791-4,4Zm-12.15,0c0,2.209,1.791,4,4,4s4-1.791,4-4-1.791-4-4-4-4,1.791-4,4Zm-12.15,0c0,2.209,1.791,4,4,4s4-1.791,4-4-1.791-4-4-4-4,1.791-4,4Zm-12.15,0c0,2.209,1.791,4,4,4s4-1.791,4-4-1.791-4-4-4-4,1.791-4,4Zm-12.15,0c0,2.209,1.791,4,4,4s4-1.791,4-4-1.791-4-4-4-4,1.791-4,4Zm-170.1,0c0,2.209,1.791,4,4,4s4-1.791,4-4-1.791-4-4-4-4,1.791-4,4Zm-12.15,0c0,2.209,1.791,4,4,4s4-1.791,4-4-1.791-4-4-4-4,1.791-4,4Zm-12.15,0c0,2.209,1.791,4,4,4s4-1.791,4-4-1.791-4-4-4-4,1.791-4,4Zm-12.15,0c0,2.209,1.791,4,4,4s4-1.791,4-4-1.791-4-4-4-4,1.791-4,4Zm-12.15,0c0,2.209,1.791,4,4,4s4-1.791,4-4-1.791-4-4-4-4,1.791-4,4Zm-12.15,0c0,2.209,1.791,4,4,4s4-1.791,4-4-1.791-4-4-4-4,1.791-4,4Zm-12.15,0c0,2.209,1.791,4,4,4s4-1.791,4-4-1.791-4-4-4-4,1.791-4,4Zm-12.15,0c0,2.209,1.791,4,4,4s4-1.791,4-4-1.791-4-4-4-4,1.791-4,4Zm-12.15,0c0,2.209,1.791,4,4,4s4-1.791,4-4-1.791-4-4-4-4,1.791-4,4Zm-12.15,0c0,2.209,1.791,4,4,4s4-1.791,4-4-1.791-4-4-4-4,1.791-4,4Zm400.95-12.245c0,2.209,1.791,4,4,4s4-1.791,4-4-1.791-4-4-4-4,1.791-4,4Zm-12.15,0c0,2.209,1.791,4,4,4s4-1.791,4-4-1.791-4-4-4-4,1.791-4,4Zm-12.15,0c0,2.209,1.791,4,4,4s4-1.791,4-4-1.791-4-4-4-4,1.791-4,4Zm-12.15,0c0,2.209,1.791,4,4,4s4-1.791,4-4-1.791-4-4-4-4,1.791-4,4Zm-12.15,0c0,2.209,1.791,4,4,4s4-1.791,4-4-1.791-4-4-4-4,1.791-4,4Zm-12.15,0c0,2.209,1.791,4,4,4s4-1.791,4-4-1.791-4-4-4-4,1.791-4,4Zm-12.15,0c0,2.209,1.791,4,4,4s4-1.791,4-4-1.791-4-4-4-4,1.791-4,4Zm-12.15,0c0,2.209,1.791,4,4,4s4-1.791,4-4-1.791-4-4-4-4,1.791-4,4Zm-12.15,0c0,2.209,1.791,4,4,4s4-1.791,4-4-1.791-4-4-4-4,1.791-4,4Zm-12.15,0c0,2.209,1.791,4,4,4s4-1.791,4-4-1.791-4-4-4-4,1.791-4,4Zm-12.15,0c0,2.209,1.791,4,4,4s4-1.791,4-4-1.791-4-4-4-4,1.791-4,4Zm-157.95,0c0,2.209,1.791,4,4,4s4-1.791,4-4-1.791-4-4-4-4,1.791-4,4Zm-12.15,0c0,2.209,1.791,4,4,4s4-1.791,4-4-1.791-4-4-4-4,1.791-4,4Zm-12.15,0c0,2.209,1.791,4,4,4s4-1.791,4-4-1.791-4-4-4-4,1.791-4,4Zm-12.15,0c0,2.209,1.791,4,4,4s4-1.791,4-4-1.791-4-4-4-4,1.791-4,4Zm-12.15,0c0,2.209,1.791,4,4,4s4-1.791,4-4-1.791-4-4-4-4,1.791-4,4Zm-12.15,0c0,2.209,1.791,4,4,4s4-1.791,4-4-1.791-4-4-4-4,1.791-4,4Zm-12.15,0c0,2.209,1.791,4,4,4s4-1.791,4-4-1.791-4-4-4-4,1.791-4,4Zm-12.15,0c0,2.209,1.791,4,4,4s4-1.791,4-4-1.791-4-4-4-4,1.791-4,4Zm-12.15,0c0,2.209,1.791,4,4,4s4-1.791,4-4-1.791-4-4-4-4,1.791-4,4Zm-12.15,0c0,2.209,1.791,4,4,4s4-1.791,4-4-1.791-4-4-4-4,1.791-4,4Zm-12.15,0c0,2.209,1.791,4,4,4s4-1.791,4-4-1.791-4-4-4-4,1.791-4,4Zm388.8-12.245c0,2.209,1.791,4,4,4s4-1.791,4-4-1.791-4-4-4-4,1.791-4,4Zm-12.15,0c0,2.209,1.791,4,4,4s4-1.791,4-4-1.791-4-4-4-4,1.791-4,4Zm-12.15,0c0,2.209,1.791,4,4,4s4-1.791,4-4-1.791-4-4-4-4,1.791-4,4Zm-12.15,0c0,2.209,1.791,4,4,4s4-1.791,4-4-1.791-4-4-4-4,1.791-4,4Zm-12.15,0c0,2.209,1.791,4,4,4s4-1.791,4-4-1.791-4-4-4-4,1.791-4,4Zm-12.15,0c0,2.209,1.791,4,4,4s4-1.791,4-4-1.791-4-4-4-4,1.791-4,4Zm-12.15,0c0,2.209,1.791,4,4,4s4-1.791,4-4-1.791-4-4-4-4,1.791-4,4Zm-12.15,0c0,2.209,1.791,4,4,4s4-1.791,4-4-1.791-4-4-4-4,1.791-4,4Zm-12.15,0c0,2.209,1.791,4,4,4s4-1.791,4-4-1.791-4-4-4-4,1.791-4,4Zm-12.15,0c0,2.209,1.791,4,4,4s4-1.791,4-4-1.791-4-4-4-4,1.791-4,4Zm-12.15,0c0,2.209,1.791,4,4,4s4-1.791,4-4-1.791-4-4-4-4,1.791-4,4Zm-145.8,0c0,2.209,1.791,4,4,4s4-1.791,4-4-1.791-4-4-4-4,1.791-4,4Zm-12.15,0c0,2.209,1.791,4,4,4s4-1.791,4-4-1.791-4-4-4-4,1.791-4,4Zm-12.15,0c0,2.209,1.791,4,4,4s4-1.791,4-4-1.791-4-4-4-4,1.791-4,4Zm-12.15,0c0,2.209,1.791,4,4,4s4-1.791,4-4-1.791-4-4-4-4,1.791-4,4Zm-12.15,0c0,2.209,1.791,4,4,4s4-1.791,4-4-1.791-4-4-4-4,1.791-4,4Zm-12.15,0c0,2.209,1.791,4,4,4s4-1.791,4-4-1.791-4-4-4-4,1.791-4,4Zm-12.15,0c0,2.209,1.791,4,4,4s4-1.791,4-4-1.791-4-4-4-4,1.791-4,4Zm-12.15,0c0,2.209,1.791,4,4,4s4-1.791,4-4-1.791-4-4-4-4,1.791-4,4Zm-12.15,0c0,2.209,1.791,4,4,4s4-1.791,4-4-1.791-4-4-4-4,1.791-4,4Zm-12.15,0c0,2.209,1.791,4,4,4s4-1.791,4-4-1.791-4-4-4-4,1.791-4,4Zm364.5-12.245c0,2.209,1.791,4,4,4s4-1.791,4-4-1.791-4-4-4-4,1.791-4,4Zm-12.15,0c0,2.209,1.791,4,4,4s4-1.791,4-4-1.791-4-4-4-4,1.791-4,4Zm-12.15,0c0,2.209,1.791,4,4,4s4-1.791,4-4-1.791-4-4-4-4,1.791-4,4Zm-12.15,0c0,2.209,1.791,4,4,4s4-1.791,4-4-1.791-4-4-4-4,1.791-4,4Zm-12.15,0c0,2.209,1.791,4,4,4s4-1.791,4-4-1.791-4-4-4-4,1.791-4,4Zm-12.15,0c0,2.209,1.791,4,4,4s4-1.791,4-4-1.791-4-4-4-4,1.791-4,4Zm-12.15,0c0,2.209,1.791,4,4,4s4-1.791,4-4-1.791-4-4-4-4,1.791-4,4Zm-12.15,0c0,2.209,1.791,4,4,4s4-1.791,4-4-1.791-4-4-4-4,1.791-4,4Zm-12.15,0c0,2.209,1.791,4,4,4s4-1.791,4-4-1.791-4-4-4-4,1.791-4,4Zm-12.15,0c0,2.209,1.791,4,4,4s4-1.791,4-4-1.791-4-4-4-4,1.791-4,4Zm-133.65,0c0,2.209,1.791,4,4,4s4-1.791,4-4-1.791-4-4-4-4,1.791-4,4Zm-12.15,0c0,2.209,1.791,4,4,4s4-1.791,4-4-1.791-4-4-4-4,1.791-4,4Zm-12.15,0c0,2.209,1.791,4,4,4s4-1.791,4-4-1.791-4-4-4-4,1.791-4,4Zm-12.15,0c0,2.209,1.791,4,4,4s4-1.791,4-4-1.791-4-4-4-4,1.791-4,4Zm-12.15,0c0,2.209,1.791,4,4,4s4-1.791,4-4-1.791-4-4-4-4,1.791-4,4Zm-12.15,0c0,2.209,1.791,4,4,4s4-1.791,4-4-1.791-4-4-4-4,1.791-4,4Zm-12.15,0c0,2.209,1.791,4,4,4s4-1.791,4-4-1.791-4-4-4-4,1.791-4,4Zm-12.15,0c0,2.209,1.791,4,4,4s4-1.791,4-4-1.791-4-4-4-4,1.791-4,4Zm-12.15,0c0,2.209,1.791,4,4,4s4-1.791,4-4-1.791-4-4-4-4,1.791-4,4Zm-12.15,0c0,2.209,1.791,4,4,4s4-1.791,4-4-1.791-4-4-4-4,1.791-4,4Zm352.35-12.245c0,2.209,1.791,4,4,4s4-1.791,4-4-1.791-4-4-4-4,1.791-4,4Zm-12.15,0c0,2.209,1.791,4,4,4s4-1.791,4-4-1.791-4-4-4-4,1.791-4,4Zm-12.15,0c0,2.209,1.791,4,4,4s4-1.791,4-4-1.791-4-4-4-4,1.791-4,4Zm-12.15,0c0,2.209,1.791,4,4,4s4-1.791,4-4-1.791-4-4-4-4,1.791-4,4Zm-12.15,0c0,2.209,1.791,4,4,4s4-1.791,4-4-1.791-4-4-4-4,1.791-4,4Zm-12.15,0c0,2.209,1.791,4,4,4s4-1.791,4-4-1.791-4-4-4-4,1.791-4,4Zm-12.15,0c0,2.209,1.791,4,4,4s4-1.791,4-4-1.791-4-4-4-4,1.791-4,4Zm-12.15,0c0,2.209,1.791,4,4,4s4-1.791,4-4-1.791-4-4-4-4,1.791-4,4Zm-12.15,0c0,2.209,1.791,4,4,4s4-1.791,4-4-1.791-4-4-4-4,1.791-4,4Zm-12.15,0c0,2.209,1.791,4,4,4s4-1.791,4-4-1.791-4-4-4-4,1.791-4,4Zm-12.15,0c0,2.209,1.791,4,4,4s4-1.791,4-4-1.791-4-4-4-4,1.791-4,4Zm-121.5,0c0,2.209,1.791,4,4,4s4-1.791,4-4-1.791-4-4-4-4,1.791-4,4Zm-12.15,0c0,2.209,1.791,4,4,4s4-1.791,4-4-1.791-4-4-4-4,1.791-4,4Zm-12.15,0c0,2.209,1.791,4,4,4s4-1.791,4-4-1.791-4-4-4-4,1.791-4,4Zm-12.15,0c0,2.209,1.791,4,4,4s4-1.791,4-4-1.791-4-4-4-4,1.791-4,4Zm-12.15,0c0,2.209,1.791,4,4,4s4-1.791,4-4-1.791-4-4-4-4,1.791-4,4Zm-12.15,0c0,2.209,1.791,4,4,4s4-1.791,4-4-1.791-4-4-4-4,1.791-4,4Zm-12.15,0c0,2.209,1.791,4,4,4s4-1.791,4-4-1.791-4-4-4-4,1.791-4,4Zm-12.15,0c0,2.209,1.791,4,4,4s4-1.791,4-4-1.791-4-4-4-4,1.791-4,4Zm-12.15,0c0,2.209,1.791,4,4,4s4-1.791,4-4-1.791-4-4-4-4,1.791-4,4Zm-12.15,0c0,2.209,1.791,4,4,4s4-1.791,4-4-1.791-4-4-4-4,1.791-4,4Zm340.2-12.245c0,2.209,1.791,4,4,4s4-1.791,4-4-1.791-4-4-4-4,1.791-4,4Zm-12.15,0c0,2.209,1.791,4,4,4s4-1.791,4-4-1.791-4-4-4-4,1.791-4,4Zm-12.15,0c0,2.209,1.791,4,4,4s4-1.791,4-4-1.791-4-4-4-4,1.791-4,4Zm-12.15,0c0,2.209,1.791,4,4,4s4-1.791,4-4-1.791-4-4-4-4,1.791-4,4Zm-12.15,0c0,2.209,1.791,4,4,4s4-1.791,4-4-1.791-4-4-4-4,1.791-4,4Zm-12.15,0c0,2.209,1.791,4,4,4s4-1.791,4-4-1.791-4-4-4-4,1.791-4,4Zm-12.15,0c0,2.209,1.791,4,4,4s4-1.791,4-4-1.791-4-4-4-4,1.791-4,4Zm-12.15,0c0,2.209,1.791,4,4,4s4-1.791,4-4-1.791-4-4-4-4,1.791-4,4Zm-12.15,0c0,2.209,1.791,4,4,4s4-1.791,4-4-1.791-4-4-4-4,1.791-4,4Zm-12.15,0c0,2.209,1.791,4,4,4s4-1.791,4-4-1.791-4-4-4-4,1.791-4,4Zm-109.35,0c0,2.209,1.791,4,4,4s4-1.791,4-4-1.791-4-4-4-4,1.791-4,4Zm-12.15,0c0,2.209,1.791,4,4,4s4-1.791,4-4-1.791-4-4-4-4,1.791-4,4Zm-12.15,0c0,2.209,1.791,4,4,4s4-1.791,4-4-1.791-4-4-4-4,1.791-4,4Zm-12.15,0c0,2.209,1.791,4,4,4s4-1.791,4-4-1.791-4-4-4-4,1.791-4,4Zm-12.15,0c0,2.209,1.791,4,4,4s4-1.791,4-4-1.791-4-4-4-4,1.791-4,4Zm-12.15,0c0,2.209,1.791,4,4,4s4-1.791,4-4-1.791-4-4-4-4,1.791-4,4Zm-12.15,0c0,2.209,1.791,4,4,4s4-1.791,4-4-1.791-4-4-4-4,1.791-4,4Zm-12.15,0c0,2.209,1.791,4,4,4s4-1.791,4-4-1.791-4-4-4-4,1.791-4,4Zm-12.15,0c0,2.209,1.791,4,4,4s4-1.791,4-4-1.791-4-4-4-4,1.791-4,4Zm-12.15,0c0,2.209,1.791,4,4,4s4-1.791,4-4-1.791-4-4-4-4,1.791-4,4Zm328.05-12.245c0,2.209,1.791,4,4,4s4-1.791,4-4-1.791-4-4-4-4,1.791-4,4Zm-12.15,0c0,2.209,1.791,4,4,4s4-1.791,4-4-1.791-4-4-4-4,1.791-4,4Zm-12.15,0c0,2.209,1.791,4,4,4s4-1.791,4-4-1.791-4-4-4-4,1.791-4,4Zm-12.15,0c0,2.209,1.791,4,4,4s4-1.791,4-4-1.791-4-4-4-4,1.791-4,4Zm-12.15,0c0,2.209,1.791,4,4,4s4-1.791,4-4-1.791-4-4-4-4,1.791-4,4Zm-12.15,0c0,2.209,1.791,4,4,4s4-1.791,4-4-1.791-4-4-4-4,1.791-4,4Zm-12.15,0c0,2.209,1.791,4,4,4s4-1.791,4-4-1.791-4-4-4-4,1.791-4,4Zm-12.15,0c0,2.209,1.791,4,4,4s4-1.791,4-4-1.791-4-4-4-4,1.791-4,4Zm-12.15,0c0,2.209,1.791,4,4,4s4-1.791,4-4-1.791-4-4-4-4,1.791-4,4Zm-12.15,0c0,2.209,1.791,4,4,4s4-1.791,4-4-1.791-4-4-4-4,1.791-4,4Zm-12.15,0c0,2.209,1.791,4,4,4s4-1.791,4-4-1.791-4-4-4-4,1.791-4,4Zm-97.2,0c0,2.209,1.791,4,4,4s4-1.791,4-4-1.791-4-4-4-4,1.791-4,4Zm-12.15,0c0,2.209,1.791,4,4,4s4-1.791,4-4-1.791-4-4-4-4,1.791-4,4Zm-12.15,0c0,2.209,1.791,4,4,4s4-1.791,4-4-1.791-4-4-4-4,1.791-4,4Zm-12.15,0c0,2.209,1.791,4,4,4s4-1.791,4-4-1.791-4-4-4-4,1.791-4,4Zm-12.15,0c0,2.209,1.791,4,4,4s4-1.791,4-4-1.791-4-4-4-4,1.791-4,4Zm-12.15,0c0,2.209,1.791,4,4,4s4-1.791,4-4-1.791-4-4-4-4,1.791-4,4Zm-12.15,0c0,2.209,1.791,4,4,4s4-1.791,4-4-1.791-4-4-4-4,1.791-4,4Zm-12.15,0c0,2.209,1.791,4,4,4s4-1.791,4-4-1.791-4-4-4-4,1.791-4,4Zm-12.15,0c0,2.209,1.791,4,4,4s4-1.791,4-4-1.791-4-4-4-4,1.791-4,4Zm-12.15,0c0,2.209,1.791,4,4,4s4-1.791,4-4-1.791-4-4-4-4,1.791-4,4Zm315.9-12.245c0,2.209,1.791,4,4,4s4-1.791,4-4-1.791-4-4-4-4,1.791-4,4Zm-12.15,0c0,2.209,1.791,4,4,4s4-1.791,4-4-1.791-4-4-4-4,1.791-4,4Zm-12.15,0c0,2.209,1.791,4,4,4s4-1.791,4-4-1.791-4-4-4-4,1.791-4,4Zm-12.15,0c0,2.209,1.791,4,4,4s4-1.791,4-4-1.791-4-4-4-4,1.791-4,4Zm-12.15,0c0,2.209,1.791,4,4,4s4-1.791,4-4-1.791-4-4-4-4,1.791-4,4Zm-12.15,0c0,2.209,1.791,4,4,4s4-1.791,4-4-1.791-4-4-4-4,1.791-4,4Zm-12.15,0c0,2.209,1.791,4,4,4s4-1.791,4-4-1.791-4-4-4-4,1.791-4,4Zm-12.15,0c0,2.209,1.791,4,4,4s4-1.791,4-4-1.791-4-4-4-4,1.791-4,4Zm-12.15,0c0,2.209,1.791,4,4,4s4-1.791,4-4-1.791-4-4-4-4,1.791-4,4Zm-12.15,0c0,2.209,1.791,4,4,4s4-1.791,4-4-1.791-4-4-4-4,1.791-4,4Zm-85.05,0c0,2.209,1.791,4,4,4s4-1.791,4-4-1.791-4-4-4-4,1.791-4,4Zm-12.15,0c0,2.209,1.791,4,4,4s4-1.791,4-4-1.791-4-4-4-4,1.791-4,4Zm-12.15,0c0,2.209,1.791,4,4,4s4-1.791,4-4-1.791-4-4-4-4,1.791-4,4Zm-12.15,0c0,2.209,1.791,4,4,4s4-1.791,4-4-1.791-4-4-4-4,1.791-4,4Zm-12.15,0c0,2.209,1.791,4,4,4s4-1.791,4-4-1.791-4-4-4-4,1.791-4,4Zm-12.15,0c0,2.209,1.791,4,4,4s4-1.791,4-4-1.791-4-4-4-4,1.791-4,4Zm-12.15,0c0,2.209,1.791,4,4,4s4-1.791,4-4-1.791-4-4-4-4,1.791-4,4Zm-12.15,0c0,2.209,1.791,4,4,4s4-1.791,4-4-1.791-4-4-4-4,1.791-4,4Zm-12.15,0c0,2.209,1.791,4,4,4s4-1.791,4-4-1.791-4-4-4-4,1.791-4,4Zm-12.15,0c0,2.209,1.791,4,4,4s4-1.791,4-4-1.791-4-4-4-4,1.791-4,4Zm303.75-12.245c0,2.209,1.791,4,4,4s4-1.791,4-4-1.791-4-4-4-4,1.791-4,4Zm-12.15,0c0,2.209,1.791,4,4,4s4-1.791,4-4-1.791-4-4-4-4,1.791-4,4Zm-12.15,0c0,2.209,1.791,4,4,4s4-1.791,4-4-1.791-4-4-4-4,1.791-4,4Zm-12.15,0c0,2.209,1.791,4,4,4s4-1.791,4-4-1.791-4-4-4-4,1.791-4,4Zm-12.15,0c0,2.209,1.791,4,4,4s4-1.791,4-4-1.791-4-4-4-4,1.791-4,4Zm-12.15,0c0,2.209,1.791,4,4,4s4-1.791,4-4-1.791-4-4-4-4,1.791-4,4Zm-12.15,0c0,2.209,1.791,4,4,4s4-1.791,4-4-1.791-4-4-4-4,1.791-4,4Zm-12.15,0c0,2.209,1.791,4,4,4s4-1.791,4-4-1.791-4-4-4-4,1.791-4,4Zm-12.15,0c0,2.209,1.791,4,4,4s4-1.791,4-4-1.791-4-4-4-4,1.791-4,4Zm-12.15,0c0,2.209,1.791,4,4,4s4-1.791,4-4-1.791-4-4-4-4,1.791-4,4Zm-12.15,0c0,2.209,1.791,4,4,4s4-1.791,4-4-1.791-4-4-4-4,1.791-4,4Zm-72.9,0c0,2.209,1.791,4,4,4s4-1.791,4-4-1.791-4-4-4-4,1.791-4,4Zm-12.15,0c0,2.209,1.791,4,4,4s4-1.791,4-4-1.791-4-4-4-4,1.791-4,4Zm-12.15,0c0,2.209,1.791,4,4,4s4-1.791,4-4-1.791-4-4-4-4,1.791-4,4Zm-12.15,0c0,2.209,1.791,4,4,4s4-1.791,4-4-1.791-4-4-4-4,1.791-4,4Zm-12.15,0c0,2.209,1.791,4,4,4s4-1.791,4-4-1.791-4-4-4-4,1.791-4,4Zm-12.15,0c0,2.209,1.791,4,4,4s4-1.791,4-4-1.791-4-4-4-4,1.791-4,4Zm-12.15,0c0,2.209,1.791,4,4,4s4-1.791,4-4-1.791-4-4-4-4,1.791-4,4Zm-12.15,0c0,2.209,1.791,4,4,4s4-1.791,4-4-1.791-4-4-4-4,1.791-4,4Zm-12.15,0c0,2.209,1.791,4,4,4s4-1.791,4-4-1.791-4-4-4-4,1.791-4,4Zm-12.15,0c0,2.209,1.791,4,4,4s4-1.791,4-4-1.791-4-4-4-4,1.791-4,4Zm291.6-12.245c0,2.209,1.791,4,4,4s4-1.791,4-4-1.791-4-4-4-4,1.791-4,4Zm-12.15,0c0,2.209,1.791,4,4,4s4-1.791,4-4-1.791-4-4-4-4,1.791-4,4Zm-12.15,0c0,2.209,1.791,4,4,4s4-1.791,4-4-1.791-4-4-4-4,1.791-4,4Zm-12.15,0c0,2.209,1.791,4,4,4s4-1.791,4-4-1.791-4-4-4-4,1.791-4,4Zm-12.15,0c0,2.209,1.791,4,4,4s4-1.791,4-4-1.791-4-4-4-4,1.791-4,4Zm-12.15,0c0,2.209,1.791,4,4,4s4-1.791,4-4-1.791-4-4-4-4,1.791-4,4Zm-12.15,0c0,2.209,1.791,4,4,4s4-1.791,4-4-1.791-4-4-4-4,1.791-4,4Zm-12.15,0c0,2.209,1.791,4,4,4s4-1.791,4-4-1.791-4-4-4-4,1.791-4,4Zm-12.15,0c0,2.209,1.791,4,4,4s4-1.791,4-4-1.791-4-4-4-4,1.791-4,4Zm-12.15,0c0,2.209,1.791,4,4,4s4-1.791,4-4-1.791-4-4-4-4,1.791-4,4Zm-60.75,0c0,2.209,1.791,4,4,4s4-1.791,4-4-1.791-4-4-4-4,1.791-4,4Zm-12.15,0c0,2.209,1.791,4,4,4s4-1.791,4-4-1.791-4-4-4-4,1.791-4,4Zm-12.15,0c0,2.209,1.791,4,4,4s4-1.791,4-4-1.791-4-4-4-4,1.791-4,4Zm-12.15,0c0,2.209,1.791,4,4,4s4-1.791,4-4-1.791-4-4-4-4,1.791-4,4Zm-12.15,0c0,2.209,1.791,4,4,4s4-1.791,4-4-1.791-4-4-4-4,1.791-4,4Zm-12.15,0c0,2.209,1.791,4,4,4s4-1.791,4-4-1.791-4-4-4-4,1.791-4,4Zm-12.15,0c0,2.209,1.791,4,4,4s4-1.791,4-4-1.791-4-4-4-4,1.791-4,4Zm-12.15,0c0,2.209,1.791,4,4,4s4-1.791,4-4-1.791-4-4-4-4,1.791-4,4Zm-12.15,0c0,2.209,1.791,4,4,4s4-1.791,4-4-1.791-4-4-4-4,1.791-4,4Zm-12.15,0c0,2.209,1.791,4,4,4s4-1.791,4-4-1.791-4-4-4-4,1.791-4,4Zm267.3-12.245c0,2.209,1.791,4,4,4s4-1.791,4-4-1.791-4-4-4-4,1.791-4,4Zm-12.15,0c0,2.209,1.791,4,4,4s4-1.791,4-4-1.791-4-4-4-4,1.791-4,4Zm-12.15,0c0,2.209,1.791,4,4,4s4-1.791,4-4-1.791-4-4-4-4,1.791-4,4Zm-12.15,0c0,2.209,1.791,4,4,4s4-1.791,4-4-1.791-4-4-4-4,1.791-4,4Zm-12.15,0c0,2.209,1.791,4,4,4s4-1.791,4-4-1.791-4-4-4-4,1.791-4,4Zm-12.15,0c0,2.209,1.791,4,4,4s4-1.791,4-4-1.791-4-4-4-4,1.791-4,4Zm-12.15,0c0,2.209,1.791,4,4,4s4-1.791,4-4-1.791-4-4-4-4,1.791-4,4Zm-12.15,0c0,2.209,1.791,4,4,4s4-1.791,4-4-1.791-4-4-4-4,1.791-4,4Zm-12.15,0c0,2.209,1.791,4,4,4s4-1.791,4-4-1.791-4-4-4-4,1.791-4,4Zm-12.15,0c0,2.209,1.791,4,4,4s4-1.791,4-4-1.791-4-4-4-4,1.791-4,4Zm-48.6,0c0,2.209,1.791,4,4,4s4-1.791,4-4-1.791-4-4-4-4,1.791-4,4Zm-12.15,0c0,2.209,1.791,4,4,4s4-1.791,4-4-1.791-4-4-4-4,1.791-4,4Zm-12.15,0c0,2.209,1.791,4,4,4s4-1.791,4-4-1.791-4-4-4-4,1.791-4,4Zm-12.15,0c0,2.209,1.791,4,4,4s4-1.791,4-4-1.791-4-4-4-4,1.791-4,4Zm-12.15,0c0,2.209,1.791,4,4,4s4-1.791,4-4-1.791-4-4-4-4,1.791-4,4Zm-12.15,0c0,2.209,1.791,4,4,4s4-1.791,4-4-1.791-4-4-4-4,1.791-4,4Zm-12.15,0c0,2.209,1.791,4,4,4s4-1.791,4-4-1.791-4-4-4-4,1.791-4,4Zm-12.15,0c0,2.209,1.791,4,4,4s4-1.791,4-4-1.791-4-4-4-4,1.791-4,4Zm-12.15,0c0,2.209,1.791,4,4,4s4-1.791,4-4-1.791-4-4-4-4,1.791-4,4Zm255.15-12.245c0,2.209,1.791,4,4,4s4-1.791,4-4-1.791-4-4-4-4,1.791-4,4Zm-12.15,0c0,2.209,1.791,4,4,4s4-1.791,4-4-1.791-4-4-4-4,1.791-4,4Zm-12.15,0c0,2.209,1.791,4,4,4s4-1.791,4-4-1.791-4-4-4-4,1.791-4,4Zm-12.15,0c0,2.209,1.791,4,4,4s4-1.791,4-4-1.791-4-4-4-4,1.791-4,4Zm-12.15,0c0,2.209,1.791,4,4,4s4-1.791,4-4-1.791-4-4-4-4,1.791-4,4Zm-12.15,0c0,2.209,1.791,4,4,4s4-1.791,4-4-1.791-4-4-4-4,1.791-4,4Zm-12.15,0c0,2.209,1.791,4,4,4s4-1.791,4-4-1.791-4-4-4-4,1.791-4,4Zm-12.15,0c0,2.209,1.791,4,4,4s4-1.791,4-4-1.791-4-4-4-4,1.791-4,4Zm-12.15,0c0,2.209,1.791,4,4,4s4-1.791,4-4-1.791-4-4-4-4,1.791-4,4Zm-12.15,0c0,2.209,1.791,4,4,4s4-1.791,4-4-1.791-4-4-4-4,1.791-4,4Zm-48.6,0c0,2.209,1.791,4,4,4s4-1.791,4-4-1.791-4-4-4-4,1.791-4,4Zm-12.15,0c0,2.209,1.791,4,4,4s4-1.791,4-4-1.791-4-4-4-4,1.791-4,4Zm-12.15,0c0,2.209,1.791,4,4,4s4-1.791,4-4-1.791-4-4-4-4,1.791-4,4Zm-12.15,0c0,2.209,1.791,4,4,4s4-1.791,4-4-1.791-4-4-4-4,1.791-4,4Zm-12.15,0c0,2.209,1.791,4,4,4s4-1.791,4-4-1.791-4-4-4-4,1.791-4,4Zm-12.15,0c0,2.209,1.791,4,4,4s4-1.791,4-4-1.791-4-4-4-4,1.791-4,4Zm-12.15,0c0,2.209,1.791,4,4,4s4-1.791,4-4-1.791-4-4-4-4,1.791-4,4Zm-12.15,0c0,2.209,1.791,4,4,4s4-1.791,4-4-1.791-4-4-4-4,1.791-4,4Zm-12.15,0c0,2.209,1.791,4,4,4s4-1.791,4-4-1.791-4-4-4-4,1.791-4,4Zm243-12.245c0,2.209,1.791,4,4,4s4-1.791,4-4-1.791-4-4-4-4,1.791-4,4Zm-12.15,0c0,2.209,1.791,4,4,4s4-1.791,4-4-1.791-4-4-4-4,1.791-4,4Zm-12.15,0c0,2.209,1.791,4,4,4s4-1.791,4-4-1.791-4-4-4-4,1.791-4,4Zm-12.15,0c0,2.209,1.791,4,4,4s4-1.791,4-4-1.791-4-4-4-4,1.791-4,4Zm-12.15,0c0,2.209,1.791,4,4,4s4-1.791,4-4-1.791-4-4-4-4,1.791-4,4Zm-12.15,0c0,2.209,1.791,4,4,4s4-1.791,4-4-1.791-4-4-4-4,1.791-4,4Zm-12.15,0c0,2.209,1.791,4,4,4s4-1.791,4-4-1.791-4-4-4-4,1.791-4,4Zm-12.15,0c0,2.209,1.791,4,4,4s4-1.791,4-4-1.791-4-4-4-4,1.791-4,4Zm-12.15,0c0,2.209,1.791,4,4,4s4-1.791,4-4-1.791-4-4-4-4,1.791-4,4Zm-12.15,0c0,2.209,1.791,4,4,4s4-1.791,4-4-1.791-4-4-4-4,1.791-4,4Zm-24.3,0c0,2.209,1.791,4,4,4s4-1.791,4-4-1.791-4-4-4-4,1.791-4,4Zm-12.15,0c0,2.209,1.791,4,4,4s4-1.791,4-4-1.791-4-4-4-4,1.791-4,4Zm-12.15,0c0,2.209,1.791,4,4,4s4-1.791,4-4-1.791-4-4-4-4,1.791-4,4Zm-12.15,0c0,2.209,1.791,4,4,4s4-1.791,4-4-1.791-4-4-4-4,1.791-4,4Zm-12.15,0c0,2.209,1.791,4,4,4s4-1.791,4-4-1.791-4-4-4-4,1.791-4,4Zm-12.15,0c0,2.209,1.791,4,4,4s4-1.791,4-4-1.791-4-4-4-4,1.791-4,4Zm-12.15,0c0,2.209,1.791,4,4,4s4-1.791,4-4-1.791-4-4-4-4,1.791-4,4Zm-12.15,0c0,2.209,1.791,4,4,4s4-1.791,4-4-1.791-4-4-4-4,1.791-4,4Zm-12.15,0c0,2.209,1.791,4,4,4s4-1.791,4-4-1.791-4-4-4-4,1.791-4,4Zm230.85-12.245c0,2.209,1.791,4,4,4s4-1.791,4-4-1.791-4-4-4-4,1.791-4,4Zm-12.15,0c0,2.209,1.791,4,4,4s4-1.791,4-4-1.791-4-4-4-4,1.791-4,4Zm-12.15,0c0,2.209,1.791,4,4,4s4-1.791,4-4-1.791-4-4-4-4,1.791-4,4Zm-12.15,0c0,2.209,1.791,4,4,4s4-1.791,4-4-1.791-4-4-4-4,1.791-4,4Zm-12.15,0c0,2.209,1.791,4,4,4s4-1.791,4-4-1.791-4-4-4-4,1.791-4,4Zm-12.15,0c0,2.209,1.791,4,4,4s4-1.791,4-4-1.791-4-4-4-4,1.791-4,4Zm-12.15,0c0,2.209,1.791,4,4,4s4-1.791,4-4-1.791-4-4-4-4,1.791-4,4Zm-12.15,0c0,2.209,1.791,4,4,4s4-1.791,4-4-1.791-4-4-4-4,1.791-4,4Zm-12.15,0c0,2.209,1.791,4,4,4s4-1.791,4-4-1.791-4-4-4-4,1.791-4,4Zm-12.15,0c0,2.209,1.791,4,4,4s4-1.791,4-4-1.791-4-4-4-4,1.791-4,4Zm-24.3,0c0,2.209,1.791,4,4,4s4-1.791,4-4-1.791-4-4-4-4,1.791-4,4Zm-12.15,0c0,2.209,1.791,4,4,4s4-1.791,4-4-1.791-4-4-4-4,1.791-4,4Zm-12.15,0c0,2.209,1.791,4,4,4s4-1.791,4-4-1.791-4-4-4-4,1.791-4,4Zm-12.15,0c0,2.209,1.791,4,4,4s4-1.791,4-4-1.791-4-4-4-4,1.791-4,4Zm-12.15,0c0,2.209,1.791,4,4,4s4-1.791,4-4-1.791-4-4-4-4,1.791-4,4Zm-12.15,0c0,2.209,1.791,4,4,4s4-1.791,4-4-1.791-4-4-4-4,1.791-4,4Zm-12.15,0c0,2.209,1.791,4,4,4s4-1.791,4-4-1.791-4-4-4-4,1.791-4,4Zm-12.15,0c0,2.209,1.791,4,4,4s4-1.791,4-4-1.791-4-4-4-4,1.791-4,4Zm-12.15,0c0,2.209,1.791,4,4,4s4-1.791,4-4-1.791-4-4-4-4,1.791-4,4Zm218.7-12.245c0,2.209,1.791,4,4,4s4-1.791,4-4-1.791-4-4-4-4,1.791-4,4Zm-12.15,0c0,2.209,1.791,4,4,4s4-1.791,4-4-1.791-4-4-4-4,1.791-4,4Zm-12.15,0c0,2.209,1.791,4,4,4s4-1.791,4-4-1.791-4-4-4-4,1.791-4,4Zm-12.15,0c0,2.209,1.791,4,4,4s4-1.791,4-4-1.791-4-4-4-4,1.791-4,4Zm-12.15,0c0,2.209,1.791,4,4,4s4-1.791,4-4-1.791-4-4-4-4,1.791-4,4Zm-12.15,0c0,2.209,1.791,4,4,4s4-1.791,4-4-1.791-4-4-4-4,1.791-4,4Zm-12.15,0c0,2.209,1.791,4,4,4s4-1.791,4-4-1.791-4-4-4-4,1.791-4,4Zm-12.15,0c0,2.209,1.791,4,4,4s4-1.791,4-4-1.791-4-4-4-4,1.791-4,4Zm-12.15,0c0,2.209,1.791,4,4,4s4-1.791,4-4-1.791-4-4-4-4,1.791-4,4Zm-12.15,0c0,2.209,1.791,4,4,4s4-1.791,4-4-1.791-4-4-4-4,1.791-4,4Zm-12.15,0c0,2.209,1.791,4,4,4s4-1.791,4-4-1.791-4-4-4-4,1.791-4,4Zm-12.15,0c0,2.209,1.791,4,4,4s4-1.791,4-4-1.791-4-4-4-4,1.791-4,4Zm-12.15,0c0,2.209,1.791,4,4,4s4-1.791,4-4-1.791-4-4-4-4,1.791-4,4Zm-12.15,0c0,2.209,1.791,4,4,4s4-1.791,4-4-1.791-4-4-4-4,1.791-4,4Zm-12.15,0c0,2.209,1.791,4,4,4s4-1.791,4-4-1.791-4-4-4-4,1.791-4,4Zm-12.15,0c0,2.209,1.791,4,4,4s4-1.791,4-4-1.791-4-4-4-4,1.791-4,4Zm-12.15,0c0,2.209,1.791,4,4,4s4-1.791,4-4-1.791-4-4-4-4,1.791-4,4Zm-12.15,0c0,2.209,1.791,4,4,4s4-1.791,4-4-1.791-4-4-4-4,1.791-4,4Zm206.55-12.245c0,2.209,1.791,4,4,4s4-1.791,4-4-1.791-4-4-4-4,1.791-4,4Zm-12.15,0c0,2.209,1.791,4,4,4s4-1.791,4-4-1.791-4-4-4-4,1.791-4,4Zm-12.15,0c0,2.209,1.791,4,4,4s4-1.791,4-4-1.791-4-4-4-4,1.791-4,4Zm-12.15,0c0,2.209,1.791,4,4,4s4-1.791,4-4-1.791-4-4-4-4,1.791-4,4Zm-12.15,0c0,2.209,1.791,4,4,4s4-1.791,4-4-1.791-4-4-4-4,1.791-4,4Zm-12.15,0c0,2.209,1.791,4,4,4s4-1.791,4-4-1.791-4-4-4-4,1.791-4,4Zm-12.15,0c0,2.209,1.791,4,4,4s4-1.791,4-4-1.791-4-4-4-4,1.791-4,4Zm-12.15,0c0,2.209,1.791,4,4,4s4-1.791,4-4-1.791-4-4-4-4,1.791-4,4Zm-12.15,0c0,2.209,1.791,4,4,4s4-1.791,4-4-1.791-4-4-4-4,1.791-4,4Zm-12.15,0c0,2.209,1.791,4,4,4s4-1.791,4-4-1.791-4-4-4-4,1.791-4,4Zm-12.15,0c0,2.209,1.791,4,4,4s4-1.791,4-4-1.791-4-4-4-4,1.791-4,4Zm-12.15,0c0,2.209,1.791,4,4,4s4-1.791,4-4-1.791-4-4-4-4,1.791-4,4Zm-12.15,0c0,2.209,1.791,4,4,4s4-1.791,4-4-1.791-4-4-4-4,1.791-4,4Zm-12.15,0c0,2.209,1.791,4,4,4s4-1.791,4-4-1.791-4-4-4-4,1.791-4,4Zm-12.15,0c0,2.209,1.791,4,4,4s4-1.791,4-4-1.791-4-4-4-4,1.791-4,4Zm-12.15,0c0,2.209,1.791,4,4,4s4-1.791,4-4-1.791-4-4-4-4,1.791-4,4Zm-12.15,0c0,2.209,1.791,4,4,4s4-1.791,4-4-1.791-4-4-4-4,1.791-4,4Zm-12.15,0c0,2.209,1.791,4,4,4s4-1.791,4-4-1.791-4-4-4-4,1.791-4,4Zm194.4-12.245c0,2.209,1.791,4,4,4s4-1.791,4-4-1.791-4-4-4-4,1.791-4,4Zm-12.15,0c0,2.209,1.791,4,4,4s4-1.791,4-4-1.791-4-4-4-4,1.791-4,4Zm-12.15,0c0,2.209,1.791,4,4,4s4-1.791,4-4-1.791-4-4-4-4,1.791-4,4Zm-12.15,0c0,2.209,1.791,4,4,4s4-1.791,4-4-1.791-4-4-4-4,1.791-4,4Zm-12.15,0c0,2.209,1.791,4,4,4s4-1.791,4-4-1.791-4-4-4-4,1.791-4,4Zm-12.15,0c0,2.209,1.791,4,4,4s4-1.791,4-4-1.791-4-4-4-4,1.791-4,4Zm-12.15,0c0,2.209,1.791,4,4,4s4-1.791,4-4-1.791-4-4-4-4,1.791-4,4Zm-12.15,0c0,2.209,1.791,4,4,4s4-1.791,4-4-1.791-4-4-4-4,1.791-4,4Zm-12.15,0c0,2.209,1.791,4,4,4s4-1.791,4-4-1.791-4-4-4-4,1.791-4,4Zm-12.15,0c0,2.209,1.791,4,4,4s4-1.791,4-4-1.791-4-4-4-4,1.791-4,4Zm-12.15,0c0,2.209,1.791,4,4,4s4-1.791,4-4-1.791-4-4-4-4,1.791-4,4Zm-12.15,0c0,2.209,1.791,4,4,4s4-1.791,4-4-1.791-4-4-4-4,1.791-4,4Zm-12.15,0c0,2.209,1.791,4,4,4s4-1.791,4-4-1.791-4-4-4-4,1.791-4,4Zm-12.15,0c0,2.209,1.791,4,4,4s4-1.791,4-4-1.791-4-4-4-4,1.791-4,4Zm-12.15,0c0,2.209,1.791,4,4,4s4-1.791,4-4-1.791-4-4-4-4,1.791-4,4Zm-12.15,0c0,2.209,1.791,4,4,4s4-1.791,4-4-1.791-4-4-4-4,1.791-4,4Zm182.25-12.245c0,2.209,1.791,4,4,4s4-1.791,4-4-1.791-4-4-4-4,1.791-4,4Zm-12.15,0c0,2.209,1.791,4,4,4s4-1.791,4-4-1.791-4-4-4-4,1.791-4,4Zm-12.15,0c0,2.209,1.791,4,4,4s4-1.791,4-4-1.791-4-4-4-4,1.791-4,4Zm-12.15,0c0,2.209,1.791,4,4,4s4-1.791,4-4-1.791-4-4-4-4,1.791-4,4Zm-12.15,0c0,2.209,1.791,4,4,4s4-1.791,4-4-1.791-4-4-4-4,1.791-4,4Zm-12.15,0c0,2.209,1.791,4,4,4s4-1.791,4-4-1.791-4-4-4-4,1.791-4,4Zm-12.15,0c0,2.209,1.791,4,4,4s4-1.791,4-4-1.791-4-4-4-4,1.791-4,4Zm-12.15,0c0,2.209,1.791,4,4,4s4-1.791,4-4-1.791-4-4-4-4,1.791-4,4Zm-12.15,0c0,2.209,1.791,4,4,4s4-1.791,4-4-1.791-4-4-4-4,1.791-4,4Zm-12.15,0c0,2.209,1.791,4,4,4s4-1.791,4-4-1.791-4-4-4-4,1.791-4,4Zm-12.15,0c0,2.209,1.791,4,4,4s4-1.791,4-4-1.791-4-4-4-4,1.791-4,4Zm-12.15,0c0,2.209,1.791,4,4,4s4-1.791,4-4-1.791-4-4-4-4,1.791-4,4Zm-12.15,0c0,2.209,1.791,4,4,4s4-1.791,4-4-1.791-4-4-4-4,1.791-4,4Zm-12.15,0c0,2.209,1.791,4,4,4s4-1.791,4-4-1.791-4-4-4-4,1.791-4,4Zm-12.15,0c0,2.209,1.791,4,4,4s4-1.791,4-4-1.791-4-4-4-4,1.791-4,4Zm-12.15,0c0,2.209,1.791,4,4,4s4-1.791,4-4-1.791-4-4-4-4,1.791-4,4Zm170.1-12.245c0,2.209,1.791,4,4,4s4-1.791,4-4-1.791-4-4-4-4,1.791-4,4Zm-12.15,0c0,2.209,1.791,4,4,4s4-1.791,4-4-1.791-4-4-4-4,1.791-4,4Zm-12.15,0c0,2.209,1.791,4,4,4s4-1.791,4-4-1.791-4-4-4-4,1.791-4,4Zm-12.15,0c0,2.209,1.791,4,4,4s4-1.791,4-4-1.791-4-4-4-4,1.791-4,4Zm-12.15,0c0,2.209,1.791,4,4,4s4-1.791,4-4-1.791-4-4-4-4,1.791-4,4Zm-12.15,0c0,2.209,1.791,4,4,4s4-1.791,4-4-1.791-4-4-4-4,1.791-4,4Zm-12.15,0c0,2.209,1.791,4,4,4s4-1.791,4-4-1.791-4-4-4-4,1.791-4,4Zm-12.15,0c0,2.209,1.791,4,4,4s4-1.791,4-4-1.791-4-4-4-4,1.791-4,4Zm-12.15,0c0,2.209,1.791,4,4,4s4-1.791,4-4-1.791-4-4-4-4,1.791-4,4Zm-12.15,0c0,2.209,1.791,4,4,4s4-1.791,4-4-1.791-4-4-4-4,1.791-4,4Zm-12.15,0c0,2.209,1.791,4,4,4s4-1.791,4-4-1.791-4-4-4-4,1.791-4,4Zm-12.15,0c0,2.209,1.791,4,4,4s4-1.791,4-4-1.791-4-4-4-4,1.791-4,4Zm-12.15,0c0,2.209,1.791,4,4,4s4-1.791,4-4-1.791-4-4-4-4,1.791-4,4Zm-12.15,0c0,2.209,1.791,4,4,4s4-1.791,4-4-1.791-4-4-4-4,1.791-4,4Zm157.95-12.245c0,2.209,1.791,4,4,4s4-1.791,4-4-1.791-4-4-4-4,1.791-4,4Zm-12.15,0c0,2.209,1.791,4,4,4s4-1.791,4-4-1.791-4-4-4-4,1.791-4,4Zm-12.15,0c0,2.209,1.791,4,4,4s4-1.791,4-4-1.791-4-4-4-4,1.791-4,4Zm-12.15,0c0,2.209,1.791,4,4,4s4-1.791,4-4-1.791-4-4-4-4,1.791-4,4Zm-12.15,0c0,2.209,1.791,4,4,4s4-1.791,4-4-1.791-4-4-4-4,1.791-4,4Zm-12.15,0c0,2.209,1.791,4,4,4s4-1.791,4-4-1.791-4-4-4-4,1.791-4,4Zm-12.15,0c0,2.209,1.791,4,4,4s4-1.791,4-4-1.791-4-4-4-4,1.791-4,4Zm-12.15,0c0,2.209,1.791,4,4,4s4-1.791,4-4-1.791-4-4-4-4,1.791-4,4Zm-12.15,0c0,2.209,1.791,4,4,4s4-1.791,4-4-1.791-4-4-4-4,1.791-4,4Zm-12.15,0c0,2.209,1.791,4,4,4s4-1.791,4-4-1.791-4-4-4-4,1.791-4,4Zm-12.15,0c0,2.209,1.791,4,4,4s4-1.791,4-4-1.791-4-4-4-4,1.791-4,4Zm-12.15,0c0,2.209,1.791,4,4,4s4-1.791,4-4-1.791-4-4-4-4,1.791-4,4Zm-12.15,0c0,2.209,1.791,4,4,4s4-1.791,4-4-1.791-4-4-4-4,1.791-4,4Zm-12.15,0c0,2.209,1.791,4,4,4s4-1.791,4-4-1.791-4-4-4-4,1.791-4,4Zm157.95-12.245c0,2.209,1.791,4,4,4s4-1.791,4-4-1.791-4-4-4-4,1.791-4,4Zm-12.15,0c0,2.209,1.791,4,4,4s4-1.791,4-4-1.791-4-4-4-4,1.791-4,4Zm-12.15,0c0,2.209,1.791,4,4,4s4-1.791,4-4-1.791-4-4-4-4,1.791-4,4Zm-12.15,0c0,2.209,1.791,4,4,4s4-1.791,4-4-1.791-4-4-4-4,1.791-4,4Zm-12.15,0c0,2.209,1.791,4,4,4s4-1.791,4-4-1.791-4-4-4-4,1.791-4,4Zm-12.15,0c0,2.209,1.791,4,4,4s4-1.791,4-4-1.791-4-4-4-4,1.791-4,4Zm-12.15,0c0,2.209,1.791,4,4,4s4-1.791,4-4-1.791-4-4-4-4,1.791-4,4Zm-12.15,0c0,2.209,1.791,4,4,4s4-1.791,4-4-1.791-4-4-4-4,1.791-4,4Zm-12.15,0c0,2.209,1.791,4,4,4s4-1.791,4-4-1.791-4-4-4-4,1.791-4,4Zm-12.15,0c0,2.209,1.791,4,4,4s4-1.791,4-4-1.791-4-4-4-4,1.791-4,4Zm-12.15,0c0,2.209,1.791,4,4,4s4-1.791,4-4-1.791-4-4-4-4,1.791-4,4Zm-12.15,0c0,2.209,1.791,4,4,4s4-1.791,4-4-1.791-4-4-4-4,1.791-4,4Zm-12.15,0c0,2.209,1.791,4,4,4s4-1.791,4-4-1.791-4-4-4-4,1.791-4,4Zm145.8-12.245c0,2.209,1.791,4,4,4s4-1.791,4-4-1.791-4-4-4-4,1.791-4,4Zm-12.15,0c0,2.209,1.791,4,4,4s4-1.791,4-4-1.791-4-4-4-4,1.791-4,4Zm-12.15,0c0,2.209,1.791,4,4,4s4-1.791,4-4-1.791-4-4-4-4,1.791-4,4Zm-12.15,0c0,2.209,1.791,4,4,4s4-1.791,4-4-1.791-4-4-4-4,1.791-4,4Zm-12.15,0c0,2.209,1.791,4,4,4s4-1.791,4-4-1.791-4-4-4-4,1.791-4,4Zm-12.15,0c0,2.209,1.791,4,4,4s4-1.791,4-4-1.791-4-4-4-4,1.791-4,4Zm-12.15,0c0,2.209,1.791,4,4,4s4-1.791,4-4-1.791-4-4-4-4,1.791-4,4Zm-12.15,0c0,2.209,1.791,4,4,4s4-1.791,4-4-1.791-4-4-4-4,1.791-4,4Zm-12.15,0c0,2.209,1.791,4,4,4s4-1.791,4-4-1.791-4-4-4-4,1.791-4,4Zm-12.15,0c0,2.209,1.791,4,4,4s4-1.791,4-4-1.791-4-4-4-4,1.791-4,4Zm-12.15,0c0,2.209,1.791,4,4,4s4-1.791,4-4-1.791-4-4-4-4,1.791-4,4Zm-12.15,0c0,2.209,1.791,4,4,4s4-1.791,4-4-1.791-4-4-4-4,1.791-4,4Zm-12.15,0c0,2.209,1.791,4,4,4s4-1.791,4-4-1.791-4-4-4-4,1.791-4,4Zm-12.15,0c0,2.209,1.791,4,4,4s4-1.791,4-4-1.791-4-4-4-4,1.791-4,4Zm157.95-12.245c0,2.209,1.791,4,4,4s4-1.791,4-4-1.791-4-4-4-4,1.791-4,4Zm-12.15,0c0,2.209,1.791,4,4,4s4-1.791,4-4-1.791-4-4-4-4,1.791-4,4Zm-12.15,0c0,2.209,1.791,4,4,4s4-1.791,4-4-1.791-4-4-4-4,1.791-4,4Zm-12.15,0c0,2.209,1.791,4,4,4s4-1.791,4-4-1.791-4-4-4-4,1.791-4,4Zm-12.15,0c0,2.209,1.791,4,4,4s4-1.791,4-4-1.791-4-4-4-4,1.791-4,4Zm-12.15,0c0,2.209,1.791,4,4,4s4-1.791,4-4-1.791-4-4-4-4,1.791-4,4Zm-12.15,0c0,2.209,1.791,4,4,4s4-1.791,4-4-1.791-4-4-4-4,1.791-4,4Zm-12.15,0c0,2.209,1.791,4,4,4s4-1.791,4-4-1.791-4-4-4-4,1.791-4,4Zm-12.15,0c0,2.209,1.791,4,4,4s4-1.791,4-4-1.791-4-4-4-4,1.791-4,4Zm-12.15,0c0,2.209,1.791,4,4,4s4-1.791,4-4-1.791-4-4-4-4,1.791-4,4Zm-12.15,0c0,2.209,1.791,4,4,4s4-1.791,4-4-1.791-4-4-4-4,1.791-4,4Zm-12.15,0c0,2.209,1.791,4,4,4s4-1.791,4-4-1.791-4-4-4-4,1.791-4,4Zm-12.15,0c0,2.209,1.791,4,4,4s4-1.791,4-4-1.791-4-4-4-4,1.791-4,4Zm-12.15,0c0,2.209,1.791,4,4,4s4-1.791,4-4-1.791-4-4-4-4,1.791-4,4Zm170.1-12.245c0,2.209,1.791,4,4,4s4-1.791,4-4-1.791-4-4-4-4,1.791-4,4Zm-12.15,0c0,2.209,1.791,4,4,4s4-1.791,4-4-1.791-4-4-4-4,1.791-4,4Zm-12.15,0c0,2.209,1.791,4,4,4s4-1.791,4-4-1.791-4-4-4-4,1.791-4,4Zm-12.15,0c0,2.209,1.791,4,4,4s4-1.791,4-4-1.791-4-4-4-4,1.791-4,4Zm-12.15,0c0,2.209,1.791,4,4,4s4-1.791,4-4-1.791-4-4-4-4,1.791-4,4Zm-12.15,0c0,2.209,1.791,4,4,4s4-1.791,4-4-1.791-4-4-4-4,1.791-4,4Zm-12.15,0c0,2.209,1.791,4,4,4s4-1.791,4-4-1.791-4-4-4-4,1.791-4,4Zm-12.15,0c0,2.209,1.791,4,4,4s4-1.791,4-4-1.791-4-4-4-4,1.791-4,4Zm-12.15,0c0,2.209,1.791,4,4,4s4-1.791,4-4-1.791-4-4-4-4,1.791-4,4Zm-12.15,0c0,2.209,1.791,4,4,4s4-1.791,4-4-1.791-4-4-4-4,1.791-4,4Zm-12.15,0c0,2.209,1.791,4,4,4s4-1.791,4-4-1.791-4-4-4-4,1.791-4,4Zm-12.15,0c0,2.209,1.791,4,4,4s4-1.791,4-4-1.791-4-4-4-4,1.791-4,4Zm-12.15,0c0,2.209,1.791,4,4,4s4-1.791,4-4-1.791-4-4-4-4,1.791-4,4Zm-12.15,0c0,2.209,1.791,4,4,4s4-1.791,4-4-1.791-4-4-4-4,1.791-4,4Zm-12.15,0c0,2.209,1.791,4,4,4s4-1.791,4-4-1.791-4-4-4-4,1.791-4,4Zm-12.15,0c0,2.209,1.791,4,4,4s4-1.791,4-4-1.791-4-4-4-4,1.791-4,4Zm182.25-12.245c0,2.209,1.791,4,4,4s4-1.791,4-4-1.791-4-4-4-4,1.791-4,4Zm-12.15,0c0,2.209,1.791,4,4,4s4-1.791,4-4-1.791-4-4-4-4,1.791-4,4Zm-12.15,0c0,2.209,1.791,4,4,4s4-1.791,4-4-1.791-4-4-4-4,1.791-4,4Zm-12.15,0c0,2.209,1.791,4,4,4s4-1.791,4-4-1.791-4-4-4-4,1.791-4,4Zm-12.15,0c0,2.209,1.791,4,4,4s4-1.791,4-4-1.791-4-4-4-4,1.791-4,4Zm-12.15,0c0,2.209,1.791,4,4,4s4-1.791,4-4-1.791-4-4-4-4,1.791-4,4Zm-12.15,0c0,2.209,1.791,4,4,4s4-1.791,4-4-1.791-4-4-4-4,1.791-4,4Zm-12.15,0c0,2.209,1.791,4,4,4s4-1.791,4-4-1.791-4-4-4-4,1.791-4,4Zm-12.15,0c0,2.209,1.791,4,4,4s4-1.791,4-4-1.791-4-4-4-4,1.791-4,4Zm-12.15,0c0,2.209,1.791,4,4,4s4-1.791,4-4-1.791-4-4-4-4,1.791-4,4Zm-12.15,0c0,2.209,1.791,4,4,4s4-1.791,4-4-1.791-4-4-4-4,1.791-4,4Zm-12.15,0c0,2.209,1.791,4,4,4s4-1.791,4-4-1.791-4-4-4-4,1.791-4,4Zm-12.15,0c0,2.209,1.791,4,4,4s4-1.791,4-4-1.791-4-4-4-4,1.791-4,4Zm-12.15,0c0,2.209,1.791,4,4,4s4-1.791,4-4-1.791-4-4-4-4,1.791-4,4Zm-12.15,0c0,2.209,1.791,4,4,4s4-1.791,4-4-1.791-4-4-4-4,1.791-4,4Zm-12.15,0c0,2.209,1.791,4,4,4s4-1.791,4-4-1.791-4-4-4-4,1.791-4,4Zm194.4-12.245c0,2.209,1.791,4,4,4s4-1.791,4-4-1.791-4-4-4-4,1.791-4,4Zm-12.15,0c0,2.209,1.791,4,4,4s4-1.791,4-4-1.791-4-4-4-4,1.791-4,4Zm-12.15,0c0,2.209,1.791,4,4,4s4-1.791,4-4-1.791-4-4-4-4,1.791-4,4Zm-12.15,0c0,2.209,1.791,4,4,4s4-1.791,4-4-1.791-4-4-4-4,1.791-4,4Zm-12.15,0c0,2.209,1.791,4,4,4s4-1.791,4-4-1.791-4-4-4-4,1.791-4,4Zm-12.15,0c0,2.209,1.791,4,4,4s4-1.791,4-4-1.791-4-4-4-4,1.791-4,4Zm-12.15,0c0,2.209,1.791,4,4,4s4-1.791,4-4-1.791-4-4-4-4,1.791-4,4Zm-12.15,0c0,2.209,1.791,4,4,4s4-1.791,4-4-1.791-4-4-4-4,1.791-4,4Zm-12.15,0c0,2.209,1.791,4,4,4s4-1.791,4-4-1.791-4-4-4-4,1.791-4,4Zm-12.15,0c0,2.209,1.791,4,4,4s4-1.791,4-4-1.791-4-4-4-4,1.791-4,4Zm-12.15,0c0,2.209,1.791,4,4,4s4-1.791,4-4-1.791-4-4-4-4,1.791-4,4Zm-12.15,0c0,2.209,1.791,4,4,4s4-1.791,4-4-1.791-4-4-4-4,1.791-4,4Zm-12.15,0c0,2.209,1.791,4,4,4s4-1.791,4-4-1.791-4-4-4-4,1.791-4,4Zm-12.15,0c0,2.209,1.791,4,4,4s4-1.791,4-4-1.791-4-4-4-4,1.791-4,4Zm-12.15,0c0,2.209,1.791,4,4,4s4-1.791,4-4-1.791-4-4-4-4,1.791-4,4Zm-12.15,0c0,2.209,1.791,4,4,4s4-1.791,4-4-1.791-4-4-4-4,1.791-4,4Zm-12.15,0c0,2.209,1.791,4,4,4s4-1.791,4-4-1.791-4-4-4-4,1.791-4,4Zm-12.15,0c0,2.209,1.791,4,4,4s4-1.791,4-4-1.791-4-4-4-4,1.791-4,4Zm218.7-12.245c0,2.209,1.791,4,4,4s4-1.791,4-4-1.791-4-4-4-4,1.791-4,4Zm-12.15,0c0,2.209,1.791,4,4,4s4-1.791,4-4-1.791-4-4-4-4,1.791-4,4Zm-12.15,0c0,2.209,1.791,4,4,4s4-1.791,4-4-1.791-4-4-4-4,1.791-4,4Zm-12.15,0c0,2.209,1.791,4,4,4s4-1.791,4-4-1.791-4-4-4-4,1.791-4,4Zm-12.15,0c0,2.209,1.791,4,4,4s4-1.791,4-4-1.791-4-4-4-4,1.791-4,4Zm-12.15,0c0,2.209,1.791,4,4,4s4-1.791,4-4-1.791-4-4-4-4,1.791-4,4Zm-12.15,0c0,2.209,1.791,4,4,4s4-1.791,4-4-1.791-4-4-4-4,1.791-4,4Zm-12.15,0c0,2.209,1.791,4,4,4s4-1.791,4-4-1.791-4-4-4-4,1.791-4,4Zm-12.15,0c0,2.209,1.791,4,4,4s4-1.791,4-4-1.791-4-4-4-4,1.791-4,4Zm-24.3,0c0,2.209,1.791,4,4,4s4-1.791,4-4-1.791-4-4-4-4,1.791-4,4Zm-12.15,0c0,2.209,1.791,4,4,4s4-1.791,4-4-1.791-4-4-4-4,1.791-4,4Zm-12.15,0c0,2.209,1.791,4,4,4s4-1.791,4-4-1.791-4-4-4-4,1.791-4,4Zm-12.15,0c0,2.209,1.791,4,4,4s4-1.791,4-4-1.791-4-4-4-4,1.791-4,4Zm-12.15,0c0,2.209,1.791,4,4,4s4-1.791,4-4-1.791-4-4-4-4,1.791-4,4Zm-12.15,0c0,2.209,1.791,4,4,4s4-1.791,4-4-1.791-4-4-4-4,1.791-4,4Zm-12.15,0c0,2.209,1.791,4,4,4s4-1.791,4-4-1.791-4-4-4-4,1.791-4,4Zm-12.15,0c0,2.209,1.791,4,4,4s4-1.791,4-4-1.791-4-4-4-4,1.791-4,4Zm-12.15,0c0,2.209,1.791,4,4,4s4-1.791,4-4-1.791-4-4-4-4,1.791-4,4Zm218.7-12.245c0,2.209,1.791,4,4,4s4-1.791,4-4-1.791-4-4-4-4,1.791-4,4Zm-12.15,0c0,2.209,1.791,4,4,4s4-1.791,4-4-1.791-4-4-4-4,1.791-4,4Zm-12.15,0c0,2.209,1.791,4,4,4s4-1.791,4-4-1.791-4-4-4-4,1.791-4,4Zm-12.15,0c0,2.209,1.791,4,4,4s4-1.791,4-4-1.791-4-4-4-4,1.791-4,4Zm-12.15,0c0,2.209,1.791,4,4,4s4-1.791,4-4-1.791-4-4-4-4,1.791-4,4Zm-12.15,0c0,2.209,1.791,4,4,4s4-1.791,4-4-1.791-4-4-4-4,1.791-4,4Zm-12.15,0c0,2.209,1.791,4,4,4s4-1.791,4-4-1.791-4-4-4-4,1.791-4,4Zm-12.15,0c0,2.209,1.791,4,4,4s4-1.791,4-4-1.791-4-4-4-4,1.791-4,4Zm-12.15,0c0,2.209,1.791,4,4,4s4-1.791,4-4-1.791-4-4-4-4,1.791-4,4Zm-24.3,0c0,2.209,1.791,4,4,4s4-1.791,4-4-1.791-4-4-4-4,1.791-4,4Zm-12.15,0c0,2.209,1.791,4,4,4s4-1.791,4-4-1.791-4-4-4-4,1.791-4,4Zm-12.15,0c0,2.209,1.791,4,4,4s4-1.791,4-4-1.791-4-4-4-4,1.791-4,4Zm-12.15,0c0,2.209,1.791,4,4,4s4-1.791,4-4-1.791-4-4-4-4,1.791-4,4Zm-12.15,0c0,2.209,1.791,4,4,4s4-1.791,4-4-1.791-4-4-4-4,1.791-4,4Zm-12.15,0c0,2.209,1.791,4,4,4s4-1.791,4-4-1.791-4-4-4-4,1.791-4,4Zm-12.15,0c0,2.209,1.791,4,4,4s4-1.791,4-4-1.791-4-4-4-4,1.791-4,4Zm-12.15,0c0,2.209,1.791,4,4,4s4-1.791,4-4-1.791-4-4-4-4,1.791-4,4Zm-12.15,0c0,2.209,1.791,4,4,4s4-1.791,4-4-1.791-4-4-4-4,1.791-4,4Zm-12.15,0c0,2.209,1.791,4,4,4s4-1.791,4-4-1.791-4-4-4-4,1.791-4,4Zm243-12.245c0,2.209,1.791,4,4,4s4-1.791,4-4-1.791-4-4-4-4,1.791-4,4Zm-12.15,0c0,2.209,1.791,4,4,4s4-1.791,4-4-1.791-4-4-4-4,1.791-4,4Zm-12.15,0c0,2.209,1.791,4,4,4s4-1.791,4-4-1.791-4-4-4-4,1.791-4,4Zm-12.15,0c0,2.209,1.791,4,4,4s4-1.791,4-4-1.791-4-4-4-4,1.791-4,4Zm-12.15,0c0,2.209,1.791,4,4,4s4-1.791,4-4-1.791-4-4-4-4,1.791-4,4Zm-12.15,0c0,2.209,1.791,4,4,4s4-1.791,4-4-1.791-4-4-4-4,1.791-4,4Zm-12.15,0c0,2.209,1.791,4,4,4s4-1.791,4-4-1.791-4-4-4-4,1.791-4,4Zm-12.15,0c0,2.209,1.791,4,4,4s4-1.791,4-4-1.791-4-4-4-4,1.791-4,4Zm-12.15,0c0,2.209,1.791,4,4,4s4-1.791,4-4-1.791-4-4-4-4,1.791-4,4Zm-48.6,0c0,2.209,1.791,4,4,4s4-1.791,4-4-1.791-4-4-4-4,1.791-4,4Zm-12.15,0c0,2.209,1.791,4,4,4s4-1.791,4-4-1.791-4-4-4-4,1.791-4,4Zm-12.15,0c0,2.209,1.791,4,4,4s4-1.791,4-4-1.791-4-4-4-4,1.791-4,4Zm-12.15,0c0,2.209,1.791,4,4,4s4-1.791,4-4-1.791-4-4-4-4,1.791-4,4Zm-12.15,0c0,2.209,1.791,4,4,4s4-1.791,4-4-1.791-4-4-4-4,1.791-4,4Zm-12.15,0c0,2.209,1.791,4,4,4s4-1.791,4-4-1.791-4-4-4-4,1.791-4,4Zm-12.15,0c0,2.209,1.791,4,4,4s4-1.791,4-4-1.791-4-4-4-4,1.791-4,4Zm-12.15,0c0,2.209,1.791,4,4,4s4-1.791,4-4-1.791-4-4-4-4,1.791-4,4Zm-12.15,0c0,2.209,1.791,4,4,4s4-1.791,4-4-1.791-4-4-4-4,1.791-4,4Zm-12.15,0c0,2.209,1.791,4,4,4s4-1.791,4-4-1.791-4-4-4-4,1.791-4,4Zm255.15-12.245c0,2.209,1.791,4,4,4s4-1.791,4-4-1.791-4-4-4-4,1.791-4,4Zm-12.15,0c0,2.209,1.791,4,4,4s4-1.791,4-4-1.791-4-4-4-4,1.791-4,4Zm-12.15,0c0,2.209,1.791,4,4,4s4-1.791,4-4-1.791-4-4-4-4,1.791-4,4Zm-12.15,0c0,2.209,1.791,4,4,4s4-1.791,4-4-1.791-4-4-4-4,1.791-4,4Zm-12.15,0c0,2.209,1.791,4,4,4s4-1.791,4-4-1.791-4-4-4-4,1.791-4,4Zm-12.15,0c0,2.209,1.791,4,4,4s4-1.791,4-4-1.791-4-4-4-4,1.791-4,4Zm-12.15,0c0,2.209,1.791,4,4,4s4-1.791,4-4-1.791-4-4-4-4,1.791-4,4Zm-12.15,0c0,2.209,1.791,4,4,4s4-1.791,4-4-1.791-4-4-4-4,1.791-4,4Zm-12.15,0c0,2.209,1.791,4,4,4s4-1.791,4-4-1.791-4-4-4-4,1.791-4,4Zm-48.6,0c0,2.209,1.791,4,4,4s4-1.791,4-4-1.791-4-4-4-4,1.791-4,4Zm-12.15,0c0,2.209,1.791,4,4,4s4-1.791,4-4-1.791-4-4-4-4,1.791-4,4Zm-12.15,0c0,2.209,1.791,4,4,4s4-1.791,4-4-1.791-4-4-4-4,1.791-4,4Zm-12.15,0c0,2.209,1.791,4,4,4s4-1.791,4-4-1.791-4-4-4-4,1.791-4,4Zm-12.15,0c0,2.209,1.791,4,4,4s4-1.791,4-4-1.791-4-4-4-4,1.791-4,4Zm-12.15,0c0,2.209,1.791,4,4,4s4-1.791,4-4-1.791-4-4-4-4,1.791-4,4Zm-12.15,0c0,2.209,1.791,4,4,4s4-1.791,4-4-1.791-4-4-4-4,1.791-4,4Zm-12.15,0c0,2.209,1.791,4,4,4s4-1.791,4-4-1.791-4-4-4-4,1.791-4,4Zm-12.15,0c0,2.209,1.791,4,4,4s4-1.791,4-4-1.791-4-4-4-4,1.791-4,4Zm-12.15,0c0,2.209,1.791,4,4,4s4-1.791,4-4-1.791-4-4-4-4,1.791-4,4Zm267.3-12.245c0,2.209,1.791,4,4,4s4-1.791,4-4-1.791-4-4-4-4,1.791-4,4Zm-12.15,0c0,2.209,1.791,4,4,4s4-1.791,4-4-1.791-4-4-4-4,1.791-4,4Zm-12.15,0c0,2.209,1.791,4,4,4s4-1.791,4-4-1.791-4-4-4-4,1.791-4,4Zm-12.15,0c0,2.209,1.791,4,4,4s4-1.791,4-4-1.791-4-4-4-4,1.791-4,4Zm-12.15,0c0,2.209,1.791,4,4,4s4-1.791,4-4-1.791-4-4-4-4,1.791-4,4Zm-12.15,0c0,2.209,1.791,4,4,4s4-1.791,4-4-1.791-4-4-4-4,1.791-4,4Zm-12.15,0c0,2.209,1.791,4,4,4s4-1.791,4-4-1.791-4-4-4-4,1.791-4,4Zm-12.15,0c0,2.209,1.791,4,4,4s4-1.791,4-4-1.791-4-4-4-4,1.791-4,4Zm-12.15,0c0,2.209,1.791,4,4,4s4-1.791,4-4-1.791-4-4-4-4,1.791-4,4Zm-72.9,0c0,2.209,1.791,4,4,4s4-1.791,4-4-1.791-4-4-4-4,1.791-4,4Zm-12.15,0c0,2.209,1.791,4,4,4s4-1.791,4-4-1.791-4-4-4-4,1.791-4,4Zm-12.15,0c0,2.209,1.791,4,4,4s4-1.791,4-4-1.791-4-4-4-4,1.791-4,4Zm-12.15,0c0,2.209,1.791,4,4,4s4-1.791,4-4-1.791-4-4-4-4,1.791-4,4Zm-12.15,0c0,2.209,1.791,4,4,4s4-1.791,4-4-1.791-4-4-4-4,1.791-4,4Zm-12.15,0c0,2.209,1.791,4,4,4s4-1.791,4-4-1.791-4-4-4-4,1.791-4,4Zm-12.15,0c0,2.209,1.791,4,4,4s4-1.791,4-4-1.791-4-4-4-4,1.791-4,4Zm-12.15,0c0,2.209,1.791,4,4,4s4-1.791,4-4-1.791-4-4-4-4,1.791-4,4Zm-12.15,0c0,2.209,1.791,4,4,4s4-1.791,4-4-1.791-4-4-4-4,1.791-4,4Zm-12.15,0c0,2.209,1.791,4,4,4s4-1.791,4-4-1.791-4-4-4-4,1.791-4,4Zm279.45-12.245c0,2.209,1.791,4,4,4s4-1.791,4-4-1.791-4-4-4-4,1.791-4,4Zm-12.15,0c0,2.209,1.791,4,4,4s4-1.791,4-4-1.791-4-4-4-4,1.791-4,4Zm-12.15,0c0,2.209,1.791,4,4,4s4-1.791,4-4-1.791-4-4-4-4,1.791-4,4Zm-12.15,0c0,2.209,1.791,4,4,4s4-1.791,4-4-1.791-4-4-4-4,1.791-4,4Zm-12.15,0c0,2.209,1.791,4,4,4s4-1.791,4-4-1.791-4-4-4-4,1.791-4,4Zm-12.15,0c0,2.209,1.791,4,4,4s4-1.791,4-4-1.791-4-4-4-4,1.791-4,4Zm-12.15,0c0,2.209,1.791,4,4,4s4-1.791,4-4-1.791-4-4-4-4,1.791-4,4Zm-12.15,0c0,2.209,1.791,4,4,4s4-1.791,4-4-1.791-4-4-4-4,1.791-4,4Zm-12.15,0c0,2.209,1.791,4,4,4s4-1.791,4-4-1.791-4-4-4-4,1.791-4,4Zm-72.9,0c0,2.209,1.791,4,4,4s4-1.791,4-4-1.791-4-4-4-4,1.791-4,4Zm-12.15,0c0,2.209,1.791,4,4,4s4-1.791,4-4-1.791-4-4-4-4,1.791-4,4Zm-12.15,0c0,2.209,1.791,4,4,4s4-1.791,4-4-1.791-4-4-4-4,1.791-4,4Zm-12.15,0c0,2.209,1.791,4,4,4s4-1.791,4-4-1.791-4-4-4-4,1.791-4,4Zm-12.15,0c0,2.209,1.791,4,4,4s4-1.791,4-4-1.791-4-4-4-4,1.791-4,4Zm-12.15,0c0,2.209,1.791,4,4,4s4-1.791,4-4-1.791-4-4-4-4,1.791-4,4Zm-12.15,0c0,2.209,1.791,4,4,4s4-1.791,4-4-1.791-4-4-4-4,1.791-4,4Zm-12.15,0c0,2.209,1.791,4,4,4s4-1.791,4-4-1.791-4-4-4-4,1.791-4,4Zm-12.15,0c0,2.209,1.791,4,4,4s4-1.791,4-4-1.791-4-4-4-4,1.791-4,4Zm-12.15,0c0,2.209,1.791,4,4,4s4-1.791,4-4-1.791-4-4-4-4,1.791-4,4Zm291.6-12.245c0,2.209,1.791,4,4,4s4-1.791,4-4-1.791-4-4-4-4,1.791-4,4Zm-12.15,0c0,2.209,1.791,4,4,4s4-1.791,4-4-1.791-4-4-4-4,1.791-4,4Zm-12.15,0c0,2.209,1.791,4,4,4s4-1.791,4-4-1.791-4-4-4-4,1.791-4,4Zm-12.15,0c0,2.209,1.791,4,4,4s4-1.791,4-4-1.791-4-4-4-4,1.791-4,4Zm-12.15,0c0,2.209,1.791,4,4,4s4-1.791,4-4-1.791-4-4-4-4,1.791-4,4Zm-12.15,0c0,2.209,1.791,4,4,4s4-1.791,4-4-1.791-4-4-4-4,1.791-4,4Zm-12.15,0c0,2.209,1.791,4,4,4s4-1.791,4-4-1.791-4-4-4-4,1.791-4,4Zm-12.15,0c0,2.209,1.791,4,4,4s4-1.791,4-4-1.791-4-4-4-4,1.791-4,4Zm-12.15,0c0,2.209,1.791,4,4,4s4-1.791,4-4-1.791-4-4-4-4,1.791-4,4Zm-12.15,0c0,2.209,1.791,4,4,4s4-1.791,4-4-1.791-4-4-4-4,1.791-4,4Zm-85.05,0c0,2.209,1.791,4,4,4s4-1.791,4-4-1.791-4-4-4-4,1.791-4,4Zm-12.15,0c0,2.209,1.791,4,4,4s4-1.791,4-4-1.791-4-4-4-4,1.791-4,4Zm-12.15,0c0,2.209,1.791,4,4,4s4-1.791,4-4-1.791-4-4-4-4,1.791-4,4Zm-12.15,0c0,2.209,1.791,4,4,4s4-1.791,4-4-1.791-4-4-4-4,1.791-4,4Zm-12.15,0c0,2.209,1.791,4,4,4s4-1.791,4-4-1.791-4-4-4-4,1.791-4,4Zm-12.15,0c0,2.209,1.791,4,4,4s4-1.791,4-4-1.791-4-4-4-4,1.791-4,4Zm-12.15,0c0,2.209,1.791,4,4,4s4-1.791,4-4-1.791-4-4-4-4,1.791-4,4Zm-12.15,0c0,2.209,1.791,4,4,4s4-1.791,4-4-1.791-4-4-4-4,1.791-4,4Zm-12.15,0c0,2.209,1.791,4,4,4s4-1.791,4-4-1.791-4-4-4-4,1.791-4,4Zm-12.15,0c0,2.209,1.791,4,4,4s4-1.791,4-4-1.791-4-4-4-4,1.791-4,4Zm303.75-12.245c0,2.209,1.791,4,4,4s4-1.791,4-4-1.791-4-4-4-4,1.791-4,4Zm-12.15,0c0,2.209,1.791,4,4,4s4-1.791,4-4-1.791-4-4-4-4,1.791-4,4Zm-12.15,0c0,2.209,1.791,4,4,4s4-1.791,4-4-1.791-4-4-4-4,1.791-4,4Zm-12.15,0c0,2.209,1.791,4,4,4s4-1.791,4-4-1.791-4-4-4-4,1.791-4,4Zm-12.15,0c0,2.209,1.791,4,4,4s4-1.791,4-4-1.791-4-4-4-4,1.791-4,4Zm-12.15,0c0,2.209,1.791,4,4,4s4-1.791,4-4-1.791-4-4-4-4,1.791-4,4Zm-12.15,0c0,2.209,1.791,4,4,4s4-1.791,4-4-1.791-4-4-4-4,1.791-4,4Zm-12.15,0c0,2.209,1.791,4,4,4s4-1.791,4-4-1.791-4-4-4-4,1.791-4,4Zm-12.15,0c0,2.209,1.791,4,4,4s4-1.791,4-4-1.791-4-4-4-4,1.791-4,4Zm-97.2,0c0,2.209,1.791,4,4,4s4-1.791,4-4-1.791-4-4-4-4,1.791-4,4Zm-12.15,0c0,2.209,1.791,4,4,4s4-1.791,4-4-1.791-4-4-4-4,1.791-4,4Zm-12.15,0c0,2.209,1.791,4,4,4s4-1.791,4-4-1.791-4-4-4-4,1.791-4,4Zm-12.15,0c0,2.209,1.791,4,4,4s4-1.791,4-4-1.791-4-4-4-4,1.791-4,4Zm-12.15,0c0,2.209,1.791,4,4,4s4-1.791,4-4-1.791-4-4-4-4,1.791-4,4Zm-12.15,0c0,2.209,1.791,4,4,4s4-1.791,4-4-1.791-4-4-4-4,1.791-4,4Zm-12.15,0c0,2.209,1.791,4,4,4s4-1.791,4-4-1.791-4-4-4-4,1.791-4,4Zm-12.15,0c0,2.209,1.791,4,4,4s4-1.791,4-4-1.791-4-4-4-4,1.791-4,4Zm-12.15,0c0,2.209,1.791,4,4,4s4-1.791,4-4-1.791-4-4-4-4,1.791-4,4Zm-12.15,0c0,2.209,1.791,4,4,4s4-1.791,4-4-1.791-4-4-4-4,1.791-4,4Zm315.9-12.245c0,2.209,1.791,4,4,4s4-1.791,4-4-1.791-4-4-4-4,1.791-4,4Zm-12.15,0c0,2.209,1.791,4,4,4s4-1.791,4-4-1.791-4-4-4-4,1.791-4,4Zm-12.15,0c0,2.209,1.791,4,4,4s4-1.791,4-4-1.791-4-4-4-4,1.791-4,4Zm-12.15,0c0,2.209,1.791,4,4,4s4-1.791,4-4-1.791-4-4-4-4,1.791-4,4Zm-12.15,0c0,2.209,1.791,4,4,4s4-1.791,4-4-1.791-4-4-4-4,1.791-4,4Zm-12.15,0c0,2.209,1.791,4,4,4s4-1.791,4-4-1.791-4-4-4-4,1.791-4,4Zm-12.15,0c0,2.209,1.791,4,4,4s4-1.791,4-4-1.791-4-4-4-4,1.791-4,4Zm-12.15,0c0,2.209,1.791,4,4,4s4-1.791,4-4-1.791-4-4-4-4,1.791-4,4Zm-12.15,0c0,2.209,1.791,4,4,4s4-1.791,4-4-1.791-4-4-4-4,1.791-4,4Zm-12.15,0c0,2.209,1.791,4,4,4s4-1.791,4-4-1.791-4-4-4-4,1.791-4,4Zm-109.35,0c0,2.209,1.791,4,4,4s4-1.791,4-4-1.791-4-4-4-4,1.791-4,4Zm-12.15,0c0,2.209,1.791,4,4,4s4-1.791,4-4-1.791-4-4-4-4,1.791-4,4Zm-12.15,0c0,2.209,1.791,4,4,4s4-1.791,4-4-1.791-4-4-4-4,1.791-4,4Zm-12.15,0c0,2.209,1.791,4,4,4s4-1.791,4-4-1.791-4-4-4-4,1.791-4,4Zm-12.15,0c0,2.209,1.791,4,4,4s4-1.791,4-4-1.791-4-4-4-4,1.791-4,4Zm-12.15,0c0,2.209,1.791,4,4,4s4-1.791,4-4-1.791-4-4-4-4,1.791-4,4Zm-12.15,0c0,2.209,1.791,4,4,4s4-1.791,4-4-1.791-4-4-4-4,1.791-4,4Zm-12.15,0c0,2.209,1.791,4,4,4s4-1.791,4-4-1.791-4-4-4-4,1.791-4,4Zm-12.15,0c0,2.209,1.791,4,4,4s4-1.791,4-4-1.791-4-4-4-4,1.791-4,4Zm-12.15,0c0,2.209,1.791,4,4,4s4-1.791,4-4-1.791-4-4-4-4,1.791-4,4Zm328.05-12.245c0,2.209,1.791,4,4,4s4-1.791,4-4-1.791-4-4-4-4,1.791-4,4Zm-12.15,0c0,2.209,1.791,4,4,4s4-1.791,4-4-1.791-4-4-4-4,1.791-4,4Zm-12.15,0c0,2.209,1.791,4,4,4s4-1.791,4-4-1.791-4-4-4-4,1.791-4,4Zm-12.15,0c0,2.209,1.791,4,4,4s4-1.791,4-4-1.791-4-4-4-4,1.791-4,4Zm-12.15,0c0,2.209,1.791,4,4,4s4-1.791,4-4-1.791-4-4-4-4,1.791-4,4Zm-12.15,0c0,2.209,1.791,4,4,4s4-1.791,4-4-1.791-4-4-4-4,1.791-4,4Zm-12.15,0c0,2.209,1.791,4,4,4s4-1.791,4-4-1.791-4-4-4-4,1.791-4,4Zm-12.15,0c0,2.209,1.791,4,4,4s4-1.791,4-4-1.791-4-4-4-4,1.791-4,4Zm-12.15,0c0,2.209,1.791,4,4,4s4-1.791,4-4-1.791-4-4-4-4,1.791-4,4Zm-121.5,0c0,2.209,1.791,4,4,4s4-1.791,4-4-1.791-4-4-4-4,1.791-4,4Zm-12.15,0c0,2.209,1.791,4,4,4s4-1.791,4-4-1.791-4-4-4-4,1.791-4,4Zm-12.15,0c0,2.209,1.791,4,4,4s4-1.791,4-4-1.791-4-4-4-4,1.791-4,4Zm-12.15,0c0,2.209,1.791,4,4,4s4-1.791,4-4-1.791-4-4-4-4,1.791-4,4Zm-12.15,0c0,2.209,1.791,4,4,4s4-1.791,4-4-1.791-4-4-4-4,1.791-4,4Zm-12.15,0c0,2.209,1.791,4,4,4s4-1.791,4-4-1.791-4-4-4-4,1.791-4,4Zm-12.15,0c0,2.209,1.791,4,4,4s4-1.791,4-4-1.791-4-4-4-4,1.791-4,4Zm-12.15,0c0,2.209,1.791,4,4,4s4-1.791,4-4-1.791-4-4-4-4,1.791-4,4Zm-12.15,0c0,2.209,1.791,4,4,4s4-1.791,4-4-1.791-4-4-4-4,1.791-4,4Zm-12.15,0c0,2.209,1.791,4,4,4s4-1.791,4-4-1.791-4-4-4-4,1.791-4,4Zm340.2-12.245c0,2.209,1.791,4,4,4s4-1.791,4-4-1.791-4-4-4-4,1.791-4,4Zm-12.15,0c0,2.209,1.791,4,4,4s4-1.791,4-4-1.791-4-4-4-4,1.791-4,4Zm-12.15,0c0,2.209,1.791,4,4,4s4-1.791,4-4-1.791-4-4-4-4,1.791-4,4Zm-12.15,0c0,2.209,1.791,4,4,4s4-1.791,4-4-1.791-4-4-4-4,1.791-4,4Zm-12.15,0c0,2.209,1.791,4,4,4s4-1.791,4-4-1.791-4-4-4-4,1.791-4,4Zm-12.15,0c0,2.209,1.791,4,4,4s4-1.791,4-4-1.791-4-4-4-4,1.791-4,4Zm-12.15,0c0,2.209,1.791,4,4,4s4-1.791,4-4-1.791-4-4-4-4,1.791-4,4Zm-12.15,0c0,2.209,1.791,4,4,4s4-1.791,4-4-1.791-4-4-4-4,1.791-4,4Zm-12.15,0c0,2.209,1.791,4,4,4s4-1.791,4-4-1.791-4-4-4-4,1.791-4,4Zm-12.15,0c0,2.209,1.791,4,4,4s4-1.791,4-4-1.791-4-4-4-4,1.791-4,4Zm-121.5,0c0,2.209,1.791,4,4,4s4-1.791,4-4-1.791-4-4-4-4,1.791-4,4Zm-12.15,0c0,2.209,1.791,4,4,4s4-1.791,4-4-1.791-4-4-4-4,1.791-4,4Zm-12.15,0c0,2.209,1.791,4,4,4s4-1.791,4-4-1.791-4-4-4-4,1.791-4,4Zm-12.15,0c0,2.209,1.791,4,4,4s4-1.791,4-4-1.791-4-4-4-4,1.791-4,4Zm-12.15,0c0,2.209,1.791,4,4,4s4-1.791,4-4-1.791-4-4-4-4,1.791-4,4Zm-12.15,0c0,2.209,1.791,4,4,4s4-1.791,4-4-1.791-4-4-4-4,1.791-4,4Zm-12.15,0c0,2.209,1.791,4,4,4s4-1.791,4-4-1.791-4-4-4-4,1.791-4,4Zm-12.15,0c0,2.209,1.791,4,4,4s4-1.791,4-4-1.791-4-4-4-4,1.791-4,4Zm-12.15,0c0,2.209,1.791,4,4,4s4-1.791,4-4-1.791-4-4-4-4,1.791-4,4Zm-12.15,0c0,2.209,1.791,4,4,4s4-1.791,4-4-1.791-4-4-4-4,1.791-4,4Zm-12.15,0c0,2.209,1.791,4,4,4s4-1.791,4-4-1.791-4-4-4-4,1.791-4,4Zm364.5-12.245c0,2.209,1.791,4,4,4s4-1.791,4-4-1.791-4-4-4-4,1.791-4,4Zm-12.15,0c0,2.209,1.791,4,4,4s4-1.791,4-4-1.791-4-4-4-4,1.791-4,4Zm-12.15,0c0,2.209,1.791,4,4,4s4-1.791,4-4-1.791-4-4-4-4,1.791-4,4Zm-12.15,0c0,2.209,1.791,4,4,4s4-1.791,4-4-1.791-4-4-4-4,1.791-4,4Zm-12.15,0c0,2.209,1.791,4,4,4s4-1.791,4-4-1.791-4-4-4-4,1.791-4,4Zm-12.15,0c0,2.209,1.791,4,4,4s4-1.791,4-4-1.791-4-4-4-4,1.791-4,4Zm-12.15,0c0,2.209,1.791,4,4,4s4-1.791,4-4-1.791-4-4-4-4,1.791-4,4Zm-12.15,0c0,2.209,1.791,4,4,4s4-1.791,4-4-1.791-4-4-4-4,1.791-4,4Zm-12.15,0c0,2.209,1.791,4,4,4s4-1.791,4-4-1.791-4-4-4-4,1.791-4,4Zm-12.15,0c0,2.209,1.791,4,4,4s4-1.791,4-4-1.791-4-4-4-4,1.791-4,4Zm-145.8,0c0,2.209,1.791,4,4,4s4-1.791,4-4-1.791-4-4-4-4,1.791-4,4Zm-12.15,0c0,2.209,1.791,4,4,4s4-1.791,4-4-1.791-4-4-4-4,1.791-4,4Zm-12.15,0c0,2.209,1.791,4,4,4s4-1.791,4-4-1.791-4-4-4-4,1.791-4,4Zm-12.15,0c0,2.209,1.791,4,4,4s4-1.791,4-4-1.791-4-4-4-4,1.791-4,4Zm-12.15,0c0,2.209,1.791,4,4,4s4-1.791,4-4-1.791-4-4-4-4,1.791-4,4Zm-12.15,0c0,2.209,1.791,4,4,4s4-1.791,4-4-1.791-4-4-4-4,1.791-4,4Zm-12.15,0c0,2.209,1.791,4,4,4s4-1.791,4-4-1.791-4-4-4-4,1.791-4,4Zm-12.15,0c0,2.209,1.791,4,4,4s4-1.791,4-4-1.791-4-4-4-4,1.791-4,4Zm-12.15,0c0,2.209,1.791,4,4,4s4-1.791,4-4-1.791-4-4-4-4,1.791-4,4Zm-12.15,0c0,2.209,1.791,4,4,4s4-1.791,4-4-1.791-4-4-4-4,1.791-4,4Zm-12.15,0c0,2.209,1.791,4,4,4s4-1.791,4-4-1.791-4-4-4-4,1.791-4,4Zm376.65-12.245c0,2.209,1.791,4,4,4s4-1.791,4-4-1.791-4-4-4-4,1.791-4,4Zm-12.15,0c0,2.209,1.791,4,4,4s4-1.791,4-4-1.791-4-4-4-4,1.791-4,4Zm-12.15,0c0,2.209,1.791,4,4,4s4-1.791,4-4-1.791-4-4-4-4,1.791-4,4Zm-12.15,0c0,2.209,1.791,4,4,4s4-1.791,4-4-1.791-4-4-4-4,1.791-4,4Zm-12.15,0c0,2.209,1.791,4,4,4s4-1.791,4-4-1.791-4-4-4-4,1.791-4,4Zm-12.15,0c0,2.209,1.791,4,4,4s4-1.791,4-4-1.791-4-4-4-4,1.791-4,4Zm-12.15,0c0,2.209,1.791,4,4,4s4-1.791,4-4-1.791-4-4-4-4,1.791-4,4Zm-12.15,0c0,2.209,1.791,4,4,4s4-1.791,4-4-1.791-4-4-4-4,1.791-4,4Zm-12.15,0c0,2.209,1.791,4,4,4s4-1.791,4-4-1.791-4-4-4-4,1.791-4,4Zm-12.15,0c0,2.209,1.791,4,4,4s4-1.791,4-4-1.791-4-4-4-4,1.791-4,4Zm-145.8,0c0,2.209,1.791,4,4,4s4-1.791,4-4-1.791-4-4-4-4,1.791-4,4Zm-12.15,0c0,2.209,1.791,4,4,4s4-1.791,4-4-1.791-4-4-4-4,1.791-4,4Zm-12.15,0c0,2.209,1.791,4,4,4s4-1.791,4-4-1.791-4-4-4-4,1.791-4,4Zm-12.15,0c0,2.209,1.791,4,4,4s4-1.791,4-4-1.791-4-4-4-4,1.791-4,4Zm-12.15,0c0,2.209,1.791,4,4,4s4-1.791,4-4-1.791-4-4-4-4,1.791-4,4Zm-12.15,0c0,2.209,1.791,4,4,4s4-1.791,4-4-1.791-4-4-4-4,1.791-4,4Zm-12.15,0c0,2.209,1.791,4,4,4s4-1.791,4-4-1.791-4-4-4-4,1.791-4,4Zm-12.15,0c0,2.209,1.791,4,4,4s4-1.791,4-4-1.791-4-4-4-4,1.791-4,4Zm-12.15,0c0,2.209,1.791,4,4,4s4-1.791,4-4-1.791-4-4-4-4,1.791-4,4Zm-12.15,0c0,2.209,1.791,4,4,4s4-1.791,4-4-1.791-4-4-4-4,1.791-4,4Zm-12.15,0c0,2.209,1.791,4,4,4s4-1.791,4-4-1.791-4-4-4-4,1.791-4,4Zm388.8-12.245c0,2.209,1.791,4,4,4s4-1.791,4-4-1.791-4-4-4-4,1.791-4,4Zm-12.15,0c0,2.209,1.791,4,4,4s4-1.791,4-4-1.791-4-4-4-4,1.791-4,4Zm-12.15,0c0,2.209,1.791,4,4,4s4-1.791,4-4-1.791-4-4-4-4,1.791-4,4Zm-12.15,0c0,2.209,1.791,4,4,4s4-1.791,4-4-1.791-4-4-4-4,1.791-4,4Zm-12.15,0c0,2.209,1.791,4,4,4s4-1.791,4-4-1.791-4-4-4-4,1.791-4,4Zm-12.15,0c0,2.209,1.791,4,4,4s4-1.791,4-4-1.791-4-4-4-4,1.791-4,4Zm-12.15,0c0,2.209,1.791,4,4,4s4-1.791,4-4-1.791-4-4-4-4,1.791-4,4Zm-12.15,0c0,2.209,1.791,4,4,4s4-1.791,4-4-1.791-4-4-4-4,1.791-4,4Zm-12.15,0c0,2.209,1.791,4,4,4s4-1.791,4-4-1.791-4-4-4-4,1.791-4,4Zm-12.15,0c0,2.209,1.791,4,4,4s4-1.791,4-4-1.791-4-4-4-4,1.791-4,4Zm-170.1,0c0,2.209,1.791,4,4,4s4-1.791,4-4-1.791-4-4-4-4,1.791-4,4Zm-12.15,0c0,2.209,1.791,4,4,4s4-1.791,4-4-1.791-4-4-4-4,1.791-4,4Zm-12.15,0c0,2.209,1.791,4,4,4s4-1.791,4-4-1.791-4-4-4-4,1.791-4,4Zm-12.15,0c0,2.209,1.791,4,4,4s4-1.791,4-4-1.791-4-4-4-4,1.791-4,4Zm-12.15,0c0,2.209,1.791,4,4,4s4-1.791,4-4-1.791-4-4-4-4,1.791-4,4Zm-12.15,0c0,2.209,1.791,4,4,4s4-1.791,4-4-1.791-4-4-4-4,1.791-4,4Zm-12.15,0c0,2.209,1.791,4,4,4s4-1.791,4-4-1.791-4-4-4-4,1.791-4,4Zm-12.15,0c0,2.209,1.791,4,4,4s4-1.791,4-4-1.791-4-4-4-4,1.791-4,4Zm-12.15,0c0,2.209,1.791,4,4,4s4-1.791,4-4-1.791-4-4-4-4,1.791-4,4Zm-12.15,0c0,2.209,1.791,4,4,4s4-1.791,4-4-1.791-4-4-4-4,1.791-4,4Zm-12.15,0c0,2.209,1.791,4,4,4s4-1.791,4-4-1.791-4-4-4-4,1.791-4,4Zm400.95-12.245c0,2.209,1.791,4,4,4s4-1.791,4-4-1.791-4-4-4-4,1.791-4,4Zm-12.15,0c0,2.209,1.791,4,4,4s4-1.791,4-4-1.791-4-4-4-4,1.791-4,4Zm-12.15,0c0,2.209,1.791,4,4,4s4-1.791,4-4-1.791-4-4-4-4,1.791-4,4Zm-12.15,0c0,2.209,1.791,4,4,4s4-1.791,4-4-1.791-4-4-4-4,1.791-4,4Zm-12.15,0c0,2.209,1.791,4,4,4s4-1.791,4-4-1.791-4-4-4-4,1.791-4,4Zm-12.15,0c0,2.209,1.791,4,4,4s4-1.791,4-4-1.791-4-4-4-4,1.791-4,4Zm-12.15,0c0,2.209,1.791,4,4,4s4-1.791,4-4-1.791-4-4-4-4,1.791-4,4Zm-12.15,0c0,2.209,1.791,4,4,4s4-1.791,4-4-1.791-4-4-4-4,1.791-4,4Zm-12.15,0c0,2.209,1.791,4,4,4s4-1.791,4-4-1.791-4-4-4-4,1.791-4,4Zm-12.15,0c0,2.209,1.791,4,4,4s4-1.791,4-4-1.791-4-4-4-4,1.791-4,4Zm-170.1,0c0,2.209,1.791,4,4,4s4-1.791,4-4-1.791-4-4-4-4,1.791-4,4Zm-12.15,0c0,2.209,1.791,4,4,4s4-1.791,4-4-1.791-4-4-4-4,1.791-4,4Zm-12.15,0c0,2.209,1.791,4,4,4s4-1.791,4-4-1.791-4-4-4-4,1.791-4,4Zm-12.15,0c0,2.209,1.791,4,4,4s4-1.791,4-4-1.791-4-4-4-4,1.791-4,4Zm-12.15,0c0,2.209,1.791,4,4,4s4-1.791,4-4-1.791-4-4-4-4,1.791-4,4Zm-12.15,0c0,2.209,1.791,4,4,4s4-1.791,4-4-1.791-4-4-4-4,1.791-4,4Zm-12.15,0c0,2.209,1.791,4,4,4s4-1.791,4-4-1.791-4-4-4-4,1.791-4,4Zm-12.15,0c0,2.209,1.791,4,4,4s4-1.791,4-4-1.791-4-4-4-4,1.791-4,4Zm-12.15,0c0,2.209,1.791,4,4,4s4-1.791,4-4-1.791-4-4-4-4,1.791-4,4Zm-12.15,0c0,2.209,1.791,4,4,4s4-1.791,4-4-1.791-4-4-4-4,1.791-4,4Zm-12.15,0c0,2.209,1.791,4,4,4s4-1.791,4-4-1.791-4-4-4-4,1.791-4,4Zm413.1-12.245c0,2.209,1.791,4,4,4s4-1.791,4-4-1.791-4-4-4-4,1.791-4,4Zm-12.15,0c0,2.209,1.791,4,4,4s4-1.791,4-4-1.791-4-4-4-4,1.791-4,4Zm-12.15,0c0,2.209,1.791,4,4,4s4-1.791,4-4-1.791-4-4-4-4,1.791-4,4Zm-12.15,0c0,2.209,1.791,4,4,4s4-1.791,4-4-1.791-4-4-4-4,1.791-4,4Zm-12.15,0c0,2.209,1.791,4,4,4s4-1.791,4-4-1.791-4-4-4-4,1.791-4,4Zm-12.15,0c0,2.209,1.791,4,4,4s4-1.791,4-4-1.791-4-4-4-4,1.791-4,4Zm-12.15,0c0,2.209,1.791,4,4,4s4-1.791,4-4-1.791-4-4-4-4,1.791-4,4Zm-12.15,0c0,2.209,1.791,4,4,4s4-1.791,4-4-1.791-4-4-4-4,1.791-4,4Zm-12.15,0c0,2.209,1.791,4,4,4s4-1.791,4-4-1.791-4-4-4-4,1.791-4,4Zm-12.15,0c0,2.209,1.791,4,4,4s4-1.791,4-4-1.791-4-4-4-4,1.791-4,4Zm-194.4,0c0,2.209,1.791,4,4,4s4-1.791,4-4-1.791-4-4-4-4,1.791-4,4Zm-12.15,0c0,2.209,1.791,4,4,4s4-1.791,4-4-1.791-4-4-4-4,1.791-4,4Zm-12.15,0c0,2.209,1.791,4,4,4s4-1.791,4-4-1.791-4-4-4-4,1.791-4,4Zm-12.15,0c0,2.209,1.791,4,4,4s4-1.791,4-4-1.791-4-4-4-4,1.791-4,4Zm-12.15,0c0,2.209,1.791,4,4,4s4-1.791,4-4-1.791-4-4-4-4,1.791-4,4Zm-12.15,0c0,2.209,1.791,4,4,4s4-1.791,4-4-1.791-4-4-4-4,1.791-4,4Zm-12.15,0c0,2.209,1.791,4,4,4s4-1.791,4-4-1.791-4-4-4-4,1.791-4,4Zm-12.15,0c0,2.209,1.791,4,4,4s4-1.791,4-4-1.791-4-4-4-4,1.791-4,4Zm-12.15,0c0,2.209,1.791,4,4,4s4-1.791,4-4-1.791-4-4-4-4,1.791-4,4Zm-12.15,0c0,2.209,1.791,4,4,4s4-1.791,4-4-1.791-4-4-4-4,1.791-4,4Zm-12.15,0c0,2.209,1.791,4,4,4s4-1.791,4-4-1.791-4-4-4-4,1.791-4,4Zm437.4-12.245c0,2.209,1.791,4,4,4s4-1.791,4-4-1.791-4-4-4-4,1.791-4,4Zm-12.15,0c0,2.209,1.791,4,4,4s4-1.791,4-4-1.791-4-4-4-4,1.791-4,4Zm-12.15,0c0,2.209,1.791,4,4,4s4-1.791,4-4-1.791-4-4-4-4,1.791-4,4Zm-12.15,0c0,2.209,1.791,4,4,4s4-1.791,4-4-1.791-4-4-4-4,1.791-4,4Zm-12.15,0c0,2.209,1.791,4,4,4s4-1.791,4-4-1.791-4-4-4-4,1.791-4,4Zm-12.15,0c0,2.209,1.791,4,4,4s4-1.791,4-4-1.791-4-4-4-4,1.791-4,4Zm-12.15,0c0,2.209,1.791,4,4,4s4-1.791,4-4-1.791-4-4-4-4,1.791-4,4Zm-12.15,0c0,2.209,1.791,4,4,4s4-1.791,4-4-1.791-4-4-4-4,1.791-4,4Zm-12.15,0c0,2.209,1.791,4,4,4s4-1.791,4-4-1.791-4-4-4-4,1.791-4,4Zm-12.15,0c0,2.209,1.791,4,4,4s4-1.791,4-4-1.791-4-4-4-4,1.791-4,4Zm-12.15,0c0,2.209,1.791,4,4,4s4-1.791,4-4-1.791-4-4-4-4,1.791-4,4Zm-194.4,0c0,2.209,1.791,4,4,4s4-1.791,4-4-1.791-4-4-4-4,1.791-4,4Zm-12.15,0c0,2.209,1.791,4,4,4s4-1.791,4-4-1.791-4-4-4-4,1.791-4,4Zm-12.15,0c0,2.209,1.791,4,4,4s4-1.791,4-4-1.791-4-4-4-4,1.791-4,4Zm-12.15,0c0,2.209,1.791,4,4,4s4-1.791,4-4-1.791-4-4-4-4,1.791-4,4Zm-12.15,0c0,2.209,1.791,4,4,4s4-1.791,4-4-1.791-4-4-4-4,1.791-4,4Zm-12.15,0c0,2.209,1.791,4,4,4s4-1.791,4-4-1.791-4-4-4-4,1.791-4,4Zm-12.15,0c0,2.209,1.791,4,4,4s4-1.791,4-4-1.791-4-4-4-4,1.791-4,4Zm-12.15,0c0,2.209,1.791,4,4,4s4-1.791,4-4-1.791-4-4-4-4,1.791-4,4Zm-12.15,0c0,2.209,1.791,4,4,4s4-1.791,4-4-1.791-4-4-4-4,1.791-4,4Zm-12.15,0c0,2.209,1.791,4,4,4s4-1.791,4-4-1.791-4-4-4-4,1.791-4,4Zm-12.15,0c0,2.209,1.791,4,4,4s4-1.791,4-4-1.791-4-4-4-4,1.791-4,4ZM461.7,4c0,2.209,1.791,4,4,4s4-1.791,4-4-1.791-4-4-4-4,1.791-4,4Zm-12.15,0c0,2.209,1.791,4,4,4s4-1.791,4-4-1.791-4-4-4-4,1.791-4,4Zm-12.15,0c0,2.209,1.791,4,4,4s4-1.791,4-4-1.791-4-4-4-4,1.791-4,4Zm-12.15,0c0,2.209,1.791,4,4,4s4-1.791,4-4-1.791-4-4-4-4,1.791-4,4Zm-12.15,0c0,2.209,1.791,4,4,4s4-1.791,4-4-1.791-4-4-4-4,1.791-4,4Zm-12.15,0c0,2.209,1.791,4,4,4s4-1.791,4-4-1.791-4-4-4-4,1.791-4,4Zm-12.15,0c0,2.209,1.791,4,4,4s4-1.791,4-4-1.791-4-4-4-4,1.791-4,4Zm-12.15,0c0,2.209,1.791,4,4,4s4-1.791,4-4-1.791-4-4-4-4,1.791-4,4Zm-12.15,0c0,2.209,1.791,4,4,4s4-1.791,4-4-1.791-4-4-4-4,1.791-4,4Zm-12.15,0c0,2.209,1.791,4,4,4s4-1.791,4-4-1.791-4-4-4-4,1.791-4,4Zm-218.7,0c0,2.209,1.791,4,4,4s4-1.791,4-4-1.791-4-4-4-4,1.791-4,4Zm-12.15,0c0,2.209,1.791,4,4,4s4-1.791,4-4-1.791-4-4-4-4,1.791-4,4Zm-12.15,0c0,2.209,1.791,4,4,4s4-1.791,4-4-1.791-4-4-4-4,1.791-4,4Zm-12.15,0c0,2.209,1.791,4,4,4s4-1.791,4-4-1.791-4-4-4-4,1.791-4,4Zm-12.15,0c0,2.209,1.791,4,4,4s4-1.791,4-4-1.791-4-4-4-4,1.791-4,4Zm-12.15,0c0,2.209,1.791,4,4,4s4-1.791,4-4-1.791-4-4-4-4,1.791-4,4Zm-12.15,0c0,2.209,1.791,4,4,4s4-1.791,4-4-1.791-4-4-4-4,1.791-4,4Zm-12.15,0c0,2.209,1.791,4,4,4s4-1.791,4-4-1.791-4-4-4-4,1.791-4,4Zm-12.15,0c0,2.209,1.791,4,4,4s4-1.791,4-4-1.791-4-4-4-4,1.791-4,4Zm-12.15,0c0,2.209,1.791,4,4,4s4-1.791,4-4S30.509,0,28.3,0s-4,1.791-4,4Zm-12.15,0c0,2.209,1.791,4,4,4s4-1.791,4-4S18.359,0,16.15,0s-4,1.791-4,4Z"/><circle class="cls-8" cx="332.05" cy="261.143" r="4"/><circle class="cls-2" cx="344.2" cy="236.653" r="4"/><circle class="cls-5" cx="125.5" cy="212.163" r="4"/><circle class="cls-7" cx="392.8" cy="150.939" r="4"/><circle class="cls-3" cx="404.95" cy="126.449" r="4"/><circle class="cls-4" cx="198.4" cy="114.204" r="4"/><circle class="cls-1" cx="417.1" cy="101.959" r="4"/><circle class="cls-6" cx="64.75" cy="101.959" r="4"/></g></svg>