<?xml version="1.0" encoding="UTF-8"?><svg id="_레이어_2" xmlns="http://www.w3.org/2000/svg" width="457.475" height="596.462" xmlns:xlink="http://www.w3.org/1999/xlink" viewBox="0 0 457.475 596.462"><defs><style>.cls-1{opacity:.08;}.cls-2{fill:url(#_무제_그라디언트_27);opacity:.2;}.cls-3{fill:#14bdff;}</style><linearGradient id="_무제_그라디언트_27" x1="228.737" y1="596.462" x2="228.737" y2="0" gradientUnits="userSpaceOnUse"><stop offset="0" stop-color="#14bdff" stop-opacity="0"/><stop offset="1" stop-color="#14bdff"/></linearGradient></defs><g id="_레이어_1-2"><path class="cls-2" d="M246.025,588.462c2.209,0,4,1.791,4,4s-1.791,4-4,4-4-1.791-4-4,1.791-4,4-4Zm-15.525,4c0,2.209,1.791,4,4,4s4-1.791,4-4-1.791-4-4-4-4,1.791-4,4Zm-11.525,0c0,2.209,1.791,4,4,4s4-1.791,4-4-1.791-4-4-4-4,1.791-4,4Zm-11.525,0c0,2.209,1.791,4,4,4s4-1.791,4-4-1.791-4-4-4-4,1.791-4,4Zm-11.525,0c0,2.209,1.791,4,4,4s4-1.791,4-4-1.791-4-4-4-4,1.791-4,4Zm-11.525,0c0,2.209,1.791,4,4,4s4-1.791,4-4-1.791-4-4-4-4,1.791-4,4Zm-11.525,0c0,2.209,1.791,4,4,4s4-1.791,4-4-1.791-4-4-4-4,1.791-4,4Zm-11.525,0c0,2.209,1.791,4,4,4s4-1.791,4-4-1.791-4-4-4-4,1.791-4,4Zm-11.525,0c0,2.209,1.791,4,4,4s4-1.791,4-4-1.791-4-4-4-4,1.791-4,4Zm-11.525,0c0,2.209,1.791,4,4,4s4-1.791,4-4-1.791-4-4-4-4,1.791-4,4Zm-11.525,0c0,2.209,1.791,4,4,4s4-1.791,4-4-1.791-4-4-4-4,1.791-4,4Zm-11.525,0c0,2.209,1.791,4,4,4s4-1.791,4-4-1.791-4-4-4-4,1.791-4,4Zm-11.525,0c0,2.209,1.791,4,4,4s4-1.791,4-4-1.791-4-4-4-4,1.791-4,4Zm-11.525,0c0,2.209,1.791,4,4,4s4-1.791,4-4-1.791-4-4-4-4,1.791-4,4Zm-11.525,0c0,2.209,1.791,4,4,4s4-1.791,4-4-1.791-4-4-4-4,1.791-4,4Zm-11.525,0c0,2.209,1.791,4,4,4s4-1.791,4-4-1.791-4-4-4-4,1.791-4,4Zm-11.525,0c0,2.209,1.791,4,4,4s4-1.791,4-4-1.791-4-4-4-4,1.791-4,4Zm-11.525,0c0,2.209,1.791,4,4,4s4-1.791,4-4-1.791-4-4-4-4,1.791-4,4Zm-11.525,0c0,2.209,1.791,4,4,4s4-1.791,4-4-1.791-4-4-4-4,1.791-4,4Zm-11.525,0c0,2.209,1.791,4,4,4s4-1.791,4-4-1.791-4-4-4-4,1.791-4,4Zm-11.525,0c0,2.209,1.791,4,4,4s4-1.791,4-4-1.791-4-4-4-4,1.791-4,4Zm-11.525,0c0,2.209,1.791,4,4,4s4-1.791,4-4-1.791-4-4-4-4,1.791-4,4Zm276.6-11.538c0,2.209,1.791,4,4,4s4-1.791,4-4-1.791-4-4-4-4,1.791-4,4Zm-11.525,0c0,2.209,1.791,4,4,4s4-1.791,4-4-1.791-4-4-4-4,1.791-4,4Zm-11.525,0c0,2.209,1.791,4,4,4s4-1.791,4-4-1.791-4-4-4-4,1.791-4,4Zm-11.525,0c0,2.209,1.791,4,4,4s4-1.791,4-4-1.791-4-4-4-4,1.791-4,4Zm-11.525,0c0,2.209,1.791,4,4,4s4-1.791,4-4-1.791-4-4-4-4,1.791-4,4Zm-11.525,0c0,2.209,1.791,4,4,4s4-1.791,4-4-1.791-4-4-4-4,1.791-4,4Zm-11.525,0c0,2.209,1.791,4,4,4s4-1.791,4-4-1.791-4-4-4-4,1.791-4,4Zm-11.525,0c0,2.209,1.791,4,4,4s4-1.791,4-4-1.791-4-4-4-4,1.791-4,4Zm-11.525,0c0,2.209,1.791,4,4,4s4-1.791,4-4-1.791-4-4-4-4,1.791-4,4Zm-11.525,0c0,2.209,1.791,4,4,4s4-1.791,4-4-1.791-4-4-4-4,1.791-4,4Zm-11.525,0c0,2.209,1.791,4,4,4s4-1.791,4-4-1.791-4-4-4-4,1.791-4,4Zm-11.525,0c0,2.209,1.791,4,4,4s4-1.791,4-4-1.791-4-4-4-4,1.791-4,4Zm-11.525,0c0,2.209,1.791,4,4,4s4-1.791,4-4-1.791-4-4-4-4,1.791-4,4Zm-11.525,0c0,2.209,1.791,4,4,4s4-1.791,4-4-1.791-4-4-4-4,1.791-4,4Zm-11.525,0c0,2.209,1.791,4,4,4s4-1.791,4-4-1.791-4-4-4-4,1.791-4,4Zm-11.525,0c0,2.209,1.791,4,4,4s4-1.791,4-4-1.791-4-4-4-4,1.791-4,4Zm-11.525,0c0,2.209,1.791,4,4,4s4-1.791,4-4-1.791-4-4-4-4,1.791-4,4Zm-11.525,0c0,2.209,1.791,4,4,4s4-1.791,4-4-1.791-4-4-4-4,1.791-4,4Zm-11.525,0c0,2.209,1.791,4,4,4s4-1.791,4-4-1.791-4-4-4-4,1.791-4,4Zm-11.525,0c0,2.209,1.791,4,4,4s4-1.791,4-4-1.791-4-4-4-4,1.791-4,4Zm-11.525,0c0,2.209,1.791,4,4,4s4-1.791,4-4-1.791-4-4-4-4,1.791-4,4Zm-11.525,0c0,2.209,1.791,4,4,4s4-1.791,4-4-1.791-4-4-4-4,1.791-4,4Zm-11.525,0c0,2.209,1.791,4,4,4s4-1.791,4-4-1.791-4-4-4-4,1.791-4,4Zm-11.525,0c0,2.209,1.791,4,4,4s4-1.791,4-4-1.791-4-4-4-4,1.791-4,4Zm-11.525,0c0,2.209,1.791,4,4,4s4-1.791,4-4-1.791-4-4-4-4,1.791-4,4Zm311.175-11.538c0,2.209,1.791,4,4,4s4-1.791,4-4-1.791-4-4-4-4,1.791-4,4Zm-11.525,0c0,2.209,1.791,4,4,4s4-1.791,4-4-1.791-4-4-4-4,1.791-4,4Zm-11.525,0c0,2.209,1.791,4,4,4s4-1.791,4-4-1.791-4-4-4-4,1.791-4,4Zm-11.525,0c0,2.209,1.791,4,4,4s4-1.791,4-4-1.791-4-4-4-4,1.791-4,4Zm-11.525,0c0,2.209,1.791,4,4,4s4-1.791,4-4-1.791-4-4-4-4,1.791-4,4Zm-11.525,0c0,2.209,1.791,4,4,4s4-1.791,4-4-1.791-4-4-4-4,1.791-4,4Zm-11.525,0c0,2.209,1.791,4,4,4s4-1.791,4-4-1.791-4-4-4-4,1.791-4,4Zm-11.525,0c0,2.209,1.791,4,4,4s4-1.791,4-4-1.791-4-4-4-4,1.791-4,4Zm-11.525,0c0,2.209,1.791,4,4,4s4-1.791,4-4-1.791-4-4-4-4,1.791-4,4Zm-11.525,0c0,2.209,1.791,4,4,4s4-1.791,4-4-1.791-4-4-4-4,1.791-4,4Zm-11.525,0c0,2.209,1.791,4,4,4s4-1.791,4-4-1.791-4-4-4-4,1.791-4,4Zm-11.525,0c0,2.209,1.791,4,4,4s4-1.791,4-4-1.791-4-4-4-4,1.791-4,4Zm-11.525,0c0,2.209,1.791,4,4,4s4-1.791,4-4-1.791-4-4-4-4,1.791-4,4Zm-11.525,0c0,2.209,1.791,4,4,4s4-1.791,4-4-1.791-4-4-4-4,1.791-4,4Zm-11.525,0c0,2.209,1.791,4,4,4s4-1.791,4-4-1.791-4-4-4-4,1.791-4,4Zm-11.525,0c0,2.209,1.791,4,4,4s4-1.791,4-4-1.791-4-4-4-4,1.791-4,4Zm-11.525,0c0,2.209,1.791,4,4,4s4-1.791,4-4-1.791-4-4-4-4,1.791-4,4Zm-11.525,0c0,2.209,1.791,4,4,4s4-1.791,4-4-1.791-4-4-4-4,1.791-4,4Zm-11.525,0c0,2.209,1.791,4,4,4s4-1.791,4-4-1.791-4-4-4-4,1.791-4,4Zm-11.525,0c0,2.209,1.791,4,4,4s4-1.791,4-4-1.791-4-4-4-4,1.791-4,4Zm-11.525,0c0,2.209,1.791,4,4,4s4-1.791,4-4-1.791-4-4-4-4,1.791-4,4Zm-11.525,0c0,2.209,1.791,4,4,4s4-1.791,4-4-1.791-4-4-4-4,1.791-4,4Zm-11.525,0c0,2.209,1.791,4,4,4s4-1.791,4-4-1.791-4-4-4-4,1.791-4,4Zm-11.525,0c0,2.209,1.791,4,4,4s4-1.791,4-4-1.791-4-4-4-4,1.791-4,4Zm-11.525,0c0,2.209,1.791,4,4,4s4-1.791,4-4-1.791-4-4-4-4,1.791-4,4Zm-11.525,0c0,2.209,1.791,4,4,4s4-1.791,4-4-1.791-4-4-4-4,1.791-4,4Zm-11.525,0c0,2.209,1.791,4,4,4s4-1.791,4-4-1.791-4-4-4-4,1.791-4,4Zm-11.525,0c0,2.209,1.791,4,4,4s4-1.791,4-4-1.791-4-4-4-4,1.791-4,4Zm334.225-11.538c0,2.209,1.791,4,4,4s4-1.791,4-4-1.791-4-4-4-4,1.791-4,4Zm-11.525,0c0,2.209,1.791,4,4,4s4-1.791,4-4-1.791-4-4-4-4,1.791-4,4Zm-11.525,0c0,2.209,1.791,4,4,4s4-1.791,4-4-1.791-4-4-4-4,1.791-4,4Zm-11.525,0c0,2.209,1.791,4,4,4s4-1.791,4-4-1.791-4-4-4-4,1.791-4,4Zm-11.525,0c0,2.209,1.791,4,4,4s4-1.791,4-4-1.791-4-4-4-4,1.791-4,4Zm-11.525,0c0,2.209,1.791,4,4,4s4-1.791,4-4-1.791-4-4-4-4,1.791-4,4Zm-11.525,0c0,2.209,1.791,4,4,4s4-1.791,4-4-1.791-4-4-4-4,1.791-4,4Zm-11.525,0c0,2.209,1.791,4,4,4s4-1.791,4-4-1.791-4-4-4-4,1.791-4,4Zm-11.525,0c0,2.209,1.791,4,4,4s4-1.791,4-4-1.791-4-4-4-4,1.791-4,4Zm-11.525,0c0,2.209,1.791,4,4,4s4-1.791,4-4-1.791-4-4-4-4,1.791-4,4Zm-11.525,0c0,2.209,1.791,4,4,4s4-1.791,4-4-1.791-4-4-4-4,1.791-4,4Zm-11.525,0c0,2.209,1.791,4,4,4s4-1.791,4-4-1.791-4-4-4-4,1.791-4,4Zm-11.525,0c0,2.209,1.791,4,4,4s4-1.791,4-4-1.791-4-4-4-4,1.791-4,4Zm-11.525,0c0,2.209,1.791,4,4,4s4-1.791,4-4-1.791-4-4-4-4,1.791-4,4Zm-11.525,0c0,2.209,1.791,4,4,4s4-1.791,4-4-1.791-4-4-4-4,1.791-4,4Zm-11.525,0c0,2.209,1.791,4,4,4s4-1.791,4-4-1.791-4-4-4-4,1.791-4,4Zm-11.525,0c0,2.209,1.791,4,4,4s4-1.791,4-4-1.791-4-4-4-4,1.791-4,4Zm-11.525,0c0,2.209,1.791,4,4,4s4-1.791,4-4-1.791-4-4-4-4,1.791-4,4Zm-11.525,0c0,2.209,1.791,4,4,4s4-1.791,4-4-1.791-4-4-4-4,1.791-4,4Zm-11.525,0c0,2.209,1.791,4,4,4s4-1.791,4-4-1.791-4-4-4-4,1.791-4,4Zm-11.525,0c0,2.209,1.791,4,4,4s4-1.791,4-4-1.791-4-4-4-4,1.791-4,4Zm-11.525,0c0,2.209,1.791,4,4,4s4-1.791,4-4-1.791-4-4-4-4,1.791-4,4Zm-11.525,0c0,2.209,1.791,4,4,4s4-1.791,4-4-1.791-4-4-4-4,1.791-4,4Zm-11.525,0c0,2.209,1.791,4,4,4s4-1.791,4-4-1.791-4-4-4-4,1.791-4,4Zm-11.525,0c0,2.209,1.791,4,4,4s4-1.791,4-4-1.791-4-4-4-4,1.791-4,4Zm-11.525,0c0,2.209,1.791,4,4,4s4-1.791,4-4-1.791-4-4-4-4,1.791-4,4Zm-11.525,0c0,2.209,1.791,4,4,4s4-1.791,4-4-1.791-4-4-4-4,1.791-4,4Zm-11.525,0c0,2.209,1.791,4,4,4s4-1.791,4-4-1.791-4-4-4-4,1.791-4,4Zm-11.525,0c0,2.209,1.791,4,4,4s4-1.791,4-4-1.791-4-4-4-4,1.791-4,4Zm-11.525,0c0,2.209,1.791,4,4,4s4-1.791,4-4-1.791-4-4-4-4,1.791-4,4Zm345.75-11.538c0,2.209,1.791,4,4,4s4-1.791,4-4-1.791-4-4-4-4,1.791-4,4Zm-11.525,0c0,2.209,1.791,4,4,4s4-1.791,4-4-1.791-4-4-4-4,1.791-4,4Zm-11.525,0c0,2.209,1.791,4,4,4s4-1.791,4-4-1.791-4-4-4-4,1.791-4,4Zm-11.525,0c0,2.209,1.791,4,4,4s4-1.791,4-4-1.791-4-4-4-4,1.791-4,4Zm-11.525,0c0,2.209,1.791,4,4,4s4-1.791,4-4-1.791-4-4-4-4,1.791-4,4Zm-11.525,0c0,2.209,1.791,4,4,4s4-1.791,4-4-1.791-4-4-4-4,1.791-4,4Zm-11.525,0c0,2.209,1.791,4,4,4s4-1.791,4-4-1.791-4-4-4-4,1.791-4,4Zm-11.525,0c0,2.209,1.791,4,4,4s4-1.791,4-4-1.791-4-4-4-4,1.791-4,4Zm-11.525,0c0,2.209,1.791,4,4,4s4-1.791,4-4-1.791-4-4-4-4,1.791-4,4Zm-11.525,0c0,2.209,1.791,4,4,4s4-1.791,4-4-1.791-4-4-4-4,1.791-4,4Zm-11.525,0c0,2.209,1.791,4,4,4s4-1.791,4-4-1.791-4-4-4-4,1.791-4,4Zm-11.525,0c0,2.209,1.791,4,4,4s4-1.791,4-4-1.791-4-4-4-4,1.791-4,4Zm-11.525,0c0,2.209,1.791,4,4,4s4-1.791,4-4-1.791-4-4-4-4,1.791-4,4Zm-11.525,0c0,2.209,1.791,4,4,4s4-1.791,4-4-1.791-4-4-4-4,1.791-4,4Zm-11.525,0c0,2.209,1.791,4,4,4s4-1.791,4-4-1.791-4-4-4-4,1.791-4,4Zm-11.525,0c0,2.209,1.791,4,4,4s4-1.791,4-4-1.791-4-4-4-4,1.791-4,4Zm-11.525,0c0,2.209,1.791,4,4,4s4-1.791,4-4-1.791-4-4-4-4,1.791-4,4Zm-11.525,0c0,2.209,1.791,4,4,4s4-1.791,4-4-1.791-4-4-4-4,1.791-4,4Zm-11.525,0c0,2.209,1.791,4,4,4s4-1.791,4-4-1.791-4-4-4-4,1.791-4,4Zm-11.525,0c0,2.209,1.791,4,4,4s4-1.791,4-4-1.791-4-4-4-4,1.791-4,4Zm-11.525,0c0,2.209,1.791,4,4,4s4-1.791,4-4-1.791-4-4-4-4,1.791-4,4Zm-11.525,0c0,2.209,1.791,4,4,4s4-1.791,4-4-1.791-4-4-4-4,1.791-4,4Zm-11.525,0c0,2.209,1.791,4,4,4s4-1.791,4-4-1.791-4-4-4-4,1.791-4,4Zm-11.525,0c0,2.209,1.791,4,4,4s4-1.791,4-4-1.791-4-4-4-4,1.791-4,4Zm-11.525,0c0,2.209,1.791,4,4,4s4-1.791,4-4-1.791-4-4-4-4,1.791-4,4Zm-11.525,0c0,2.209,1.791,4,4,4s4-1.791,4-4-1.791-4-4-4-4,1.791-4,4Zm-11.525,0c0,2.209,1.791,4,4,4s4-1.791,4-4-1.791-4-4-4-4,1.791-4,4Zm-11.525,0c0,2.209,1.791,4,4,4s4-1.791,4-4-1.791-4-4-4-4,1.791-4,4Zm-11.525,0c0,2.209,1.791,4,4,4s4-1.791,4-4-1.791-4-4-4-4,1.791-4,4Zm-11.525,0c0,2.209,1.791,4,4,4s4-1.791,4-4-1.791-4-4-4-4,1.791-4,4Zm-11.525,0c0,2.209,1.791,4,4,4s4-1.791,4-4-1.791-4-4-4-4,1.791-4,4Zm357.275-11.538c0,2.209,1.791,4,4,4s4-1.791,4-4-1.791-4-4-4-4,1.791-4,4Zm-11.525,0c0,2.209,1.791,4,4,4s4-1.791,4-4-1.791-4-4-4-4,1.791-4,4Zm-11.525,0c0,2.209,1.791,4,4,4s4-1.791,4-4-1.791-4-4-4-4,1.791-4,4Zm-11.525,0c0,2.209,1.791,4,4,4s4-1.791,4-4-1.791-4-4-4-4,1.791-4,4Zm-11.525,0c0,2.209,1.791,4,4,4s4-1.791,4-4-1.791-4-4-4-4,1.791-4,4Zm-11.525,0c0,2.209,1.791,4,4,4s4-1.791,4-4-1.791-4-4-4-4,1.791-4,4Zm-11.525,0c0,2.209,1.791,4,4,4s4-1.791,4-4-1.791-4-4-4-4,1.791-4,4Zm-11.525,0c0,2.209,1.791,4,4,4s4-1.791,4-4-1.791-4-4-4-4,1.791-4,4Zm-11.525,0c0,2.209,1.791,4,4,4s4-1.791,4-4-1.791-4-4-4-4,1.791-4,4Zm-11.525,0c0,2.209,1.791,4,4,4s4-1.791,4-4-1.791-4-4-4-4,1.791-4,4Zm-11.525,0c0,2.209,1.791,4,4,4s4-1.791,4-4-1.791-4-4-4-4,1.791-4,4Zm-11.525,0c0,2.209,1.791,4,4,4s4-1.791,4-4-1.791-4-4-4-4,1.791-4,4Zm-11.525,0c0,2.209,1.791,4,4,4s4-1.791,4-4-1.791-4-4-4-4,1.791-4,4Zm-11.525,0c0,2.209,1.791,4,4,4s4-1.791,4-4-1.791-4-4-4-4,1.791-4,4Zm-11.525,0c0,2.209,1.791,4,4,4s4-1.791,4-4-1.791-4-4-4-4,1.791-4,4Zm-11.525,0c0,2.209,1.791,4,4,4s4-1.791,4-4-1.791-4-4-4-4,1.791-4,4Zm-11.525,0c0,2.209,1.791,4,4,4s4-1.791,4-4-1.791-4-4-4-4,1.791-4,4Zm-11.525,0c0,2.209,1.791,4,4,4s4-1.791,4-4-1.791-4-4-4-4,1.791-4,4Zm-11.525,0c0,2.209,1.791,4,4,4s4-1.791,4-4-1.791-4-4-4-4,1.791-4,4Zm-11.525,0c0,2.209,1.791,4,4,4s4-1.791,4-4-1.791-4-4-4-4,1.791-4,4Zm-11.525,0c0,2.209,1.791,4,4,4s4-1.791,4-4-1.791-4-4-4-4,1.791-4,4Zm-11.525,0c0,2.209,1.791,4,4,4s4-1.791,4-4-1.791-4-4-4-4,1.791-4,4Zm-11.525,0c0,2.209,1.791,4,4,4s4-1.791,4-4-1.791-4-4-4-4,1.791-4,4Zm-11.525,0c0,2.209,1.791,4,4,4s4-1.791,4-4-1.791-4-4-4-4,1.791-4,4Zm-11.525,0c0,2.209,1.791,4,4,4s4-1.791,4-4-1.791-4-4-4-4,1.791-4,4Zm-11.525,0c0,2.209,1.791,4,4,4s4-1.791,4-4-1.791-4-4-4-4,1.791-4,4Zm-11.525,0c0,2.209,1.791,4,4,4s4-1.791,4-4-1.791-4-4-4-4,1.791-4,4Zm-11.525,0c0,2.209,1.791,4,4,4s4-1.791,4-4-1.791-4-4-4-4,1.791-4,4Zm-11.525,0c0,2.209,1.791,4,4,4s4-1.791,4-4-1.791-4-4-4-4,1.791-4,4Zm-11.525,0c0,2.209,1.791,4,4,4s4-1.791,4-4-1.791-4-4-4-4,1.791-4,4Zm-11.525,0c0,2.209,1.791,4,4,4s4-1.791,4-4-1.791-4-4-4-4,1.791-4,4Zm-11.525,0c0,2.209,1.791,4,4,4s4-1.791,4-4-1.791-4-4-4-4,1.791-4,4Zm368.8-11.538c0,2.209,1.791,4,4,4s4-1.791,4-4-1.791-4-4-4-4,1.791-4,4Zm-11.525,0c0,2.209,1.791,4,4,4s4-1.791,4-4-1.791-4-4-4-4,1.791-4,4Zm-11.525,0c0,2.209,1.791,4,4,4s4-1.791,4-4-1.791-4-4-4-4,1.791-4,4Zm-11.525,0c0,2.209,1.791,4,4,4s4-1.791,4-4-1.791-4-4-4-4,1.791-4,4Zm-11.525,0c0,2.209,1.791,4,4,4s4-1.791,4-4-1.791-4-4-4-4,1.791-4,4Zm-11.525,0c0,2.209,1.791,4,4,4s4-1.791,4-4-1.791-4-4-4-4,1.791-4,4Zm-11.525,0c0,2.209,1.791,4,4,4s4-1.791,4-4-1.791-4-4-4-4,1.791-4,4Zm-11.525,0c0,2.209,1.791,4,4,4s4-1.791,4-4-1.791-4-4-4-4,1.791-4,4Zm-11.525,0c0,2.209,1.791,4,4,4s4-1.791,4-4-1.791-4-4-4-4,1.791-4,4Zm-11.525,0c0,2.209,1.791,4,4,4s4-1.791,4-4-1.791-4-4-4-4,1.791-4,4Zm-11.525,0c0,2.209,1.791,4,4,4s4-1.791,4-4-1.791-4-4-4-4,1.791-4,4Zm-11.525,0c0,2.209,1.791,4,4,4s4-1.791,4-4-1.791-4-4-4-4,1.791-4,4Zm-11.525,0c0,2.209,1.791,4,4,4s4-1.791,4-4-1.791-4-4-4-4,1.791-4,4Zm-11.525,0c0,2.209,1.791,4,4,4s4-1.791,4-4-1.791-4-4-4-4,1.791-4,4Zm-11.525,0c0,2.209,1.791,4,4,4s4-1.791,4-4-1.791-4-4-4-4,1.791-4,4Zm-11.525,0c0,2.209,1.791,4,4,4s4-1.791,4-4-1.791-4-4-4-4,1.791-4,4Zm-11.525,0c0,2.209,1.791,4,4,4s4-1.791,4-4-1.791-4-4-4-4,1.791-4,4Zm-11.525,0c0,2.209,1.791,4,4,4s4-1.791,4-4-1.791-4-4-4-4,1.791-4,4Zm-11.525,0c0,2.209,1.791,4,4,4s4-1.791,4-4-1.791-4-4-4-4,1.791-4,4Zm-11.525,0c0,2.209,1.791,4,4,4s4-1.791,4-4-1.791-4-4-4-4,1.791-4,4Zm-11.525,0c0,2.209,1.791,4,4,4s4-1.791,4-4-1.791-4-4-4-4,1.791-4,4Zm-11.525,0c0,2.209,1.791,4,4,4s4-1.791,4-4-1.791-4-4-4-4,1.791-4,4Zm-11.525,0c0,2.209,1.791,4,4,4s4-1.791,4-4-1.791-4-4-4-4,1.791-4,4Zm-11.525,0c0,2.209,1.791,4,4,4s4-1.791,4-4-1.791-4-4-4-4,1.791-4,4Zm-11.525,0c0,2.209,1.791,4,4,4s4-1.791,4-4-1.791-4-4-4-4,1.791-4,4Zm-11.525,0c0,2.209,1.791,4,4,4s4-1.791,4-4-1.791-4-4-4-4,1.791-4,4Zm-11.525,0c0,2.209,1.791,4,4,4s4-1.791,4-4-1.791-4-4-4-4,1.791-4,4Zm-11.525,0c0,2.209,1.791,4,4,4s4-1.791,4-4-1.791-4-4-4-4,1.791-4,4Zm-11.525,0c0,2.209,1.791,4,4,4s4-1.791,4-4-1.791-4-4-4-4,1.791-4,4Zm-11.525,0c0,2.209,1.791,4,4,4s4-1.791,4-4-1.791-4-4-4-4,1.791-4,4Zm-11.525,0c0,2.209,1.791,4,4,4s4-1.791,4-4-1.791-4-4-4-4,1.791-4,4Zm-11.525,0c0,2.209,1.791,4,4,4s4-1.791,4-4-1.791-4-4-4-4,1.791-4,4Zm-11.525,0c0,2.209,1.791,4,4,4s4-1.791,4-4-1.791-4-4-4-4,1.791-4,4Zm380.325-11.538c0,2.209,1.791,4,4,4s4-1.791,4-4-1.791-4-4-4-4,1.791-4,4Zm-11.525,0c0,2.209,1.791,4,4,4s4-1.791,4-4-1.791-4-4-4-4,1.791-4,4Zm-11.525,0c0,2.209,1.791,4,4,4s4-1.791,4-4-1.791-4-4-4-4,1.791-4,4Zm-11.525,0c0,2.209,1.791,4,4,4s4-1.791,4-4-1.791-4-4-4-4,1.791-4,4Zm-11.525,0c0,2.209,1.791,4,4,4s4-1.791,4-4-1.791-4-4-4-4,1.791-4,4Zm-11.525,0c0,2.209,1.791,4,4,4s4-1.791,4-4-1.791-4-4-4-4,1.791-4,4Zm-11.525,0c0,2.209,1.791,4,4,4s4-1.791,4-4-1.791-4-4-4-4,1.791-4,4Zm-11.525,0c0,2.209,1.791,4,4,4s4-1.791,4-4-1.791-4-4-4-4,1.791-4,4Zm-11.525,0c0,2.209,1.791,4,4,4s4-1.791,4-4-1.791-4-4-4-4,1.791-4,4Zm-11.525,0c0,2.209,1.791,4,4,4s4-1.791,4-4-1.791-4-4-4-4,1.791-4,4Zm-11.525,0c0,2.209,1.791,4,4,4s4-1.791,4-4-1.791-4-4-4-4,1.791-4,4Zm-11.525,0c0,2.209,1.791,4,4,4s4-1.791,4-4-1.791-4-4-4-4,1.791-4,4Zm-11.525,0c0,2.209,1.791,4,4,4s4-1.791,4-4-1.791-4-4-4-4,1.791-4,4Zm-11.525,0c0,2.209,1.791,4,4,4s4-1.791,4-4-1.791-4-4-4-4,1.791-4,4Zm-11.525,0c0,2.209,1.791,4,4,4s4-1.791,4-4-1.791-4-4-4-4,1.791-4,4Zm-11.525,0c0,2.209,1.791,4,4,4s4-1.791,4-4-1.791-4-4-4-4,1.791-4,4Zm-11.525,0c0,2.209,1.791,4,4,4s4-1.791,4-4-1.791-4-4-4-4,1.791-4,4Zm-11.525,0c0,2.209,1.791,4,4,4s4-1.791,4-4-1.791-4-4-4-4,1.791-4,4Zm-11.525,0c0,2.209,1.791,4,4,4s4-1.791,4-4-1.791-4-4-4-4,1.791-4,4Zm-11.525,0c0,2.209,1.791,4,4,4s4-1.791,4-4-1.791-4-4-4-4,1.791-4,4Zm-11.525,0c0,2.209,1.791,4,4,4s4-1.791,4-4-1.791-4-4-4-4,1.791-4,4Zm-11.525,0c0,2.209,1.791,4,4,4s4-1.791,4-4-1.791-4-4-4-4,1.791-4,4Zm-11.525,0c0,2.209,1.791,4,4,4s4-1.791,4-4-1.791-4-4-4-4,1.791-4,4Zm-11.525,0c0,2.209,1.791,4,4,4s4-1.791,4-4-1.791-4-4-4-4,1.791-4,4Zm-11.525,0c0,2.209,1.791,4,4,4s4-1.791,4-4-1.791-4-4-4-4,1.791-4,4Zm-11.525,0c0,2.209,1.791,4,4,4s4-1.791,4-4-1.791-4-4-4-4,1.791-4,4Zm-11.525,0c0,2.209,1.791,4,4,4s4-1.791,4-4-1.791-4-4-4-4,1.791-4,4Zm-11.525,0c0,2.209,1.791,4,4,4s4-1.791,4-4-1.791-4-4-4-4,1.791-4,4Zm-11.525,0c0,2.209,1.791,4,4,4s4-1.791,4-4-1.791-4-4-4-4,1.791-4,4Zm-11.525,0c0,2.209,1.791,4,4,4s4-1.791,4-4-1.791-4-4-4-4,1.791-4,4Zm-11.525,0c0,2.209,1.791,4,4,4s4-1.791,4-4-1.791-4-4-4-4,1.791-4,4Zm-11.525,0c0,2.209,1.791,4,4,4s4-1.791,4-4-1.791-4-4-4-4,1.791-4,4Zm-11.525,0c0,2.209,1.791,4,4,4s4-1.791,4-4-1.791-4-4-4-4,1.791-4,4Zm-11.525,0c0,2.209,1.791,4,4,4s4-1.791,4-4-1.791-4-4-4-4,1.791-4,4Zm391.85-11.538c0,2.209,1.791,4,4,4s4-1.791,4-4-1.791-4-4-4-4,1.791-4,4Zm-11.525,0c0,2.209,1.791,4,4,4s4-1.791,4-4-1.791-4-4-4-4,1.791-4,4Zm-11.525,0c0,2.209,1.791,4,4,4s4-1.791,4-4-1.791-4-4-4-4,1.791-4,4Zm-11.525,0c0,2.209,1.791,4,4,4s4-1.791,4-4-1.791-4-4-4-4,1.791-4,4Zm-11.525,0c0,2.209,1.791,4,4,4s4-1.791,4-4-1.791-4-4-4-4,1.791-4,4Zm-11.525,0c0,2.209,1.791,4,4,4s4-1.791,4-4-1.791-4-4-4-4,1.791-4,4Zm-11.525,0c0,2.209,1.791,4,4,4s4-1.791,4-4-1.791-4-4-4-4,1.791-4,4Zm-11.525,0c0,2.209,1.791,4,4,4s4-1.791,4-4-1.791-4-4-4-4,1.791-4,4Zm-11.525,0c0,2.209,1.791,4,4,4s4-1.791,4-4-1.791-4-4-4-4,1.791-4,4Zm-11.525,0c0,2.209,1.791,4,4,4s4-1.791,4-4-1.791-4-4-4-4,1.791-4,4Zm-11.525,0c0,2.209,1.791,4,4,4s4-1.791,4-4-1.791-4-4-4-4,1.791-4,4Zm-11.525,0c0,2.209,1.791,4,4,4s4-1.791,4-4-1.791-4-4-4-4,1.791-4,4Zm-11.525,0c0,2.209,1.791,4,4,4s4-1.791,4-4-1.791-4-4-4-4,1.791-4,4Zm-11.525,0c0,2.209,1.791,4,4,4s4-1.791,4-4-1.791-4-4-4-4,1.791-4,4Zm-11.525,0c0,2.209,1.791,4,4,4s4-1.791,4-4-1.791-4-4-4-4,1.791-4,4Zm-11.525,0c0,2.209,1.791,4,4,4s4-1.791,4-4-1.791-4-4-4-4,1.791-4,4Zm-11.525,0c0,2.209,1.791,4,4,4s4-1.791,4-4-1.791-4-4-4-4,1.791-4,4Zm-11.525,0c0,2.209,1.791,4,4,4s4-1.791,4-4-1.791-4-4-4-4,1.791-4,4Zm-92.2,0c0,2.209,1.791,4,4,4s4-1.791,4-4-1.791-4-4-4-4,1.791-4,4Zm-11.525,0c0,2.209,1.791,4,4,4s4-1.791,4-4-1.791-4-4-4-4,1.791-4,4Zm-11.525,0c0,2.209,1.791,4,4,4s4-1.791,4-4-1.791-4-4-4-4,1.791-4,4Zm-11.525,0c0,2.209,1.791,4,4,4s4-1.791,4-4-1.791-4-4-4-4,1.791-4,4Zm-11.525,0c0,2.209,1.791,4,4,4s4-1.791,4-4-1.791-4-4-4-4,1.791-4,4Zm-11.525,0c0,2.209,1.791,4,4,4s4-1.791,4-4-1.791-4-4-4-4,1.791-4,4Zm-11.525,0c0,2.209,1.791,4,4,4s4-1.791,4-4-1.791-4-4-4-4,1.791-4,4Zm-11.525,0c0,2.209,1.791,4,4,4s4-1.791,4-4-1.791-4-4-4-4,1.791-4,4Zm-11.525,0c0,2.209,1.791,4,4,4s4-1.791,4-4-1.791-4-4-4-4,1.791-4,4Zm-11.525,0c0,2.209,1.791,4,4,4s4-1.791,4-4-1.791-4-4-4-4,1.791-4,4Zm403.375-11.538c0,2.209,1.791,4,4,4s4-1.791,4-4-1.791-4-4-4-4,1.791-4,4Zm-11.525,0c0,2.209,1.791,4,4,4s4-1.791,4-4-1.791-4-4-4-4,1.791-4,4Zm-11.525,0c0,2.209,1.791,4,4,4s4-1.791,4-4-1.791-4-4-4-4,1.791-4,4Zm-11.525,0c0,2.209,1.791,4,4,4s4-1.791,4-4-1.791-4-4-4-4,1.791-4,4Zm-11.525,0c0,2.209,1.791,4,4,4s4-1.791,4-4-1.791-4-4-4-4,1.791-4,4Zm-11.525,0c0,2.209,1.791,4,4,4s4-1.791,4-4-1.791-4-4-4-4,1.791-4,4Zm-11.525,0c0,2.209,1.791,4,4,4s4-1.791,4-4-1.791-4-4-4-4,1.791-4,4Zm-11.525,0c0,2.209,1.791,4,4,4s4-1.791,4-4-1.791-4-4-4-4,1.791-4,4Zm-11.525,0c0,2.209,1.791,4,4,4s4-1.791,4-4-1.791-4-4-4-4,1.791-4,4Zm-11.525,0c0,2.209,1.791,4,4,4s4-1.791,4-4-1.791-4-4-4-4,1.791-4,4Zm-11.525,0c0,2.209,1.791,4,4,4s4-1.791,4-4-1.791-4-4-4-4,1.791-4,4Zm-11.525,0c0,2.209,1.791,4,4,4s4-1.791,4-4-1.791-4-4-4-4,1.791-4,4Zm-11.525,0c0,2.209,1.791,4,4,4s4-1.791,4-4-1.791-4-4-4-4,1.791-4,4Zm-11.525,0c0,2.209,1.791,4,4,4s4-1.791,4-4-1.791-4-4-4-4,1.791-4,4Zm-11.525,0c0,2.209,1.791,4,4,4s4-1.791,4-4-1.791-4-4-4-4,1.791-4,4Zm-138.3,0c0,2.209,1.791,4,4,4s4-1.791,4-4-1.791-4-4-4-4,1.791-4,4Zm-11.525,0c0,2.209,1.791,4,4,4s4-1.791,4-4-1.791-4-4-4-4,1.791-4,4Zm-11.525,0c0,2.209,1.791,4,4,4s4-1.791,4-4-1.791-4-4-4-4,1.791-4,4Zm-11.525,0c0,2.209,1.791,4,4,4s4-1.791,4-4-1.791-4-4-4-4,1.791-4,4Zm-11.525,0c0,2.209,1.791,4,4,4s4-1.791,4-4-1.791-4-4-4-4,1.791-4,4Zm-11.525,0c0,2.209,1.791,4,4,4s4-1.791,4-4-1.791-4-4-4-4,1.791-4,4Zm-11.525,0c0,2.209,1.791,4,4,4s4-1.791,4-4-1.791-4-4-4-4,1.791-4,4Zm-11.525,0c0,2.209,1.791,4,4,4s4-1.791,4-4-1.791-4-4-4-4,1.791-4,4Zm-11.525,0c0,2.209,1.791,4,4,4s4-1.791,4-4-1.791-4-4-4-4,1.791-4,4Zm-11.525,0c0,2.209,1.791,4,4,4s4-1.791,4-4-1.791-4-4-4-4,1.791-4,4Zm403.375-11.538c0,2.209,1.791,4,4,4s4-1.791,4-4-1.791-4-4-4-4,1.791-4,4Zm-11.525,0c0,2.209,1.791,4,4,4s4-1.791,4-4-1.791-4-4-4-4,1.791-4,4Zm-11.525,0c0,2.209,1.791,4,4,4s4-1.791,4-4-1.791-4-4-4-4,1.791-4,4Zm-11.525,0c0,2.209,1.791,4,4,4s4-1.791,4-4-1.791-4-4-4-4,1.791-4,4Zm-11.525,0c0,2.209,1.791,4,4,4s4-1.791,4-4-1.791-4-4-4-4,1.791-4,4Zm-11.525,0c0,2.209,1.791,4,4,4s4-1.791,4-4-1.791-4-4-4-4,1.791-4,4Zm-11.525,0c0,2.209,1.791,4,4,4s4-1.791,4-4-1.791-4-4-4-4,1.791-4,4Zm-11.525,0c0,2.209,1.791,4,4,4s4-1.791,4-4-1.791-4-4-4-4,1.791-4,4Zm-11.525,0c0,2.209,1.791,4,4,4s4-1.791,4-4-1.791-4-4-4-4,1.791-4,4Zm-11.525,0c0,2.209,1.791,4,4,4s4-1.791,4-4-1.791-4-4-4-4,1.791-4,4Zm-11.525,0c0,2.209,1.791,4,4,4s4-1.791,4-4-1.791-4-4-4-4,1.791-4,4Zm-11.525,0c0,2.209,1.791,4,4,4s4-1.791,4-4-1.791-4-4-4-4,1.791-4,4Zm-11.525,0c0,2.209,1.791,4,4,4s4-1.791,4-4-1.791-4-4-4-4,1.791-4,4Zm-161.35,0c0,2.209,1.791,4,4,4s4-1.791,4-4-1.791-4-4-4-4,1.791-4,4Zm-11.525,0c0,2.209,1.791,4,4,4s4-1.791,4-4-1.791-4-4-4-4,1.791-4,4Zm-11.525,0c0,2.209,1.791,4,4,4s4-1.791,4-4-1.791-4-4-4-4,1.791-4,4Zm-11.525,0c0,2.209,1.791,4,4,4s4-1.791,4-4-1.791-4-4-4-4,1.791-4,4Zm-11.525,0c0,2.209,1.791,4,4,4s4-1.791,4-4-1.791-4-4-4-4,1.791-4,4Zm-11.525,0c0,2.209,1.791,4,4,4s4-1.791,4-4-1.791-4-4-4-4,1.791-4,4Zm-11.525,0c0,2.209,1.791,4,4,4s4-1.791,4-4-1.791-4-4-4-4,1.791-4,4Zm-11.525,0c0,2.209,1.791,4,4,4s4-1.791,4-4-1.791-4-4-4-4,1.791-4,4Zm-11.525,0c0,2.209,1.791,4,4,4s4-1.791,4-4-1.791-4-4-4-4,1.791-4,4Zm-11.525,0c0,2.209,1.791,4,4,4s4-1.791,4-4-1.791-4-4-4-4,1.791-4,4Zm414.9-11.538c0,2.209,1.791,4,4,4s4-1.791,4-4-1.791-4-4-4-4,1.791-4,4Zm-11.525,0c0,2.209,1.791,4,4,4s4-1.791,4-4-1.791-4-4-4-4,1.791-4,4Zm-11.525,0c0,2.209,1.791,4,4,4s4-1.791,4-4-1.791-4-4-4-4,1.791-4,4Zm-11.525,0c0,2.209,1.791,4,4,4s4-1.791,4-4-1.791-4-4-4-4,1.791-4,4Zm-11.525,0c0,2.209,1.791,4,4,4s4-1.791,4-4-1.791-4-4-4-4,1.791-4,4Zm-11.525,0c0,2.209,1.791,4,4,4s4-1.791,4-4-1.791-4-4-4-4,1.791-4,4Zm-11.525,0c0,2.209,1.791,4,4,4s4-1.791,4-4-1.791-4-4-4-4,1.791-4,4Zm-11.525,0c0,2.209,1.791,4,4,4s4-1.791,4-4-1.791-4-4-4-4,1.791-4,4Zm-11.525,0c0,2.209,1.791,4,4,4s4-1.791,4-4-1.791-4-4-4-4,1.791-4,4Zm-11.525,0c0,2.209,1.791,4,4,4s4-1.791,4-4-1.791-4-4-4-4,1.791-4,4Zm-11.525,0c0,2.209,1.791,4,4,4s4-1.791,4-4-1.791-4-4-4-4,1.791-4,4Zm-11.525,0c0,2.209,1.791,4,4,4s4-1.791,4-4-1.791-4-4-4-4,1.791-4,4Zm-11.525,0c0,2.209,1.791,4,4,4s4-1.791,4-4-1.791-4-4-4-4,1.791-4,4Zm-172.875,0c0,2.209,1.791,4,4,4s4-1.791,4-4-1.791-4-4-4-4,1.791-4,4Zm-11.525,0c0,2.209,1.791,4,4,4s4-1.791,4-4-1.791-4-4-4-4,1.791-4,4Zm-11.525,0c0,2.209,1.791,4,4,4s4-1.791,4-4-1.791-4-4-4-4,1.791-4,4Zm-11.525,0c0,2.209,1.791,4,4,4s4-1.791,4-4-1.791-4-4-4-4,1.791-4,4Zm-11.525,0c0,2.209,1.791,4,4,4s4-1.791,4-4-1.791-4-4-4-4,1.791-4,4Zm-11.525,0c0,2.209,1.791,4,4,4s4-1.791,4-4-1.791-4-4-4-4,1.791-4,4Zm-11.525,0c0,2.209,1.791,4,4,4s4-1.791,4-4-1.791-4-4-4-4,1.791-4,4Zm-11.525,0c0,2.209,1.791,4,4,4s4-1.791,4-4-1.791-4-4-4-4,1.791-4,4Zm-11.525,0c0,2.209,1.791,4,4,4s4-1.791,4-4-1.791-4-4-4-4,1.791-4,4Zm-11.525,0c0,2.209,1.791,4,4,4s4-1.791,4-4-1.791-4-4-4-4,1.791-4,4Zm414.9-11.538c0,2.209,1.791,4,4,4s4-1.791,4-4-1.791-4-4-4-4,1.791-4,4Zm-11.525,0c0,2.209,1.791,4,4,4s4-1.791,4-4-1.791-4-4-4-4,1.791-4,4Zm-11.525,0c0,2.209,1.791,4,4,4s4-1.791,4-4-1.791-4-4-4-4,1.791-4,4Zm-11.525,0c0,2.209,1.791,4,4,4s4-1.791,4-4-1.791-4-4-4-4,1.791-4,4Zm-11.525,0c0,2.209,1.791,4,4,4s4-1.791,4-4-1.791-4-4-4-4,1.791-4,4Zm-11.525,0c0,2.209,1.791,4,4,4s4-1.791,4-4-1.791-4-4-4-4,1.791-4,4Zm-11.525,0c0,2.209,1.791,4,4,4s4-1.791,4-4-1.791-4-4-4-4,1.791-4,4Zm-11.525,0c0,2.209,1.791,4,4,4s4-1.791,4-4-1.791-4-4-4-4,1.791-4,4Zm-11.525,0c0,2.209,1.791,4,4,4s4-1.791,4-4-1.791-4-4-4-4,1.791-4,4Zm-11.525,0c0,2.209,1.791,4,4,4s4-1.791,4-4-1.791-4-4-4-4,1.791-4,4Zm-11.525,0c0,2.209,1.791,4,4,4s4-1.791,4-4-1.791-4-4-4-4,1.791-4,4Zm-11.525,0c0,2.209,1.791,4,4,4s4-1.791,4-4-1.791-4-4-4-4,1.791-4,4Zm-184.4,0c0,2.209,1.791,4,4,4s4-1.791,4-4-1.791-4-4-4-4,1.791-4,4Zm-11.525,0c0,2.209,1.791,4,4,4s4-1.791,4-4-1.791-4-4-4-4,1.791-4,4Zm-11.525,0c0,2.209,1.791,4,4,4s4-1.791,4-4-1.791-4-4-4-4,1.791-4,4Zm-11.525,0c0,2.209,1.791,4,4,4s4-1.791,4-4-1.791-4-4-4-4,1.791-4,4Zm-11.525,0c0,2.209,1.791,4,4,4s4-1.791,4-4-1.791-4-4-4-4,1.791-4,4Zm-11.525,0c0,2.209,1.791,4,4,4s4-1.791,4-4-1.791-4-4-4-4,1.791-4,4Zm-11.525,0c0,2.209,1.791,4,4,4s4-1.791,4-4-1.791-4-4-4-4,1.791-4,4Zm-11.525,0c0,2.209,1.791,4,4,4s4-1.791,4-4-1.791-4-4-4-4,1.791-4,4Zm-11.525,0c0,2.209,1.791,4,4,4s4-1.791,4-4-1.791-4-4-4-4,1.791-4,4Zm-11.525,0c0,2.209,1.791,4,4,4s4-1.791,4-4-1.791-4-4-4-4,1.791-4,4Zm426.425-11.538c0,2.209,1.791,4,4,4s4-1.791,4-4-1.791-4-4-4-4,1.791-4,4Zm-11.525,0c0,2.209,1.791,4,4,4s4-1.791,4-4-1.791-4-4-4-4,1.791-4,4Zm-11.525,0c0,2.209,1.791,4,4,4s4-1.791,4-4-1.791-4-4-4-4,1.791-4,4Zm-11.525,0c0,2.209,1.791,4,4,4s4-1.791,4-4-1.791-4-4-4-4,1.791-4,4Zm-11.525,0c0,2.209,1.791,4,4,4s4-1.791,4-4-1.791-4-4-4-4,1.791-4,4Zm-11.525,0c0,2.209,1.791,4,4,4s4-1.791,4-4-1.791-4-4-4-4,1.791-4,4Zm-11.525,0c0,2.209,1.791,4,4,4s4-1.791,4-4-1.791-4-4-4-4,1.791-4,4Zm-11.525,0c0,2.209,1.791,4,4,4s4-1.791,4-4-1.791-4-4-4-4,1.791-4,4Zm-11.525,0c0,2.209,1.791,4,4,4s4-1.791,4-4-1.791-4-4-4-4,1.791-4,4Zm-11.525,0c0,2.209,1.791,4,4,4s4-1.791,4-4-1.791-4-4-4-4,1.791-4,4Zm-11.525,0c0,2.209,1.791,4,4,4s4-1.791,4-4-1.791-4-4-4-4,1.791-4,4Zm-11.525,0c0,2.209,1.791,4,4,4s4-1.791,4-4-1.791-4-4-4-4,1.791-4,4Zm-195.925,0c0,2.209,1.791,4,4,4s4-1.791,4-4-1.791-4-4-4-4,1.791-4,4Zm-11.525,0c0,2.209,1.791,4,4,4s4-1.791,4-4-1.791-4-4-4-4,1.791-4,4Zm-11.525,0c0,2.209,1.791,4,4,4s4-1.791,4-4-1.791-4-4-4-4,1.791-4,4Zm-11.525,0c0,2.209,1.791,4,4,4s4-1.791,4-4-1.791-4-4-4-4,1.791-4,4Zm-11.525,0c0,2.209,1.791,4,4,4s4-1.791,4-4-1.791-4-4-4-4,1.791-4,4Zm-11.525,0c0,2.209,1.791,4,4,4s4-1.791,4-4-1.791-4-4-4-4,1.791-4,4Zm-11.525,0c0,2.209,1.791,4,4,4s4-1.791,4-4-1.791-4-4-4-4,1.791-4,4Zm-11.525,0c0,2.209,1.791,4,4,4s4-1.791,4-4-1.791-4-4-4-4,1.791-4,4Zm-11.525,0c0,2.209,1.791,4,4,4s4-1.791,4-4-1.791-4-4-4-4,1.791-4,4Zm-11.525,0c0,2.209,1.791,4,4,4s4-1.791,4-4-1.791-4-4-4-4,1.791-4,4Zm426.425-11.538c0,2.209,1.791,4,4,4s4-1.791,4-4-1.791-4-4-4-4,1.791-4,4Zm-11.525,0c0,2.209,1.791,4,4,4s4-1.791,4-4-1.791-4-4-4-4,1.791-4,4Zm-11.525,0c0,2.209,1.791,4,4,4s4-1.791,4-4-1.791-4-4-4-4,1.791-4,4Zm-11.525,0c0,2.209,1.791,4,4,4s4-1.791,4-4-1.791-4-4-4-4,1.791-4,4Zm-11.525,0c0,2.209,1.791,4,4,4s4-1.791,4-4-1.791-4-4-4-4,1.791-4,4Zm-11.525,0c0,2.209,1.791,4,4,4s4-1.791,4-4-1.791-4-4-4-4,1.791-4,4Zm-11.525,0c0,2.209,1.791,4,4,4s4-1.791,4-4-1.791-4-4-4-4,1.791-4,4Zm-11.525,0c0,2.209,1.791,4,4,4s4-1.791,4-4-1.791-4-4-4-4,1.791-4,4Zm-11.525,0c0,2.209,1.791,4,4,4s4-1.791,4-4-1.791-4-4-4-4,1.791-4,4Zm-11.525,0c0,2.209,1.791,4,4,4s4-1.791,4-4-1.791-4-4-4-4,1.791-4,4Zm-11.525,0c0,2.209,1.791,4,4,4s4-1.791,4-4-1.791-4-4-4-4,1.791-4,4Zm-207.45,0c0,2.209,1.791,4,4,4s4-1.791,4-4-1.791-4-4-4-4,1.791-4,4Zm-11.525,0c0,2.209,1.791,4,4,4s4-1.791,4-4-1.791-4-4-4-4,1.791-4,4Zm-11.525,0c0,2.209,1.791,4,4,4s4-1.791,4-4-1.791-4-4-4-4,1.791-4,4Zm-11.525,0c0,2.209,1.791,4,4,4s4-1.791,4-4-1.791-4-4-4-4,1.791-4,4Zm-11.525,0c0,2.209,1.791,4,4,4s4-1.791,4-4-1.791-4-4-4-4,1.791-4,4Zm-11.525,0c0,2.209,1.791,4,4,4s4-1.791,4-4-1.791-4-4-4-4,1.791-4,4Zm-11.525,0c0,2.209,1.791,4,4,4s4-1.791,4-4-1.791-4-4-4-4,1.791-4,4Zm-11.525,0c0,2.209,1.791,4,4,4s4-1.791,4-4-1.791-4-4-4-4,1.791-4,4Zm-11.525,0c0,2.209,1.791,4,4,4s4-1.791,4-4-1.791-4-4-4-4,1.791-4,4Zm-11.525,0c0,2.209,1.791,4,4,4s4-1.791,4-4-1.791-4-4-4-4,1.791-4,4Zm437.95-11.538c0,2.209,1.791,4,4,4s4-1.791,4-4-1.791-4-4-4-4,1.791-4,4Zm-11.525,0c0,2.209,1.791,4,4,4s4-1.791,4-4-1.791-4-4-4-4,1.791-4,4Zm-11.525,0c0,2.209,1.791,4,4,4s4-1.791,4-4-1.791-4-4-4-4,1.791-4,4Zm-11.525,0c0,2.209,1.791,4,4,4s4-1.791,4-4-1.791-4-4-4-4,1.791-4,4Zm-11.525,0c0,2.209,1.791,4,4,4s4-1.791,4-4-1.791-4-4-4-4,1.791-4,4Zm-11.525,0c0,2.209,1.791,4,4,4s4-1.791,4-4-1.791-4-4-4-4,1.791-4,4Zm-11.525,0c0,2.209,1.791,4,4,4s4-1.791,4-4-1.791-4-4-4-4,1.791-4,4Zm-11.525,0c0,2.209,1.791,4,4,4s4-1.791,4-4-1.791-4-4-4-4,1.791-4,4Zm-11.525,0c0,2.209,1.791,4,4,4s4-1.791,4-4-1.791-4-4-4-4,1.791-4,4Zm-11.525,0c0,2.209,1.791,4,4,4s4-1.791,4-4-1.791-4-4-4-4,1.791-4,4Zm-11.525,0c0,2.209,1.791,4,4,4s4-1.791,4-4-1.791-4-4-4-4,1.791-4,4Zm-11.525,0c0,2.209,1.791,4,4,4s4-1.791,4-4-1.791-4-4-4-4,1.791-4,4Zm-207.45,0c0,2.209,1.791,4,4,4s4-1.791,4-4-1.791-4-4-4-4,1.791-4,4Zm-11.525,0c0,2.209,1.791,4,4,4s4-1.791,4-4-1.791-4-4-4-4,1.791-4,4Zm-11.525,0c0,2.209,1.791,4,4,4s4-1.791,4-4-1.791-4-4-4-4,1.791-4,4Zm-11.525,0c0,2.209,1.791,4,4,4s4-1.791,4-4-1.791-4-4-4-4,1.791-4,4Zm-11.525,0c0,2.209,1.791,4,4,4s4-1.791,4-4-1.791-4-4-4-4,1.791-4,4Zm-11.525,0c0,2.209,1.791,4,4,4s4-1.791,4-4-1.791-4-4-4-4,1.791-4,4Zm-11.525,0c0,2.209,1.791,4,4,4s4-1.791,4-4-1.791-4-4-4-4,1.791-4,4Zm-11.525,0c0,2.209,1.791,4,4,4s4-1.791,4-4-1.791-4-4-4-4,1.791-4,4Zm-11.525,0c0,2.209,1.791,4,4,4s4-1.791,4-4-1.791-4-4-4-4,1.791-4,4Zm-11.525,0c0,2.209,1.791,4,4,4s4-1.791,4-4-1.791-4-4-4-4,1.791-4,4Zm437.95-11.538c0,2.209,1.791,4,4,4s4-1.791,4-4-1.791-4-4-4-4,1.791-4,4Zm-11.525,0c0,2.209,1.791,4,4,4s4-1.791,4-4-1.791-4-4-4-4,1.791-4,4Zm-11.525,0c0,2.209,1.791,4,4,4s4-1.791,4-4-1.791-4-4-4-4,1.791-4,4Zm-11.525,0c0,2.209,1.791,4,4,4s4-1.791,4-4-1.791-4-4-4-4,1.791-4,4Zm-11.525,0c0,2.209,1.791,4,4,4s4-1.791,4-4-1.791-4-4-4-4,1.791-4,4Zm-11.525,0c0,2.209,1.791,4,4,4s4-1.791,4-4-1.791-4-4-4-4,1.791-4,4Zm-11.525,0c0,2.209,1.791,4,4,4s4-1.791,4-4-1.791-4-4-4-4,1.791-4,4Zm-11.525,0c0,2.209,1.791,4,4,4s4-1.791,4-4-1.791-4-4-4-4,1.791-4,4Zm-11.525,0c0,2.209,1.791,4,4,4s4-1.791,4-4-1.791-4-4-4-4,1.791-4,4Zm-11.525,0c0,2.209,1.791,4,4,4s4-1.791,4-4-1.791-4-4-4-4,1.791-4,4Zm-11.525,0c0,2.209,1.791,4,4,4s4-1.791,4-4-1.791-4-4-4-4,1.791-4,4Zm-218.975,0c0,2.209,1.791,4,4,4s4-1.791,4-4-1.791-4-4-4-4,1.791-4,4Zm-11.525,0c0,2.209,1.791,4,4,4s4-1.791,4-4-1.791-4-4-4-4,1.791-4,4Zm-11.525,0c0,2.209,1.791,4,4,4s4-1.791,4-4-1.791-4-4-4-4,1.791-4,4Zm-11.525,0c0,2.209,1.791,4,4,4s4-1.791,4-4-1.791-4-4-4-4,1.791-4,4Zm-11.525,0c0,2.209,1.791,4,4,4s4-1.791,4-4-1.791-4-4-4-4,1.791-4,4Zm-11.525,0c0,2.209,1.791,4,4,4s4-1.791,4-4-1.791-4-4-4-4,1.791-4,4Zm-11.525,0c0,2.209,1.791,4,4,4s4-1.791,4-4-1.791-4-4-4-4,1.791-4,4Zm-11.525,0c0,2.209,1.791,4,4,4s4-1.791,4-4-1.791-4-4-4-4,1.791-4,4Zm-11.525,0c0,2.209,1.791,4,4,4s4-1.791,4-4-1.791-4-4-4-4,1.791-4,4Zm-11.525,0c0,2.209,1.791,4,4,4s4-1.791,4-4-1.791-4-4-4-4,1.791-4,4Zm437.95-11.538c0,2.209,1.791,4,4,4s4-1.791,4-4-1.791-4-4-4-4,1.791-4,4Zm-11.525,0c0,2.209,1.791,4,4,4s4-1.791,4-4-1.791-4-4-4-4,1.791-4,4Zm-11.525,0c0,2.209,1.791,4,4,4s4-1.791,4-4-1.791-4-4-4-4,1.791-4,4Zm-11.525,0c0,2.209,1.791,4,4,4s4-1.791,4-4-1.791-4-4-4-4,1.791-4,4Zm-11.525,0c0,2.209,1.791,4,4,4s4-1.791,4-4-1.791-4-4-4-4,1.791-4,4Zm-11.525,0c0,2.209,1.791,4,4,4s4-1.791,4-4-1.791-4-4-4-4,1.791-4,4Zm-11.525,0c0,2.209,1.791,4,4,4s4-1.791,4-4-1.791-4-4-4-4,1.791-4,4Zm-11.525,0c0,2.209,1.791,4,4,4s4-1.791,4-4-1.791-4-4-4-4,1.791-4,4Zm-11.525,0c0,2.209,1.791,4,4,4s4-1.791,4-4-1.791-4-4-4-4,1.791-4,4Zm-11.525,0c0,2.209,1.791,4,4,4s4-1.791,4-4-1.791-4-4-4-4,1.791-4,4Zm-11.525,0c0,2.209,1.791,4,4,4s4-1.791,4-4-1.791-4-4-4-4,1.791-4,4Zm-218.975,0c0,2.209,1.791,4,4,4s4-1.791,4-4-1.791-4-4-4-4,1.791-4,4Zm-11.525,0c0,2.209,1.791,4,4,4s4-1.791,4-4-1.791-4-4-4-4,1.791-4,4Zm-11.525,0c0,2.209,1.791,4,4,4s4-1.791,4-4-1.791-4-4-4-4,1.791-4,4Zm-11.525,0c0,2.209,1.791,4,4,4s4-1.791,4-4-1.791-4-4-4-4,1.791-4,4Zm-11.525,0c0,2.209,1.791,4,4,4s4-1.791,4-4-1.791-4-4-4-4,1.791-4,4Zm-11.525,0c0,2.209,1.791,4,4,4s4-1.791,4-4-1.791-4-4-4-4,1.791-4,4Zm-11.525,0c0,2.209,1.791,4,4,4s4-1.791,4-4-1.791-4-4-4-4,1.791-4,4Zm-11.525,0c0,2.209,1.791,4,4,4s4-1.791,4-4-1.791-4-4-4-4,1.791-4,4Zm-11.525,0c0,2.209,1.791,4,4,4s4-1.791,4-4-1.791-4-4-4-4,1.791-4,4Zm-11.525,0c0,2.209,1.791,4,4,4s4-1.791,4-4-1.791-4-4-4-4,1.791-4,4Zm437.95-11.538c0,2.209,1.791,4,4,4s4-1.791,4-4-1.791-4-4-4-4,1.791-4,4Zm-11.525,0c0,2.209,1.791,4,4,4s4-1.791,4-4-1.791-4-4-4-4,1.791-4,4Zm-11.525,0c0,2.209,1.791,4,4,4s4-1.791,4-4-1.791-4-4-4-4,1.791-4,4Zm-11.525,0c0,2.209,1.791,4,4,4s4-1.791,4-4-1.791-4-4-4-4,1.791-4,4Zm-11.525,0c0,2.209,1.791,4,4,4s4-1.791,4-4-1.791-4-4-4-4,1.791-4,4Zm-11.525,0c0,2.209,1.791,4,4,4s4-1.791,4-4-1.791-4-4-4-4,1.791-4,4Zm-11.525,0c0,2.209,1.791,4,4,4s4-1.791,4-4-1.791-4-4-4-4,1.791-4,4Zm-11.525,0c0,2.209,1.791,4,4,4s4-1.791,4-4-1.791-4-4-4-4,1.791-4,4Zm-11.525,0c0,2.209,1.791,4,4,4s4-1.791,4-4-1.791-4-4-4-4,1.791-4,4Zm-11.525,0c0,2.209,1.791,4,4,4s4-1.791,4-4-1.791-4-4-4-4,1.791-4,4Zm-11.525,0c0,2.209,1.791,4,4,4s4-1.791,4-4-1.791-4-4-4-4,1.791-4,4Zm-218.975,0c0,2.209,1.791,4,4,4s4-1.791,4-4-1.791-4-4-4-4,1.791-4,4Zm-11.525,0c0,2.209,1.791,4,4,4s4-1.791,4-4-1.791-4-4-4-4,1.791-4,4Zm-11.525,0c0,2.209,1.791,4,4,4s4-1.791,4-4-1.791-4-4-4-4,1.791-4,4Zm-11.525,0c0,2.209,1.791,4,4,4s4-1.791,4-4-1.791-4-4-4-4,1.791-4,4Zm-11.525,0c0,2.209,1.791,4,4,4s4-1.791,4-4-1.791-4-4-4-4,1.791-4,4Zm-11.525,0c0,2.209,1.791,4,4,4s4-1.791,4-4-1.791-4-4-4-4,1.791-4,4Zm-11.525,0c0,2.209,1.791,4,4,4s4-1.791,4-4-1.791-4-4-4-4,1.791-4,4Zm-11.525,0c0,2.209,1.791,4,4,4s4-1.791,4-4-1.791-4-4-4-4,1.791-4,4Zm-11.525,0c0,2.209,1.791,4,4,4s4-1.791,4-4-1.791-4-4-4-4,1.791-4,4Zm-11.525,0c0,2.209,1.791,4,4,4s4-1.791,4-4-1.791-4-4-4-4,1.791-4,4Zm449.475-11.538c0,2.209,1.791,4,4,4s4-1.791,4-4-1.791-4-4-4-4,1.791-4,4Zm-11.525,0c0,2.209,1.791,4,4,4s4-1.791,4-4-1.791-4-4-4-4,1.791-4,4Zm-11.525,0c0,2.209,1.791,4,4,4s4-1.791,4-4-1.791-4-4-4-4,1.791-4,4Zm-11.525,0c0,2.209,1.791,4,4,4s4-1.791,4-4-1.791-4-4-4-4,1.791-4,4Zm-11.525,0c0,2.209,1.791,4,4,4s4-1.791,4-4-1.791-4-4-4-4,1.791-4,4Zm-11.525,0c0,2.209,1.791,4,4,4s4-1.791,4-4-1.791-4-4-4-4,1.791-4,4Zm-11.525,0c0,2.209,1.791,4,4,4s4-1.791,4-4-1.791-4-4-4-4,1.791-4,4Zm-11.525,0c0,2.209,1.791,4,4,4s4-1.791,4-4-1.791-4-4-4-4,1.791-4,4Zm-11.525,0c0,2.209,1.791,4,4,4s4-1.791,4-4-1.791-4-4-4-4,1.791-4,4Zm-11.525,0c0,2.209,1.791,4,4,4s4-1.791,4-4-1.791-4-4-4-4,1.791-4,4Zm-11.525,0c0,2.209,1.791,4,4,4s4-1.791,4-4-1.791-4-4-4-4,1.791-4,4Zm-230.5,0c0,2.209,1.791,4,4,4s4-1.791,4-4-1.791-4-4-4-4,1.791-4,4Zm-11.525,0c0,2.209,1.791,4,4,4s4-1.791,4-4-1.791-4-4-4-4,1.791-4,4Zm-11.525,0c0,2.209,1.791,4,4,4s4-1.791,4-4-1.791-4-4-4-4,1.791-4,4Zm-11.525,0c0,2.209,1.791,4,4,4s4-1.791,4-4-1.791-4-4-4-4,1.791-4,4Zm-11.525,0c0,2.209,1.791,4,4,4s4-1.791,4-4-1.791-4-4-4-4,1.791-4,4Zm-11.525,0c0,2.209,1.791,4,4,4s4-1.791,4-4-1.791-4-4-4-4,1.791-4,4Zm-11.525,0c0,2.209,1.791,4,4,4s4-1.791,4-4-1.791-4-4-4-4,1.791-4,4Zm-11.525,0c0,2.209,1.791,4,4,4s4-1.791,4-4-1.791-4-4-4-4,1.791-4,4Zm-11.525,0c0,2.209,1.791,4,4,4s4-1.791,4-4-1.791-4-4-4-4,1.791-4,4Zm-11.525,0c0,2.209,1.791,4,4,4s4-1.791,4-4-1.791-4-4-4-4,1.791-4,4Zm449.475-11.538c0,2.209,1.791,4,4,4s4-1.791,4-4-1.791-4-4-4-4,1.791-4,4Zm-11.525,0c0,2.209,1.791,4,4,4s4-1.791,4-4-1.791-4-4-4-4,1.791-4,4Zm-11.525,0c0,2.209,1.791,4,4,4s4-1.791,4-4-1.791-4-4-4-4,1.791-4,4Zm-11.525,0c0,2.209,1.791,4,4,4s4-1.791,4-4-1.791-4-4-4-4,1.791-4,4Zm-11.525,0c0,2.209,1.791,4,4,4s4-1.791,4-4-1.791-4-4-4-4,1.791-4,4Zm-11.525,0c0,2.209,1.791,4,4,4s4-1.791,4-4-1.791-4-4-4-4,1.791-4,4Zm-11.525,0c0,2.209,1.791,4,4,4s4-1.791,4-4-1.791-4-4-4-4,1.791-4,4Zm-11.525,0c0,2.209,1.791,4,4,4s4-1.791,4-4-1.791-4-4-4-4,1.791-4,4Zm-11.525,0c0,2.209,1.791,4,4,4s4-1.791,4-4-1.791-4-4-4-4,1.791-4,4Zm-11.525,0c0,2.209,1.791,4,4,4s4-1.791,4-4-1.791-4-4-4-4,1.791-4,4Zm-11.525,0c0,2.209,1.791,4,4,4s4-1.791,4-4-1.791-4-4-4-4,1.791-4,4Zm-230.5,0c0,2.209,1.791,4,4,4s4-1.791,4-4-1.791-4-4-4-4,1.791-4,4Zm-11.525,0c0,2.209,1.791,4,4,4s4-1.791,4-4-1.791-4-4-4-4,1.791-4,4Zm-11.525,0c0,2.209,1.791,4,4,4s4-1.791,4-4-1.791-4-4-4-4,1.791-4,4Zm-11.525,0c0,2.209,1.791,4,4,4s4-1.791,4-4-1.791-4-4-4-4,1.791-4,4Zm-11.525,0c0,2.209,1.791,4,4,4s4-1.791,4-4-1.791-4-4-4-4,1.791-4,4Zm-11.525,0c0,2.209,1.791,4,4,4s4-1.791,4-4-1.791-4-4-4-4,1.791-4,4Zm-11.525,0c0,2.209,1.791,4,4,4s4-1.791,4-4-1.791-4-4-4-4,1.791-4,4Zm-11.525,0c0,2.209,1.791,4,4,4s4-1.791,4-4-1.791-4-4-4-4,1.791-4,4Zm-11.525,0c0,2.209,1.791,4,4,4s4-1.791,4-4-1.791-4-4-4-4,1.791-4,4Zm-11.525,0c0,2.209,1.791,4,4,4s4-1.791,4-4-1.791-4-4-4-4,1.791-4,4Zm449.475-11.538c0,2.209,1.791,4,4,4s4-1.791,4-4-1.791-4-4-4-4,1.791-4,4Zm-11.525,0c0,2.209,1.791,4,4,4s4-1.791,4-4-1.791-4-4-4-4,1.791-4,4Zm-11.525,0c0,2.209,1.791,4,4,4s4-1.791,4-4-1.791-4-4-4-4,1.791-4,4Zm-11.525,0c0,2.209,1.791,4,4,4s4-1.791,4-4-1.791-4-4-4-4,1.791-4,4Zm-11.525,0c0,2.209,1.791,4,4,4s4-1.791,4-4-1.791-4-4-4-4,1.791-4,4Zm-11.525,0c0,2.209,1.791,4,4,4s4-1.791,4-4-1.791-4-4-4-4,1.791-4,4Zm-11.525,0c0,2.209,1.791,4,4,4s4-1.791,4-4-1.791-4-4-4-4,1.791-4,4Zm-11.525,0c0,2.209,1.791,4,4,4s4-1.791,4-4-1.791-4-4-4-4,1.791-4,4Zm-11.525,0c0,2.209,1.791,4,4,4s4-1.791,4-4-1.791-4-4-4-4,1.791-4,4Zm-11.525,0c0,2.209,1.791,4,4,4s4-1.791,4-4-1.791-4-4-4-4,1.791-4,4Zm-11.525,0c0,2.209,1.791,4,4,4s4-1.791,4-4-1.791-4-4-4-4,1.791-4,4Zm-230.5,0c0,2.209,1.791,4,4,4s4-1.791,4-4-1.791-4-4-4-4,1.791-4,4Zm-11.525,0c0,2.209,1.791,4,4,4s4-1.791,4-4-1.791-4-4-4-4,1.791-4,4Zm-11.525,0c0,2.209,1.791,4,4,4s4-1.791,4-4-1.791-4-4-4-4,1.791-4,4Zm-11.525,0c0,2.209,1.791,4,4,4s4-1.791,4-4-1.791-4-4-4-4,1.791-4,4Zm-11.525,0c0,2.209,1.791,4,4,4s4-1.791,4-4-1.791-4-4-4-4,1.791-4,4Zm-11.525,0c0,2.209,1.791,4,4,4s4-1.791,4-4-1.791-4-4-4-4,1.791-4,4Zm-11.525,0c0,2.209,1.791,4,4,4s4-1.791,4-4-1.791-4-4-4-4,1.791-4,4Zm-11.525,0c0,2.209,1.791,4,4,4s4-1.791,4-4-1.791-4-4-4-4,1.791-4,4Zm-11.525,0c0,2.209,1.791,4,4,4s4-1.791,4-4-1.791-4-4-4-4,1.791-4,4Zm-11.525,0c0,2.209,1.791,4,4,4s4-1.791,4-4-1.791-4-4-4-4,1.791-4,4Zm449.475-11.538c0,2.209,1.791,4,4,4s4-1.791,4-4-1.791-4-4-4-4,1.791-4,4Zm-11.525,0c0,2.209,1.791,4,4,4s4-1.791,4-4-1.791-4-4-4-4,1.791-4,4Zm-11.525,0c0,2.209,1.791,4,4,4s4-1.791,4-4-1.791-4-4-4-4,1.791-4,4Zm-11.525,0c0,2.209,1.791,4,4,4s4-1.791,4-4-1.791-4-4-4-4,1.791-4,4Zm-11.525,0c0,2.209,1.791,4,4,4s4-1.791,4-4-1.791-4-4-4-4,1.791-4,4Zm-11.525,0c0,2.209,1.791,4,4,4s4-1.791,4-4-1.791-4-4-4-4,1.791-4,4Zm-11.525,0c0,2.209,1.791,4,4,4s4-1.791,4-4-1.791-4-4-4-4,1.791-4,4Zm-11.525,0c0,2.209,1.791,4,4,4s4-1.791,4-4-1.791-4-4-4-4,1.791-4,4Zm-11.525,0c0,2.209,1.791,4,4,4s4-1.791,4-4-1.791-4-4-4-4,1.791-4,4Zm-11.525,0c0,2.209,1.791,4,4,4s4-1.791,4-4-1.791-4-4-4-4,1.791-4,4Zm-11.525,0c0,2.209,1.791,4,4,4s4-1.791,4-4-1.791-4-4-4-4,1.791-4,4Zm-230.5,0c0,2.209,1.791,4,4,4s4-1.791,4-4-1.791-4-4-4-4,1.791-4,4Zm-11.525,0c0,2.209,1.791,4,4,4s4-1.791,4-4-1.791-4-4-4-4,1.791-4,4Zm-11.525,0c0,2.209,1.791,4,4,4s4-1.791,4-4-1.791-4-4-4-4,1.791-4,4Zm-11.525,0c0,2.209,1.791,4,4,4s4-1.791,4-4-1.791-4-4-4-4,1.791-4,4Zm-11.525,0c0,2.209,1.791,4,4,4s4-1.791,4-4-1.791-4-4-4-4,1.791-4,4Zm-11.525,0c0,2.209,1.791,4,4,4s4-1.791,4-4-1.791-4-4-4-4,1.791-4,4Zm-11.525,0c0,2.209,1.791,4,4,4s4-1.791,4-4-1.791-4-4-4-4,1.791-4,4Zm-11.525,0c0,2.209,1.791,4,4,4s4-1.791,4-4-1.791-4-4-4-4,1.791-4,4Zm-11.525,0c0,2.209,1.791,4,4,4s4-1.791,4-4-1.791-4-4-4-4,1.791-4,4Zm-11.525,0c0,2.209,1.791,4,4,4s4-1.791,4-4-1.791-4-4-4-4,1.791-4,4Zm449.475-11.538c0,2.209,1.791,4,4,4s4-1.791,4-4-1.791-4-4-4-4,1.791-4,4Zm-11.525,0c0,2.209,1.791,4,4,4s4-1.791,4-4-1.791-4-4-4-4,1.791-4,4Zm-11.525,0c0,2.209,1.791,4,4,4s4-1.791,4-4-1.791-4-4-4-4,1.791-4,4Zm-11.525,0c0,2.209,1.791,4,4,4s4-1.791,4-4-1.791-4-4-4-4,1.791-4,4Zm-11.525,0c0,2.209,1.791,4,4,4s4-1.791,4-4-1.791-4-4-4-4,1.791-4,4Zm-11.525,0c0,2.209,1.791,4,4,4s4-1.791,4-4-1.791-4-4-4-4,1.791-4,4Zm-11.525,0c0,2.209,1.791,4,4,4s4-1.791,4-4-1.791-4-4-4-4,1.791-4,4Zm-11.525,0c0,2.209,1.791,4,4,4s4-1.791,4-4-1.791-4-4-4-4,1.791-4,4Zm-11.525,0c0,2.209,1.791,4,4,4s4-1.791,4-4-1.791-4-4-4-4,1.791-4,4Zm-11.525,0c0,2.209,1.791,4,4,4s4-1.791,4-4-1.791-4-4-4-4,1.791-4,4Zm-11.525,0c0,2.209,1.791,4,4,4s4-1.791,4-4-1.791-4-4-4-4,1.791-4,4Zm-230.5,0c0,2.209,1.791,4,4,4s4-1.791,4-4-1.791-4-4-4-4,1.791-4,4Zm-11.525,0c0,2.209,1.791,4,4,4s4-1.791,4-4-1.791-4-4-4-4,1.791-4,4Zm-11.525,0c0,2.209,1.791,4,4,4s4-1.791,4-4-1.791-4-4-4-4,1.791-4,4Zm-11.525,0c0,2.209,1.791,4,4,4s4-1.791,4-4-1.791-4-4-4-4,1.791-4,4Zm-11.525,0c0,2.209,1.791,4,4,4s4-1.791,4-4-1.791-4-4-4-4,1.791-4,4Zm-11.525,0c0,2.209,1.791,4,4,4s4-1.791,4-4-1.791-4-4-4-4,1.791-4,4Zm-11.525,0c0,2.209,1.791,4,4,4s4-1.791,4-4-1.791-4-4-4-4,1.791-4,4Zm-11.525,0c0,2.209,1.791,4,4,4s4-1.791,4-4-1.791-4-4-4-4,1.791-4,4Zm-11.525,0c0,2.209,1.791,4,4,4s4-1.791,4-4-1.791-4-4-4-4,1.791-4,4Zm-11.525,0c0,2.209,1.791,4,4,4s4-1.791,4-4-1.791-4-4-4-4,1.791-4,4Zm449.475-11.538c0,2.209,1.791,4,4,4s4-1.791,4-4-1.791-4-4-4-4,1.791-4,4Zm-11.525,0c0,2.209,1.791,4,4,4s4-1.791,4-4-1.791-4-4-4-4,1.791-4,4Zm-11.525,0c0,2.209,1.791,4,4,4s4-1.791,4-4-1.791-4-4-4-4,1.791-4,4Zm-11.525,0c0,2.209,1.791,4,4,4s4-1.791,4-4-1.791-4-4-4-4,1.791-4,4Zm-11.525,0c0,2.209,1.791,4,4,4s4-1.791,4-4-1.791-4-4-4-4,1.791-4,4Zm-11.525,0c0,2.209,1.791,4,4,4s4-1.791,4-4-1.791-4-4-4-4,1.791-4,4Zm-11.525,0c0,2.209,1.791,4,4,4s4-1.791,4-4-1.791-4-4-4-4,1.791-4,4Zm-11.525,0c0,2.209,1.791,4,4,4s4-1.791,4-4-1.791-4-4-4-4,1.791-4,4Zm-11.525,0c0,2.209,1.791,4,4,4s4-1.791,4-4-1.791-4-4-4-4,1.791-4,4Zm-11.525,0c0,2.209,1.791,4,4,4s4-1.791,4-4-1.791-4-4-4-4,1.791-4,4Zm-11.525,0c0,2.209,1.791,4,4,4s4-1.791,4-4-1.791-4-4-4-4,1.791-4,4Zm-230.5,0c0,2.209,1.791,4,4,4s4-1.791,4-4-1.791-4-4-4-4,1.791-4,4Zm-11.525,0c0,2.209,1.791,4,4,4s4-1.791,4-4-1.791-4-4-4-4,1.791-4,4Zm-11.525,0c0,2.209,1.791,4,4,4s4-1.791,4-4-1.791-4-4-4-4,1.791-4,4Zm-11.525,0c0,2.209,1.791,4,4,4s4-1.791,4-4-1.791-4-4-4-4,1.791-4,4Zm-11.525,0c0,2.209,1.791,4,4,4s4-1.791,4-4-1.791-4-4-4-4,1.791-4,4Zm-11.525,0c0,2.209,1.791,4,4,4s4-1.791,4-4-1.791-4-4-4-4,1.791-4,4Zm-11.525,0c0,2.209,1.791,4,4,4s4-1.791,4-4-1.791-4-4-4-4,1.791-4,4Zm-11.525,0c0,2.209,1.791,4,4,4s4-1.791,4-4-1.791-4-4-4-4,1.791-4,4Zm-11.525,0c0,2.209,1.791,4,4,4s4-1.791,4-4-1.791-4-4-4-4,1.791-4,4Zm-11.525,0c0,2.209,1.791,4,4,4s4-1.791,4-4-1.791-4-4-4-4,1.791-4,4Zm449.475-11.538c0,2.209,1.791,4,4,4s4-1.791,4-4-1.791-4-4-4-4,1.791-4,4Zm-11.525,0c0,2.209,1.791,4,4,4s4-1.791,4-4-1.791-4-4-4-4,1.791-4,4Zm-11.525,0c0,2.209,1.791,4,4,4s4-1.791,4-4-1.791-4-4-4-4,1.791-4,4Zm-11.525,0c0,2.209,1.791,4,4,4s4-1.791,4-4-1.791-4-4-4-4,1.791-4,4Zm-11.525,0c0,2.209,1.791,4,4,4s4-1.791,4-4-1.791-4-4-4-4,1.791-4,4Zm-11.525,0c0,2.209,1.791,4,4,4s4-1.791,4-4-1.791-4-4-4-4,1.791-4,4Zm-11.525,0c0,2.209,1.791,4,4,4s4-1.791,4-4-1.791-4-4-4-4,1.791-4,4Zm-11.525,0c0,2.209,1.791,4,4,4s4-1.791,4-4-1.791-4-4-4-4,1.791-4,4Zm-11.525,0c0,2.209,1.791,4,4,4s4-1.791,4-4-1.791-4-4-4-4,1.791-4,4Zm-11.525,0c0,2.209,1.791,4,4,4s4-1.791,4-4-1.791-4-4-4-4,1.791-4,4Zm-11.525,0c0,2.209,1.791,4,4,4s4-1.791,4-4-1.791-4-4-4-4,1.791-4,4Zm-230.5,0c0,2.209,1.791,4,4,4s4-1.791,4-4-1.791-4-4-4-4,1.791-4,4Zm-11.525,0c0,2.209,1.791,4,4,4s4-1.791,4-4-1.791-4-4-4-4,1.791-4,4Zm-11.525,0c0,2.209,1.791,4,4,4s4-1.791,4-4-1.791-4-4-4-4,1.791-4,4Zm-11.525,0c0,2.209,1.791,4,4,4s4-1.791,4-4-1.791-4-4-4-4,1.791-4,4Zm-11.525,0c0,2.209,1.791,4,4,4s4-1.791,4-4-1.791-4-4-4-4,1.791-4,4Zm-11.525,0c0,2.209,1.791,4,4,4s4-1.791,4-4-1.791-4-4-4-4,1.791-4,4Zm-11.525,0c0,2.209,1.791,4,4,4s4-1.791,4-4-1.791-4-4-4-4,1.791-4,4Zm-11.525,0c0,2.209,1.791,4,4,4s4-1.791,4-4-1.791-4-4-4-4,1.791-4,4Zm-11.525,0c0,2.209,1.791,4,4,4s4-1.791,4-4-1.791-4-4-4-4,1.791-4,4Zm-11.525,0c0,2.209,1.791,4,4,4s4-1.791,4-4-1.791-4-4-4-4,1.791-4,4Zm449.475-11.538c0,2.209,1.791,4,4,4s4-1.791,4-4-1.791-4-4-4-4,1.791-4,4Zm-11.525,0c0,2.209,1.791,4,4,4s4-1.791,4-4-1.791-4-4-4-4,1.791-4,4Zm-11.525,0c0,2.209,1.791,4,4,4s4-1.791,4-4-1.791-4-4-4-4,1.791-4,4Zm-11.525,0c0,2.209,1.791,4,4,4s4-1.791,4-4-1.791-4-4-4-4,1.791-4,4Zm-11.525,0c0,2.209,1.791,4,4,4s4-1.791,4-4-1.791-4-4-4-4,1.791-4,4Zm-11.525,0c0,2.209,1.791,4,4,4s4-1.791,4-4-1.791-4-4-4-4,1.791-4,4Zm-11.525,0c0,2.209,1.791,4,4,4s4-1.791,4-4-1.791-4-4-4-4,1.791-4,4Zm-11.525,0c0,2.209,1.791,4,4,4s4-1.791,4-4-1.791-4-4-4-4,1.791-4,4Zm-11.525,0c0,2.209,1.791,4,4,4s4-1.791,4-4-1.791-4-4-4-4,1.791-4,4Zm-11.525,0c0,2.209,1.791,4,4,4s4-1.791,4-4-1.791-4-4-4-4,1.791-4,4Zm-11.525,0c0,2.209,1.791,4,4,4s4-1.791,4-4-1.791-4-4-4-4,1.791-4,4Zm-230.5,0c0,2.209,1.791,4,4,4s4-1.791,4-4-1.791-4-4-4-4,1.791-4,4Zm-11.525,0c0,2.209,1.791,4,4,4s4-1.791,4-4-1.791-4-4-4-4,1.791-4,4Zm-11.525,0c0,2.209,1.791,4,4,4s4-1.791,4-4-1.791-4-4-4-4,1.791-4,4Zm-11.525,0c0,2.209,1.791,4,4,4s4-1.791,4-4-1.791-4-4-4-4,1.791-4,4Zm-11.525,0c0,2.209,1.791,4,4,4s4-1.791,4-4-1.791-4-4-4-4,1.791-4,4Zm-11.525,0c0,2.209,1.791,4,4,4s4-1.791,4-4-1.791-4-4-4-4,1.791-4,4Zm-11.525,0c0,2.209,1.791,4,4,4s4-1.791,4-4-1.791-4-4-4-4,1.791-4,4Zm-11.525,0c0,2.209,1.791,4,4,4s4-1.791,4-4-1.791-4-4-4-4,1.791-4,4Zm-11.525,0c0,2.209,1.791,4,4,4s4-1.791,4-4-1.791-4-4-4-4,1.791-4,4Zm-11.525,0c0,2.209,1.791,4,4,4s4-1.791,4-4-1.791-4-4-4-4,1.791-4,4Zm449.475-11.538c0,2.209,1.791,4,4,4s4-1.791,4-4-1.791-4-4-4-4,1.791-4,4Zm-11.525,0c0,2.209,1.791,4,4,4s4-1.791,4-4-1.791-4-4-4-4,1.791-4,4Zm-11.525,0c0,2.209,1.791,4,4,4s4-1.791,4-4-1.791-4-4-4-4,1.791-4,4Zm-11.525,0c0,2.209,1.791,4,4,4s4-1.791,4-4-1.791-4-4-4-4,1.791-4,4Zm-11.525,0c0,2.209,1.791,4,4,4s4-1.791,4-4-1.791-4-4-4-4,1.791-4,4Zm-11.525,0c0,2.209,1.791,4,4,4s4-1.791,4-4-1.791-4-4-4-4,1.791-4,4Zm-11.525,0c0,2.209,1.791,4,4,4s4-1.791,4-4-1.791-4-4-4-4,1.791-4,4Zm-11.525,0c0,2.209,1.791,4,4,4s4-1.791,4-4-1.791-4-4-4-4,1.791-4,4Zm-11.525,0c0,2.209,1.791,4,4,4s4-1.791,4-4-1.791-4-4-4-4,1.791-4,4Zm-11.525,0c0,2.209,1.791,4,4,4s4-1.791,4-4-1.791-4-4-4-4,1.791-4,4Zm-11.525,0c0,2.209,1.791,4,4,4s4-1.791,4-4-1.791-4-4-4-4,1.791-4,4Zm-230.5,0c0,2.209,1.791,4,4,4s4-1.791,4-4-1.791-4-4-4-4,1.791-4,4Zm-11.525,0c0,2.209,1.791,4,4,4s4-1.791,4-4-1.791-4-4-4-4,1.791-4,4Zm-11.525,0c0,2.209,1.791,4,4,4s4-1.791,4-4-1.791-4-4-4-4,1.791-4,4Zm-11.525,0c0,2.209,1.791,4,4,4s4-1.791,4-4-1.791-4-4-4-4,1.791-4,4Zm-11.525,0c0,2.209,1.791,4,4,4s4-1.791,4-4-1.791-4-4-4-4,1.791-4,4Zm-11.525,0c0,2.209,1.791,4,4,4s4-1.791,4-4-1.791-4-4-4-4,1.791-4,4Zm-11.525,0c0,2.209,1.791,4,4,4s4-1.791,4-4-1.791-4-4-4-4,1.791-4,4Zm-11.525,0c0,2.209,1.791,4,4,4s4-1.791,4-4-1.791-4-4-4-4,1.791-4,4Zm-11.525,0c0,2.209,1.791,4,4,4s4-1.791,4-4-1.791-4-4-4-4,1.791-4,4Zm-11.525,0c0,2.209,1.791,4,4,4s4-1.791,4-4-1.791-4-4-4-4,1.791-4,4Zm449.475-11.538c0,2.209,1.791,4,4,4s4-1.791,4-4-1.791-4-4-4-4,1.791-4,4Zm-11.525,0c0,2.209,1.791,4,4,4s4-1.791,4-4-1.791-4-4-4-4,1.791-4,4Zm-11.525,0c0,2.209,1.791,4,4,4s4-1.791,4-4-1.791-4-4-4-4,1.791-4,4Zm-11.525,0c0,2.209,1.791,4,4,4s4-1.791,4-4-1.791-4-4-4-4,1.791-4,4Zm-11.525,0c0,2.209,1.791,4,4,4s4-1.791,4-4-1.791-4-4-4-4,1.791-4,4Zm-11.525,0c0,2.209,1.791,4,4,4s4-1.791,4-4-1.791-4-4-4-4,1.791-4,4Zm-11.525,0c0,2.209,1.791,4,4,4s4-1.791,4-4-1.791-4-4-4-4,1.791-4,4Zm-11.525,0c0,2.209,1.791,4,4,4s4-1.791,4-4-1.791-4-4-4-4,1.791-4,4Zm-11.525,0c0,2.209,1.791,4,4,4s4-1.791,4-4-1.791-4-4-4-4,1.791-4,4Zm-11.525,0c0,2.209,1.791,4,4,4s4-1.791,4-4-1.791-4-4-4-4,1.791-4,4Zm-11.525,0c0,2.209,1.791,4,4,4s4-1.791,4-4-1.791-4-4-4-4,1.791-4,4Zm-230.5,0c0,2.209,1.791,4,4,4s4-1.791,4-4-1.791-4-4-4-4,1.791-4,4Zm-11.525,0c0,2.209,1.791,4,4,4s4-1.791,4-4-1.791-4-4-4-4,1.791-4,4Zm-11.525,0c0,2.209,1.791,4,4,4s4-1.791,4-4-1.791-4-4-4-4,1.791-4,4Zm-11.525,0c0,2.209,1.791,4,4,4s4-1.791,4-4-1.791-4-4-4-4,1.791-4,4Zm-11.525,0c0,2.209,1.791,4,4,4s4-1.791,4-4-1.791-4-4-4-4,1.791-4,4Zm-11.525,0c0,2.209,1.791,4,4,4s4-1.791,4-4-1.791-4-4-4-4,1.791-4,4Zm-11.525,0c0,2.209,1.791,4,4,4s4-1.791,4-4-1.791-4-4-4-4,1.791-4,4Zm-11.525,0c0,2.209,1.791,4,4,4s4-1.791,4-4-1.791-4-4-4-4,1.791-4,4Zm-11.525,0c0,2.209,1.791,4,4,4s4-1.791,4-4-1.791-4-4-4-4,1.791-4,4Zm-11.525,0c0,2.209,1.791,4,4,4s4-1.791,4-4-1.791-4-4-4-4,1.791-4,4Zm449.475-11.538c0,2.209,1.791,4,4,4s4-1.791,4-4-1.791-4-4-4-4,1.791-4,4Zm-11.525,0c0,2.209,1.791,4,4,4s4-1.791,4-4-1.791-4-4-4-4,1.791-4,4Zm-11.525,0c0,2.209,1.791,4,4,4s4-1.791,4-4-1.791-4-4-4-4,1.791-4,4Zm-11.525,0c0,2.209,1.791,4,4,4s4-1.791,4-4-1.791-4-4-4-4,1.791-4,4Zm-11.525,0c0,2.209,1.791,4,4,4s4-1.791,4-4-1.791-4-4-4-4,1.791-4,4Zm-11.525,0c0,2.209,1.791,4,4,4s4-1.791,4-4-1.791-4-4-4-4,1.791-4,4Zm-11.525,0c0,2.209,1.791,4,4,4s4-1.791,4-4-1.791-4-4-4-4,1.791-4,4Zm-11.525,0c0,2.209,1.791,4,4,4s4-1.791,4-4-1.791-4-4-4-4,1.791-4,4Zm-11.525,0c0,2.209,1.791,4,4,4s4-1.791,4-4-1.791-4-4-4-4,1.791-4,4Zm-11.525,0c0,2.209,1.791,4,4,4s4-1.791,4-4-1.791-4-4-4-4,1.791-4,4Zm-11.525,0c0,2.209,1.791,4,4,4s4-1.791,4-4-1.791-4-4-4-4,1.791-4,4Zm-230.5,0c0,2.209,1.791,4,4,4s4-1.791,4-4-1.791-4-4-4-4,1.791-4,4Zm-11.525,0c0,2.209,1.791,4,4,4s4-1.791,4-4-1.791-4-4-4-4,1.791-4,4Zm-11.525,0c0,2.209,1.791,4,4,4s4-1.791,4-4-1.791-4-4-4-4,1.791-4,4Zm-11.525,0c0,2.209,1.791,4,4,4s4-1.791,4-4-1.791-4-4-4-4,1.791-4,4Zm-11.525,0c0,2.209,1.791,4,4,4s4-1.791,4-4-1.791-4-4-4-4,1.791-4,4Zm-11.525,0c0,2.209,1.791,4,4,4s4-1.791,4-4-1.791-4-4-4-4,1.791-4,4Zm-11.525,0c0,2.209,1.791,4,4,4s4-1.791,4-4-1.791-4-4-4-4,1.791-4,4Zm-11.525,0c0,2.209,1.791,4,4,4s4-1.791,4-4-1.791-4-4-4-4,1.791-4,4Zm-11.525,0c0,2.209,1.791,4,4,4s4-1.791,4-4-1.791-4-4-4-4,1.791-4,4Zm-11.525,0c0,2.209,1.791,4,4,4s4-1.791,4-4-1.791-4-4-4-4,1.791-4,4Zm449.475-11.538c0,2.209,1.791,4,4,4s4-1.791,4-4-1.791-4-4-4-4,1.791-4,4Zm-11.525,0c0,2.209,1.791,4,4,4s4-1.791,4-4-1.791-4-4-4-4,1.791-4,4Zm-11.525,0c0,2.209,1.791,4,4,4s4-1.791,4-4-1.791-4-4-4-4,1.791-4,4Zm-11.525,0c0,2.209,1.791,4,4,4s4-1.791,4-4-1.791-4-4-4-4,1.791-4,4Zm-11.525,0c0,2.209,1.791,4,4,4s4-1.791,4-4-1.791-4-4-4-4,1.791-4,4Zm-11.525,0c0,2.209,1.791,4,4,4s4-1.791,4-4-1.791-4-4-4-4,1.791-4,4Zm-11.525,0c0,2.209,1.791,4,4,4s4-1.791,4-4-1.791-4-4-4-4,1.791-4,4Zm-11.525,0c0,2.209,1.791,4,4,4s4-1.791,4-4-1.791-4-4-4-4,1.791-4,4Zm-11.525,0c0,2.209,1.791,4,4,4s4-1.791,4-4-1.791-4-4-4-4,1.791-4,4Zm-11.525,0c0,2.209,1.791,4,4,4s4-1.791,4-4-1.791-4-4-4-4,1.791-4,4Zm-11.525,0c0,2.209,1.791,4,4,4s4-1.791,4-4-1.791-4-4-4-4,1.791-4,4Zm-230.5,0c0,2.209,1.791,4,4,4s4-1.791,4-4-1.791-4-4-4-4,1.791-4,4Zm-11.525,0c0,2.209,1.791,4,4,4s4-1.791,4-4-1.791-4-4-4-4,1.791-4,4Zm-11.525,0c0,2.209,1.791,4,4,4s4-1.791,4-4-1.791-4-4-4-4,1.791-4,4Zm-11.525,0c0,2.209,1.791,4,4,4s4-1.791,4-4-1.791-4-4-4-4,1.791-4,4Zm-11.525,0c0,2.209,1.791,4,4,4s4-1.791,4-4-1.791-4-4-4-4,1.791-4,4Zm-11.525,0c0,2.209,1.791,4,4,4s4-1.791,4-4-1.791-4-4-4-4,1.791-4,4Zm-11.525,0c0,2.209,1.791,4,4,4s4-1.791,4-4-1.791-4-4-4-4,1.791-4,4Zm-11.525,0c0,2.209,1.791,4,4,4s4-1.791,4-4-1.791-4-4-4-4,1.791-4,4Zm-11.525,0c0,2.209,1.791,4,4,4s4-1.791,4-4-1.791-4-4-4-4,1.791-4,4Zm-11.525,0c0,2.209,1.791,4,4,4s4-1.791,4-4-1.791-4-4-4-4,1.791-4,4Zm449.475-11.538c0,2.209,1.791,4,4,4s4-1.791,4-4-1.791-4-4-4-4,1.791-4,4Zm-11.525,0c0,2.209,1.791,4,4,4s4-1.791,4-4-1.791-4-4-4-4,1.791-4,4Zm-11.525,0c0,2.209,1.791,4,4,4s4-1.791,4-4-1.791-4-4-4-4,1.791-4,4Zm-11.525,0c0,2.209,1.791,4,4,4s4-1.791,4-4-1.791-4-4-4-4,1.791-4,4Zm-11.525,0c0,2.209,1.791,4,4,4s4-1.791,4-4-1.791-4-4-4-4,1.791-4,4Zm-11.525,0c0,2.209,1.791,4,4,4s4-1.791,4-4-1.791-4-4-4-4,1.791-4,4Zm-11.525,0c0,2.209,1.791,4,4,4s4-1.791,4-4-1.791-4-4-4-4,1.791-4,4Zm-11.525,0c0,2.209,1.791,4,4,4s4-1.791,4-4-1.791-4-4-4-4,1.791-4,4Zm-11.525,0c0,2.209,1.791,4,4,4s4-1.791,4-4-1.791-4-4-4-4,1.791-4,4Zm-11.525,0c0,2.209,1.791,4,4,4s4-1.791,4-4-1.791-4-4-4-4,1.791-4,4Zm-11.525,0c0,2.209,1.791,4,4,4s4-1.791,4-4-1.791-4-4-4-4,1.791-4,4Zm-230.5,0c0,2.209,1.791,4,4,4s4-1.791,4-4-1.791-4-4-4-4,1.791-4,4Zm-11.525,0c0,2.209,1.791,4,4,4s4-1.791,4-4-1.791-4-4-4-4,1.791-4,4Zm-11.525,0c0,2.209,1.791,4,4,4s4-1.791,4-4-1.791-4-4-4-4,1.791-4,4Zm-11.525,0c0,2.209,1.791,4,4,4s4-1.791,4-4-1.791-4-4-4-4,1.791-4,4Zm-11.525,0c0,2.209,1.791,4,4,4s4-1.791,4-4-1.791-4-4-4-4,1.791-4,4Zm-11.525,0c0,2.209,1.791,4,4,4s4-1.791,4-4-1.791-4-4-4-4,1.791-4,4Zm-11.525,0c0,2.209,1.791,4,4,4s4-1.791,4-4-1.791-4-4-4-4,1.791-4,4Zm-11.525,0c0,2.209,1.791,4,4,4s4-1.791,4-4-1.791-4-4-4-4,1.791-4,4Zm-11.525,0c0,2.209,1.791,4,4,4s4-1.791,4-4-1.791-4-4-4-4,1.791-4,4Zm-11.525,0c0,2.209,1.791,4,4,4s4-1.791,4-4-1.791-4-4-4-4,1.791-4,4Zm449.475-11.538c0,2.209,1.791,4,4,4s4-1.791,4-4-1.791-4-4-4-4,1.791-4,4Zm-11.525,0c0,2.209,1.791,4,4,4s4-1.791,4-4-1.791-4-4-4-4,1.791-4,4Zm-11.525,0c0,2.209,1.791,4,4,4s4-1.791,4-4-1.791-4-4-4-4,1.791-4,4Zm-11.525,0c0,2.209,1.791,4,4,4s4-1.791,4-4-1.791-4-4-4-4,1.791-4,4Zm-11.525,0c0,2.209,1.791,4,4,4s4-1.791,4-4-1.791-4-4-4-4,1.791-4,4Zm-11.525,0c0,2.209,1.791,4,4,4s4-1.791,4-4-1.791-4-4-4-4,1.791-4,4Zm-11.525,0c0,2.209,1.791,4,4,4s4-1.791,4-4-1.791-4-4-4-4,1.791-4,4Zm-11.525,0c0,2.209,1.791,4,4,4s4-1.791,4-4-1.791-4-4-4-4,1.791-4,4Zm-11.525,0c0,2.209,1.791,4,4,4s4-1.791,4-4-1.791-4-4-4-4,1.791-4,4Zm-11.525,0c0,2.209,1.791,4,4,4s4-1.791,4-4-1.791-4-4-4-4,1.791-4,4Zm-11.525,0c0,2.209,1.791,4,4,4s4-1.791,4-4-1.791-4-4-4-4,1.791-4,4Zm-230.5,0c0,2.209,1.791,4,4,4s4-1.791,4-4-1.791-4-4-4-4,1.791-4,4Zm-11.525,0c0,2.209,1.791,4,4,4s4-1.791,4-4-1.791-4-4-4-4,1.791-4,4Zm-11.525,0c0,2.209,1.791,4,4,4s4-1.791,4-4-1.791-4-4-4-4,1.791-4,4Zm-11.525,0c0,2.209,1.791,4,4,4s4-1.791,4-4-1.791-4-4-4-4,1.791-4,4Zm-11.525,0c0,2.209,1.791,4,4,4s4-1.791,4-4-1.791-4-4-4-4,1.791-4,4Zm-11.525,0c0,2.209,1.791,4,4,4s4-1.791,4-4-1.791-4-4-4-4,1.791-4,4Zm-11.525,0c0,2.209,1.791,4,4,4s4-1.791,4-4-1.791-4-4-4-4,1.791-4,4Zm-11.525,0c0,2.209,1.791,4,4,4s4-1.791,4-4-1.791-4-4-4-4,1.791-4,4Zm-11.525,0c0,2.209,1.791,4,4,4s4-1.791,4-4-1.791-4-4-4-4,1.791-4,4Zm-11.525,0c0,2.209,1.791,4,4,4s4-1.791,4-4-1.791-4-4-4-4,1.791-4,4Zm437.95-11.538c0,2.209,1.791,4,4,4s4-1.791,4-4-1.791-4-4-4-4,1.791-4,4Zm-11.525,0c0,2.209,1.791,4,4,4s4-1.791,4-4-1.791-4-4-4-4,1.791-4,4Zm-11.525,0c0,2.209,1.791,4,4,4s4-1.791,4-4-1.791-4-4-4-4,1.791-4,4Zm-11.525,0c0,2.209,1.791,4,4,4s4-1.791,4-4-1.791-4-4-4-4,1.791-4,4Zm-11.525,0c0,2.209,1.791,4,4,4s4-1.791,4-4-1.791-4-4-4-4,1.791-4,4Zm-11.525,0c0,2.209,1.791,4,4,4s4-1.791,4-4-1.791-4-4-4-4,1.791-4,4Zm-11.525,0c0,2.209,1.791,4,4,4s4-1.791,4-4-1.791-4-4-4-4,1.791-4,4Zm-11.525,0c0,2.209,1.791,4,4,4s4-1.791,4-4-1.791-4-4-4-4,1.791-4,4Zm-11.525,0c0,2.209,1.791,4,4,4s4-1.791,4-4-1.791-4-4-4-4,1.791-4,4Zm-11.525,0c0,2.209,1.791,4,4,4s4-1.791,4-4-1.791-4-4-4-4,1.791-4,4Zm-230.5,0c0,2.209,1.791,4,4,4s4-1.791,4-4-1.791-4-4-4-4,1.791-4,4Zm-11.525,0c0,2.209,1.791,4,4,4s4-1.791,4-4-1.791-4-4-4-4,1.791-4,4Zm-11.525,0c0,2.209,1.791,4,4,4s4-1.791,4-4-1.791-4-4-4-4,1.791-4,4Zm-11.525,0c0,2.209,1.791,4,4,4s4-1.791,4-4-1.791-4-4-4-4,1.791-4,4Zm-11.525,0c0,2.209,1.791,4,4,4s4-1.791,4-4-1.791-4-4-4-4,1.791-4,4Zm-11.525,0c0,2.209,1.791,4,4,4s4-1.791,4-4-1.791-4-4-4-4,1.791-4,4Zm-11.525,0c0,2.209,1.791,4,4,4s4-1.791,4-4-1.791-4-4-4-4,1.791-4,4Zm-11.525,0c0,2.209,1.791,4,4,4s4-1.791,4-4-1.791-4-4-4-4,1.791-4,4Zm-11.525,0c0,2.209,1.791,4,4,4s4-1.791,4-4-1.791-4-4-4-4,1.791-4,4Zm-11.525,0c0,2.209,1.791,4,4,4s4-1.791,4-4-1.791-4-4-4-4,1.791-4,4Zm437.95-11.538c0,2.209,1.791,4,4,4s4-1.791,4-4-1.791-4-4-4-4,1.791-4,4Zm-11.525,0c0,2.209,1.791,4,4,4s4-1.791,4-4-1.791-4-4-4-4,1.791-4,4Zm-11.525,0c0,2.209,1.791,4,4,4s4-1.791,4-4-1.791-4-4-4-4,1.791-4,4Zm-11.525,0c0,2.209,1.791,4,4,4s4-1.791,4-4-1.791-4-4-4-4,1.791-4,4Zm-11.525,0c0,2.209,1.791,4,4,4s4-1.791,4-4-1.791-4-4-4-4,1.791-4,4Zm-11.525,0c0,2.209,1.791,4,4,4s4-1.791,4-4-1.791-4-4-4-4,1.791-4,4Zm-11.525,0c0,2.209,1.791,4,4,4s4-1.791,4-4-1.791-4-4-4-4,1.791-4,4Zm-11.525,0c0,2.209,1.791,4,4,4s4-1.791,4-4-1.791-4-4-4-4,1.791-4,4Zm-11.525,0c0,2.209,1.791,4,4,4s4-1.791,4-4-1.791-4-4-4-4,1.791-4,4Zm-11.525,0c0,2.209,1.791,4,4,4s4-1.791,4-4-1.791-4-4-4-4,1.791-4,4Zm-230.5,0c0,2.209,1.791,4,4,4s4-1.791,4-4-1.791-4-4-4-4,1.791-4,4Zm-11.525,0c0,2.209,1.791,4,4,4s4-1.791,4-4-1.791-4-4-4-4,1.791-4,4Zm-11.525,0c0,2.209,1.791,4,4,4s4-1.791,4-4-1.791-4-4-4-4,1.791-4,4Zm-11.525,0c0,2.209,1.791,4,4,4s4-1.791,4-4-1.791-4-4-4-4,1.791-4,4Zm-11.525,0c0,2.209,1.791,4,4,4s4-1.791,4-4-1.791-4-4-4-4,1.791-4,4Zm-11.525,0c0,2.209,1.791,4,4,4s4-1.791,4-4-1.791-4-4-4-4,1.791-4,4Zm-11.525,0c0,2.209,1.791,4,4,4s4-1.791,4-4-1.791-4-4-4-4,1.791-4,4Zm-11.525,0c0,2.209,1.791,4,4,4s4-1.791,4-4-1.791-4-4-4-4,1.791-4,4Zm-11.525,0c0,2.209,1.791,4,4,4s4-1.791,4-4-1.791-4-4-4-4,1.791-4,4Zm-11.525,0c0,2.209,1.791,4,4,4s4-1.791,4-4-1.791-4-4-4-4,1.791-4,4Zm437.95-11.538c0,2.209,1.791,4,4,4s4-1.791,4-4-1.791-4-4-4-4,1.791-4,4Zm-11.525,0c0,2.209,1.791,4,4,4s4-1.791,4-4-1.791-4-4-4-4,1.791-4,4Zm-11.525,0c0,2.209,1.791,4,4,4s4-1.791,4-4-1.791-4-4-4-4,1.791-4,4Zm-11.525,0c0,2.209,1.791,4,4,4s4-1.791,4-4-1.791-4-4-4-4,1.791-4,4Zm-11.525,0c0,2.209,1.791,4,4,4s4-1.791,4-4-1.791-4-4-4-4,1.791-4,4Zm-11.525,0c0,2.209,1.791,4,4,4s4-1.791,4-4-1.791-4-4-4-4,1.791-4,4Zm-11.525,0c0,2.209,1.791,4,4,4s4-1.791,4-4-1.791-4-4-4-4,1.791-4,4Zm-11.525,0c0,2.209,1.791,4,4,4s4-1.791,4-4-1.791-4-4-4-4,1.791-4,4Zm-11.525,0c0,2.209,1.791,4,4,4s4-1.791,4-4-1.791-4-4-4-4,1.791-4,4Zm-11.525,0c0,2.209,1.791,4,4,4s4-1.791,4-4-1.791-4-4-4-4,1.791-4,4Zm-11.525,0c0,2.209,1.791,4,4,4s4-1.791,4-4-1.791-4-4-4-4,1.791-4,4Zm-218.975,0c0,2.209,1.791,4,4,4s4-1.791,4-4-1.791-4-4-4-4,1.791-4,4Zm-11.525,0c0,2.209,1.791,4,4,4s4-1.791,4-4-1.791-4-4-4-4,1.791-4,4Zm-11.525,0c0,2.209,1.791,4,4,4s4-1.791,4-4-1.791-4-4-4-4,1.791-4,4Zm-11.525,0c0,2.209,1.791,4,4,4s4-1.791,4-4-1.791-4-4-4-4,1.791-4,4Zm-11.525,0c0,2.209,1.791,4,4,4s4-1.791,4-4-1.791-4-4-4-4,1.791-4,4Zm-11.525,0c0,2.209,1.791,4,4,4s4-1.791,4-4-1.791-4-4-4-4,1.791-4,4Zm-11.525,0c0,2.209,1.791,4,4,4s4-1.791,4-4-1.791-4-4-4-4,1.791-4,4Zm-11.525,0c0,2.209,1.791,4,4,4s4-1.791,4-4-1.791-4-4-4-4,1.791-4,4Zm-11.525,0c0,2.209,1.791,4,4,4s4-1.791,4-4-1.791-4-4-4-4,1.791-4,4Zm-11.525,0c0,2.209,1.791,4,4,4s4-1.791,4-4-1.791-4-4-4-4,1.791-4,4Zm437.95-11.538c0,2.209,1.791,4,4,4s4-1.791,4-4-1.791-4-4-4-4,1.791-4,4Zm-11.525,0c0,2.209,1.791,4,4,4s4-1.791,4-4-1.791-4-4-4-4,1.791-4,4Zm-11.525,0c0,2.209,1.791,4,4,4s4-1.791,4-4-1.791-4-4-4-4,1.791-4,4Zm-11.525,0c0,2.209,1.791,4,4,4s4-1.791,4-4-1.791-4-4-4-4,1.791-4,4Zm-11.525,0c0,2.209,1.791,4,4,4s4-1.791,4-4-1.791-4-4-4-4,1.791-4,4Zm-11.525,0c0,2.209,1.791,4,4,4s4-1.791,4-4-1.791-4-4-4-4,1.791-4,4Zm-11.525,0c0,2.209,1.791,4,4,4s4-1.791,4-4-1.791-4-4-4-4,1.791-4,4Zm-11.525,0c0,2.209,1.791,4,4,4s4-1.791,4-4-1.791-4-4-4-4,1.791-4,4Zm-11.525,0c0,2.209,1.791,4,4,4s4-1.791,4-4-1.791-4-4-4-4,1.791-4,4Zm-11.525,0c0,2.209,1.791,4,4,4s4-1.791,4-4-1.791-4-4-4-4,1.791-4,4Zm-11.525,0c0,2.209,1.791,4,4,4s4-1.791,4-4-1.791-4-4-4-4,1.791-4,4Zm-11.525,0c0,2.209,1.791,4,4,4s4-1.791,4-4-1.791-4-4-4-4,1.791-4,4Zm-207.45,0c0,2.209,1.791,4,4,4s4-1.791,4-4-1.791-4-4-4-4,1.791-4,4Zm-11.525,0c0,2.209,1.791,4,4,4s4-1.791,4-4-1.791-4-4-4-4,1.791-4,4Zm-11.525,0c0,2.209,1.791,4,4,4s4-1.791,4-4-1.791-4-4-4-4,1.791-4,4Zm-11.525,0c0,2.209,1.791,4,4,4s4-1.791,4-4-1.791-4-4-4-4,1.791-4,4Zm-11.525,0c0,2.209,1.791,4,4,4s4-1.791,4-4-1.791-4-4-4-4,1.791-4,4Zm-11.525,0c0,2.209,1.791,4,4,4s4-1.791,4-4-1.791-4-4-4-4,1.791-4,4Zm-11.525,0c0,2.209,1.791,4,4,4s4-1.791,4-4-1.791-4-4-4-4,1.791-4,4Zm-11.525,0c0,2.209,1.791,4,4,4s4-1.791,4-4-1.791-4-4-4-4,1.791-4,4Zm-11.525,0c0,2.209,1.791,4,4,4s4-1.791,4-4-1.791-4-4-4-4,1.791-4,4Zm-11.525,0c0,2.209,1.791,4,4,4s4-1.791,4-4-1.791-4-4-4-4,1.791-4,4Zm426.425-11.538c0,2.209,1.791,4,4,4s4-1.791,4-4-1.791-4-4-4-4,1.791-4,4Zm-11.525,0c0,2.209,1.791,4,4,4s4-1.791,4-4-1.791-4-4-4-4,1.791-4,4Zm-11.525,0c0,2.209,1.791,4,4,4s4-1.791,4-4-1.791-4-4-4-4,1.791-4,4Zm-11.525,0c0,2.209,1.791,4,4,4s4-1.791,4-4-1.791-4-4-4-4,1.791-4,4Zm-11.525,0c0,2.209,1.791,4,4,4s4-1.791,4-4-1.791-4-4-4-4,1.791-4,4Zm-11.525,0c0,2.209,1.791,4,4,4s4-1.791,4-4-1.791-4-4-4-4,1.791-4,4Zm-11.525,0c0,2.209,1.791,4,4,4s4-1.791,4-4-1.791-4-4-4-4,1.791-4,4Zm-11.525,0c0,2.209,1.791,4,4,4s4-1.791,4-4-1.791-4-4-4-4,1.791-4,4Zm-11.525,0c0,2.209,1.791,4,4,4s4-1.791,4-4-1.791-4-4-4-4,1.791-4,4Zm-11.525,0c0,2.209,1.791,4,4,4s4-1.791,4-4-1.791-4-4-4-4,1.791-4,4Zm-11.525,0c0,2.209,1.791,4,4,4s4-1.791,4-4-1.791-4-4-4-4,1.791-4,4Zm-207.45,0c0,2.209,1.791,4,4,4s4-1.791,4-4-1.791-4-4-4-4,1.791-4,4Zm-11.525,0c0,2.209,1.791,4,4,4s4-1.791,4-4-1.791-4-4-4-4,1.791-4,4Zm-11.525,0c0,2.209,1.791,4,4,4s4-1.791,4-4-1.791-4-4-4-4,1.791-4,4Zm-11.525,0c0,2.209,1.791,4,4,4s4-1.791,4-4-1.791-4-4-4-4,1.791-4,4Zm-11.525,0c0,2.209,1.791,4,4,4s4-1.791,4-4-1.791-4-4-4-4,1.791-4,4Zm-11.525,0c0,2.209,1.791,4,4,4s4-1.791,4-4-1.791-4-4-4-4,1.791-4,4Zm-11.525,0c0,2.209,1.791,4,4,4s4-1.791,4-4-1.791-4-4-4-4,1.791-4,4Zm-11.525,0c0,2.209,1.791,4,4,4s4-1.791,4-4-1.791-4-4-4-4,1.791-4,4Zm-11.525,0c0,2.209,1.791,4,4,4s4-1.791,4-4-1.791-4-4-4-4,1.791-4,4Zm-11.525,0c0,2.209,1.791,4,4,4s4-1.791,4-4-1.791-4-4-4-4,1.791-4,4Zm426.425-11.538c0,2.209,1.791,4,4,4s4-1.791,4-4-1.791-4-4-4-4,1.791-4,4Zm-11.525,0c0,2.209,1.791,4,4,4s4-1.791,4-4-1.791-4-4-4-4,1.791-4,4Zm-11.525,0c0,2.209,1.791,4,4,4s4-1.791,4-4-1.791-4-4-4-4,1.791-4,4Zm-11.525,0c0,2.209,1.791,4,4,4s4-1.791,4-4-1.791-4-4-4-4,1.791-4,4Zm-11.525,0c0,2.209,1.791,4,4,4s4-1.791,4-4-1.791-4-4-4-4,1.791-4,4Zm-11.525,0c0,2.209,1.791,4,4,4s4-1.791,4-4-1.791-4-4-4-4,1.791-4,4Zm-11.525,0c0,2.209,1.791,4,4,4s4-1.791,4-4-1.791-4-4-4-4,1.791-4,4Zm-11.525,0c0,2.209,1.791,4,4,4s4-1.791,4-4-1.791-4-4-4-4,1.791-4,4Zm-11.525,0c0,2.209,1.791,4,4,4s4-1.791,4-4-1.791-4-4-4-4,1.791-4,4Zm-11.525,0c0,2.209,1.791,4,4,4s4-1.791,4-4-1.791-4-4-4-4,1.791-4,4Zm-11.525,0c0,2.209,1.791,4,4,4s4-1.791,4-4-1.791-4-4-4-4,1.791-4,4Zm-11.525,0c0,2.209,1.791,4,4,4s4-1.791,4-4-1.791-4-4-4-4,1.791-4,4Zm-195.925,0c0,2.209,1.791,4,4,4s4-1.791,4-4-1.791-4-4-4-4,1.791-4,4Zm-11.525,0c0,2.209,1.791,4,4,4s4-1.791,4-4-1.791-4-4-4-4,1.791-4,4Zm-11.525,0c0,2.209,1.791,4,4,4s4-1.791,4-4-1.791-4-4-4-4,1.791-4,4Zm-11.525,0c0,2.209,1.791,4,4,4s4-1.791,4-4-1.791-4-4-4-4,1.791-4,4Zm-11.525,0c0,2.209,1.791,4,4,4s4-1.791,4-4-1.791-4-4-4-4,1.791-4,4Zm-11.525,0c0,2.209,1.791,4,4,4s4-1.791,4-4-1.791-4-4-4-4,1.791-4,4Zm-11.525,0c0,2.209,1.791,4,4,4s4-1.791,4-4-1.791-4-4-4-4,1.791-4,4Zm-11.525,0c0,2.209,1.791,4,4,4s4-1.791,4-4-1.791-4-4-4-4,1.791-4,4Zm-11.525,0c0,2.209,1.791,4,4,4s4-1.791,4-4-1.791-4-4-4-4,1.791-4,4Zm-11.525,0c0,2.209,1.791,4,4,4s4-1.791,4-4-1.791-4-4-4-4,1.791-4,4Zm426.425-11.538c0,2.209,1.791,4,4,4s4-1.791,4-4-1.791-4-4-4-4,1.791-4,4Zm-11.525,0c0,2.209,1.791,4,4,4s4-1.791,4-4-1.791-4-4-4-4,1.791-4,4Zm-11.525,0c0,2.209,1.791,4,4,4s4-1.791,4-4-1.791-4-4-4-4,1.791-4,4Zm-11.525,0c0,2.209,1.791,4,4,4s4-1.791,4-4-1.791-4-4-4-4,1.791-4,4Zm-11.525,0c0,2.209,1.791,4,4,4s4-1.791,4-4-1.791-4-4-4-4,1.791-4,4Zm-11.525,0c0,2.209,1.791,4,4,4s4-1.791,4-4-1.791-4-4-4-4,1.791-4,4Zm-11.525,0c0,2.209,1.791,4,4,4s4-1.791,4-4-1.791-4-4-4-4,1.791-4,4Zm-11.525,0c0,2.209,1.791,4,4,4s4-1.791,4-4-1.791-4-4-4-4,1.791-4,4Zm-11.525,0c0,2.209,1.791,4,4,4s4-1.791,4-4-1.791-4-4-4-4,1.791-4,4Zm-11.525,0c0,2.209,1.791,4,4,4s4-1.791,4-4-1.791-4-4-4-4,1.791-4,4Zm-11.525,0c0,2.209,1.791,4,4,4s4-1.791,4-4-1.791-4-4-4-4,1.791-4,4Zm-11.525,0c0,2.209,1.791,4,4,4s4-1.791,4-4-1.791-4-4-4-4,1.791-4,4Zm-11.525,0c0,2.209,1.791,4,4,4s4-1.791,4-4-1.791-4-4-4-4,1.791-4,4Zm-184.4,0c0,2.209,1.791,4,4,4s4-1.791,4-4-1.791-4-4-4-4,1.791-4,4Zm-11.525,0c0,2.209,1.791,4,4,4s4-1.791,4-4-1.791-4-4-4-4,1.791-4,4Zm-11.525,0c0,2.209,1.791,4,4,4s4-1.791,4-4-1.791-4-4-4-4,1.791-4,4Zm-11.525,0c0,2.209,1.791,4,4,4s4-1.791,4-4-1.791-4-4-4-4,1.791-4,4Zm-11.525,0c0,2.209,1.791,4,4,4s4-1.791,4-4-1.791-4-4-4-4,1.791-4,4Zm-11.525,0c0,2.209,1.791,4,4,4s4-1.791,4-4-1.791-4-4-4-4,1.791-4,4Zm-11.525,0c0,2.209,1.791,4,4,4s4-1.791,4-4-1.791-4-4-4-4,1.791-4,4Zm-11.525,0c0,2.209,1.791,4,4,4s4-1.791,4-4-1.791-4-4-4-4,1.791-4,4Zm-11.525,0c0,2.209,1.791,4,4,4s4-1.791,4-4-1.791-4-4-4-4,1.791-4,4Zm-11.525,0c0,2.209,1.791,4,4,4s4-1.791,4-4-1.791-4-4-4-4,1.791-4,4Zm414.9-11.538c0,2.209,1.791,4,4,4s4-1.791,4-4-1.791-4-4-4-4,1.791-4,4Zm-11.525,0c0,2.209,1.791,4,4,4s4-1.791,4-4-1.791-4-4-4-4,1.791-4,4Zm-11.525,0c0,2.209,1.791,4,4,4s4-1.791,4-4-1.791-4-4-4-4,1.791-4,4Zm-11.525,0c0,2.209,1.791,4,4,4s4-1.791,4-4-1.791-4-4-4-4,1.791-4,4Zm-11.525,0c0,2.209,1.791,4,4,4s4-1.791,4-4-1.791-4-4-4-4,1.791-4,4Zm-11.525,0c0,2.209,1.791,4,4,4s4-1.791,4-4-1.791-4-4-4-4,1.791-4,4Zm-11.525,0c0,2.209,1.791,4,4,4s4-1.791,4-4-1.791-4-4-4-4,1.791-4,4Zm-11.525,0c0,2.209,1.791,4,4,4s4-1.791,4-4-1.791-4-4-4-4,1.791-4,4Zm-11.525,0c0,2.209,1.791,4,4,4s4-1.791,4-4-1.791-4-4-4-4,1.791-4,4Zm-11.525,0c0,2.209,1.791,4,4,4s4-1.791,4-4-1.791-4-4-4-4,1.791-4,4Zm-11.525,0c0,2.209,1.791,4,4,4s4-1.791,4-4-1.791-4-4-4-4,1.791-4,4Zm-11.525,0c0,2.209,1.791,4,4,4s4-1.791,4-4-1.791-4-4-4-4,1.791-4,4Zm-11.525,0c0,2.209,1.791,4,4,4s4-1.791,4-4-1.791-4-4-4-4,1.791-4,4Zm-172.875,0c0,2.209,1.791,4,4,4s4-1.791,4-4-1.791-4-4-4-4,1.791-4,4Zm-11.525,0c0,2.209,1.791,4,4,4s4-1.791,4-4-1.791-4-4-4-4,1.791-4,4Zm-11.525,0c0,2.209,1.791,4,4,4s4-1.791,4-4-1.791-4-4-4-4,1.791-4,4Zm-11.525,0c0,2.209,1.791,4,4,4s4-1.791,4-4-1.791-4-4-4-4,1.791-4,4Zm-11.525,0c0,2.209,1.791,4,4,4s4-1.791,4-4-1.791-4-4-4-4,1.791-4,4Zm-11.525,0c0,2.209,1.791,4,4,4s4-1.791,4-4-1.791-4-4-4-4,1.791-4,4Zm-11.525,0c0,2.209,1.791,4,4,4s4-1.791,4-4-1.791-4-4-4-4,1.791-4,4Zm-11.525,0c0,2.209,1.791,4,4,4s4-1.791,4-4-1.791-4-4-4-4,1.791-4,4Zm-11.525,0c0,2.209,1.791,4,4,4s4-1.791,4-4-1.791-4-4-4-4,1.791-4,4Zm-11.525,0c0,2.209,1.791,4,4,4s4-1.791,4-4-1.791-4-4-4-4,1.791-4,4Zm414.9-11.538c0,2.209,1.791,4,4,4s4-1.791,4-4-1.791-4-4-4-4,1.791-4,4Zm-11.525,0c0,2.209,1.791,4,4,4s4-1.791,4-4-1.791-4-4-4-4,1.791-4,4Zm-11.525,0c0,2.209,1.791,4,4,4s4-1.791,4-4-1.791-4-4-4-4,1.791-4,4Zm-11.525,0c0,2.209,1.791,4,4,4s4-1.791,4-4-1.791-4-4-4-4,1.791-4,4Zm-11.525,0c0,2.209,1.791,4,4,4s4-1.791,4-4-1.791-4-4-4-4,1.791-4,4Zm-11.525,0c0,2.209,1.791,4,4,4s4-1.791,4-4-1.791-4-4-4-4,1.791-4,4Zm-11.525,0c0,2.209,1.791,4,4,4s4-1.791,4-4-1.791-4-4-4-4,1.791-4,4Zm-11.525,0c0,2.209,1.791,4,4,4s4-1.791,4-4-1.791-4-4-4-4,1.791-4,4Zm-11.525,0c0,2.209,1.791,4,4,4s4-1.791,4-4-1.791-4-4-4-4,1.791-4,4Zm-11.525,0c0,2.209,1.791,4,4,4s4-1.791,4-4-1.791-4-4-4-4,1.791-4,4Zm-11.525,0c0,2.209,1.791,4,4,4s4-1.791,4-4-1.791-4-4-4-4,1.791-4,4Zm-11.525,0c0,2.209,1.791,4,4,4s4-1.791,4-4-1.791-4-4-4-4,1.791-4,4Zm-11.525,0c0,2.209,1.791,4,4,4s4-1.791,4-4-1.791-4-4-4-4,1.791-4,4Zm-11.525,0c0,2.209,1.791,4,4,4s4-1.791,4-4-1.791-4-4-4-4,1.791-4,4Zm-161.35,0c0,2.209,1.791,4,4,4s4-1.791,4-4-1.791-4-4-4-4,1.791-4,4Zm-11.525,0c0,2.209,1.791,4,4,4s4-1.791,4-4-1.791-4-4-4-4,1.791-4,4Zm-11.525,0c0,2.209,1.791,4,4,4s4-1.791,4-4-1.791-4-4-4-4,1.791-4,4Zm-11.525,0c0,2.209,1.791,4,4,4s4-1.791,4-4-1.791-4-4-4-4,1.791-4,4Zm-11.525,0c0,2.209,1.791,4,4,4s4-1.791,4-4-1.791-4-4-4-4,1.791-4,4Zm-11.525,0c0,2.209,1.791,4,4,4s4-1.791,4-4-1.791-4-4-4-4,1.791-4,4Zm-11.525,0c0,2.209,1.791,4,4,4s4-1.791,4-4-1.791-4-4-4-4,1.791-4,4Zm-11.525,0c0,2.209,1.791,4,4,4s4-1.791,4-4-1.791-4-4-4-4,1.791-4,4Zm-11.525,0c0,2.209,1.791,4,4,4s4-1.791,4-4-1.791-4-4-4-4,1.791-4,4Zm-11.525,0c0,2.209,1.791,4,4,4s4-1.791,4-4-1.791-4-4-4-4,1.791-4,4Zm403.375-11.538c0,2.209,1.791,4,4,4s4-1.791,4-4-1.791-4-4-4-4,1.791-4,4Zm-11.525,0c0,2.209,1.791,4,4,4s4-1.791,4-4-1.791-4-4-4-4,1.791-4,4Zm-11.525,0c0,2.209,1.791,4,4,4s4-1.791,4-4-1.791-4-4-4-4,1.791-4,4Zm-11.525,0c0,2.209,1.791,4,4,4s4-1.791,4-4-1.791-4-4-4-4,1.791-4,4Zm-11.525,0c0,2.209,1.791,4,4,4s4-1.791,4-4-1.791-4-4-4-4,1.791-4,4Zm-11.525,0c0,2.209,1.791,4,4,4s4-1.791,4-4-1.791-4-4-4-4,1.791-4,4Zm-11.525,0c0,2.209,1.791,4,4,4s4-1.791,4-4-1.791-4-4-4-4,1.791-4,4Zm-11.525,0c0,2.209,1.791,4,4,4s4-1.791,4-4-1.791-4-4-4-4,1.791-4,4Zm-11.525,0c0,2.209,1.791,4,4,4s4-1.791,4-4-1.791-4-4-4-4,1.791-4,4Zm-11.525,0c0,2.209,1.791,4,4,4s4-1.791,4-4-1.791-4-4-4-4,1.791-4,4Zm-11.525,0c0,2.209,1.791,4,4,4s4-1.791,4-4-1.791-4-4-4-4,1.791-4,4Zm-11.525,0c0,2.209,1.791,4,4,4s4-1.791,4-4-1.791-4-4-4-4,1.791-4,4Zm-11.525,0c0,2.209,1.791,4,4,4s4-1.791,4-4-1.791-4-4-4-4,1.791-4,4Zm-11.525,0c0,2.209,1.791,4,4,4s4-1.791,4-4-1.791-4-4-4-4,1.791-4,4Zm-149.825,0c0,2.209,1.791,4,4,4s4-1.791,4-4-1.791-4-4-4-4,1.791-4,4Zm-11.525,0c0,2.209,1.791,4,4,4s4-1.791,4-4-1.791-4-4-4-4,1.791-4,4Zm-11.525,0c0,2.209,1.791,4,4,4s4-1.791,4-4-1.791-4-4-4-4,1.791-4,4Zm-11.525,0c0,2.209,1.791,4,4,4s4-1.791,4-4-1.791-4-4-4-4,1.791-4,4Zm-11.525,0c0,2.209,1.791,4,4,4s4-1.791,4-4-1.791-4-4-4-4,1.791-4,4Zm-11.525,0c0,2.209,1.791,4,4,4s4-1.791,4-4-1.791-4-4-4-4,1.791-4,4Zm-11.525,0c0,2.209,1.791,4,4,4s4-1.791,4-4-1.791-4-4-4-4,1.791-4,4Zm-11.525,0c0,2.209,1.791,4,4,4s4-1.791,4-4-1.791-4-4-4-4,1.791-4,4Zm-11.525,0c0,2.209,1.791,4,4,4s4-1.791,4-4-1.791-4-4-4-4,1.791-4,4Zm-11.525,0c0,2.209,1.791,4,4,4s4-1.791,4-4-1.791-4-4-4-4,1.791-4,4Zm391.85-11.538c0,2.209,1.791,4,4,4s4-1.791,4-4-1.791-4-4-4-4,1.791-4,4Zm-11.525,0c0,2.209,1.791,4,4,4s4-1.791,4-4-1.791-4-4-4-4,1.791-4,4Zm-11.525,0c0,2.209,1.791,4,4,4s4-1.791,4-4-1.791-4-4-4-4,1.791-4,4Zm-11.525,0c0,2.209,1.791,4,4,4s4-1.791,4-4-1.791-4-4-4-4,1.791-4,4Zm-11.525,0c0,2.209,1.791,4,4,4s4-1.791,4-4-1.791-4-4-4-4,1.791-4,4Zm-11.525,0c0,2.209,1.791,4,4,4s4-1.791,4-4-1.791-4-4-4-4,1.791-4,4Zm-11.525,0c0,2.209,1.791,4,4,4s4-1.791,4-4-1.791-4-4-4-4,1.791-4,4Zm-11.525,0c0,2.209,1.791,4,4,4s4-1.791,4-4-1.791-4-4-4-4,1.791-4,4Zm-11.525,0c0,2.209,1.791,4,4,4s4-1.791,4-4-1.791-4-4-4-4,1.791-4,4Zm-11.525,0c0,2.209,1.791,4,4,4s4-1.791,4-4-1.791-4-4-4-4,1.791-4,4Zm-11.525,0c0,2.209,1.791,4,4,4s4-1.791,4-4-1.791-4-4-4-4,1.791-4,4Zm-11.525,0c0,2.209,1.791,4,4,4s4-1.791,4-4-1.791-4-4-4-4,1.791-4,4Zm-11.525,0c0,2.209,1.791,4,4,4s4-1.791,4-4-1.791-4-4-4-4,1.791-4,4Zm-11.525,0c0,2.209,1.791,4,4,4s4-1.791,4-4-1.791-4-4-4-4,1.791-4,4Zm-11.525,0c0,2.209,1.791,4,4,4s4-1.791,4-4-1.791-4-4-4-4,1.791-4,4Zm-11.525,0c0,2.209,1.791,4,4,4s4-1.791,4-4-1.791-4-4-4-4,1.791-4,4Zm-11.525,0c0,2.209,1.791,4,4,4s4-1.791,4-4-1.791-4-4-4-4,1.791-4,4Zm-11.525,0c0,2.209,1.791,4,4,4s4-1.791,4-4-1.791-4-4-4-4,1.791-4,4Zm-92.2,0c0,2.209,1.791,4,4,4s4-1.791,4-4-1.791-4-4-4-4,1.791-4,4Zm-11.525,0c0,2.209,1.791,4,4,4s4-1.791,4-4-1.791-4-4-4-4,1.791-4,4Zm-11.525,0c0,2.209,1.791,4,4,4s4-1.791,4-4-1.791-4-4-4-4,1.791-4,4Zm-11.525,0c0,2.209,1.791,4,4,4s4-1.791,4-4-1.791-4-4-4-4,1.791-4,4Zm-11.525,0c0,2.209,1.791,4,4,4s4-1.791,4-4-1.791-4-4-4-4,1.791-4,4Zm-11.525,0c0,2.209,1.791,4,4,4s4-1.791,4-4-1.791-4-4-4-4,1.791-4,4Zm-11.525,0c0,2.209,1.791,4,4,4s4-1.791,4-4-1.791-4-4-4-4,1.791-4,4Zm-11.525,0c0,2.209,1.791,4,4,4s4-1.791,4-4-1.791-4-4-4-4,1.791-4,4Zm-11.525,0c0,2.209,1.791,4,4,4s4-1.791,4-4-1.791-4-4-4-4,1.791-4,4Zm-11.525,0c0,2.209,1.791,4,4,4s4-1.791,4-4-1.791-4-4-4-4,1.791-4,4Zm380.325-11.538c0,2.209,1.791,4,4,4s4-1.791,4-4-1.791-4-4-4-4,1.791-4,4Zm-11.525,0c0,2.209,1.791,4,4,4s4-1.791,4-4-1.791-4-4-4-4,1.791-4,4Zm-11.525,0c0,2.209,1.791,4,4,4s4-1.791,4-4-1.791-4-4-4-4,1.791-4,4Zm-11.525,0c0,2.209,1.791,4,4,4s4-1.791,4-4-1.791-4-4-4-4,1.791-4,4Zm-11.525,0c0,2.209,1.791,4,4,4s4-1.791,4-4-1.791-4-4-4-4,1.791-4,4Zm-11.525,0c0,2.209,1.791,4,4,4s4-1.791,4-4-1.791-4-4-4-4,1.791-4,4Zm-11.525,0c0,2.209,1.791,4,4,4s4-1.791,4-4-1.791-4-4-4-4,1.791-4,4Zm-11.525,0c0,2.209,1.791,4,4,4s4-1.791,4-4-1.791-4-4-4-4,1.791-4,4Zm-11.525,0c0,2.209,1.791,4,4,4s4-1.791,4-4-1.791-4-4-4-4,1.791-4,4Zm-11.525,0c0,2.209,1.791,4,4,4s4-1.791,4-4-1.791-4-4-4-4,1.791-4,4Zm-11.525,0c0,2.209,1.791,4,4,4s4-1.791,4-4-1.791-4-4-4-4,1.791-4,4Zm-11.525,0c0,2.209,1.791,4,4,4s4-1.791,4-4-1.791-4-4-4-4,1.791-4,4Zm-11.525,0c0,2.209,1.791,4,4,4s4-1.791,4-4-1.791-4-4-4-4,1.791-4,4Zm-11.525,0c0,2.209,1.791,4,4,4s4-1.791,4-4-1.791-4-4-4-4,1.791-4,4Zm-11.525,0c0,2.209,1.791,4,4,4s4-1.791,4-4-1.791-4-4-4-4,1.791-4,4Zm-11.525,0c0,2.209,1.791,4,4,4s4-1.791,4-4-1.791-4-4-4-4,1.791-4,4Zm-11.525,0c0,2.209,1.791,4,4,4s4-1.791,4-4-1.791-4-4-4-4,1.791-4,4Zm-11.525,0c0,2.209,1.791,4,4,4s4-1.791,4-4-1.791-4-4-4-4,1.791-4,4Zm-11.525,0c0,2.209,1.791,4,4,4s4-1.791,4-4-1.791-4-4-4-4,1.791-4,4Zm-11.525,0c0,2.209,1.791,4,4,4s4-1.791,4-4-1.791-4-4-4-4,1.791-4,4Zm-11.525,0c0,2.209,1.791,4,4,4s4-1.791,4-4-1.791-4-4-4-4,1.791-4,4Zm-11.525,0c0,2.209,1.791,4,4,4s4-1.791,4-4-1.791-4-4-4-4,1.791-4,4Zm-11.525,0c0,2.209,1.791,4,4,4s4-1.791,4-4-1.791-4-4-4-4,1.791-4,4Zm-11.525,0c0,2.209,1.791,4,4,4s4-1.791,4-4-1.791-4-4-4-4,1.791-4,4Zm-11.525,0c0,2.209,1.791,4,4,4s4-1.791,4-4-1.791-4-4-4-4,1.791-4,4Zm-11.525,0c0,2.209,1.791,4,4,4s4-1.791,4-4-1.791-4-4-4-4,1.791-4,4Zm-11.525,0c0,2.209,1.791,4,4,4s4-1.791,4-4-1.791-4-4-4-4,1.791-4,4Zm-11.525,0c0,2.209,1.791,4,4,4s4-1.791,4-4-1.791-4-4-4-4,1.791-4,4Zm-11.525,0c0,2.209,1.791,4,4,4s4-1.791,4-4-1.791-4-4-4-4,1.791-4,4Zm-11.525,0c0,2.209,1.791,4,4,4s4-1.791,4-4-1.791-4-4-4-4,1.791-4,4Zm-11.525,0c0,2.209,1.791,4,4,4s4-1.791,4-4-1.791-4-4-4-4,1.791-4,4Zm-11.525,0c0,2.209,1.791,4,4,4s4-1.791,4-4-1.791-4-4-4-4,1.791-4,4Zm-11.525,0c0,2.209,1.791,4,4,4s4-1.791,4-4-1.791-4-4-4-4,1.791-4,4Zm-11.525,0c0,2.209,1.791,4,4,4s4-1.791,4-4-1.791-4-4-4-4,1.791-4,4Zm368.8-11.538c0,2.209,1.791,4,4,4s4-1.791,4-4-1.791-4-4-4-4,1.791-4,4Zm-11.525,0c0,2.209,1.791,4,4,4s4-1.791,4-4-1.791-4-4-4-4,1.791-4,4Zm-11.525,0c0,2.209,1.791,4,4,4s4-1.791,4-4-1.791-4-4-4-4,1.791-4,4Zm-11.525,0c0,2.209,1.791,4,4,4s4-1.791,4-4-1.791-4-4-4-4,1.791-4,4Zm-11.525,0c0,2.209,1.791,4,4,4s4-1.791,4-4-1.791-4-4-4-4,1.791-4,4Zm-11.525,0c0,2.209,1.791,4,4,4s4-1.791,4-4-1.791-4-4-4-4,1.791-4,4Zm-11.525,0c0,2.209,1.791,4,4,4s4-1.791,4-4-1.791-4-4-4-4,1.791-4,4Zm-11.525,0c0,2.209,1.791,4,4,4s4-1.791,4-4-1.791-4-4-4-4,1.791-4,4Zm-11.525,0c0,2.209,1.791,4,4,4s4-1.791,4-4-1.791-4-4-4-4,1.791-4,4Zm-11.525,0c0,2.209,1.791,4,4,4s4-1.791,4-4-1.791-4-4-4-4,1.791-4,4Zm-11.525,0c0,2.209,1.791,4,4,4s4-1.791,4-4-1.791-4-4-4-4,1.791-4,4Zm-11.525,0c0,2.209,1.791,4,4,4s4-1.791,4-4-1.791-4-4-4-4,1.791-4,4Zm-11.525,0c0,2.209,1.791,4,4,4s4-1.791,4-4-1.791-4-4-4-4,1.791-4,4Zm-11.525,0c0,2.209,1.791,4,4,4s4-1.791,4-4-1.791-4-4-4-4,1.791-4,4Zm-11.525,0c0,2.209,1.791,4,4,4s4-1.791,4-4-1.791-4-4-4-4,1.791-4,4Zm-11.525,0c0,2.209,1.791,4,4,4s4-1.791,4-4-1.791-4-4-4-4,1.791-4,4Zm-11.525,0c0,2.209,1.791,4,4,4s4-1.791,4-4-1.791-4-4-4-4,1.791-4,4Zm-11.525,0c0,2.209,1.791,4,4,4s4-1.791,4-4-1.791-4-4-4-4,1.791-4,4Zm-11.525,0c0,2.209,1.791,4,4,4s4-1.791,4-4-1.791-4-4-4-4,1.791-4,4Zm-11.525,0c0,2.209,1.791,4,4,4s4-1.791,4-4-1.791-4-4-4-4,1.791-4,4Zm-11.525,0c0,2.209,1.791,4,4,4s4-1.791,4-4-1.791-4-4-4-4,1.791-4,4Zm-11.525,0c0,2.209,1.791,4,4,4s4-1.791,4-4-1.791-4-4-4-4,1.791-4,4Zm-11.525,0c0,2.209,1.791,4,4,4s4-1.791,4-4-1.791-4-4-4-4,1.791-4,4Zm-11.525,0c0,2.209,1.791,4,4,4s4-1.791,4-4-1.791-4-4-4-4,1.791-4,4Zm-11.525,0c0,2.209,1.791,4,4,4s4-1.791,4-4-1.791-4-4-4-4,1.791-4,4Zm-11.525,0c0,2.209,1.791,4,4,4s4-1.791,4-4-1.791-4-4-4-4,1.791-4,4Zm-11.525,0c0,2.209,1.791,4,4,4s4-1.791,4-4-1.791-4-4-4-4,1.791-4,4Zm-11.525,0c0,2.209,1.791,4,4,4s4-1.791,4-4-1.791-4-4-4-4,1.791-4,4Zm-11.525,0c0,2.209,1.791,4,4,4s4-1.791,4-4-1.791-4-4-4-4,1.791-4,4Zm-11.525,0c0,2.209,1.791,4,4,4s4-1.791,4-4-1.791-4-4-4-4,1.791-4,4Zm-11.525,0c0,2.209,1.791,4,4,4s4-1.791,4-4-1.791-4-4-4-4,1.791-4,4Zm-11.525,0c0,2.209,1.791,4,4,4s4-1.791,4-4-1.791-4-4-4-4,1.791-4,4Zm-11.525,0c0,2.209,1.791,4,4,4s4-1.791,4-4-1.791-4-4-4-4,1.791-4,4Zm357.275-11.538c0,2.209,1.791,4,4,4s4-1.791,4-4-1.791-4-4-4-4,1.791-4,4Zm-11.525,0c0,2.209,1.791,4,4,4s4-1.791,4-4-1.791-4-4-4-4,1.791-4,4Zm-11.525,0c0,2.209,1.791,4,4,4s4-1.791,4-4-1.791-4-4-4-4,1.791-4,4Zm-11.525,0c0,2.209,1.791,4,4,4s4-1.791,4-4-1.791-4-4-4-4,1.791-4,4Zm-11.525,0c0,2.209,1.791,4,4,4s4-1.791,4-4-1.791-4-4-4-4,1.791-4,4Zm-11.525,0c0,2.209,1.791,4,4,4s4-1.791,4-4-1.791-4-4-4-4,1.791-4,4Zm-11.525,0c0,2.209,1.791,4,4,4s4-1.791,4-4-1.791-4-4-4-4,1.791-4,4Zm-11.525,0c0,2.209,1.791,4,4,4s4-1.791,4-4-1.791-4-4-4-4,1.791-4,4Zm-11.525,0c0,2.209,1.791,4,4,4s4-1.791,4-4-1.791-4-4-4-4,1.791-4,4Zm-11.525,0c0,2.209,1.791,4,4,4s4-1.791,4-4-1.791-4-4-4-4,1.791-4,4Zm-11.525,0c0,2.209,1.791,4,4,4s4-1.791,4-4-1.791-4-4-4-4,1.791-4,4Zm-11.525,0c0,2.209,1.791,4,4,4s4-1.791,4-4-1.791-4-4-4-4,1.791-4,4Zm-11.525,0c0,2.209,1.791,4,4,4s4-1.791,4-4-1.791-4-4-4-4,1.791-4,4Zm-11.525,0c0,2.209,1.791,4,4,4s4-1.791,4-4-1.791-4-4-4-4,1.791-4,4Zm-11.525,0c0,2.209,1.791,4,4,4s4-1.791,4-4-1.791-4-4-4-4,1.791-4,4Zm-11.525,0c0,2.209,1.791,4,4,4s4-1.791,4-4-1.791-4-4-4-4,1.791-4,4Zm-11.525,0c0,2.209,1.791,4,4,4s4-1.791,4-4-1.791-4-4-4-4,1.791-4,4Zm-11.525,0c0,2.209,1.791,4,4,4s4-1.791,4-4-1.791-4-4-4-4,1.791-4,4Zm-11.525,0c0,2.209,1.791,4,4,4s4-1.791,4-4-1.791-4-4-4-4,1.791-4,4Zm-11.525,0c0,2.209,1.791,4,4,4s4-1.791,4-4-1.791-4-4-4-4,1.791-4,4Zm-11.525,0c0,2.209,1.791,4,4,4s4-1.791,4-4-1.791-4-4-4-4,1.791-4,4Zm-11.525,0c0,2.209,1.791,4,4,4s4-1.791,4-4-1.791-4-4-4-4,1.791-4,4Zm-11.525,0c0,2.209,1.791,4,4,4s4-1.791,4-4-1.791-4-4-4-4,1.791-4,4Zm-11.525,0c0,2.209,1.791,4,4,4s4-1.791,4-4-1.791-4-4-4-4,1.791-4,4Zm-11.525,0c0,2.209,1.791,4,4,4s4-1.791,4-4-1.791-4-4-4-4,1.791-4,4Zm-11.525,0c0,2.209,1.791,4,4,4s4-1.791,4-4-1.791-4-4-4-4,1.791-4,4Zm-11.525,0c0,2.209,1.791,4,4,4s4-1.791,4-4-1.791-4-4-4-4,1.791-4,4Zm-11.525,0c0,2.209,1.791,4,4,4s4-1.791,4-4-1.791-4-4-4-4,1.791-4,4Zm-11.525,0c0,2.209,1.791,4,4,4s4-1.791,4-4-1.791-4-4-4-4,1.791-4,4Zm-11.525,0c0,2.209,1.791,4,4,4s4-1.791,4-4-1.791-4-4-4-4,1.791-4,4Zm-11.525,0c0,2.209,1.791,4,4,4s4-1.791,4-4-1.791-4-4-4-4,1.791-4,4Zm-11.525,0c0,2.209,1.791,4,4,4s4-1.791,4-4-1.791-4-4-4-4,1.791-4,4Zm345.75-11.538c0,2.209,1.791,4,4,4s4-1.791,4-4-1.791-4-4-4-4,1.791-4,4Zm-11.525,0c0,2.209,1.791,4,4,4s4-1.791,4-4-1.791-4-4-4-4,1.791-4,4Zm-11.525,0c0,2.209,1.791,4,4,4s4-1.791,4-4-1.791-4-4-4-4,1.791-4,4Zm-11.525,0c0,2.209,1.791,4,4,4s4-1.791,4-4-1.791-4-4-4-4,1.791-4,4Zm-11.525,0c0,2.209,1.791,4,4,4s4-1.791,4-4-1.791-4-4-4-4,1.791-4,4Zm-11.525,0c0,2.209,1.791,4,4,4s4-1.791,4-4-1.791-4-4-4-4,1.791-4,4Zm-11.525,0c0,2.209,1.791,4,4,4s4-1.791,4-4-1.791-4-4-4-4,1.791-4,4Zm-11.525,0c0,2.209,1.791,4,4,4s4-1.791,4-4-1.791-4-4-4-4,1.791-4,4Zm-11.525,0c0,2.209,1.791,4,4,4s4-1.791,4-4-1.791-4-4-4-4,1.791-4,4Zm-11.525,0c0,2.209,1.791,4,4,4s4-1.791,4-4-1.791-4-4-4-4,1.791-4,4Zm-11.525,0c0,2.209,1.791,4,4,4s4-1.791,4-4-1.791-4-4-4-4,1.791-4,4Zm-11.525,0c0,2.209,1.791,4,4,4s4-1.791,4-4-1.791-4-4-4-4,1.791-4,4Zm-11.525,0c0,2.209,1.791,4,4,4s4-1.791,4-4-1.791-4-4-4-4,1.791-4,4Zm-11.525,0c0,2.209,1.791,4,4,4s4-1.791,4-4-1.791-4-4-4-4,1.791-4,4Zm-11.525,0c0,2.209,1.791,4,4,4s4-1.791,4-4-1.791-4-4-4-4,1.791-4,4Zm-11.525,0c0,2.209,1.791,4,4,4s4-1.791,4-4-1.791-4-4-4-4,1.791-4,4Zm-11.525,0c0,2.209,1.791,4,4,4s4-1.791,4-4-1.791-4-4-4-4,1.791-4,4Zm-11.525,0c0,2.209,1.791,4,4,4s4-1.791,4-4-1.791-4-4-4-4,1.791-4,4Zm-11.525,0c0,2.209,1.791,4,4,4s4-1.791,4-4-1.791-4-4-4-4,1.791-4,4Zm-11.525,0c0,2.209,1.791,4,4,4s4-1.791,4-4-1.791-4-4-4-4,1.791-4,4Zm-11.525,0c0,2.209,1.791,4,4,4s4-1.791,4-4-1.791-4-4-4-4,1.791-4,4Zm-11.525,0c0,2.209,1.791,4,4,4s4-1.791,4-4-1.791-4-4-4-4,1.791-4,4Zm-11.525,0c0,2.209,1.791,4,4,4s4-1.791,4-4-1.791-4-4-4-4,1.791-4,4Zm-11.525,0c0,2.209,1.791,4,4,4s4-1.791,4-4-1.791-4-4-4-4,1.791-4,4Zm-11.525,0c0,2.209,1.791,4,4,4s4-1.791,4-4-1.791-4-4-4-4,1.791-4,4Zm-11.525,0c0,2.209,1.791,4,4,4s4-1.791,4-4-1.791-4-4-4-4,1.791-4,4Zm-11.525,0c0,2.209,1.791,4,4,4s4-1.791,4-4-1.791-4-4-4-4,1.791-4,4Zm-11.525,0c0,2.209,1.791,4,4,4s4-1.791,4-4-1.791-4-4-4-4,1.791-4,4Zm-11.525,0c0,2.209,1.791,4,4,4s4-1.791,4-4-1.791-4-4-4-4,1.791-4,4Zm-11.525,0c0,2.209,1.791,4,4,4s4-1.791,4-4-1.791-4-4-4-4,1.791-4,4Zm-11.525,0c0,2.209,1.791,4,4,4s4-1.791,4-4-1.791-4-4-4-4,1.791-4,4Zm322.7-11.538c0,2.209,1.791,4,4,4s4-1.791,4-4-1.791-4-4-4-4,1.791-4,4Zm-11.525,0c0,2.209,1.791,4,4,4s4-1.791,4-4-1.791-4-4-4-4,1.791-4,4Zm-11.525,0c0,2.209,1.791,4,4,4s4-1.791,4-4-1.791-4-4-4-4,1.791-4,4Zm-11.525,0c0,2.209,1.791,4,4,4s4-1.791,4-4-1.791-4-4-4-4,1.791-4,4Zm-11.525,0c0,2.209,1.791,4,4,4s4-1.791,4-4-1.791-4-4-4-4,1.791-4,4Zm-11.525,0c0,2.209,1.791,4,4,4s4-1.791,4-4-1.791-4-4-4-4,1.791-4,4Zm-11.525,0c0,2.209,1.791,4,4,4s4-1.791,4-4-1.791-4-4-4-4,1.791-4,4Zm-11.525,0c0,2.209,1.791,4,4,4s4-1.791,4-4-1.791-4-4-4-4,1.791-4,4Zm-11.525,0c0,2.209,1.791,4,4,4s4-1.791,4-4-1.791-4-4-4-4,1.791-4,4Zm-11.525,0c0,2.209,1.791,4,4,4s4-1.791,4-4-1.791-4-4-4-4,1.791-4,4Zm-11.525,0c0,2.209,1.791,4,4,4s4-1.791,4-4-1.791-4-4-4-4,1.791-4,4Zm-11.525,0c0,2.209,1.791,4,4,4s4-1.791,4-4-1.791-4-4-4-4,1.791-4,4Zm-11.525,0c0,2.209,1.791,4,4,4s4-1.791,4-4-1.791-4-4-4-4,1.791-4,4Zm-11.525,0c0,2.209,1.791,4,4,4s4-1.791,4-4-1.791-4-4-4-4,1.791-4,4Zm-11.525,0c0,2.209,1.791,4,4,4s4-1.791,4-4-1.791-4-4-4-4,1.791-4,4Zm-11.525,0c0,2.209,1.791,4,4,4s4-1.791,4-4-1.791-4-4-4-4,1.791-4,4Zm-11.525,0c0,2.209,1.791,4,4,4s4-1.791,4-4-1.791-4-4-4-4,1.791-4,4Zm-11.525,0c0,2.209,1.791,4,4,4s4-1.791,4-4-1.791-4-4-4-4,1.791-4,4Zm-11.525,0c0,2.209,1.791,4,4,4s4-1.791,4-4-1.791-4-4-4-4,1.791-4,4Zm-11.525,0c0,2.209,1.791,4,4,4s4-1.791,4-4-1.791-4-4-4-4,1.791-4,4Zm-11.525,0c0,2.209,1.791,4,4,4s4-1.791,4-4-1.791-4-4-4-4,1.791-4,4Zm-11.525,0c0,2.209,1.791,4,4,4s4-1.791,4-4-1.791-4-4-4-4,1.791-4,4Zm-11.525,0c0,2.209,1.791,4,4,4s4-1.791,4-4-1.791-4-4-4-4,1.791-4,4Zm-11.525,0c0,2.209,1.791,4,4,4s4-1.791,4-4-1.791-4-4-4-4,1.791-4,4Zm-11.525,0c0,2.209,1.791,4,4,4s4-1.791,4-4-1.791-4-4-4-4,1.791-4,4Zm-11.525,0c0,2.209,1.791,4,4,4s4-1.791,4-4-1.791-4-4-4-4,1.791-4,4Zm-11.525,0c0,2.209,1.791,4,4,4s4-1.791,4-4-1.791-4-4-4-4,1.791-4,4Zm-11.525,0c0,2.209,1.791,4,4,4s4-1.791,4-4-1.791-4-4-4-4,1.791-4,4Zm-11.525,0c0,2.209,1.791,4,4,4s4-1.791,4-4-1.791-4-4-4-4,1.791-4,4Zm299.65-11.538c0,2.209,1.791,4,4,4s4-1.791,4-4-1.791-4-4-4-4,1.791-4,4Zm-11.525,0c0,2.209,1.791,4,4,4s4-1.791,4-4-1.791-4-4-4-4,1.791-4,4Zm-11.525,0c0,2.209,1.791,4,4,4s4-1.791,4-4-1.791-4-4-4-4,1.791-4,4Zm-11.525,0c0,2.209,1.791,4,4,4s4-1.791,4-4-1.791-4-4-4-4,1.791-4,4Zm-11.525,0c0,2.209,1.791,4,4,4s4-1.791,4-4-1.791-4-4-4-4,1.791-4,4Zm-11.525,0c0,2.209,1.791,4,4,4s4-1.791,4-4-1.791-4-4-4-4,1.791-4,4Zm-11.525,0c0,2.209,1.791,4,4,4s4-1.791,4-4-1.791-4-4-4-4,1.791-4,4Zm-11.525,0c0,2.209,1.791,4,4,4s4-1.791,4-4-1.791-4-4-4-4,1.791-4,4Zm-11.525,0c0,2.209,1.791,4,4,4s4-1.791,4-4-1.791-4-4-4-4,1.791-4,4Zm-11.525,0c0,2.209,1.791,4,4,4s4-1.791,4-4-1.791-4-4-4-4,1.791-4,4Zm-11.525,0c0,2.209,1.791,4,4,4s4-1.791,4-4-1.791-4-4-4-4,1.791-4,4Zm-11.525,0c0,2.209,1.791,4,4,4s4-1.791,4-4-1.791-4-4-4-4,1.791-4,4Zm-11.525,0c0,2.209,1.791,4,4,4s4-1.791,4-4-1.791-4-4-4-4,1.791-4,4Zm-11.525,0c0,2.209,1.791,4,4,4s4-1.791,4-4-1.791-4-4-4-4,1.791-4,4Zm-11.525,0c0,2.209,1.791,4,4,4s4-1.791,4-4-1.791-4-4-4-4,1.791-4,4Zm-11.525,0c0,2.209,1.791,4,4,4s4-1.791,4-4-1.791-4-4-4-4,1.791-4,4Zm-11.525,0c0,2.209,1.791,4,4,4s4-1.791,4-4-1.791-4-4-4-4,1.791-4,4Zm-11.525,0c0,2.209,1.791,4,4,4s4-1.791,4-4-1.791-4-4-4-4,1.791-4,4Zm-11.525,0c0,2.209,1.791,4,4,4s4-1.791,4-4-1.791-4-4-4-4,1.791-4,4Zm-11.525,0c0,2.209,1.791,4,4,4s4-1.791,4-4-1.791-4-4-4-4,1.791-4,4Zm-11.525,0c0,2.209,1.791,4,4,4s4-1.791,4-4-1.791-4-4-4-4,1.791-4,4Zm-11.525,0c0,2.209,1.791,4,4,4s4-1.791,4-4-1.791-4-4-4-4,1.791-4,4Zm-11.525,0c0,2.209,1.791,4,4,4s4-1.791,4-4-1.791-4-4-4-4,1.791-4,4Zm-11.525,0c0,2.209,1.791,4,4,4s4-1.791,4-4-1.791-4-4-4-4,1.791-4,4Zm-11.525,0c0,2.209,1.791,4,4,4s4-1.791,4-4-1.791-4-4-4-4,1.791-4,4Zm-11.525,0c0,2.209,1.791,4,4,4s4-1.791,4-4-1.791-4-4-4-4,1.791-4,4Zm-11.525,0c0,2.209,1.791,4,4,4s4-1.791,4-4-1.791-4-4-4S0,24.868,0,27.077ZM265.075,15.538c0,2.209,1.791,4,4,4s4-1.791,4-4-1.791-4-4-4-4,1.791-4,4Zm-11.525,0c0,2.209,1.791,4,4,4s4-1.791,4-4-1.791-4-4-4-4,1.791-4,4Zm-11.525,0c0,2.209,1.791,4,4,4s4-1.791,4-4-1.791-4-4-4-4,1.791-4,4Zm-11.525,0c0,2.209,1.791,4,4,4s4-1.791,4-4-1.791-4-4-4-4,1.791-4,4Zm-11.525,0c0,2.209,1.791,4,4,4s4-1.791,4-4-1.791-4-4-4-4,1.791-4,4Zm-11.525,0c0,2.209,1.791,4,4,4s4-1.791,4-4-1.791-4-4-4-4,1.791-4,4Zm-11.525,0c0,2.209,1.791,4,4,4s4-1.791,4-4-1.791-4-4-4-4,1.791-4,4Zm-11.525,0c0,2.209,1.791,4,4,4s4-1.791,4-4-1.791-4-4-4-4,1.791-4,4Zm-11.525,0c0,2.209,1.791,4,4,4s4-1.791,4-4-1.791-4-4-4-4,1.791-4,4Zm-11.525,0c0,2.209,1.791,4,4,4s4-1.791,4-4-1.791-4-4-4-4,1.791-4,4Zm-11.525,0c0,2.209,1.791,4,4,4s4-1.791,4-4-1.791-4-4-4-4,1.791-4,4Zm-11.525,0c0,2.209,1.791,4,4,4s4-1.791,4-4-1.791-4-4-4-4,1.791-4,4Zm-11.525,0c0,2.209,1.791,4,4,4s4-1.791,4-4-1.791-4-4-4-4,1.791-4,4Zm-11.525,0c0,2.209,1.791,4,4,4s4-1.791,4-4-1.791-4-4-4-4,1.791-4,4Zm-11.525,0c0,2.209,1.791,4,4,4s4-1.791,4-4-1.791-4-4-4-4,1.791-4,4Zm-11.525,0c0,2.209,1.791,4,4,4s4-1.791,4-4-1.791-4-4-4-4,1.791-4,4Zm-11.525,0c0,2.209,1.791,4,4,4s4-1.791,4-4-1.791-4-4-4-4,1.791-4,4Zm-11.525,0c0,2.209,1.791,4,4,4s4-1.791,4-4-1.791-4-4-4-4,1.791-4,4Zm-11.525,0c0,2.209,1.791,4,4,4s4-1.791,4-4-1.791-4-4-4-4,1.791-4,4Zm-11.525,0c0,2.209,1.791,4,4,4s4-1.791,4-4-1.791-4-4-4-4,1.791-4,4Zm-11.525,0c0,2.209,1.791,4,4,4s4-1.791,4-4-1.791-4-4-4-4,1.791-4,4Zm-11.525,0c0,2.209,1.791,4,4,4s4-1.791,4-4-1.791-4-4-4-4,1.791-4,4Zm-11.525,0c0,2.209,1.791,4,4,4s4-1.791,4-4-1.791-4-4-4-4,1.791-4,4ZM0,15.538c0,2.209,1.791,4,4,4s4-1.791,4-4-1.791-4-4-4S0,13.329,0,15.538ZM218.975,4c0,2.209,1.791,4,4,4s4-1.791,4-4-1.791-4-4-4-4,1.791-4,4Zm-11.525,0c0,2.209,1.791,4,4,4s4-1.791,4-4-1.791-4-4-4-4,1.791-4,4Zm-11.525,0c0,2.209,1.791,4,4,4s4-1.791,4-4-1.791-4-4-4-4,1.791-4,4Zm-11.525,0c0,2.209,1.791,4,4,4s4-1.791,4-4-1.791-4-4-4-4,1.791-4,4Zm-11.525,0c0,2.209,1.791,4,4,4s4-1.791,4-4-1.791-4-4-4-4,1.791-4,4Zm-11.525,0c0,2.209,1.791,4,4,4s4-1.791,4-4-1.791-4-4-4-4,1.791-4,4Zm-11.525,0c0,2.209,1.791,4,4,4s4-1.791,4-4-1.791-4-4-4-4,1.791-4,4Zm-11.525,0c0,2.209,1.791,4,4,4s4-1.791,4-4-1.791-4-4-4-4,1.791-4,4Zm-11.525,0c0,2.209,1.791,4,4,4s4-1.791,4-4-1.791-4-4-4-4,1.791-4,4Zm-11.525,0c0,2.209,1.791,4,4,4s4-1.791,4-4-1.791-4-4-4-4,1.791-4,4Zm-11.525,0c0,2.209,1.791,4,4,4s4-1.791,4-4-1.791-4-4-4-4,1.791-4,4Zm-11.525,0c0,2.209,1.791,4,4,4s4-1.791,4-4-1.791-4-4-4-4,1.791-4,4Zm-11.525,0c0,2.209,1.791,4,4,4s4-1.791,4-4-1.791-4-4-4-4,1.791-4,4Zm-11.525,0c0,2.209,1.791,4,4,4s4-1.791,4-4-1.791-4-4-4-4,1.791-4,4Zm-11.525,0c0,2.209,1.791,4,4,4s4-1.791,4-4-1.791-4-4-4-4,1.791-4,4Zm-11.525,0c0,2.209,1.791,4,4,4s4-1.791,4-4-1.791-4-4-4-4,1.791-4,4Zm-11.525,0c0,2.209,1.791,4,4,4s4-1.791,4-4-1.791-4-4-4-4,1.791-4,4Zm-11.525,0c0,2.209,1.791,4,4,4s4-1.791,4-4S29.259,0,27.05,0s-4,1.791-4,4Zm-11.525,0c0,2.209,1.791,4,4,4s4-1.791,4-4S17.734,0,15.525,0s-4,1.791-4,4ZM0,4c0,2.209,1.791,4,4,4s4-1.791,4-4S6.209,0,4,0,0,1.791,0,4Z"/><g class="cls-1"><circle class="cls-3" cx="326.7" cy="200.154" r="4"/><circle class="cls-3" cx="246.025" cy="107.846" r="4"/><circle class="cls-3" cx="188.4" cy="96.308" r="4"/><circle class="cls-3" cx="338.225" cy="38.615" r="4"/><circle class="cls-3" cx="315.175" cy="27.077" r="4"/><circle class="cls-3" cx="280.6" cy="15.538" r="4"/><circle class="cls-3" cx="234.5" cy="4" r="4"/></g></g></svg>