<?xml version="1.0" encoding="utf-8"?>
<!-- Generator: Adobe Illustrator 27.0.0, SVG Export Plug-In . SVG Version: 6.00 Build 0)  -->
<svg version="1.1" id="objGroup" xmlns="http://www.w3.org/2000/svg" xmlns:xlink="http://www.w3.org/1999/xlink" x="0px" y="0px"
	 width="697px" height="373px" viewBox="0 0 697 373" style="enable-background:new 0 0 697 373;" xml:space="preserve">
<style type="text/css">
	.st0{fill:url(#obj2_00000114067367058609738470000013289507808679844497_);}
	.st1{opacity:0.15;}
	.st2{fill:#B1B1B1;}
	.st3{opacity:0.4;}
	.st4{opacity:0.75;}
	.st5{opacity:0.9;}
	.st6{opacity:0.6;}
	.st7{fill:#3BBEEF;}
	.st8{opacity:0.8;}
	.st9{fill:#8FD3F5;}
	.st10{fill:#9BD7F6;}
	.st11{fill:url(#SVGID_1_);}
	.st12{fill:url(#SVGID_00000112613447632130486540000010614352669214373020_);}
	.st13{fill:url(#SVGID_00000042719901895000023090000012497293176625627057_);}
	.st14{fill:url(#SVGID_00000095316335765547465670000000665551417670007479_);}
	.st15{fill:url(#SVGID_00000152242691852373765180000001069341560479344831_);}
	.st16{fill:url(#SVGID_00000005261588686954191620000008048469716254051461_);}
	.st17{fill:url(#SVGID_00000045617902811602832490000006545585096000484250_);}
	.st18{fill:url(#SVGID_00000106128021720817477980000004985328317924364177_);}
	.st19{fill:url(#SVGID_00000057852795420136165560000008486648041689096114_);}
	.st20{fill:url(#SVGID_00000075163699012091826090000013202391828555923385_);}
	.st21{fill:url(#SVGID_00000024701034014568836920000014051226103492334503_);}
	.st22{fill:url(#SVGID_00000066499302525236019370000001099269238325037716_);}
	.st23{fill:url(#SVGID_00000052787969004580312250000011594845224297221823_);}
	.st24{opacity:0.2;}
	.st25{opacity:0.3;}
	.st26{opacity:0.1;}
	.st27{opacity:5.000000e-02;}
	.st28{opacity:0.8;fill:#3BBEEF;enable-background:new    ;}
	.st29{opacity:0.9;fill:#3BBEEF;enable-background:new    ;}
	#obj2 {
		animation: obj2 2s infinite alternate;
	}
	@keyframes obj2 {
		0% {
			opacity: 0;
		}

		100% {
			opacity: 1;
		}
	}
</style>
<radialGradient id="obj2_00000165936370636627598540000004012098330092315039_" cx="7347.418" cy="-21424.3125" r="771.7031" gradientTransform="matrix(3.788010e-04 -0.1304 -0.1838 -5.072409e-04 -3443.6516 1132.8939)" gradientUnits="userSpaceOnUse">
	<stop  offset="0" style="stop-color:#FFFFFF"/>
	<stop  offset="5.450000e-02" style="stop-color:#E7E7E7;stop-opacity:0.9455"/>
	<stop  offset="0.2044" style="stop-color:#ABABAB;stop-opacity:0.7955"/>
	<stop  offset="0.3534" style="stop-color:#777777;stop-opacity:0.6464"/>
	<stop  offset="0.4982" style="stop-color:#4C4C4C;stop-opacity:0.5015"/>
	<stop  offset="0.6377" style="stop-color:#2B2B2B;stop-opacity:0.3618"/>
	<stop  offset="0.7706" style="stop-color:#131313;stop-opacity:0.1"/>
	<stop  offset="0.8942" style="stop-color:#050505;stop-opacity:0"/>
	<stop  offset="0.9993" style="stop-color:#000000;stop-opacity:0"/>
</radialGradient>
<path id="obj2" style="fill:url(#obj2_00000165936370636627598540000004012098330092315039_);" d="M497.2,85.5
	c78.3,0.2,141.7,45.4,141.5,101C638.6,242,575,286.9,496.7,286.7c-78.3-0.2-141.7-45.4-141.5-101C355.3,130.1,418.9,85.2,497.2,85.5
	z"/>
<g id="obj1">
	<g>
		<g>
			<g>
				<g class="st1">
					<path class="st2" d="M682.2,11.3c0,4.9,3.3,8.2,7.3,7.3c4-0.9,7.3-5.7,7.3-10.7c0-5-3.2-8.2-7.3-7.2
						C685.5,1.6,682.2,6.4,682.2,11.3z"/>
					<path class="st2" d="M658.3,44.9c0,4.7,3.3,8.1,7.3,7.4c4-0.7,7.3-5.2,7.3-10.1c0-4.9-3.3-8.1-7.3-7.3
						C661.6,35.7,658.3,40.2,658.3,44.9z"/>
					<path class="st2" d="M634.3,76.6c0,4.6,3.3,8,7.3,7.5c4-0.5,7.3-4.7,7.3-9.4c0-4.7-3.3-8-7.3-7.4
						C637.6,67.8,634.3,72,634.3,76.6z"/>
					<path class="st2" d="M610.2,106.3c0,4.5,3.3,7.9,7.3,7.5c4-0.3,7.3-4.3,7.3-8.9c0-4.6-3.3-7.9-7.3-7.5
						C613.5,97.9,610.2,101.9,610.2,106.3z"/>
					<path class="st2" d="M586.1,134.4c0,4.4,3.3,7.8,7.4,7.6c4.1-0.2,7.3-4,7.3-8.4c0-4.4-3.3-7.8-7.3-7.6
						C589.4,126.3,586.1,130.1,586.1,134.4z"/>
					<path class="st2" d="M561.9,161.1c0,4.3,3.3,7.7,7.4,7.6c4.1-0.1,7.4-3.6,7.4-8c0-4.3-3.3-7.7-7.4-7.6
						C565.2,153.3,561.9,156.8,561.9,161.1z"/>
					<path class="st2" d="M537.7,186.5c0,4.2,3.3,7.6,7.4,7.6c4.1,0,7.4-3.4,7.4-7.6s-3.3-7.6-7.4-7.6
						C541,178.9,537.7,182.3,537.7,186.5z"/>
					<path class="st2" d="M561.9,211.9c0,4.3,3.3,7.8,7.4,8c4.1,0.1,7.4-3.3,7.4-7.6c0-4.3-3.3-7.9-7.4-8
						C565.2,204.2,561.9,207.6,561.9,211.9z"/>
					<path class="st2" d="M586.1,238.6c0,4.4,3.3,8.1,7.4,8.4c4.1,0.3,7.3-3.1,7.3-7.6c0-4.4-3.3-8.2-7.3-8.4
						C589.4,230.8,586.1,234.2,586.1,238.6z"/>
					<path class="st2" d="M610.2,266.7c0,4.5,3.3,8.5,7.3,8.9c4,0.4,7.3-2.9,7.3-7.5c0-4.6-3.3-8.6-7.3-8.9
						C613.5,258.8,610.2,262.2,610.2,266.7z"/>
					<path class="st2" d="M634.3,296.4c0,4.6,3.3,8.8,7.3,9.4s7.3-2.7,7.3-7.4c0-4.7-3.3-8.9-7.3-9.4
						C637.6,288.5,634.3,291.8,634.3,296.4z"/>
					<path class="st2" d="M658.3,328.1c0,4.8,3.3,9.2,7.3,10c4,0.8,7.3-2.5,7.3-7.3c0-4.9-3.3-9.4-7.3-10.1
						C661.6,320,658.3,323.3,658.3,328.1z"/>
					<path class="st2" d="M682.2,361.7c0,4.9,3.3,9.7,7.3,10.7c4,1,7.3-2.2,7.3-7.2c0-5-3.2-9.8-7.3-10.7
						C685.5,353.6,682.2,356.8,682.2,361.7z"/>
				</g>
				<g class="st3">
					<path class="st2" d="M658.3,16.6c0,4.8,3.3,7.9,7.3,7.1c4-0.8,7.3-5.5,7.3-10.3c0-4.9-3.3-8-7.3-7.1
						C661.6,7.3,658.3,11.9,658.3,16.6z"/>
					<path class="st2" d="M634.3,49.1c0,4.6,3.3,7.8,7.3,7.2c4-0.6,7.3-5,7.3-9.7c0-4.7-3.3-7.9-7.3-7.2
						C637.6,40.2,634.3,44.5,634.3,49.1z"/>
					<path class="st2" d="M610.2,79.6c0,4.5,3.3,7.8,7.3,7.3c4-0.5,7.3-4.6,7.3-9.1c0-4.6-3.3-7.8-7.3-7.3
						C613.5,71.1,610.2,75.1,610.2,79.6z"/>
					<path class="st2" d="M586.1,108.4c0,4.4,3.3,7.7,7.4,7.4c4.1-0.3,7.3-4.2,7.3-8.6c0-4.5-3.3-7.7-7.3-7.4
						C589.4,100.2,586.1,104.1,586.1,108.4z"/>
					<path class="st2" d="M561.9,135.7c0,4.3,3.3,7.6,7.4,7.4c4.1-0.2,7.4-3.8,7.4-8.2c0-4.3-3.3-7.6-7.4-7.4
						C565.2,127.8,561.9,131.4,561.9,135.7z"/>
					<path class="st2" d="M537.7,161.7c0,4.2,3.3,7.5,7.4,7.4c4.1-0.1,7.4-3.5,7.4-7.8c0-4.2-3.3-7.6-7.4-7.4
						C541,154,537.7,157.5,537.7,161.7z"/>
					<path class="st2" d="M513.4,186.5c0,4.1,3.3,7.4,7.4,7.5c4.1,0,7.4-3.3,7.4-7.5c0-4.1-3.3-7.5-7.4-7.5
						C516.7,179.1,513.4,182.4,513.4,186.5z"/>
					<path class="st2" d="M537.7,211.3c0,4.2,3.3,7.6,7.4,7.8c4.1,0.1,7.4-3.2,7.4-7.4c0-4.2-3.3-7.7-7.4-7.8
						C541,203.8,537.7,207.2,537.7,211.3z"/>
					<path class="st2" d="M561.9,237.3c0,4.3,3.3,7.9,7.4,8.2c4.1,0.2,7.4-3.1,7.4-7.4s-3.3-8-7.4-8.2
						C565.2,229.7,561.9,233,561.9,237.3z"/>
					<path class="st2" d="M586.1,264.6c0,4.4,3.3,8.2,7.4,8.6s7.3-2.9,7.3-7.4c0-4.4-3.3-8.3-7.3-8.6
						C589.4,256.9,586.1,260.2,586.1,264.6z"/>
					<path class="st2" d="M610.2,293.4c0,4.5,3.3,8.5,7.3,9.1c4,0.5,7.3-2.7,7.3-7.3c0-4.6-3.3-8.7-7.3-9.1
						C613.5,285.6,610.2,288.9,610.2,293.4z"/>
					<path class="st2" d="M634.3,323.9c0,4.6,3.3,8.9,7.3,9.7c4,0.7,7.3-2.5,7.3-7.2c0-4.7-3.3-9.1-7.3-9.7
						C637.6,316.1,634.3,319.3,634.3,323.9z"/>
					<path class="st2" d="M658.3,356.4c0,4.8,3.3,9.3,7.3,10.3c4,0.9,7.3-2.2,7.3-7.1c0-4.9-3.3-9.5-7.3-10.3
						C661.6,348.4,658.3,351.6,658.3,356.4z"/>
				</g>
				<g class="st4">
					<path class="st2" d="M634.3,21.6c0,4.6,3.3,7.7,7.3,7c4-0.8,7.3-5.2,7.3-9.9c0-4.7-3.3-7.8-7.3-6.9
						C637.6,12.6,634.3,17,634.3,21.6z"/>
					<path class="st2" d="M610.2,52.9c0,4.5,3.3,7.7,7.3,7.1c4-0.6,7.3-4.8,7.3-9.4c0-4.6-3.3-7.7-7.3-7
						C613.5,44.2,610.2,48.4,610.2,52.9z"/>
					<path class="st2" d="M586.1,82.4c0,4.4,3.3,7.6,7.4,7.2c4.1-0.4,7.3-4.4,7.3-8.8c0-4.4-3.3-7.6-7.3-7.1
						C589.4,74.1,586.1,78,586.1,82.4z"/>
					<path class="st2" d="M561.9,110.3c0,4.3,3.3,7.5,7.4,7.2c4.1-0.3,7.4-4,7.4-8.4c0-4.3-3.3-7.6-7.4-7.2
						C565.2,102.3,561.9,106,561.9,110.3z"/>
					<path class="st2" d="M537.7,136.8c0,4.2,3.3,7.4,7.4,7.3c4.1-0.1,7.4-3.7,7.4-7.9c0-4.2-3.3-7.5-7.4-7.3
						C541,129.1,537.7,132.6,537.7,136.8z"/>
					<path class="st2" d="M513.4,162.1c0,4.1,3.3,7.4,7.4,7.3c4.1-0.1,7.4-3.5,7.4-7.6s-3.3-7.4-7.4-7.3
						C516.7,154.7,513.4,158.1,513.4,162.1z"/>
					<path class="st2" d="M489.1,186.5c0,4,3.3,7.3,7.4,7.3c4.1,0,7.4-3.2,7.4-7.3c0-4.1-3.3-7.3-7.4-7.3
						C492.4,179.2,489.1,182.5,489.1,186.5z"/>
					<path class="st2" d="M513.4,210.9c0,4.1,3.3,7.5,7.4,7.6c4.1,0.1,7.4-3.2,7.4-7.3c0-4.1-3.3-7.6-7.4-7.6
						C516.7,203.5,513.4,206.8,513.4,210.9z"/>
					<path class="st2" d="M537.7,236.2c0,4.2,3.3,7.7,7.4,7.9c4.1,0.2,7.4-3,7.4-7.3c0-4.2-3.3-7.8-7.4-7.9
						C541,228.8,537.7,232,537.7,236.2z"/>
					<path class="st2" d="M561.9,262.7c0,4.3,3.3,8,7.4,8.3c4.1,0.3,7.4-2.9,7.4-7.2c0-4.3-3.3-8.1-7.4-8.4
						C565.2,255.2,561.9,258.4,561.9,262.7z"/>
					<path class="st2" d="M586.1,290.6c0,4.4,3.3,8.3,7.4,8.8c4.1,0.5,7.3-2.7,7.3-7.1c0-4.5-3.3-8.4-7.3-8.8
						C589.4,283,586.1,286.2,586.1,290.6z"/>
					<path class="st2" d="M610.2,320.1c0,4.5,3.3,8.6,7.3,9.3c4,0.7,7.3-2.5,7.3-7c0-4.6-3.3-8.8-7.3-9.4
						C613.5,312.4,610.2,315.6,610.2,320.1z"/>
					<path class="st2" d="M634.3,351.4c0,4.6,3.3,9,7.3,9.9c4,0.9,7.3-2.2,7.3-6.9c0-4.7-3.3-9.2-7.3-9.9
						C637.6,343.6,634.3,346.8,634.3,351.4z"/>
				</g>
				<g class="st5">
					<path class="st2" d="M610.2,26.2c0,4.5,3.3,7.6,7.3,6.9c4-0.7,7.3-5,7.3-9.6c0-4.6-3.3-7.6-7.3-6.8
						C613.5,17.4,610.2,21.7,610.2,26.2z"/>
					<path class="st2" d="M586.1,56.4c0,4.4,3.3,7.5,7.4,7c4.1-0.5,7.3-4.6,7.3-9c0-4.4-3.3-7.5-7.3-6.9
						C589.4,48,586.1,52,586.1,56.4z"/>
					<path class="st2" d="M561.9,84.9c0,4.3,3.3,7.4,7.4,7.1c4.1-0.4,7.4-4.2,7.4-8.5c0-4.3-3.3-7.5-7.4-7
						C565.2,76.8,561.9,80.6,561.9,84.9z"/>
					<path class="st2" d="M537.7,112c0,4.2,3.3,7.4,7.4,7.1c4.1-0.2,7.4-3.9,7.4-8.1c0-4.2-3.3-7.4-7.4-7.1
						C541,104.2,537.7,107.8,537.7,112z"/>
					<path class="st2" d="M513.4,137.8c0,4.1,3.3,7.3,7.4,7.2c4.1-0.1,7.4-3.6,7.4-7.8c0-4.1-3.3-7.3-7.4-7.2
						C516.7,130.3,513.4,133.7,513.4,137.8z"/>
					<path class="st2" d="M489.1,162.6c0,4,3.3,7.2,7.4,7.2s7.4-3.4,7.4-7.4c0-4.1-3.3-7.3-7.4-7.2
						C492.4,155.2,489.1,158.6,489.1,162.6z"/>
					<path class="st2" d="M464.7,186.5c0,4,3.3,7.2,7.4,7.2c4.1,0,7.4-3.2,7.4-7.2c0-4-3.3-7.2-7.4-7.2
						C468,179.3,464.7,182.5,464.7,186.5z"/>
					<path class="st2" d="M489.1,210.4c0,4,3.3,7.3,7.4,7.4c4.1,0.1,7.4-3.1,7.4-7.2c0-4.1-3.3-7.4-7.4-7.4S489.1,206.4,489.1,210.4
						z"/>
					<path class="st2" d="M513.4,235.2c0,4.1,3.3,7.5,7.4,7.7c4.1,0.2,7.4-3,7.4-7.2s-3.3-7.6-7.4-7.8
						C516.7,227.9,513.4,231.1,513.4,235.2z"/>
					<path class="st2" d="M537.7,261c0,4.2,3.3,7.8,7.4,8.1c4.1,0.3,7.4-2.9,7.4-7.1c0-4.2-3.3-7.9-7.4-8.1
						C541,253.7,537.7,256.9,537.7,261z"/>
					<path class="st2" d="M561.9,288.1c0,4.3,3.3,8.1,7.4,8.5c4.1,0.4,7.4-2.7,7.4-7s-3.3-8.2-7.4-8.5
						C565.2,280.7,561.9,283.8,561.9,288.1z"/>
					<path class="st2" d="M586.1,316.6c0,4.4,3.3,8.4,7.4,9c4.1,0.6,7.3-2.5,7.3-6.9c0-4.4-3.3-8.5-7.3-9
						C589.4,309.1,586.1,312.3,586.1,316.6z"/>
					<path class="st2" d="M610.2,346.8c0,4.5,3.3,8.7,7.3,9.5c4,0.8,7.3-2.2,7.3-6.8c0-4.6-3.3-8.9-7.3-9.6
						C613.5,339.3,610.2,342.3,610.2,346.8z"/>
				</g>
				<g>
					<path class="st2" d="M586.1,30.3c0,4.4,3.3,7.4,7.4,6.8c4.1-0.6,7.3-4.8,7.3-9.2c0-4.5-3.3-7.4-7.3-6.7
						C589.4,21.9,586.1,26,586.1,30.3z"/>
					<path class="st2" d="M561.9,59.5c0,4.3,3.3,7.3,7.4,6.9c4.1-0.5,7.4-4.4,7.4-8.7c0-4.3-3.3-7.4-7.4-6.8
						C565.2,51.3,561.9,55.2,561.9,59.5z"/>
					<path class="st2" d="M537.7,87.1c0,4.2,3.3,7.3,7.4,7c4.1-0.3,7.4-4,7.4-8.3c0-4.2-3.3-7.3-7.4-6.9
						C541,79.3,537.7,83,537.7,87.1z"/>
					<path class="st2" d="M513.4,113.4c0,4.1,3.3,7.2,7.4,7c4.1-0.2,7.4-3.8,7.4-7.9c0-4.1-3.3-7.3-7.4-7
						C516.7,105.8,513.4,109.4,513.4,113.4z"/>
					<path class="st2" d="M489.1,138.6c0,4,3.3,7.2,7.4,7.1c4.1-0.1,7.4-3.5,7.4-7.6c0-4.1-3.3-7.2-7.4-7.1
						C492.4,131.2,489.1,134.6,489.1,138.6z"/>
					<path class="st2" d="M464.7,162.9c0,4,3.3,7.1,7.4,7.1c4.1,0,7.4-3.3,7.4-7.3c0-4-3.3-7.2-7.4-7.1
						C468,155.7,464.7,159,464.7,162.9z"/>
					<path class="st2" d="M440.3,186.5c0,3.9,3.3,7.1,7.4,7.1c4.1,0,7.4-3.2,7.4-7.1c0-3.9-3.3-7.1-7.4-7.1
						C443.6,179.4,440.3,182.6,440.3,186.5z"/>
					<path class="st2" d="M464.7,210.1c0,4,3.3,7.2,7.4,7.3c4.1,0.1,7.4-3.1,7.4-7.1c0-4-3.3-7.3-7.4-7.3
						C468,202.9,464.7,206.1,464.7,210.1z"/>
					<path class="st2" d="M489.1,234.4c0,4,3.3,7.4,7.4,7.6c4.1,0.2,7.4-3,7.4-7.1c0-4.1-3.3-7.5-7.4-7.6
						C492.4,227.2,489.1,230.3,489.1,234.4z"/>
					<path class="st2" d="M513.4,259.6c0,4.1,3.3,7.6,7.4,7.9c4.1,0.3,7.4-2.9,7.4-7s-3.3-7.7-7.4-7.9
						C516.7,252.3,513.4,255.5,513.4,259.6z"/>
					<path class="st2" d="M537.7,285.9c0,4.2,3.3,7.9,7.4,8.3c4.1,0.4,7.4-2.7,7.4-6.9c0-4.2-3.3-8-7.4-8.3
						C541,278.6,537.7,281.7,537.7,285.9z"/>
					<path class="st2" d="M561.9,313.5c0,4.3,3.3,8.1,7.4,8.7c4.1,0.6,7.4-2.5,7.4-6.8s-3.3-8.3-7.4-8.7
						C565.2,306.2,561.9,309.2,561.9,313.5z"/>
					<path class="st2" d="M586.1,342.7c0,4.4,3.3,8.5,7.4,9.2c4.1,0.7,7.3-2.3,7.3-6.7c0-4.4-3.3-8.6-7.3-9.2
						C589.4,335.3,586.1,338.3,586.1,342.7z"/>
				</g>
				<g>
					<path class="st2" d="M561.9,34.1c0,4.3,3.3,7.3,7.4,6.7c4.1-0.6,7.4-4.6,7.4-8.9c0-4.3-3.3-7.3-7.4-6.6
						C565.2,25.9,561.9,29.8,561.9,34.1z"/>
					<path class="st2" d="M537.7,62.3c0,4.2,3.3,7.2,7.4,6.8c4.1-0.4,7.4-4.2,7.4-8.5c0-4.2-3.3-7.3-7.4-6.8
						C541,54.4,537.7,58.1,537.7,62.3z"/>
					<path class="st2" d="M513.4,89.1c0,4.1,3.3,7.2,7.4,6.9c4.1-0.3,7.4-3.9,7.4-8c0-4.1-3.3-7.2-7.4-6.9
						C516.7,81.4,513.4,85,513.4,89.1z"/>
					<path class="st2" d="M489.1,114.7c0,4,3.3,7.1,7.4,7c4.1-0.2,7.4-3.6,7.4-7.7c0-4.1-3.3-7.2-7.4-6.9
						C492.4,107.3,489.1,110.7,489.1,114.7z"/>
					<path class="st2" d="M464.7,139.4c0,4,3.3,7.1,7.4,7c4.1-0.1,7.4-3.4,7.4-7.4c0-4-3.3-7.1-7.4-7
						C468,132.1,464.7,135.4,464.7,139.4z"/>
					<path class="st2" d="M440.3,163.2c0,3.9,3.3,7.1,7.4,7c4.1,0,7.4-3.3,7.4-7.2s-3.3-7.1-7.4-7
						C443.6,156.1,440.3,159.3,440.3,163.2z"/>
					<path class="st2" d="M415.9,186.5c0,3.9,3.3,7,7.4,7c4.1,0,7.4-3.1,7.4-7c0-3.9-3.3-7.1-7.4-7
						C419.2,179.5,415.9,182.6,415.9,186.5z"/>
					<path class="st2" d="M440.3,209.8c0,3.9,3.3,7.1,7.4,7.2c4.1,0.1,7.4-3.1,7.4-7c0-3.9-3.3-7.2-7.4-7.2
						C443.6,202.7,440.3,205.9,440.3,209.8z"/>
					<path class="st2" d="M464.7,233.6c0,4,3.3,7.3,7.4,7.4s7.4-3,7.4-7c0-4-3.3-7.3-7.4-7.4C468,226.5,464.7,229.7,464.7,233.6z"/>
					<path class="st2" d="M489.1,258.3c0,4,3.3,7.5,7.4,7.7c4.1,0.2,7.4-2.9,7.4-6.9c0-4.1-3.3-7.5-7.4-7.7
						C492.4,251.1,489.1,254.3,489.1,258.3z"/>
					<path class="st2" d="M513.4,283.9c0,4.1,3.3,7.7,7.4,8c4.1,0.4,7.4-2.7,7.4-6.9s-3.3-7.8-7.4-8
						C516.7,276.7,513.4,279.8,513.4,283.9z"/>
					<path class="st2" d="M537.7,310.7c0,4.2,3.3,7.9,7.4,8.4c4.1,0.5,7.4-2.5,7.4-6.8c0-4.2-3.3-8-7.4-8.5
						C541,303.5,537.7,306.5,537.7,310.7z"/>
					<path class="st2" d="M561.9,338.9c0,4.3,3.3,8.2,7.4,8.9c4.1,0.7,7.4-2.3,7.4-6.6c0-4.3-3.3-8.3-7.4-8.9
						C565.2,331.6,561.9,334.6,561.9,338.9z"/>
				</g>
				<g>
					<path class="st2" d="M537.7,37.4c0,4.2,3.3,7.1,7.4,6.6c4.1-0.5,7.4-4.4,7.4-8.6c0-4.2-3.3-7.2-7.4-6.6
						C541,29.4,537.7,33.3,537.7,37.4z"/>
					<path class="st2" d="M513.4,64.7c0,4.1,3.3,7.1,7.4,6.7c4.1-0.4,7.4-4,7.4-8.2c0-4.1-3.3-7.1-7.4-6.7
						C516.7,57,513.4,60.7,513.4,64.7z"/>
					<path class="st2" d="M489.1,90.8c0,4,3.3,7.1,7.4,6.8s7.4-3.8,7.4-7.8c0-4.1-3.3-7.1-7.4-6.8C492.4,83.3,489.1,86.8,489.1,90.8
						z"/>
					<path class="st2" d="M464.7,115.8c0,4,3.3,7.1,7.4,6.9s7.4-3.5,7.4-7.5c0-4-3.3-7.1-7.4-6.9C468,108.5,464.7,111.8,464.7,115.8
						z"/>
					<path class="st2" d="M440.3,139.9c0,3.9,3.3,7,7.4,6.9c4.1-0.1,7.4-3.3,7.4-7.3c0-3.9-3.3-7-7.4-6.9
						C443.6,132.8,440.3,136,440.3,139.9z"/>
					<path class="st2" d="M415.9,163.4c0,3.9,3.3,7,7.4,7c4.1,0,7.4-3.2,7.4-7.1c0-3.9-3.3-7-7.4-7
						C419.2,156.4,415.9,159.6,415.9,163.4z"/>
					<path class="st2" d="M391.5,186.5c0,3.9,3.3,7,7.4,7c4.1,0,7.4-3.1,7.4-7c0-3.9-3.3-7-7.4-7
						C394.8,179.5,391.5,182.6,391.5,186.5z"/>
					<path class="st2" d="M415.9,209.6c0,3.9,3.3,7.1,7.4,7.1c4.1,0,7.4-3.1,7.4-7c0-3.9-3.3-7.1-7.4-7.1
						C419.2,202.6,415.9,205.7,415.9,209.6z"/>
					<path class="st2" d="M440.3,233.1c0,3.9,3.3,7.2,7.4,7.3c4.1,0.1,7.4-3,7.4-6.9c0-3.9-3.3-7.2-7.4-7.3
						C443.6,226,440.3,229.2,440.3,233.1z"/>
					<path class="st2" d="M464.7,257.2c0,4,3.3,7.3,7.4,7.5c4.1,0.2,7.4-2.9,7.4-6.9c0-4-3.3-7.4-7.4-7.5
						C468,250.2,464.7,253.3,464.7,257.2z"/>
					<path class="st2" d="M489.1,282.2c0,4,3.3,7.5,7.4,7.8c4.1,0.3,7.4-2.7,7.4-6.8c0-4.1-3.3-7.6-7.4-7.8
						C492.4,275.1,489.1,278.2,489.1,282.2z"/>
					<path class="st2" d="M513.4,308.3c0,4.1,3.3,7.7,7.4,8.2c4.1,0.4,7.4-2.6,7.4-6.7c0-4.1-3.3-7.8-7.4-8.2
						C516.7,301.1,513.4,304.2,513.4,308.3z"/>
					<path class="st2" d="M537.7,335.6c0,4.2,3.3,8,7.4,8.6c4.1,0.6,7.4-2.4,7.4-6.6c0-4.2-3.3-8.1-7.4-8.6
						C541,328.4,537.7,331.4,537.7,335.6z"/>
				</g>
				<g>
					<path class="st2" d="M513.4,40.4c0,4.1,3.3,7.1,7.4,6.6c4.1-0.5,7.4-4.2,7.4-8.3c0-4.1-3.3-7.1-7.4-6.6
						C516.7,32.6,513.4,36.3,513.4,40.4z"/>
					<path class="st2" d="M489.1,66.9c0,4,3.3,7,7.4,6.7c4.1-0.3,7.4-3.9,7.4-8c0-4.1-3.3-7-7.4-6.7
						C492.4,59.3,489.1,62.8,489.1,66.9z"/>
					<path class="st2" d="M464.7,92.2c0,4,3.3,7,7.4,6.8c4.1-0.2,7.4-3.6,7.4-7.6c0-4-3.3-7-7.4-6.8C468,84.9,464.7,88.2,464.7,92.2
						z"/>
					<path class="st2" d="M440.3,116.6c0,3.9,3.3,7,7.4,6.9c4.1-0.1,7.4-3.4,7.4-7.4c0-3.9-3.3-7-7.4-6.8
						C443.6,109.5,440.3,112.7,440.3,116.6z"/>
					<path class="st2" d="M415.9,140.4c0,3.9,3.3,7,7.4,6.9c4.1-0.1,7.4-3.3,7.4-7.2c0-3.9-3.3-7-7.4-6.9
						C419.2,133.3,415.9,136.5,415.9,140.4z"/>
					<path class="st2" d="M391.5,163.6c0,3.9,3.3,7,7.4,6.9c4.1,0,7.4-3.2,7.4-7c0-3.9-3.3-7-7.4-6.9
						C394.8,156.6,391.5,159.7,391.5,163.6z"/>
					<path class="st2" d="M367.1,186.5c0,3.8,3.3,6.9,7.4,7c4.1,0,7.4-3.1,7.4-7c0-3.8-3.3-7-7.4-7
						C370.4,179.6,367.1,182.7,367.1,186.5z"/>
					<path class="st2" d="M391.5,209.4c0,3.8,3.3,7,7.4,7c4.1,0,7.4-3.1,7.4-6.9c0-3.9-3.3-7-7.4-7
						C394.8,202.5,391.5,205.6,391.5,209.4z"/>
					<path class="st2" d="M415.9,232.6c0,3.9,3.3,7.1,7.4,7.2c4.1,0.1,7.4-3,7.4-6.9c0-3.9-3.3-7.1-7.4-7.2
						C419.2,225.7,415.9,228.8,415.9,232.6z"/>
					<path class="st2" d="M440.3,256.4c0,3.9,3.3,7.2,7.4,7.4c4.1,0.2,7.4-2.9,7.4-6.9s-3.3-7.2-7.4-7.4
						C443.6,249.4,440.3,252.4,440.3,256.4z"/>
					<path class="st2" d="M464.7,280.8c0,4,3.3,7.4,7.4,7.6c4.1,0.3,7.4-2.8,7.4-6.8c0-4-3.3-7.4-7.4-7.6
						C468,273.8,464.7,276.8,464.7,280.8z"/>
					<path class="st2" d="M489.1,306.1c0,4,3.3,7.6,7.4,7.9c4.1,0.4,7.4-2.6,7.4-6.7c0-4.1-3.3-7.6-7.4-8
						C492.4,299.1,489.1,302.1,489.1,306.1z"/>
					<path class="st2" d="M513.4,332.6c0,4.1,3.3,7.8,7.4,8.3c4.1,0.5,7.4-2.4,7.4-6.6c0-4.1-3.3-7.9-7.4-8.3
						C516.7,325.6,513.4,328.5,513.4,332.6z"/>
				</g>
			</g>
			<g>
				<g class="st6">
					<path class="st7" d="M235.5,45.3c0,4-3.3,6.9-7.4,6.6c-4.1-0.3-7.4-3.8-7.4-7.8c0-4,3.3-6.9,7.4-6.6
						C232.1,37.9,235.5,41.4,235.5,45.3z"/>
					<path class="st7" d="M259.8,70.2c0,3.9-3.3,6.9-7.4,6.7c-4.1-0.2-7.4-3.6-7.4-7.5c0-3.9,3.3-6.9,7.4-6.7
						C256.5,63,259.8,66.3,259.8,70.2z"/>
					<path class="st7" d="M284.2,94.3c0,3.9-3.3,6.9-7.4,6.8c-4.1-0.1-7.4-3.4-7.4-7.3c0-3.9,3.3-6.9,7.4-6.8
						C280.9,87.2,284.2,90.5,284.2,94.3z"/>
					<path class="st7" d="M308.7,117.8c0,3.8-3.3,6.9-7.4,6.9c-4.1-0.1-7.4-3.2-7.4-7.1c0-3.9,3.3-6.9,7.4-6.8
						C305.3,110.8,308.7,114,308.7,117.8z"/>
					<path class="st7" d="M333.1,140.9c0,3.8-3.3,6.9-7.4,6.9c-4.1,0-7.4-3.2-7.4-7c0-3.8,3.3-6.9,7.4-6.9
						C329.8,133.9,333.1,137,333.1,140.9z"/>
					<path class="st7" d="M357.5,163.7c0,3.8-3.3,6.9-7.4,6.9c-4.1,0-7.4-3.1-7.4-6.9c0-3.8,3.3-6.9,7.4-6.9
						C354.2,156.8,357.5,159.9,357.5,163.7z"/>
					<path class="st7" d="M381.9,186.5c0,3.8-3.3,7-7.4,7c-4.1,0-7.4-3.1-7.4-7s3.3-6.9,7.4-7C378.6,179.5,381.9,182.7,381.9,186.5z
						"/>
					<path class="st7" d="M357.5,209.3c0,3.8-3.3,6.9-7.4,6.9c-4.1,0-7.4-3.1-7.4-6.9c0-3.8,3.3-6.9,7.4-6.9
						C354.2,202.4,357.5,205.5,357.5,209.3z"/>
					<path class="st7" d="M333.1,232.1c0,3.8-3.3,7-7.4,7c-4.1,0-7.4-3.1-7.4-6.9c0-3.8,3.3-7,7.4-7
						C329.8,225.2,333.1,228.3,333.1,232.1z"/>
					<path class="st7" d="M308.7,255.2c0,3.8-3.3,7-7.4,7.1c-4.1,0.1-7.4-3-7.4-6.9c0-3.9,3.3-7,7.4-7.1
						C305.3,248.3,308.7,251.3,308.7,255.2z"/>
					<path class="st7" d="M284.2,278.7c0,3.9-3.3,7.1-7.4,7.3c-4.1,0.1-7.4-2.9-7.4-6.8s3.3-7.2,7.4-7.3
						C280.9,271.7,284.2,274.8,284.2,278.7z"/>
					<path class="st7" d="M259.8,302.8c0,3.9-3.3,7.2-7.4,7.5c-4.1,0.2-7.4-2.7-7.4-6.7c0-3.9,3.3-7.3,7.4-7.5
						C256.5,295.8,259.8,298.9,259.8,302.8z"/>
					<path class="st7" d="M235.5,327.7c0,3.9-3.3,7.4-7.4,7.8c-4.1,0.4-7.4-2.6-7.4-6.6c0-4,3.3-7.5,7.4-7.8
						C232.1,320.8,235.5,323.7,235.5,327.7z"/>
				</g>
				<g class="st8">
					<path class="st7" d="M259.8,47c0,3.9-3.3,6.9-7.4,6.6c-4.1-0.2-7.4-3.7-7.4-7.6c0-3.9,3.3-6.9,7.4-6.6
						C256.5,39.7,259.8,43.1,259.8,47z"/>
					<path class="st7" d="M284.2,71.3c0,3.9-3.3,6.9-7.4,6.7c-4.1-0.2-7.4-3.5-7.4-7.3c0-3.9,3.3-6.9,7.4-6.7
						C280.9,64.2,284.2,67.4,284.2,71.3z"/>
					<path class="st7" d="M308.7,94.9c0,3.8-3.3,6.9-7.4,6.8c-4.1-0.1-7.4-3.3-7.4-7.2c0-3.9,3.3-6.9,7.4-6.8
						C305.3,87.9,308.7,91.1,308.7,94.9z"/>
					<path class="st7" d="M333.1,118c0,3.8-3.3,6.9-7.4,6.9c-4.1,0-7.4-3.2-7.4-7c0-3.8,3.3-6.9,7.4-6.9
						C329.8,111.1,333.1,114.2,333.1,118z"/>
					<path class="st7" d="M357.5,140.9c0,3.8-3.3,6.9-7.4,6.9c-4.1,0-7.4-3.1-7.4-6.9c0-3.8,3.3-6.9,7.4-6.9
						C354.2,133.9,357.5,137,357.5,140.9z"/>
					<path class="st7" d="M381.9,163.6c0,3.8-3.3,7-7.4,7c-4.1,0-7.4-3.1-7.4-6.9c0-3.8,3.3-7,7.4-7
						C378.6,156.7,381.9,159.8,381.9,163.6z"/>
					<path class="st7" d="M406.4,186.5c0,3.9-3.3,7-7.4,7c-4.1,0-7.4-3.1-7.4-7c0-3.8,3.3-7,7.4-7
						C403,179.5,406.4,182.6,406.4,186.5z"/>
					<path class="st7" d="M381.9,209.4c0,3.8-3.3,6.9-7.4,6.9c-4.1,0-7.4-3.1-7.4-7c0-3.8,3.3-6.9,7.4-6.9
						C378.6,202.4,381.9,205.5,381.9,209.4z"/>
					<path class="st7" d="M357.5,232.1c0,3.8-3.3,6.9-7.4,6.9c-4.1,0-7.4-3.1-7.4-6.9s3.3-6.9,7.4-6.9
						C354.2,225.2,357.5,228.3,357.5,232.1z"/>
					<path class="st7" d="M333.1,255c0,3.8-3.3,7-7.4,7c-4.1,0-7.4-3-7.4-6.9c0-3.8,3.3-7,7.4-7C329.8,248,333.1,251.1,333.1,255z"
						/>
					<path class="st7" d="M308.7,278.1c0,3.9-3.3,7-7.4,7.1c-4.1,0.1-7.4-2.9-7.4-6.8c0-3.9,3.3-7.1,7.4-7.1
						C305.3,271.2,308.7,274.2,308.7,278.1z"/>
					<path class="st7" d="M284.2,301.7c0,3.9-3.3,7.1-7.4,7.3c-4.1,0.2-7.4-2.8-7.4-6.7c0-3.9,3.3-7.2,7.4-7.3
						C280.9,294.8,284.2,297.8,284.2,301.7z"/>
					<path class="st7" d="M259.8,326c0,3.9-3.3,7.3-7.4,7.6c-4.1,0.3-7.4-2.7-7.4-6.6c0-3.9,3.3-7.4,7.4-7.6
						C256.5,319.1,259.8,322.1,259.8,326z"/>
				</g>
				<g>
					<path class="st7" d="M284.2,48.3c0,3.9-3.3,6.9-7.4,6.7c-4.1-0.2-7.4-3.5-7.4-7.4c0-3.9,3.3-6.9,7.4-6.6
						C280.9,41.1,284.2,44.4,284.2,48.3z"/>
					<path class="st7" d="M308.7,72c0,3.8-3.3,6.9-7.4,6.8c-4.1-0.1-7.4-3.3-7.4-7.2c0-3.9,3.3-6.9,7.4-6.8
						C305.3,65,308.7,68.2,308.7,72z"/>
					<path class="st7" d="M333.1,95.2c0,3.8-3.3,6.9-7.4,6.9c-4.1,0-7.4-3.2-7.4-7c0-3.8,3.3-6.9,7.4-6.9
						C329.8,88.3,333.1,91.4,333.1,95.2z"/>
					<path class="st7" d="M357.5,118.1c0,3.8-3.3,6.9-7.4,7s-7.4-3.1-7.4-6.9c0-3.8,3.3-6.9,7.4-6.9
						C354.2,111.1,357.5,114.2,357.5,118.1z"/>
					<path class="st7" d="M381.9,140.8c0,3.8-3.3,7-7.4,7c-4.1,0-7.4-3.1-7.4-6.9s3.3-7,7.4-7C378.6,133.8,381.9,136.9,381.9,140.8z
						"/>
					<path class="st7" d="M406.4,163.5c0,3.9-3.3,7-7.4,7c-4.1,0-7.4-3.1-7.4-6.9s3.3-7,7.4-7C403,156.5,406.4,159.6,406.4,163.5z"
						/>
					<path class="st7" d="M430.8,186.5c0,3.9-3.3,7-7.4,7c-4.1,0-7.4-3.2-7.4-7c0-3.9,3.3-7,7.4-7
						C427.4,179.4,430.8,182.6,430.8,186.5z"/>
					<path class="st7" d="M406.4,209.5c0,3.9-3.3,7-7.4,6.9c-4.1,0-7.4-3.2-7.4-7c0-3.9,3.3-7,7.4-6.9
						C403,202.5,406.4,205.6,406.4,209.5z"/>
					<path class="st7" d="M381.9,232.2c0,3.8-3.3,6.9-7.4,6.9c-4.1,0-7.4-3.2-7.4-7c0-3.8,3.3-6.9,7.4-6.9
						C378.6,225.3,381.9,228.4,381.9,232.2z"/>
					<path class="st7" d="M357.5,254.9c0,3.8-3.3,6.9-7.4,6.9s-7.4-3.1-7.4-6.9c0-3.8,3.3-6.9,7.4-6.9
						C354.2,248,357.5,251.1,357.5,254.9z"/>
					<path class="st7" d="M333.1,277.8c0,3.8-3.3,7-7.4,7c-4.1,0-7.4-3-7.4-6.9c0-3.8,3.3-7,7.4-7
						C329.8,270.9,333.1,273.9,333.1,277.8z"/>
					<path class="st7" d="M308.7,301c0,3.8-3.3,7-7.4,7.2c-4.1,0.1-7.4-2.9-7.4-6.8c0-3.9,3.3-7.1,7.4-7.2
						C305.3,294.1,308.7,297.1,308.7,301z"/>
					<path class="st7" d="M284.2,324.7c0,3.9-3.3,7.2-7.4,7.4c-4.1,0.2-7.4-2.8-7.4-6.6s3.3-7.2,7.4-7.4
						C280.9,317.9,284.2,320.9,284.2,324.7z"/>
				</g>
				<g>
					<path class="st7" d="M308.7,49.1c0,3.8-3.3,6.9-7.4,6.8c-4.1-0.1-7.4-3.4-7.4-7.2c0-3.9,3.3-6.9,7.4-6.7
						C305.3,42.1,308.7,45.3,308.7,49.1z"/>
					<path class="st7" d="M333.1,72.4c0,3.8-3.3,6.9-7.4,6.9c-4.1-0.1-7.4-3.2-7.4-7.1c0-3.8,3.3-6.9,7.4-6.8
						C329.8,65.4,333.1,68.6,333.1,72.4z"/>
					<path class="st7" d="M357.5,95.3c0,3.8-3.3,7-7.4,7c-4.1,0-7.4-3.1-7.4-6.9c0-3.8,3.3-6.9,7.4-6.9
						C354.2,88.3,357.5,91.4,357.5,95.3z"/>
					<path class="st7" d="M381.9,117.9c0,3.8-3.3,7-7.4,7s-7.4-3.1-7.4-6.9c0-3.8,3.3-7,7.4-7C378.6,111,381.9,114,381.9,117.9z"/>
					<path class="st7" d="M406.4,140.5c0,3.9-3.3,7-7.4,7.1c-4.1,0-7.4-3.1-7.4-6.9c0-3.8,3.3-7,7.4-7.1
						C403,133.6,406.4,136.6,406.4,140.5z"/>
					<path class="st7" d="M430.8,163.3c0,3.9-3.3,7.1-7.4,7.1c-4.1,0-7.4-3.1-7.4-7c0-3.9,3.3-7.1,7.4-7.1
						C427.4,156.3,430.8,159.4,430.8,163.3z"/>
					<path class="st7" d="M455.2,186.5c0,3.9-3.3,7.1-7.4,7.1c-4.1,0-7.4-3.2-7.4-7.1c0-3.9,3.3-7.1,7.4-7.1
						C451.8,179.4,455.2,182.6,455.2,186.5z"/>
					<path class="st7" d="M430.8,209.7c0,3.9-3.3,7-7.4,7c-4.1,0-7.4-3.2-7.4-7.1c0-3.9,3.3-7,7.4-7
						C427.4,202.6,430.8,205.8,430.8,209.7z"/>
					<path class="st7" d="M406.4,232.5c0,3.9-3.3,6.9-7.4,6.9s-7.4-3.2-7.4-7.1c0-3.9,3.3-6.9,7.4-6.9
						C403,225.5,406.4,228.6,406.4,232.5z"/>
					<path class="st7" d="M381.9,255.1c0,3.8-3.3,6.9-7.4,6.9c-4.1,0-7.4-3.2-7.4-7c0-3.8,3.3-6.9,7.4-6.9
						C378.6,248.1,381.9,251.3,381.9,255.1z"/>
					<path class="st7" d="M357.5,277.7c0,3.8-3.3,6.9-7.4,6.9s-7.4-3.1-7.4-6.9c0-3.8,3.3-7,7.4-6.9
						C354.2,270.8,357.5,273.9,357.5,277.7z"/>
					<path class="st7" d="M333.1,300.6c0,3.8-3.3,7-7.4,7c-4.1,0.1-7.4-3-7.4-6.8c0-3.8,3.3-7,7.4-7.1
						C329.8,293.7,333.1,296.8,333.1,300.6z"/>
					<path class="st7" d="M308.7,323.9c0,3.8-3.3,7.1-7.4,7.2c-4.1,0.1-7.4-2.9-7.4-6.7c0-3.9,3.3-7.1,7.4-7.2
						C305.3,317,308.7,320,308.7,323.9z"/>
				</g>
				<g>
					<path class="st7" d="M333.1,49.6c0,3.8-3.3,6.9-7.4,6.9c-4.1-0.1-7.4-3.2-7.4-7.1c0-3.8,3.3-6.9,7.4-6.8
						C329.8,42.6,333.1,45.7,333.1,49.6z"/>
					<path class="st7" d="M357.5,72.4c0,3.8-3.3,7-7.4,7c-4.1,0-7.4-3.1-7.4-6.9c0-3.8,3.3-6.9,7.4-6.9
						C354.2,65.5,357.5,68.6,357.5,72.4z"/>
					<path class="st7" d="M381.9,95c0,3.8-3.3,7-7.4,7.1c-4.1,0-7.4-3-7.4-6.9c0-3.8,3.3-7,7.4-7C378.6,88.1,381.9,91.2,381.9,95z"
						/>
					<path class="st7" d="M406.4,117.5c0,3.9-3.3,7.1-7.4,7.1c-4.1,0.1-7.4-3-7.4-6.9c0-3.8,3.3-7,7.4-7.1
						C403,110.6,406.4,113.6,406.4,117.5z"/>
					<path class="st7" d="M430.8,140.1c0,3.9-3.3,7.1-7.4,7.2c-4.1,0.1-7.4-3-7.4-6.9c0-3.9,3.3-7.1,7.4-7.2
						C427.4,133.1,430.8,136.2,430.8,140.1z"/>
					<path class="st7" d="M455.2,163c0,3.9-3.3,7.2-7.4,7.2c-4.1,0-7.4-3.1-7.4-7c0-3.9,3.3-7.1,7.4-7.2
						C451.8,156,455.2,159.1,455.2,163z"/>
					<path class="st7" d="M479.5,186.5c0,4-3.3,7.2-7.4,7.2c-4.1,0-7.4-3.2-7.4-7.2c0-4,3.3-7.2,7.4-7.2
						C476.2,179.3,479.5,182.5,479.5,186.5z"/>
					<path class="st7" d="M455.2,210c0,3.9-3.3,7.1-7.4,7c-4.1-0.1-7.4-3.3-7.4-7.2c0-3.9,3.3-7.1,7.4-7
						C451.8,202.8,455.2,206,455.2,210z"/>
					<path class="st7" d="M430.8,232.9c0,3.9-3.3,7-7.4,6.9c-4.1-0.1-7.4-3.3-7.4-7.2c0-3.9,3.3-7,7.4-6.9
						C427.4,225.8,430.8,229,430.8,232.9z"/>
					<path class="st7" d="M406.4,255.5c0,3.9-3.3,6.9-7.4,6.8c-4.1-0.1-7.4-3.3-7.4-7.1c0-3.8,3.3-6.9,7.4-6.9
						C403,248.4,406.4,251.6,406.4,255.5z"/>
					<path class="st7" d="M381.9,278c0,3.8-3.3,6.9-7.4,6.9s-7.4-3.2-7.4-7c0-3.8,3.3-6.9,7.4-6.9C378.6,271,381.9,274.1,381.9,278z
						"/>
					<path class="st7" d="M357.5,300.6c0,3.8-3.3,6.9-7.4,6.9s-7.4-3.1-7.4-6.9c0-3.8,3.3-7,7.4-6.9
						C354.2,293.6,357.5,296.7,357.5,300.6z"/>
					<path class="st7" d="M333.1,323.4c0,3.8-3.3,7-7.4,7c-4.1,0.1-7.4-3-7.4-6.8c0-3.8,3.3-7,7.4-7.1
						C329.8,316.5,333.1,319.6,333.1,323.4z"/>
				</g>
				<g>
					<path class="st9" d="M357.5,49.6c0,3.8-3.3,7-7.4,7c-4.1,0-7.4-3.1-7.4-7s3.3-6.9,7.4-6.9C354.2,42.7,357.5,45.8,357.5,49.6z"
						/>
					<path class="st9" d="M381.9,72.2c0,3.8-3.3,7-7.4,7.1c-4.1,0.1-7.4-3-7.4-6.9s3.3-7,7.4-7C378.6,65.3,381.9,68.3,381.9,72.2z"
						/>
					<path class="st9" d="M406.4,94.5c0,3.9-3.3,7.1-7.4,7.2c-4.1,0.1-7.4-3-7.4-6.8c0-3.9,3.3-7,7.4-7.1S406.4,90.6,406.4,94.5z"/>
					<path class="st9" d="M430.8,116.9c0,3.9-3.3,7.1-7.4,7.2c-4.1,0.1-7.4-3-7.4-6.9c0-3.9,3.3-7.1,7.4-7.2
						C427.4,110,430.8,113,430.8,116.9z"/>
					<path class="st9" d="M455.2,139.6c0,3.9-3.3,7.2-7.4,7.3c-4.1,0.1-7.4-3-7.4-6.9c0-3.9,3.3-7.2,7.4-7.3
						C451.8,132.6,455.2,135.7,455.2,139.6z"/>
					<path class="st9" d="M479.5,162.7c0,4-3.3,7.3-7.4,7.3c-4.1,0-7.4-3.1-7.4-7.1c0-4,3.3-7.2,7.4-7.3
						C476.2,155.5,479.5,158.7,479.5,162.7z"/>
					<path class="st9" d="M503.9,186.5c0,4.1-3.3,7.3-7.4,7.3c-4.1,0-7.4-3.3-7.4-7.3c0-4,3.3-7.3,7.4-7.3
						C500.5,179.2,503.9,182.4,503.9,186.5z"/>
					<path class="st9" d="M479.5,210.3c0,4-3.3,7.2-7.4,7.1c-4.1-0.1-7.4-3.3-7.4-7.3c0-4,3.3-7.1,7.4-7.1
						C476.2,203,479.5,206.3,479.5,210.3z"/>
					<path class="st9" d="M455.2,233.4c0,3.9-3.3,7-7.4,6.9c-4.1-0.1-7.4-3.4-7.4-7.3c0-3.9,3.3-7,7.4-6.9
						C451.8,226.2,455.2,229.5,455.2,233.4z"/>
					<path class="st9" d="M430.8,256.1c0,3.9-3.3,7-7.4,6.8c-4.1-0.1-7.4-3.3-7.4-7.2c0-3.9,3.3-7,7.4-6.9
						C427.4,248.9,430.8,252.2,430.8,256.1z"/>
					<path class="st9" d="M406.4,278.5c0,3.9-3.3,6.9-7.4,6.8c-4.1-0.1-7.4-3.3-7.4-7.1c0-3.9,3.3-6.9,7.4-6.8
						C403,271.4,406.4,274.6,406.4,278.5z"/>
					<path class="st9" d="M381.9,300.8c0,3.8-3.3,6.9-7.4,6.8c-4.1-0.1-7.4-3.2-7.4-7c0-3.8,3.3-6.9,7.4-6.9
						C378.6,293.8,381.9,297,381.9,300.8z"/>
					<path class="st9" d="M357.5,323.4c0,3.8-3.3,6.9-7.4,6.9s-7.4-3.1-7.4-6.9c0-3.8,3.3-7,7.4-7
						C354.2,316.4,357.5,319.5,357.5,323.4z"/>
				</g>
			</g>
		</g>
	</g>
	<g class="st4">
		<path class="st10" d="M357.5,49.6c0,3.8-3.3,7-7.4,7c-4.1,0-7.4-3.1-7.4-7s3.3-6.9,7.4-6.9C354.2,42.7,357.5,45.8,357.5,49.6z"/>
		<path class="st10" d="M381.9,72.2c0,3.8-3.3,7-7.4,7.1c-4.1,0.1-7.4-3-7.4-6.9s3.3-7,7.4-7C378.6,65.3,381.9,68.3,381.9,72.2z"/>
		<path class="st10" d="M406.4,94.5c0,3.9-3.3,7.1-7.4,7.2c-4.1,0.1-7.4-3-7.4-6.8c0-3.9,3.3-7,7.4-7.1S406.4,90.6,406.4,94.5z"/>
		<path class="st10" d="M430.8,116.9c0,3.9-3.3,7.1-7.4,7.2c-4.1,0.1-7.4-3-7.4-6.9c0-3.9,3.3-7.1,7.4-7.2
			C427.4,110,430.8,113,430.8,116.9z"/>
		<path class="st10" d="M455.2,139.6c0,3.9-3.3,7.2-7.4,7.3c-4.1,0.1-7.4-3-7.4-6.9c0-3.9,3.3-7.2,7.4-7.3
			C451.8,132.6,455.2,135.7,455.2,139.6z"/>
		<path class="st10" d="M479.5,162.7c0,4-3.3,7.3-7.4,7.3c-4.1,0-7.4-3.1-7.4-7.1c0-4,3.3-7.2,7.4-7.3
			C476.2,155.5,479.5,158.7,479.5,162.7z"/>
		<path class="st10" d="M503.9,186.5c0,4.1-3.3,7.3-7.4,7.3c-4.1,0-7.4-3.3-7.4-7.3c0-4,3.3-7.3,7.4-7.3
			C500.5,179.2,503.9,182.4,503.9,186.5z"/>
		<path class="st10" d="M479.5,210.3c0,4-3.3,7.2-7.4,7.1c-4.1-0.1-7.4-3.3-7.4-7.3c0-4,3.3-7.1,7.4-7.1
			C476.2,203,479.5,206.3,479.5,210.3z"/>
		<path class="st10" d="M455.2,233.4c0,3.9-3.3,7-7.4,6.9c-4.1-0.1-7.4-3.4-7.4-7.3c0-3.9,3.3-7,7.4-6.9
			C451.8,226.2,455.2,229.5,455.2,233.4z"/>
		<path class="st10" d="M430.8,256.1c0,3.9-3.3,7-7.4,6.8c-4.1-0.1-7.4-3.3-7.4-7.2c0-3.9,3.3-7,7.4-6.9
			C427.4,248.9,430.8,252.2,430.8,256.1z"/>
		<path class="st10" d="M406.4,278.5c0,3.9-3.3,6.9-7.4,6.8c-4.1-0.1-7.4-3.3-7.4-7.1c0-3.9,3.3-6.9,7.4-6.8
			C403,271.4,406.4,274.6,406.4,278.5z"/>
		<path class="st10" d="M381.9,300.8c0,3.8-3.3,6.9-7.4,6.8c-4.1-0.1-7.4-3.2-7.4-7c0-3.8,3.3-6.9,7.4-6.9
			C378.6,293.8,381.9,297,381.9,300.8z"/>
		<path class="st10" d="M357.5,323.4c0,3.8-3.3,6.9-7.4,6.9s-7.4-3.1-7.4-6.9c0-3.8,3.3-7,7.4-7
			C354.2,316.4,357.5,319.5,357.5,323.4z"/>
	</g>
	<g>
		
			<linearGradient id="SVGID_1_" gradientUnits="userSpaceOnUse" x1="319.3605" y1="42.8925" x2="331.9468" y2="50.1591" gradientTransform="matrix(1 0 0 -1 0 96)">
			<stop  offset="0" style="stop-color:#3BBEEF;stop-opacity:0"/>
			<stop  offset="0.2371" style="stop-color:#55C4F1;stop-opacity:0.2371"/>
			<stop  offset="0.5206" style="stop-color:#6DCAF3;stop-opacity:0.5206"/>
			<stop  offset="0.7825" style="stop-color:#7CCEF4;stop-opacity:0.7825"/>
			<stop  offset="1" style="stop-color:#81CFF4"/>
		</linearGradient>
		<path class="st11" d="M333.1,49.6c0,3.8-3.3,6.9-7.4,6.9c-4.1-0.1-7.4-3.2-7.4-7.1c0-3.8,3.3-6.9,7.4-6.8
			C329.8,42.6,333.1,45.7,333.1,49.6z"/>
		
			<linearGradient id="SVGID_00000107569235905738426940000003219087076734231692_" gradientUnits="userSpaceOnUse" x1="343.7465" y1="19.8816" x2="356.4243" y2="27.201" gradientTransform="matrix(1 0 0 -1 0 96)">
			<stop  offset="0" style="stop-color:#3BBEEF;stop-opacity:0"/>
			<stop  offset="0.2371" style="stop-color:#55C4F1;stop-opacity:0.2371"/>
			<stop  offset="0.5206" style="stop-color:#6DCAF3;stop-opacity:0.5206"/>
			<stop  offset="0.7825" style="stop-color:#7CCEF4;stop-opacity:0.7825"/>
			<stop  offset="1" style="stop-color:#81CFF4"/>
		</linearGradient>
		<path style="fill:url(#SVGID_00000107569235905738426940000003219087076734231692_);" d="M357.5,72.4c0,3.8-3.3,7-7.4,7
			c-4.1,0-7.4-3.1-7.4-6.9c0-3.8,3.3-6.9,7.4-6.9C354.2,65.5,357.5,68.6,357.5,72.4z"/>
		
			<linearGradient id="SVGID_00000005987062322257850690000003683052393198041262_" gradientUnits="userSpaceOnUse" x1="368.1469" y1="-2.7959" x2="380.8889" y2="4.5606" gradientTransform="matrix(1 0 0 -1 0 96)">
			<stop  offset="0" style="stop-color:#3BBEEF;stop-opacity:0"/>
			<stop  offset="0.2371" style="stop-color:#55C4F1;stop-opacity:0.2371"/>
			<stop  offset="0.5206" style="stop-color:#6DCAF3;stop-opacity:0.5206"/>
			<stop  offset="0.7825" style="stop-color:#7CCEF4;stop-opacity:0.7825"/>
			<stop  offset="1" style="stop-color:#81CFF4"/>
		</linearGradient>
		<path style="fill:url(#SVGID_00000005987062322257850690000003683052393198041262_);" d="M381.9,95c0,3.8-3.3,7-7.4,7.1
			c-4.1,0-7.4-3-7.4-6.9c0-3.8,3.3-7,7.4-7C378.6,88.1,381.9,91.2,381.9,95z"/>
		
			<linearGradient id="SVGID_00000080169692828998347260000016641139370893439648_" gradientUnits="userSpaceOnUse" x1="392.5512" y1="-25.3377" x2="405.3342" y2="-17.9575" gradientTransform="matrix(1 0 0 -1 0 96)">
			<stop  offset="0" style="stop-color:#3BBEEF;stop-opacity:0"/>
			<stop  offset="0.2371" style="stop-color:#55C4F1;stop-opacity:0.2371"/>
			<stop  offset="0.5206" style="stop-color:#6DCAF3;stop-opacity:0.5206"/>
			<stop  offset="0.7825" style="stop-color:#7CCEF4;stop-opacity:0.7825"/>
			<stop  offset="1" style="stop-color:#81CFF4"/>
		</linearGradient>
		<path style="fill:url(#SVGID_00000080169692828998347260000016641139370893439648_);" d="M406.4,117.5c0,3.9-3.3,7.1-7.4,7.1
			c-4.1,0.1-7.4-3-7.4-6.9c0-3.8,3.3-7,7.4-7.1C403,110.6,406.4,113.6,406.4,117.5z"/>
		
			<linearGradient id="SVGID_00000075152310884888452090000005126375175450824889_" gradientUnits="userSpaceOnUse" x1="416.9579" y1="-47.9472" x2="429.7536" y2="-40.5595" gradientTransform="matrix(1 0 0 -1 0 96)">
			<stop  offset="0" style="stop-color:#3BBEEF;stop-opacity:0"/>
			<stop  offset="0.2371" style="stop-color:#55C4F1;stop-opacity:0.2371"/>
			<stop  offset="0.5206" style="stop-color:#6DCAF3;stop-opacity:0.5206"/>
			<stop  offset="0.7825" style="stop-color:#7CCEF4;stop-opacity:0.7825"/>
			<stop  offset="1" style="stop-color:#81CFF4"/>
		</linearGradient>
		<path style="fill:url(#SVGID_00000075152310884888452090000005126375175450824889_);" d="M430.8,140.1c0,3.9-3.3,7.1-7.4,7.2
			c-4.1,0.1-7.4-3-7.4-6.9c0-3.9,3.3-7.1,7.4-7.2C427.4,133.1,430.8,136.2,430.8,140.1z"/>
		
			<linearGradient id="SVGID_00000058572941078357464750000008385293899400686729_" gradientUnits="userSpaceOnUse" x1="441.3589" y1="-70.8302" x2="454.1458" y2="-63.4476" gradientTransform="matrix(1 0 0 -1 0 96)">
			<stop  offset="0" style="stop-color:#3BBEEF;stop-opacity:0"/>
			<stop  offset="0.2371" style="stop-color:#55C4F1;stop-opacity:0.2371"/>
			<stop  offset="0.5206" style="stop-color:#6DCAF3;stop-opacity:0.5206"/>
			<stop  offset="0.7825" style="stop-color:#7CCEF4;stop-opacity:0.7825"/>
			<stop  offset="1" style="stop-color:#81CFF4"/>
		</linearGradient>
		<path style="fill:url(#SVGID_00000058572941078357464750000008385293899400686729_);" d="M455.2,163c0,3.9-3.3,7.2-7.4,7.2
			c-4.1,0-7.4-3.1-7.4-7c0-3.9,3.3-7.1,7.4-7.2C451.8,156,455.2,159.1,455.2,163z"/>
		
			<linearGradient id="SVGID_00000106836879217336227660000004080040948393797301_" gradientUnits="userSpaceOnUse" x1="465.7494" y1="-94.1879" x2="478.5022" y2="-86.8251" gradientTransform="matrix(1 0 0 -1 0 96)">
			<stop  offset="0" style="stop-color:#3BBEEF;stop-opacity:0"/>
			<stop  offset="0.2371" style="stop-color:#55C4F1;stop-opacity:0.2371"/>
			<stop  offset="0.5206" style="stop-color:#6DCAF3;stop-opacity:0.5206"/>
			<stop  offset="0.7825" style="stop-color:#7CCEF4;stop-opacity:0.7825"/>
			<stop  offset="1" style="stop-color:#81CFF4"/>
		</linearGradient>
		<path style="fill:url(#SVGID_00000106836879217336227660000004080040948393797301_);" d="M479.5,186.5c0,4-3.3,7.2-7.4,7.2
			c-4.1,0-7.4-3.2-7.4-7.2c0-4,3.3-7.2,7.4-7.2C476.2,179.3,479.5,182.5,479.5,186.5z"/>
		
			<linearGradient id="SVGID_00000059282961729245635610000006070786828292129442_" gradientUnits="userSpaceOnUse" x1="441.4214" y1="-117.5259" x2="454.0807" y2="-110.2172" gradientTransform="matrix(1 0 0 -1 0 96)">
			<stop  offset="0" style="stop-color:#3BBEEF;stop-opacity:0"/>
			<stop  offset="0.2371" style="stop-color:#55C4F1;stop-opacity:0.2371"/>
			<stop  offset="0.5206" style="stop-color:#6DCAF3;stop-opacity:0.5206"/>
			<stop  offset="0.7825" style="stop-color:#7CCEF4;stop-opacity:0.7825"/>
			<stop  offset="1" style="stop-color:#81CFF4"/>
		</linearGradient>
		<path style="fill:url(#SVGID_00000059282961729245635610000006070786828292129442_);" d="M455.2,210c0,3.9-3.3,7.1-7.4,7
			c-4.1-0.1-7.4-3.3-7.4-7.2c0-3.9,3.3-7.1,7.4-7C451.8,202.8,455.2,206,455.2,210z"/>
		
			<linearGradient id="SVGID_00000108306772346976144880000017500245519539341237_" gradientUnits="userSpaceOnUse" x1="417.0517" y1="-140.3938" x2="429.6562" y2="-133.1165" gradientTransform="matrix(1 0 0 -1 0 96)">
			<stop  offset="0" style="stop-color:#3BBEEF;stop-opacity:0"/>
			<stop  offset="0.2371" style="stop-color:#55C4F1;stop-opacity:0.2371"/>
			<stop  offset="0.5206" style="stop-color:#6DCAF3;stop-opacity:0.5206"/>
			<stop  offset="0.7825" style="stop-color:#7CCEF4;stop-opacity:0.7825"/>
			<stop  offset="1" style="stop-color:#81CFF4"/>
		</linearGradient>
		<path style="fill:url(#SVGID_00000108306772346976144880000017500245519539341237_);" d="M430.8,232.9c0,3.9-3.3,7-7.4,6.9
			c-4.1-0.1-7.4-3.3-7.4-7.2c0-3.9,3.3-7,7.4-6.9C427.4,225.8,430.8,229,430.8,232.9z"/>
		
			<linearGradient id="SVGID_00000181776475391794589580000010176156290844126900_" gradientUnits="userSpaceOnUse" x1="392.6451" y1="-162.9915" x2="405.2326" y2="-155.7241" gradientTransform="matrix(1 0 0 -1 0 96)">
			<stop  offset="0" style="stop-color:#3BBEEF;stop-opacity:0"/>
			<stop  offset="0.2371" style="stop-color:#55C4F1;stop-opacity:0.2371"/>
			<stop  offset="0.5206" style="stop-color:#6DCAF3;stop-opacity:0.5206"/>
			<stop  offset="0.7825" style="stop-color:#7CCEF4;stop-opacity:0.7825"/>
			<stop  offset="1" style="stop-color:#81CFF4"/>
		</linearGradient>
		<path style="fill:url(#SVGID_00000181776475391794589580000010176156290844126900_);" d="M406.4,255.5c0,3.9-3.3,6.9-7.4,6.8
			c-4.1-0.1-7.4-3.3-7.4-7.1c0-3.8,3.3-6.9,7.4-6.9C403,248.4,406.4,251.6,406.4,255.5z"/>
		
			<linearGradient id="SVGID_00000016068688948522392300000013540862050915977662_" gradientUnits="userSpaceOnUse" x1="368.2068" y1="-185.5255" x2="380.8154" y2="-178.2462" gradientTransform="matrix(1 0 0 -1 0 96)">
			<stop  offset="0" style="stop-color:#3BBEEF;stop-opacity:0"/>
			<stop  offset="0.2371" style="stop-color:#55C4F1;stop-opacity:0.2371"/>
			<stop  offset="0.5206" style="stop-color:#6DCAF3;stop-opacity:0.5206"/>
			<stop  offset="0.7825" style="stop-color:#7CCEF4;stop-opacity:0.7825"/>
			<stop  offset="1" style="stop-color:#81CFF4"/>
		</linearGradient>
		<path style="fill:url(#SVGID_00000016068688948522392300000013540862050915977662_);" d="M381.9,278c0,3.8-3.3,6.9-7.4,6.9
			s-7.4-3.2-7.4-7c0-3.8,3.3-6.9,7.4-6.9C378.6,271,381.9,274.1,381.9,278z"/>
		
			<linearGradient id="SVGID_00000178917144975572550860000013622415052598473132_" gradientUnits="userSpaceOnUse" x1="343.7462" y1="-208.1949" x2="356.412" y2="-200.8822" gradientTransform="matrix(1 0 0 -1 0 96)">
			<stop  offset="0" style="stop-color:#3BBEEF;stop-opacity:0"/>
			<stop  offset="0.2371" style="stop-color:#55C4F1;stop-opacity:0.2371"/>
			<stop  offset="0.5206" style="stop-color:#6DCAF3;stop-opacity:0.5206"/>
			<stop  offset="0.7825" style="stop-color:#7CCEF4;stop-opacity:0.7825"/>
			<stop  offset="1" style="stop-color:#81CFF4"/>
		</linearGradient>
		<path style="fill:url(#SVGID_00000178917144975572550860000013622415052598473132_);" d="M357.5,300.6c0,3.8-3.3,6.9-7.4,6.9
			s-7.4-3.1-7.4-6.9c0-3.8,3.3-7,7.4-6.9C354.2,293.6,357.5,296.7,357.5,300.6z"/>
		
			<linearGradient id="SVGID_00000131368434452166348380000009409868044782482838_" gradientUnits="userSpaceOnUse" x1="319.2652" y1="-231.2063" x2="332.0267" y2="-223.8383" gradientTransform="matrix(1 0 0 -1 0 96)">
			<stop  offset="0" style="stop-color:#3BBEEF;stop-opacity:0"/>
			<stop  offset="0.2371" style="stop-color:#55C4F1;stop-opacity:0.2371"/>
			<stop  offset="0.5206" style="stop-color:#6DCAF3;stop-opacity:0.5206"/>
			<stop  offset="0.7825" style="stop-color:#7CCEF4;stop-opacity:0.7825"/>
			<stop  offset="1" style="stop-color:#81CFF4"/>
		</linearGradient>
		<path style="fill:url(#SVGID_00000131368434452166348380000009409868044782482838_);" d="M333.1,323.4c0,3.8-3.3,7-7.4,7
			c-4.1,0.1-7.4-3-7.4-6.8c0-3.8,3.3-7,7.4-7.1C329.8,316.5,333.1,319.6,333.1,323.4z"/>
	</g>
	<g class="st8">
		<g class="st6">
			<path class="st7" d="M134.3,34c0,4.3-3.3,7.3-7.4,6.7c-4.1-0.6-7.4-4.6-7.4-8.9c0-4.3,3.3-7.3,7.4-6.6
				C131,25.7,134.3,29.7,134.3,34z"/>
			<path class="st7" d="M158.6,62.2c0,4.2-3.3,7.2-7.4,6.8c-4.1-0.4-7.4-4.2-7.4-8.5c0-4.2,3.3-7.3,7.4-6.8
				C155.3,54.3,158.6,58,158.6,62.2z"/>
			<path class="st7" d="M182.8,89c0,4.1-3.3,7.2-7.4,6.9c-4.1-0.3-7.4-3.9-7.4-8.1c0-4.2,3.3-7.2,7.4-6.9
				C179.5,81.4,182.8,84.9,182.8,89z"/>
			<path class="st7" d="M207.2,114.7c0,4-3.3,7.1-7.4,7c-4.1-0.2-7.4-3.6-7.4-7.7s3.3-7.2,7.4-6.9
				C203.9,107.2,207.2,110.7,207.2,114.7z"/>
			<path class="st7" d="M231.5,139.3c0,4-3.3,7.1-7.4,7c-4.1-0.1-7.4-3.4-7.4-7.4s3.3-7.1,7.4-7
				C228.2,132.1,231.5,135.4,231.5,139.3z"/>
			<path class="st7" d="M231.5,233.7c0,4-3.3,7.3-7.4,7.4c-4.1,0.1-7.4-3-7.4-7c0-4,3.3-7.3,7.4-7.4
				C228.2,226.6,231.5,229.7,231.5,233.7z"/>
			<path class="st7" d="M207.2,258.3c0,4-3.3,7.5-7.4,7.7c-4.1,0.2-7.4-2.9-7.4-6.9c0-4.1,3.3-7.5,7.4-7.7
				C203.9,251.2,207.2,254.3,207.2,258.3z"/>
			<path class="st7" d="M182.8,284c0,4.1-3.3,7.7-7.4,8c-4.1,0.4-7.4-2.7-7.4-6.9c0-4.1,3.3-7.8,7.4-8.1
				C179.5,276.8,182.8,279.9,182.8,284z"/>
			<path class="st7" d="M158.6,310.8c0,4.2-3.3,7.9-7.4,8.4c-4.1,0.5-7.4-2.5-7.4-6.8c0-4.2,3.3-8,7.4-8.5
				C155.3,303.6,158.6,306.6,158.6,310.8z"/>
			<path class="st7" d="M134.3,339c0,4.3-3.3,8.2-7.4,8.9c-4.1,0.7-7.4-2.3-7.4-6.6c0-4.3,3.3-8.4,7.4-8.9
				C131,331.7,134.3,334.8,134.3,339z"/>
			<path class="st7" d="M231.4,162.9c0,4-3.3,7.1-7.4,7.1c-4.1,0-7.4-3.3-7.4-7.3c0-4,3.3-7.2,7.4-7.1S231.4,159,231.4,162.9z"/>
			<path class="st7" d="M231.5,186.5c0,4-3.3,7.2-7.4,7.2c-4.1,0-7.4-3.2-7.4-7.2c0-4,3.3-7.2,7.4-7.2
				C228.2,179.3,231.5,182.5,231.5,186.5z"/>
			<path class="st7" d="M231.4,210.1c0,4-3.3,7.2-7.4,7.3c-4.1,0.1-7.4-3.1-7.4-7.1c0-4,3.3-7.3,7.4-7.3
				C228.1,202.9,231.4,206.1,231.4,210.1z"/>
		</g>
		<g class="st8">
			<path class="st7" d="M158.5,37.3c0,4.2-3.3,7.2-7.4,6.6s-7.4-4.4-7.4-8.6c0-4.2,3.3-7.2,7.4-6.6
				C155.2,29.3,158.5,33.2,158.5,37.3z"/>
			<path class="st7" d="M182.8,64.7c0,4.1-3.3,7.1-7.4,6.7c-4.1-0.4-7.4-4.1-7.4-8.2c0-4.2,3.3-7.1,7.4-6.7
				C179.4,56.9,182.8,60.6,182.8,64.7z"/>
			<path class="st7" d="M207.1,90.7c0,4-3.3,7.1-7.4,6.8c-4.1-0.2-7.4-3.8-7.4-7.8s3.3-7.1,7.4-6.8
				C203.8,83.2,207.1,86.7,207.1,90.7z"/>
			<path class="st7" d="M231.4,115.7c0,4-3.3,7.1-7.4,6.9c-4.1-0.2-7.4-3.5-7.4-7.5c0-4,3.3-7.1,7.4-6.9
				C228.1,108.4,231.4,111.8,231.4,115.7z"/>
			<path class="st7" d="M231.4,257.3c0,4-3.3,7.3-7.4,7.5c-4.1,0.2-7.4-2.9-7.4-6.9c0-4,3.3-7.4,7.4-7.5
				C228.1,250.2,231.4,253.3,231.4,257.3z"/>
			<path class="st7" d="M207.1,282.3c0,4-3.3,7.5-7.4,7.8c-4.1,0.3-7.4-2.7-7.4-6.8c0-4.1,3.3-7.6,7.4-7.8
				C203.8,275.2,207.1,278.3,207.1,282.3z"/>
			<path class="st7" d="M182.8,308.3c0,4.1-3.3,7.7-7.4,8.2c-4.1,0.4-7.4-2.6-7.4-6.7c0-4.1,3.3-7.8,7.4-8.2
				C179.4,301.2,182.8,304.2,182.8,308.3z"/>
			<path class="st7" d="M158.5,335.7c0,4.2-3.3,8-7.4,8.6c-4.1,0.6-7.4-2.4-7.4-6.6c0-4.2,3.3-8.1,7.4-8.6
				C155.2,328.5,158.5,331.5,158.5,335.7z"/>
			<path class="st7" d="M255.8,163.2c0,3.9-3.3,7.1-7.4,7c-4.1,0-7.4-3.3-7.4-7.2c0-3.9,3.3-7.1,7.4-7
				C252.5,156.1,255.8,159.3,255.8,163.2z"/>
			<path class="st7" d="M255.9,186.5c0,3.9-3.3,7.1-7.4,7.1c-4.1,0-7.4-3.2-7.4-7.1c0-3.9,3.3-7.1,7.4-7.1
				C252.6,179.4,255.9,182.6,255.9,186.5z"/>
			<path class="st7" d="M255.8,209.8c0,3.9-3.3,7.1-7.4,7.2c-4.1,0.1-7.4-3.1-7.4-7c0-3.9,3.3-7.2,7.4-7.2
				C252.5,202.7,255.8,205.9,255.8,209.8z"/>
		</g>
		<g class="st24">
			<path class="st7" d="M134.3,84.8c0,4.3-3.3,7.4-7.4,7.1c-4.1-0.4-7.4-4.2-7.4-8.6c0-4.3,3.3-7.5,7.4-7
				C131,76.7,134.3,80.6,134.3,84.8z"/>
			<path class="st7" d="M134.3,288.2c0,4.3-3.3,8.1-7.4,8.5c-4.1,0.4-7.4-2.7-7.4-7c0-4.3,3.3-8.2,7.4-8.6
				C131,280.7,134.3,283.9,134.3,288.2z"/>
			<path class="st7" d="M86.8,52.9c0,4.5-3.3,7.7-7.3,7.1c-4-0.6-7.3-4.8-7.3-9.4c0-4.6,3.3-7.7,7.3-7
				C83.5,44.2,86.8,48.4,86.8,52.9z"/>
			<path class="st7" d="M110.9,82.4c0,4.4-3.3,7.6-7.4,7.2c-4.1-0.4-7.3-4.4-7.3-8.8c0-4.4,3.3-7.6,7.3-7.1
				C107.6,74.1,110.9,78,110.9,82.4z"/>
			<path class="st7" d="M110.9,290.6c0,4.4-3.3,8.3-7.4,8.8c-4.1,0.5-7.3-2.7-7.3-7.1c0-4.5,3.3-8.4,7.3-8.8
				C107.6,283,110.9,286.2,110.9,290.6z"/>
			<path class="st7" d="M86.8,320.1c0,4.5-3.3,8.6-7.3,9.3c-4,0.7-7.3-2.5-7.3-7c0-4.6,3.3-8.8,7.3-9.4
				C83.5,312.4,86.8,315.6,86.8,320.1z"/>
			<path class="st7" d="M86.8,26.2c0,4.5-3.3,7.6-7.3,6.9c-4-0.7-7.3-5-7.3-9.6c0-4.6,3.3-7.6,7.3-6.8
				C83.5,17.4,86.8,21.7,86.8,26.2z"/>
			<path class="st7" d="M110.9,56.4c0,4.4-3.3,7.5-7.4,7c-4.1-0.5-7.3-4.6-7.3-9c0-4.4,3.3-7.5,7.3-6.9S110.9,52,110.9,56.4z"/>
			<path class="st7" d="M110.9,316.6c0,4.4-3.3,8.4-7.4,9c-4.1,0.6-7.3-2.5-7.3-6.9c0-4.4,3.3-8.5,7.3-9
				C107.6,309.1,110.9,312.3,110.9,316.6z"/>
			<path class="st7" d="M86.8,346.8c0,4.5-3.3,8.7-7.3,9.5c-4,0.8-7.3-2.2-7.3-6.8c0-4.6,3.3-8.9,7.3-9.6
				C83.5,339.3,86.8,342.3,86.8,346.8z"/>
			<path class="st7" d="M62.7,21.6c0,4.6-3.3,7.7-7.3,7c-4-0.8-7.3-5.2-7.3-9.9c0-4.7,3.3-7.8,7.3-6.9C59.4,12.6,62.7,17,62.7,21.6z
				"/>
			<path class="st7" d="M62.7,351.4c0,4.6-3.3,9-7.3,9.9c-4,0.9-7.3-2.2-7.3-6.9c0-4.7,3.3-9.2,7.3-9.9
				C59.4,343.6,62.7,346.8,62.7,351.4z"/>
		</g>
		<g class="st25">
			<path class="st7" d="M134.3,59.4c0,4.3-3.3,7.4-7.4,6.9c-4.1-0.5-7.4-4.4-7.4-8.7c0-4.3,3.3-7.4,7.4-6.8
				C131,51.2,134.3,55.1,134.3,59.4z"/>
			<path class="st7" d="M134.3,313.6c0,4.3-3.3,8.2-7.4,8.7c-4.1,0.6-7.4-2.5-7.4-6.8c0-4.3,3.3-8.3,7.4-8.7
				S134.3,309.3,134.3,313.6z"/>
			<path class="st7" d="M158.5,87.1c0,4.2-3.3,7.3-7.4,7c-4.1-0.3-7.4-4.1-7.4-8.3c0-4.2,3.3-7.3,7.4-6.9
				C155.2,79.2,158.5,82.9,158.5,87.1z"/>
			<path class="st7" d="M158.5,111.9c0,4.2-3.3,7.4-7.4,7.1c-4.1-0.2-7.4-3.9-7.4-8.1s3.3-7.4,7.4-7.1
				C155.2,104.1,158.5,107.7,158.5,111.9z"/>
			<path class="st7" d="M182.8,113.4c0,4.1-3.3,7.2-7.4,7c-4.1-0.2-7.4-3.8-7.4-7.9c0-4.1,3.3-7.3,7.4-7
				C179.4,105.8,182.8,109.3,182.8,113.4z"/>
			<path class="st7" d="M207.1,138.6c0,4-3.3,7.2-7.4,7.1c-4.1-0.1-7.4-3.5-7.4-7.6c0-4.1,3.3-7.2,7.4-7.1
				C203.8,131.2,207.1,134.6,207.1,138.6z"/>
			<path class="st7" d="M207.1,162.6c0,4-3.3,7.2-7.4,7.2c-4.1,0-7.4-3.4-7.4-7.5c0-4.1,3.3-7.3,7.4-7.2
				C203.8,155.2,207.1,158.5,207.1,162.6z"/>
			<path class="st7" d="M207.2,186.5c0,4-3.3,7.3-7.4,7.3c-4.1,0-7.4-3.3-7.4-7.3c0-4.1,3.3-7.3,7.4-7.3
				C203.9,179.2,207.2,182.5,207.2,186.5z"/>
			<path class="st7" d="M207.1,210.4c0,4-3.3,7.4-7.4,7.4c-4.1,0.1-7.4-3.1-7.4-7.2s3.3-7.4,7.4-7.5
				C203.8,203.2,207.1,206.4,207.1,210.4z"/>
			<path class="st7" d="M207.1,234.4c0,4-3.3,7.4-7.4,7.6c-4.1,0.2-7.4-3-7.4-7.1c0-4.1,3.3-7.5,7.4-7.6
				C203.8,227.2,207.1,230.4,207.1,234.4z"/>
			<path class="st7" d="M182.8,137.8c0,4.1-3.3,7.3-7.4,7.2c-4.1-0.1-7.4-3.6-7.4-7.8c0-4.1,3.3-7.4,7.4-7.2
				C179.5,130.2,182.8,133.7,182.8,137.8z"/>
			<path class="st7" d="M182.8,235.2c0,4.1-3.3,7.6-7.4,7.7c-4.1,0.2-7.4-3-7.4-7.2c0-4.2,3.3-7.6,7.4-7.8
				C179.5,227.9,182.8,231.1,182.8,235.2z"/>
			<path class="st7" d="M182.8,259.6c0,4.1-3.3,7.6-7.4,7.9c-4.1,0.3-7.4-2.9-7.4-7c0-4.2,3.3-7.7,7.4-7.9
				C179.4,252.4,182.8,255.5,182.8,259.6z"/>
			<path class="st7" d="M158.5,285.9c0,4.2-3.3,7.9-7.4,8.3c-4.1,0.4-7.4-2.7-7.4-6.9c0-4.2,3.3-8,7.4-8.3
				C155.2,278.6,158.5,281.8,158.5,285.9z"/>
			<path class="st7" d="M158.5,261.1c0,4.2-3.3,7.8-7.4,8.1c-4.1,0.3-7.4-2.9-7.4-7.1c0-4.2,3.3-7.9,7.4-8.1
				C155.2,253.7,158.5,256.9,158.5,261.1z"/>
			<path class="st7" d="M110.9,30.3c0,4.4-3.3,7.4-7.4,6.8c-4.1-0.6-7.3-4.8-7.3-9.2c0-4.5,3.3-7.4,7.3-6.7S110.9,26,110.9,30.3z"/>
			<path class="st7" d="M110.9,342.7c0,4.4-3.3,8.5-7.4,9.2c-4.1,0.7-7.3-2.3-7.3-6.7c0-4.4,3.3-8.6,7.3-9.2
				C107.6,335.3,110.9,338.3,110.9,342.7z"/>
		</g>
		<g class="st24">
			<path class="st7" d="M86.8,79.6c0,4.5-3.3,7.8-7.3,7.3c-4-0.5-7.3-4.6-7.3-9.1c0-4.6,3.3-7.8,7.3-7.3
				C83.5,71.1,86.8,75.1,86.8,79.6z"/>
			<path class="st7" d="M86.8,293.4c0,4.5-3.3,8.5-7.3,9.1c-4,0.5-7.3-2.7-7.3-7.3c0-4.6,3.3-8.7,7.3-9.1
				C83.5,285.6,86.8,288.9,86.8,293.4z"/>
			<path class="st7" d="M62.7,159c0,4.6-3.3,8.3-7.3,8.2s-7.3-4-7.3-8.7c0-4.7,3.3-8.4,7.3-8.2C59.4,150.5,62.7,154.4,62.7,159z"/>
			<path class="st7" d="M62.7,186.5c0,4.6-3.3,8.4-7.3,8.4c-4,0.1-7.3-3.7-7.3-8.4c0-4.7,3.3-8.5,7.3-8.4
				C59.4,178.1,62.7,181.9,62.7,186.5z"/>
			<path class="st7" d="M62.7,214c0,4.6-3.3,8.5-7.3,8.7c-4,0.2-7.3-3.5-7.3-8.2c0-4.7,3.3-8.6,7.3-8.7
				C59.4,205.7,62.7,209.4,62.7,214z"/>
			<path class="st7" d="M62.7,131.5c0,4.6-3.3,8.2-7.3,7.9c-4-0.2-7.3-4.2-7.3-8.9c0-4.7,3.3-8.3,7.3-7.9
				C59.4,122.9,62.7,126.9,62.7,131.5z"/>
			<path class="st7" d="M62.7,241.5c0,4.6-3.3,8.6-7.3,8.9s-7.3-3.2-7.3-7.9c0-4.7,3.3-8.7,7.3-8.9
				C59.4,233.3,62.7,236.9,62.7,241.5z"/>
			<path class="st7" d="M62.7,104.1c0,4.6-3.3,8.1-7.3,7.7c-4-0.4-7.3-4.5-7.3-9.2c0-4.7,3.3-8.1,7.3-7.7
				C59.4,95.3,62.7,99.4,62.7,104.1z"/>
			<path class="st7" d="M62.7,268.9c0,4.6-3.3,8.7-7.3,9.2c-4,0.5-7.3-3-7.3-7.7c0-4.7,3.3-8.8,7.3-9.2
				C59.4,260.9,62.7,264.3,62.7,268.9z"/>
			<path class="st7" d="M62.7,76.6c0,4.6-3.3,8-7.3,7.5c-4-0.5-7.3-4.7-7.3-9.4c0-4.7,3.3-8,7.3-7.4C59.4,67.8,62.7,72,62.7,76.6z"
				/>
			<path class="st7" d="M62.7,296.4c0,4.6-3.3,8.8-7.3,9.4s-7.3-2.7-7.3-7.4c0-4.7,3.3-8.9,7.3-9.4
				C59.4,288.5,62.7,291.8,62.7,296.4z"/>
			<path class="st7" d="M62.7,49.1c0,4.6-3.3,7.8-7.3,7.2c-4-0.6-7.3-5-7.3-9.7c0-4.7,3.3-7.9,7.3-7.2
				C59.4,40.2,62.7,44.5,62.7,49.1z"/>
			<path class="st7" d="M62.7,323.9c0,4.6-3.3,8.9-7.3,9.7c-4,0.7-7.3-2.5-7.3-7.2c0-4.7,3.3-9.1,7.3-9.7
				C59.4,316.1,62.7,319.3,62.7,323.9z"/>
		</g>
		<g class="st26">
			<path class="st7" d="M38.7,158.2c0,4.7-3.3,8.5-7.3,8.4c-4-0.1-7.3-4.1-7.3-9s3.3-8.6,7.3-8.4C35.4,149.4,38.7,153.4,38.7,158.2z
				"/>
			<path class="st7" d="M38.7,186.5c0,4.8-3.3,8.6-7.3,8.7c-4,0.1-7.3-3.8-7.3-8.7c0-4.9,3.3-8.7,7.3-8.7
				C35.4,177.9,38.7,181.8,38.7,186.5z"/>
			<path class="st7" d="M38.7,214.8c0,4.8-3.3,8.8-7.3,9c-4,0.2-7.3-3.6-7.3-8.4c0-4.9,3.3-8.9,7.3-9
				C35.4,206.3,38.7,210.1,38.7,214.8z"/>
			<path class="st7" d="M38.7,129.9c0,4.8-3.3,8.4-7.3,8.2c-4-0.2-7.3-4.4-7.3-9.2c0-4.9,3.3-8.5,7.3-8.2S38.7,125.1,38.7,129.9z"/>
			<path class="st7" d="M38.7,243.1c0,4.7-3.3,8.9-7.3,9.2c-4,0.4-7.3-3.3-7.3-8.2c0-4.9,3.3-9,7.3-9.2
				C35.4,234.7,38.7,238.4,38.7,243.1z"/>
			<path class="st7" d="M38.7,101.6c0,4.8-3.3,8.3-7.3,7.9c-4-0.4-7.3-4.7-7.3-9.5c0-4.9,3.3-8.4,7.3-7.9
				C35.4,92.6,38.7,96.8,38.7,101.6z"/>
			<path class="st7" d="M38.7,271.4c0,4.8-3.3,9-7.3,9.5c-4,0.5-7.3-3-7.3-7.9c0-4.9,3.3-9.1,7.3-9.5S38.7,266.7,38.7,271.4z"/>
			<path class="st7" d="M38.7,73.3c0,4.8-3.3,8.2-7.3,7.6c-4-0.5-7.3-4.9-7.3-9.8c0-4.9,3.3-8.3,7.3-7.6S38.7,68.5,38.7,73.3z"/>
			<path class="st7" d="M38.7,299.7c0,4.8-3.3,9.1-7.3,9.8s-7.3-2.7-7.3-7.6c0-4.9,3.3-9.2,7.3-9.8C35.4,291.6,38.7,295,38.7,299.7z
				"/>
			<path class="st7" d="M38.7,44.9c0,4.7-3.3,8.1-7.3,7.4s-7.3-5.2-7.3-10.1c0-4.9,3.3-8.1,7.3-7.3C35.4,35.7,38.7,40.2,38.7,44.9z"
				/>
			<path class="st7" d="M38.7,328.1c0,4.8-3.3,9.2-7.3,10c-4,0.8-7.3-2.5-7.3-7.3c0-4.9,3.3-9.4,7.3-10.1
				C35.4,320,38.7,323.3,38.7,328.1z"/>
			<path class="st7" d="M38.7,16.6c0,4.8-3.3,7.9-7.3,7.1c-4-0.8-7.3-5.5-7.3-10.3c0-4.9,3.3-8,7.3-7.1
				C35.4,7.3,38.7,11.9,38.7,16.6z"/>
			<path class="st7" d="M38.7,356.4c0,4.8-3.3,9.3-7.3,10.3c-4,0.9-7.3-2.2-7.3-7.1c0-4.9,3.3-9.5,7.3-10.3
				C35.4,348.4,38.7,351.6,38.7,356.4z"/>
		</g>
		<g class="st27">
			<path class="st7" d="M14.8,157.3c0,4.9-3.3,8.8-7.3,8.7c-4-0.1-7.3-4.3-7.3-9.3c0-5,3.2-8.9,7.3-8.7
				C11.5,148.3,14.8,152.4,14.8,157.3z"/>
			<path class="st7" d="M14.8,186.5c0,4.9-3.3,8.9-7.3,9c-4,0.1-7.3-4-7.3-9c0-5,3.2-9,7.3-9C11.5,177.6,14.8,181.6,14.8,186.5z"/>
			<path class="st7" d="M14.8,215.7c0,4.9-3.3,9-7.3,9.3c-4,0.2-7.3-3.7-7.3-8.7c0-5,3.2-9.2,7.3-9.3
				C11.5,206.9,14.8,210.8,14.8,215.7z"/>
			<path class="st7" d="M14.8,128.1c0,4.9-3.3,8.7-7.3,8.4c-4-0.3-7.3-4.5-7.3-9.6c0-5,3.2-8.8,7.3-8.4
				C11.5,118.9,14.8,123.2,14.8,128.1z"/>
			<path class="st7" d="M14.8,244.9c0,4.9-3.3,9.2-7.3,9.5c-4,0.4-7.3-3.4-7.3-8.4c0-5,3.2-9.3,7.3-9.6S14.8,240,14.8,244.9z"/>
			<path class="st7" d="M14.8,98.9c0,4.9-3.3,8.5-7.3,8.1c-4-0.4-7.3-4.8-7.3-9.9c0-5,3.2-8.6,7.3-8.1C11.5,89.6,14.8,94,14.8,98.9z
				"/>
			<path class="st7" d="M14.8,274.1c0,4.9-3.3,9.3-7.3,9.8c-4,0.5-7.3-3.1-7.3-8.1c0-5,3.2-9.4,7.3-9.9
				C11.5,265.6,14.8,269.2,14.8,274.1z"/>
			<path class="st7" d="M14.8,69.7c0,4.9-3.3,8.4-7.3,7.8c-4-0.6-7.3-5.1-7.3-10.1c0-5,3.2-8.5,7.3-7.8
				C11.5,60.2,14.8,64.8,14.8,69.7z"/>
			<path class="st7" d="M14.8,303.3c0,4.9-3.3,9.4-7.3,10.1c-4,0.7-7.3-2.8-7.3-7.8c0-5,3.2-9.6,7.3-10.1
				C11.5,294.9,14.8,298.4,14.8,303.3z"/>
			<path class="st7" d="M14.8,40.5c0,4.9-3.3,8.3-7.3,7.5c-4-0.7-7.3-5.4-7.3-10.4c0-5,3.2-8.4,7.3-7.5
				C11.5,30.9,14.8,35.6,14.8,40.5z"/>
			<path class="st7" d="M14.8,332.5c0,4.9-3.3,9.5-7.3,10.4c-4,0.9-7.3-2.5-7.3-7.5c0-5,3.2-9.7,7.3-10.4
				C11.5,324.2,14.8,327.6,14.8,332.5z"/>
			<path class="st7" d="M14.8,11.3c0,4.9-3.3,8.2-7.3,7.3c-4-0.9-7.3-5.7-7.3-10.7c0-5,3.2-8.2,7.3-7.2C11.5,1.6,14.8,6.4,14.8,11.3
				z"/>
			<path class="st7" d="M14.8,361.7c0,4.9-3.3,9.7-7.3,10.7c-4,1-7.3-2.2-7.3-7.2c0-5,3.2-9.8,7.3-10.7
				C11.5,353.6,14.8,356.8,14.8,361.7z"/>
		</g>
	</g>
	<g class="st8">
		<g class="st3">
			<path class="st7" d="M158.1,37.3c0,4.2-3.3,7.2-7.4,6.6c-4.1-0.5-7.4-4.4-7.4-8.6c0-4.2,3.3-7.2,7.4-6.6
				C154.8,29.3,158.1,33.1,158.1,37.3z"/>
			<path class="st7" d="M182.4,64.6c0,4.1-3.3,7.1-7.4,6.7c-4.1-0.4-7.4-4.1-7.4-8.2c0-4.1,3.3-7.1,7.4-6.7
				C179.1,56.9,182.4,60.5,182.4,64.6z"/>
			<path class="st7" d="M206.7,90.7c0,4-3.3,7.1-7.4,6.8c-4.1-0.3-7.4-3.8-7.4-7.8c0-4.1,3.3-7.1,7.4-6.8
				C203.4,83.2,206.7,86.7,206.7,90.7z"/>
			<path class="st7" d="M231,115.7c0,4-3.3,7.1-7.4,6.9c-4.1-0.2-7.4-3.5-7.4-7.5s3.3-7.1,7.4-6.9C227.7,108.4,231,111.8,231,115.7z
				"/>
			<path class="st7" d="M255.4,139.9c0,3.9-3.3,7-7.4,7c-4.1-0.1-7.4-3.3-7.4-7.3c0-3.9,3.3-7,7.4-6.9
				C252.1,132.7,255.4,136,255.4,139.9z"/>
			<path class="st7" d="M255.4,233.1c0,3.9-3.3,7.2-7.4,7.3c-4.1,0.1-7.4-3-7.4-6.9s3.3-7.2,7.4-7.3
				C252.1,226.1,255.4,229.2,255.4,233.1z"/>
			<path class="st7" d="M231,257.3c0,4-3.3,7.3-7.4,7.5c-4.1,0.2-7.4-2.9-7.4-6.9c0-4,3.3-7.4,7.4-7.5
				C227.7,250.2,231,253.3,231,257.3z"/>
			<path class="st7" d="M206.7,282.3c0,4-3.3,7.5-7.4,7.8c-4.1,0.3-7.4-2.7-7.4-6.8c0-4.1,3.3-7.6,7.4-7.8
				C203.4,275.2,206.7,278.3,206.7,282.3z"/>
			<path class="st7" d="M182.4,308.4c0,4.1-3.3,7.7-7.4,8.2c-4.1,0.4-7.4-2.6-7.4-6.7c0-4.1,3.3-7.8,7.4-8.2
				C179.1,301.3,182.4,304.3,182.4,308.4z"/>
			<path class="st7" d="M158.1,335.7c0,4.2-3.3,8-7.4,8.6c-4.1,0.6-7.4-2.4-7.4-6.6c0-4.2,3.3-8.1,7.4-8.6
				C154.8,328.6,158.1,331.5,158.1,335.7z"/>
			<path class="st7" d="M255.3,163.2c0,3.9-3.3,7.1-7.4,7c-4.1,0-7.4-3.3-7.4-7.2c0-3.9,3.3-7.1,7.4-7
				C252,156.1,255.3,159.3,255.3,163.2z"/>
			<path class="st7" d="M255.4,186.5c0,3.9-3.3,7.1-7.4,7.1c-4.1,0-7.4-3.2-7.4-7.1c0-3.9,3.3-7.1,7.4-7.1
				C252.1,179.4,255.4,182.6,255.4,186.5z"/>
			<path class="st7" d="M255.3,209.8c0,3.9-3.3,7.1-7.4,7.2c-4.1,0.1-7.4-3.1-7.4-7c0-3.9,3.3-7.2,7.4-7.2
				C252,202.7,255.3,205.9,255.3,209.8z"/>
		</g>
		<g class="st5">
			<path class="st7" d="M182.3,40.2c0,4.1-3.3,7.1-7.4,6.6c-4.1-0.5-7.4-4.2-7.4-8.4c0-4.1,3.3-7.1,7.4-6.6
				C179,32.4,182.3,36.1,182.3,40.2z"/>
			<path class="st7" d="M206.6,66.7c0,4-3.3,7-7.4,6.7c-4.1-0.3-7.4-3.9-7.4-8c0-4.1,3.3-7.1,7.4-6.7
				C203.3,59.2,206.6,62.7,206.6,66.7z"/>
			<path class="st7" d="M230.9,92.1c0,4-3.3,7-7.4,6.8c-4.1-0.2-7.4-3.6-7.4-7.6c0-4,3.3-7,7.4-6.8
				C227.6,84.8,230.9,88.2,230.9,92.1z"/>
			<path class="st7" d="M255.3,116.6c0,3.9-3.3,7-7.4,6.9c-4.1-0.1-7.4-3.4-7.4-7.4c0-3.9,3.3-7,7.4-6.9
				C252,109.4,255.3,112.7,255.3,116.6z"/>
			<path class="st7" d="M255.3,256.4c0,3.9-3.3,7.2-7.4,7.4c-4.1,0.2-7.4-2.9-7.4-6.9c0-3.9,3.3-7.3,7.4-7.4
				C252,249.4,255.3,252.5,255.3,256.4z"/>
			<path class="st7" d="M230.9,280.9c0,4-3.3,7.4-7.4,7.6c-4.1,0.3-7.4-2.8-7.4-6.8c0-4,3.3-7.4,7.4-7.6
				C227.6,273.8,230.9,276.9,230.9,280.9z"/>
			<path class="st7" d="M206.6,306.2c0,4-3.3,7.6-7.4,7.9c-4.1,0.4-7.4-2.6-7.4-6.7c0-4.1,3.3-7.6,7.4-8
				C203.3,299.2,206.6,302.2,206.6,306.2z"/>
			<path class="st7" d="M182.3,332.8c0,4.1-3.3,7.8-7.4,8.3c-4.1,0.5-7.4-2.4-7.4-6.6c0-4.2,3.3-7.9,7.4-8.4
				C179,325.7,182.3,328.7,182.3,332.8z"/>
		</g>
		<g class="st24">
			<path class="st7" d="M158.1,87c0,4.2-3.3,7.3-7.4,7c-4.1-0.3-7.4-4.1-7.4-8.3s3.3-7.3,7.4-6.9C154.8,79.2,158.1,82.8,158.1,87z"
				/>
			<path class="st7" d="M158.1,286c0,4.2-3.3,7.9-7.4,8.3c-4.1,0.4-7.4-2.7-7.4-6.9c0-4.2,3.3-8,7.4-8.3
				C154.8,278.7,158.1,281.8,158.1,286z"/>
			<path class="st7" d="M110.4,56.3c0,4.4-3.3,7.5-7.3,7c-4.1-0.5-7.3-4.6-7.3-9s3.3-7.5,7.3-6.9C107.1,47.9,110.4,51.9,110.4,56.3z
				"/>
			<path class="st7" d="M134.6,84.8c0,4.3-3.3,7.4-7.4,7.1c-4.1-0.4-7.4-4.2-7.4-8.5c0-4.3,3.3-7.5,7.4-7
				C131.3,76.8,134.6,80.6,134.6,84.8z"/>
			<path class="st7" d="M134.6,288.1c0,4.3-3.3,8.1-7.4,8.5c-4.1,0.5-7.4-2.7-7.4-7c0-4.3,3.3-8.2,7.4-8.5
				C131.3,280.7,134.6,283.9,134.6,288.1z"/>
			<path class="st7" d="M110.4,316.7c0,4.4-3.3,8.4-7.3,9c-4.1,0.6-7.3-2.5-7.3-6.9c0-4.5,3.3-8.5,7.3-9
				C107.1,309.2,110.4,312.3,110.4,316.7z"/>
			<path class="st7" d="M110.4,30.3c0,4.4-3.3,7.4-7.3,6.8c-4.1-0.6-7.3-4.8-7.3-9.2c0-4.5,3.3-7.5,7.3-6.7
				C107.1,21.8,110.4,25.9,110.4,30.3z"/>
			<path class="st7" d="M134.6,59.4c0,4.3-3.3,7.4-7.4,6.9s-7.4-4.4-7.4-8.7s3.3-7.4,7.4-6.8C131.3,51.3,134.6,55.2,134.6,59.4z"/>
			<path class="st7" d="M134.6,313.6c0,4.3-3.3,8.2-7.4,8.7c-4.1,0.6-7.4-2.5-7.4-6.8c0-4.3,3.3-8.3,7.4-8.7
				C131.3,306.2,134.6,309.3,134.6,313.6z"/>
			<path class="st7" d="M110.4,342.7c0,4.4-3.3,8.5-7.3,9.2c-4.1,0.7-7.3-2.3-7.3-6.7c0-4.5,3.3-8.6,7.3-9.2
				C107.1,335.3,110.4,338.4,110.4,342.7z"/>
			<path class="st7" d="M86.3,26.1c0,4.5-3.3,7.6-7.3,6.9c-4-0.7-7.3-5-7.3-9.6c0-4.6,3.3-7.6,7.3-6.8C83,17.3,86.3,21.6,86.3,26.1z
				"/>
			<path class="st7" d="M86.3,346.9c0,4.5-3.3,8.8-7.3,9.6c-4,0.8-7.3-2.2-7.3-6.8c0-4.6,3.3-8.9,7.3-9.6
				C83,339.3,86.3,342.4,86.3,346.9z"/>
		</g>
		<g class="st25">
			<path class="st7" d="M158.1,62.2c0,4.2-3.3,7.2-7.4,6.8c-4.1-0.4-7.4-4.2-7.4-8.5s3.3-7.3,7.4-6.8
				C154.8,54.2,158.1,58,158.1,62.2z"/>
			<path class="st7" d="M158.1,310.8c0,4.2-3.3,7.9-7.4,8.4c-4.1,0.5-7.4-2.5-7.4-6.8c0-4.2,3.3-8,7.4-8.5
				C154.8,303.6,158.1,306.7,158.1,310.8z"/>
			<path class="st7" d="M182.3,89c0,4.1-3.3,7.2-7.4,6.9c-4.1-0.3-7.4-3.9-7.4-8.1c0-4.2,3.3-7.2,7.4-6.9
				C179,81.3,182.3,84.9,182.3,89z"/>
			<path class="st7" d="M182.3,113.4c0,4.1-3.3,7.2-7.4,7c-4.1-0.2-7.4-3.8-7.4-7.9c0-4.1,3.3-7.3,7.4-7
				C179,105.7,182.3,109.3,182.3,113.4z"/>
			<path class="st7" d="M206.6,114.6c0,4-3.3,7.1-7.4,7c-4.1-0.2-7.4-3.6-7.4-7.7c0-4.1,3.3-7.2,7.4-6.9
				C203.3,107.2,206.6,110.6,206.6,114.6z"/>
			<path class="st7" d="M230.9,139.3c0,4-3.3,7.1-7.4,7c-4.1-0.1-7.4-3.4-7.4-7.4c0-4,3.3-7.1,7.4-7
				C227.6,132,230.9,135.4,230.9,139.3z"/>
			<path class="st7" d="M230.9,162.9c0,4-3.3,7.1-7.4,7.1c-4.1,0-7.4-3.3-7.4-7.3c0-4,3.3-7.2,7.4-7.1
				C227.6,155.7,230.9,158.9,230.9,162.9z"/>
			<path class="st7" d="M231,186.5c0,4-3.3,7.2-7.4,7.2s-7.4-3.2-7.4-7.2c0-4,3.3-7.2,7.4-7.2C227.7,179.3,231,182.5,231,186.5z"/>
			<path class="st7" d="M230.9,210.1c0,4-3.3,7.2-7.4,7.3s-7.4-3.1-7.4-7.1c0-4,3.3-7.3,7.4-7.3
				C227.6,202.9,230.9,206.1,230.9,210.1z"/>
			<path class="st7" d="M230.9,233.7c0,4-3.3,7.3-7.4,7.4c-4.1,0.1-7.4-3-7.4-7c0-4,3.3-7.3,7.4-7.4
				C227.6,226.6,230.9,229.7,230.9,233.7z"/>
			<path class="st7" d="M206.7,138.6c0,4-3.3,7.2-7.4,7.1c-4.1-0.1-7.4-3.5-7.4-7.6c0-4.1,3.3-7.2,7.4-7.1
				C203.4,131.2,206.7,134.6,206.7,138.6z"/>
			<path class="st7" d="M206.7,162.6c0,4-3.3,7.2-7.4,7.2s-7.4-3.4-7.4-7.5c0-4.1,3.3-7.3,7.4-7.2
				C203.4,155.2,206.7,158.5,206.7,162.6z"/>
			<path class="st7" d="M206.8,186.5c0,4-3.3,7.3-7.4,7.3c-4.1,0-7.4-3.2-7.4-7.3c0-4.1,3.3-7.3,7.4-7.3
				C203.5,179.2,206.8,182.5,206.8,186.5z"/>
			<path class="st7" d="M206.7,210.4c0,4-3.3,7.4-7.4,7.4s-7.4-3.1-7.4-7.2s3.3-7.4,7.4-7.5C203.4,203.2,206.7,206.4,206.7,210.4z"
				/>
			<path class="st7" d="M206.7,234.4c0,4-3.3,7.4-7.4,7.6c-4.1,0.2-7.4-3-7.4-7.1c0-4.1,3.3-7.5,7.4-7.6
				C203.4,227.2,206.7,230.4,206.7,234.4z"/>
			<path class="st7" d="M206.6,258.3c0,4-3.3,7.5-7.4,7.7c-4.1,0.2-7.4-2.9-7.4-6.9c0-4.1,3.3-7.5,7.4-7.7
				C203.3,251.2,206.6,254.3,206.6,258.3z"/>
			<path class="st7" d="M182.3,284c0,4.1-3.3,7.7-7.4,8s-7.4-2.7-7.4-6.9c0-4.2,3.3-7.8,7.4-8.1C179,276.8,182.3,279.9,182.3,284z"
				/>
			<path class="st7" d="M182.3,259.6c0,4.1-3.3,7.6-7.4,7.9s-7.4-2.9-7.4-7c0-4.1,3.3-7.7,7.4-7.9
				C179,252.4,182.3,255.5,182.3,259.6z"/>
			<path class="st7" d="M134.6,34c0,4.3-3.3,7.3-7.4,6.7c-4.1-0.6-7.4-4.6-7.4-8.9c0-4.3,3.3-7.3,7.4-6.6
				C131.3,25.8,134.6,29.8,134.6,34z"/>
			<path class="st7" d="M134.6,339c0,4.3-3.3,8.2-7.4,8.9c-4.1,0.7-7.4-2.3-7.4-6.6c0-4.3,3.3-8.3,7.4-8.9
				C131.3,331.7,134.6,334.7,134.6,339z"/>
		</g>
		<g class="st24">
			<path class="st7" d="M86.3,159.8c0,4.5-3.3,8.1-7.3,8c-4-0.1-7.3-3.9-7.3-8.4s3.3-8.1,7.3-8C83,151.5,86.3,155.3,86.3,159.8z"/>
			<path class="st7" d="M86.3,186.5c0,4.5-3.3,8.2-7.3,8.2c-4,0-7.3-3.6-7.3-8.2c0-4.6,3.3-8.2,7.3-8.2
				C83,178.3,86.3,182,86.3,186.5z"/>
			<path class="st7" d="M86.3,213.2c0,4.5-3.3,8.3-7.3,8.4c-4,0.2-7.3-3.4-7.3-8c0-4.6,3.3-8.4,7.3-8.4
				C83,205.2,86.3,208.8,86.3,213.2z"/>
			<path class="st7" d="M86.3,133c0,4.5-3.3,8-7.3,7.8c-4-0.2-7.3-4.1-7.3-8.7c0-4.6,3.3-8,7.3-7.7C83,124.7,86.3,128.5,86.3,133z"
				/>
			<path class="st7" d="M86.3,240c0,4.5-3.3,8.4-7.3,8.7c-4,0.3-7.3-3.2-7.3-7.7c0-4.6,3.3-8.5,7.3-8.7C83,232,86.3,235.5,86.3,240z
				"/>
			<path class="st7" d="M86.3,106.3c0,4.5-3.3,7.9-7.3,7.5c-4-0.3-7.3-4.3-7.3-8.9c0-4.6,3.3-7.9,7.3-7.5
				C83,97.8,86.3,101.8,86.3,106.3z"/>
			<path class="st7" d="M86.3,266.7c0,4.5-3.3,8.5-7.3,8.9c-4,0.4-7.3-2.9-7.3-7.5c0-4.6,3.3-8.6,7.3-8.9
				C83,258.8,86.3,262.2,86.3,266.7z"/>
		</g>
		<path class="st28" d="M255.4,139.9c0,3.9-3.3,7-7.4,7c-4.1-0.1-7.4-3.3-7.4-7.3c0-3.9,3.3-7,7.4-6.9
			C252.1,132.7,255.4,136,255.4,139.9z"/>
		<path class="st28" d="M255.4,233.1c0,3.9-3.3,7.2-7.4,7.3c-4.1,0.1-7.4-3-7.4-6.9s3.3-7.2,7.4-7.3
			C252.1,226.1,255.4,229.2,255.4,233.1z"/>
		<path class="st29" d="M279.7,163.4c0,3.9-3.3,7-7.4,7c-4.1,0-7.4-3.2-7.4-7.1s3.3-7,7.4-7C276.4,156.4,279.7,159.5,279.7,163.4z"
			/>
		<path class="st29" d="M279.7,140.4c0,3.9-3.3,7-7.4,6.9s-7.4-3.3-7.4-7.2c0-3.9,3.3-7,7.4-6.9
			C276.4,133.3,279.7,136.5,279.7,140.4z"/>
		<path class="st29" d="M279.8,186.5c0,3.9-3.3,7-7.4,7c-4.1,0-7.4-3.1-7.4-7c0-3.9,3.3-7.1,7.4-7
			C276.5,179.5,279.8,182.6,279.8,186.5z"/>
		<path class="st29" d="M279.7,209.6c0,3.9-3.3,7.1-7.4,7.1c-4.1,0-7.4-3.1-7.4-7c0-3.9,3.3-7.1,7.4-7.1
			C276.4,202.6,279.7,205.7,279.7,209.6z"/>
		<path class="st29" d="M279.7,232.6c0,3.9-3.3,7.1-7.4,7.2c-4.1,0.1-7.4-3-7.4-6.9c0-3.9,3.3-7.1,7.4-7.2
			C276.4,225.7,279.7,228.8,279.7,232.6z"/>
	</g>
</g>
</svg>
