<?xml version="1.0" encoding="utf-8"?>
<!-- Generator: Adobe Illustrator 27.0.0, SVG Export Plug-In . SVG Version: 6.00 Build 0)  -->
<svg version="1.1" id="Layer_1" xmlns="http://www.w3.org/2000/svg" xmlns:xlink="http://www.w3.org/1999/xlink" x="0px" y="0px"
	 width="600px" height="80px" viewBox="0 0 600 80" style="enable-background:new 0 0 600 80;" xml:space="preserve">
<style type="text/css">
	.st0{fill:url(#SVGID_1_);}
	.st1{fill:url(#SVGID_00000168823369842722332230000004575648561086893988_);}
	.st2{fill:url(#SVGID_00000174579379748589485940000017316104386697425032_);}
	.st3{fill:url(#SVGID_00000063633011388370099760000017112372199792323999_);}
	.st4{fill:url(#SVGID_00000142892376944493081150000017424324665768509595_);}
	.st5{fill:url(#SVGID_00000117649537698725891660000004376981437697485195_);}
	.st6{fill:url(#SVGID_00000055673476141689304960000002218883839025331098_);}
	.st7{fill:url(#SVGID_00000152962671755019596910000005879017693212509333_);}
	.st8{fill:url(#SVGID_00000141440985820877789970000012978390144670702489_);}
	.st9{fill:url(#SVGID_00000040566579300178785610000009116873620296418699_);}
	.st10{fill:url(#SVGID_00000181780889200127343100000000092033738029490573_);}
	.st11{fill:url(#SVGID_00000095306630441954733400000000230926985102998964_);}
	.st12{fill:url(#SVGID_00000054985328149037182690000006356058162053383097_);}
	.st13{fill:url(#SVGID_00000054256279666067166190000014716403337742874299_);}
	.st14{fill:url(#SVGID_00000114057714355272748450000014412442524363102604_);}
	.st15{fill:url(#SVGID_00000125580830338299640950000006724210043154793355_);}
	.st16{fill:url(#SVGID_00000034779502276406187540000003051586093524165523_);}
	.st17{fill:url(#SVGID_00000103979407037395380740000004536152704911328646_);}
	.st18{fill:url(#SVGID_00000166640793484274751400000014322259248745148338_);}
	.st19{fill:url(#SVGID_00000158023961992863337800000007495627278557554095_);}
	.st20{fill:url(#SVGID_00000047764367826523348370000017725500070157222314_);}
	.st21{fill:#252C56;}
</style>
<g>
	<g>
		<g>
			
				<linearGradient id="SVGID_1_" gradientUnits="userSpaceOnUse" x1="0" y1="1399.0563" x2="39.4469" y2="1399.0563" gradientTransform="matrix(1 0 0 -1 0 1473.4547)">
				<stop  offset="0" style="stop-color:#252C56"/>
				<stop  offset="0.3965" style="stop-color:#165690"/>
				<stop  offset="0.9944" style="stop-color:#0094E3"/>
			</linearGradient>
			<path class="st0" d="M35.5,78.3H3.9c-2.2,0-3.9-1.8-3.9-3.9c0-2.2,1.8-3.9,3.9-3.9h31.6c2.2,0,3.9,1.8,3.9,3.9
				C39.4,76.6,37.7,78.3,35.5,78.3z"/>
		</g>
		<g>
			
				<linearGradient id="SVGID_00000177469226723726102560000005923320074976717481_" gradientUnits="userSpaceOnUse" x1="45.926" y1="39.9987" x2="72.5862" y2="39.9987">
				<stop  offset="0.6145" style="stop-color:#41277A"/>
				<stop  offset="0.6429" style="stop-color:#4E2F80"/>
				<stop  offset="0.7765" style="stop-color:#8B559D"/>
				<stop  offset="1" style="stop-color:#E7BCD9"/>
			</linearGradient>
			<path style="fill:url(#SVGID_00000177469226723726102560000005923320074976717481_);" d="M68.7,43.9H49.9c-2.2,0-3.9-1.8-3.9-3.9
				s1.8-3.9,3.9-3.9h18.8c2.2,0,3.9,1.8,3.9,3.9S70.8,43.9,68.7,43.9z"/>
		</g>
		<g>
			
				<linearGradient id="SVGID_00000089569406981100891120000002608521293406828215_" gradientUnits="userSpaceOnUse" x1="49.2192" y1="28.5313" x2="76.1811" y2="28.5313">
				<stop  offset="0" style="stop-color:#41277A"/>
				<stop  offset="0.2039" style="stop-color:#45297C"/>
				<stop  offset="0.2673" style="stop-color:#4E2F80"/>
				<stop  offset="0.6927" style="stop-color:#8B559D"/>
				<stop  offset="1" style="stop-color:#E7BCD9"/>
			</linearGradient>
			<path style="fill:url(#SVGID_00000089569406981100891120000002608521293406828215_);" d="M72.3,32.5H53.1c-2.2,0-3.9-1.8-3.9-3.9
				s1.8-3.9,3.9-3.9h19.1c2.2,0,3.9,1.8,3.9,3.9S74.4,32.5,72.3,32.5z"/>
		</g>
		<g>
			
				<linearGradient id="SVGID_00000132071054842782984450000014247809005566836883_" gradientUnits="userSpaceOnUse" x1="66.258" y1="17.0664" x2="88.5767" y2="17.0664">
				<stop  offset="0" style="stop-color:#41277A"/>
				<stop  offset="9.184924e-02" style="stop-color:#4E2F80"/>
				<stop  offset="0.5251" style="stop-color:#8B559D"/>
				<stop  offset="1" style="stop-color:#E7BCD9"/>
			</linearGradient>
			<path style="fill:url(#SVGID_00000132071054842782984450000014247809005566836883_);" d="M83.1,21H68.6c-2.2,0-3.9-1.8-3.9-3.9
				s1.8-3.9,3.9-3.9h14.5c2.2,0,3.9,1.8,3.9,3.9S85.3,21,83.1,21z"/>
		</g>
		<g>
			
				<linearGradient id="SVGID_00000121272619915927997920000013286373402681489076_" gradientUnits="userSpaceOnUse" x1="74.9792" y1="5.599" x2="99.0485" y2="5.599">
				<stop  offset="0" style="stop-color:#41277A"/>
				<stop  offset="7.628820e-02" style="stop-color:#4E2F80"/>
				<stop  offset="0.4362" style="stop-color:#8B559D"/>
				<stop  offset="1" style="stop-color:#E7BCD9"/>
			</linearGradient>
			<path style="fill:url(#SVGID_00000121272619915927997920000013286373402681489076_);" d="M95.1,9.5H78.9c-2.2,0-3.9-1.8-3.9-3.9
				s1.8-3.9,3.9-3.9h16.2c2.2,0,3.9,1.8,3.9,3.9S97.3,9.5,95.1,9.5z"/>
		</g>
		<g>
			
				<linearGradient id="SVGID_00000124123675934904765730000010210769707188860578_" gradientUnits="userSpaceOnUse" x1="66.258" y1="-290.9571" x2="88.5767" y2="-290.9571" gradientTransform="matrix(1 0 0 -1 0 -228.0235)">
				<stop  offset="0" style="stop-color:#41277A"/>
				<stop  offset="9.184924e-02" style="stop-color:#4E2F80"/>
				<stop  offset="0.5251" style="stop-color:#8B559D"/>
				<stop  offset="1" style="stop-color:#E7BCD9"/>
			</linearGradient>
			<path style="fill:url(#SVGID_00000124123675934904765730000010210769707188860578_);" d="M83.1,59H68.6c-2.2,0-3.9,1.8-3.9,3.9
				c0,2.2,1.8,3.9,3.9,3.9h14.5c2.2,0,3.9-1.8,3.9-3.9C87,60.8,85.3,59,83.1,59z"/>
		</g>
		<g>
			
				<linearGradient id="SVGID_00000073713803383944534800000016584210310398297239_" gradientUnits="userSpaceOnUse" x1="74.9792" y1="-302.4245" x2="99.0485" y2="-302.4245" gradientTransform="matrix(1 0 0 -1 0 -228.0235)">
				<stop  offset="0" style="stop-color:#41277A"/>
				<stop  offset="7.628820e-02" style="stop-color:#4E2F80"/>
				<stop  offset="0.4362" style="stop-color:#8B559D"/>
				<stop  offset="1" style="stop-color:#E7BCD9"/>
			</linearGradient>
			<path style="fill:url(#SVGID_00000073713803383944534800000016584210310398297239_);" d="M95.1,70.5H78.9c-2.2,0-3.9,1.8-3.9,3.9
				c0,2.2,1.8,3.9,3.9,3.9h16.2c2.2,0,3.9-1.8,3.9-3.9C99,72.2,97.3,70.5,95.1,70.5z"/>
		</g>
		<g>
			
				<linearGradient id="SVGID_00000057132612526623203290000011770796417514865827_" gradientUnits="userSpaceOnUse" x1="49.2192" y1="51.4636" x2="76.1811" y2="51.4636">
				<stop  offset="0" style="stop-color:#41277A"/>
				<stop  offset="0.2039" style="stop-color:#45297C"/>
				<stop  offset="0.2673" style="stop-color:#4E2F80"/>
				<stop  offset="0.6927" style="stop-color:#8B559D"/>
				<stop  offset="1" style="stop-color:#E7BCD9"/>
			</linearGradient>
			<path style="fill:url(#SVGID_00000057132612526623203290000011770796417514865827_);" d="M72.3,55.4H53.1c-2.2,0-3.9-1.8-3.9-3.9
				s1.8-3.9,3.9-3.9h19.1c2.2,0,3.9,1.8,3.9,3.9S74.4,55.4,72.3,55.4z"/>
		</g>
		<g>
			
				<linearGradient id="SVGID_00000126291425621367163390000005682399828867730333_" gradientUnits="userSpaceOnUse" x1="0" y1="5.599" x2="39.4469" y2="5.599">
				<stop  offset="0" style="stop-color:#252C56"/>
				<stop  offset="0.3965" style="stop-color:#165690"/>
				<stop  offset="0.9944" style="stop-color:#0094E3"/>
			</linearGradient>
			<path style="fill:url(#SVGID_00000126291425621367163390000005682399828867730333_);" d="M35.5,9.5H3.9C1.8,9.5,0,7.8,0,5.6
				s1.8-3.9,3.9-3.9h31.6c2.2,0,3.9,1.8,3.9,3.9S37.7,9.5,35.5,9.5z"/>
		</g>
		<g>
			
				<linearGradient id="SVGID_00000154405817569120385450000014597223563323249340_" gradientUnits="userSpaceOnUse" x1="0" y1="17.0664" x2="51.9576" y2="17.0664">
				<stop  offset="0" style="stop-color:#252C56"/>
				<stop  offset="0.3965" style="stop-color:#165690"/>
				<stop  offset="0.9944" style="stop-color:#0094E3"/>
			</linearGradient>
			<path style="fill:url(#SVGID_00000154405817569120385450000014597223563323249340_);" d="M48,21H3.9C1.8,21,0,19.2,0,17.1
				s1.8-3.9,3.9-3.9H48c2.2,0,3.9,1.8,3.9,3.9S50.2,21,48,21z"/>
		</g>
		<g>
			
				<linearGradient id="SVGID_00000085244057664952610220000010392150705623136169_" gradientUnits="userSpaceOnUse" x1="0" y1="28.5313" x2="57.0559" y2="28.5313">
				<stop  offset="0" style="stop-color:#252C56"/>
				<stop  offset="0.3965" style="stop-color:#165690"/>
				<stop  offset="0.9944" style="stop-color:#0094E3"/>
			</linearGradient>
			<path style="fill:url(#SVGID_00000085244057664952610220000010392150705623136169_);" d="M53.1,32.5H3.9c-2.2,0-3.9-1.8-3.9-3.9
				s1.8-3.9,3.9-3.9h49.2c2.2,0,3.9,1.8,3.9,3.9S55.3,32.5,53.1,32.5z"/>
		</g>
		<g>
			
				<linearGradient id="SVGID_00000071539613880034574510000012083968119044378288_" gradientUnits="userSpaceOnUse" x1="0" y1="39.9987" x2="60.3312" y2="39.9987">
				<stop  offset="0" style="stop-color:#252C56"/>
				<stop  offset="0.3965" style="stop-color:#165690"/>
				<stop  offset="0.9944" style="stop-color:#0094E3"/>
			</linearGradient>
			<path style="fill:url(#SVGID_00000071539613880034574510000012083968119044378288_);" d="M56.4,43.9H3.9C1.8,43.9,0,42.2,0,40
				s1.8-3.9,3.9-3.9h52.5c2.2,0,3.9,1.8,3.9,3.9S58.6,43.9,56.4,43.9z"/>
		</g>
		<g>
			
				<linearGradient id="SVGID_00000023996591415890469020000006528136445935458236_" gradientUnits="userSpaceOnUse" x1="0" y1="1410.5211" x2="51.9576" y2="1410.5211" gradientTransform="matrix(1 0 0 -1 0 1473.4547)">
				<stop  offset="0" style="stop-color:#252C56"/>
				<stop  offset="0.3965" style="stop-color:#165690"/>
				<stop  offset="0.9944" style="stop-color:#0094E3"/>
			</linearGradient>
			<path style="fill:url(#SVGID_00000023996591415890469020000006528136445935458236_);" d="M48,66.9H3.9c-2.2,0-3.9-1.8-3.9-3.9
				C0,60.8,1.8,59,3.9,59H48c2.2,0,3.9,1.8,3.9,3.9C52,65.1,50.2,66.9,48,66.9z"/>
		</g>
		<g>
			
				<linearGradient id="SVGID_00000176763457663505390720000007379284189529708958_" gradientUnits="userSpaceOnUse" x1="0" y1="1421.9912" x2="57.0559" y2="1421.9912" gradientTransform="matrix(1 0 0 -1 0 1473.4547)">
				<stop  offset="0" style="stop-color:#252C56"/>
				<stop  offset="0.3965" style="stop-color:#165690"/>
				<stop  offset="0.9944" style="stop-color:#0094E3"/>
			</linearGradient>
			<path style="fill:url(#SVGID_00000176763457663505390720000007379284189529708958_);" d="M53.1,55.4H3.9c-2.2,0-3.9-1.8-3.9-3.9
				s1.8-3.9,3.9-3.9h49.2c2.2,0,3.9,1.8,3.9,3.9S55.3,55.4,53.1,55.4z"/>
		</g>
		<g>
			
				<radialGradient id="SVGID_00000083781988783518460220000007845134747556763289_" cx="44.3041" cy="29.238" r="26.3825" gradientUnits="userSpaceOnUse">
				<stop  offset="6.424581e-02" style="stop-color:#2AFFFC"/>
				<stop  offset="7.937797e-02" style="stop-color:#28F9F9"/>
				<stop  offset="0.2964" style="stop-color:#0BAACF"/>
				<stop  offset="0.396" style="stop-color:#008BBE"/>
				<stop  offset="0.5125" style="stop-color:#2879B3"/>
				<stop  offset="0.669" style="stop-color:#5865A7"/>
				<stop  offset="0.8072" style="stop-color:#7B569E"/>
				<stop  offset="0.9204" style="stop-color:#904C98"/>
				<stop  offset="0.9944" style="stop-color:#984996"/>
			</radialGradient>
			<path style="fill:url(#SVGID_00000083781988783518460220000007845134747556763289_);" d="M74.5,32.5H47.3c-2.2,0-3.9-1.8-3.9-3.9
				s1.8-3.9,3.9-3.9h27.2c2.2,0,3.9,1.8,3.9,3.9S76.7,32.5,74.5,32.5z"/>
		</g>
		<g>
			
				<radialGradient id="SVGID_00000061440696465147712000000011334577074080555398_" cx="44.3041" cy="52.1703" r="26.3825" gradientUnits="userSpaceOnUse">
				<stop  offset="6.424581e-02" style="stop-color:#2AFFFC"/>
				<stop  offset="7.937797e-02" style="stop-color:#28F9F9"/>
				<stop  offset="0.2964" style="stop-color:#0BAACF"/>
				<stop  offset="0.396" style="stop-color:#008BBE"/>
				<stop  offset="0.5125" style="stop-color:#2879B3"/>
				<stop  offset="0.669" style="stop-color:#5865A7"/>
				<stop  offset="0.8072" style="stop-color:#7B569E"/>
				<stop  offset="0.9204" style="stop-color:#904C98"/>
				<stop  offset="0.9944" style="stop-color:#984996"/>
			</radialGradient>
			<path style="fill:url(#SVGID_00000061440696465147712000000011334577074080555398_);" d="M74.5,55.4H47.3c-2.2,0-3.9-1.8-3.9-3.9
				s1.8-3.9,3.9-3.9h27.2c2.2,0,3.9,1.8,3.9,3.9S76.7,55.4,74.5,55.4z"/>
		</g>
		<g>
			
				<radialGradient id="SVGID_00000030446927660754992810000000247748896505732017_" cx="52.3241" cy="40.4661" r="19.3405" fx="50.667" fy="40.4661" gradientUnits="userSpaceOnUse">
				<stop  offset="6.424581e-02" style="stop-color:#2AFFFC"/>
				<stop  offset="8.322047e-02" style="stop-color:#28F9F9"/>
				<stop  offset="0.3553" style="stop-color:#0BAACF"/>
				<stop  offset="0.4802" style="stop-color:#008BBE"/>
				<stop  offset="0.5803" style="stop-color:#2879B3"/>
				<stop  offset="0.7148" style="stop-color:#5865A7"/>
				<stop  offset="0.8336" style="stop-color:#7B569E"/>
				<stop  offset="0.9308" style="stop-color:#904C98"/>
				<stop  offset="0.9944" style="stop-color:#984996"/>
			</radialGradient>
			<path style="fill:url(#SVGID_00000030446927660754992810000000247748896505732017_);" d="M68.7,43.9H53.1c-2.2,0-3.9-1.8-3.9-3.9
				s1.8-3.9,3.9-3.9h15.5c2.2,0,3.9,1.8,3.9,3.9S70.8,43.9,68.7,43.9z"/>
		</g>
		<g>
			
				<radialGradient id="SVGID_00000077287240407911111940000017405526202481264263_" cx="30.9373" cy="17.3861" r="19.8719" gradientUnits="userSpaceOnUse">
				<stop  offset="6.424581e-02" style="stop-color:#2AFFFC"/>
				<stop  offset="7.937797e-02" style="stop-color:#28F9F9"/>
				<stop  offset="0.2964" style="stop-color:#0BAACF"/>
				<stop  offset="0.396" style="stop-color:#008BBE"/>
				<stop  offset="0.5125" style="stop-color:#2879B3"/>
				<stop  offset="0.669" style="stop-color:#5865A7"/>
				<stop  offset="0.8072" style="stop-color:#7B569E"/>
				<stop  offset="0.9204" style="stop-color:#904C98"/>
				<stop  offset="0.9944" style="stop-color:#984996"/>
			</radialGradient>
			<path style="fill:url(#SVGID_00000077287240407911111940000017405526202481264263_);" d="M48,21H33.6c-2.2,0-3.9-1.8-3.9-3.9
				s1.8-3.9,3.9-3.9H48c2.2,0,3.9,1.8,3.9,3.9S50.2,21,48,21z"/>
		</g>
		<g>
			
				<radialGradient id="SVGID_00000074416214670587757200000015201321719277342878_" cx="30.9373" cy="63.1196" r="19.8719" gradientUnits="userSpaceOnUse">
				<stop  offset="6.424581e-02" style="stop-color:#2AFFFC"/>
				<stop  offset="7.937797e-02" style="stop-color:#28F9F9"/>
				<stop  offset="0.2964" style="stop-color:#0BAACF"/>
				<stop  offset="0.396" style="stop-color:#008BBE"/>
				<stop  offset="0.5125" style="stop-color:#2879B3"/>
				<stop  offset="0.669" style="stop-color:#5865A7"/>
				<stop  offset="0.8072" style="stop-color:#7B569E"/>
				<stop  offset="0.9204" style="stop-color:#904C98"/>
				<stop  offset="0.9944" style="stop-color:#984996"/>
			</radialGradient>
			<path style="fill:url(#SVGID_00000074416214670587757200000015201321719277342878_);" d="M48,66.9H33.6c-2.2,0-3.9-1.8-3.9-3.9
				c0-2.2,1.8-3.9,3.9-3.9H48c2.2,0,3.9,1.8,3.9,3.9C52,65.1,50.2,66.9,48,66.9z"/>
		</g>
		<g>
			
				<radialGradient id="SVGID_00000047054740181202061760000008423174845737388958_" cx="14.8921" cy="5.6881" r="23.7537" gradientUnits="userSpaceOnUse">
				<stop  offset="6.424581e-02" style="stop-color:#2AFFFC"/>
				<stop  offset="7.937797e-02" style="stop-color:#28F9F9"/>
				<stop  offset="0.2964" style="stop-color:#0BAACF"/>
				<stop  offset="0.396" style="stop-color:#008BBE"/>
				<stop  offset="0.5125" style="stop-color:#2879B3"/>
				<stop  offset="0.669" style="stop-color:#5865A7"/>
				<stop  offset="0.8072" style="stop-color:#7B569E"/>
				<stop  offset="0.9204" style="stop-color:#904C98"/>
				<stop  offset="0.9944" style="stop-color:#984996"/>
			</radialGradient>
			<path style="fill:url(#SVGID_00000047054740181202061760000008423174845737388958_);" d="M35.5,9.5H19.3c-2.2,0-3.9-1.8-3.9-3.9
				s1.8-3.9,3.9-3.9h16.2c2.2,0,3.9,1.8,3.9,3.9S37.7,9.5,35.5,9.5z"/>
		</g>
		<g>
			
				<radialGradient id="SVGID_00000124152334506155153130000002634648141772727735_" cx="14.7584" cy="74.4876" r="23.7537" gradientUnits="userSpaceOnUse">
				<stop  offset="6.424581e-02" style="stop-color:#2AFFFC"/>
				<stop  offset="7.937797e-02" style="stop-color:#28F9F9"/>
				<stop  offset="0.2964" style="stop-color:#0BAACF"/>
				<stop  offset="0.396" style="stop-color:#008BBE"/>
				<stop  offset="0.5125" style="stop-color:#2879B3"/>
				<stop  offset="0.669" style="stop-color:#5865A7"/>
				<stop  offset="0.8072" style="stop-color:#7B569E"/>
				<stop  offset="0.9204" style="stop-color:#904C98"/>
				<stop  offset="0.9944" style="stop-color:#984996"/>
			</radialGradient>
			<path style="fill:url(#SVGID_00000124152334506155153130000002634648141772727735_);" d="M35.5,78.3H19.3c-2.2,0-3.9-1.8-3.9-3.9
				c0-2.2,1.8-3.9,3.9-3.9h16.2c2.2,0,3.9,1.8,3.9,3.9C39.4,76.6,37.7,78.3,35.5,78.3z"/>
		</g>
	</g>
	<g>
		<path class="st21" d="M132.8,64.8h-18.3v-50h18.3c16.6,0,19.4,12.4,19.4,24.9C152.2,52.6,149.3,64.8,132.8,64.8z M132.1,22.7h-8.3
			v34.2h8.3c7.7,0,10.9-3.8,10.9-17.1C143,26.6,139.7,22.7,132.1,22.7z"/>
		<path class="st21" d="M151.9,64.8l15-25.8l-13.9-24.1h10l9.7,17.8l9.7-17.8h10l-14,24.1l15,25.8h-10l-10.7-19.4l-10.8,19.4H151.9z
			"/>
		<path class="st21" d="M215.6,34.4v25h5.9v-25h8.5v25h17.8v7.4H197v-7.4h10v-25H215.6z M236.5,20.5h-36.9V13H245v20.2
			c0,6.4-0.6,13.3-1.6,18.2H235c0.9-4.6,1.5-11,1.5-16.4V20.5z"/>
		<path class="st21" d="M254.7,37.7h51.5v7.2h-11.5v6.2h7.9v19.2h-8.5V58.4h-36.1v-7.3h8.3v-6.2h-11.5V37.7z M257.3,23.6
			c0-3.3,1.4-5.9,3.9-7.7c3.9-2.8,10.7-3.9,19.3-3.9c8.6,0,15.4,1.1,19.3,3.9c2.6,1.8,3.9,4.4,3.9,7.7c0,3.4-1.4,5.9-3.9,7.7
			c-3.9,2.8-10.7,3.9-19.3,3.9c-8.6,0-15.4-1.1-19.3-3.9C258.7,29.5,257.3,27,257.3,23.6z M265.8,23.6c0,1.1,0.6,1.9,1.8,2.6
			c2.4,1.4,7.2,1.9,12.9,1.9c5.7,0,10.4-0.5,12.9-1.9c1.1-0.7,1.7-1.6,1.7-2.6c0-1.1-0.6-1.9-1.7-2.6c-2.5-1.4-7.2-1.9-12.9-1.9
			c-5.7,0-10.4,0.5-12.9,1.9C266.5,21.7,265.8,22.6,265.8,23.6z M286.3,44.9h-11.6v6.2h11.6V44.9z"/>
		<path class="st21" d="M329.6,65.5h-15.1V13h20.9v7.4h-12.5v37.6h7.2c2.7,0,5.4-0.1,7.6-0.6v7C335.5,65.3,332.5,65.5,329.6,65.5z
			 M341.8,68.6v-27h-10.4v-7.4h10.4V12.3h8.2v56.3H341.8z M353.5,69.3V12h8.3v57.3H353.5z"/>
		<path class="st21" d="M402.1,39.2c0,10-0.8,17.7-4.3,22.3c-2.4,3.1-6.2,4.8-10.7,4.8c-4.4,0-8.2-1.7-10.7-4.8
			c-3.5-4.6-4.2-12.2-4.2-22.3c0-10,0.7-17.7,4.2-22.2c2.4-3.1,6.2-4.9,10.7-4.9c4.5,0,8.3,1.7,10.7,4.9
			C401.3,21.5,402.1,29.2,402.1,39.2z M380.7,39.2c0,8.5,0.4,14.8,2.3,17.6c0.9,1.4,2.4,2.1,4.2,2.1c1.7,0,3.3-0.7,4.2-2.1
			c1.9-2.8,2.2-9.1,2.2-17.6c0-8.4-0.4-14.7-2.2-17.5c-0.9-1.4-2.5-2.1-4.2-2.1c-1.7,0-3.2,0.7-4.2,2.1
			C381.1,24.4,380.7,30.7,380.7,39.2z M419,69.3h-8.5V12h8.5V69.3z"/>
		<path class="st21" d="M456.4,35.2v7.4h-17v15.4h14.5c3.7,0,7.1-0.1,9.6-0.8v7.1c-2.6,0.9-6.1,1.2-10,1.2h-22.5V13h28.2v7.4h-19.7
			v14.8H456.4z M477,69.3h-8.5V41.8h-9.7v-7.5h9.7V12h8.5V69.3z"/>
		<path class="st21" d="M499,10.3h8.5v5.1H519v7h-32.3v-7H499V10.3z M488.3,34.2c0-3.2,1.4-5.7,3.8-7.5c2.6-1.9,6.4-2.9,10.9-2.9
			c4.6,0,8.4,1,11,2.9c2.4,1.7,3.8,4.3,3.8,7.5c0,3.2-1.4,5.7-3.8,7.5c-2.6,1.9-6.4,2.9-11,2.9c-4.6,0-8.4-1-10.9-2.9
			C489.7,40,488.3,37.5,488.3,34.2z M526.5,46.8h8.5v23.1h-43.2V46.8h8.5v4.9h26.1V46.8z M496.5,34.2c0,0.9,0.5,1.7,1.2,2.4
			c1.2,0.9,3.1,1.4,5.4,1.4s4.2-0.4,5.4-1.4c0.7-0.6,1.2-1.4,1.2-2.4c0-0.9-0.5-1.7-1.2-2.3c-1.2-0.9-3.1-1.4-5.4-1.4
			s-4.2,0.5-5.4,1.4C497,32.5,496.5,33.3,496.5,34.2z M500.4,58.8v3.9h26.1v-3.9H500.4z M518.9,23.6h7.6V12h8.5v32.9h-8.5v-4.1h-7.6
			v-6.9h7.6v-3.4h-7.6V23.6z"/>
		<path class="st21" d="M547.9,39.8c0-4.4,1.9-7.9,4.9-10.2c2.6-2,6.1-3.1,9.9-3.1c3.8,0,7.2,1.1,9.9,3.1c3,2.3,4.9,5.7,4.9,10.2
			s-1.9,7.9-4.9,10.2c-1.6,1.2-3.5,2.1-5.6,2.6v6.2h7.7c4.6,0,8-0.7,9.9-2.4V12h8.5v57.3h-8.5v-5.9c-1.9,1.9-6.1,2.8-11.5,2.8h-27.6
			v-7.4h13v-6.2c-2.1-0.4-4.1-1.3-5.7-2.6C549.7,47.7,547.9,44.2,547.9,39.8z M566.8,17h12.1v7.3h-32.6V17h12v-6.6h8.5V17z
			 M556.4,39.8c0,1.8,0.7,3.4,1.9,4.5c1.1,1,2.6,1.6,4.4,1.6s3.2-0.6,4.4-1.6c1.1-1.1,1.9-2.7,1.9-4.5c0-1.8-0.7-3.4-1.9-4.5
			c-1.1-1-2.6-1.6-4.4-1.6s-3.3,0.6-4.4,1.6C557.1,36.4,556.4,38,556.4,39.8z"/>
	</g>
</g>
</svg>
