<?xml version="1.0" encoding="utf-8"?>
<!-- Generator: Adobe Illustrator 27.0.0, SVG Export Plug-In . SVG Version: 6.00 Build 0)  -->
<svg version="1.1" id="Layer_1" xmlns="http://www.w3.org/2000/svg" xmlns:xlink="http://www.w3.org/1999/xlink" x="0px" y="0px"
	 width="800px" height="230px" viewBox="0 0 800 230" style="enable-background:new 0 0 800 230;" xml:space="preserve">
<style type="text/css">
	.st0{fill:#F2F2F2;}
	.st1{opacity:0.5;}
	.st2{fill:none;stroke:url(#SVGID_1_);stroke-miterlimit:10;}
	
		.st3{fill:none;stroke:url(#SVGID_00000170995755334398170810000017645922458725653385_);stroke-miterlimit:10;stroke-dasharray:7.9691,7.9691;}
	.st4{fill:none;stroke:url(#SVGID_00000107586678634005471240000017669699618180135565_);stroke-miterlimit:10;}
	
		.st5{fill:none;stroke:url(#SVGID_00000113337334281460940590000002768077597833236388_);stroke-miterlimit:10;stroke-dasharray:7.9691,7.9691;}
	.st6{fill:none;stroke:url(#SVGID_00000020377061860040789300000011508937238005720726_);stroke-miterlimit:10;}
	
		.st7{fill:none;stroke:url(#SVGID_00000096770815918665990990000012045137752626894481_);stroke-miterlimit:10;stroke-dasharray:7.9706,7.9706;}
	.st8{fill:none;stroke:url(#SVGID_00000171687668366442993400000010451839301642092420_);stroke-miterlimit:10;}
	
		.st9{fill:none;stroke:url(#SVGID_00000052827151395363995790000005683047128576566672_);stroke-miterlimit:10;stroke-dasharray:7.9706,7.9706;}
	.st10{fill:none;stroke:url(#SVGID_00000160156722378895452250000000884106094686000789_);stroke-miterlimit:10;}
	
		.st11{fill:none;stroke:url(#SVGID_00000098941575372134014650000014166750043256330147_);stroke-miterlimit:10;stroke-dasharray:7.988,7.988;}
	.st12{fill:none;stroke:url(#SVGID_00000178914174806015511100000008427019526843185321_);stroke-miterlimit:10;}
	
		.st13{fill:none;stroke:url(#SVGID_00000074422256980918198180000015923065343471116420_);stroke-miterlimit:10;stroke-dasharray:7.988,7.988;}
	.st14{fill:none;stroke:url(#SVGID_00000093135118134559331120000015055955935678124199_);stroke-miterlimit:10;}
	
		.st15{fill:none;stroke:url(#SVGID_00000065787214889556099180000001726360012760062636_);stroke-miterlimit:10;stroke-dasharray:7.988,7.988;}
	.st16{fill:none;stroke:url(#SVGID_00000137823959170677934640000015919711821373031071_);stroke-miterlimit:10;}
	
		.st17{fill:none;stroke:url(#SVGID_00000093857764912985305090000000082078746263449220_);stroke-miterlimit:10;stroke-dasharray:7.988,7.988;}
	.st18{fill:#FFFFFF;stroke:url(#SVGID_00000085252890063589805210000007081504265664890046_);stroke-miterlimit:10;}
	.st19{fill:#FFFFFF;stroke:url(#SVGID_00000116944474839490975770000005790558011278818447_);stroke-miterlimit:10;}
	.st20{fill:#FFFFFF;stroke:url(#SVGID_00000084527641956743308880000003721263719848405428_);stroke-miterlimit:10;}
	.st21{fill:#FFFFFF;stroke:url(#SVGID_00000076592290104689571850000008548808672784099722_);stroke-miterlimit:10;}
	.st22{fill:#FFFFFF;stroke:url(#SVGID_00000031176829799806315290000013684662144873195681_);stroke-miterlimit:10;}
	.st23{fill:none;stroke:url(#SVGID_00000121249965108259470610000010776255707135903915_);stroke-miterlimit:10;}
	.st24{fill:none;stroke:url(#SVGID_00000003076399339720329680000011695340236483426726_);stroke-miterlimit:10;}
	.st25{fill:none;stroke:url(#SVGID_00000018931366983626567090000007725550782898917522_);stroke-miterlimit:10;}
	.st26{fill:#FFFFFF;stroke:url(#SVGID_00000060752459276144634460000007030573777905223354_);stroke-miterlimit:10;}
	.st27{opacity:0.5;fill:#FFFFFF;stroke:url(#SVGID_00000165923292320918410480000014250378302974481057_);stroke-miterlimit:10;}
	.st28{fill:url(#SVGID_00000171699936192630753580000015024542195094148017_);}
	.st29{fill:url(#SVGID_00000173866513659011128100000009330208233277354368_);}
	.st30{fill:url(#SVGID_00000131330739824864611790000015126282098156499612_);}
	.st31{fill:url(#SVGID_00000042011494215670565950000014731716979648421288_);}
	.st32{fill:url(#SVGID_00000117644611574307588900000004528567175846882991_);}
	.st33{fill:url(#SVGID_00000007401971399230747970000004393980105181707947_);}
	.st34{fill:url(#SVGID_00000027586814682261119850000004002606472558283446_);}
	.st35{fill:url(#SVGID_00000154401971737131661450000004913751230126138532_);}
	.st36{fill:url(#SVGID_00000112593071964709095660000010773732088305183899_);}
	.st37{fill:url(#SVGID_00000035494263079101192740000005103924200975223457_);}
	.st38{fill:url(#SVGID_00000112593070864135674110000008540139353512413580_);}
	.st39{fill:url(#SVGID_00000147191512905855360740000017704704557009192082_);}
	.st40{fill:url(#SVGID_00000156583662816703259070000010067944327305262258_);}
	.st41{fill:url(#SVGID_00000071562159814795414330000005991629947529060235_);}
	.st42{fill:url(#SVGID_00000181784081717559223220000017965249268515953305_);}
	.st43{fill:url(#SVGID_00000005249485520303099360000006791159524402507436_);}
	.st44{fill:url(#SVGID_00000159460520062563441900000002046562704789642933_);}
	.st45{fill:url(#SVGID_00000124857913862975518160000005163781805975115169_);}
	.st46{fill:url(#SVGID_00000021093851169576652000000013887577220382283396_);}
	.st47{fill:url(#SVGID_00000127733341772372854160000002047782662980209063_);}
	.st48{fill:url(#SVGID_00000039124328845715277800000015264883070290773941_);}
	.st49{fill:#252C56;}
</style>
<g>
	<g>
		<g>
			<path d="M746,226.1v-0.8h1.7v-5.8c0,0,0-0.1,0-0.1l-1.4,1.3l-0.5-0.6l2.1-1.8h0.8v7.1h1.5v0.8H746z"/>
			<path d="M752.9,226c-0.3-0.1-0.5-0.3-0.8-0.6c-0.2-0.3-0.4-0.6-0.5-1c-0.1-0.4-0.2-0.8-0.2-1.3c0-0.5,0.1-0.9,0.2-1.3
				c0.1-0.4,0.3-0.7,0.6-1c0.2-0.3,0.5-0.5,0.8-0.6c0.3-0.1,0.6-0.2,1-0.2c0.3,0,0.6,0.1,0.9,0.2s0.5,0.3,0.8,0.5l-0.1-1v-2.2h1v8.5
				h-0.8l-0.1-0.7h0c-0.2,0.2-0.5,0.4-0.8,0.6c-0.3,0.2-0.6,0.2-1,0.2C753.6,226.2,753.2,226.2,752.9,226z M754.9,225.2
				c0.2-0.1,0.5-0.3,0.7-0.6v-3.1c-0.3-0.2-0.5-0.4-0.7-0.5c-0.2-0.1-0.5-0.1-0.7-0.1c-0.2,0-0.5,0.1-0.7,0.2
				c-0.2,0.1-0.4,0.3-0.5,0.5c-0.2,0.2-0.3,0.4-0.4,0.7c-0.1,0.3-0.1,0.6-0.1,0.9c0,0.7,0.1,1.3,0.4,1.7s0.7,0.6,1.2,0.6
				C754.4,225.4,754.7,225.4,754.9,225.2z"/>
		</g>
	</g>
	<g>
		<g>
			<path class="st0" d="M69,179.5H50.7v-49.7H69c16.5,0,19.3,12.4,19.3,24.8C88.3,167.4,85.4,179.5,69,179.5z M68.3,137.6H60v34h8.3
				c7.7,0,10.8-3.8,10.8-17C79.1,141.5,75.9,137.6,68.3,137.6z"/>
			<path class="st0" d="M87.9,179.5l14.9-25.7l-13.8-24h10l9.7,17.7l9.6-17.7h10l-13.9,24l15,25.7h-10l-10.7-19.3l-10.7,19.3H87.9z"
				/>
			<path class="st0" d="M69,53.5H50.7V3.7H69c16.5,0,19.3,12.4,19.3,24.8C88.3,41.4,85.4,53.5,69,53.5z M68.3,11.6H60v34h8.3
				c7.7,0,10.8-3.8,10.8-17C79.1,15.4,75.9,11.6,68.3,11.6z"/>
			<path class="st0" d="M87.9,53.5l14.9-25.7L89,3.7h10l9.7,17.7l9.6-17.7h10l-13.9,24l15,25.7h-10l-10.7-19.3L97.9,53.5H87.9z"/>
			<path class="st0" d="M737.9,179.5h-18.2v-49.7h18.2c16.5,0,19.3,12.4,19.3,24.8C757.2,167.4,754.3,179.5,737.9,179.5z
				 M737.2,137.6h-8.3v34h8.3c7.7,0,10.8-3.8,10.8-17C748,141.5,744.8,137.6,737.2,137.6z"/>
			<path class="st0" d="M756.9,179.5l14.9-25.7l-13.8-24h10l9.7,17.7l9.6-17.7h10l-13.9,24l15,25.7h-10l-10.7-19.3l-10.7,19.3H756.9
				z"/>
			<path class="st0" d="M737.9,53.5h-18.2V3.7h18.2c16.5,0,19.3,12.4,19.3,24.8C757.2,41.4,754.3,53.5,737.9,53.5z M737.2,11.6h-8.3
				v34h8.3c7.7,0,10.8-3.8,10.8-17C748,15.4,744.8,11.6,737.2,11.6z"/>
			<path class="st0" d="M756.9,53.5l14.9-25.7L758,3.7h10l9.7,17.7l9.6-17.7h10l-13.9,24l15,25.7h-10l-10.7-19.3l-10.7,19.3H756.9z"
				/>
			<g class="st1">
				<g>
					<linearGradient id="SVGID_1_" gradientUnits="userSpaceOnUse" x1="50.7347" y1="129.7739" x2="799.8585" y2="129.7739">
						<stop  offset="0" style="stop-color:#252C56"/>
						<stop  offset="0.3965" style="stop-color:#165690"/>
						<stop  offset="0.9944" style="stop-color:#0094E3"/>
					</linearGradient>
					<polyline class="st2" points="54.7,129.8 50.7,129.8 54.7,129.8 					"/>
					
						<linearGradient id="SVGID_00000117636107792870636800000017921356647380885662_" gradientUnits="userSpaceOnUse" x1="50.7347" y1="129.7739" x2="799.8585" y2="129.7739">
						<stop  offset="0" style="stop-color:#252C56"/>
						<stop  offset="0.3965" style="stop-color:#165690"/>
						<stop  offset="0.9944" style="stop-color:#0094E3"/>
					</linearGradient>
					
						<line style="fill:none;stroke:url(#SVGID_00000117636107792870636800000017921356647380885662_);stroke-miterlimit:10;stroke-dasharray:7.9691,7.9691;" x1="62.7" y1="129.8" x2="791.9" y2="129.8"/>
					
						<linearGradient id="SVGID_00000158715075669741968890000011957775660138674048_" gradientUnits="userSpaceOnUse" x1="50.7347" y1="129.7739" x2="799.8585" y2="129.7739">
						<stop  offset="0" style="stop-color:#252C56"/>
						<stop  offset="0.3965" style="stop-color:#165690"/>
						<stop  offset="0.9944" style="stop-color:#0094E3"/>
					</linearGradient>
					
						<polyline style="fill:none;stroke:url(#SVGID_00000158715075669741968890000011957775660138674048_);stroke-miterlimit:10;" points="
						795.9,129.8 799.9,129.8 795.9,129.8 					"/>
					
						<linearGradient id="SVGID_00000039854365842703567450000000516408830694360206_" gradientUnits="userSpaceOnUse" x1="50.7347" y1="129.7739" x2="799.8585" y2="129.7739">
						<stop  offset="0" style="stop-color:#252C56"/>
						<stop  offset="0.3965" style="stop-color:#165690"/>
						<stop  offset="0.9944" style="stop-color:#0094E3"/>
					</linearGradient>
					
						<line style="fill:none;stroke:url(#SVGID_00000039854365842703567450000000516408830694360206_);stroke-miterlimit:10;stroke-dasharray:7.9691,7.9691;" x1="787.9" y1="129.8" x2="58.7" y2="129.8"/>
				</g>
			</g>
			<g class="st1">
				<g>
					
						<linearGradient id="SVGID_00000052076051226469851820000015127762803392604060_" gradientUnits="userSpaceOnUse" x1="50.7347" y1="53.4703" x2="800" y2="53.4703">
						<stop  offset="0" style="stop-color:#252C56"/>
						<stop  offset="0.3965" style="stop-color:#165690"/>
						<stop  offset="0.9944" style="stop-color:#0094E3"/>
					</linearGradient>
					
						<polyline style="fill:none;stroke:url(#SVGID_00000052076051226469851820000015127762803392604060_);stroke-miterlimit:10;" points="
						54.7,53.5 50.7,53.5 54.7,53.5 					"/>
					
						<linearGradient id="SVGID_00000098179122996696944940000000388801962337211026_" gradientUnits="userSpaceOnUse" x1="50.7347" y1="53.4703" x2="800" y2="53.4703">
						<stop  offset="0" style="stop-color:#252C56"/>
						<stop  offset="0.3965" style="stop-color:#165690"/>
						<stop  offset="0.9944" style="stop-color:#0094E3"/>
					</linearGradient>
					
						<line style="fill:none;stroke:url(#SVGID_00000098179122996696944940000000388801962337211026_);stroke-miterlimit:10;stroke-dasharray:7.9706,7.9706;" x1="62.7" y1="53.5" x2="792" y2="53.5"/>
					
						<linearGradient id="SVGID_00000071549096553022961780000012743883893116208306_" gradientUnits="userSpaceOnUse" x1="50.7347" y1="53.4703" x2="800" y2="53.4703">
						<stop  offset="0" style="stop-color:#252C56"/>
						<stop  offset="0.3965" style="stop-color:#165690"/>
						<stop  offset="0.9944" style="stop-color:#0094E3"/>
					</linearGradient>
					
						<polyline style="fill:none;stroke:url(#SVGID_00000071549096553022961780000012743883893116208306_);stroke-miterlimit:10;" points="
						796,53.5 800,53.5 796,53.5 					"/>
					
						<linearGradient id="SVGID_00000112624411296758441720000009061335013494214029_" gradientUnits="userSpaceOnUse" x1="50.7347" y1="53.4703" x2="800" y2="53.4703">
						<stop  offset="0" style="stop-color:#252C56"/>
						<stop  offset="0.3965" style="stop-color:#165690"/>
						<stop  offset="0.9944" style="stop-color:#0094E3"/>
					</linearGradient>
					
						<line style="fill:none;stroke:url(#SVGID_00000112624411296758441720000009061335013494214029_);stroke-miterlimit:10;stroke-dasharray:7.9706,7.9706;" x1="788" y1="53.5" x2="58.7" y2="53.5"/>
				</g>
			</g>
			<g class="st1">
				<g>
					
						<linearGradient id="SVGID_00000007386437591811113640000017449839708120221370_" gradientUnits="userSpaceOnUse" x1="128.8716" y1="5.7467" x2="129.8716" y2="5.7467">
						<stop  offset="0" style="stop-color:#252C56"/>
						<stop  offset="0.3965" style="stop-color:#165690"/>
						<stop  offset="0.9944" style="stop-color:#0094E3"/>
					</linearGradient>
					
						<polyline style="fill:none;stroke:url(#SVGID_00000007386437591811113640000017449839708120221370_);stroke-miterlimit:10;" points="
						129.4,7.7 129.4,3.7 129.4,7.7 					"/>
					
						<linearGradient id="SVGID_00000159438149712056174320000001945222962503703174_" gradientUnits="userSpaceOnUse" x1="128.8716" y1="93.6178" x2="129.8716" y2="93.6178">
						<stop  offset="0" style="stop-color:#252C56"/>
						<stop  offset="0.3965" style="stop-color:#165690"/>
						<stop  offset="0.9944" style="stop-color:#0094E3"/>
					</linearGradient>
					
						<line style="fill:none;stroke:url(#SVGID_00000159438149712056174320000001945222962503703174_);stroke-miterlimit:10;stroke-dasharray:7.988,7.988;" x1="129.4" y1="15.7" x2="129.4" y2="171.5"/>
					
						<linearGradient id="SVGID_00000058547477993567830010000016552756125588440994_" gradientUnits="userSpaceOnUse" x1="128.8716" y1="177.495" x2="129.8716" y2="177.495">
						<stop  offset="0" style="stop-color:#252C56"/>
						<stop  offset="0.3965" style="stop-color:#165690"/>
						<stop  offset="0.9944" style="stop-color:#0094E3"/>
					</linearGradient>
					
						<polyline style="fill:none;stroke:url(#SVGID_00000058547477993567830010000016552756125588440994_);stroke-miterlimit:10;" points="
						129.4,175.5 129.4,179.5 129.4,175.5 					"/>
					
						<linearGradient id="SVGID_00000016768583359744644140000004480578424320017063_" gradientUnits="userSpaceOnUse" x1="128.8716" y1="89.6238" x2="129.8716" y2="89.6238">
						<stop  offset="0" style="stop-color:#252C56"/>
						<stop  offset="0.3965" style="stop-color:#165690"/>
						<stop  offset="0.9944" style="stop-color:#0094E3"/>
					</linearGradient>
					
						<line style="fill:none;stroke:url(#SVGID_00000016768583359744644140000004480578424320017063_);stroke-miterlimit:10;stroke-dasharray:7.988,7.988;" x1="129.4" y1="167.5" x2="129.4" y2="11.7"/>
				</g>
			</g>
			<g class="st1">
				<g>
					
						<linearGradient id="SVGID_00000168833099669928569940000009596966229420229010_" gradientUnits="userSpaceOnUse" x1="719.1832" y1="5.7467" x2="720.1832" y2="5.7467">
						<stop  offset="0" style="stop-color:#252C56"/>
						<stop  offset="0.3965" style="stop-color:#165690"/>
						<stop  offset="0.9944" style="stop-color:#0094E3"/>
					</linearGradient>
					
						<polyline style="fill:none;stroke:url(#SVGID_00000168833099669928569940000009596966229420229010_);stroke-miterlimit:10;" points="
						719.7,7.7 719.7,3.7 719.7,7.7 					"/>
					
						<linearGradient id="SVGID_00000082369694095167708330000007637827425557601206_" gradientUnits="userSpaceOnUse" x1="719.1832" y1="93.6178" x2="720.1832" y2="93.6178">
						<stop  offset="0" style="stop-color:#252C56"/>
						<stop  offset="0.3965" style="stop-color:#165690"/>
						<stop  offset="0.9944" style="stop-color:#0094E3"/>
					</linearGradient>
					
						<line style="fill:none;stroke:url(#SVGID_00000082369694095167708330000007637827425557601206_);stroke-miterlimit:10;stroke-dasharray:7.988,7.988;" x1="719.7" y1="15.7" x2="719.7" y2="171.5"/>
					
						<linearGradient id="SVGID_00000081605718173192919930000004334305939122080404_" gradientUnits="userSpaceOnUse" x1="719.1832" y1="177.495" x2="720.1832" y2="177.495">
						<stop  offset="0" style="stop-color:#252C56"/>
						<stop  offset="0.3965" style="stop-color:#165690"/>
						<stop  offset="0.9944" style="stop-color:#0094E3"/>
					</linearGradient>
					
						<polyline style="fill:none;stroke:url(#SVGID_00000081605718173192919930000004334305939122080404_);stroke-miterlimit:10;" points="
						719.7,175.5 719.7,179.5 719.7,175.5 					"/>
					
						<linearGradient id="SVGID_00000018237925994733442770000013665862812029349045_" gradientUnits="userSpaceOnUse" x1="719.1832" y1="89.6238" x2="720.1832" y2="89.6238">
						<stop  offset="0" style="stop-color:#252C56"/>
						<stop  offset="0.3965" style="stop-color:#165690"/>
						<stop  offset="0.9944" style="stop-color:#0094E3"/>
					</linearGradient>
					
						<line style="fill:none;stroke:url(#SVGID_00000018237925994733442770000013665862812029349045_);stroke-miterlimit:10;stroke-dasharray:7.988,7.988;" x1="719.7" y1="167.5" x2="719.7" y2="11.7"/>
				</g>
			</g>
		</g>
		
			<linearGradient id="SVGID_00000009576186433783942790000008383137591792682141_" gradientUnits="userSpaceOnUse" x1="50.2349" y1="198.6351" x2="129.8714" y2="198.6351">
			<stop  offset="0" style="stop-color:#252C56"/>
			<stop  offset="0.3965" style="stop-color:#165690"/>
			<stop  offset="0.9944" style="stop-color:#0094E3"/>
		</linearGradient>
		
			<polyline style="fill:#FFFFFF;stroke:url(#SVGID_00000009576186433783942790000008383137591792682141_);stroke-miterlimit:10;" points="
			50.7,193.3 50.7,203.4 129.4,203.4 129.4,193.3 		"/>
		
			<linearGradient id="SVGID_00000094590155033241997880000014527302263270261688_" gradientUnits="userSpaceOnUse" x1="1440.1881" y1="-3344.0984" x2="1517.4893" y2="-3344.0984" gradientTransform="matrix(0 1 -1 0 -3298.6726 -1387.2179)">
			<stop  offset="0" style="stop-color:#252C56"/>
			<stop  offset="0.3965" style="stop-color:#165690"/>
			<stop  offset="0.9944" style="stop-color:#0094E3"/>
		</linearGradient>
		
			<polyline style="fill:#FFFFFF;stroke:url(#SVGID_00000094590155033241997880000014527302263270261688_);stroke-miterlimit:10;" points="
			50.7,53.5 40.6,53.5 40.6,129.8 50.7,129.8 		"/>
		
			<linearGradient id="SVGID_00000181777178596056896660000000676332807446246039_" gradientUnits="userSpaceOnUse" x1="1430.3938" y1="-3238.6121" x2="1481.1146" y2="-3238.6121" gradientTransform="matrix(0 1 -1 0 -3193.1863 -1301.1198)">
			<stop  offset="0" style="stop-color:#252C56"/>
			<stop  offset="0.3965" style="stop-color:#165690"/>
			<stop  offset="0.9944" style="stop-color:#0094E3"/>
		</linearGradient>
		
			<polyline style="fill:#FFFFFF;stroke:url(#SVGID_00000181777178596056896660000000676332807446246039_);stroke-miterlimit:10;" points="
			50.7,129.8 40.6,129.8 40.6,179.5 50.7,179.5 		"/>
		
			<linearGradient id="SVGID_00000116224120759581889640000002562088252266396302_" gradientUnits="userSpaceOnUse" x1="128.8186" y1="198.6351" x2="228.1408" y2="198.6351">
			<stop  offset="0" style="stop-color:#252C56"/>
			<stop  offset="0.3965" style="stop-color:#165690"/>
			<stop  offset="0.9944" style="stop-color:#0094E3"/>
		</linearGradient>
		
			<polyline style="fill:#FFFFFF;stroke:url(#SVGID_00000116224120759581889640000002562088252266396302_);stroke-miterlimit:10;" points="
			129.3,193.3 129.3,203.4 227.6,203.4 227.6,193.3 		"/>
		
			<linearGradient id="SVGID_00000159441176718230405450000013243037785194918788_" gradientUnits="userSpaceOnUse" x1="227.1408" y1="198.6351" x2="720.1832" y2="198.6351">
			<stop  offset="0" style="stop-color:#252C56"/>
			<stop  offset="0.3965" style="stop-color:#165690"/>
			<stop  offset="0.9944" style="stop-color:#0094E3"/>
		</linearGradient>
		
			<polyline style="fill:#FFFFFF;stroke:url(#SVGID_00000159441176718230405450000013243037785194918788_);stroke-miterlimit:10;" points="
			227.6,193.3 227.6,203.4 719.7,203.4 719.7,193.3 		"/>
		
			<linearGradient id="SVGID_00000022544700713768926130000007068080039690680468_" gradientUnits="userSpaceOnUse" x1="128.8186" y1="137.8797" x2="208.4552" y2="137.8797">
			<stop  offset="0" style="stop-color:#252C56"/>
			<stop  offset="0.3965" style="stop-color:#165690"/>
			<stop  offset="0.9944" style="stop-color:#0094E3"/>
		</linearGradient>
		
			<polyline style="fill:none;stroke:url(#SVGID_00000022544700713768926130000007068080039690680468_);stroke-miterlimit:10;" points="
			129.3,132.6 129.3,142.7 208,142.7 208,132.6 		"/>
		
			<linearGradient id="SVGID_00000002351881797010348760000003457887234255553686_" gradientUnits="userSpaceOnUse" x1="128.8186" y1="137.8797" x2="169.1369" y2="137.8797">
			<stop  offset="0" style="stop-color:#252C56"/>
			<stop  offset="0.3965" style="stop-color:#165690"/>
			<stop  offset="0.9944" style="stop-color:#0094E3"/>
		</linearGradient>
		
			<polyline style="fill:none;stroke:url(#SVGID_00000002351881797010348760000003457887234255553686_);stroke-miterlimit:10;" points="
			129.3,132.6 129.3,142.7 168.6,142.7 168.6,132.6 		"/>
		
			<linearGradient id="SVGID_00000042706245053627559260000010423010346774707854_" gradientUnits="userSpaceOnUse" x1="207.4552" y1="137.8797" x2="228.1408" y2="137.8797">
			<stop  offset="0" style="stop-color:#252C56"/>
			<stop  offset="0.3965" style="stop-color:#165690"/>
			<stop  offset="0.9944" style="stop-color:#0094E3"/>
		</linearGradient>
		
			<polyline style="fill:none;stroke:url(#SVGID_00000042706245053627559260000010423010346774707854_);stroke-miterlimit:10;" points="
			208,132.6 208,142.7 227.6,142.7 227.6,132.6 		"/>
		<g>
			<g>
				<path d="M75.3,226.1v-0.8h1.7v-5.8c0,0,0-0.1,0-0.1l-1.4,1.3l-0.5-0.6l2.1-1.8H78v7.1h1.5v0.8H75.3z"/>
				<path d="M82.3,226c-0.3-0.1-0.5-0.3-0.8-0.6c-0.2-0.3-0.4-0.6-0.5-1c-0.1-0.4-0.2-0.8-0.2-1.3c0-0.5,0.1-0.9,0.2-1.3
					c0.1-0.4,0.3-0.7,0.6-1c0.2-0.3,0.5-0.5,0.8-0.6c0.3-0.1,0.6-0.2,1-0.2c0.3,0,0.6,0.1,0.9,0.2s0.5,0.3,0.8,0.5l-0.1-1v-2.2h1
					v8.5h-0.8l-0.1-0.7h0c-0.2,0.2-0.5,0.4-0.8,0.6c-0.3,0.2-0.6,0.2-1,0.2C82.9,226.2,82.6,226.2,82.3,226z M84.3,225.2
					c0.2-0.1,0.5-0.3,0.7-0.6v-3.1c-0.3-0.2-0.5-0.4-0.7-0.5c-0.2-0.1-0.5-0.1-0.7-0.1c-0.2,0-0.5,0.1-0.7,0.2
					c-0.2,0.1-0.4,0.3-0.5,0.5c-0.2,0.2-0.3,0.4-0.4,0.7c-0.1,0.3-0.1,0.6-0.1,0.9c0,0.7,0.1,1.3,0.4,1.7c0.3,0.4,0.7,0.6,1.2,0.6
					C83.8,225.4,84,225.4,84.3,225.2z"/>
			</g>
		</g>
		
			<linearGradient id="SVGID_00000005243624627915492150000015216665886465560743_" gradientUnits="userSpaceOnUse" x1="719.1832" y1="198.6351" x2="800.5" y2="198.6351">
			<stop  offset="0" style="stop-color:#252C56"/>
			<stop  offset="0.3965" style="stop-color:#165690"/>
			<stop  offset="0.9944" style="stop-color:#0094E3"/>
		</linearGradient>
		
			<polyline style="fill:#FFFFFF;stroke:url(#SVGID_00000005243624627915492150000015216665886465560743_);stroke-miterlimit:10;" points="
			719.7,193.3 719.7,203.4 800,203.4 800,193.3 		"/>
		<g>
			<g>
				<path d="M22.7,91.6v-0.8h1.7V85c0,0,0-0.1,0-0.1L23,86.2l-0.5-0.6l2.1-1.8h0.8v7.1h1.5v0.8H22.7z"/>
				<path d="M29.6,91.6c-0.3-0.1-0.5-0.3-0.8-0.6c-0.2-0.3-0.4-0.6-0.5-1c-0.1-0.4-0.2-0.8-0.2-1.3c0-0.5,0.1-0.9,0.2-1.3
					c0.1-0.4,0.3-0.7,0.6-1c0.2-0.3,0.5-0.5,0.8-0.6c0.3-0.1,0.6-0.2,1-0.2c0.3,0,0.6,0.1,0.9,0.2c0.2,0.1,0.5,0.3,0.8,0.5l-0.1-1
					v-2.2h1v8.5h-0.8l-0.1-0.7h0c-0.2,0.2-0.5,0.4-0.8,0.6c-0.3,0.2-0.6,0.2-1,0.2C30.3,91.8,29.9,91.7,29.6,91.6z M31.6,90.7
					c0.2-0.1,0.5-0.3,0.7-0.6v-3.1c-0.3-0.2-0.5-0.4-0.7-0.5c-0.2-0.1-0.5-0.1-0.7-0.1c-0.2,0-0.5,0.1-0.7,0.2
					c-0.2,0.1-0.4,0.3-0.5,0.5c-0.2,0.2-0.3,0.4-0.4,0.7c-0.1,0.3-0.1,0.6-0.1,0.9c0,0.7,0.1,1.3,0.4,1.7c0.3,0.4,0.7,0.6,1.2,0.6
					C31.1,90.9,31.4,90.9,31.6,90.7z"/>
			</g>
		</g>
		<g>
			<g>
				<path d="M5.5,155.4c-0.1,0.5-0.4,0.9-0.6,1.3c-0.3,0.3-0.6,0.6-0.9,0.7c-0.4,0.2-0.7,0.2-1.1,0.2s-0.8-0.1-1.1-0.2
					c-0.3-0.2-0.7-0.4-0.9-0.7c-0.3-0.3-0.5-0.8-0.6-1.3S0,154.3,0,153.6c0-0.7,0.1-1.3,0.2-1.8s0.3-0.9,0.6-1.3
					c0.3-0.3,0.6-0.6,0.9-0.7c0.4-0.2,0.7-0.2,1.1-0.2s0.8,0.1,1.1,0.2c0.3,0.2,0.7,0.4,0.9,0.7c0.3,0.3,0.5,0.8,0.6,1.3
					c0.2,0.5,0.2,1.1,0.2,1.8C5.8,154.3,5.7,154.9,5.5,155.4z M4.6,152c-0.1-0.4-0.2-0.8-0.4-1c-0.2-0.3-0.4-0.4-0.6-0.5
					c-0.2-0.1-0.5-0.2-0.7-0.2c-0.3,0-0.5,0.1-0.7,0.2c-0.2,0.1-0.4,0.3-0.6,0.5c-0.2,0.3-0.3,0.6-0.4,1C1,152.4,1,153,1,153.6
					c0,0.6,0.1,1.1,0.2,1.5c0.1,0.4,0.2,0.8,0.4,1c0.2,0.3,0.4,0.4,0.6,0.6c0.2,0.1,0.5,0.2,0.7,0.2c0.2,0,0.5-0.1,0.7-0.2
					c0.2-0.1,0.4-0.3,0.6-0.6c0.2-0.3,0.3-0.6,0.4-1c0.1-0.4,0.2-0.9,0.2-1.5C4.8,153,4.7,152.4,4.6,152z"/>
				<path d="M7.5,157.6h-1v-1h1V157.6z"/>
				<path d="M10.9,152.9c-0.1,0.1-0.1,0.1-0.1,0.2c0.2-0.1,0.4-0.2,0.6-0.3s0.5-0.1,0.7-0.1c0.3,0,0.6,0.1,0.9,0.2
					c0.3,0.1,0.5,0.3,0.7,0.5c0.2,0.2,0.4,0.5,0.5,0.7c0.1,0.3,0.2,0.6,0.2,1c0,0.4-0.1,0.7-0.2,1c-0.1,0.3-0.3,0.6-0.6,0.8
					c-0.2,0.2-0.5,0.4-0.9,0.6c-0.3,0.1-0.7,0.2-1.1,0.2c-0.4,0-0.8-0.1-1.1-0.2c-0.3-0.1-0.6-0.3-0.8-0.5c-0.2-0.2-0.4-0.5-0.5-0.9
					c-0.1-0.3-0.2-0.7-0.2-1.1c0-0.3,0.1-0.7,0.2-1.1c0.2-0.4,0.4-0.8,0.7-1.3l2.2-2.9h1.2l-2.4,3C11,152.7,10.9,152.8,10.9,152.9z
					 M12.4,156.7c0.2-0.1,0.4-0.2,0.6-0.4c0.2-0.1,0.3-0.3,0.4-0.5c0.1-0.2,0.1-0.4,0.1-0.7c0-0.3,0-0.5-0.1-0.7
					c-0.1-0.2-0.2-0.4-0.4-0.5c-0.2-0.1-0.3-0.3-0.5-0.3c-0.2-0.1-0.4-0.1-0.7-0.1c-0.3,0-0.5,0-0.7,0.1c-0.2,0.1-0.4,0.2-0.5,0.4
					c-0.2,0.2-0.3,0.3-0.3,0.5c-0.1,0.2-0.1,0.4-0.1,0.6c0,0.5,0.1,0.9,0.4,1.2c0.3,0.3,0.7,0.5,1.2,0.5
					C11.9,156.8,12.2,156.8,12.4,156.7z"/>
				<path d="M15.5,157.5v-0.7l2.7-2.6c0.2-0.2,0.4-0.4,0.6-0.6c0.2-0.2,0.3-0.4,0.5-0.6c0.1-0.2,0.2-0.4,0.3-0.6
					c0.1-0.2,0.1-0.4,0.1-0.6c0-0.5-0.2-0.8-0.4-1c-0.3-0.2-0.6-0.3-1-0.3c-0.2,0-0.4,0-0.6,0.1c-0.2,0.1-0.4,0.2-0.5,0.3
					c-0.1,0.1-0.2,0.3-0.3,0.5c-0.1,0.2-0.1,0.4-0.1,0.6l-1-0.2c0.1-0.4,0.2-0.7,0.3-1c0.2-0.3,0.3-0.5,0.6-0.7s0.5-0.3,0.8-0.4
					c0.3-0.1,0.6-0.1,0.9-0.1c0.3,0,0.6,0,0.9,0.1c0.3,0.1,0.5,0.2,0.8,0.4s0.4,0.4,0.5,0.7c0.1,0.3,0.2,0.6,0.2,0.9
					c0,0.3,0,0.6-0.1,0.8c-0.1,0.2-0.2,0.5-0.4,0.7c-0.2,0.2-0.3,0.5-0.5,0.7c-0.2,0.2-0.4,0.4-0.6,0.7l-2.2,2.2
					c0.2,0,0.3-0.1,0.5-0.1c0.2,0,0.3,0,0.4,0h3.1v0.9H15.5z"/>
				<path d="M24.5,152.4c0.4,0,0.8,0.1,1.1,0.2c0.3,0.1,0.6,0.3,0.8,0.5c0.2,0.2,0.4,0.5,0.5,0.8c0.1,0.3,0.2,0.6,0.2,1
					c0,0.4-0.1,0.8-0.2,1.1c-0.1,0.3-0.3,0.6-0.6,0.9c-0.3,0.2-0.6,0.4-0.9,0.6c-0.3,0.1-0.7,0.2-1.1,0.2c-0.5,0-0.9-0.1-1.3-0.3
					c-0.4-0.2-0.7-0.4-0.9-0.6l0.5-0.7c0.2,0.2,0.5,0.4,0.8,0.5c0.3,0.1,0.6,0.2,0.9,0.2c0.3,0,0.5,0,0.7-0.1
					c0.2-0.1,0.4-0.2,0.6-0.4c0.2-0.2,0.3-0.3,0.4-0.6c0.1-0.2,0.1-0.5,0.1-0.8c0-0.5-0.2-0.9-0.5-1.2c-0.3-0.3-0.8-0.4-1.3-0.4
					c-0.2,0-0.4,0-0.6,0.1c-0.2,0-0.4,0.1-0.7,0.2l-0.6-0.2l0.6-3.7h3.8v0.9h-3.1l-0.4,2.1C23.7,152.5,24.1,152.4,24.5,152.4z"/>
				<path d="M29.6,157.4c-0.3-0.1-0.5-0.3-0.8-0.6c-0.2-0.3-0.4-0.6-0.5-1c-0.1-0.4-0.2-0.8-0.2-1.3c0-0.5,0.1-0.9,0.2-1.3
					c0.1-0.4,0.3-0.7,0.6-1c0.2-0.3,0.5-0.5,0.8-0.6s0.6-0.2,1-0.2c0.3,0,0.6,0.1,0.9,0.2s0.5,0.3,0.8,0.5l-0.1-1V149h1v8.5h-0.8
					l-0.1-0.7h0c-0.2,0.2-0.5,0.4-0.8,0.6c-0.3,0.2-0.6,0.2-1,0.2C30.3,157.6,29.9,157.6,29.6,157.4z M31.6,156.6
					c0.2-0.1,0.5-0.3,0.7-0.6V153c-0.3-0.2-0.5-0.4-0.7-0.5c-0.2-0.1-0.5-0.1-0.7-0.1c-0.2,0-0.5,0.1-0.7,0.2
					c-0.2,0.1-0.4,0.3-0.5,0.5c-0.2,0.2-0.3,0.4-0.4,0.7c-0.1,0.3-0.1,0.6-0.1,0.9c0,0.7,0.1,1.3,0.4,1.7c0.3,0.4,0.7,0.6,1.2,0.6
					C31.1,156.8,31.4,156.7,31.6,156.6z"/>
			</g>
		</g>
		<g>
			<g>
				<path d="M164.5,226.1v-0.8h1.7v-5.8c0,0,0-0.1,0-0.1l-1.4,1.3l-0.5-0.6l2.1-1.8h0.8v7.1h1.5v0.8H164.5z"/>
				<path d="M170.9,226.3h-1v-1h1V226.3z"/>
				<path d="M172.5,226.1v-0.7l2.7-2.6c0.2-0.2,0.4-0.4,0.6-0.6c0.2-0.2,0.3-0.4,0.5-0.6c0.1-0.2,0.2-0.4,0.3-0.6
					c0.1-0.2,0.1-0.4,0.1-0.6c0-0.5-0.2-0.8-0.4-1c-0.3-0.2-0.6-0.3-1-0.3c-0.2,0-0.4,0-0.6,0.1c-0.2,0.1-0.4,0.2-0.5,0.3
					c-0.1,0.1-0.2,0.3-0.3,0.5c-0.1,0.2-0.1,0.4-0.1,0.6l-1-0.2c0.1-0.4,0.2-0.7,0.3-1c0.2-0.3,0.3-0.5,0.6-0.7s0.5-0.3,0.8-0.4
					c0.3-0.1,0.6-0.1,0.9-0.1c0.3,0,0.6,0,0.9,0.1c0.3,0.1,0.5,0.2,0.8,0.4c0.2,0.2,0.4,0.4,0.5,0.7c0.1,0.3,0.2,0.6,0.2,0.9
					c0,0.3,0,0.6-0.1,0.8c-0.1,0.2-0.2,0.5-0.4,0.7s-0.3,0.5-0.5,0.7c-0.2,0.2-0.4,0.4-0.6,0.7l-2.2,2.2c0.2,0,0.3-0.1,0.5-0.1
					c0.2,0,0.3,0,0.4,0h3.1v0.9H172.5z"/>
				<path d="M181.5,221c0.4,0,0.8,0.1,1.1,0.2c0.3,0.1,0.6,0.3,0.8,0.5c0.2,0.2,0.4,0.5,0.5,0.8c0.1,0.3,0.2,0.6,0.2,1
					c0,0.4-0.1,0.8-0.2,1.1c-0.1,0.3-0.3,0.6-0.6,0.9c-0.3,0.2-0.6,0.4-0.9,0.6c-0.3,0.1-0.7,0.2-1.1,0.2c-0.5,0-0.9-0.1-1.3-0.3
					c-0.4-0.2-0.7-0.4-0.9-0.6l0.5-0.7c0.2,0.2,0.5,0.4,0.8,0.5c0.3,0.1,0.6,0.2,0.9,0.2c0.3,0,0.5,0,0.7-0.1
					c0.2-0.1,0.4-0.2,0.6-0.4c0.2-0.2,0.3-0.3,0.4-0.6c0.1-0.2,0.1-0.5,0.1-0.8c0-0.5-0.2-0.9-0.5-1.2c-0.3-0.3-0.8-0.4-1.3-0.4
					c-0.2,0-0.4,0-0.6,0.1c-0.2,0-0.4,0.1-0.7,0.2l-0.6-0.2l0.6-3.7h3.8v0.9h-3.1l-0.4,2.1C180.7,221.1,181.1,221,181.5,221z"/>
				<path d="M186.7,226c-0.3-0.1-0.5-0.3-0.8-0.6c-0.2-0.3-0.4-0.6-0.5-1c-0.1-0.4-0.2-0.8-0.2-1.3c0-0.5,0.1-0.9,0.2-1.3
					c0.1-0.4,0.3-0.7,0.6-1c0.2-0.3,0.5-0.5,0.8-0.6c0.3-0.1,0.6-0.2,1-0.2c0.3,0,0.6,0.1,0.9,0.2c0.2,0.1,0.5,0.3,0.8,0.5l-0.1-1
					v-2.2h1v8.5h-0.8l-0.1-0.7h0c-0.2,0.2-0.5,0.4-0.8,0.6c-0.3,0.2-0.6,0.2-1,0.2C187.3,226.2,187,226.2,186.7,226z M188.7,225.2
					c0.2-0.1,0.5-0.3,0.7-0.6v-3.1c-0.3-0.2-0.5-0.4-0.7-0.5c-0.2-0.1-0.5-0.1-0.7-0.1c-0.2,0-0.5,0.1-0.7,0.2
					c-0.2,0.1-0.4,0.3-0.5,0.5c-0.2,0.2-0.3,0.4-0.4,0.7c-0.1,0.3-0.1,0.6-0.1,0.9c0,0.7,0.1,1.3,0.4,1.7s0.7,0.6,1.2,0.6
					C188.2,225.4,188.4,225.4,188.7,225.2z"/>
			</g>
		</g>
		<g>
			<g>
				<path d="M462.3,221c0.4,0,0.8,0.1,1.1,0.2c0.3,0.1,0.6,0.3,0.8,0.5c0.2,0.2,0.4,0.5,0.5,0.8c0.1,0.3,0.2,0.6,0.2,1
					c0,0.4-0.1,0.8-0.2,1.1c-0.1,0.3-0.3,0.6-0.6,0.9c-0.3,0.2-0.6,0.4-0.9,0.6c-0.3,0.1-0.7,0.2-1.1,0.2c-0.5,0-0.9-0.1-1.3-0.3
					c-0.4-0.2-0.7-0.4-0.9-0.6l0.5-0.7c0.2,0.2,0.5,0.4,0.8,0.5c0.3,0.1,0.6,0.2,0.9,0.2c0.3,0,0.5,0,0.7-0.1
					c0.2-0.1,0.4-0.2,0.6-0.4c0.2-0.2,0.3-0.3,0.4-0.6c0.1-0.2,0.1-0.5,0.1-0.8c0-0.5-0.2-0.9-0.5-1.2c-0.3-0.3-0.8-0.4-1.3-0.4
					c-0.2,0-0.4,0-0.6,0.1c-0.2,0-0.4,0.1-0.7,0.2l-0.6-0.2l0.6-3.7h3.8v0.9h-3.1l-0.4,2.1C461.5,221.1,461.9,221,462.3,221z"/>
				<path d="M467.5,226c-0.3-0.1-0.5-0.3-0.8-0.6c-0.2-0.3-0.4-0.6-0.5-1c-0.1-0.4-0.2-0.8-0.2-1.3c0-0.5,0.1-0.9,0.2-1.3
					c0.1-0.4,0.3-0.7,0.6-1c0.2-0.3,0.5-0.5,0.8-0.6c0.3-0.1,0.6-0.2,1-0.2c0.3,0,0.6,0.1,0.9,0.2c0.2,0.1,0.5,0.3,0.8,0.5l-0.1-1
					v-2.2h1v8.5h-0.8l-0.1-0.7h0c-0.2,0.2-0.5,0.4-0.8,0.6c-0.3,0.2-0.6,0.2-1,0.2C468.1,226.2,467.8,226.2,467.5,226z M469.4,225.2
					c0.2-0.1,0.5-0.3,0.7-0.6v-3.1c-0.3-0.2-0.5-0.4-0.7-0.5c-0.2-0.1-0.5-0.1-0.7-0.1c-0.2,0-0.5,0.1-0.7,0.2
					c-0.2,0.1-0.4,0.3-0.5,0.5c-0.2,0.2-0.3,0.4-0.4,0.7c-0.1,0.3-0.1,0.6-0.1,0.9c0,0.7,0.1,1.3,0.4,1.7s0.7,0.6,1.2,0.6
					C469,225.4,469.2,225.4,469.4,225.2z"/>
			</g>
		</g>
		
			<linearGradient id="SVGID_00000151507548326993849180000008942752327213469581_" gradientUnits="userSpaceOnUse" x1="50.164" y1="91.6208" x2="800.4293" y2="91.6208">
			<stop  offset="0" style="stop-color:#252C56"/>
			<stop  offset="0.3965" style="stop-color:#165690"/>
			<stop  offset="0.9944" style="stop-color:#0094E3"/>
		</linearGradient>
		
			<rect x="50.7" y="3.7" style="opacity:0.5;fill:#FFFFFF;stroke:url(#SVGID_00000151507548326993849180000008942752327213469581_);stroke-miterlimit:10;" width="749.3" height="175.7"/>
		<g>
			<g>
				<g>
					
						<linearGradient id="SVGID_00000123407309094573352730000012346682546189538211_" gradientUnits="userSpaceOnUse" x1="129.3716" y1="1467.5925" x2="168.6369" y2="1467.5925" gradientTransform="matrix(1 0 0 -1 0 1593.4547)">
						<stop  offset="0" style="stop-color:#252C56"/>
						<stop  offset="0.3965" style="stop-color:#165690"/>
						<stop  offset="0.9944" style="stop-color:#0094E3"/>
					</linearGradient>
					<path style="fill:url(#SVGID_00000123407309094573352730000012346682546189538211_);" d="M164.7,129.8h-31.4
						c-2.2,0-3.9-1.8-3.9-3.9c0-2.2,1.8-3.9,3.9-3.9h31.4c2.2,0,3.9,1.8,3.9,3.9C168.6,128,166.9,129.8,164.7,129.8z"/>
				</g>
				<g>
					
						<linearGradient id="SVGID_00000155142517572770579640000001884954224397263548_" gradientUnits="userSpaceOnUse" x1="175.0861" y1="91.6208" x2="201.6235" y2="91.6208">
						<stop  offset="0.6145" style="stop-color:#41277A"/>
						<stop  offset="0.6429" style="stop-color:#4E2F80"/>
						<stop  offset="0.7765" style="stop-color:#8B559D"/>
						<stop  offset="1" style="stop-color:#E7BCD9"/>
					</linearGradient>
					<path style="fill:url(#SVGID_00000155142517572770579640000001884954224397263548_);" d="M197.7,95.5H179
						c-2.2,0-3.9-1.8-3.9-3.9s1.8-3.9,3.9-3.9h18.7c2.2,0,3.9,1.8,3.9,3.9S199.9,95.5,197.7,95.5z"/>
				</g>
				<g>
					
						<linearGradient id="SVGID_00000114060908964898458970000012614312310313626277_" gradientUnits="userSpaceOnUse" x1="178.3642" y1="80.2062" x2="205.2019" y2="80.2062">
						<stop  offset="0" style="stop-color:#41277A"/>
						<stop  offset="0.2039" style="stop-color:#45297C"/>
						<stop  offset="0.2673" style="stop-color:#4E2F80"/>
						<stop  offset="0.6927" style="stop-color:#8B559D"/>
						<stop  offset="1" style="stop-color:#E7BCD9"/>
					</linearGradient>
					<path style="fill:url(#SVGID_00000114060908964898458970000012614312310313626277_);" d="M201.3,84.1h-19
						c-2.2,0-3.9-1.8-3.9-3.9c0-2.2,1.8-3.9,3.9-3.9h19c2.2,0,3.9,1.8,3.9,3.9C205.2,82.4,203.5,84.1,201.3,84.1z"/>
				</g>
				<g>
					
						<linearGradient id="SVGID_00000057864019118671513520000000360036979563053205_" gradientUnits="userSpaceOnUse" x1="195.3245" y1="68.7941" x2="217.5404" y2="68.7941">
						<stop  offset="0" style="stop-color:#41277A"/>
						<stop  offset="9.184924e-02" style="stop-color:#4E2F80"/>
						<stop  offset="0.5251" style="stop-color:#8B559D"/>
						<stop  offset="1" style="stop-color:#E7BCD9"/>
					</linearGradient>
					<path style="fill:url(#SVGID_00000057864019118671513520000000360036979563053205_);" d="M212.1,72.7h-14.4
						c-2.2,0-3.9-1.8-3.9-3.9s1.8-3.9,3.9-3.9h14.4c2.2,0,3.9,1.8,3.9,3.9S214.2,72.7,212.1,72.7z"/>
				</g>
				<g>
					
						<linearGradient id="SVGID_00000072259477585026436430000007237065874134508473_" gradientUnits="userSpaceOnUse" x1="204.0055" y1="57.3795" x2="227.964" y2="57.3795">
						<stop  offset="0" style="stop-color:#41277A"/>
						<stop  offset="7.628820e-02" style="stop-color:#4E2F80"/>
						<stop  offset="0.4362" style="stop-color:#8B559D"/>
						<stop  offset="1" style="stop-color:#E7BCD9"/>
					</linearGradient>
					<path style="fill:url(#SVGID_00000072259477585026436430000007237065874134508473_);" d="M224.1,61.3h-16.1
						c-2.2,0-3.9-1.8-3.9-3.9c0-2.2,1.8-3.9,3.9-3.9h16.1c2.2,0,3.9,1.8,3.9,3.9C228,59.5,226.2,61.3,224.1,61.3z"/>
				</g>
				<g>
					
						<linearGradient id="SVGID_00000093891793080357129440000015231074729593127809_" gradientUnits="userSpaceOnUse" x1="195.3245" y1="-222.4736" x2="217.5404" y2="-222.4736" gradientTransform="matrix(1 0 0 -1 0 -108.0235)">
						<stop  offset="0" style="stop-color:#41277A"/>
						<stop  offset="9.184924e-02" style="stop-color:#4E2F80"/>
						<stop  offset="0.5251" style="stop-color:#8B559D"/>
						<stop  offset="1" style="stop-color:#E7BCD9"/>
					</linearGradient>
					<path style="fill:url(#SVGID_00000093891793080357129440000015231074729593127809_);" d="M212.1,110.5h-14.4
						c-2.2,0-3.9,1.8-3.9,3.9c0,2.2,1.8,3.9,3.9,3.9h14.4c2.2,0,3.9-1.8,3.9-3.9C216,112.3,214.2,110.5,212.1,110.5z"/>
				</g>
				<g>
					
						<linearGradient id="SVGID_00000097470155917852357850000014847741514886463419_" gradientUnits="userSpaceOnUse" x1="204.0055" y1="-233.8882" x2="227.964" y2="-233.8882" gradientTransform="matrix(1 0 0 -1 0 -108.0235)">
						<stop  offset="0" style="stop-color:#41277A"/>
						<stop  offset="7.628820e-02" style="stop-color:#4E2F80"/>
						<stop  offset="0.4362" style="stop-color:#8B559D"/>
						<stop  offset="1" style="stop-color:#E7BCD9"/>
					</linearGradient>
					<path style="fill:url(#SVGID_00000097470155917852357850000014847741514886463419_);" d="M224.1,122h-16.1
						c-2.2,0-3.9,1.8-3.9,3.9c0,2.2,1.8,3.9,3.9,3.9h16.1c2.2,0,3.9-1.8,3.9-3.9C228,123.7,226.2,122,224.1,122z"/>
				</g>
				<g>
					
						<linearGradient id="SVGID_00000082325901573540351690000003703580725621105558_" gradientUnits="userSpaceOnUse" x1="178.3642" y1="103.0329" x2="205.2019" y2="103.0329">
						<stop  offset="0" style="stop-color:#41277A"/>
						<stop  offset="0.2039" style="stop-color:#45297C"/>
						<stop  offset="0.2673" style="stop-color:#4E2F80"/>
						<stop  offset="0.6927" style="stop-color:#8B559D"/>
						<stop  offset="1" style="stop-color:#E7BCD9"/>
					</linearGradient>
					<path style="fill:url(#SVGID_00000082325901573540351690000003703580725621105558_);" d="M201.3,106.9h-19
						c-2.2,0-3.9-1.8-3.9-3.9s1.8-3.9,3.9-3.9h19c2.2,0,3.9,1.8,3.9,3.9S203.5,106.9,201.3,106.9z"/>
				</g>
				<g>
					
						<linearGradient id="SVGID_00000143591215448143955220000003494076360736144002_" gradientUnits="userSpaceOnUse" x1="129.3716" y1="57.3795" x2="168.6369" y2="57.3795">
						<stop  offset="0" style="stop-color:#252C56"/>
						<stop  offset="0.3965" style="stop-color:#165690"/>
						<stop  offset="0.9944" style="stop-color:#0094E3"/>
					</linearGradient>
					<path style="fill:url(#SVGID_00000143591215448143955220000003494076360736144002_);" d="M164.7,61.3h-31.4
						c-2.2,0-3.9-1.8-3.9-3.9c0-2.2,1.8-3.9,3.9-3.9h31.4c2.2,0,3.9,1.8,3.9,3.9C168.6,59.5,166.9,61.3,164.7,61.3z"/>
				</g>
				<g>
					
						<linearGradient id="SVGID_00000160894306926801675300000011846689904837014683_" gradientUnits="userSpaceOnUse" x1="129.3716" y1="68.7941" x2="181.0899" y2="68.7941">
						<stop  offset="0" style="stop-color:#252C56"/>
						<stop  offset="0.3965" style="stop-color:#165690"/>
						<stop  offset="0.9944" style="stop-color:#0094E3"/>
					</linearGradient>
					<path style="fill:url(#SVGID_00000160894306926801675300000011846689904837014683_);" d="M177.2,72.7h-43.9
						c-2.2,0-3.9-1.8-3.9-3.9s1.8-3.9,3.9-3.9h43.9c2.2,0,3.9,1.8,3.9,3.9S179.3,72.7,177.2,72.7z"/>
				</g>
				<g>
					
						<linearGradient id="SVGID_00000152239505505879290160000014130817352389574555_" gradientUnits="userSpaceOnUse" x1="129.3716" y1="80.2062" x2="186.1648" y2="80.2062">
						<stop  offset="0" style="stop-color:#252C56"/>
						<stop  offset="0.3965" style="stop-color:#165690"/>
						<stop  offset="0.9944" style="stop-color:#0094E3"/>
					</linearGradient>
					<path style="fill:url(#SVGID_00000152239505505879290160000014130817352389574555_);" d="M182.3,84.1h-49
						c-2.2,0-3.9-1.8-3.9-3.9c0-2.2,1.8-3.9,3.9-3.9h49c2.2,0,3.9,1.8,3.9,3.9C186.2,82.4,184.4,84.1,182.3,84.1z"/>
				</g>
				<g>
					
						<linearGradient id="SVGID_00000040564725216590573630000015350483242094384550_" gradientUnits="userSpaceOnUse" x1="129.3716" y1="91.6208" x2="189.425" y2="91.6208">
						<stop  offset="0" style="stop-color:#252C56"/>
						<stop  offset="0.3965" style="stop-color:#165690"/>
						<stop  offset="0.9944" style="stop-color:#0094E3"/>
					</linearGradient>
					<path style="fill:url(#SVGID_00000040564725216590573630000015350483242094384550_);" d="M185.5,95.5h-52.2
						c-2.2,0-3.9-1.8-3.9-3.9s1.8-3.9,3.9-3.9h52.2c2.2,0,3.9,1.8,3.9,3.9S187.7,95.5,185.5,95.5z"/>
				</g>
				<g>
					
						<linearGradient id="SVGID_00000151525976000897045290000016206159009455630223_" gradientUnits="userSpaceOnUse" x1="129.3716" y1="1479.0046" x2="181.0899" y2="1479.0046" gradientTransform="matrix(1 0 0 -1 0 1593.4547)">
						<stop  offset="0" style="stop-color:#252C56"/>
						<stop  offset="0.3965" style="stop-color:#165690"/>
						<stop  offset="0.9944" style="stop-color:#0094E3"/>
					</linearGradient>
					<path style="fill:url(#SVGID_00000151525976000897045290000016206159009455630223_);" d="M177.2,118.4h-43.9
						c-2.2,0-3.9-1.8-3.9-3.9c0-2.2,1.8-3.9,3.9-3.9h43.9c2.2,0,3.9,1.8,3.9,3.9C181.1,116.6,179.3,118.4,177.2,118.4z"/>
				</g>
				<g>
					
						<linearGradient id="SVGID_00000034082038727313975450000013582838428092627610_" gradientUnits="userSpaceOnUse" x1="129.3716" y1="1490.4219" x2="186.1648" y2="1490.4219" gradientTransform="matrix(1 0 0 -1 0 1593.4547)">
						<stop  offset="0" style="stop-color:#252C56"/>
						<stop  offset="0.3965" style="stop-color:#165690"/>
						<stop  offset="0.9944" style="stop-color:#0094E3"/>
					</linearGradient>
					<path style="fill:url(#SVGID_00000034082038727313975450000013582838428092627610_);" d="M182.3,106.9h-49
						c-2.2,0-3.9-1.8-3.9-3.9s1.8-3.9,3.9-3.9h49c2.2,0,3.9,1.8,3.9,3.9S184.4,106.9,182.3,106.9z"/>
				</g>
				<g>
					
						<radialGradient id="SVGID_00000116953850553620870330000018246337000490303646_" cx="173.4716" cy="80.9097" r="26.261" gradientUnits="userSpaceOnUse">
						<stop  offset="6.424581e-02" style="stop-color:#2AFFFC"/>
						<stop  offset="7.937797e-02" style="stop-color:#28F9F9"/>
						<stop  offset="0.2964" style="stop-color:#0BAACF"/>
						<stop  offset="0.396" style="stop-color:#008BBE"/>
						<stop  offset="0.5125" style="stop-color:#2879B3"/>
						<stop  offset="0.669" style="stop-color:#5865A7"/>
						<stop  offset="0.8072" style="stop-color:#7B569E"/>
						<stop  offset="0.9204" style="stop-color:#904C98"/>
						<stop  offset="0.9944" style="stop-color:#984996"/>
					</radialGradient>
					<path style="fill:url(#SVGID_00000116953850553620870330000018246337000490303646_);" d="M203.5,84.1h-27
						c-2.2,0-3.9-1.8-3.9-3.9c0-2.2,1.8-3.9,3.9-3.9h27c2.2,0,3.9,1.8,3.9,3.9C207.4,82.4,205.7,84.1,203.5,84.1z"/>
				</g>
				<g>
					
						<radialGradient id="SVGID_00000133525942986231739750000002167928438090285464_" cx="173.4716" cy="103.7364" r="26.261" gradientUnits="userSpaceOnUse">
						<stop  offset="6.424581e-02" style="stop-color:#2AFFFC"/>
						<stop  offset="7.937797e-02" style="stop-color:#28F9F9"/>
						<stop  offset="0.2964" style="stop-color:#0BAACF"/>
						<stop  offset="0.396" style="stop-color:#008BBE"/>
						<stop  offset="0.5125" style="stop-color:#2879B3"/>
						<stop  offset="0.669" style="stop-color:#5865A7"/>
						<stop  offset="0.8072" style="stop-color:#7B569E"/>
						<stop  offset="0.9204" style="stop-color:#904C98"/>
						<stop  offset="0.9944" style="stop-color:#984996"/>
					</radialGradient>
					<path style="fill:url(#SVGID_00000133525942986231739750000002167928438090285464_);" d="M203.5,106.9h-27
						c-2.2,0-3.9-1.8-3.9-3.9s1.8-3.9,3.9-3.9h27c2.2,0,3.9,1.8,3.9,3.9S205.7,106.9,203.5,106.9z"/>
				</g>
				<g>
					
						<radialGradient id="SVGID_00000128484556467060207250000002304487494537097149_" cx="181.4548" cy="92.086" r="19.2515" fx="179.8053" fy="92.086" gradientUnits="userSpaceOnUse">
						<stop  offset="6.424581e-02" style="stop-color:#2AFFFC"/>
						<stop  offset="8.322047e-02" style="stop-color:#28F9F9"/>
						<stop  offset="0.3553" style="stop-color:#0BAACF"/>
						<stop  offset="0.4802" style="stop-color:#008BBE"/>
						<stop  offset="0.5803" style="stop-color:#2879B3"/>
						<stop  offset="0.7148" style="stop-color:#5865A7"/>
						<stop  offset="0.8336" style="stop-color:#7B569E"/>
						<stop  offset="0.9308" style="stop-color:#904C98"/>
						<stop  offset="0.9944" style="stop-color:#984996"/>
					</radialGradient>
					<path style="fill:url(#SVGID_00000128484556467060207250000002304487494537097149_);" d="M197.7,95.5h-15.4
						c-2.2,0-3.9-1.8-3.9-3.9s1.8-3.9,3.9-3.9h15.4c2.2,0,3.9,1.8,3.9,3.9S199.9,95.5,197.7,95.5z"/>
				</g>
				<g>
					
						<radialGradient id="SVGID_00000067212407376749201660000017312673701761632180_" cx="160.1664" cy="69.1124" r="19.7804" gradientUnits="userSpaceOnUse">
						<stop  offset="6.424581e-02" style="stop-color:#2AFFFC"/>
						<stop  offset="7.937797e-02" style="stop-color:#28F9F9"/>
						<stop  offset="0.2964" style="stop-color:#0BAACF"/>
						<stop  offset="0.396" style="stop-color:#008BBE"/>
						<stop  offset="0.5125" style="stop-color:#2879B3"/>
						<stop  offset="0.669" style="stop-color:#5865A7"/>
						<stop  offset="0.8072" style="stop-color:#7B569E"/>
						<stop  offset="0.9204" style="stop-color:#904C98"/>
						<stop  offset="0.9944" style="stop-color:#984996"/>
					</radialGradient>
					<path style="fill:url(#SVGID_00000067212407376749201660000017312673701761632180_);" d="M177.2,72.7h-14.4
						c-2.2,0-3.9-1.8-3.9-3.9s1.8-3.9,3.9-3.9h14.4c2.2,0,3.9,1.8,3.9,3.9S179.3,72.7,177.2,72.7z"/>
				</g>
				<g>
					
						<radialGradient id="SVGID_00000123418873385423741530000008754259118844228500_" cx="160.1664" cy="114.6353" r="19.7804" gradientUnits="userSpaceOnUse">
						<stop  offset="6.424581e-02" style="stop-color:#2AFFFC"/>
						<stop  offset="7.937797e-02" style="stop-color:#28F9F9"/>
						<stop  offset="0.2964" style="stop-color:#0BAACF"/>
						<stop  offset="0.396" style="stop-color:#008BBE"/>
						<stop  offset="0.5125" style="stop-color:#2879B3"/>
						<stop  offset="0.669" style="stop-color:#5865A7"/>
						<stop  offset="0.8072" style="stop-color:#7B569E"/>
						<stop  offset="0.9204" style="stop-color:#904C98"/>
						<stop  offset="0.9944" style="stop-color:#984996"/>
					</radialGradient>
					<path style="fill:url(#SVGID_00000123418873385423741530000008754259118844228500_);" d="M177.2,118.4h-14.4
						c-2.2,0-3.9-1.8-3.9-3.9c0-2.2,1.8-3.9,3.9-3.9h14.4c2.2,0,3.9,1.8,3.9,3.9C181.1,116.6,179.3,118.4,177.2,118.4z"/>
				</g>
				<g>
					
						<radialGradient id="SVGID_00000033348959614490120100000008456027051795896761_" cx="144.1951" cy="57.4682" r="23.6443" gradientUnits="userSpaceOnUse">
						<stop  offset="6.424581e-02" style="stop-color:#2AFFFC"/>
						<stop  offset="7.937797e-02" style="stop-color:#28F9F9"/>
						<stop  offset="0.2964" style="stop-color:#0BAACF"/>
						<stop  offset="0.396" style="stop-color:#008BBE"/>
						<stop  offset="0.5125" style="stop-color:#2879B3"/>
						<stop  offset="0.669" style="stop-color:#5865A7"/>
						<stop  offset="0.8072" style="stop-color:#7B569E"/>
						<stop  offset="0.9204" style="stop-color:#904C98"/>
						<stop  offset="0.9944" style="stop-color:#984996"/>
					</radialGradient>
					<path style="fill:url(#SVGID_00000033348959614490120100000008456027051795896761_);" d="M164.7,61.3h-16.1
						c-2.2,0-3.9-1.8-3.9-3.9c0-2.2,1.8-3.9,3.9-3.9h16.1c2.2,0,3.9,1.8,3.9,3.9C168.6,59.5,166.9,61.3,164.7,61.3z"/>
				</g>
				<g>
					
						<radialGradient id="SVGID_00000065063490232269615820000011340281559496880037_" cx="144.062" cy="125.9509" r="23.6443" gradientUnits="userSpaceOnUse">
						<stop  offset="6.424581e-02" style="stop-color:#2AFFFC"/>
						<stop  offset="7.937797e-02" style="stop-color:#28F9F9"/>
						<stop  offset="0.2964" style="stop-color:#0BAACF"/>
						<stop  offset="0.396" style="stop-color:#008BBE"/>
						<stop  offset="0.5125" style="stop-color:#2879B3"/>
						<stop  offset="0.669" style="stop-color:#5865A7"/>
						<stop  offset="0.8072" style="stop-color:#7B569E"/>
						<stop  offset="0.9204" style="stop-color:#904C98"/>
						<stop  offset="0.9944" style="stop-color:#984996"/>
					</radialGradient>
					<path style="fill:url(#SVGID_00000065063490232269615820000011340281559496880037_);" d="M164.7,129.8h-16.1
						c-2.2,0-3.9-1.8-3.9-3.9c0-2.2,1.8-3.9,3.9-3.9h16.1c2.2,0,3.9,1.8,3.9,3.9C168.6,128,166.9,129.8,164.7,129.8z"/>
				</g>
			</g>
			<g>
				<path class="st49" d="M261.6,116.3h-18.2V66.5h18.2c16.5,0,19.3,12.4,19.3,24.8C280.9,104.2,278,116.3,261.6,116.3z M260.9,74.4
					h-8.3v34h8.3c7.7,0,10.8-3.8,10.8-17C271.7,78.2,268.5,74.4,260.9,74.4z"/>
				<path class="st49" d="M280.5,116.3l14.9-25.7l-13.8-24h10l9.7,17.7l9.6-17.7h10l-13.9,24l15,25.7h-10L301.3,97l-10.7,19.3H280.5
					z"/>
				<path class="st49" d="M343.9,86v24.9h5.9V86h8.5v24.9h17.8v7.4h-50.7v-7.4h10V86H343.9z M364.7,72.2H328v-7.5h45.3v20.1
					c0,6.4-0.6,13.2-1.6,18.1h-8.4c0.9-4.6,1.5-11,1.5-16.3V72.2z"/>
				<path class="st49" d="M382.9,89.3h51.3v7.2h-11.5v6.1h7.9v19.1h-8.5v-11.8h-36v-7.3h8.3v-6.1h-11.5V89.3z M385.5,75.3
					c0-3.3,1.4-5.8,3.9-7.6c3.9-2.8,10.6-3.9,19.2-3.9c8.6,0,15.3,1.1,19.2,3.9c2.5,1.8,3.9,4.3,3.9,7.6c0,3.4-1.4,5.8-3.9,7.6
					c-3.9,2.8-10.6,3.9-19.2,3.9c-8.6,0-15.3-1.1-19.2-3.9C386.9,81.2,385.5,78.7,385.5,75.3z M394,75.3c0,1.1,0.6,1.9,1.8,2.6
					c2.4,1.4,7.1,1.9,12.8,1.9c5.7,0,10.4-0.5,12.9-1.9c1.1-0.7,1.7-1.6,1.7-2.6c0-1.1-0.6-1.9-1.7-2.6c-2.5-1.4-7.2-1.9-12.9-1.9
					c-5.7,0-10.4,0.5-12.8,1.9C394.6,73.4,394,74.3,394,75.3z M414.3,96.5h-11.6v6.1h11.6V96.5z"/>
				<path class="st49" d="M457.5,117h-15V64.8h20.8v7.4h-12.5v37.5h7.1c2.7,0,5.4-0.1,7.6-0.6v7C463.3,116.8,460.4,117,457.5,117z
					 M469.6,120.1V93.2h-10.4v-7.4h10.4V64.1h8.2v56H469.6z M481.2,120.8v-57h8.3v57H481.2z"/>
				<path class="st49" d="M529.6,90.8c0,10-0.8,17.6-4.3,22.2c-2.4,3.1-6.1,4.8-10.6,4.8c-4.4,0-8.2-1.7-10.6-4.8
					c-3.5-4.5-4.2-12.2-4.2-22.2c0-9.9,0.7-17.6,4.2-22.1c2.4-3.1,6.2-4.8,10.6-4.8c4.5,0,8.3,1.7,10.6,4.8
					C528.8,73.2,529.6,80.9,529.6,90.8z M508.3,90.8c0,8.4,0.4,14.7,2.3,17.5c0.9,1.4,2.4,2.1,4.2,2.1c1.7,0,3.3-0.7,4.2-2.1
					c1.9-2.8,2.2-9.1,2.2-17.5c0-8.4-0.4-14.7-2.2-17.5c-0.9-1.4-2.5-2.1-4.2-2.1c-1.7,0-3.2,0.7-4.2,2.1
					C508.7,76.1,508.3,82.4,508.3,90.8z M546.4,120.8h-8.5v-57h8.5V120.8z"/>
				<path class="st49" d="M583.7,86.9v7.4h-17v15.3h14.4c3.7,0,7-0.1,9.6-0.8v7c-2.5,0.9-6.1,1.2-10,1.2h-22.4V64.8h28.1v7.4h-19.6
					v14.7H583.7z M604.2,120.8h-8.5V93.4H586V86h9.7V63.8h8.5V120.8z"/>
				<path class="st49" d="M626,62.1h8.5v5H646v7h-32.2v-7H626V62.1z M615.5,85.9c0-3.2,1.4-5.7,3.8-7.5c2.5-1.9,6.3-2.9,10.9-2.9
					c4.5,0,8.3,1,10.9,2.9c2.4,1.7,3.8,4.3,3.8,7.5c0,3.2-1.4,5.7-3.8,7.5c-2.6,1.9-6.4,2.9-10.9,2.9c-4.5,0-8.3-1-10.9-2.9
					C616.8,91.6,615.5,89.1,615.5,85.9z M653.5,98.4h8.5v23h-43v-23h8.5v4.8h26V98.4z M623.6,85.9c0,0.9,0.5,1.7,1.2,2.4
					c1.2,0.9,3.1,1.4,5.3,1.4s4.2-0.4,5.3-1.4c0.7-0.6,1.2-1.4,1.2-2.4c0-0.9-0.5-1.7-1.2-2.3c-1.2-0.9-3.1-1.4-5.3-1.4
					s-4.2,0.5-5.3,1.4C624.1,84.2,623.6,85,623.6,85.9z M627.5,110.4v3.9h26v-3.9H627.5z M645.9,75.3h7.6V63.8h8.5v32.7h-8.5v-4.1
					h-7.6v-6.9h7.6v-3.4h-7.6V75.3z"/>
				<path class="st49" d="M674.7,91.4c0-4.4,1.9-7.8,4.8-10.1c2.6-2,6.1-3,9.9-3s7.2,1.1,9.8,3c3,2.3,4.8,5.7,4.8,10.1
					s-1.9,7.8-4.8,10.1c-1.6,1.2-3.5,2-5.5,2.5v6.2h7.6c4.6,0,8-0.7,9.8-2.4V63.8h8.5v57h-8.5v-5.9c-1.9,1.9-6.1,2.8-11.4,2.8h-27.5
					v-7.4h13v-6.2c-2.1-0.4-4-1.3-5.7-2.5C676.6,99.2,674.7,95.8,674.7,91.4z M693.6,68.7h12V76h-32.5v-7.3h11.9v-6.6h8.5V68.7z
					 M683.2,91.4c0,1.8,0.7,3.4,1.9,4.5c1.1,1,2.6,1.6,4.4,1.6s3.2-0.6,4.3-1.6c1.1-1.1,1.9-2.7,1.9-4.5c0-1.8-0.7-3.4-1.9-4.5
					c-1.1-1-2.5-1.6-4.3-1.6s-3.3,0.6-4.4,1.6C683.9,88,683.2,89.6,683.2,91.4z"/>
			</g>
		</g>
	</g>
</g>
</svg>
